<svg version="1.2" xmlns="http://www.w3.org/2000/svg" viewBox="0 0 2600 1600" width="2600" height="1600">
	<title>bill-6107551-ai</title>
	<defs>
		<clipPath clipPathUnits="userSpaceOnUse" id="cp1">
			<path d="m2599.54 1600.22h-2600v-1600h2600z"/>
		</clipPath>
		<linearGradient id="g1" x2="1" gradientUnits="userSpaceOnUse" gradientTransform="matrix(54.029,0,0,37.354,2005.126,628.537)">
			<stop offset="0" stop-color="#01064a"/>
			<stop offset="1" stop-color="#55c8ff"/>
		</linearGradient>
		<linearGradient id="g2" x2="1" gradientUnits="userSpaceOnUse" gradientTransform="matrix(77.982,35.081,-46.328,102.983,1999.103,598.637)">
			<stop offset="0" stop-color="#55c8ff"/>
			<stop offset="1" stop-color="#01064a"/>
		</linearGradient>
		<linearGradient id="g3" x2="1" gradientUnits="userSpaceOnUse" gradientTransform="matrix(214.148,24.27,-45.024,397.269,1963.878,401.744)">
			<stop offset="0" stop-color="#55c8ff"/>
			<stop offset="1" stop-color="#01064a"/>
		</linearGradient>
		<linearGradient id="g4" x2="1" gradientUnits="userSpaceOnUse" gradientTransform="matrix(68.833,0,0,23.907,1951.418,607.71)">
			<stop offset="0" stop-color="#01064a"/>
			<stop offset="1" stop-color="#55c8ff"/>
		</linearGradient>
		<linearGradient id="g5" x2="1" gradientUnits="userSpaceOnUse" gradientTransform="matrix(55.222,25.348,-19.79,43.114,1954.177,580.362)">
			<stop offset="0" stop-color="#55c8ff"/>
			<stop offset="1" stop-color="#01064a"/>
		</linearGradient>
		<linearGradient id="g6" x2="1" gradientUnits="userSpaceOnUse" gradientTransform="matrix(175.167,34.302,-63.109,322.273,1968.439,366.33)">
			<stop offset="0" stop-color="#55c8ff"/>
			<stop offset="1" stop-color="#01064a"/>
		</linearGradient>
		<linearGradient id="g7" x2="1" gradientUnits="userSpaceOnUse" gradientTransform="matrix(27.595,0,0,26.506,2109.575,275.574)">
			<stop offset="0" stop-color="#55c8ff"/>
			<stop offset="1" stop-color="#01064a"/>
		</linearGradient>
		<linearGradient id="g8" x2="1" gradientUnits="userSpaceOnUse" gradientTransform="matrix(13.192,0,0,16.077,2094.622,281.797)">
			<stop offset="0" stop-color="#55c8ff"/>
			<stop offset="1" stop-color="#01064a"/>
		</linearGradient>
		<linearGradient id="g9" x2="1" gradientUnits="userSpaceOnUse" gradientTransform="matrix(86.022,7.642,-63.322,712.749,2044.637,215.161)">
			<stop offset="0" stop-color="#01064a"/>
			<stop offset="1" stop-color="#55c8ff"/>
		</linearGradient>
		<linearGradient id="g10" x2="1" gradientUnits="userSpaceOnUse" gradientTransform="matrix(30.091,3.096,-40.303,391.694,2084.47,205.673)">
			<stop offset="0" stop-color="#01064a"/>
			<stop offset="1" stop-color="#55c8ff"/>
		</linearGradient>
		<linearGradient id="g11" x2="1" gradientUnits="userSpaceOnUse" gradientTransform="matrix(75.024,0,0,191.22,2096.437,260.604)">
			<stop offset="0" stop-color="#55c8ff"/>
			<stop offset="1" stop-color="#01064a"/>
		</linearGradient>
		<linearGradient id="g12" x2="1" gradientUnits="userSpaceOnUse" gradientTransform="matrix(133.245,52.274,-570.708,1454.72,2103.455,170.94)">
			<stop offset="0" stop-color="#55c8ff"/>
			<stop offset="1" stop-color="#01064a"/>
		</linearGradient>
		<linearGradient id="g13" x2="1" gradientUnits="userSpaceOnUse" gradientTransform="matrix(-10.439,56.06,-38.746,-7.215,2073.097,369.068)">
			<stop offset="0" stop-color="#01064a"/>
			<stop offset="1" stop-color="#94f1ff"/>
		</linearGradient>
		<linearGradient id="g14" x2="1" gradientUnits="userSpaceOnUse" gradientTransform="matrix(74.835,-30.222,31.39,77.727,1967.334,240.802)">
			<stop offset="0" stop-color="#55c8ff"/>
			<stop offset="1" stop-color="#01064a"/>
		</linearGradient>
		<linearGradient id="g15" x2="1" gradientUnits="userSpaceOnUse" gradientTransform="matrix(28.994,0,0,33.456,2102.891,250.286)">
			<stop offset="0" stop-color="#94f1ff"/>
			<stop offset="1" stop-color="#01064a"/>
		</linearGradient>
		<linearGradient id="g16" x2="1" gradientUnits="userSpaceOnUse" gradientTransform="matrix(80.304,-52.261,49.341,75.817,2047.026,243.195)">
			<stop offset="0" stop-color="#94f1ff"/>
			<stop offset="1" stop-color="#01064a"/>
		</linearGradient>
		<linearGradient id="g17" x2="1" gradientUnits="userSpaceOnUse" gradientTransform="matrix(-76.895,69.393,-62.987,-69.796,2171.752,214.691)">
			<stop offset="0" stop-color="#01064a"/>
			<stop offset="1" stop-color="#55c8ff"/>
		</linearGradient>
		<linearGradient id="g18" x2="1" gradientUnits="userSpaceOnUse" gradientTransform="matrix(16.78,-36.237,57.12,26.451,2081.631,253.516)">
			<stop offset="0" stop-color="#01064a"/>
			<stop offset="1" stop-color="#55c8ff"/>
		</linearGradient>
		<linearGradient id="g19" x2="1" gradientUnits="userSpaceOnUse" gradientTransform="matrix(71.872,-12.404,6.68,38.708,2067.53,428.956)">
			<stop offset="0" stop-color="#94f1ff"/>
			<stop offset="1" stop-color="#01064a"/>
		</linearGradient>
		<linearGradient id="g20" x2="1" gradientUnits="userSpaceOnUse" gradientTransform="matrix(105.689,-28.07,40.935,154.13,2071.338,278.388)">
			<stop offset="0" stop-color="#55c8ff"/>
			<stop offset="1" stop-color="#01064a"/>
		</linearGradient>
	</defs>
	<style>
		.s0 { fill: url(#g1) } 
		.s1 { fill: url(#g2) } 
		.s2 { fill: url(#g3) } 
		.s3 { fill: url(#g4) } 
		.s4 { fill: url(#g5) } 
		.s5 { fill: url(#g6) } 
		.s6 { fill: #55c8ff } 
		.s7 { fill: #ff3131 } 
		.s8 { fill: url(#g7) } 
		.s9 { fill: url(#g8) } 
		.s10 { fill: url(#g9) } 
		.s11 { fill: url(#g10) } 
		.s12 { fill: url(#g11) } 
		.s13 { fill: url(#g12) } 
		.s14 { fill: #195975 } 
		.s15 { fill: #55acd8 } 
		.s16 { fill: #005289 } 
		.s17 { fill: url(#g13) } 
		.s18 { fill: #00416d } 
		.s19 { fill: #2c6d91 } 
		.s20 { fill: url(#g14) } 
		.s21 { fill: url(#g15) } 
		.s22 { fill: url(#g16) } 
		.s23 { fill: url(#g17) } 
		.s24 { fill: url(#g18) } 
		.s25 { fill: url(#g19) } 
		.s26 { fill: url(#g20) } 
	</style>
	<g id="Layer 1">
		<g id="&lt;Clip Group&gt;" clip-path="url(#cp1)">
			<g id="&lt;Group&gt;">
				<g id="&lt;Group&gt;">
					<g id="&lt;Group&gt;">
						<g id="&lt;Group&gt;">
							<g id="&lt;Group&gt;">
								<path id="&lt;Path&gt;" class="s0" d="m2058.6 628.5l0.6 9.2c0 0-4.4 6.9-11.2 11 0-2.3 0-2.3 0-2.3 0 0-12.1 19.3-25.3 19.5-10.6 0.1-17.7 0.1-17.6-12.4 0.1-12.5 53.5-25 53.5-25z"/>
								<path id="&lt;Path&gt;" class="s1" d="m2025.4 626.7c0 0-15.7 16.9-19 22.5-3.3 5.6-1.3 20.7 21.3 13.8 10.3-4.4 14.2-12.9 16.9-16.8 1.8-2.7 10.1-11.2 14.9-16.1 2-2 3.4-3.4 3.4-3.4 0 0-8-11.5-37.5 0z"/>
							</g>
							<path id="&lt;Path&gt;" class="s2" d="m2158 432.8c0 0 9 41.9-32.3 61.9-45.4 21.9-44.8 26.3-44.8 26.3 0 0-4.7 33.5-8.7 60.5-3.9 27.1-7.9 46.3-7.9 46.3 0 0-21.3 10-40.8 0 0 0 10.4-32.8 12.8-49.8 2.4-17.1 4-55.4 4-55.4 0 0-2.3-32.3 25.2-49.3 27.9-17.2 30.1-38.2 30.1-38.2z"/>
						</g>
						<g id="&lt;Group&gt;">
							<g id="&lt;Group&gt;">
								<path id="&lt;Path&gt;" class="s3" d="m2019.5 607.7c0 0 1.9 8.2-0.4 10.2-2.3 1.9-12.5 3.8-16.7 4.2-1.6-3.3-1.1-3.9-1.1-3.9 0 0-6 1.6-11.2 3.3-5.8 1.9-28.7 11.1-33.3 10-4.7-1-6.5-5.3-4.7-9.2 1.9-3.9 67.4-14.6 67.4-14.6z"/>
								<path id="&lt;Path&gt;" class="s4" d="m1984.1 598.2c0 0-9.1 7.6-21.1 12-11.9 4.5-11.2 13.9-10.6 14.6 0.5 0.7 4.3 4.9 13.4 2.2 9.1-2.8 15.6-5.3 22.4-7.7 4.5-1.6 6.4-1.4 13-4 6.1-2.3 19.4-5.1 19.1-6.9-0.4-1.8-29.3-11.9-36.2-10.2z"/>
							</g>
							<path id="&lt;Path&gt;" class="s5" d="m2077.7 411.6c0 0-56.3 29.8-85.2 49.8-10.6 9.2-14.3 25.3-11.5 42.9 2.7 17.6 6.4 84.2 0.6 95.5 0 0 22.5 11.2 39.2 9.7 0 0-0.3-30.7 0-62.9 0.3-32.3-3.3-53.5-3.3-53.5 0 0 35.2-10.7 73.5-37.4l14-21z"/>
						</g>
					</g>
					<g id="&lt;Group&gt;">
						<path id="&lt;Path&gt;" class="s6" d="m2143.8 274.9h-58.8l-10.8 140.4c0 0 11.8 17.6 33.6 19.3l21.5-52.2z"/>
						<path id="&lt;Path&gt;" class="s7" d="m2098.3 293.3l5.1 7.1 7.5-5.2-3.1-13.4z"/>
						<path id="&lt;Path&gt;" class="s7" d="m2102.4 297.9c0 0-17.8 40.4-17.7 82l5.2 10.8 6.5-9c0 0-3.1-40.4 8.6-83.8z"/>
						<path id="&lt;Path&gt;" class="s8" d="m2109.6 285.3l2.3 16.8 25.3-19.6-3.9-6.9z"/>
						<path id="&lt;Path&gt;" class="s9" d="m2107.8 281.8l-10.3 16.1-2.9-10.6z"/>
						<g id="&lt;Group&gt;">
							<g id="&lt;Group&gt;">
								<path id="&lt;Path&gt;" class="s6" d="m2107.8 282.6l1.8 17.8 27.6-18.9 1.2-20.1-11.5-9.1z"/>
							</g>
							<g id="&lt;Group&gt;">
								<path id="&lt;Path&gt;" class="s6" d="m2107.8 282.6l-12.2 13.8-6.3-20.9-2.1-11.4 12.6-3.5z"/>
							</g>
						</g>
					</g>
					<g id="&lt;Group&gt;">
						<path id="&lt;Path&gt;" class="s10" d="m2092.3 257.3c-0.7 2.1-1.6 7.4-2.4 14-1.9 14.2-3.8 34.5-3.8 42.4 0 11.5-4.6 39.6-5.6 55.7-0.1 2.8-0.4 6.6-0.7 11-1.6 21.3-4.7 56.3-4.7 56.3-9.6-2.3-19-17.9-19-17.9 0 0 15-30.9 15.2-66.4-2.3-73.8 21-95.1 21-95.1z"/>
						<path id="&lt;Path&gt;" class="s11" d="m2089.9 265v6.3c-1.9 14.2-3.8 34.5-3.8 42.4 0 11.5-4.6 39.6-5.6 55.7-0.1 2.8-0.4 6.6-0.7 11v0.1c0 0-2-19.5-1.3-38.2 0.7-18.7 0-36 0-36l6-3.4-3.4-5.2z"/>
					</g>
					<g id="&lt;Group&gt;">
						<path id="&lt;Path&gt;" class="s12" d="m2152.8 373.1c3.8 38.4 9.7 68.5 9.7 68.5 0 0-23.5 19.3-66.1 4.8 0 0 1.7-32.1 3.5-59.1 1-14.6 2.1-27.6 3-33.2 2.5-15.9 19.8-52.8 27.9-66.5 8-13.4 6.8-25.3 6.6-26.8q0-0.2 0-0.2 0 0 0 0.1 0 0 0.1 0c1.8 1.2 24 16.7 34 41.9 0 12.1-22.5 32.2-18.7 70.5z"/>
						<path id="&lt;Path&gt;" class="s13" d="m2127.1 314.5l-6.5 1.4 4.4 9.3-25.1 62.1c1-14.6 2.1-27.6 3-33.2 2.5-15.9 19.8-52.8 27.9-66.5 8-13.4 6.8-25.3 6.6-26.8v-0.1l0.1-0.1q0 0 0 0.1c0.1 1.4 1.6 21-10.4 53.8z"/>
					</g>
					<g id="&lt;Group&gt;">
						<path id="&lt;Path&gt;" class="s14" d="m1986.6 432.5l50.5-29.9c2.2-1.3 4.8-1.3 7-0.1l77.5 43.9 0.3-1.7h2.5v5.5q0 0 0 0v0.1c0 1.2-0.6 2.4-1.8 3.1l-50.9 29.1c-2.7 1.5-6.1 1.5-8.8-0.1l-76.3-44.3c-2.2-1.2-2.2-4.3 0-5.6z"/>
						<path id="&lt;Path&gt;" class="s15" d="m2122.5 441.9l-78.4-44.5c-2.2-1.2-4.8-1.2-7 0.1l-50.5 29.9c-2.2 1.3-2.2 4.4 0 5.7l76.3 44.2c2.7 1.6 6.1 1.7 8.8 0.1l50.9-29c2.5-1.5 2.5-5.1-0.1-6.5z"/>
						<g id="&lt;Group&gt;">
							<path id="&lt;Path&gt;" class="s16" d="m2085.6 448.4l-3.7 2.1 5.5 3.1 3.6-2.1z"/>
							<path id="&lt;Path&gt;" class="s16" d="m2079.7 445l-3.6 2.1 4.8 2.8 3.7-2.1z"/>
							<path id="&lt;Path&gt;" class="s16" d="m2073.9 441.6l-3.6 2.1 4.7 2.8 3.7-2.1z"/>
							<path id="&lt;Path&gt;" class="s16" d="m2047.4 426.3l-3.6 2.1 25.4 14.8 3.7-2.2z"/>
							<path id="&lt;Path&gt;" class="s16" d="m2041.6 422.9l-3.7 2.1 4.8 2.8 3.7-2.1z"/>
							<path id="&lt;Path&gt;" class="s16" d="m2035.8 419.6l-3.7 2.1 4.8 2.8 3.6-2.2z"/>
							<path id="&lt;Path&gt;" class="s16" d="m2024.9 417.5l6.2 3.6 3.6-2.1-6.1-3.6z"/>
							<path id="&lt;Path&gt;" class="s16" d="m2077.4 449.7l-3.6 2.1 8.3 4.9 3.7-2.2z"/>
							<path id="&lt;Path&gt;" class="s16" d="m2071.7 446.4l-3.7 2.1 4.7 2.7 3.7-2.1z"/>
							<path id="&lt;Path&gt;" class="s16" d="m2066.1 443.1l-3.7 2.1 4.6 2.7 3.6-2.1z"/>
							<path id="&lt;Path&gt;" class="s16" d="m2060.5 439.9l-3.7 2.1 4.6 2.7 3.6-2.2z"/>
							<path id="&lt;Path&gt;" class="s16" d="m2054.9 436.7l-3.7 2.1 4.6 2.6 3.7-2.1z"/>
							<path id="&lt;Path&gt;" class="s16" d="m2049.2 433.4l-3.7 2.1 4.7 2.7 3.7-2.1z"/>
							<path id="&lt;Path&gt;" class="s16" d="m2043.6 430.1l-3.7 2.2 4.6 2.6 3.7-2.1z"/>
							<path id="&lt;Path&gt;" class="s16" d="m2038.1 427l-3.7 2.1 4.5 2.6 3.7-2.2z"/>
							<path id="&lt;Path&gt;" class="s16" d="m2032.5 423.7l-3.7 2.2 4.6 2.6 3.7-2.1z"/>
							<path id="&lt;Path&gt;" class="s16" d="m2019.7 420.6l8.1 4.7 3.7-2.2-8.1-4.7z"/>
							<path id="&lt;Path&gt;" class="s16" d="m2074.2 454.8l-2.9 1.7 5.5 3.2 3.7-2.1-5.6-3.2z"/>
							<path id="&lt;Path&gt;" class="s16" d="m2068.4 451.5l-2.9 1.7 4.7 2.7 3-1.7 0.7-0.4-4.7-2.7z"/>
							<path id="&lt;Path&gt;" class="s16" d="m2062.8 448.3l-2.9 1.6 4.6 2.7 2.9-1.7 0.8-0.4-4.6-2.7z"/>
							<path id="&lt;Path&gt;" class="s16" d="m2057.2 445l-2.9 1.7 4.6 2.7 2.9-1.7 0.7-0.5-4.5-2.6z"/>
							<path id="&lt;Path&gt;" class="s16" d="m2051.6 441.8l-2.9 1.7 4.6 2.6 2.9-1.6 0.8-0.5-4.6-2.6z"/>
							<path id="&lt;Path&gt;" class="s16" d="m2046 438.5l-3 1.7 4.7 2.7 2.9-1.7 0.8-0.4-4.7-2.7z"/>
							<path id="&lt;Path&gt;" class="s16" d="m2040.3 435.3l-2.9 1.7 4.6 2.6 2.9-1.7 0.8-0.4-4.6-2.7z"/>
							<path id="&lt;Path&gt;" class="s16" d="m2034.8 432.1l-2.9 1.7 4.5 2.6 2.9-1.7 0.8-0.5-4.5-2.5z"/>
							<path id="&lt;Path&gt;" class="s16" d="m2029.2 428.9l-2.9 1.7 4.6 2.6 2.9-1.7 0.8-0.4-4.6-2.7z"/>
							<path id="&lt;Path&gt;" class="s16" d="m2014.3 423.6l11 6.4 2.9-1.7 0.8-0.5-11-6.3z"/>
							<path id="&lt;Path&gt;" class="s16" d="m2070.1 458.9l-2.5 1.4 4.1 2.4 3.7-2.1-4.2-2.4-0.4 0.2z"/>
							<path id="&lt;Path&gt;" class="s16" d="m2064.3 455.5l-2.5 1.5 4.8 2.7 2.5-1.4 0.7-0.5 0.4-0.2-4.7-2.7-0.4 0.2z"/>
							<path id="&lt;Path&gt;" class="s16" d="m2058.7 452.3l-2.5 1.4 4.6 2.7 2.5-1.5 0.8-0.4 0.4-0.2-4.6-2.7-0.4 0.3z"/>
							<path id="&lt;Path&gt;" class="s16" d="m2053.1 449.1l-2.5 1.4 4.6 2.7 2.5-1.5 0.7-0.4 0.4-0.3-4.5-2.6-0.4 0.2z"/>
							<path id="&lt;Path&gt;" class="s16" d="m2047.5 445.8l-2.5 1.5 4.6 2.6 2.5-1.4 0.8-0.5 0.4-0.2-4.6-2.6-0.4 0.2z"/>
							<path id="&lt;Path&gt;" class="s16" d="m2041.9 442.5l-2.6 1.5 4.7 2.7 2.5-1.5 0.8-0.4 0.4-0.2-4.7-2.7-0.4 0.2z"/>
							<path id="&lt;Path&gt;" class="s16" d="m2036.2 439.3l-2.5 1.5 4.6 2.6 2.5-1.4 0.8-0.5 0.4-0.2-4.6-2.7-0.4 0.3z"/>
							<path id="&lt;Path&gt;" class="s16" d="m2030.8 436.1l-2.6 1.5 4.5 2.6 2.5-1.5 0.8-0.4 0.4-0.3-4.5-2.5-0.4 0.2z"/>
							<path id="&lt;Path&gt;" class="s16" d="m2025.1 432.9l-2.5 1.4 4.6 2.7 2.5-1.5 0.8-0.4 0.4-0.2-4.6-2.7-0.4 0.2z"/>
							<path id="&lt;Path&gt;" class="s16" d="m2009.3 426.6l12.3 7.2 2.5-1.5 0.8-0.4 0.4-0.3-12.4-7.1z"/>
							<path id="&lt;Path&gt;" class="s16" d="m2063 460.2l-3 1.8 6.5 3.8 3.7-2.1-6.6-3.8-0.2 0.1z"/>
							<path id="&lt;Path&gt;" class="s16" d="m2057.3 456.9l-3.1 1.8 4.7 2.7 3.1-1.8 0.4-0.2 0.2-0.1-4.7-2.8-0.2 0.2z"/>
							<path id="&lt;Path&gt;" class="s16" d="m2051.6 453.7l-3 1.7 4.6 2.7 3-1.8 0.4-0.2 0.3-0.1-4.6-2.7-0.3 0.1z"/>
							<path id="&lt;Path&gt;" class="s16" d="m2046.1 450.4l-3.1 1.8 4.6 2.6 3-1.7 0.4-0.3 0.3-0.1-4.6-2.6-0.2 0.1-0.4 0.2z"/>
							<path id="&lt;Path&gt;" class="s16" d="m2040.5 447.2l-3.1 1.8 4.6 2.6 3-1.7 0.4-0.3 0.3-0.1-4.6-2.7-0.2 0.2z"/>
							<path id="&lt;Path&gt;" class="s16" d="m2034.8 443.9l-3.1 1.8 4.7 2.7 3-1.8 0.4-0.2 0.3-0.2-4.7-2.6-0.2 0.1z"/>
							<path id="&lt;Path&gt;" class="s16" d="m2029.2 440.7l-3.1 1.7 4.6 2.7 3.1-1.8 0.4-0.2 0.2-0.1-4.6-2.7-0.2 0.1z"/>
							<path id="&lt;Path&gt;" class="s16" d="m2023.7 437.5l-3.1 1.8 4.5 2.5 3-1.7 0.4-0.2 0.3-0.2-4.5-2.6-0.2 0.2z"/>
							<path id="&lt;Path&gt;" class="s16" d="m2018.1 434.3l-3.1 1.7 4.6 2.7 3.1-1.8 0.4-0.2 0.2-0.2-4.6-2.6-0.2 0.1z"/>
							<path id="&lt;Path&gt;" class="s16" d="m2004.1 429.7l9.9 5.7 3-1.7 0.4-0.3 0.3-0.1-10-5.8z"/>
						</g>
						<path id="&lt;Path&gt;" class="s17" d="m2046.8 385.4c0 0-2.6 6.2-1.6 8.9 0.9 2.7 1.5 7.5 1.3 11-0.1 2.8-2.8 9-2.8 9 0 0-2.2 1.7-3.5 0.5-1.4-1.3-0.9-3.3-0.2-4.3 0.8-1 1.2-2.4 0.9-4.5-0.3-2.1-0.8-2.5-0.8-2.5 0 0-1.2 1.4-2.3 5.1-1.5 5.5-1.8 8.9-1.9 12.9-0.1 3.3-3.2 3.3-4.1 2.3-0.6-0.7-1.4-2.9-0.5-5.6 0.9-2.8 1.3-7.6 1.2-8.9-0.1-1.2 0.3-3.5-0.3-2.8-0.7 0.7-1.8 4.8-1.7 6 0.1 1.1-1.7 8-2.9 8.4-1.5 0.5-3.9-2-3.2-5.3 0.7-3.2 2.9-9.1 2.9-9.1 0 0-0.2-1.6-1.7-0.1-1.4 1.6-2.2 5.7-3 6.5-1.6 1.8-4 0.3-3.5-3.1 0.6-3.4 3.6-6.8 4-7.7 0.3-1-2.1 0.9-2.3 1.3-0.1 0.4-2.4 2.6-3 2.8-2.7 0.8-2.9-0.9-1.1-3.7 1.8-2.7 4-4.3 6.3-7.2 2.3-2.9 10.4-13.9 10.9-15.4 0 0 7.3-0.6 12.9 5.5z"/>
						<path id="&lt;Path&gt;" class="s18" d="m1950 373.2l1.4-1q0.1-0.1 0.1-0.1c0.6-0.4 1.3-0.4 1.9 0l75.9 45c1.3 0.8 2.4 1.8 3.2 3.1l35.5 58.4-1.6 1.1-4.6-3.9 1.1-0.2-77.9-44.6-34-56.5q-0.3-0.5-0.3-1z"/>
						<path id="&lt;Path&gt;" class="s19" d="m2066.4 479.7l-35.5-58.3c-0.8-1.3-1.8-2.4-3.1-3.1l-76-45.1c-1.6-1-3.4 0.8-2.4 2.4l34.1 56.5z"/>
						<path id="&lt;Path&gt;" class="s16" d="m2089.9 430.2l-15 8.7-23.7-14 14.8-8.5z"/>
					</g>
					<g id="&lt;Group&gt;">
						<path id="&lt;Path&gt;" class="s6" d="m2032.7 375.6l-4.4 7.7c0 0 11.8 0.5 18.1 8.6l4.8-6.9c0 0-6.5-6.7-18.5-9.4z"/>
						<path id="&lt;Path&gt;" class="s20" d="m2091.5 258.2c-4.2 4.6-21.8 28.3-20.2 92-7.8 17.1-20.1 37.1-20.1 37.1-3.8-9.3-20.7-10.9-20.7-10.9 0 0 28.7-54.1 31.6-60.8 2.9-6.7 2.5-18 5-26.8 6.7-25.6 24.4-30.6 24.4-30.6z"/>
					</g>
					<g id="&lt;Group&gt;">
						<path id="&lt;Path&gt;" class="s21" d="m2128.7 250.3c0 0 1.6 9.6 3 12.8 1.4 3.2-5 18.6-18.4 20.6-4 0-9.6 1-10.4-8.1z"/>
						<path id="&lt;Path&gt;" class="s22" d="m2078.5 233.5c0 0 1.3 17.4 2.7 23.9 1.4 6.5 7.6 20.5 17.1 22.4 8.4 1.6 13.3-2.7 17.8-7.8 4.4-5.1 9.6-15.5 9.8-18.5 0 0 3.7 0.9 7.4-3.2 3.7-4.2 5.5-9.5 1.9-12-3.7-2.5-29.3-31.6-56.7-4.8z"/>
						<path id="&lt;Path&gt;" class="s23" d="m2078.5 215.4c0 0 23.6-37.4 51.8-16.7 0 0 12.7 4.8 12.6 16.7-0.1 11.3-1.5 14.9-13.7 27.9l-3.1 6.3h-3.6l1.2-7.9c0 0 2.1-7.8-11.1-6.4-13.2 1.4-34.7-0.5-34.7-0.5l-2.8-7.6c0 0 0-6.9 3.4-11.8z"/>
						<path id="&lt;Path&gt;" class="s24" d="m2124.4 228.4c0 0-2.8 7.4-4.6 8.2q0 0 0 0-0.5 0.2-1.1 0.4c-4.7 2.2-35.5 18.1-43.1-5.5-0.6-2.3-0.7-5-0.1-7.8 0.3 0.3 7.1 8 18.9 1.2 0 0-0.6 4.9-3 6.3 0 0 10.9 1.8 16.4-5.6 0 0 0 3-2.2 7.2 0 0 13.8 0.1 18.8-4.4z"/>
					</g>
					<g id="&lt;Group&gt;">
						<path id="&lt;Path&gt;" class="s25" d="m2116.5 438c0 0-6.8 6.5-13.7 9-6.8 2.6-7.1 5.1-9.9 5.9-2.8 0.8-6.7-0.8-3.6-3.8 3-2.9 3.5-3.5 3.5-3.5 0 0 1.1-4.3-2.2-1.4-3.2 2.8-6.2 5-8.2 3.6-2.1-1.4 1-4.8 2.4-6.1 1.3-1.3 4.7-3.4 4.7-3.4 0 0 0-0.9-2.6-1.1-1.8-0.2-4.9 2.4-6 4-1.2 1.7-2.9 3.7-4.2 2.8-1.3-0.9-1.5-1.8-1.1-4.2 0.4-2.4 2.9-4.1 3.8-5 0.9-0.9 0.4-1.8-2.3-0.6-2.7 1.2-7.3 2.6-7.3 2.6 0 0-6.2 2.8-3.7-1.5 1.7-3.1 8.2-5.9 10.5-6.3 2.3-0.4 9.1-3.1 17-2.9 7.9 0.2 17.2 0 17.2 0z"/>
						<path id="&lt;Path&gt;" class="s6" d="m2113.8 422l-6 3.5c0 0 1.1 14.5 9 18.2l6.8-3.6z"/>
						<path id="&lt;Path&gt;" class="s26" d="m2178.7 317.1c0 0-6.9-27.2-25.6-20.9-18.6 6.2-19.3 34.8-10.8 40.3 8.5 5.5 17.1 39.2 16.8 49.3-0.2 10.2-6 12.2-10.6 14.3-4.6 2.1-35.9 21.9-35.9 21.9 0 0 1.6 14.8 9.4 20.1l53.5-25.2c0 0 15-4.4 12.4-29.9-2.5-25.6-9.2-69.9-9.2-69.9z"/>
					</g>
				</g>
			</g>
		</g>
	</g>
</svg>