<?xml version="1.0" encoding="utf-8"?>
<svg viewBox="-2849.0923 97.3448 3295.2044 1777.0955" xmlns="http://www.w3.org/2000/svg" xmlns:xlink="http://www.w3.org/1999/xlink">
  <defs>
    <radialGradient id="f" cx="23.312" cy="40.938" r="17.188" gradientTransform="matrix(1 0 0 .31636 0 27.986)" gradientUnits="userSpaceOnUse">
      <stop offset="0"/>
      <stop stop-opacity="0" offset="1"/>
    </radialGradient>
    <radialGradient id="e" cx="22.75" cy="10.25" r="19.875" gradientTransform="matrix(1.6166 -3.8458e-26 -2.9391e-25 1.708 -14.026 -8.0075)" gradientUnits="userSpaceOnUse">
      <stop stop-color="#f0f1ee" offset="0"/>
      <stop stop-color="#d5d9d1" offset="1"/>
    </radialGradient>
    <radialGradient id="d" cx="17.62" cy="21.61" r="8" gradientTransform="matrix(4.073 8.8818e-16 -6.2683e-16 2.8745 -48.885 -43.215)" gradientUnits="userSpaceOnUse">
      <stop stop-color="#edeeec" offset="0"/>
      <stop stop-color="#babdb6" offset="1"/>
    </radialGradient>
    <radialGradient id="c" cx="27.577" cy="15.259" r="3.8335" gradientTransform="matrix(1.4785 -5.0082e-16 5.0082e-16 1.4785 -13.195 -7.3291)" gradientUnits="userSpaceOnUse" xlink:href="#a"/>
    <linearGradient id="a">
      <stop offset="0" style="stop-color: rgb(179, 47, 162);"/>
      <stop stop-opacity="0" offset="1" style="stop-color: rgba(255, 255, 255, 0);"/>
    </linearGradient>
    <radialGradient id="b" cx="27.577" cy="15.048" r="3.8335" gradientTransform="matrix(1.3418 -1.3098e-15 1.3098e-15 1.3418 -9.426 -5.2228)" gradientUnits="userSpaceOnUse" xlink:href="#a"/>
  </defs>
  <g id="folder" transform="matrix(1, 0, 0, 1, -3044.141845703125, -413.8301696777344)">
    <g>
      <polygon style="fill:#1480CC;" points="1203.8599853515625 2159.2548828125 1203.8599853515625 1025.9730224609375"/>
      <path style="fill:#FFFFFF;" d="M1144.214,982.777H2605.93c30.004,0,52.096,20.303,56.409,48.376v1128.102H1067.017l0.003-1099.48&#10;&#9;&#9;&#9;C1066.657,1019.256,1103.224,982.777,1144.214,982.777z"/>
      <g transform="matrix(1, 0, 0, 1, 22, 0)">
        <g>
          <rect x="1703.599" y="774.679" transform="matrix(-0.999996, -0.0028, 0.0028, -0.999996, 4222.793457, 2124.130371)" style="fill: rgb(98, 147, 198);" width="810.627" height="596.878" rx="83.417" ry="83.417"/>
          <polygon style="fill:#E3EEFF;" points="2445.051,1324.585 1924.118,1323.126 2208.946,1049.875 &#9;&#9;&#9;&#9;"/>
          <polygon style="fill:#E3EEFF;" points="2208.179,1323.921 1770.48,1322.696 2007.987,1096.861 &#9;&#9;&#9;&#9;"/>
          <ellipse transform="matrix(0.7071 -0.7071 0.7071 0.7071 -100.0606 1736.6146)" style="fill:#E3EEFF;" cx="2046.249" cy="989.091" rx="60.328" ry="60.328"/>
        </g>
      </g>
      <g>
        <g>
          <rect x="1567.691" y="636.272" transform="matrix(-1 -0.0032 0.0032 -1 3924.2549 1967.611)" style="fill:#EBF3FF;" width="792.026" height="688.78"/>
          <rect x="1590.642" y="658.751" transform="matrix(-1 -0.0032 0.0032 -1 3925.1799 1957.031)" style="fill: rgb(74, 108, 144);" width="747.05" height="633.202"/>
        </g>
        <g>
          <rect x="1967.81" y="747.369" style="fill:#CCE5FF;" width="297.525" height="26.139"/>
          <rect x="1660.017" y="817.956" transform="matrix(-1 -1.224647e-16 1.224647e-16 -1 3925.3518 1662.05)" style="fill:#CCE5FF;" width="605.318" height="26.139"/>
          <rect x="1660.017" y="889.824" transform="matrix(-1 -1.224647e-16 1.224647e-16 -1 3925.3518 1805.7871)" style="fill:#CCE5FF;" width="605.318" height="26.139"/>
        </g>
      </g>
      <rect x="2662.339" y="2152.765" transform="matrix(-1 -1.224647e-16 1.224647e-16 -1 5485.645 4312.0176)" style="fill:#FFFFFF;" width="160.967" height="6.487"/>
      <g/>
    </g>
  </g>
  <g transform="matrix(1.714695930480957, 0, 0, 1.714695930480957, -4844.77685546875, -804.8051147460938)">
    <defs/>
    <g id="g-1">
      <g style="fill: rgb(0, 0, 0); fill-opacity: 0.254902; stroke-linejoin: miter;" transform="matrix(1.923143, 0, 0, 2.103388, 1159.834229, -1560.573486)">
        <path d="M827.76526,1451.1403L825.0137,1451.767Q816.3196,1452.6083,792.7416,1453.3002Q780.9522,1453.6458,765.4419,1453.9546Q760.0124,1454.132,710.53864,1454.7949Q668.063,1455.2996,618.8833,1455.5367Q594.29333,1455.6561,568.0273,1455.7081Q555.94196,1455.776,485.45825,1455.7148Q418.92984,1455.4979,408.55722,1455.3864Q384.75674,1455.2344,363.40048,1455.0255Q320.68777,1454.6072,287.7521,1453.961Q214.21815,1452.3973,226.67856,1450.7118Q232.15527,1449.8726,253.79318,1449.1633Q264.61218,1448.8087,279.4715,1448.487Q284.61523,1448.3019,332.66107,1447.6013Q412.5091,1446.5668,526.35724,1446.5231Q583.2816,1446.5449,631.70557,1446.8147Q655.9177,1446.9497,678.0048,1447.1465Q731.3633,1447.692,739.485,1447.8759Q777.2841,1448.4548,798.92224,1449.1641Q809.74133,1449.5184,816.51984,1449.9056Q829.9314,1450.9023,827.76526,1451.1403"/>
      </g>
      <g style="fill: rgb(79, 121, 142); fill-opacity: 1; stroke-linejoin: miter;" transform="matrix(1.923143, 0, 0, 2.103388, 1159.834229, -1560.573486)">
        <path d="M311.66806,1132.9156C311.657,1132.9156,311.64597,1132.9161,311.63498,1132.9174L311.6343,1132.9174C304.76727,1132.934,299.5115,1138.2347,299.5115,1145.1058L299.5117,1390.74C299.5117,1397.6221,304.7862,1402.8954,311.66705,1402.911L311.66824,1402.9117L731.2657,1402.8961L731.26544,1402.8964C738.14716,1402.8961,743.4223,1397.6226,743.4223,1390.7402L743.4223,1145.1047C743.4223,1138.2334,738.16534,1132.9315,731.29565,1132.931L731.2765,1132.9315C731.27374,1132.931,731.2697,1132.931,731.2637,1132.931L311.66806,1132.9156 Z" style="fill: rgb(142, 79, 125);"/>
      </g>
      <g style="fill: rgb(34, 43, 50); fill-opacity: 1; stroke-linejoin: miter;" transform="matrix(1.923143, 0, 0, 2.103388, 1159.834229, -1560.573486)">
        <path d="M311.66806,1117.7843C296.67245,1117.7843,284.379,1130.109,284.3791,1145.1047L284.3791,1390.74C284.3791,1405.7354,296.67273,1418.0289,311.66833,1418.0289L731.26556,1418.0447C746.2612,1418.0292,758.55475,1405.7356,758.55475,1390.7402L758.5546,1145.1058C758.55475,1130.1102,746.2615,1117.7855,731.26556,1117.7855L311.66806,1117.8004 Z M311.66806,1133.4122L731.26556,1133.4276C737.8736,1133.4122,742.9259,1138.495,742.9259,1145.1047L742.9259,1390.7402C742.9259,1397.3478,737.87335,1402.4,731.26544,1402.4L311.66824,1402.4149C305.06042,1402.3995,300.00797,1397.3473,300.00797,1390.74L300.00787,1145.1058C300.00778,1138.4958,305.0602,1133.4135,311.66806,1133.4135 Z"/>
      </g>
      <g style="fill: rgb(0, 0, 0); fill-opacity: 1; stroke-linejoin: miter;" transform="matrix(1.923143, 0, 0, 2.103388, 1159.834229, -1560.573486)">
        <path d="M482.43524,1428.7925L560.4986,1428.8079C561.7028,1428.7925,562.6727,1429.7616,562.6727,1430.9677C562.6727,1432.1718,561.7028,1433.1418,560.4986,1433.1418L482.43524,1433.1571C481.2307,1433.1418,480.26114,1432.1727,480.26114,1430.9674C480.26114,1429.7635,481.2307,1428.7925,482.43524,1428.7925 Z"/>
      </g>
      <g style="fill: rgb(215, 237, 249); fill-opacity: 1; stroke-linejoin: miter;" transform="matrix(1.923143, 0, 0, 2.103388, 1159.834229, -1560.573486)">
        <path d="M575.0961,1484.7908L575.0961,1484.7908L575.0961,1484.7915L575.0961,1484.7908"/>
      </g>
      <g style="fill: rgb(255, 183, 159); fill-opacity: 1; stroke-linejoin: miter;" transform="matrix(1.923143, 0, 0, 2.103388, 1159.834229, -1560.573486)">
        <path d="M757.51434,1366.3107L757.51434,1366.3116L757.51434,1366.3121L757.51434,1366.3107"/>
      </g>
      <g style="fill: rgb(34, 43, 50); fill-opacity: 1; stroke-linejoin: miter;" transform="matrix(1.923143, 0, 0, 2.103388, 1159.834229, -1560.573486)">
        <path d="M259.38303,1422.5405C259.38303,1439.0369,270.77463,1452.323,284.9201,1452.323L758.01434,1452.3392C772.15924,1452.3232,783.5511,1439.039,783.5512,1422.5405L259.38284,1422.5555 Z"/>
      </g>
      <g style="fill: rgb(113, 207, 235); fill-opacity: 1; stroke-linejoin: miter;" transform="matrix(1.923143, 0, 0, 2.103388, 1159.834229, -1560.573486)">
        <path d="M689.0803,1233.5366C694.00055,1232.8092,697.4107,1228.214,696.6829,1223.2936C695.95544,1218.3737,691.3611,1214.963,686.4411,1215.6903C681.5211,1216.418,678.11053,1221.013,678.83826,1225.9329C679.5663,1230.8533,684.1608,1234.2644,689.0803,1233.5366 Z"/>
      </g>
      <g style="fill: rgb(113, 207, 235); fill-opacity: 1; stroke-linejoin: miter;" transform="matrix(1.923143, 0, 0, 2.103388, 1159.834229, -1560.573486)">
        <path d="M694.8485,1231.8423C693.2993,1233.4813,691.21375,1234.6335,688.81506,1234.9882C686.476,1235.3344,684.2008,1234.869,682.2746,1233.8062C676.7592,1235.5552,673.1679,1241.0923,674.0416,1247.0005C675.0118,1253.5597,679.6979,1248.5095,686.25604,1247.5392L695.83606,1246.1227C702.39484,1245.1526,708.3425,1248.6306,707.37225,1242.071C706.4573,1235.8842,700.973,1231.504,694.8485,1231.8423 Z"/>
      </g>
      <g style="fill: rgb(255, 255, 255); fill-opacity: 1; stroke-linejoin: miter;" transform="matrix(1.923143, 0, 0, 2.103388, 1159.834229, -1560.573486)">
        <path d="M590.43646,1224.1135L668.1826,1212.6151L745.92957,1201.1173Q756.0097,1269.2767,766.0899,1337.4359L610.59705,1360.4316Q600.51685,1292.2727,590.43646,1224.1135"/>
      </g>
      <g style="fill: rgb(201, 214, 222); fill-opacity: 1; stroke-linejoin: miter;" transform="matrix(1.923143, 0, 0, 2.103388, 1159.834229, -1560.573486)">
        <path d="M625.14166,1277.1956L676.60785,1269.5841L728.07465,1261.9731Q729.5565,1271.9926,731.0383,1282.0128Q679.5718,1289.6239,628.10547,1297.2354Q626.62354,1287.2155,625.14166,1277.1956"/>
      </g>
      <g style="fill: rgb(34, 43, 50); fill-opacity: 1; stroke-linejoin: miter;" transform="matrix(1.923143, 0, 0, 2.103388, 1159.834229, -1560.573486)">
        <path d="M638.0557,1279.7858L638.7062,1284.184L634.50494,1283.4835L633.9843,1286.6666L638.1856,1287.3672L636.1246,1291.307L638.9245,1292.8098L641.0405,1288.7953L644.1537,1291.9702L646.473,1289.7766L643.5179,1286.7767L647.3917,1284.8162L645.9815,1281.9844L641.9137,1283.9739L641.225,1279.3173 Z"/>
      </g>
      <g style="fill: rgb(34, 43, 50); fill-opacity: 1; stroke-linejoin: miter;" transform="matrix(1.923143, 0, 0, 2.103388, 1159.834229, -1560.573486)">
        <path d="M654.3477,1277.3763L654.9983,1281.7748L650.7968,1281.0742L650.2763,1284.2573L654.47766,1284.9576L652.4166,1288.8978L655.2165,1290.4004L657.3326,1286.3861L660.44586,1289.5608L662.7651,1287.3672L659.8099,1284.3676L663.6838,1282.407L662.2736,1279.5747L658.2057,1281.5643L657.517,1276.9078 Z"/>
      </g>
      <g style="fill: rgb(34, 43, 50); fill-opacity: 1; stroke-linejoin: miter;" transform="matrix(1.923143, 0, 0, 2.103388, 1159.834229, -1560.573486)">
        <path d="M670.6397,1274.9668L671.2903,1279.365L667.0889,1278.6646L666.56836,1281.8479L670.7696,1282.5485L668.7086,1286.4885L671.50836,1287.9911L673.6246,1283.977L676.7378,1287.1512L679.0572,1284.9576L676.102,1281.9583L679.9758,1279.9974L678.5657,1277.1654L674.49774,1279.1552L673.8089,1274.498 Z"/>
      </g>
      <g style="fill: rgb(34, 43, 50); fill-opacity: 1; stroke-linejoin: miter;" transform="matrix(1.923143, 0, 0, 2.103388, 1159.834229, -1560.573486)">
        <path d="M686.93176,1272.5574L687.5824,1276.9556L683.381,1276.2555L682.8604,1279.4384L687.06177,1280.1389L685.00073,1284.0789L687.8005,1285.5817L689.9167,1281.5674L693.02997,1284.7421L695.3492,1282.5485L692.3941,1279.5491L696.268,1277.588L694.85754,1274.756L690.7898,1276.7456L690.1009,1272.0886 Z"/>
      </g>
      <g style="fill: rgb(201, 214, 222); fill-opacity: 1; stroke-linejoin: miter;" transform="matrix(1.923143, 0, 0, 2.103388, 1159.834229, -1560.573486)">
        <path d="M629.0414,1303.5634L731.9743,1288.3412L734.93787,1308.3806L632.00507,1323.6031L629.0414,1303.5634"/>
      </g>
      <g style="fill: rgb(34, 43, 50); fill-opacity: 1; stroke-linejoin: miter;" transform="matrix(1.923143, 0, 0, 2.103388, 1159.834229, -1560.573486)">
        <path d="M641.91205,1304.2211L642.56244,1308.619L638.36115,1307.9186L637.8405,1311.1019L642.0419,1311.8025L639.98083,1315.7421L642.78064,1317.2449L644.8968,1313.2306L648.00995,1316.4055L650.32916,1314.2119L647.3741,1311.212L651.2479,1309.2512L649.8377,1306.4194L645.76996,1308.4094L645.0812,1303.7521 Z"/>
      </g>
      <g style="fill: rgb(34, 43, 50); fill-opacity: 1; stroke-linejoin: miter;" transform="matrix(1.923143, 0, 0, 2.103388, 1159.834229, -1560.573486)">
        <path d="M658.20404,1301.8116L658.8544,1306.2098L654.6531,1305.5093L654.1325,1308.6926L658.33386,1309.3932L656.27277,1313.3326L659.07263,1314.8351L661.1888,1310.8214L664.30206,1313.9961L666.62134,1311.8027L663.66614,1308.8024L667.5399,1306.8417L666.1299,1304.0103L662.06195,1305.9996L661.37317,1301.3429 Z"/>
      </g>
      <g style="fill: rgb(34, 43, 50); fill-opacity: 1; stroke-linejoin: miter;" transform="matrix(1.923143, 0, 0, 2.103388, 1159.834229, -1560.573486)">
        <path d="M674.49603,1299.4021L675.1465,1303.8005L670.9451,1303.0999L670.42456,1306.283L674.6259,1306.9835L672.5648,1310.9236L675.3646,1312.4261L677.48083,1308.4121L680.59406,1311.5865L682.9133,1309.3932L679.9582,1306.3933L683.832,1304.4327L682.4219,1301.601L678.35406,1303.5905L677.66534,1298.9338 Z"/>
      </g>
      <g style="fill: rgb(0, 188, 233); fill-opacity: 1; stroke-linejoin: miter;" transform="matrix(1.923143, 0, 0, 2.103388, 1159.834229, -1560.573486)">
        <path d="M653.7787,1328.8304L684.6939,1324.2587L715.6092,1319.6871Q716.8735,1328.2339,718.1376,1336.7814Q687.22217,1341.3536,656.307,1345.9257Q655.0429,1337.3782,653.7787,1328.8304" style="fill: rgb(45, 113, 129);"/>
      </g>
      <g style="fill: rgb(255, 255, 255); fill-opacity: 1; stroke-linejoin: miter;" transform="matrix(1.923143, 0, 0, 2.103388, 1159.834229, -1560.573486)">
        <path d="M690.2716,1326.0055Q690.13477,1326.0259,689.9501,1326.0657Q689.76526,1326.1057,689.60736,1326.1544Q689.60266,1326.2949,689.616,1326.471Q689.6418,1326.645,689.6619,1326.7821Q689.6823,1326.9188,689.7204,1327.091Q689.7463,1327.2655,689.7932,1327.411Q689.9586,1327.412,690.1471,1327.3969Q690.3354,1327.3817,690.48474,1327.36Q690.6215,1327.3396,690.8062,1327.2996Q690.9785,1327.2614,691.1242,1327.2144Q691.1271,1327.0612,691.1137,1326.8853Q691.0879,1326.7112,691.06757,1326.5745Q691.0473,1326.4374,691.0092,1326.2651Q690.98334,1326.0908,690.93823,1325.9578Q690.7853,1325.9547,690.5969,1325.9698Q690.40845,1325.9851,690.2716,1326.0055 Z M685.44696,1330.2527Q686.1187,1330.1532,686.4991,1330.4915Q686.8777,1330.8168,686.96594,1331.4138Q687.05255,1331.9984,686.7842,1332.4194Q686.51605,1332.8405,685.8443,1332.9392Q685.1726,1333.0387,684.79407,1332.7134Q684.4278,1332.3864,684.34143,1331.8015Q684.2532,1331.2047,684.5195,1330.7715Q684.77527,1330.3522,685.44696,1330.2527 Z M678.5601,1331.3855Q679.4183,1331.2589,679.9207,1331.82Q680.4214,1332.3685,680.5851,1333.4756Q680.7489,1334.583,680.4304,1335.2654Q680.11194,1335.9482,679.25366,1336.0751Q678.3954,1336.2019,677.89294,1335.6409Q677.4029,1335.0779,677.2391,1333.9702Q677.0754,1332.8636,677.3938,1332.1808Q677.70184,1331.5128,678.5601,1331.3855 Z M689.46625,1328.8956Q689.45605,1328.9991,689.46387,1329.1376Q689.4698,1329.2637,689.4883,1329.3883Q689.5066,1329.5123,689.5393,1329.648Q689.57007,1329.7703,689.6098,1329.866L690.4182,1329.7466L691.2186,1335.1575Q691.3591,1335.1622,691.53516,1335.1488Q691.69867,1335.1373,691.823,1335.1189Q691.9598,1335.0985,692.13214,1335.0603Q692.2921,1335.0239,692.42505,1334.9791L691.4813,1328.5978 Z M696.6586,1327.6796Q696.2731,1327.7368,695.96625,1327.8965Q695.6576,1328.0437,695.4345,1328.2545Q695.20966,1328.453,695.0418,1328.6942Q694.8866,1328.933,694.7934,1329.163Q694.7622,1328.951,694.67694,1328.6338Q694.59375,1328.3281,694.52893,1328.1471Q694.38837,1328.1423,694.2621,1328.1483Q694.14825,1328.1526,694.0114,1328.1727Q693.87463,1328.1931,693.73975,1328.2257Q693.6172,1328.2566,693.484,1328.3015L694.4278,1334.6827Q694.5682,1334.6873,694.7442,1334.6741Q694.92017,1334.6609,695.05707,1334.6405Q695.1938,1334.6204,695.36615,1334.582Q695.52606,1334.5458,695.65924,1334.5007L695.1807,1331.2666Q695.0943,1330.6816,695.1811,1330.2368Q695.25726,1329.8058,695.45483,1329.5096Q695.65265,1329.214,695.94525,1329.0433Q696.23785,1328.8733,696.586,1328.8218Q697.1831,1328.7335,697.5193,1329.1157Q697.85364,1329.4855,697.9842,1330.3687L698.5325,1334.0754Q698.673,1334.0802,698.84894,1334.0668Q699.01245,1334.0553,699.1493,1334.0352Q699.286,1334.0148,699.4584,1333.9764Q699.63074,1333.9385,699.7638,1333.8932L699.1661,1329.8506Q698.98395,1328.6194,698.3677,1328.0626Q697.75323,1327.5177,696.6586,1327.6796 Z M672.31165,1328.5853Q672.17487,1328.6057,672.00256,1328.6437Q671.8426,1328.6803,671.70953,1328.7253L672.81335,1336.1885Q672.8871,1336.6862,673.0734,1337.002Q673.2599,1337.3175,673.5257,1337.4817Q673.79156,1337.6455,674.11536,1337.6869Q674.4392,1337.7279,674.7999,1337.6744Q675.0114,1337.6431,675.2565,1337.5814Q675.5035,1337.5321,675.66833,1337.4441Q675.5929,1336.9343,675.4166,1336.5155Q675.32074,1336.555,675.1734,1336.5896Q675.0384,1336.6222,674.92645,1336.6389Q674.7647,1336.6627,674.6099,1336.6476Q674.4695,1336.6428,674.34094,1336.5476Q674.22675,1336.4625,674.135,1336.2731Q674.0435,1336.0831,673.99194,1335.7349L672.9285,1328.5453Q672.78796,1328.54,672.61194,1328.5537Q672.4484,1328.5652,672.31165,1328.5853 Z M678.4111,1330.378Q677.66473,1330.4884,677.1436,1330.8324Q676.6225,1331.1765,676.31555,1331.6797Q676.0087,1332.1825,675.9122,1332.8193Q675.82825,1333.4547,675.93317,1334.164Q676.03796,1334.8729,676.31464,1335.455Q676.579,1336.0383,677.01825,1336.431Q677.45776,1336.8236,678.0563,1337.0022Q678.6527,1337.1683,679.399,1337.0579Q680.14526,1336.9475,680.6664,1336.6035Q681.1894,1336.2719,681.49634,1335.7688Q681.8032,1335.2656,681.89966,1334.6285Q681.9836,1333.9934,681.87866,1333.2842Q681.7739,1332.5754,681.49713,1331.9935Q681.2329,1331.4098,680.7935,1331.0172Q680.3541,1330.6245,679.7558,1330.4462Q679.1573,1330.2676,678.4111,1330.378 Z M685.68945,1336.1398Q685.7105,1336.1366,685.732,1336.1338L687.15375,1335.9493Q687.7899,1335.8677,688.0558,1336.0321Q688.32153,1336.1957,688.3767,1336.5692Q688.4503,1337.0667,687.9401,1337.4849Q687.42834,1337.8912,686.43317,1338.0385Q686.0974,1338.088,685.8039,1338.0807Q685.5247,1338.0837,685.29675,1338.0029Q685.083,1337.933,684.9454,1337.7754Q684.80756,1337.6179,684.76715,1337.3441Q684.70264,1336.9089,684.9428,1336.5555Q685.16174,1336.2179,685.68945,1336.1398 Z M685.3145,1329.3569Q684.69257,1329.4492,684.2332,1329.695Q683.7738,1329.9407,683.4841,1330.3015Q683.20483,1330.6481,683.0914,1331.0841Q682.9779,1331.5205,683.04785,1331.993Q683.13245,1332.5652,683.4493,1332.9888Q683.76434,1333.3998,684.21704,1333.6251Q683.90735,1333.9377,683.7456,1334.305Q683.5963,1334.6703,683.6644,1335.1306Q683.7179,1335.4912,683.92865,1335.7142Q684.12537,1335.9264,684.3981,1336.0515Q683.99756,1336.3524,683.7847,1336.8032Q683.5699,1337.2417,683.6453,1337.7517Q683.7722,1338.61,684.50287,1338.9086Q685.23334,1339.2073,686.51465,1339.0181Q687.24835,1338.9095,687.85895,1338.6539Q688.4587,1338.4127,688.87476,1338.0461Q689.2927,1337.6918,689.49316,1337.2427Q689.6956,1336.806,689.6201,1336.2961Q689.5043,1335.5126,688.9404,1335.1383Q688.3767,1334.764,687.2661,1334.9031L685.60803,1335.1224Q685.0464,1335.193,684.85895,1335.0428Q684.6733,1334.905,684.64026,1334.6813Q684.6053,1334.4447,684.74805,1334.2073Q684.8804,1333.9845,685.03973,1333.8594Q685.46674,1333.9103,685.9768,1333.835Q686.53656,1333.7527,686.9852,1333.5206Q687.43585,1333.3015,687.74,1332.9517Q688.0335,1332.616,688.15936,1332.1775Q688.2853,1331.7399,688.20984,1331.2297Q688.1621,1330.9065,688.0506,1330.6685Q687.9392,1330.4308,687.7712,1330.2395L688.89056,1330.0739Q688.8933,1329.921,688.8837,1329.7703Q688.87396,1329.619,688.8538,1329.482Q688.81146,1329.1958,688.72687,1328.967Q688.21686,1329.0424,687.8142,1329.2418Q687.4097,1329.4288,687.1903,1329.6646Q686.83014,1329.4636,686.34595,1329.3696Q685.87427,1329.2742,685.3145,1329.3569 Z"/>
      </g>
      <g style="fill: rgb(255, 134, 136); fill-opacity: 1; stroke-linejoin: miter;" transform="matrix(1.923143, 0, 0, 2.103388, 1159.834229, -1560.573486)">
        <path d="M771.47424,1126.9773C771.6436,1127.4222,771.86804,1127.8469,772.093,1128.2717C774.1908,1131.6145,778.5852,1132.6212,781.9292,1130.5236C785.27203,1128.4257,786.2785,1124.0306,784.1811,1120.6876C782.0835,1117.3441,777.68854,1116.3376,774.3452,1118.4355C771.4603,1120.2306,770.29034,1123.8601,771.47424,1126.9773 Z"/>
      </g>
      <g style="fill: rgb(249, 170, 14); fill-opacity: 1; stroke-linejoin: miter;" transform="matrix(1.923143, 0, 0, 2.103388, 1159.834229, -1560.573486)">
        <path d="M783.33014,1150.819C784.72565,1154.4928,788.87244,1156.3577,792.54626,1154.9625C796.2206,1153.5677,798.085,1149.4199,796.68945,1145.7458C795.29517,1142.0721,791.1475,1140.2075,787.4734,1141.603C783.7996,1142.9979,781.9348,1147.145,783.33014,1150.819 Z"/>
      </g>
      <g style="fill: rgb(255, 192, 68); fill-opacity: 1; stroke-linejoin: miter;" transform="matrix(1.923143, 0, 0, 2.103388, 1159.834229, -1560.573486)">
        <path d="M789.96796,1175.1772C790.02594,1175.6652,790.19507,1176.11,790.3426,1176.4998C791.5264,1179.6174,794.81,1181.5544,798.23676,1181.0176C802.12976,1180.3677,804.72766,1176.6425,804.0778,1172.7489C803.42725,1168.8557,799.75757,1166.2366,795.8088,1166.9076C791.9156,1167.5586,789.3174,1171.2836,789.96796,1175.1772 Z"/>
      </g>
      <g style="fill: rgb(125, 139, 150); fill-opacity: 0.996078; stroke-linejoin: miter;" transform="matrix(1.923143, 0, 0, 2.103388, 1159.834229, -1560.573486)">
        <path d="M777.6825,1168.7714L777.6824,1168.7719L777.68176,1168.7711L777.6825,1168.7714"/>
      </g>
      <g style="fill: rgb(60, 70, 79); fill-opacity: 0.996078; stroke-linejoin: miter;" transform="matrix(1.923143, 0, 0, 2.103388, 1159.834229, -1560.573486)">
        <path d="M764.08795,1159.9116L764.08765,1159.9126L764.0874,1159.9114L764.08765,1159.9126L764.08795,1159.9116L764.08765,1159.9126L764.0874,1159.9114Q764.08795,1159.9116,764.08795,1159.9116"/>
      </g>
      <g style="fill: rgb(60, 70, 79); fill-opacity: 0.996078; stroke-linejoin: miter;" transform="matrix(1.923143, 0, 0, 2.103388, 1159.834229, -1560.573486)">
        <path d="M769.0476,1159.9584L769.0472,1159.9586L769.0476,1159.9584L769.0474,1159.9589L769.04736,1159.9584L769.0474,1159.9589L769.0476,1159.9584Q769.0476,1159.9584,769.0476,1159.9584"/>
      </g>
      <g style="fill: rgb(251, 187, 140); fill-opacity: 1; stroke-linejoin: miter;" transform="matrix(1.923143, 0, 0, 2.103388, 1159.834229, -1560.573486)">
        <path d="M711.4437,1105.5543L711.44385,1105.5533L711.44385,1105.5526L711.4441,1105.5533L711.4441,1105.5526C713.3934,1105.9102,715.52563,1106.3481,716.1813,1106.4752C718.782,1106.978,726.3471,1108.085,728.7786,1108.354C730.2384,1108.5156,732.8536,1108.869,734.6186,1109.1414C738.544,1109.7471,756.7905,1111.5205,761.55585,1111.8289C763.4577,1111.9519,765.63513,1112.13,766.4539,1112.2043C767.2554,1112.2772,769.5604,1112.3881,771.6094,1112.4655C773.67285,1112.5433,776.472,1112.6686,777.90424,1112.7546C784.8529,1113.1704,809.78827,1108.4713,817.5746,1105.2839C826.9084,1101.4645,830.0405,1100.2474,832.68304,1099.4083C834.2711,1098.9036,837.20197,1097.834,839.2308,1097.0349C841.2093,1096.2568,845.50433,1094.9552,848.7813,1094.1597C856.75775,1092.5873,866.07947,1093.0035,866.07947,1093.0035C868.77155,1093.1234,873.1112,1093.2972,877.7997,1093.4932C884.8319,1093.7871,886.83875,1093.9147,888.4047,1094.063C889.327,1094.15,891.05475,1094.228,892.12756,1094.2479C895.9473,1094.3215,899.26556,1094.5312,900.4427,1094.7075C901.0826,1094.804,903.1597,1094.9348,905.04736,1095.0355C911.5283,1095.3824,867.3838,1093.3984,905.47723,1094.865L925.9403,1098.342C932.4905,1169.7611,924.80133,1167.806,924.80133,1167.806C924.0823,1167.6235,923.1178,1167.3124,922.6184,1167.1622C922.1451,1167.0194,921.2946,1166.8597,920.83136,1166.7698C920.34564,1166.6755,917.24475,1165.9307,913.953,1165.1392C910.6603,1164.3473,906.36676,1163.3829,904.418,1163.0273C902.469,1162.67,899.8167,1162.1699,898.5053,1161.9163C891.40985,1160.542,885.94965,1159.979,878.1383,1159.7385C875.0568,1159.6431,868.902,1161.0001,866.6517,1162.3116C863.6918,1164.0365,861.0048,1166.2246,858.89307,1168.6364C856.81085,1171.0153,855.5267,1172.3301,854.3273,1173.284C853.9401,1173.5919,852.3551,1175.089,850.8137,1176.5629C843.53955,1183.5208,836.3458,1187.5945,818.9241,1194.7505C806.31714,1199.9283,795.5797,1206.7922,788.19305,1214.3201C786.8184,1215.7212,785.1701,1217.3015,784.60834,1217.7845C783.74615,1218.5269,778.27405,1224.8755,775.3055,1228.5906C774.4701,1229.6357,768.5207,1237.844,764.7136,1243.253C761.9896,1247.1233,758.3472,1250.2244,756.52527,1250.1846C752.8266,1250.1023,748.77985,1246.199,747.7895,1241.7769C747.24603,1239.3497,747.51227,1233.3737,748.1877,1232.6829C748.4348,1232.4297,748.51624,1231.8718,748.4193,1231.4404C748.2021,1230.4708,750.6887,1224.6442,753.63806,1219.342C755.9776,1215.134,762.9334,1205.2434,766.6983,1200.7848C767.9463,1199.3066,769.1627,1197.8596,769.3784,1197.5789C770.74194,1195.8069,778.7961,1187.0309,779.06525,1186.9702C779.2275,1186.9344,780.0083,1186.1765,780.78326,1185.283C782.9343,1182.8026,789.2389,1176.7631,789.77856,1176.6427C790.1022,1176.5696,790.6302,1175.9335,791.0049,1175.2914C791.69446,1174.1094,791.3444,1174.0256,780.5348,1173.049C774.40814,1172.4957,768.7508,1171.9879,767.93286,1171.9078C759.94836,1171.1274,746.64636,1173.4548,740.1271,1176.7196C735.3927,1179.0914,728.49554,1182.9856,726.70636,1184.3134C725.8726,1184.9323,724.9337,1185.5035,724.6102,1185.5767C724.2867,1185.6488,723.64087,1186.0284,723.1669,1186.4664C722.74884,1186.8519,720.6013,1188.3684,718.4311,1189.8483C712.93713,1193.596,711.3535,1194.6622,705.8218,1198.7899C703.97815,1200.1648,702.3134,1201.3314,702.0441,1201.3918C701.7742,1201.452,700.9765,1201.9603,700.2176,1202.594C697.82764,1204.5907,695.32666,1206.2942,694.5717,1206.463C694.1404,1206.5599,693.68085,1206.9191,693.44,1207.2267C693.1945,1207.5405,691.74567,1208.5123,690.2487,1209.4138C688.7516,1210.316,686.9603,1211.4055,686.31445,1211.8241C685.6251,1212.2712,683.04816,1213.4408,680.5643,1214.472C676.519,1216.1492,675.6102,1216.3472,671.70764,1216.3986C662.1707,1216.5251,657.0192,1213.4664,658.4952,1208.4843C659.3733,1205.5195,662.0762,1203.5168,670.2411,1199.7366C680.087,1195.1777,687.38586,1190.0629,691.3462,1184.9852C694.5579,1180.8668,702.96436,1172.3239,708.37134,1167.6924C715.3188,1161.7412,715.2747,1161.0901,707.9316,1162.6934C705.1772,1163.2944,700.9439,1163.8622,698.4748,1163.9622C696.00476,1164.0624,693.22363,1164.2885,692.36084,1164.4822C689.8262,1165.0499,682.72095,1164.9584,677.3091,1164.2856C668.7391,1163.2198,661.0272,1160.6283,656.3113,1157.2654C651.6585,1153.9487,650.66235,1150.585,653.1521,1146.7031C654.7345,1144.2349,655.71515,1143.9706,658.85004,1145.0862C660.20776,1145.5691,661.6325,1145.8794,662.0099,1145.7947C662.3874,1145.7103,662.97516,1145.805,663.3052,1146.0145C664.2291,1146.6001,677.7918,1148.4899,679.08606,1148.1996C679.6794,1148.0669,681.3264,1148.1051,682.78467,1148.2772C685.63074,1148.6129,699.5907,1145.6929,703.61957,1143.95C705.83856,1142.99,706.2293,1141.4469,704.2155,1141.5511C703.59827,1141.5833,700.7225,1141.3492,697.8725,1141.0458C678.4433,1138.9778,667.50903,1133.6868,671.8657,1128.3518C673.5086,1126.3397,674.7449,1125.755,677.4117,1125.807C679.86444,1125.855,684.89215,1125.8226,692.9846,1125.5469C695.6278,1125.4569,698.88885,1125.3955,700.3102,1125.3783C702.89996,1125.3467,707.1554,1125.1018,713.9938,1124.5221C716.1041,1124.3428,719.0161,1124.1685,720.42474,1124.1575C723.99164,1124.1296,730.3818,1123.2617,730.9186,1122.7129C731.30505,1122.3177,727.39594,1120.387,726.5871,1120.5685C726.4255,1120.6044,725.3219,1120.2283,724.1816,1119.6914C723.04175,1119.1536,721.9387,1118.7772,721.7767,1118.8146C721.5612,1118.8628,720.3042,1118.3687,718.98706,1117.7393C717.64014,1117.0964,716.3603,1116.6294,716.1445,1116.6774C715.8744,1116.7378,714.62665,1116.2238,713.39685,1115.5369C712.1667,1114.8499,710.4089,1114.1344,709.57587,1113.9016C707.9318,1113.4432,703.1618,1110.2975,702.9803,1109.4888C702.92004,1109.2194,703.16144,1108.4052,703.53485,1107.6659C704.6139,1105.5306,707.37286,1104.8237,711.4437,1105.5543L711.4441,1105.5533L711.4437,1105.5543L711.44385,1105.5533L711.4437,1105.5543 Z"/>
      </g>
      <g style="fill: rgb(0, 0, 0); fill-opacity: 1; stroke-linejoin: miter;" transform="matrix(1.923143, 0, 0, 2.103388, 1159.834229, -1560.573486)">
        <path d="M1001.3607,1056.9093L859.11084,1069.8568L870.15936,1191.2451L1001.37085,1179.3062L1001.3607,1056.9093 Z"/>
      </g>
      <g style="fill: rgb(255, 255, 255); fill-opacity: 1; stroke-linejoin: miter;" transform="matrix(1.923143, 0, 0, 2.103388, 1159.834229, -1560.573486)">
        <path d="M1001.36066,1056.9082L990.1732,1057.9266L1001.2218,1179.3156L1001.37085,1179.3038L1001.36066,1056.9082 Z"/>
      </g>
      <g style="fill: rgb(255, 255, 255); fill-opacity: 1; stroke-linejoin: miter;" transform="matrix(1.923143, 0, 0, 2.103388, 1159.834229, -1560.573486)">
        <path d="M944.3024,1184.4963Q938.7786,1123.8024,933.2549,1063.1079L939.6395,1062.5255Q942.5572,1062.2614,945.4743,1061.9956L945.4828,1061.9938Q939.3688,1062.5514,933.255,1063.1067L947.3634,1061.824L947.3549,1061.8237Q946.4198,1061.9093,945.48456,1061.9949L945.4847,1061.9933Q946.8401,1061.872,948.19495,1061.7482L948.2033,1061.7463L947.36487,1061.8242L947.3646,1061.8223Q955.28143,1061.1033,963.19446,1060.383Q968.7357,1121.0758,974.26013,1181.77L944.31134,1184.4956 Z"/>
      </g>
      <g style="fill: rgb(255, 255, 255); fill-opacity: 1; stroke-linejoin: miter;" transform="matrix(1.923143, 0, 0, 2.103388, 1159.834229, -1560.573486)">
        <path d="M887.384,1189.6774L876.3361,1068.2894Q891.30676,1066.9266,906.2771,1065.5642L917.3413,1186.9506L887.384,1189.6774 Z"/>
      </g>
      <g style="fill: rgb(252, 184, 38); fill-opacity: 1; stroke-linejoin: miter;" transform="matrix(1.923143, 0, 0, 2.103388, 1159.834229, -1560.573486)">
        <path d="M603.7489,1166.7264C579.03766,1166.6573,559.08813,1186.4955,559.019,1211.2067L558.8803,1260.7671L571.27045,1260.8031L571.4091,1211.2415C571.4591,1193.395,585.86646,1179.0667,603.71423,1179.1166C621.5608,1179.1666,635.8892,1193.5742,635.8392,1211.422L635.7005,1260.9824L648.0906,1261.0182L648.2293,1211.4565C648.2985,1186.7452,628.46027,1166.7959,603.7489,1166.7264 Z"/>
      </g>
      <g style="fill: rgb(252, 184, 38); fill-opacity: 1; stroke-linejoin: miter;" transform="matrix(1.923143, 0, 0, 2.103388, 1159.834229, -1560.573486)">
        <path d="M580.51587,1257.6488L444.12036,1257.2673L443.8248,1362.8406L580.22046,1363.2225L580.51587,1257.6488 Z M580.51587,1257.6488L444.12036,1257.2673L443.8248,1362.8406L580.22046,1363.2225L580.51587,1257.6488 Z M580.51587,1257.6488L444.12036,1257.2673L443.8248,1362.8406L580.22046,1363.2225L580.51587,1257.6488 Z M580.51587,1257.6488L444.12036,1257.2673L443.8248,1362.8406L580.22046,1363.2225L580.51587,1257.6488 Z"/>
      </g>
      <g style="fill: rgb(79, 121, 142); fill-opacity: 1; stroke-linejoin: miter;" transform="matrix(1.923143, 0, 0, 2.103388, 1159.834229, -1560.573486)">
        <path d="M499.05875,1314.4238L499.25577,1315.9185Q500.29254,1320.4093,504.17847,1322.9083Q508.09003,1325.4037,513.1416,1324.5883Q517.9491,1323.5825,520.6504,1319.9261Q521.51526,1318.7449,522.0397,1317.3811L522.4657,1315.9861Q522.7999,1314.5521,522.7136,1313.0203Q522.30774,1308.3269,518.7852,1305.4036Q515.2626,1302.4799,510.22974,1302.6597Q505.21075,1303.0762,502.05865,1306.3959Q498.90662,1309.7152,499.05875,1314.4238"/>
      </g>
      <g style="fill: rgb(79, 121, 142); fill-opacity: 1; stroke-linejoin: miter;" transform="matrix(1.923143, 0, 0, 2.103388, 1159.834229, -1560.573486)">
        <path d="M506.46808,1317.8584L506.46814,1317.8586L500.4031,1352.2019Q511.604,1351.9985,522.8049,1351.795Q518.8175,1334.4967,514.8301,1317.1986L506.46808,1317.8584"/>
      </g>
    </g>
  </g>
  <g transform="matrix(2.9817800521850586, 0, 0, 2.257040023803711, -8472.412109375, -2274.85009765625)" style="">
    <defs/>
    <g id="layer1">
      <g style="fill:rgb(255,203,173); fill-opacity:1.0; stroke-linejoin: miter" transform="matrix(1, 0, 0, 1, 1480.714355, 632.490601)">
        <path d="M706.34827,663.7347L672.51434,678.8428Q680.7607,698.6486,682.5418,710.24646Q683.5558,716.3549,683.5924,722.9352Q683.60474,725.9766,683.4029,729.1193Q682.2507,741.2457,682.3742,741.86487Q682.23193,746.1713,682.7884,751.15753Q683.2977,755.82434,684.6705,762.27673L691.7927,793.6061Q693.26935,801.2129,693.2216,805.068Q693.27844,809.026,691.6023,812.00385Q690.97626,813.08044,690.1402,814.08514Q684.6527,819.9834,683.0798,822.43756Q680.3503,826.3601,677.30035,832.4909Q671.43604,844.7661,671.7944,848.524Q672.5406,852.2071,685.1442,837.68195Q672.9474,853.2623,674.26697,858.8921Q676.5857,864.8204,691.3465,861.12274Q700.5587,858.5185,704.9367,853.0743Q708.73553,848.94226,710.713,837.40753Q712.2778,829.6165,712.56,816.20844Q712.7816,817.13135,712.60065,763.66516Q712.582,757.3603,713.404,733.1674Q713.51,727.75336,713.40674,724.0778Q713.19183,714.6024,711.7056,701.9401Q710.2508,689.32623,706.384,663.9709 Z"/>
      </g>
      <g style="fill:rgb(5,2,0); fill-opacity:1.0; stroke-linejoin: miter" transform="matrix(1, 0, 0, 1, 1480.714355, 632.490601)">
        <path d="M694.944,1095.5837Q694.74585,1095.6196,694.8824,1096.0714Q695.89935,1095.8759,694.9843,1095.5883 M694.862,1096.0786L667.2903,1106.4191L667.39667,1114.0524Q667.4506,1115.7231,666.6246,1122.1451Q666.5382,1123.7169,666.8068,1124.9Q667.2395,1127.7788,671.7545,1130.7976Q672.05383,1131.0663,677.2526,1134.2126L680.1059,1136.4318Q680.7473,1136.8961,681.4385,1137.2666Q684.2588,1138.7545,689.3667,1140.2946Q698.40173,1142.9636,705.49567,1142.7435Q712.8472,1142.4952,715.75604,1139.4906Q718.76666,1136.2109,716.8598,1131.7671Q716.31995,1130.6144,715.09033,1129.1805Q709.2472,1123.1039,708.25085,1121.7109Q706.45764,1119.4949,704.7018,1116.6381Q698.543,1106.2606,694.8771,1096.1449 Z"/>
      </g>
      <g style="fill:rgb(5,2,0); fill-opacity:1.0; stroke-linejoin: miter" transform="matrix(1, 0, 0, 1, 1480.714355, 632.490601)">
        <path d="M528.78107,1096.5757Q523.53375,1108.4587,520.0566,1113.5402Q518.3455,1116.1237,516.3502,1118.3827L508.55847,1126.6855Q507.01996,1128.5303,506.46216,1130.1432Q505.1985,1133.6753,507.50006,1138.0242Q508.85596,1141.2576,512.39636,1142.0408Q516.2444,1142.9636,524.4482,1142.1251Q532.67694,1141.2244,537.92474,1139.3555Q540.4921,1138.4099,542.39856,1137.0519Q543.39685,1136.4663,547.0555,1132.8976Q547.82947,1132.2369,548.75604,1131.7128Q549.46216,1131.0808,557.0928,1128.4275Q558.4881,1127.8406,559.3727,1127.2684Q561.5471,1125.9236,562.37305,1123.6654Q564.3781,1119.5853,558.85535,1104.0239L528.8225,1096.5859 Z"/>
      </g>
      <g style="fill:rgb(255,203,173); fill-opacity:1.0; stroke-linejoin: miter" transform="matrix(1, 0, 0, 1, 1480.714355, 632.490601)">
        <path d="M459.55984,655.26526Q450.77368,657.37463,448.7441,671.15875Q447.18152,686.5082,454.42737,694.0666Q457.8034,697.67773,463.06937,699.74176Q465.00366,700.5115,467.51117,701.1225L475.53354,702.42236Q476.94168,702.7033,477.73215,703.25824Q500.89697,725.7657,519.1853,736.0078Q533.0523,743.6286,541.25885,741.81024Q550.50836,739.7238,555.8962,724.3197Q558.084,718.1812,559.8725,709.04193Q565.2316,675.7948,566.2764,671.25385L530.8717,666.2609Q525.6579,684.0589,524.6925,690.05066Q523.5184,696.0609,524.5594,702.1903Q505.34735,698.5765,495.15466,691.691Q491.0627,688.7254,489.603,685.44775Q488.97455,684.0725,488.60696,682.21497Q487.5043,672.172,486.71362,670.591Q485.46545,666.72437,482.53897,663.754Q471.31046,653.7137,459.75015,655.22455 Z"/>
      </g>
      <g style="fill:rgb(5,2,0); fill-opacity:1.0; stroke-linejoin: miter" transform="matrix(1, 0, 0, 1, 1480.714355, 632.490601)">
        <path d="M605.8065,498.5265Q601.3288,498.48322,595.61816,499.80682L581.66,503.3012Q579.4092,503.9319,578.145,504.85852Q576.88916,505.7973,576.09485,507.45587Q575.9216,507.60962,574.2908,512.09735Q571.9391,516.78577,571.9592,517.2287Q571.10724,519.64844,572.61005,523.56793Q573.1365,524.9257,573.5676,525.7416L631.9096,567.13165Q636.5616,556.5018,638.59,539.56256Q639.9589,526.3277,636.89856,518.68964Q633.51245,509.85187,625.19574,504.42383Q616.23645,498.7317,605.925,498.52753 Z"/>
      </g>
      <g style="fill:rgb(0,0,0); fill-opacity:1.0; stroke-linejoin: miter" transform="matrix(1, 0, 0, 1, 1480.714355, 632.490601)">
        <path d="M663.5638,793.25507L555.0173,798.36774C549.2983,844.1687,543.4536,879.1047,542.0022,902.859C541.6759,908.1974,541.54126,913.43085,541.79297,918.5374C543.6591,956.3845,544.4321,976.0494,543.7588,977.54974C543.9523,978.74994,542.6349,982.7492,540.3718,989.73914C539.617,992.0708,539.2919,994.99854,538.82104,998.3616C538.6869,996.48083,536.38947,1020.66797,531.4379,1070.8752C530.462,1080.7709,525.4245,1097.897,523.5739,1105.7595L562.6948,1111.15C568.22894,1092.5709,572.9676,1068.3153,576.4162,1048.1244C577.5261,1041.626,578.4481,1035.5249,578.795,1029.8019C580.03906,1009.2748,580.71796,998.4518,580.8715,997.2717C581.6935,990.95935,582.5288,984.7439,583.7874,978.66974C585.1415,972.13446,587.3068,963.6777,590.3301,953.3089L609.377,890.9652C612.01117,881.1296,613.0704,872.8143,612.55475,866.0193C640.244,933.12476,658.6398,1022.8976,665.4624,1114.8047L703.25604,1109.8503C701.327,1093.9634,697.81665,1065.9624,697.40155,1054.6517C695.51587,1003.27844,694.73126,978.3708,694.3921,979.9522C693.97375,974.9628,693.58105,970.3642,692.82587,966.2207C689.50653,948.0098,688.0792,938.3492,688.07007,937.0752C687.817,901.78046,685.8876,873.12994,683.6449,851.0612C681.2833,827.8213,679.5198,808.3342,673.42535,792.4359 Z"/>
      </g>
      <g style="fill:rgb(255,255,255); fill-opacity:1.0; stroke-linejoin: miter" transform="matrix(1, 0, 0, 1, 1480.714355, 632.490601)">
        <path d="M647.8164,591.5862L587.37384,597.52124C569.368,606.69415,557.0722,613.884,550.3267,618.8768C543.34186,624.0465,538.4465,629.72754,535.5266,636.0113C532.2012,643.1678,528.62134,654.5215,527.5842,674.032L558.8612,687.93964L561.9094,699.2569C571.6783,735.52686,565.8521,768.38043,559.8726,802.21204L674.7045,802.7907C671.16003,794.19543,669.7122,765.95416,669.02075,753.55896C667.7339,730.491,676.28046,682.5737,676.28046,682.5737L708.26917,670.86304C707.5123,661.21,706.75696,653.8035,706.09467,648.63153C703.85315,631.1261,699.4498,619.7492,693.12427,614.13153C690.4286,611.7376,687.2926,609.37256,683.3721,607.40625L661.2928,598.7481C657.51105,597.1066,653.02106,594.7205,647.8225,591.5897 Z"/>
      </g>
      <g style="fill:rgb(255,203,173); fill-opacity:1.0; stroke-linejoin: miter" transform="matrix(1, 0, 0, 1, 1480.714355, 632.490601)">
        <path d="M593.7945,515.55194Q587.82465,515.6314,584.0879,517.0627Q582.1998,517.83276,581.3563,518.7579Q580.7156,519.2936,579.3485,521.89075L578.7915,522.4567Q578.4691,522.69525,577.79285,522.70325Q574.6512,522.2701,574.1373,522.51764Q573.0987,522.67633,572.4393,524.0799Q571.7827,525.5692,571.42883,528.6435Q569.6683,541.675,570.19275,541.9931Q570.4113,544.01965,571.3537,545.72504Q571.6947,546.59717,574.6739,550.3915L575.32263,551.5485Q572.5068,559.8194,572.0076,560.5432Q571.6219,561.6832,571.7526,562.5258Q573.46027,565.687,578.09265,564.42065Q576.6658,569.14276,577.3398,571.95447Q577.1316,572.35425,580.567,580.8257L582.09216,587.157Q582.56647,588.7177,583.0982,589.3803Q584.0322,590.594,585.38635,590.88525Q585.9633,591.2225,591.8448,591.355Q592.90625,591.48285,593.1788,591.9478Q593.5073,592.7374,592.1796,594.40546Q590.66986,596.3441,587.3041,599.40625L587.3761,599.5235L592.86,605.619Q603.1273,609.7857,609.62494,609.5401Q629.3755,607.80035,645.0745,594.61725Q634.82764,584.22125,633.227,573.9484Q632.1081,568.0727,632.67,562.4426L633.27094,558.6639Q636.3799,547.4637,636.01996,546.8673Q636.24304,544.2671,634.75195,541.92944Q631.35614,537.4255,626.7354,538.09186Q625.201,538.4629,623.71216,539.849Q622.9803,540.37726,619.7747,544.50854Q619.013,545.348,618.4878,545.7039Q617.0421,546.79865,614.8182,546.65704Q612.05444,533.71014,610.8976,530.34216Q609.1336,524.64966,607.09985,521.6765Q603.03436,515.4207,593.82556,515.55194 Z"/>
      </g>
      <g style="fill:rgb(5,2,0); fill-opacity:1.0; stroke-linejoin: miter" transform="matrix(1, 0, 0, 1, 1480.714355, 632.490601)">
        <path d="M469.44348,672.87866Q468.76617,674.0099,469.22836,674.98Q469.4088,675.41315,469.75455,675.89484Q471.81793,678.46576,471.97812,678.83856Q472.53998,679.7473,472.51083,680.4325Q472.4914,680.9326,472.00702,681.44366Q472.0238,681.55493,469.6904,683.21686Q469.23932,683.6113,469.11993,684.03436Q469.018,684.45874,469.2747,684.9868Q469.38193,685.2244,469.6289,685.6001Q470.9676,687.4191,471.02713,687.61285Q471.40817,688.2902,471.36917,688.8042Q471.3163,689.3818,470.77948,689.96387Q470.82043,690.0606,468.141,692.1924Q467.57465,692.7323,467.3802,693.2448Q466.80392,694.4063,468.0623,696.96277L481.75888,698.07623L486.86084,690.9602L474.06735,672.9744L469.47852,672.8792 Z"/>
      </g>
      <g style="fill:rgb(255,0,25); fill-opacity:0.105882354; stroke-linejoin: miter" transform="matrix(1, 0, 0, 1, 1480.714355, 632.490601)">
        <path d="M613.3277,584.57855L607.8123,587.92267L584.29425,590.4526L584.296,590.4536Q584.799,590.7457,585.42236,590.9022Q585.9992,591.2377,591.8849,591.3683Q592.9486,591.4938,593.2037,591.99927Q593.20465,592.00256,593.20605,592.0057L593.20776,592.0068Q593.5089,592.0043,593.82245,592.002Q594.19336,591.99927,594.5818,591.9955Q598.17175,595.397,600.0182,596.3934Q601.70355,597.3486,603.09125,597.3387Q603.4753,597.3358,603.83636,597.2592Q605.8049,596.8931,607.9839,593.96576Q609.8604,591.5538,613.3212,584.5949L613.3277,584.57855 Z"/>
      </g>
      <g style="fill:rgb(255,255,255); fill-opacity:1.0; stroke-linejoin: miter" transform="matrix(1, 0, 0, 1, 1480.714355, 632.490601)">
        <path d="M591.3264,541.0792Q590.19116,541.0855,589.3779,541.86774Q588.5847,542.66486,588.55853,543.8023Q588.5675,544.9397,589.3446,545.7467Q590.1422,546.54083,591.27563,546.56854Q592.4111,546.56354,593.2255,545.78265Q594.0199,544.9866,594.0477,543.84906Q594.04,542.71155,593.26404,541.9034Q592.46796,541.1085,591.3343,541.0792 Z"/>
      </g>
      <g style="fill:rgb(0,0,0); fill-opacity:1.0; stroke-linejoin: miter" transform="matrix(1, 0, 0, 1, 1480.714355, 632.490601)">
        <path d="M590.9177,541.0674Q590.38416,541.068,590.1337,541.1966L588.4976,542.2852L589.41895,541.94696Q589.25745,542.8426,589.34106,543.42883Q589.4216,544.08905,589.7792,544.85016Q590.67126,546.64386,591.6335,546.65137Q592.09045,546.646,592.42773,546.26337Q592.75146,545.87024,592.78754,545.2855Q592.89343,544.34326,591.9324,541.6676L591.995,541.2394L592.95935,541.1797Q591.46014,541.0595,590.92487,541.0674 Z"/>
      </g>
      <g style="fill:rgb(0,0,0); fill-opacity:1.0; stroke-linejoin: miter" transform="matrix(1, 0, 0, 1, 1480.714355, 632.490601)">
        <path d="M589.97925,536.3593Q588.48254,536.7829,586.9167,538.87054L595.05896,537.466L594.97327,537.4243L594.1153,537.06683Q593.6577,536.8815,593.30176,536.7537Q592.6022,536.5015,592.0215,536.37384Q590.8541,536.1133,589.9819,536.35834 Z"/>
      </g>
      <g style="fill:rgb(255,255,255); fill-opacity:1.0; stroke-linejoin: miter" transform="matrix(1, 0, 0, 1, 1480.714355, 632.490601)">
        <path d="M576.1517,544.04944Q575.01654,544.0558,574.2031,544.83795Q573.41,545.635,573.38367,546.77246Q573.3928,547.91,574.1697,548.71704Q574.96716,549.5109,576.1008,549.53864Q577.23627,549.5338,578.05084,548.7529Q578.8451,547.95654,578.87274,546.81903Q578.86523,545.68164,578.0894,544.87366Q577.2932,544.0788,576.15967,544.0497 Z"/>
      </g>
      <g style="fill:rgb(0,0,0); fill-opacity:1.0; stroke-linejoin: miter" transform="matrix(1, 0, 0, 1, 1480.714355, 632.490601)">
        <path d="M575.74286,544.0376Q575.2095,544.03815,574.95905,544.16693L573.3228,545.25555L574.2443,544.9175Q574.08276,545.813,574.1665,546.39905Q574.2468,547.05927,574.6043,547.8201Q575.49646,549.6142,576.4588,549.62146Q576.9158,549.6164,577.2529,549.2337Q577.5766,548.8405,577.61285,548.2555Q577.71857,547.31323,576.75775,544.6378L576.82043,544.20966L577.7846,544.1498Q576.2854,544.02985,575.7502,544.0376 Z"/>
      </g>
      <g style="fill:rgb(0,0,0); fill-opacity:1.0; stroke-linejoin: miter" transform="matrix(1, 0, 0, 1, 1480.714355, 632.490601)">
        <path d="M574.8043,539.3297Q573.3078,539.7531,571.7421,541.8412L579.88416,540.4363L579.7983,540.3942L578.9403,540.0367Q578.4829,539.8519,578.127,539.72406Q577.4273,539.47174,576.8467,539.34406Q575.6794,539.0837,574.8073,539.3286 Z"/>
      </g>
      <g style="fill:rgb(255,182,157); fill-opacity:0.69803923; stroke-linejoin: miter" transform="matrix(1, 0, 0, 1, 1480.714355, 632.490601)">
        <path d="M583.3331,571.8501Q583.31696,571.8501,583.30115,571.8504L583.2902,571.8505Q582.63635,571.85785,582.12585,571.964Q581.7982,572.01404,580.8465,572.3488Q580.6702,572.3953,580.5635,572.39594Q580.5614,572.39594,580.5592,572.39594Q580.3683,572.39594,580.19653,572.3318Q579.3335,571.9325,579.227,571.9331Q579.22363,571.9332,579.22095,571.93353Q579.0789,571.9009,578.9417,571.90186Q578.781,571.9031,578.62683,571.9505Q578.14764,572.09625,577.45593,572.7688L577.4576,572.76984Q577.4942,573.01996,577.54517,573.26965Q577.44055,573.7135,579.0486,577.5552L579.05023,577.5562Q580.56726,577.7453,581.6454,577.73737Q581.7061,577.737,581.7658,577.736Q581.80884,577.736,581.852,577.7358Q584.186,577.719,586.48206,576.89197Q588.72736,576.1399,592.9847,573.838Q588.5347,572.66113,586.68005,572.2921Q584.50104,571.8418,583.3331,571.8501 Z"/>
      </g>
      <g style="fill:rgb(0,0,0); fill-opacity:0.99607843; stroke-linejoin: miter" transform="matrix(1, 0, 0, 1, 1480.714355, 632.490601)">
        <path d="M598.0252,840.9887L598.0252,840.9892Q598.0252,840.99054,598.0252,840.9887"/>
      </g>
      <g style="fill:rgb(0,0,0); fill-opacity:0.99607843; stroke-linejoin: miter" transform="matrix(1, 0, 0, 1, 1480.714355, 632.490601)">
        <path d="M500.039,471.5729L500.03882,471.57346L500.03876,471.574L500.03882,471.57346L500.039,471.5729L500.03882,471.57346L500.03876,471.574Q500.03882,471.57346,500.039,471.5729"/>
      </g>
      <g style="fill:rgb(0,0,0); fill-opacity:0.99607843; stroke-linejoin: miter" transform="matrix(1, 0, 0, 1, 1480.714355, 632.490601)">
        <path d="M500.039,471.5729L500.03882,471.57346L500.03876,471.574L500.03882,471.57346L500.039,471.5729L500.03882,471.57346L500.03876,471.574Q500.03882,471.57346,500.039,471.5729"/>
      </g>
      <g style="fill:rgb(60,70,79); fill-opacity:0.99607843; stroke-linejoin: miter" transform="matrix(1, 0, 0, 1, 1480.714355, 632.490601)">
        <path d="M553.70667,805.67645L555.7783,793.6951Q589.7324,794.16455,608.5925,793.53503Q627.91614,793.0568,673.6046,790.36017L677.0433,802.7157Q631.41876,805.5257,611.08374,805.9299Q592.4099,806.5202,553.70667,805.67645"/>
      </g>
      <g style="fill:rgb(231,194,53); fill-opacity:1.0; stroke-linejoin: miter" transform="matrix(1, 0, 0, 1, 1480.714355, 632.490601)">
        <path d="M651.24457,781.9988L646.52106,787.2122L648.3353,790.4933Q648.7505,792.6131,648.6994,793.7783Q648.68005,794.90686,648.3251,796.0886Q648.3646,796.18097,646.75696,800.1929Q646.42584,801.11456,646.23737,801.95044Q645.8497,803.67664,646.10156,805.30597Q646.68115,808.9164,650.2725,810.56604Q651.0734,810.96344,652.23474,811.39056Q656.97296,812.9358,657.2397,813.1163Q658.65765,813.69147,660.2581,814.6823Q662.39374,813.13586,663.55554,812.7808Q664.2327,812.5513,664.8163,812.4836Q667.9524,812.3309,668.465,812.1354Q669.6984,811.85284,670.7402,811.07544Q674.0858,808.3482,674.3835,804.1932Q674.42804,803.1307,674.11145,801.7327L673.68896,800.20764Q672.3419,796.33856,672.3004,796.016Q671.94183,794.6957,671.9648,793.6974Q671.9086,791.1658,674.55334,787.4563L669.89075,782.2705L668.3647,783.1528L667.4805,783.5658Q666.54156,783.92804,665.65704,783.9151Q664.09393,783.96844,660.36053,782.27673Q657.2126,783.59076,655.6618,783.477Q654.1028,783.47974,651.259,782.00586 Z"/>
      </g>
      <g style="fill:rgb(255,217,71); fill-opacity:1.0; stroke-linejoin: miter" transform="matrix(1, 0, 0, 1, 1480.714355, 632.490601)">
        <path d="M651.80865,782.87067L647.42914,787.7044L649.1017,790.7835Q649.4621,792.5588,649.4433,793.7835Q649.4134,794.9767,649.0639,796.10614Q648.93976,796.53235,647.6131,799.8569Q647.33563,800.63,647.14954,801.43427Q646.79376,803.0658,647.0131,804.4955Q647.5541,807.7703,650.4993,809.2569Q651.4766,809.7584,652.5923,810.17114Q656.3166,811.3922,657.1965,811.7389Q658.77484,812.39417,660.1757,813.27216Q662.23193,811.8463,663.1446,811.55414Q663.8625,811.3126,664.3154,811.2542Q667.17615,811.1004,667.7369,810.946Q668.9727,810.6496,669.86084,809.9953Q673.09485,807.376,673.33997,803.54205Q673.3853,802.55304,673.09155,801.2504L671.4048,795.94147Q671.0436,794.55,671.08374,793.61084Q671.1161,791.30865,673.47565,787.98224L669.1806,783.14825L666.8061,784.3706Q665.95087,784.68317,665.06616,784.65784Q663.68164,784.6376,660.2548,783.1447Q657.4613,784.3,656.047,784.25946Q654.555,784.2816,651.92834,782.93225 Z"/>
      </g>
      <g style="fill:rgb(255,214,56); fill-opacity:1.0; stroke-linejoin: miter" transform="matrix(1, 0, 0, 1, 1480.714355, 632.490601)">
        <path d="M660.07935,791.5547Q657.9425,791.5843,656.4142,793.06287Q654.9139,794.5951,654.87964,796.7358Q654.9114,798.88434,656.37744,800.4Q657.9204,801.9115,660.0481,801.9452Q662.185,801.92487,663.7207,800.4517Q665.2278,798.9245,665.27014,796.784Q665.2538,794.643,663.77203,793.0994Q662.22876,791.5882,660.10126,791.5547 Z"/>
      </g>
      <g style="fill:rgb(255,203,6); fill-opacity:1.0; stroke-linejoin: miter" transform="matrix(1, 0, 0, 1, 1480.714355, 632.490601)">
        <path d="M660.0872,792.1319Q661.99756,792.16315,663.359,793.4938Q664.67487,794.85645,664.70264,796.75287Q664.6817,798.6416,663.34247,800.0257Q662.0037,801.3326,660.08417,801.37103Q658.17365,801.342,656.81067,800.0126Q655.4931,798.651,655.46356,796.7545Q655.4826,794.8659,656.82043,793.48065Q658.197,792.156,660.0769,792.13196 M660.0874,791.85583Q658.0925,791.8787,656.635,793.27576Q655.2205,794.72345,655.1875,796.7397Q655.21893,798.76373,656.6032,800.1953Q658.0366,801.60535,660.06165,801.647Q662.0566,801.6312,663.5198,800.23865Q664.9397,798.7946,664.9785,796.77814Q664.9604,794.7617,663.55994,793.3045Q662.1248,791.8955,660.0998,791.85583 Z"/>
      </g>
      <g style="fill:rgb(255,224,109); fill-opacity:1.0; stroke-linejoin: miter" transform="matrix(1, 0, 0, 1, 1480.714355, 632.490601)">
        <path d="M660.27606,792.10114L658.48663,794.8832L655.6049,795.2695L657.7471,797.4253L657.32385,800.5806L660.0156,799.3134L662.9009,800.5944L662.5732,797.32117L664.6017,795.3336L661.66376,794.92017L660.27747,792.1042 Z"/>
      </g>
      <g style="fill:rgb(207,177,58); fill-opacity:1.0; stroke-linejoin: miter" transform="matrix(1, 0, 0, 1, 1480.714355, 632.490601)">
        <path d="M666.2502,787.6608Q666.3747,787.66046,666.5452,787.8165L666.5419,787.8339Q666.578,788.24023,666.29236,788.2409Q666.19135,788.2411,666.0502,788.1904L666.0933,787.744Q666.1595,787.6611,666.2502,787.6608 Z M659.9617,786.77673L659.9736,788.38855L659.98785,788.3882L660.7095,788.3733L660.7492,786.79913L659.9617,786.77673 Z M661.7096,786.7986Q661.20917,786.7996,661.078,787.06573Q660.9694,788.3501,661.09717,788.34973Q661.1183,788.3497,661.14575,788.3149Q661.6053,788.52356,662.2068,788.52234Q662.46136,788.52185,662.74146,788.4836Q663.3354,787.84564,662.5511,787.8475Q662.4257,787.8476,662.2653,787.8642L662.2633,787.88434Q662.3457,788.3166,662.08203,788.31696Q661.9711,788.3173,661.79865,788.241L661.89923,787.0513Q662.021,787.028,662.1114,787.0278Q662.5065,787.02704,662.30566,787.4681L663.01874,787.55426Q663.13666,787.0762,662.9236,787.0155Q662.16425,786.79755,661.7096,786.7986 Z M659.5181,786.7992Q659.05096,786.80023,657.95026,786.9353L658.13763,788.5362L658.1708,788.5317L658.87805,788.451L658.8248,787.6981L659.6625,787.64215L659.66077,787.4293L658.7879,787.47473L658.75195,787.08276L659.67664,787.0001L659.66895,786.8034Q659.6044,786.7991,659.5181,786.7992 Z M657.662,786.98944Q657.4094,786.9901,656.01086,787.2707L656.3159,788.85345L656.349,788.8466L657.0576,788.7064L656.93787,787.9612L657.7644,787.82495L657.7404,787.6134L656.88135,787.7419L656.81055,787.3547L657.7118,787.18494L657.6836,786.9902Q657.6742,786.98944,657.662,786.98944 Z M663.4028,787.0097L663.1589,788.60315L663.1854,788.6068L664.8194,788.86835L664.8601,788.6517L663.9479,788.4959L664.03217,787.9617L664.92694,788.09546L664.96136,787.90173L664.0682,787.7336L664.12994,787.345L665.0583,787.4969L665.0992,787.281L663.4028,787.0097 Z M654.7562,787.7223Q654.84863,787.72217,654.97766,787.76416L654.97766,787.7642L655.22876,788.8453Q655.26117,788.8976,655.0833,788.9698Q654.974,789.0021,654.904,789.0023Q654.8287,789.00244,654.7989,788.9655L654.5344,787.88446Q654.57544,787.7227,654.7562,787.7223 Z M655.31757,787.4263Q655.0763,787.42664,654.70233,787.51483Q653.69635,787.7507,653.7791,788.0838L653.7804,788.0893L654.0987,789.20386Q654.21124,789.2794,654.43536,789.2789Q654.695,789.27826,655.1044,789.1759Q655.869,788.98364,655.9485,788.76337L655.7427,787.6208Q655.6786,787.42554,655.31757,787.4263 Z M665.7665,787.4028Q665.4618,787.4035,665.3645,787.51733L665.0832,788.8957L665.84216,789.0472L665.9724,788.37085L666.15045,788.39453Q666.1786,788.39056,666.2035,788.3904Q666.54987,788.38965,666.2843,789.1447L666.31604,789.151L667.0191,789.27625Q667.3665,788.56854,666.8309,788.424L666.8311,788.42413Q666.8578,788.4257,666.88275,788.4255Q667.296,788.4246,667.2569,787.9529Q667.26483,787.64667,666.4022,787.4771Q666.01526,787.4023,665.7665,787.4028 Z"/>
      </g>
      <g style="fill:rgb(207,177,58); fill-opacity:1.0; stroke-linejoin: miter" transform="matrix(1, 0, 0, 1, 1480.714355, 632.490601)">
        <path d="M652.27234,804.37164Q652.5176,804.37115,652.82715,804.8032L652.8138,804.8312Q652.7204,805.5239,652.3275,805.5248Q652.0773,805.5252,651.7055,805.24506Q651.92395,804.3724,652.27234,804.37164 Z M651.1725,803.7006Q651.0265,803.7009,650.9334,803.7498L649.9153,805.6814L649.9281,805.68774L651.14514,806.29254L651.5518,805.5572Q652.7039,806.18024,653.29333,806.1789Q653.4882,806.17865,653.6217,806.11Q654.8013,805.1143,652.7431,804.24225Q651.661,803.6996,651.1725,803.7006 Z M669.0658,803.67554Q669.04596,803.67554,669.0423,803.727L666.4528,805.12897L667.54706,807.33374L667.5755,807.3196Q668.6735,806.7741,670.3006,805.85504L670.1324,805.55927L668.65454,806.3679L668.26544,805.64545L669.6835,804.8361L669.5263,804.5564L668.1325,805.3242L667.8186,804.78766L669.2602,803.9822Q669.11426,803.67535,669.0658,803.67554 Z M655.85706,805.8892Q656.0916,805.8887,656.3422,806.31555L656.3354,806.33466Q655.9919,808.049,655.51495,808.0499Q655.26807,808.0505,654.9856,807.5924Q655.38916,805.89014,655.85706,805.8892 Z M654.7361,805.3652Q654.42126,805.36584,654.32025,805.5503L654.3143,805.56384Q653.2896,807.4694,653.8054,807.4683Q653.82947,807.46826,653.85693,807.464Q655.56793,808.5031,656.5202,808.50104Q656.8894,808.5003,657.1446,808.34314L657.60114,806.71643Q657.61957,806.5634,657.45197,806.4062Q655.4866,805.36365,654.7361,805.3652 Z M665.8266,805.54126Q665.1748,805.5425,663.4204,806.3958Q663.3807,806.3891,663.34546,806.38916L663.3453,806.3893Q662.72394,806.3906,663.483,808.4928Q663.72406,808.67346,664.1167,808.67267Q664.93866,808.67096,666.42474,807.8739Q667.26587,807.43176,666.6783,806.71594L666.678,806.7161L665.478,807.2216L665.48236,807.23224Q666.14075,808.0367,664.9461,808.1145L664.3319,806.3814Q664.67584,806.11835,664.8988,806.118Q665.21765,806.11725,665.2888,806.6538Q665.8213,806.43317,666.3508,806.18195Q666.2218,805.5773,666.0353,805.5717Q665.951,805.54083,665.8266,805.54126 Z M662.4565,806.60297L661.2388,806.7773L661.4145,809.2325L661.47595,809.22784Q662.23676,809.1687,662.95087,809.0142L662.4565,806.60297 Z M658.1983,806.47754L657.61536,808.869L657.68036,808.88477Q659.24866,809.2601,660.6133,809.2573Q660.80817,809.2569,660.9987,809.2487L660.98816,808.92786Q659.7694,808.9274,659.15826,808.79675L659.3782,806.6962L658.1983,806.47754 Z"/>
      </g>
      <g style="fill:rgb(0,0,0); fill-opacity:0.99607843; stroke-linejoin: miter" transform="matrix(1, 0, 0, 1, 1480.714355, 632.490601)">
        <path d="M549.9001,778.70715L556.09607,779.69653L562.2921,780.6857Q557.93524,807.989,553.5782,835.29224Q547.382,834.3041,541.1858,833.3158Q545.54297,806.0116,549.9001,778.70715"/>
      </g>
      <g style="fill:rgb(0,0,0); fill-opacity:0.99607843; stroke-linejoin: miter" transform="matrix(1, 0, 0, 1, 1480.714355, 632.490601)">
        <path d="M600.5687,793.00665L609.3219,792.6902L618.07526,792.37354Q618.3191,799.1038,618.56287,805.834Q609.80963,806.15155,601.05634,806.4692L600.5687,793.00665"/>
      </g>
      <g style="fill:rgb(0,0,0); fill-opacity:0.99607843; stroke-linejoin: miter" transform="matrix(1, 0, 0, 1, 1480.714355, 632.490601)">
        <path d="M577.3046,793.0797L579.2426,793.1795L581.1808,793.2793Q580.80035,800.707,580.42,808.1348Q578.4819,808.0361,576.5437,807.93726Q576.92413,800.50854,577.3046,793.0797"/>
      </g>
      <g style="fill:rgb(0,0,0); fill-opacity:0.99607843; stroke-linejoin: miter" transform="matrix(1, 0, 0, 1, 1480.714355, 632.490601)">
        <path d="M634.8777,791.93884L636.81726,791.90656L638.75684,791.8742Q638.8826,799.31085,639.0085,806.74744Q637.069,806.78076,635.12946,806.8142Q635.00354,799.3765,634.8777,791.93884"/>
      </g>
      <g style="fill:rgb(0,0,0); fill-opacity:0.99607843; stroke-linejoin: miter" transform="matrix(1, 0, 0, 1, 1480.714355, 632.490601)">
        <path d="M449.43222,637.1471L449.43222,637.1476Q449.43228,637.1489,449.43222,637.1471"/>
      </g>
      <g style="fill:rgb(5,2,0); fill-opacity:1.0; stroke-linejoin: miter" transform="matrix(1, 0, 0, 1, 1480.714355, 632.490601)">
        <path d="M405.17926,650.72437L405.9112,661.74866L420.67877,661.74835L420.4551,664.0877L440.76645,665.2296L441.82468,674.1244L441.9103,674.1448L450.33456,674.08673L472.53906,663.3859L468.44852,654.37427L405.23166,650.72705 Z"/>
      </g>
    </g>
  </g>
  <g transform="matrix(19.465274810791016, 0, 0, 19.9556827545166, -2049.446044921875, 27.499925613403548)" style="">
    <defs/>
    <path transform="translate(-.125,.625)" d="m40.5 40.938a17.188 5.4375 0 1 1 -34.375 0 17.188 5.4375 0 1 1 34.375 0z" display="block" fill="url(#f)" opacity=".36932"/>
    <g transform="matrix(1.0063 0 0 1 .478 .5)">
      <path d="m23 3c-7.401 5.5766-19 9-19 9 3 25.75 19.375 32 19.375 32s16.125-6.5 19.375-32.375c0 0-14-5.125-19.75-8.625z" display="block" fill="url(#e)" stroke="#888a85" stroke-linecap="round" stroke-linejoin="round" stroke-width=".99687"/>
      <path d="m23.024 4.2893c-6.9355 5.2259-17.805 8.434-17.805 8.434 2.8113 24.13 18.117 29.987 18.117 29.987s15.15-6.0912 18.196-30.339c0 0-13.12-4.8027-18.508-8.0826z" display="block" fill="none" stroke="#fff" stroke-linecap="round" stroke-linejoin="round" stroke-width=".99687"/>
      <path d="m22.883 7v33s-12.318-5.2594-16-26c5.25-0.875 16-7 16-7z" display="block" fill="url(#d)"/>
    </g>
    <path d="m30.911 18.605a3.3335 3.3335 0 1 1 -6.667 0 3.3335 3.3335 0 1 1 6.667 0z" fill-rule="evenodd" transform="matrix(-4.0295e-17 -.51316 -.51316 4.0295e-17 33.547 36.401)" style="fill: rgb(202, 65, 214);"/>
    <path d="m30.911 18.605a3.3335 3.3335 0 1 1 -6.667 0 3.3335 3.3335 0 1 1 6.667 0z" stroke="url(#c)" stroke-miterlimit="10" stroke-width="1.5866" transform="matrix(-1.3928e-16 -1.7738 -1.7738 1.3928e-16 57 71.164)" fill="none"/>
    <path d="m30.911 18.605a3.3335 3.3335 0 1 1 -6.667 0 3.3335 3.3335 0 1 1 6.667 0z" stroke="url(#b)" stroke-miterlimit="10" stroke-width=".8115" fill="none" transform="matrix(-2.7231e-16 -3.4678 -3.4678 2.7231e-16 88.518 117.88)"/>
  </g>
</svg>