<svg xmlns="http://www.w3.org/2000/svg" viewBox="67.307 121.915 366.043 236.228" xmlns:v="https://vecta.io/nano"><style><![CDATA[.B{fill:#ffb700}.C{fill:#ffc400}.D{fill:#f90}.E{fill:#ffde38}.F{opacity:.3}.G{fill:#693ab0}.H{fill:#1f0159}.I{fill:#e5e3e8}.J{fill:#f1f1f1}]]></style><g transform="matrix(.581637 0 0 .579924 478.311188 132.323685)"><path d="M-319.502 120.951c14.7 8.5 14.7 22.2 0 30.7s-38.5 8.5-53.2 0-14.7-22.2 0-30.7 38.5-8.5 53.2 0z" fill="#120a1e" class="F"/><use href="#b" class="B"/><use href="#c" class="E"/><path d="M-352.855 131.479c-.6 3.9-3.5 7.7-8.7 10.7-11.7 6.8-30.7 6.8-42.3 0-5.1-3-7.9-6.7-8.6-10.6-.8-5 2.1-10.1 8.7-14 11.7-6.8 30.7-6.8 42.3 0 6.5 3.8 9.4 8.9 8.6 13.9z" class="D"/><path d="M-352.855 131.479c-.6 3.9-3.5 7.7-8.7 10.7-11.7 6.8-30.7 6.8-42.3 0-5.1-3-7.9-6.7-8.6-10.6.6-3.9 3.5-7.7 8.7-10.7 11.7-6.8 30.7-6.8 42.3 0 5.1 3 7.9 6.7 8.6 10.6z" class="C"/><path d="M-347.055 137.279c-1.1 4.4-4.6 8.4-10.2 11.6-14.1 8.2-37.1 8.2-51.1 0-5.4-3.1-8.8-7.1-10-11.3v1.8.3c1.6 3.7 4.9 7.1 9.6 9.8 7.1 4.1 16.5 6.2 25.9 6.2s18.8-2.1 26-6.2c4.9-2.8 8.2-6.3 9.8-10v-.3-1.9zm-61.6 9.2c7.1 4.1 16.5 6.2 25.9 6.2s18.8-2.1 26-6.2c4.9-2.8 8.2-6.3 9.8-10v-2.1c-1.1 4.3-4.7 8.3-10.2 11.5-14.1 8.2-37.1 8.2-51.1 0-5.4-3.1-8.8-7.1-10-11.3v2.1c1.6 3.7 4.8 7 9.6 9.8zm51.5 5.3c-14.1 8.2-37.1 8.2-51.1 0-5.2-3-8.6-6.8-9.8-10.9.2 1.5.7 3.1 1.5 4.6 1.8 2.6 4.5 4.9 8 6.9 7.1 4.1 16.5 6.2 25.9 6.2s18.8-2.1 26-6.2c3.7-2.1 6.5-4.6 8.4-7.4.8-1.5 1.2-3 1.4-4.5-1.4 4.3-4.9 8.2-10.3 11.3z" class="E"/><g transform="translate(-510.514 -56.173)"><use href="#b" x="516.555" y="34.721" class="B"/><use href="#c" x="516.455" y="34.721" class="E"/><path d="M163.6 166.2c-.6 3.9-3.5 7.7-8.7 10.7-11.7 6.8-30.7 6.8-42.3 0-5.1-3-7.9-6.7-8.6-10.6-.8-5 2.1-10.1 8.7-13.9 11.7-6.8 30.7-6.8 42.3 0 6.5 3.7 9.4 8.8 8.6 13.8z" class="D"/><path d="M163.6 166.2c-.6 3.9-3.5 7.7-8.7 10.7-11.7 6.8-30.7 6.8-42.3 0-5.1-3-7.9-6.7-8.6-10.6.6-3.9 3.5-7.7 8.7-10.7 11.7-6.8 30.7-6.8 42.3 0 5.1 3 8 6.7 8.6 10.6z" class="C"/><g class="D"><path d="M152.7 156v2.4l-4 2.3v-2.4zm.4 6.4v2.4l-5.8 2v-2.4z"/><use href="#d"/></g><clipPath id="A"><use href="#d"/></clipPath><g clip-path="url(#A)" class="D"><path d="M147.3 164.4v2.4c-.5-.7-1.2-1.4-2-2.2-.9-.8-1.9-1.6-3.2-2.3-1.2-.7-2.3-1.1-3.3-1.2-.9-.1-1.8.1-2.4.5-.4.2-.7.5-.8.8-.1.1-.1.3-.1.4v-2.4c0-.2 0-.3.1-.4.1-.3.4-.5.8-.8.7-.4 1.5-.5 2.4-.5.9.1 2 .5 3.3 1.2 1.2.7 2.3 1.5 3.2 2.3.9.7 1.5 1.5 2 2.2h0z"/></g><use href="#e" class="D"/><clipPath id="B"><use href="#e"/></clipPath><g clip-path="url(#B)" class="D"><path d="M132.2 168.1v2.4c0-.2 0-.4-.1-.7-.2-.4-.4-.9-.8-1.4s-.9-1.2-1.5-1.8l-1.5-2c-.4-.7-.7-1.4-.8-2.1v-.5-2.4.5c.1.7.4 1.4.8 2.1a9.51 9.51 0 0 0 1.5 2l1.5 1.8c.4.5.7 1 .8 1.4 0 .3.1.5.1.7h0z"/></g><use href="#f" class="D"/><clipPath id="C"><use href="#f"/></clipPath><g clip-path="url(#C)" class="D"><path d="M118.4 170.2v2.4c-1.7-1.2-3-2.2-3.7-3.1l-1.6-2.1V165c.3.5.8 1.2 1.6 2.1s2 2 3.7 3.1h0z"/></g><use href="#g" class="D"/><clipPath id="D"><use href="#g"/></clipPath><g clip-path="url(#D)" class="D"><path d="M140.2 168.9v2.4c0 .6-.2 1.3-.6 1.9-.4.7-1.2 1.4-2.4 2.1-.8.4-1.6.8-2.6 1.1s-2.1.5-3.2.5c-1.2.1-2.4 0-3.8-.3-1.3-.2-2.7-.7-4.2-1.3v-2.4c1.5.6 2.9 1 4.2 1.3 1.3.2 2.6.3 3.8.3 1.2-.1 2.3-.2 3.2-.5a12.7 12.7 0 0 0 2.6-1.1c1.1-.7 1.9-1.3 2.4-2.1.4-.6.6-1.3.6-1.9h0z"/></g><path d="M123.4 173v2.4l-4.7 2.7v-2.4z" class="D"/><path d="M152.7 156l-4 2.3 2.9 2.3c.7.7 1.2 1.3 1.5 1.8l-5.8 2c-.5-.7-1.2-1.4-2-2.2-.9-.8-1.9-1.6-3.2-2.3-1.2-.7-2.3-1.1-3.3-1.2-.9-.1-1.8.1-2.4.5-.4.2-.7.5-.8.8s-.1.6 0 .9.4.7.7 1.2l1.2 1.5c.7.9 1.3 1.8 1.8 2.6s.8 1.6.8 2.4c.1.8-.1 1.5-.5 2.2s-1.2 1.4-2.4 2.1c-.8.4-1.6.8-2.6 1.1s-2.1.5-3.2.5c-1.2.1-2.4 0-3.8-.3-1.3-.2-2.7-.7-4.2-1.3l-4.7 2.7-4.9-2.8 4.6-2.7c-1.7-1.2-3-2.2-3.7-3.1l-1.6-2.1 6.1-1.6c.5.8 1.1 1.6 2 2.6.9.9 2 1.8 3.4 2.6 1.6.9 2.9 1.4 3.9 1.5s1.9-.1 2.7-.5c.5-.3.8-.6.9-.9s.1-.7-.1-1.1-.4-.9-.8-1.4-.9-1.2-1.5-1.8l-1.5-2c-.4-.7-.7-1.4-.8-2.1s0-1.4.4-2.1 1.1-1.3 2.2-2c.8-.5 1.8-.9 2.8-1.2s2.1-.5 3.3-.6 2.4 0 3.6.2c1.3.2 2.6.6 3.9 1.1l4.1-2.4 5 2.8z" class="E"/><path d="M118.7 175.7v2.4l-4.8-2.8v-2.4z" class="D"/><path d="M169.4 172c-1.1 4.4-4.6 8.4-10.2 11.6-14.1 8.2-37.1 8.2-51.1 0-5.4-3.1-8.8-7.1-10-11.3v1.8.3c1.6 3.7 4.9 7.1 9.6 9.8 7.1 4.1 16.5 6.2 25.9 6.2s18.8-2.1 26-6.2c4.9-2.8 8.2-6.3 9.8-10v-.3-1.9zm-61.6 9.2c7.1 4.1 16.5 6.2 25.9 6.2s18.8-2.1 26-6.2c4.9-2.8 8.2-6.3 9.8-10v-2.1c-1.1 4.3-4.7 8.3-10.2 11.5-14.1 8.2-37.1 8.2-51.1 0-5.4-3.1-8.8-7.1-10-11.3v2.1c1.6 3.7 4.9 7 9.6 9.8zm51.5 5.3c-14.1 8.2-37.1 8.2-51.1 0-5.2-3-8.6-6.8-9.8-10.9.2 1.5.7 3.1 1.5 4.6 1.8 2.6 4.5 4.9 8 6.9 7.1 4.1 16.5 6.2 25.9 6.2s18.8-2.1 26-6.2c3.7-2.1 6.5-4.6 8.4-7.4.8-1.5 1.2-3 1.4-4.5-1.4 4.3-4.9 8.2-10.3 11.3z" class="E"/></g><path d="M-319.602 69.351l-2.8-1.6.3 101.7 2.8 1.7z" fill="#50298a"/><path d="M-171.102-16.349l-2.9-1.6-148.4 85.7 2.8 1.6z" fill="#7350ba"/><path d="M-319.602 69.351l.3 101.8 148.4-85.7-.2-101.8z" class="G"/><g class="H"><path d="M-319.602 86.551l.3 25.7 148.4-85.7-.2-25.7z"/><use href="#h"/><use href="#h" x="7.8" y="-4.5"/><use href="#i"/><use href="#i" x="7.8" y="-4.5"/><use href="#j"/><use href="#j" x="7.8" y="-4.5"/><use href="#k"/><path d="M-253.802 91.751a4.58 4.58 0 0 1 2.3-4l2-1.2c1.7-1 2.2-.1 2.2 1.3v5.4c0 1.7-.8 3-2.2 3.8l-2 1.2c-1.4.8-2.3.5-2.3-1.3v-5.2zm2.7 4.5l1.2-.7c.6-.3.9-.8.9-1.5v-4.8c0-.7-.2-.9-.8-.5l-1.3.8c-.7.4-.9 1.1-.9 1.5v4.8c-.1.8.4.6.9.4z"/><use href="#l"/><use href="#l" x="7.8" y="-4.5"/><use href="#m"/><use href="#n"/><use href="#n" x="10.9" y="-6.3"/><use href="#n" x="18.7" y="-10.8"/><use href="#o"/><use href="#p"/></g><g class="F"><path d="M-211.302 142.851l-90.2 52.1-58.2 33.6-4.2-.1 4.1-41.3-.1-26.4-.1-33.9 48-27.8 37.4-21.5 34.5-20-13.5 48.5 21.8 12.9z" fill="#120a1e"/></g><path d="M-364.102 126.751l-2.9-1.6.3 101.7 2.8 1.7z" class="H"/><g class="G"><path d="M-215.702 41.051l-2.8-1.6-148.5 85.7 2.9 1.6z"/><path d="M-215.402 142.751l-90.3 52.2-58.2 33.6v-17l-.1-24.4v-26.4l-.1-34 48-27.7 37.3-21.6 34.5-19.9 28.6-16.5.1 37.9z"/></g><g fill="#fff"><use href="#p" x="-171" y="130.4"/><use href="#j" x="-71.1" y="72.7"/><use href="#q"/><use href="#q" x="7.8" y="-4.5"/><use href="#r"/><use href="#l" x="-71.1" y="72.7"/><use href="#m" x="-78.9" y="77.2"/><use href="#m" x="-71.1" y="72.7"/><use href="#m" x="-60.2" y="66.4"/><use href="#k" x="-18" y="42.1"/><use href="#o" x="-78.9" y="77.2"/><use href="#o" x="-71.1" y="72.7"/><use href="#s"/><use href="#s" x="7.8" y="-4.5"/><path d="M-237.502 114.051a4.58 4.58 0 0 1 2.3-4l2-1.2c1.7-1 2.2-.1 2.2 1.3v5.4c0 1.7-.8 3-2.2 3.8l-2 1.2c-1.4.8-2.3.5-2.3-1.3v-5.2zm2.7 4.4l1.2-.7c.6-.3.9-.8.9-1.5v-4.8c0-.7-.2-.9-.8-.5l-1.3.8c-.7.4-.9 1.1-.9 1.5v4.8c-.1.8.5.7.9.4z"/><use href="#r" x="92.1" y="-53.2"/></g><path d="M-356.102 163.851v-7.4c0-2.8 2-6.2 4.4-7.5l7.1-4.1c2.4-1.4 4.4-.3 4.4 2.5v7.3c0 2.8-2 6.2-4.4 7.5l-7.1 4.1c-2.5 1.5-4.4.3-4.4-2.4z" fill="#ac44ee"/><path d="M-351.602 158.851c.4-.5.7-1.2.7-1.7s-.3-.9-.7-1c-.2 0-.4 0-.7.2-.7.4-1.4 1.5-1.4 2.4s.6 1.2 1.4.8c.3-.2.5-.4.7-.7zm6.1-12.2l-.7 1.2c1.5.8 2.4 2.7 2.4 5.2 0 2.6-.9 5.4-2.4 8l.7.4c1.6-2.8 2.7-6 2.7-8.9 0-3-1.1-5-2.7-5.9zm-2 3.5l-.7 1.2c1 .5 1.5 1.7 1.5 3.4s-.6 3.5-1.5 5.2l.7.4c1.1-1.9 1.8-4.1 1.8-6.1 0-2.1-.7-3.5-1.8-4.1zm-2 3.5l-.7 1.2c.4.2.7.8.7 1.5 0 .8-.3 1.6-.7 2.3l.7.4c.6-1 1-2.2 1-3.3-.1-1-.4-1.8-1-2.1zm32.7-15.7v2.7c0 2.8-2 6.2-4.4 7.6l-10.5 6c-2.4 1.4-4.4.3-4.4-2.5v-7.4c0-2.8 2-6.2 4.4-7.6l10.5-6c2.4-1.4 4.4-.3 4.4 2.5v2.7 2z" fill="#fff"/><path d="M-327.102 134.151l-1.5 3.1v5.5l-7.3 4.3v-1.3l6.2-3.6v-4.7l1.2-2.5zm0 17.4l-1.4.9-1.2-1.2v-4.6l-6.2 3.6v-1.3l7.3-4.2v5.4zm10.3-13.6v1.3l-6.2 3.6v4.6l-1.2 2.5-1.4.8 1.5-3.1v-5.5zm0-3.3v1.3l-7.3 4.3v-5.5l-1.5-1.4 1.4-.8 1.2 1.1v4.6z" fill="#50298a"/><g fill="#fff"><path d="M-356.102 142.651l40.8-23.5v-12.1l-40.8 23.6z"/><use href="#t"/></g><use href="#t" x="11.8" y="-6.9" class="G"/><g fill="#fff"><path d="M-265.902 75.951c1-.6 1.6-.8 2.4-1v1.2l-2.1 1c-1 .6-1.3 1-1.3 3.4 0 1.8.3 2.5 1.3 1.9l2.1-1.3v1.2c-.6.6-1.4 1.1-2.4 1.7-1.7 1-2.3-.2-2.3-2.7s.5-4.3 2.3-5.4z"/><use href="#u"/><use href="#v"/><path d="M-252.702 70.551c.4-.2 1-.5 1.5-.5v-3l1.3-.8v8.5l-1.1.6-.2-.4c-.3.5-.9 1.2-1.5 1.5-1.2.7-1.6-.2-1.6-2s.2-3.1 1.6-3.9zm.3 4.4c.5-.3.9-.7 1.2-1v-2.8c-.3 0-.7.2-1.2.5-.4.2-.6.6-.6 2.1 0 1.2.2 1.5.6 1.2zm3.3-8.2c0-.2.1-.3.2-.4l1-.6c.1-.1.2 0 .2.1v1c0 .2-.1.3-.2.4l-1 .6c-.1.1-.2 0-.2-.1v-1zm0 1.8l1.3-.8v5.7l-1.3.8v-5.7zm1.9-.8l.8-.8.2-1.7 1.1-.6v1.6l1.1-.6v1.2l-1.1.6v2.3c0 .8.2.9.4.9l.6-.1v.9l-1.1.7c-.7.4-1.2.2-1.2-1.4v-2.5l-.8.5v-1zm8.4-7.4c1-.6 1.6-.8 2.4-1v1.2l-2.1 1c-1 .6-1.3 1-1.3 3.4 0 1.8.3 2.5 1.3 1.9l2.1-1.3v1.2c-.6.6-1.4 1.1-2.4 1.7-1.7 1-2.3-.2-2.3-2.7 0-2.6.5-4.3 2.3-5.4zm2.9 4.3a2.83 2.83 0 0 1 1.4-2.4l1.5-.8v-.4c0-.6-.2-.6-.7-.3-.4.2-1.7 1.1-2.1 1.3v-.9c.7-.7 1.3-1.1 2.3-1.7 1.1-.6 1.8-.6 1.8.8v4l-1 .6-.3-.5c-.1.2-.7 1.1-1.5 1.6-1 .5-1.4 0-1.4-.7v-.6zm1.8-.1c.5-.3 1.1-1.1 1.1-1.1v-1.1l-1.2.8c-.3.2-.4.6-.4.8v.3c0 .5.2.4.5.3z"/><use href="#u" x="31.9" y="-18.4"/><path d="M-225.702 54.951c.4-.2 1-.5 1.5-.5v-3l1.3-.8v8.5l-1.1.6-.2-.4c-.3.5-.9 1.2-1.5 1.5-1.2.7-1.6-.2-1.6-2s.3-3.1 1.6-3.9zm.4 4.4c.5-.3.9-.7 1.2-1v-2.9c-.3 0-.7.2-1.2.5-.4.2-.6.6-.6 2.1-.1 1.3.2 1.5.6 1.3zm-133.8 149.4l1.3-.8v6c0 .6.3.4.6.2l2.3-1.4v1.4l-2.8 1.6c-.7.4-1.4.5-1.4-.7v-6.3zm7-1.9c1.7-1 2.3-.6 2.3 1.7 0 2.1-.5 3.1-2.3 4.1-1.7 1-2.3.5-2.3-1.5.1-2.4.7-3.4 2.3-4.3zm0 4.6c.7-.4 1-.7 1-2.2 0-1.6-.2-1.7-1-1.2-.8.4-1 .7-1 2.3.1 1.5.3 1.5 1 1.1z"/><use href="#u" x="-86.2" y="128.7"/><use href="#v" x="-86.2" y="128.6"/><path d="M-340.402 200.151l1-.6.3.5c.4-.6.8-1.2 1.5-1.6.6-.4 1.1-.3 1.3 0 .4-.6 1-1.3 1.8-1.8 1.1-.6 1.5 0 1.5 1.2v3.8l-1.3.8v-3.8c0-.5-.2-.7-.5-.5-.5.3-.9.6-1.2 1.2v.3 3.8l-1.3.8v-3.8c0-.5-.2-.7-.6-.5-.5.3-.8.6-1.2 1.2v4.1l-1.3.8v-5.9zm10.6-8.3l1.3-.8v7.9l-1.3.8v-7.9zm2.1.9l1.1-.6.2.4c.3-.5.9-1.2 1.5-1.5 1.2-.7 1.6.3 1.6 2s-.2 3.1-1.6 3.9c-.4.2-1 .5-1.5.5v3.2l-1.3.7v-8.6zm2.5 3.2c.4-.2.6-.6.6-2.1 0-1.3-.2-1.5-.6-1.3-.5.3-.9.7-1.2 1v2.8c.4.1.7-.1 1.2-.4zm2.6-4.6c0-.9.3-1.7 1.3-2.3 1-.5 2.3-1.3 2.6-1.2v1l-2.2 1.3c-.3.2-.4.3-.4.6v.3c0 .4.2.3.4.2l1.2-.7c.9-.5 1.3-.1 1.3.7v.6c0 1.2-.6 1.9-1.2 2.2-.9.5-2.4 1.3-2.8 1.3v-.9l2.3-1.3c.1-.1.3-.2.3-.6v-.3c0-.2-.1-.3-.3-.2l-1.2.7c-.9.5-1.4.4-1.4-.7v-.7zm4.8-4.3l1.3-.8v3.8c0 .6.2.6.5.5.5-.3.8-.6 1.2-1.2v-4.1l1.3-.8v5.7l-1 .6-.3-.5c-.5.6-.8 1.2-1.6 1.6-1.2.7-1.5-.1-1.5-1.2v-3.6zm5.2-3l1-.6.3.5c.4-.6.8-1.2 1.5-1.6.6-.4 1.1-.3 1.3 0 .4-.6 1-1.3 1.8-1.8 1.1-.6 1.5 0 1.5 1.2v3.8l-1.3.8v-3.9c0-.5-.2-.7-.5-.5-.5.3-.9.6-1.2 1.2v.3 3.8l-1.3.8v-3.8c0-.5-.2-.7-.6-.5-.5.3-.8.6-1.2 1.2v4.1l-1.3.8v-5.8z"/></g><g fill="#ac44ee"><path d="M-278.802 77.451l-85.2 109.7v-26.4l47.9-61.7zm63.2 1.5l-90.1 116-58.2 33.6v-17l119.6-154 28.6-16.5z" class="F"/></g><path d="M-157.402 147.051l47.6-27.9a2.07 2.07 0 0 0 0-3.6l-37.3-21.7-31.4 55.9h10.8c3.7 0 7.2-1 10.3-2.7z" fill="#140b21" class="F"/><g transform="translate(-479.502 -98.549)"><use href="#w" class="B"/><clipPath id="E"><use href="#w"/></clipPath><g clip-path="url(#E)" class="B"><path d="M292.7 190.3l-.2 53.5c-.8-.5-1.2-1.1-1.2-1.8l.2-53.5c0 .7.4 1.3 1.2 1.8h0z"/></g><use href="#x" class="B"/><clipPath id="F"><use href="#x"/></clipPath><g clip-path="url(#F)" class="B"><path d="M299 194l-.2 53.5-6.4-3.7.2-53.5 6.4 3.7h0z"/></g><path d="M356.2 216.9l.2-53.5v.2.1.1c0 .1-.1.2-.1.3v.1c0 .1-.1.2-.1.3-.1.1-.1.2-.2.3l-.1.1c-.1.1-.2.2-.2.3-13.9 11.3-30.8 21.1-50.2 29.2-.1.1-.3.1-.5.2h-.1c-.1 0-.2.1-.4.1h-.1c-.2 0-.3.1-.5.1h-.1-.4c-1.5.1-3.1-.2-4.2-.8l-.2 53.5c1.1.6 2.7.9 4.2.8h0 .1.4.1c.2 0 .3-.1.5-.1h.1c.1 0 .3-.1.4-.1h.1c.2 0 .3-.1.5-.2 19.4-8.1 36.3-17.9 50.2-29.2.1-.1.2-.2.2-.3l.1-.1c.1-.1.1-.2.2-.3 0-.1.1-.2.1-.3v-.1c0-.1.1-.2.1-.3v-.1-.1c-.1 0-.1-.1-.1-.2z" class="C"/><path d="M303.2 194.8l-.2 53.5c-1.5.1-3.1-.2-4.2-.8l.2-53.5c1.1.5 2.7.8 4.2.8h0z" class="B"/><path d="M348.5 157.7l6.5 3.7c1.7 1 1.7 2.6.6 3.7-13.9 11.3-30.8 21.1-50.2 29.2-1.9.8-4.7.5-6.4-.3l-6.4-3.7c-1.4-.9-1.7-2.5 0-3.4l50.1-29.1c1.6-.9 4.3-1 5.8-.1z" class="E"/><path d="M350.7 141v22.5c0 .8-.5 1.5-1.5 2.1-2 1.2-5.3 1.2-7.3 0-1-.6-1.5-1.4-1.5-2.1V141c0-3.9-1.1-6.7-3-7.8s-4.9-.6-8.3 1.3l-5.7 3.3c-8.9 5.2-16.5 18.3-16.5 28.6v22.5c0 .8-.5 1.5-1.5 2.1-1.3.8-3.1 1-4.8.8-.9-.1-1.8-.4-2.5-.8-.3-.2-.5-.3-.7-.5-.5-.5-.8-1.1-.8-1.6v-22.5c0-6.8 2.2-14.4 6.3-21.4s9.5-12.8 15.4-16.2l5.7-3.3c3.2-1.9 6.4-2.9 9.6-3.2 3.3-.3 6.5.4 9.1 1.9 2.7 1.5 4.8 3.9 6.2 6.9 1.1 2.8 1.8 6.1 1.8 9.9z" fill="#c9c9ec"/><path d="M340.2 134.3c-.6-.3-1.3-.5-2-.6 1.4 1.4 2.2 3.9 2.2 7.2v22.4c0 .8.5 1.6 1.5 2.1l1.3.6v-23.9c0-3.8-1.1-6.7-3-7.8z" fill="#b7b7d7"/><path d="M343.2 125.5c-1.8-.5-3.8-.7-5.7-.5-3.1.3-6.3 1.4-9.6 3.2l-5.7 3.3c-5.9 3.4-11.3 9.1-15.4 16.2-4.1 7-6.3 14.6-6.3 21.4v22.7c-.9-.1-1.8-.4-2.5-.8-.3-.2-.5-.3-.7-.5v-22.7c0-6.8 2.2-14.4 6.3-21.4s9.5-12.8 15.4-16.2l5.7-3.3c3.2-1.9 6.4-2.9 9.6-3.2a14.24 14.24 0 0 1 8.9 1.8z" fill="#e1e1f5"/><path d="M337.3 217.1c0-1.9-1.4-2.7-3-1.7-1.7 1-3 3.3-3 5.2 0 1.3.6 2 1.5 2.1v5.5l3.1-1.8V221c.8-1.1 1.4-2.6 1.4-3.9z" fill="#df9b09"/><path d="M401.9 239.5c.1-2.7-1.6-5.4-5.2-7.5-6.9-4-18.1-4-25 0-3.5 2-5.2 4.7-5.1 7.3v-.1 2.3c0 .3 0 .6.1.9l-1.4 1.8-2.1 1.2c-1.1.7-1.8 1.5-1.9 2.4l-.2 1.6-21.8 12.6c-.3.2-.5.5-.5.8v.3l.4 2.3v.1h0 0l-.5-2.7v-.1 2.3.1l.5 2.6v.6c0 .3-1.7.5-1.7.5s3 .5 3.6.4l2.2-.2c.6 0 1-.2 1.3-.5l1-1.2c.2-.3.7-.5 1.2-.5l.8-.1c.5-.1 1-.3 1.2-.6l.5-.7c.2-.3.8-.6 1.5-.6h1.4c.4 0 .8-.1 1.1-.3l.3-.2c.3-.2.5-.4.5-.7v-1.1c.1-.1.2-.2.3-.2l1-.6c.5-.3 1.1-.4 1.7-.2l1.8.4c.6.1 1.3 0 1.7-.2l1.6-.9c.3-.2.5-.4.5-.7v-2.3.1-.1l.7-.4c.3-.2.7-.3 1.2-.3h2.4c.4 0 .9-.1 1.2-.3l3.1-1.8.5.3c1.1.6 2.8.6 3.9 0l6.2-3.6c5.4.5 11-.5 15.2-2.9 3.4-2 5.1-4.6 5.1-7.2v-2.3c-.3 0-.3.1-.3.2z" fill="#0f0819" class="F"/><use href="#y" class="B"/><clipPath id="G"><use href="#y"/></clipPath><g clip-path="url(#G)" class="B"><path d="M390.1 237.1v2.3c0-.9-.6-1.7-1.7-2.4-2.3-1.3-5.9-1.3-8.2 0-1.1.6-1.7 1.5-1.7 2.3V237c0-.9.6-1.7 1.7-2.3 2.2-1.3 5.9-1.3 8.2 0 1.2.7 1.7 1.6 1.7 2.4h0z"/></g><use href="#z" class="B"/><clipPath id="H"><use href="#z"/></clipPath><g clip-path="url(#H)" class="B"><path d="M364.3 241.3v2.3c-.4-.8-.5-1.7-.5-2.5v-2.3c-.1.8.1 1.7.5 2.5h0z"/></g><use href="#AA" class="B"/><clipPath id="I"><use href="#AA"/></clipPath><g clip-path="url(#I)" class="B"><path d="M399.1 238.9v2.3c0 2.6-1.7 5.2-5.1 7.2-4.1 2.4-9.8 3.4-15.2 2.9V249c5.4.5 11-.5 15.2-2.9 3.4-2 5.1-4.6 5.1-7.2h0z"/></g><path d="M378.8 249v2.2l-6.2 3.6v-2.2z" class="C"/><path d="M368.7 252.6v2.2l-.4-.2v-2.3z" class="B"/><use href="#AB" class="B"/><clipPath id="J"><use href="#AB"/></clipPath><g clip-path="url(#J)" class="B"><path d="M372.6 252.6v2.3c-1.1.6-2.8.6-3.9 0v-2.3c1.1.6 2.8.6 3.9 0h0z"/></g><path d="M368.3 252.3v2.3l-3.2 1.8.1-2.3z" class="C"/><use href="#AC" class="B"/><clipPath id="K"><use href="#AC"/></clipPath><g clip-path="url(#K)" class="B"><path d="M365.2 254.1v2.3c-.3.2-.7.3-1.2.3v-2.3c.4 0 .8-.1 1.2-.3h0z"/></g><path d="M364 254.4v2.3h-2.5l.1-2.3z" class="B"/><use href="#AD" class="B"/><clipPath id="L"><use href="#AD"/></clipPath><g clip-path="url(#L)" class="B"><path d="M361.6 254.4v2.3c-.4 0-.9.1-1.2.3v-2.3c.3-.2.7-.3 1.2-.3h0z"/></g><path d="M360.4 254.7v2.2l-1.2.7v-2.2z" class="B"/><use href="#AE" class="B"/><clipPath id="M"><use href="#AE"/></clipPath><g clip-path="url(#M)" class="B"><path d="M359.2 255.4v2.3c-.3.2-.5.4-.5.7v-2.3c0-.3.2-.6.5-.7h0z"/></g><use href="#AF" class="C"/><clipPath id="N"><use href="#AF"/></clipPath><g clip-path="url(#N)" class="C"><path d="M359.7 257.4v2.3c0 .2-.2.5-.5.7v-2.3c.4-.2.5-.5.5-.7h0z"/></g><path d="M359.2 258.1v2.2l-1.5.9V259z" class="C"/><use href="#AG" class="B"/><clipPath id="O"><use href="#AG"/></clipPath><g clip-path="url(#O)" class="B"><path d="M354.2 258.8v2.3c-.6-.1-1.3 0-1.7.2V259c.4-.2 1.1-.3 1.7-.2h0z"/></g><path d="M355.9 259.2v2.3l-1.7-.4v-2.3z" class="C"/><use href="#AH" class="C"/><clipPath id="P"><use href="#AH"/></clipPath><g clip-path="url(#P)" class="C"><path d="M357.7 259v2.3c-.5.3-1.1.4-1.7.2v-2.3c.5.1 1.2 0 1.7-.2h0z"/></g><path d="M352.4 259v2.3l-1 .6v-2.3z" class="B"/><use href="#AI" class="B"/><clipPath id="Q"><use href="#AI"/></clipPath><g clip-path="url(#Q)" class="B"><path d="M351.4 259.6v2.3c-.3.2-.5.4-.5.7v-2.3c0-.2.2-.5.5-.7h0z"/></g><use href="#AJ" class="C"/><clipPath id="R"><use href="#AJ"/></clipPath><g clip-path="url(#R)" class="C"><path d="M351.1 261v2.3c0 .2-.2.5-.5.7v-2.3c.3-.2.5-.5.5-.7h0z"/></g><path d="M350.6 261.6v2.3l-.3.2v-2.3z" class="C"/><use href="#AK" class="C"/><clipPath id="S"><use href="#AK"/></clipPath><g clip-path="url(#S)" class="C"><path d="M350.3 261.8v2.3c-.3.2-.7.3-1.1.3v-2.3c.4 0 .8-.1 1.1-.3h0z"/></g><path d="M349.2 262.1v2.3h-1.3v-2.3z" class="B"/><use href="#AL" class="B"/><clipPath id="T"><use href="#AL"/></clipPath><g clip-path="url(#T)" class="B"><path d="M336 262.4v2.3-.1-2.2c0-.1 0-.1 0 0h0z"/></g><use href="#AM" class="B"/><clipPath id="U"><use href="#AM"/></clipPath><g clip-path="url(#U)" class="B"><path d="M347.9 262.1v2.3c-.6 0-1.2.2-1.5.6v-2.3a2.09 2.09 0 0 1 1.5-.6h0z"/></g><path d="M346.4 262.7v2.3l-.5.6v-2.2z" class="B"/><use href="#AN" class="C"/><clipPath id="V"><use href="#AN"/></clipPath><g clip-path="url(#V)" class="C"><path d="M345.9 263.4v2.3c-.2.3-.7.5-1.2.6V264c.6-.1 1-.3 1.2-.6h0z"/></g><path d="M344.7 264v2.2l-.7.1V264z" class="B"/><use href="#AO" class="B"/><clipPath id="W"><use href="#AO"/></clipPath><g clip-path="url(#W)" class="B"><path d="M344 264v2.3c-.5.1-.9.3-1.2.5v-2.3c.2-.2.6-.4 1.2-.5h0z"/></g><g class="B"><path d="M336.5 265v2.3l-.5-2.7v-2.2zm6.3-.4v2.2l-1 1.3v-2.3z"/><use href="#AP"/></g><clipPath id="X"><use href="#AP"/></clipPath><g clip-path="url(#X)" class="C"><path d="M341.8 265.8v2.3c-.2.3-.7.5-1.3.5v-2.3c.6 0 1.1-.2 1.3-.5h0z"/></g><path d="M340.5 266.3v2.3l-2.2.2v-2.3z" class="C"/><use href="#AQ" class="C"/><clipPath id="Y"><use href="#AQ"/></clipPath><g clip-path="url(#Y)" class="C"><path d="M338.3 266.5v2.3c-.5 0-1-.1-1.4-.3-.3-.2-.5-.4-.5-.7v-2.3c0 .3.2.5.5.7.4.2.9.3 1.4.3h0z"/></g><path d="M393.9 231.6c-6.9-4-18.1-4-25 0-4.5 2.6-6.1 6.3-4.6 9.7l-1.8 2.5-2.1 1.2c-1.1.7-1.8 1.5-1.9 2.4l-.2 1.6-21.7 12.6c-.3.2-.5.5-.5.8v.3l.4 2.3v.1.5c0 .3.2.5.5.7s.8.3 1.4.3l2.2-.2c.6 0 1-.2 1.3-.5l1-1.2c.2-.3.7-.5 1.2-.5l.8-.1c.5-.1 1-.3 1.2-.6l.5-.7c.2-.3.8-.6 1.5-.6h1.4c.4 0 .8-.1 1.1-.3l.3-.2c.4-.2.6-.6.4-.9l-.1-.2c-.1-.3 0-.7.4-.9l1-.6c.5-.3 1.1-.4 1.7-.2l1.8.4c.6.1 1.3 0 1.7-.2l1.6-.9c.6-.4.6-1 0-1.3-.6-.4-.6-1 0-1.4l1.2-.7c.3-.2.7-.3 1.2-.3h2.4c.4 0 .9-.1 1.2-.3l3.1-1.8.5.3c1.1.6 2.8.6 3.9 0l6.2-3.6c5.4.5 11-.5 15.2-2.9 6.6-4.1 6.5-10.6-.4-14.6zm-5.4 7.9c-2.2 1.3-5.9 1.3-8.2 0s-2.3-3.4 0-4.7c2.2-1.3 5.9-1.3 8.2 0 2.2 1.3 2.2 3.4 0 4.7z" fill="#ffe561"/><path d="M338.1 265.6c-.3 0-.6-.1-.7-.2h-.1v-.5-.2l-.4-2.4 22-12.8.3-2c.1-.6.6-1.3 1.5-1.8l2.3-1.3 2.2-3-.2-.5c-1.3-3.1.3-6.3 4.3-8.6 3.2-1.9 7.5-2.9 12.1-2.9s8.9 1 12.1 2.9c3.1 1.8 4.8 4.1 4.8 6.5s-1.7 4.7-4.7 6.5c-3.2 1.9-7.5 2.9-12.1 2.9h0c-.9 0-1.7 0-2.6-.1h-.3l-6.4 3.7c-.4.2-.9.3-1.5.3s-1.1-.1-1.5-.3l-.9-.5-3.6 2.1c-.2.1-.4.2-.7.2h-2.4c-.6 0-1.2.1-1.6.4l-1.2.7c-.6.3-.9.9-.9 1.4s.3 1 .8 1.4l-1.4.8c-.2.1-.4.2-.7.2h-.4l-1.8-.4c-.2-.1-.5-.1-.8-.1-.6 0-1.2.1-1.6.4l-1 .6c-.8.5-1.1 1.3-.8 2h0l-.3.2c-.2.1-.4.2-.7.2h-1.4c-.9 0-1.7.4-2.1.9l-.5.7s-.2.2-.6.2l-.8.1c-.7.1-1.4.4-1.7.9l-1 1.2c0 .1-.3.2-.7.2l-2.2.2c0-.2 0-.2-.1-.2zm46.3-32.7c-1.7 0-3.3.4-4.5 1.1-1.4.8-2.1 1.9-2.1 3.1s.8 2.3 2.1 3.1c1.2.7 2.8 1.1 4.5 1.1s3.3-.4 4.5-1.1c1.4-.8 2.1-1.9 2.1-3.1s-.8-2.3-2.1-3.1c-1.3-.7-2.9-1.1-4.5-1.1z" class="E"/><path d="M378.6 248.1l-6.4 3.7c-.4.2-.9.3-1.5.3s-1.1-.1-1.5-.3l-.9-.5-3.6 2.1c-.2.1-.4.2-.7.2h-2.4c-.6 0-1.2.1-1.6.4l-1.2.7c-.6.3-.9.9-.9 1.4s.3 1 .8 1.4l-1.4.8c-.2.1-.4.2-.7.2h-.4l-1.8-.4c-.2-.1-.5-.1-.8-.1-.6 0-1.2.1-1.6.4l-1 .6c-.8.5-1.1 1.3-.8 2h0l-.3.2c-.2.1-.4.2-.7.2h-1.4c-.9 0-1.7.4-2.1.9l-.5.7s-.2.2-.6.2l-.8.1c-.7.1-1.4.4-1.7.9l-1 1.2c0 .1-.3.2-.7.2l-2.2.2h-.2c-.3 0-.6-.1-.7-.2h-.1v-.5-.2l-.4-2.4 22-12.8.3-2c.1-.6.6-1.3 1.5-1.8l2.3-1.3 2.2-3 3.5.3 9.1 4.2.9 2z" fill="#ffe561"/><path d="M368.1 246.2c0 .2-.1.4-.4.6 0 0-.1 0-.1.1l-31.2 18-.3-1.5-.1-.8 29.4-17c.6-.3 1.6-.3 2.2 0 .4.2.5.4.5.6z" class="B"/><path d="M367.7 246.8l-31.3 18.1-.3-1.5 29.1-16.8c.6-.3 1.6-.3 2.2 0 .2.1.3.1.3.2zm16.7-13c1.5 0 3 .3 4.1 1 2.3 1.3 2.3 3.4 0 4.7-1.1.7-2.6 1-4.1 1s-3-.3-4.1-1c-2.3-1.3-2.3-3.4 0-4.7 1.1-.7 2.6-1 4.1-1h0zm0-2.8c-2 0-4 .5-5.5 1.4-2 1.1-3.1 2.9-3.1 4.8s1.1 3.7 3.1 4.8c1.5.9 3.5 1.4 5.5 1.4s4-.5 5.5-1.4c2-1.1 3.1-2.9 3.1-4.8s-1.1-3.7-3.1-4.8c-1.6-.9-3.5-1.4-5.5-1.4h0z" class="C"/></g></g><g transform="matrix(.630072 .095995 -.105185 .690392 -55.530925 -46.181486)" transform-origin="256.012px 309.5px"><path d="M338 415.2l109.2-63c2.3-1.3 2.3-4.7 0-6L330.9 279l-28.6 140.8h18.3c6.1 0 12.1-1.6 17.4-4.6z" fill="#1d0e35" class="F"/><path d="M413.1 345.5v14.1l-96.4 56 .1-14.1zm7.6-10.5v14.1c0 3.8-2.5 7.6-7.5 10.6v-14.1c4.9-3 7.4-6.8 7.5-10.6z" class="I"/><g fill="#d4ced8"><path d="M280.1 401.5l-.1 14.1L70.7 294.8l.1-14.1z"/><path d="M63.1 284.1V270c0 3.9 2.5 7.8 7.7 10.7v14.1c-5.2-3-7.7-6.9-7.7-10.7z"/></g><path d="M316.8 401.5v14.1c-10.1 5.9-26.5 5.9-36.7 0v-14.1c10.1 5.9 26.6 5.9 36.7 0z" fill="#e0dde1"/><path d="M413 324.3c10.2 5.9 10.2 15.4.1 21.3l-96.3 56c-10.1 5.9-26.5 5.9-36.7 0L70.8 280.7c-10.2-5.9-10.2-15.4-.1-21.3l96.3-56c10.1-5.9 26.5-5.9 36.7 0L413 324.3z" class="I"/><path d="M413 324.3l-18.4-10.6-133.4 77 18.8 10.9c10.2 5.9 26.6 5.9 36.7 0l96.3-56c10.2-5.9 10.2-15.5 0-21.3zM203.7 203.4c-10.2-5.9-26.6-5.9-36.7 0l-96.3 56c-10.1 5.9-10 15.4.1 21.3l6.4 3.7 133.4-77-6.9-4z" class="J"/><linearGradient id="Z" gradientUnits="userSpaceOnUse" x1="107.511" y1="231.091" x2="380.103" y2="375.301"><stop offset=".076" stop-color="#ac44ee"/><stop offset=".078" stop-color="#ac44ee"/><stop offset=".258" stop-color="#8937cb"/><stop offset=".44" stop-color="#6e2caf"/><stop offset=".624" stop-color="#5b259c"/><stop offset=".809" stop-color="#502090"/><stop offset="1" stop-color="#4c1f8c"/></linearGradient><path d="M394.6 313.6l-133.4 77-142-82-18.4-10.6-9.2-5.3-14.4-8.3 33.7-19.5 26.1-15 73.6-42.5 14.4 8.3z" fill="url(#Z)"/><path d="M225 215.7l-133.4 77-14.4-8.3 33.7-19.5 26.1-15 73.6-42.5z" class="H"/><g class="J"><path d="M121.9 268.1l-1.7.3c-.1-.1-.2-.2-.4-.2-.2-.1-.3-.2-.5-.3l.5-1c.1-.1-.1-.3-.3-.3l-2.3-.4c-.2 0-.5 0-.5.2l-.5 1c-.4 0-.7.1-1.1.2l-1.3-.8c-.2-.1-.5-.1-.6 0l-1.7 1c-.2.1-.2.3 0 .4l1.3.8c-.2.2-.3.4-.3.6l-1.8.3c-.2 0-.4.2-.3.3l.6 1.3c.1.1.3.2.5.2l1.7-.3c.1.1.3.2.4.3s.3.1.4.2l-.5 1c-.1.1.1.3.3.3l2.3.4c.2 0 .5 0 .5-.2l.4-1c.4 0 .9-.1 1.3-.2l1.2.7c.2.1.5.1.6 0l1.7-1c.2-.1.2-.3 0-.4l-1.2-.7a1.08 1.08 0 0 0 .3-.7l1.7-.3c.2 0 .4-.2.3-.3l-.6-1.3c.1 0-.2-.1-.4-.1zm-3.7 2.7c-.8.5-2.1.5-2.9 0s-.8-1.2 0-1.7 2.1-.5 2.9 0 .8 1.2 0 1.7zm34.6-27.8c-3.3 1.9-4.4 4.6-3.3 7.1l1.3-.2c-1-2.2 0-4.6 2.9-6.3 3-1.7 7.2-2.3 11-1.7l.3-.7c-4.1-.7-8.8-.1-12.2 1.8zm2.9 1.6c-2.3 1.3-3 3.2-2.2 4.8l1.3-.2c-.7-1.4 0-3 1.9-4.1s4.6-1.5 7.1-1.1l.3-.7c-2.9-.4-6.2 0-8.4 1.3zm2.8 1.7c-1.2.7-1.6 1.7-1.2 2.6l1.3-.2c-.3-.6 0-1.4.9-1.9s2.1-.7 3.2-.5l.3-.7c-1.5-.3-3.3 0-4.5.7zm4.8 2.7c-.7.4-1.8.4-2.5 0-.2-.1-.4-.3-.4-.4-.2-.3 0-.7.4-1 .5-.3 1.1-.3 1.7-.3.3 0 .6.1.8.3.6.4.6 1 0 1.4zm-76.5 34.9c-.1.3-.4.6-.8.9l-.8-.4c.9-.5.7-1 .3-1.5l.6-.4 8.3 4.8-.9.5-6.7-3.9z"/><use href="#AR"/><path d="M95.7 280.1l1.1.7-.9.5-1.1-.7.9-.5zm4.5 2.6l1.1.7-.9.5-1.1-.7.9-.5z"/><use href="#AR" x="7.8" y="-3.8"/><path d="M102.4 276.2c-1.3-.7-1.5-1.6-.2-2.3s2.7-.6 4 .1l4.3 2.5c1.3.7 1.5 1.6.2 2.3s-2.7.6-4-.1l-4.3-2.5zm5.3 1.9c.7.4 1.5.5 2.2.1s.5-.8-.2-1.3l-4.4-2.5c-.8-.4-1.5-.5-2.2-.1s-.5.8.2 1.3l4.4 2.5zm82-47.7l1.7 1-.9.5-1.7-1-2.7 1.5-.8-.5-3.2-4.8 1-.6 5.8 3.3.7-.4.8.5-.7.5zm-3.5 1l1.8-1.1-4-2.3 2.2 3.4zm1.9-6.8l-2.8 1.6-.8-.5 3.7-2.2.8.5 5.3 5.5-.9.5-5.3-5.4zm4.6-2.1l2.6 1.5c.8.5 1 1 .2 1.5s-1.7.4-2.5-.1l-2.6-1.5c-.8-.5-1-1-.2-1.5.8-.4 1.7-.3 2.5.1zm-1.8 1l2.7 1.6c.4.3.9.3 1.3.1s.3-.5-.2-.8l-2.7-1.6c-.4-.3-.9-.3-1.3-.1-.4.3-.3.6.2.8zm3.2-3.3l5 6.7-.6.3-5-6.7.6-.3zm5.7 1.7l2.6 1.5c.8.5 1 1 .2 1.5s-1.7.4-2.5-.1l-2.6-1.5c-.8-.5-.9-1-.1-1.4.8-.5 1.7-.4 2.4 0zM198 223l2.7 1.5c.4.3.9.3 1.3.1s.3-.5-.2-.8l-2.7-1.5c-.4-.3-.9-.3-1.3-.1-.3.2-.2.5.2.8zm12.4.2l-11.2-6.5 6.4-3.7 11.2 6.5-6.4 3.7zm-9.5-6.5l9.5 5.5 4.6-2.7-9.5-5.5-4.6 2.7z"/><path d="M215.9 219.5l-5.5 3.2-4.6-2.7 5.5-3.1zm-11.6-5.2l-2.8 1.7-1.8-1 2.9-1.7zm-27 27.2l-3 1.6-5.6-3.2 3-1.7zm4.2-2.5l-2.9 1.7-7.7-4.4 2.9-1.7zm4.2-2.4l-2.9 1.7-11.4-6.6 2.9-1.7z"/></g><path d="M150.7 229.9l-23.8 13.7c-1.7 1-4.3 1-6 0h0c-1.7-1-1.7-2.5 0-3.5l23.8-13.7c1.7-1 4.3-1 6 0h0c1.7 1 1.7 2.6 0 3.5zm11.8-10.2c-2.3-1.4-6.1-1.4-8.5 0-2.3 1.4-2.3 3.5 0 4.9s6.1 1.4 8.5 0c2.3-1.4 2.3-3.6 0-4.9zm-46.3 26.7c-1.2-.7-3.2-.7-4.4 0s-1.2 1.8 0 2.5 3.2.7 4.4 0 1.2-1.8 0-2.5zm-7.5 4.3c-1.2-.7-3.2-.7-4.4 0s-1.2 1.8 0 2.5 3.2.7 4.4 0c1.2-.6 1.2-1.8 0-2.5z" fill="#3d2f43"/><path d="M337.7 377.1c-1 0-1.9-.2-2.7-.7l-12.5-7.2c-.9-.5-1.4-1.2-1.4-2s.5-1.5 1.4-2l28.4-16.4c1.5-.9 3.9-.9 5.4 0l12.5 7.2c.9.5 1.4 1.2 1.4 2s-.5 1.5-1.4 2h0l-28.4 16.4c-.8.5-1.8.7-2.7.7zm15.9-27.3c-.7 0-1.3.1-1.8.4l-28.4 16.4c-.4.2-.5.4-.5.5s.1.3.5.5l12.5 7.2c1 .6 2.7.6 3.6 0l28.4-16.4c.4-.2.5-.4.5-.5s-.1-.3-.5-.5l-12.5-7.2c-.5-.2-1.2-.4-1.8-.4zm18.6 22.4l-6.6 3.8 8 3.8v-8.5z" class="I"/><path d="M361.2 378.5v8.5l12.4-7.2-8-3.8z" class="J"/><path d="M372.2 372.2v6.9l-11 6.4v-7z" fill="#10191b"/><path d="M164.2 234.2l-26 85.4 31.2 18 39.1-129zm-45 74.4l17.8-58.7-26.1 15-10.1 33.1z" fill="#242a31"/></g><path d="M215.534 263.271c-.303 0-.569-.223-.648-.545-1.4-5.67-3.566-11.078-6.43-16.043-.199-.343-.106-.796.206-1.014s.726-.115.924.226c2.936 5.092 5.159 10.637 6.594 16.45.097.393-.115.794-.472.899a.57.57 0 0 1-.174.027zm1.508 14.929c-.016 0-.029-.001-.045-.001-.369-.027-.649-.376-.625-.782l.072-2.444c-.006-2.514-.209-5.023-.604-7.5-.088-.557.41-1.01.894-.813.224.091.387.306.428.564.414 2.643.623 5.251.623 7.747l-.075 2.54c-.022.388-.314.689-.668.689zm-41.012-24.379c-.347 0-.635-.292-.666-.671l-.153-3.777c0-7.127 1.754-13.014 4.937-16.578.366-.398.989-.215 1.121.332.06.247-.001.51-.162.695-2.937 3.288-4.554 8.81-4.554 15.549 0 1.19.05 2.417.148 3.65.033.404-.24.761-.609.796-.023.004-.041.004-.062.004zm29.65-11.884c-.201 0-.391-.098-.518-.27-2.815-3.771-5.84-6.677-8.994-8.637-4.454-2.765-8.634-3.297-12.082-1.541-.46.258-1.003-.126-.976-.692.012-.282.173-.532.41-.642 3.859-1.963 8.459-1.413 13.307 1.595 3.3 2.05 6.453 5.073 9.371 8.986.236.314.193.777-.094 1.034-.118.109-.268.169-.424.167zm-25.028 12.447c-.359.001-.654-.31-.67-.704l-.026-1.36c0-5.219 1.167-9.478 3.374-12.314.335-.431.97-.303 1.143.23.081.248.034.523-.122.723-1.997 2.568-3.053 6.497-3.053 11.361l.026 1.299c.016.405-.272.747-.642.764-.011.001-.021.001-.03.001zm5.26-15.129c-.225 0-.445-.124-.571-.35a.78.78 0 0 1 .22-1.011c1.678-1.129 3.601-1.588 5.691-1.359.37.04.64.4.602.804s-.368.692-.733.658c-1.807-.197-3.437.191-4.859 1.149-.109.074-.229.109-.35.109zm29.622 48.396c-.274.002-.519-.18-.622-.46l-.786-2.13c-1.596-4.332-2.435-8.821-2.428-12.981 0-12.458-6.967-26.877-15.529-32.193-.447-.283-.448-.989 0-1.273.204-.129.456-.13.661-.006 8.939 5.549 16.21 20.54 16.21 33.419-.007 4.03.8 8.326 2.332 12.485l.785 2.13c.14.376-.027.805-.37.956-.08.036-.166.053-.253.053zm-30.78-8.443c-.282.002-.533-.191-.631-.482-3.381-10.115-4.159-21.346-4.165-21.46-.027-.404.252-.756.62-.786.322-.03.691.274.718.679.006.11.772 11.144 4.088 21.06.128.382-.051.805-.4.944a.59.59 0 0 1-.23.045zm26.834 13.399c-.28 0-.531-.191-.629-.479l-1.787-5.277c-1.887-5.571-2.884-11.156-2.884-16.151v-5.776c0-6.854-4.493-15.219-10.014-18.647-2.58-1.601-4.96-1.868-6.706-.752-1.709 1.09-2.649 3.413-2.649 6.542v5.1c0 7.482 1.55 15.86 4.485 24.23l2.213 6.322c.185.529-.221 1.078-.73.989a.69.69 0 0 1-.522-.463l-2.213-6.322c-2.992-8.536-4.574-17.096-4.574-24.758v-5.099c0-3.673 1.177-6.447 3.315-7.812 2.178-1.391 5.034-1.124 8.04.744 5.897 3.661 10.696 12.599 10.696 19.926v5.776c0 4.822.969 10.23 2.8 15.639l1.788 5.277c.13.381-.047.804-.396.945-.078.031-.155.046-.233.046zm-5.908 2.103c-.296 0-.557-.213-.642-.525l-.934-3.456c-1.776-6.563-2.675-12.88-2.675-18.774v-8.937c0-3.683-2.416-8.18-5.385-10.022-1.327-.824-2.541-.974-3.408-.418-.847.543-1.314 1.725-1.314 3.332 0 9.92 2.758 21.368 7.764 32.232l1.884 4.089c.168.362.035.805-.296.987s-.735.037-.901-.325l-1.884-4.088c-5.1-11.067-7.908-22.749-7.908-32.896 0-2.152.703-3.786 1.982-4.601 1.296-.829 2.985-.684 4.742.408 3.344 2.076 6.065 7.146 6.065 11.301v8.936c0 5.755.881 11.93 2.619 18.357l.935 3.456c.106.389-.097.799-.452.914-.064.022-.129.03-.192.03zm-7.516-15.502c-.315 0-.587-.242-.654-.58l-.617-3.143c-.59-3.014-.89-6.107-.89-9.189v-8.28c0-.566.559-.918 1.005-.636a.75.75 0 0 1 .335.636v8.28a46.12 46.12 0 0 0 .863 8.881l.616 3.142c.09.46-.229.892-.658.889zm-20.679-15.937c-.343 0-.63-.287-.665-.663l-.39-4.297c-.036-.403.232-.762.599-.804.4-.026.698.255.734.659l.39 4.297c.037.404-.231.764-.599.803-.025.003-.047.005-.069.005z" fill="#fff"/><defs ><path id="b" d="M-347.055 139.079v.3c0 .4 0 .7-.1 1.1-.2 1.5-.6 3-1.4 4.5-1.6 3.2-4.7 6.3-9.1 8.8-14 8.1-36.5 8.1-50.4 0-4.2-2.4-7.1-5.3-8.7-8.3-.8-1.5-1.3-3-1.5-4.6-.1-.4-.1-.8-.1-1.2v-.3-1.8-.9-2.1-4.6c0 5.2 3.5 10.5 10.4 14.5 13.9 8.1 36.4 8.1 50.4 0 7-4 10.5-9.4 10.5-14.7v4.5 2.1.8 1.9z"/><path id="c" d="M-407.755 115.279c-14 8.1-14 21.1-.2 29.2 13.9 8.1 36.4 8.1 50.4 0s14-21.1.2-29.2c-13.9-8.1-36.5-8.1-50.4 0z"/><path id="d" d="M135.5 162.7v-2.4c0-.2 0-.3.1-.4.1-.3.4-.5.8-.8.7-.4 1.5-.5 2.4-.5.9.1 2 .5 3.3 1.2 1.2.7 2.3 1.5 3.2 2.3a12.83 12.83 0 0 1 2 2.2v2.4c-.5-.7-1.2-1.4-2-2.2-.9-.8-1.9-1.6-3.2-2.3-1.2-.7-2.3-1.1-3.3-1.2-.9-.1-1.8.1-2.4.5-.4.2-.7.5-.8.8 0 .1-.1.3-.1.4z"/><path id="e" d="M132.2 168.1v2.4c0-.2 0-.4-.1-.7-.2-.4-.4-.9-.8-1.4s-.9-1.2-1.5-1.8l-1.5-2c-.4-.7-.7-1.4-.8-2.1v-.5-2.4.5c.1.7.4 1.4.8 2.1a9.51 9.51 0 0 0 1.5 2l1.5 1.8c.4.5.7 1 .8 1.4 0 .3.1.5.1.7z"/><path id="f" d="M118.4 170.2v2.4c-1.7-1.2-3-2.2-3.7-3.1l-1.6-2.1V165c.3.5.8 1.2 1.6 2.1s2 2 3.7 3.1z"/><path id="g" d="M140.2 168.9v2.4c0 .6-.2 1.3-.6 1.9-.4.7-1.2 1.4-2.4 2.1-.8.4-1.6.8-2.6 1.1s-2.1.5-3.2.5c-1.2.1-2.4 0-3.8-.3-1.3-.2-2.7-.7-4.2-1.3v-2.4c1.5.6 2.9 1 4.2 1.3 1.3.2 2.6.3 3.8.3 1.2-.1 2.3-.2 3.2-.5a12.7 12.7 0 0 0 2.6-1.1c1.1-.7 1.9-1.3 2.4-2.1.4-.6.6-1.3.6-1.9z"/><path id="h" d="M-311.602 125.151a4.58 4.58 0 0 1 2.3-4l2-1.2c1.7-1 2.2-.1 2.2 1.3v5.4c0 1.7-.8 3-2.2 3.8l-2 1.2c-1.4.8-2.3.5-2.3-1.3v-5.2zm2.7 4.4l1.2-.7c.6-.3.9-.8.9-1.5v-4.8c0-.7-.2-.9-.8-.5l-1.3.8c-.7.4-.9 1.1-.9 1.5v4.8c0 .8.5.7.9.4z"/><path id="i" d="M-296.002 116.051a4.58 4.58 0 0 1 2.3-4l2-1.2c1.7-1 2.2-.1 2.2 1.3v5.4c0 1.7-.8 3-2.2 3.8l-2 1.2c-1.4.8-2.3.5-2.3-1.3v-5.2zm2.7 4.5l1.2-.7c.6-.3.9-.8.9-1.5v-4.8c0-.7-.2-.9-.8-.5l-1.3.8c-.7.4-.9 1.1-.9 1.5v4.8c0 .8.5.7.9.4z"/><path id="j" d="M-277.202 105.251a4.58 4.58 0 0 1 2.3-4l2-1.2c1.7-1 2.2-.1 2.2 1.3v5.4c0 1.7-.8 3-2.2 3.8l-2 1.2c-1.4.8-2.3.5-2.3-1.3v-5.2zm2.6 4.5l1.2-.7c.6-.3.9-.8.9-1.5v-4.8c0-.7-.2-.9-.8-.5l-1.3.8c-.7.4-.9 1.1-.9 1.5v4.8c0 .8.5.7.9.4z"/><path id="k" d="M-261.602 96.251a4.58 4.58 0 0 1 2.3-4l2-1.2c1.7-1 2.2-.1 2.2 1.3v5.4c0 1.7-.8 3-2.2 3.8l-2 1.2c-1.4.8-2.3.5-2.3-1.3v-5.2zm2.6 4.5l1.2-.7c.6-.3.9-.8.9-1.5v-4.8c0-.7-.2-.9-.8-.5l-1.3.8c-.7.4-.9 1.1-.9 1.5v4.8c0 .8.5.6.9.4z"/><path id="l" d="M-242.902 85.451a4.58 4.58 0 0 1 2.3-4l2-1.2c1.7-1 2.2-.1 2.2 1.3v5.4c0 1.7-.8 3-2.2 3.8l-2 1.2c-1.4.8-2.3.5-2.3-1.3v-5.2zm2.7 4.5l1.2-.7c.6-.3.9-.8.9-1.5v-4.8c0-.7-.2-.9-.8-.5l-1.3.8c-.7.4-.9 1.1-.9 1.5v4.8c-.1.8.5.6.9.4z"/><path id="m" d="M-227.302 76.451a4.58 4.58 0 0 1 2.3-4l2-1.2c1.7-1 2.2-.1 2.2 1.3v5.4c0 1.7-.8 3-2.2 3.8l-2 1.2c-1.4.8-2.3.5-2.3-1.3v-5.2zm2.7 4.5l1.2-.7c.6-.3.9-.8.9-1.5v-4.8c0-.7-.2-.9-.8-.5l-1.3.8c-.7.4-.9 1.1-.9 1.5v4.8c0 .8.5.6.9.4z"/><path id="n" d="M-219.502 71.951a4.58 4.58 0 0 1 2.3-4l2-1.2c1.7-1 2.2-.1 2.2 1.3v5.4c0 1.7-.8 3-2.2 3.8l-2 1.2c-1.4.8-2.3.5-2.3-1.3v-5.2zm2.7 4.5l1.2-.7c.6-.3.9-.8.9-1.5v-4.8c0-.7-.2-.9-.8-.5l-1.3.8c-.7.4-.9 1.1-.9 1.5v4.8c0 .7.5.6.9.4z"/><path id="o" d="M-192.902 56.651a4.58 4.58 0 0 1 2.3-4l2-1.2c1.7-1 2.2-.1 2.2 1.3v5.4c0 1.7-.8 3-2.2 3.8l-2 1.2c-1.4.8-2.3.5-2.3-1.3v-5.2zm2.6 4.5l1.2-.7c.6-.3.9-.8.9-1.5v-4.8c0-.7-.2-.9-.8-.5l-1.3.8c-.7.4-.9 1.1-.9 1.5v4.8c0 .7.5.6.9.4z"/><path id="p" d="M-185.102 52.151a4.58 4.58 0 0 1 2.3-4l2-1.2c1.7-1 2.2-.1 2.2 1.3v5.4c0 1.7-.8 3-2.2 3.8l-2 1.2c-1.4.8-2.3.5-2.3-1.3v-5.2zm2.6 4.4l1.2-.7c.6-.3.9-.8.9-1.5v-4.8c0-.7-.2-.9-.8-.5l-1.3.8c-.7.4-.9 1.1-.9 1.5v4.8c0 .8.5.7.9.4z"/><path id="q" d="M-340.502 173.451a4.58 4.58 0 0 1 2.3-4l2-1.2c1.7-1 2.2-.1 2.2 1.3v5.4c0 1.7-.8 3-2.2 3.8l-2 1.2c-1.4.8-2.3.5-2.3-1.3v-5.2zm2.7 4.5l1.2-.7c.6-.3.9-.8.9-1.5v-4.8c0-.7-.2-.9-.8-.5l-1.3.8c-.7.4-.9 1.1-.9 1.5v4.8c-.1.8.4.7.9.4z"/><path id="r" d="M-321.802 162.651a4.58 4.58 0 0 1 2.3-4l2-1.2c1.7-1 2.2-.1 2.2 1.3v5.4c0 1.7-.8 3-2.2 3.8l-2 1.2c-1.4.8-2.3.5-2.3-1.3v-5.2zm2.7 4.5l1.2-.7c.6-.3.9-.8.9-1.5v-4.8c0-.7-.2-.9-.8-.5l-1.3.8c-.7.4-.9 1.1-.9 1.5v4.8c-.1.8.5.7.9.4z"/><path id="s" d="M-253.102 123.051a4.58 4.58 0 0 1 2.3-4l2-1.2c1.7-1 2.2-.1 2.2 1.3v5.4c0 1.7-.8 3-2.2 3.8l-2 1.2c-1.4.8-2.3.5-2.3-1.3v-5.2zm2.7 4.5l1.2-.7c.6-.3.9-.8.9-1.5v-4.8c0-.7-.2-.9-.8-.5l-1.3.8c-.7.4-.9 1.1-.9 1.5v4.8c-.1.7.4.6.9.4z"/><path id="t" d="M-234.802 138.651c0 5.1-3.6 11.3-8 13.9-4.4 2.5-8 .5-8-4.7 0-5.1 3.6-11.3 8-13.9 4.4-2.5 8-.4 8 4.7z"/><path id="u" d="M-262.802 76.451l1.1-.6.2.6a4.28 4.28 0 0 1 1.4-1.6c.2-.1.4-.2.6-.2v1.5c-.1.1-.4.2-.7.4-.5.3-.9.6-1.3 1.4v3.7l-1.3.8v-6z"/><path id="v" d="M-257.002 73.151c1.4-.8 2.1-1 2.1.9 0 1-.5 1.7-1.4 2.2l-1.6.9c0 1 .3.9 1 .5.8-.4 1.1-.6 1.8-1.2v1c-.7.7-1.8 1.3-2.5 1.8-1.3.7-1.6.1-1.6-2 0-2.5.6-3.2 2.2-4.1zm.3 2.2c.3-.2.4-.4.4-.7 0-.7-.1-.8-.7-.4-.7.4-.9.6-.9 1.8l1.2-.7z"/><path id="w" d="M291.3 242l.2-53.5c0 .6.4 1.3 1.2 1.8l-.2 53.5c-.7-.5-1.2-1.2-1.2-1.8z"/><path id="x" d="M299 194l-.2 53.5-6.4-3.7.2-53.5 6.4 3.7z"/><path id="y" d="M390.1 237.1v2.3c0-.9-.6-1.7-1.7-2.4-2.3-1.3-5.9-1.3-8.2 0-1.1.6-1.7 1.5-1.7 2.3V237c0-.9.6-1.7 1.7-2.3 2.2-1.3 5.9-1.3 8.2 0 1.2.7 1.7 1.6 1.7 2.4z"/><path id="z" d="M363.7 241v-2.3c0 .8.2 1.7.5 2.5v2.3c-.3-.8-.5-1.6-.5-2.5z"/><path id="AA" d="M399.1 238.9v2.3c0 2.6-1.7 5.2-5.1 7.2-4.1 2.4-9.8 3.4-15.2 2.9V249c5.4.5 11-.5 15.2-2.9 3.4-2 5.1-4.6 5.1-7.2z"/><path id="AB" d="M372.6 252.6v2.3c-1.1.6-2.8.6-3.9 0v-2.3c1.1.6 2.8.6 3.9 0z"/><path id="AC" d="M365.2 254.1v2.3c-.3.2-.7.3-1.2.3v-2.3c.4 0 .8-.1 1.2-.3z"/><path id="AD" d="M361.6 254.4v2.3c-.4 0-.9.1-1.2.3v-2.3c.3-.2.7-.3 1.2-.3z"/><path id="AE" d="M358.7 258.3V256c0-.2.2-.5.5-.7v2.3c-.3.2-.5.5-.5.7z"/><path id="AF" d="M359.7 257.4v2.3c0 .2-.2.5-.5.7v-2.3c.4-.2.5-.5.5-.7z"/><path id="AG" d="M354.2 258.8v2.3c-.6-.1-1.3 0-1.7.2V259c.4-.2 1.1-.3 1.7-.2z"/><path id="AH" d="M357.7 259v2.3c-.5.3-1.1.4-1.7.2v-2.3c.5.1 1.2 0 1.7-.2z"/><path id="AI" d="M350.9 262.6v-2.3c0-.2.2-.5.5-.7v2.3c-.3.2-.5.4-.5.7z"/><path id="AJ" d="M351.1 261v2.3c0 .2-.2.5-.5.7v-2.3c.3-.2.5-.5.5-.7z"/><path id="AK" d="M350.3 261.8v2.3c-.3.2-.7.3-1.1.3v-2.3c.4 0 .8-.1 1.1-.3z"/><path id="AL" d="M336 264.5v-2.3.1 2.2c0 .1 0 .1 0 0z"/><path id="AM" d="M347.9 262.1v2.3c-.6 0-1.2.2-1.5.6v-2.3a2.09 2.09 0 0 1 1.5-.6z"/><path id="AN" d="M345.9 263.4v2.3c-.2.3-.7.5-1.2.6V264c.6-.1 1-.3 1.2-.6z"/><path id="AO" d="M344 264v2.3c-.5.1-.9.3-1.2.5v-2.3c.2-.2.6-.4 1.2-.5z"/><path id="AP" d="M341.8 265.8v2.3c-.2.3-.7.5-1.3.5v-2.3c.6 0 1.1-.2 1.3-.5z"/><path id="AQ" d="M336.5 267.8v-2.3c0 .3.2.5.5.7s.8.3 1.4.3v2.3c-.5 0-1-.1-1.4-.3s-.5-.4-.5-.7z"/><path id="AR" d="M89.5 282.9c-1.3-.7-1.5-1.6-.2-2.3s2.7-.6 4 .1l4.3 2.5c1.3.7 1.5 1.6.2 2.3s-2.7.6-4-.1l-4.3-2.5zm5.2 2c.7.4 1.5.5 2.2.1s.5-.8-.2-1.3l-4.4-2.5c-.8-.4-1.5-.5-2.2-.1s-.5.8.2 1.3l4.4 2.5z"/></defs></svg>