<svg xmlns="http://www.w3.org/2000/svg" viewBox="41.178 55.69 417.644 421.848" xmlns:v="https://vecta.io/nano"><style><![CDATA[.B{fill:#ba68c8}.C{fill:#fff}.D{fill:#ffa8a7}.E{fill:#37474f}.F{fill:#455a64}.G{fill:#263238}.H{fill:#e0e0e0}.I{fill:#ebebeb}]]></style><ellipse cx="250" cy="356.974" rx="208.822" ry="120.564" fill="#f5f5f5"/><g class="H"><ellipse cx="282.769" cy="415.325" rx="45.158" ry="26.072"/><path d="M259.302 327.05l-120.79 69.75c-3.398 1.962-9.334 1.716-13.258-.55L82.37 371.491c-3.924-2.266-4.35-5.693-.952-7.655l120.79-69.75c3.398-1.962 9.334-1.716 13.258.55l42.884 24.759c3.924 2.265 4.351 5.693.952 7.655z"/></g><use href="#B" class="B"/><use href="#B" opacity=".5"/><path d="M393.788 354.406a.43.43 0 0 1-.405-.283c-.036-.099-3.634-10.09-3.444-26.113.19-16.12 8.661-24.716 8.747-24.801a.43.43 0 1 1 .608.612c-.083.082-8.307 8.451-8.492 24.198-.188 15.852 3.355 25.708 3.392 25.806a.43.43 0 0 1-.257.554.41.41 0 0 1-.149.027z" class="C"/><use href="#C" class="B"/><use href="#C" opacity=".2"/><g class="C"><path d="M403.145 359.919c-.222 0-.411-.171-.43-.396-.019-.235-1.729-23.672 14.554-39.063a.43.43 0 1 1 .593.627c-15.977 15.101-14.306 38.134-14.286 38.365.018.238-.158.446-.396.465a.39.39 0 0 1-.035.002z"/><path d="M405.964 339.834c-.225 0-.414-.173-.431-.4-.456-6.148-4.734-9.312-4.778-9.343-.192-.14-.236-.409-.097-.603a.43.43 0 0 1 .602-.098c.189.137 4.647 3.416 5.135 9.98a.43.43 0 0 1-.398.462c-.012.001-.023.002-.033.002zm-1.161 3.999a.43.43 0 0 1-.321-.719c.17-.19 4.268-4.62 13.746-3.318.236.033.401.251.369.486s-.25.399-.486.369c-8.992-1.234-12.948 2.999-12.987 3.04-.086.094-.203.142-.321.142z"/></g><use href="#D" class="B"/><use href="#D" opacity=".5"/><path d="M98.939 343a.43.43 0 0 1-.418-.324c-.026-.101-2.7-10.228-11.849-23.174-9.088-12.862-20.607-15.087-20.723-15.108-.234-.043-.39-.267-.348-.502s.264-.389.502-.348c.118.021 11.971 2.293 21.273 15.459 9.247 13.087 11.953 23.355 11.979 23.458a.43.43 0 0 1-.311.525c-.033.01-.069.014-.105.014z" class="C"/><use href="#E" class="B"/><use href="#E" opacity=".2"/><g class="C"><path d="M94.363 352.849c-.149 0-.294-.078-.374-.216-.115-.201-11.809-20.116-33.533-23.486a.43.43 0 0 1-.36-.492c.036-.237.257-.401.493-.36 22.142 3.434 34.031 23.704 34.148 23.908a.43.43 0 0 1-.159.589c-.067.038-.141.057-.215.057z"/><path d="M80.646 337.909a.43.43 0 0 1-.372-.214c-3.324-5.681-1.515-10.911-1.436-11.131a.432.432 0 1 1 .813.29c-.018.05-1.746 5.083 1.367 10.405a.43.43 0 0 1-.154.59.42.42 0 0 1-.218.06zm-9.585 7.6c-.117 0-.233-.047-.318-.141-.161-.176-.148-.449.027-.61 7.063-6.448 12.956-5.124 13.202-5.066a.43.43 0 0 1 .318.519c-.054.231-.281.377-.519.32-.058-.013-5.717-1.255-12.42 4.864-.082.077-.187.114-.29.114z"/></g><path d="M219.574 66.394h0v-.001zM97.608 136.505c0-5.928 3.163-11.407 8.297-14.371l105.519-60.921c3.117-1.8 6.898-.111 7.893 3.06-.572-2.469-2.112-4.642-4.341-5.97l-.376-.224c-2.626-1.564-5.625-2.389-8.681-2.389v.002a5.38 5.38 0 0 0-2.783.735l-105.519 60.92c-5.134 2.964-8.297 8.442-8.297 14.371v228.194c0 4.183 4.528 6.797 8.151 4.706l.137-.079V136.505z" class="E"/><path d="M211.277 308.483l-105.519 60.921c-3.623 2.091-8.151-.523-8.151-4.706V136.505c0-5.928 3.163-11.407 8.297-14.371l105.519-60.921c3.622-2.091 8.15.523 8.15 4.706v228.194a16.59 16.59 0 0 1-8.296 14.37z" class="F"/><path d="M97.608 364.699V136.505a16.58 16.58 0 0 1 1.64-7.182l-8.159-5.053a16.57 16.57 0 0 0-1.769 7.448v227.719.475 1.906a5.23 5.23 0 0 0 2.553 4.491l4.207 2.505c1.457.868 3.122 1.326 4.819 1.326h2.077v-.002c-2.81-.038-5.368-2.295-5.368-5.439z" class="G"/><path d="M207.645 83.146v191.799c0 5.235-2.793 10.073-7.327 12.69l-93.179 53.797a4.75 4.75 0 0 1-2.311.641c1.08 2.501 4.208 3.745 6.808 2.244l93.179-53.797c4.534-2.618 7.327-7.455 7.327-12.69V87.932c.001-2.685-2.114-4.628-4.497-4.786z" class="E"/><use href="#F" class="B"/><g opacity=".5" class="C"><use href="#F"/></g><g class="G"><use href="#G"/><use href="#G" x="6.242" y="-3.604"/><path d="M175.261 93.25l-20.295 11.718c-.803.463-1.453-.029-1.453-1.099h0c0-1.07.651-2.313 1.453-2.776l20.295-11.717c.803-.463 1.453.028 1.453 1.098h0c0 1.07-.651 2.313-1.453 2.776zm-3.434 222.432h0c1.212 0 1.996 1.286 1.996 3.275 0 3.127-1.956 6.897-4.271 8.234l-9.707 5.605c-.518.299-1.005.451-1.446.451-1.212 0-1.996-1.285-1.996-3.275 0-3.127 1.956-6.897 4.271-8.234l9.707-5.604c.519-.3 1.005-.452 1.446-.452m0-.829c-.57 0-1.199.181-1.86.562l-9.707 5.604c-2.588 1.494-4.685 5.502-4.685 8.952 0 2.569 1.163 4.104 2.825 4.104.57 0 1.199-.181 1.86-.562l9.707-5.604c2.588-1.494 4.685-5.502 4.685-8.952 0-2.569-1.163-4.104-2.825-4.104h0z"/></g><g fill="#e6e6e6"><path d="M118.185 163.707v214.987c0 3.894 1.431 6.51 3.618 7.369l.061.02.01.01 9.291 5.09-.051-8.268-1.032-222.929-9.812-5.018c-1.298 2.781-2.085 5.867-2.085 8.739z"/><path d="M131.67 392.031l-10.056-5.51c-2.492-1.029-3.929-3.936-3.929-7.827V163.707c0-2.827.757-6.005 2.132-8.95l.22-.47 10.544 5.393.001.304 1.032 222.929.056 9.118zm-9.555-6.375l8.545 4.682-.046-7.419-1.031-222.625-9.073-4.641c-1.179 2.679-1.824 5.521-1.824 8.055v214.987c0 3.511 1.234 6.092 3.301 6.904l.128.06v-.003z"/></g><g class="H"><path d="M120.27 154.968l9.812 5.018 105.007-61.089 7.011-4.078-9.689-5.458-.276-.163v-.01c-1.543-.93-3.567-.869-5.795.419l-99.396 57.389c-2.678 1.544-5.069 4.518-6.674 7.972z"/><path d="M130.082 160.487a.49.49 0 0 1-.227-.055l-9.812-5.018a.5.5 0 0 1-.226-.656c1.705-3.671 4.212-6.658 6.877-8.195l99.397-57.389c2.3-1.329 4.539-1.478 6.303-.414a.49.49 0 0 1 .073.054l.199.119 9.68 5.452a.5.5 0 0 1 .006.868L130.333 160.42c-.077.044-.164.067-.251.067zm-9.15-5.742l9.135 4.673 111.027-64.591-9.213-5.199a.51.51 0 0 1-.075-.054c-1.428-.819-3.275-.654-5.215.466l-99.397 57.389c-2.387 1.376-4.652 4.027-6.262 7.316z"/></g><g fill="#fafafa"><path d="M127.813 169.114V383.13c0 3.373 1.073 5.795 2.79 6.93l.562.307c1.492.705 3.363.552 5.397-.623l48.047-27.739 51.349-30.907c4.834-2.79 8.759-9.026 8.759-15.465V101.627c0-3.26-1.002-5.621-2.617-6.807-.276-.204-.572-.378-.889-.501-1.462-.624-3.281-.439-5.253.695l-99.396 58.357c-2.576 1.482-4.886 3.335-6.48 6.616-1.41 2.872-2.269 6.112-2.269 9.127z"/><path d="M235.958 331.097l-100 59.821c-3.449 2.077-7.838-.409-7.838-4.435V166.416c0-5.095 2.701-9.808 7.096-12.384l101.22-59.322c3.449-2.021 7.791.466 7.791 4.464v217.359c0 5.973-3.139 11.504-8.269 14.564z"/></g><g class="I"><path d="M235.706 330.665l-48.159 28.756-28.496 17.05-13.012 7.803-5.689 3.418c-1.75 1.052-3.615 2.55-5.548 3.222-3.209 1.115-6.098-1.452-6.183-4.62v-1.535-7.426-28.912-41.396-46.512-43.801-33.719-16.122c.012-5.287 2.567-9.874 7.136-12.575l6.976-4.088 32.701-19.165 38.747-22.708 22.048-12.922c2.282-1.324 5.155-1.194 6.741 1.195.644.97.755 2.048.759 3.159v5.753 26.569 40.23 46.182 44.555 34.918 17.721c0 6.144-2.686 11.692-8.021 14.97-.547.336-.046 1.202.505.863 5.564-3.419 8.516-9.246 8.516-15.697v-6.141-27.51-41.193-47.166-44.505-34.206-15.68c-.051-4.755-4.841-7.285-8.878-4.956l-7.281 4.267-33.601 19.692-39.097 22.913-20.741 12.155c-4.787 2.839-7.493 7.772-7.509 13.308v5.399 26.236 40.354 46.965 45.149 35.898 18.624c0 .344-.011.689 0 1.033.118 3.766 3.741 6.649 7.448 5.408 1.888-.632 3.67-2.05 5.37-3.072l5.801-3.486 12.973-7.78 56.764-33.936 20.234-12.075c.553-.327.051-1.192-.504-.861z"/><path d="M135.216 154.032l101.22-59.322c3.449-2.021 7.79.466 7.79 4.464v9.548l-.03.002L128.12 175.74v-9.325c0-5.094 2.701-9.807 7.096-12.383z"/></g><g transform="matrix(.5 -.866 .866 .5 -76.0709 258.8929)"><ellipse cx="186.173" cy="195.326" rx="37.174" ry="21.462" class="B"/><ellipse cx="186.173" cy="195.326" rx="37.174" ry="21.462" opacity=".5" class="C"/></g><path d="M181.458 195.443a1.18 1.18 0 0 1-1.18-1.18v-7.773c0-3.435 2.33-7.471 5.305-9.189 1.64-.947 3.243-1.064 4.514-.33s1.971 2.181 1.971 4.074v7.773a1.18 1.18 0 1 1-2.36 0v-7.773c0-1-.288-1.74-.791-2.031s-1.288-.17-2.154.33c-2.236 1.291-4.125 4.563-4.125 7.145v7.773a1.18 1.18 0 0 1-1.18 1.181z" class="E"/><path d="M195.701 183.807c-.458-.22-1.036-.178-1.666.186l-15.723 9.078c-.63.364-1.208.989-1.666 1.739-.619 1.013-1.017 2.253-1.017 3.389v13.612c0 .986.299 1.705.783 2.073.085.065.178.115.275.158h0 0c.452.199 1.014.151 1.626-.202l15.723-9.077c1.482-.856 2.684-3.152 2.684-5.128v-13.612c-.001-1.138-.4-1.919-1.019-2.216z" class="B"/><path d="M187.961 197.991l1.515 4.358-5.327 3.075 1.334-5.382.188-.762c-.9.026-1.522-.67-1.522-1.895 0-.469.089-.963.249-1.451.427-1.292 1.349-2.546 2.415-3.161 1.471-.849 2.664-.163 2.664 1.538 0 1.225-.625 2.641-1.525 3.656l.009.024z" class="F"/><path d="M185.482 200.042l.188-.762c-.9.026-1.522-.67-1.522-1.895 0-.469.089-.963.249-1.451l3.563 2.058 1.515 4.358-3.993-2.308z" class="E"/><path d="M224.947 245.656L147.4 290.429c-3.208 1.852-5.809-.114-5.809-4.391V274.29c0-4.277 2.601-9.246 5.809-11.098l77.548-44.772c3.208-1.852 5.809.114 5.809 4.391v11.748c-.001 4.276-2.602 9.245-5.81 11.097z" class="B"/><g fill="#fafafa"><path d="M159.855 262.133h1.5v12.434h-1.5z"/><path d="M154.856 270.808l10.769-6.219.75 1.299-10.769 6.219z"/><path d="M156.415 266.809l.75-1.299 7.615 4.397-.75 1.299z"/><use href="#H"/><path d="M185.424 248.206h1.5v12.435h-1.5z"/><path d="M180.425 256.882l10.768-6.218.75 1.299-10.768 6.218z"/><path d="M181.986 252.884l.75-1.299 7.614 4.396-.75 1.299z"/><use href="#H" x="25.57" y="-13.927"/><path d="M210.992 234.28h1.5v12.434h-1.5z"/><path d="M205.973 242.964l10.769-6.218.75 1.299-10.769 6.218z"/><path d="M207.555 238.957l.75-1.299 7.614 4.396-.75 1.299z"/><path d="M207.277 246.707l7.615-13.188 1.299.75-7.615 13.188z"/></g><path d="M227.254 261.843c1.038 0 1.502 1.551 1.502 3.088v11.748c0 3.572-2.202 7.862-4.809 9.366L146.4 330.817c-.486.281-.938.429-1.306.429-1.038 0-1.502-1.551-1.502-3.088V316.41c0-3.572 2.202-7.862 4.809-9.366l77.548-44.772c.484-.281.936-.429 1.305-.429m-.001-2c-.707 0-1.487.224-2.306.697L147.4 305.312c-3.208 1.852-5.809 6.821-5.809 11.098v11.748c0 3.185 1.441 5.088 3.502 5.088.707 0 1.487-.224 2.306-.697l77.548-44.772c3.208-1.852 5.809-6.821 5.809-11.098v-11.748c0-3.185-1.442-5.088-3.503-5.088h0z" class="B"/><text transform="matrix(.866 -.5 0 1 167.1501 310.9482)" style="white-space:pre" font-family="Montserrat-ExtraBold" font-size="11.609" letter-spacing="2" class="B">enter</text><g class="F"><path d="M341.391 128.31c0 1.446 1.035 3.205 2.311 3.928s2.311.137 2.311-1.309-1.035-3.205-2.311-3.928-2.311-.138-2.311 1.309z"/><path d="M310.417 137.625c-1.771 0-3.727-.577-5.746-1.722l-7.332-4.154a.5.5 0 0 1-.189-.682.5.5 0 0 1 .681-.188l7.332 4.154c3.162 1.792 6.1 2.08 8.272.814 2.125-1.239 3.296-3.851 3.296-7.355 0-3.875 1.347-6.795 3.793-8.22 2.493-1.453 5.784-1.165 9.267.808l11.849 6.713a.5.5 0 0 1 .188.682c-.137.24-.444.323-.681.189l-11.849-6.713c-3.162-1.791-6.099-2.08-8.271-.814-2.126 1.239-3.297 3.851-3.297 7.356 0 3.875-1.347 6.794-3.793 8.219-1.046.609-2.235.913-3.52.913z"/><path d="M294.313 129.506c0 1.17.837 2.592 1.869 3.177s1.869.111 1.869-1.059-.837-2.592-1.869-3.176-1.869-.111-1.869 1.058zm47.078 86.211c0 1.446 1.035 3.205 2.311 3.928s2.311.137 2.311-1.309-1.035-3.205-2.311-3.928-2.311-.137-2.311 1.309z"/><path d="M341.48 216.811c-.084 0-.169-.021-.246-.065l-11.849-6.713c-6.93-3.927-12.566-13.511-12.566-21.366 0-7.533-5.41-16.728-12.06-20.496l-7.421-4.205a.5.5 0 1 1 .492-.871l7.421 4.205c6.93 3.927 12.567 13.511 12.567 21.366 0 7.533 5.409 16.727 12.059 20.496l11.849 6.713a.5.5 0 0 1 .188.682c-.091.163-.26.254-.434.254z"/><path d="M294.313 161.541c0 1.169.837 2.592 1.869 3.177s1.869.111 1.869-1.059-.837-2.592-1.869-3.177-1.869-.111-1.869 1.059z"/></g><use href="#I" class="B"/><use href="#I" opacity=".3"/><path d="M408.43 189.233l-48.979-27.741c-2.708-1.564-4.904-5.759-4.904-9.37V97.716c0-3.611 2.196-5.271 4.904-3.707l48.979 27.741c2.708 1.564 4.904 5.759 4.904 9.37v54.406c0 3.611-2.196 5.271-4.904 3.707z" class="B"/><path d="M398.138 142.154a.5.5 0 0 1-.483-.371 40 40 0 0 0-4.796-10.92.5.5 0 0 1 .154-.69.5.5 0 0 1 .689.154 41.02 41.02 0 0 1 4.918 11.197.5.5 0 0 1-.352.612.49.49 0 0 1-.13.018zm1.125 10.162c-.012 0-.022-.001-.034-.001a.5.5 0 0 1-.466-.532l.054-1.664a30.23 30.23 0 0 0-.451-5.105.5.5 0 1 1 .986-.169c.309 1.799.465 3.574.465 5.273l-.056 1.729a.5.5 0 0 1-.498.469zm-30.588-16.594a.5.5 0 0 1-.497-.457l-.114-2.571c0-4.851 1.308-8.858 3.682-11.284a.5.5 0 0 1 .715.699c-2.19 2.238-3.396 5.997-3.396 10.584 0 .81.037 1.645.11 2.484a.5.5 0 0 1-.454.542c-.017.003-.031.003-.046.003zm22.114-8.089a.5.5 0 0 1-.387-.184c-2.099-2.567-4.355-4.545-6.708-5.879-3.322-1.882-6.439-2.244-9.011-1.049a.501.501 0 1 1-.422-.908c2.878-1.336 6.309-.962 9.925 1.086 2.461 1.395 4.813 3.453 6.989 6.116a.5.5 0 0 1-.07.704.49.49 0 0 1-.316.114zm-18.667 8.472a.5.5 0 0 1-.5-.479l-.019-.926c0-3.552.87-6.451 2.516-8.382a.5.5 0 1 1 .762.649c-1.49 1.748-2.277 4.422-2.277 7.733l.019.884a.5.5 0 0 1-.479.52c-.008.001-.015.001-.022.001zm3.923-10.298c-.168 0-.332-.084-.426-.238a.5.5 0 0 1 .164-.688c1.252-.769 2.686-1.081 4.245-.925a.5.5 0 0 1 .449.547c-.027.275-.275.471-.547.448-1.348-.134-2.563.13-3.624.782-.081.05-.171.074-.261.074zm22.093 32.942a.5.5 0 0 1-.464-.313l-.586-1.45c-1.19-2.949-1.816-6.004-1.811-8.836 0-8.48-5.196-18.294-11.582-21.913a.5.5 0 0 1 .493-.87c6.667 3.777 12.09 13.981 12.09 22.747-.005 2.743.597 5.667 1.739 8.498l.586 1.45a.5.5 0 0 1-.276.651.51.51 0 0 1-.189.036zm-22.957-5.747a.5.5 0 0 1-.47-.328c-2.522-6.885-3.102-14.53-3.107-14.607a.5.5 0 0 1 .463-.535c.24-.021.515.186.535.462.005.075.576 7.585 3.049 14.335a.5.5 0 0 1-.298.642c-.057.022-.115.031-.172.031zm20.014 9.12a.5.5 0 0 1-.469-.326l-1.333-3.592c-1.407-3.792-2.151-7.593-2.151-10.993v-3.932c0-4.665-3.351-10.359-7.469-12.692-1.924-1.09-3.699-1.272-5.001-.512-1.275.742-1.976 2.323-1.976 4.453v3.471c0 5.093 1.156 10.796 3.345 16.493l1.651 4.303a.5.5 0 1 1-.934.358l-1.651-4.303c-2.231-5.81-3.411-11.637-3.411-16.852v-3.471c0-2.5.878-4.388 2.472-5.317 1.625-.947 3.755-.765 5.997.506 4.398 2.492 7.977 8.576 7.977 13.563v3.932c0 3.282.723 6.963 2.089 10.645l1.333 3.592a.5.5 0 0 1-.295.643c-.058.021-.116.031-.174.031zm-4.406 1.432a.5.5 0 0 1-.479-.358l-.697-2.352c-1.324-4.467-1.995-8.767-1.995-12.779v-6.083c0-2.507-1.802-5.568-4.016-6.822-.99-.561-1.895-.663-2.542-.284-.632.369-.98 1.174-.98 2.268 0 6.752 2.057 14.544 5.791 21.939l1.405 2.783a.5.5 0 0 1-.221.672c-.246.123-.548.025-.672-.221l-1.405-2.783c-3.804-7.533-5.898-15.484-5.898-22.391 0-1.465.524-2.577 1.478-3.132.967-.564 2.226-.465 3.537.278 2.494 1.413 4.523 4.864 4.523 7.692v6.083c0 3.917.657 8.12 1.954 12.495l.697 2.352a.5.5 0 0 1-.337.622c-.048.015-.096.021-.143.021zm-5.606-10.552a.5.5 0 0 1-.488-.395l-.46-2.139c-.44-2.052-.664-4.157-.664-6.255v-5.636a.5.5 0 1 1 1 0v5.636c0 2.028.216 4.063.643 6.045l.46 2.139a.5.5 0 0 1-.491.605zm-15.423-10.848a.5.5 0 0 1-.496-.451l-.291-2.925a.5.5 0 0 1 .447-.547c.298-.018.52.173.547.448l.291 2.925a.5.5 0 0 1-.447.547c-.018.002-.035.003-.051.003z" class="C"/><use href="#J" class="B"/><use href="#J" opacity=".3"/><path d="M408.43 281.885l-48.979-27.741c-2.708-1.563-4.904-5.758-4.904-9.37v-54.406c0-3.611 2.196-5.271 4.904-3.707l48.979 27.741c2.708 1.564 4.904 5.759 4.904 9.37v54.406c0 3.611-2.196 5.27-4.904 3.707z" class="B"/><g class="C"><path d="M365.449 205.548a.5.5 0 0 1-.5-.5v-3.373c0-.682.355-1.295.949-1.642.607-.354 1.336-.359 1.947-.012l3.535 2.003a.5.5 0 1 1-.493.871l-3.535-2.003c-.3-.169-.653-.167-.951.006-.288.168-.453.451-.453.778v3.373a.5.5 0 0 1-.499.499zm5.686 46.377c-.084 0-.169-.021-.246-.065l-3.303-1.872c-1.627-.921-2.637-2.64-2.637-4.486v-3.109a.5.5 0 1 1 1 0v3.109c0 1.486.815 2.872 2.129 3.616l3.303 1.872a.5.5 0 0 1-.246.935zm29.862 16.706a1.94 1.94 0 0 1-.963-.257l-3.535-2.003a.5.5 0 1 1 .492-.871l3.535 2.003c.301.169.656.167.951-.006a.88.88 0 0 0 .453-.777v-3.373a.5.5 0 1 1 1 0v3.373a1.88 1.88 0 0 1-.949 1.641 1.94 1.94 0 0 1-.984.27z"/><path d="M402.431 226.502a.5.5 0 0 1-.5-.5v-3.109c0-1.486-.815-2.872-2.129-3.616l-3.303-1.872a.5.5 0 1 1 .492-.871l3.303 1.872c1.627.921 2.637 2.64 2.637 4.486v3.109a.5.5 0 0 1-.5.501zm-32.547-4.131c.075 5.911 1.031 11.604 2.413 16.804 3.808 14.332 18.793 23.147 22.912 13.437 1.641-3.868 2.79-8.807 2.79-15.053 0-8.8-6.295-19.5-14.061-23.9-7.916-4.485-14.169-.322-14.054 8.712z"/></g><g class="H"><path d="M383.439 230.38v9.422l-4.093-3.064z"/><use href="#K"/><use href="#K" x="12.529" y="7.174"/><path d="M382.09 244.413l4.571-.775s-.974 4.884-4.571.775z"/></g><path d="M308.378 253.204s7.289-.491 11.424 9.64c2.57 6.298 5.7 16.03 7.7 22.494a10.44 10.44 0 0 1-3.26 11.085l-12.71 10.664-4.548-8.27s4.903-6.542 8.683-9.924l-8.683-26.05 1.394-9.639z" class="D"/><use href="#L" class="B"/><use href="#L" opacity=".4" class="C"/><path d="M304.013 401.4s-5.505-4.714-7.641-4.935-5.84 3.441-2.712 9.796c.87 1.768 4.406 3.683 6.616 7.071s4.198 5.935 7.587 5.472 3.83-2.378 3.609-4.588-1.215-6.003-1.215-6.003l-6.244-6.813z" class="E"/><path d="M308.043 417.789c-3.492.477-5.542-2.148-7.82-5.64s-5.922-5.466-6.819-7.289c-.395-.801-.681-1.56-.88-2.276.127 1.098.47 2.322 1.136 3.676.87 1.768 4.406 3.683 6.616 7.071s4.198 5.935 7.587 5.472c2.595-.355 3.456-1.564 3.62-3.102-.449 1.037-1.434 1.814-3.44 2.088z" class="G"/><path d="M301.077 407.457a.54.54 0 0 1-.251-.063c-.26-.139-.358-.462-.22-.722.071-.134 1.789-3.289 5.176-4.057a.53.53 0 0 1 .64.403c.065.288-.115.574-.403.639-2.901.659-4.454 3.49-4.47 3.519-.096.178-.28.281-.472.281zm-2.055-1.894a.53.53 0 0 1-.251-.063c-.26-.139-.358-.462-.22-.722.071-.134 1.788-3.289 5.176-4.057a.53.53 0 0 1 .64.403c.065.288-.115.574-.403.639-2.902.659-4.454 3.49-4.47 3.519a.54.54 0 0 1-.472.281zm-2.349-1.894a.54.54 0 0 1-.251-.063c-.26-.139-.358-.462-.22-.722.071-.134 1.788-3.288 5.175-4.057a.53.53 0 0 1 .64.403c.066.288-.115.574-.403.639-2.901.659-4.453 3.49-4.469 3.518-.096.179-.281.282-.472.282z" class="I"/><path d="M274.732 416.851s-7.374-2.392-9.574-1.732-4.352 5.799 1.349 10.788c1.586 1.388 5.865 1.826 9.439 4.263s6.585 4.135 9.741 2.285 2.898-3.978 2.336-6.286l-1.29-5.076-12.001-4.242z" class="E"/><path d="M285.449 431.379c-3.252 1.907-6.356.158-10.04-2.355s-8.095-2.964-9.73-4.394c-.719-.629-1.313-1.26-1.804-1.885.577 1.032 1.418 2.1 2.633 3.163 1.586 1.388 5.865 1.826 9.439 4.263s6.585 4.135 9.741 2.285c2.417-1.417 2.77-2.965 2.3-4.552-.017 1.206-.67 2.379-2.539 3.475z" class="G"/><path d="M272.973 423.658a.47.47 0 0 1-.053-.003c-.293-.028-.508-.289-.48-.582.016-.161.412-3.965 3.428-6.106.239-.171.572-.115.745.126s.114.574-.126.745c-2.61 1.854-2.979 5.303-2.982 5.338-.028.276-.261.482-.532.482zm3.045.997a.47.47 0 0 1-.053-.003c-.294-.028-.509-.289-.48-.582.016-.161.413-3.965 3.428-6.106.239-.171.573-.115.745.126s.114.574-.126.745c-2.609 1.854-2.98 5.303-2.983 5.338-.027.275-.26.482-.531.482zm-5.854-2.022a.47.47 0 0 1-.053-.003c-.293-.028-.508-.289-.48-.582.016-.161.412-3.965 3.428-6.106.239-.171.573-.115.745.126s.114.574-.126.745c-2.61 1.854-2.979 5.303-2.982 5.338-.028.276-.261.482-.532.482z" class="I"/><path d="M310.601 402.805c.66-7.302 2.091-18.742 2.686-24.091 1.063-9.556.089-16.845-.576-20.311-.305-1.587-.39-3.192-.23-4.8 1.446-14.542 2.395-38.109 1.593-43.289l-20.413 4.319 3.595 44.065c1.103 11.072 5.207 44.202 5.207 44.202 1.706 1.005 4.805 2.104 8.138-.095z" class="F"/><path d="M307.659 410.312c1.768-.276 2.596-2.099 2.596-2.099 0-1.151.134-3.072.345-5.408-3.333 2.199-6.431 1.1-8.139.095l.723 6.142c.83.939 2.708 1.547 4.475 1.27z" class="D"/><path d="M287.637 415.635l2.656-35.831c.216-3.394-.16-8.067-.704-11.114-.354-1.983-.325-4.012.033-5.994l8.971-49.774-24.667-.361-1.614 52.145c-.021.674.005 1.349.077 2.019l5.232 48.6h0c-.001 0 5.101 4.279 10.016.31z" class="F"/><path d="M283.524 424.761c1.774-.166 3.368-1.664 3.616-2.541l.497-6.585c-4.914 3.969-10.017-.31-10.017-.31h0l.785 7.288c-.001 0 1.159 2.519 5.119 2.148z" class="D"/><use href="#M" class="B"/><use href="#M" opacity=".2" class="C"/><path d="M279.004 231.073l-2.914 5.767c-.18.356-.002.789.377.915l3.458 1.152-.921-7.834z" fill="#f28f8f"/><path d="M283.04 221.399s-4.419 2.381-4.419 16.043c0 7.513.516 12.3 4.419 12.006s15.136-1.768 15.136-1.768v-26.281H283.04z" class="D"/><path d="M283.04 249.447l6.027-.633v-1.393c-2.186 1.121-6.086 1.907-6.679 2.022.207.018.422.022.652.004z" fill="#f28f8f"/><path d="M288.398 246.839v8.575h11.73v-12.049z" class="D"/><use href="#N" class="B"/><use href="#N" opacity=".4" class="C"/><path d="M262.232 277.586l-3.15 4.847s-7.65-3.411-13.025-5.479-8.58-4.939-8.58-4.939.414-4.104 1.034-6.198.827-3.852-1.034-2.921-3.101 4.548-3.204 4.962c0 0-10.751-10.802-12.095-10.57s-1.033 1.86 1.861 5.194l2.893 3.335s-6.594 3.798-5.519 7.933 9.758 5.996 9.758 5.996 25.424 19.537 31.061 16.023 13.596-13.645 13.596-13.645l-13.596-4.538z" class="D"/><use href="#O" class="B"/><use href="#O" opacity=".4" class="C"/><path d="M281.346 213.356s-4.636-.616-5.819 2.578c-.737 1.989 1.621 3.536 1.621 3.536s-2.991 2.815 1.473 3.683c0 0-.368 3.83 3.609 3.314 0 0-.516 3.037 3.388 4.097 0 0-1.973 5.258 1.739 5.331h3.475l-1.401 4.051s2.595 6.261 10.698 6.261c0 0 2.063-4.272 3.02-5.524s5.966-7.66 5.966-12.742-1.955-8.093-4.66-8.761c0 0-1.158-2.803-3.884-4.645s-8.47-3.484-11.711-1.226c0 0-2.873-3.767-4.861-3.767s-2.653 2.046-2.653 3.814z" class="G"/><path d="M287.357 235.895s-.339-5.331 4.154-5.331 3.427 9.382-2.08 9.382l-2.074-4.051z" class="D"/><defs ><path id="B" d="M389.365 351.405l9.515 5.527s-4.801-15.326-2.136-30.743c1.006-5.819 3.123-8.71 3.87-10.263s6.484-11.169 1.434-15.602-16.899 4.385-16.368 28.13c.272 12.185 3.685 22.951 3.685 22.951z"/><path id="C" d="M396.744 355.723l15.718 9.244s7.197-1.06 6.652-7.835-3.469-8.371.172-11.348 4.581-3.174 4.407-6.092-2.137-4.19-3.061-5.346-3.498-3.582-1.686-7.101 4.266-6.918.621-8.531c-2.175-.963-5.834.243-8.259 2.818s-4.426 4.425-6.723 5.023-7.088.645-6.927 4.604 1.189 5.326.229 7.083c-1.809 3.311-9.535 5.095-1.143 17.481z"/><path id="D" d="M101.124 337.943l-4.699 9.949s-4.742-15.344-15.684-26.527c-4.13-4.221-7.513-5.401-9.01-6.255s-11.676-5.519-10.033-12.034 16.404-5.978 29.438 13.877c6.691 10.188 9.988 20.99 9.988 20.99z"/><path id="E" d="M97.498 345.685L89.8 362.216s-6.528 3.211-9.924-2.677-1.893-8.861-6.58-9.247-5.573-.015-7.085-2.516-.618-4.663-.513-6.139.848-4.934-2.64-6.804-7.438-3.276-5.352-6.672c1.245-2.027 4.942-3.11 8.4-2.366s6.155 1.133 8.386.321 6.203-3.49 8.316-.139 2.043 5.06 3.831 5.963c3.368 1.7 10.742-1.216 10.859 13.745z"/><path id="F" d="M104.829 342.074a4.75 4.75 0 0 0 2.311-.641l93.179-53.797c4.534-2.618 7.327-7.455 7.327-12.69v-191.8c.438.029-1.399-.121-2.7.631l-93.179 53.797c-4.534 2.618-7.327 7.455-7.327 12.69v189.899a4.79 4.79 0 0 0 .402 1.936c-.004-.008-.009-.016-.013-.025z"/><path id="G" d="M143.824 109.463c0 1.07-.751 2.371-1.678 2.906s-1.678.101-1.678-.969.751-2.371 1.678-2.906 1.678-.101 1.678.969z"/><path id="H" d="M156.156 274.575l7.616-13.188 1.299.75-7.616 13.188z"/><path id="I" d="M412.594 118.884l-48.979-27.741c-1.403-.81-2.664-.749-3.558-.007l-4.232 2.926 2.886 3.568v51.625c0 3.611 2.195 7.806 4.904 9.37l47.763 27.039.225 3.845 4.459-3.056c.887-.671 1.436-1.989 1.436-3.794v-54.406c-.001-3.61-2.196-7.805-4.904-9.369z"/><path id="J" d="M412.594 211.536l-48.979-27.741c-1.403-.81-2.664-.749-3.558-.007l-4.232 2.926 2.886 3.568v51.626c0 3.611 2.195 7.806 4.904 9.37l47.763 27.039.225 3.845 4.459-3.056c.887-.671 1.436-1.989 1.436-3.794v-54.406c-.001-3.612-2.196-7.807-4.904-9.37z"/><path id="K" d="M375.826 224.754c0 .844.604 1.87 1.349 2.293s1.349.08 1.349-.764-.604-1.87-1.349-2.293-1.349-.08-1.349.764z"/><path id="L" d="M311.739 284.138s11.578 1.531 14.472-7.401c0 0-4.962-13.067-7.236-17.408s-6.928-7.495-10.597-6.125 3.361 30.934 3.361 30.934z"/><path id="M" d="M285.323 256.518l-5.819 1.989-6.261 29.61.303 26.256s4.471 3.563 21.934 3.563c9.803 0 16.184-3.692 18.592-7.622l-1.57-15.862s1.57-15.63 1.57-23.357.345-14.061-5.695-17.891l-5.377.442-17.677 2.872z"/><path id="N" d="M288.398 252.148s4.217 1.498 7.605.909 4.125-2.652 4.125-2.652 1.105-.084 2.873 3.241c0 0-2.071 4.138-6.85 4.419-6.261.368-10.828-1.547-10.828-1.547s1.63-4.796 3.075-4.37z"/><path id="O" d="M281.812 257.753s4.693 3.859 1.635 11.837-10.865 17.617-10.865 17.617-8.186-2.544-11.343-9.156l10.319-16.147a8.69 8.69 0 0 1 6.756-3.998 89.8 89.8 0 0 1 3.498-.153z"/></defs></svg>