<svg xmlns="http://www.w3.org/2000/svg" viewBox="0 0 500 500" xmlns:v="https://vecta.io/nano"><style><![CDATA[.B{fill:#1e2438}.C{fill:#aebdc4}.D{fill:#90a2ac}.E{fill:#778f9b}.F{fill:#5e7b8b}.G{fill:#cce4c4}.H{fill:#fea511}.I{fill:#7e7e7f}]]></style><g transform="matrix(.12658 0 0 .133028 -51.171703 -54.138138)"><g fill="#f1e3f4"><path d="M1121.8 2891.3s-272.6-155.1-144.3-341.8 451.5-211.5 376.8-422.6c-74.6-211.1-368-674.7-23.3-582 88.3 23.8 215 101.8 359.2 204.3 113.1 80.4 209.3 269.9 333.9 366 336.2 259.3 705.2 429 853.5 413.3 273.2-29 184.9 362.9 58 362.9s-1813.8-.1-1813.8-.1z"/><ellipse transform="matrix(.5 -.866 .866 .5 -469.2 3127)" cx="2473.4" cy="1969.8" rx="222" ry="499.8"/><path d="M2739.2 1655.6c-29.5 51.1-71.5 26.3-153.4-21s-172.8-99.3-143.3-150.4 119.9-54.2 201.8-6.9 124.4 127.2 94.9 178.3zm-828.6-89.6c-29.6 51.2-117 56.2-195.2 11s-160.3-224.7-130.7-275.9 159.6 45.2 237.8 90.4c78.2 45.1 117.6 123.2 88.1 174.5z"/></g><path d="M1528.8 2684h-211.4c-3.1 0-5.9 1.4-7.7 3.7-1.4 1.7-2.3 3.9-2.3 6.3v49.1c0 2.8 1.1 5.3 2.9 7.1s4.3 2.9 7.1 2.9h211.4c3.1 0 5.9-1.4 7.7-3.7 1.4-1.7 2.3-3.9 2.3-6.3V2694c0-2.3-.8-4.5-2.1-6.2-1.8-2.3-4.7-3.8-7.9-3.8z" class="C"/><g class="D"><use href="#C"/><use href="#C" x="130.2"/></g><use href="#D" class="E"/><g class="F"><use href="#E"/><use href="#E" x="130.2"/></g><path d="m1550.5 2753.1h-211.4c-2.7 0-5.1 1.1-6.9 2.8-1.9 1.8-3.1 4.4-3.1 7.2v49.1c0 2.8 1.1 5.3 2.9 7.1s4.3 2.9 7.1 2.9h211.4c2.8 0 5.3-1.1 7.1-2.9s2.9-4.3 2.9-7.1v-49.1c0-3.3-1.6-6.2-4.1-8-1.6-1.3-3.6-2-5.9-2z" class="C"/><g class="D"><path d="M1358 2753.1h43.4v69.1H1358z"/><use href="#C" x="151.9" y="69.1"/></g><use href="#D" x="21.7" y="69.1" class="E"/><g class="F"><path d="M1358 2801.9h43.4v20.3H1358z"/><use href="#E" x="151.9" y="69.1"/></g><path d="M1528.2 2822.2h-211.4c-2 0-3.9.6-5.4 1.6-2.8 1.8-4.6 4.9-4.6 8.4v49.1c0 2.6 1 4.9 2.6 6.7 1.8 2 4.5 3.3 7.4 3.3h211.4c2.8 0 5.3-1.1 7.1-2.9s2.9-4.3 2.9-7.1v-49.1c0-2.4-.8-4.6-2.2-6.3-1.9-2.3-4.7-3.7-7.8-3.7z" class="C"/><g class="D"><use href="#C" x="-0.6" y="138.2"/><use href="#C" x="129.6" y="138.2"/></g><path d="M1538.2,2871h-231.4v10.3c0,5.5,4.5,10,10,10h211.4c5.5,0,10-4.5,10-10V2871z" class="E"/><g class="F"><use href="#E" x="-0.6" y="138.2"/><use href="#E" x="129.6" y="138.2"/></g><path d="M1571.6 2614.9h-211.4c-2.2 0-4.2.7-5.8 1.9-2.5 1.8-4.2 4.8-4.2 8.1v49.1c0 2.7 1.1 5.2 2.8 7 1.8 1.9 4.4 3 7.2 3h211.4c3.5 0 6.6-1.8 8.4-4.5 1-1.6 1.6-3.5 1.6-5.5v-49.1c0-2.5-.9-4.7-2.3-6.4-1.9-2.2-4.6-3.6-7.7-3.6z" class="C"/><g class="D"><use href="#C" x="42.8" y="-69.1"/><use href="#C" x="173" y="-69.1"/></g><use href="#D" x="42.8" y="-69.1" class="E"/><g class="F"><use href="#E" x="42.8" y="-69.1"/><use href="#E" x="173" y="-69.1"/></g><path transform="matrix(.7071 .7071 -.7071 .7071 2033.9 -294.77)" d="M1355.4 2285.1h34.7v45.2h-34.7z" fill="#7921a0"/><path d="M1344.5 2311.5l7 5.3c10.2 7.8 24.4 7.5 34.4-.5l15.1-12.2-32 32-24.5-24.6z" fill="#4b1689"/><path d="m1206.2 2474.3c-10.6-10.6-10.6-27.7 0-38.3l131.4-131.4 38.3 38.3-131.4 131.4c-10.6 10.6-27.8 10.6-38.3 0z" fill="#a948b8"/><path d="m1206.2 2474.3c-10.6-10.6-10.6-27.7 0-38.3 11.6 17.7 36.2 21.2 52.3 7.4l117.4-100.5-131.4 131.4c-10.6 10.6-27.8 10.6-38.3 0z" fill="#9d29ad"/><path d="m1557.1 2306.5c-15.9 15.9-35.2 26.4-55.6 31.5-14.9 3.7-30.5 4.5-45.6 2.4v-236.8c15.2-2.1 30.7-1.3 45.6 2.4 20.4 5.1 39.7 15.6 55.6 31.5 46.7 46.6 46.7 122.3 0 169z" class="C"/><path d="m1501.4 2105.9v232.1c-14.9 3.7-30.5 4.5-45.6 2.4v-236.8c15.2-2.2 30.7-1.4 45.6 2.3z" fill="#691d98"/><circle cx="1468.5" cy="2212" r="119.6" fill="#445861"/><path d="m1536.7 2280.2c-32.5 32.5-82.3 36.9-119.6 13.4-6-3.8-11.6-8.2-16.8-13.4-37.7-37.7-37.7-98.7 0-136.4 36.1-36.2 93.9-37.6 131.8-4.3 1.6 1.4 3.1 2.8 4.6 4.3 37.7 37.6 37.7 98.7 0 136.4z" class="C"/><path d="m1536.7 2280.2c-32.5 32.5-82.3 36.9-119.6 13.4-1.6-1.4-3.1-2.8-4.6-4.3-37.7-37.7-37.7-98.7 0-136.4 32.5-32.5 82.3-36.9 119.6-13.4 1.6 1.4 3.1 2.8 4.6 4.3 37.7 37.6 37.7 98.7 0 136.4z" fill="#ced6d9"/><path d="M1537.3 2279.6l-.6.6c-3.3 3.3-6.9 6.4-10.5 9.1l-93.9-166.7c4.6-1.9 9.3-3.3 14.1-4.5l90.9 161.5zm-31.2 21.2c-4.6 1.9-9.2 3.5-14 4.7l-91.4-162.1c3.6-3.5 7.3-6.7 11.2-9.5l94.2 166.9z" fill="#ecedef"/></g><g transform="matrix(.475352 0 0 .475352 169.894387 125.239595)"><g fill="#ffbd35"><path d="M337.5 121.5c0 1-.8 1.9-1.9 1.9h-.1c-1 0-1.9-.8-1.9-1.9V96.4c0-1 .8-1.9 1.9-1.9h.1c1 0 1.9.8 1.9 1.9v25.1z"/><use href="#F"/><use href="#F" x="11.9" y="7.6"/></g><path d="M386.9 167.9c0-21.4-17.3-38.7-38.7-38.7s-38.7 17.3-38.7 38.7 17.3 38.7 38.7 38.7 38.7-17.3 38.7-38.7z" fill="#fcc020"/><path d="M381 167.9c0-18.1-14.7-32.8-32.8-32.8s-32.8 14.7-32.8 32.8 14.7 32.8 32.8 32.8S381 186 381 167.9z" fill="#ffbd35"/><path d="M344.2 189.8v-5.3c-3.8-.2-7.4-1.2-9.5-2.4l1.7-6.6c2.4 1.3 5.7 2.5 9.3 2.5 3.2 0 5.4-1.2 5.4-3.5 0-2.1-1.8-3.5-6-4.9-6-2-10.1-4.8-10.1-10.3 0-4.9 3.5-8.8 9.5-10V144h5.5v4.9c3.8.2 6.3 1 8.1 1.9l-1.6 6.3c-1.5-.6-4-1.9-8.1-1.9-3.7 0-4.8 1.6-4.8 3.1 0 1.9 2 3 6.7 4.8 6.7 2.4 9.4 5.4 9.4 10.5 0 5-3.5 9.3-10 10.4v5.7h-5.5z" fill="#fff"/><path d="M309.8 220.1h78.4V235h-78.4zm97.3 16.2h-119v111.2h-32.8V395h151.8z" class="G"/><g class="B"><use href="#G"/><use href="#G" x="49.1"/><use href="#G" y="42.5"/><path d="M330.8 356.9h33.4v36.5h-33.4z"/><use href="#G" x="49.1" y="42.5"/></g><path d="M407.1 351.1H440V395h-32.9z" class="G"/><path d="M287.4 334.2s-5.7 6.2-9.1 14.4c-5 12.2-6.7 26.9 8.3 26.9 15.9 0 16.5-11.8 10.8-25.5-2.4-5.7-5.1-9-10-15.8z" fill="#2ed154"/><path d="M286.6 375.9h1.8V395h-1.8z" class="B"/><path d="M406.7 334.2s-5.7 6.2-9.1 14.4c-5 12.2-6.7 26.9 8.3 26.9 15.9 0 16.5-11.8 10.8-25.5-2.4-5.7-5.2-9-10-15.8z" fill="#1a7c7b"/><path d="M405.8 375.9h1.8V395h-1.8z" class="B"/><path d="M244.2 185c-11.4 0-21 8.2-23.1 19l-1.2.9c-8 .7-14.3 7.5-14.3 15.7v.8c0 8.7 7.1 15.8 15.8 15.8l23.1-.2v-52h-.3z" fill="#f7efe2"/><path d="M266.8 200.7c-2.2-9.1-8.9-15.6-22.3-15.7v52.1l21.2-.1a17.67 17.67 0 0 0 17.7-17.7v-.9c0-9.4-7.3-17.1-16.6-17.7z" fill="#fff"/><path d="M248.2 288.4c0-43.3-35.1-78.4-78.4-78.4s-78.4 35.1-78.4 78.4 35.1 78.4 78.4 78.4 78.4-35.1 78.4-78.4z" fill="#45bbc6"/><path d="M120 293.7s.1 7.1 4.2 11.6c5.8 6.3 1.2 2.7 9.8 9.3 6.3 4.8 1.8 8.6 8.1 12.9 4 2.7 9.4 12.9 13.3 1.3.5-1.6.4-9.4.3-12.9-.5 1.8-.5 1.8-.1-1.7 0-.2.1.5.1 1.7 1.1-3.9 4.6-16.4 12.2-22.1 11-8.4 0-13.3 0-18.1s-7.9-10.5-23.3-15.7c-7.1-2.4-6-18.4 3.9-12.9 9.8 5.5 29 1.1 18.9-5.5-9.2-6.1-3.8-13.9.1-17.9-1.5-.1-3-.2-4.5-.2-32 0-57.9 25.9-57.9 57.9 0 8.6 1.9 16.7 5.2 24 3.1-.4 6.2-4 9.7-11.7zm81.3-41.9c-10.6 5.3-15.9 10.6-12 16 4 5.3 4 6.6 9.3 8 5.3 1.3 14.6-1.3 19.9 2.7s9.3-2.7 5.3 4c-4 6.6-2.7 4-13.3 6.6-10.6 2.7-8-6.6-10.6 2.7-2.7 9.3-8 6.6-4 17.3 4 10.6 14.6 18.6 14.6 18.6l1.2 13.9c14.8-11.1 24.4-28.7 24.4-48.6 0-20.3-10-38.3-25.3-49.3-1.3 2.1-3.9 5.3-9.5 8.1z" class="G"/><g fill="#fff"><path d="M65.5 226.9l-4.3-2v-.1c1.4-3 3.2-5.9 5.5-8.5l.1-.1 3.6 3.1-.1.1a29.88 29.88 0 0 0-4.8 7.5h0zm11.2-13.3l-2.7-3.8.1-.1c2.6-1.8 5.5-3.5 8.6-4.9h.1l1.9 4.3h-.1c-2.8 1.3-5.5 2.8-7.9 4.5h0zm76-3.8h-.1l-3-.9c-.3-.1-.7-.2-1-.3l-.5-.2-.2.2v-.4h0l1.2-4.4h.1c.6.2 1.2.3 1.7.5l3.1.9h.1l-1.4 4.6zm-13.7-3.6h-.1c-3-.7-6.1-1.2-9.1-1.6h-.1l.6-4.7h.1c3 .4 6.2 1 9.5 1.7h.1l-1 4.6zm-45.9 0l-1.2-4.6h.1c3-.8 6.2-1.5 9.5-1.9l.1.1.6 4.6h-.1c-3.2.4-6.2 1-9 1.8h0zm27.4-2.5c-3.3-.2-6.6-.2-9.2-.1h-.1l-.1-4.7h.1c2.7-.1 6.3-.1 9.5.1v-.2l.2.3-.3 4.5h-.1v.1z"/><path d="M157.8 330.9c-5.3-1.8-28.9-10.7-34.5-13.3-28.1-13.1-50.7-33.7-60.5-55.1-6.2-13.7-6.8-26.7-1.7-37.7l4.3 2c-4.5 9.7-3.9 21.4 1.7 33.8 9.3 20.4 31 40.1 58.2 52.8 5.5 2.5 28.7 11.3 34 13.1l-1.5 4.4z"/><circle cx="169.8" cy="214.4" r="5.1"/><path d="M108.1 244.2c0-2.1-1.7-3.7-3.7-3.7-2.1 0-3.7 1.7-3.7 3.7 0 2.1 1.7 3.7 3.7 3.7 2.1.1 3.7-1.6 3.7-3.7zm84.4 7.9c0-2.1-1.7-3.7-3.7-3.7a3.76 3.76 0 0 0-3.7 3.7c0 2.1 1.7 3.7 3.7 3.7 2.1 0 3.7-1.6 3.7-3.7zm49.1 1.9c0-2.8-2.3-5.1-5.1-5.1s-5.1 2.3-5.1 5.1 2.3 5.1 5.1 5.1 5.1-2.3 5.1-5.1z"/></g><path d="M172.6 221.3c0 .5-1.3.9-2.8.9s-2.8-.4-2.8-.9 1.3-.9 2.8-.9 2.8.4 2.8.9zm-65.2 28.8c0 .5-1.3.9-2.8.9s-2.8-.4-2.8-.9 1.3-.9 2.8-.9c1.6.1 2.8.5 2.8.9z" fill="#0d9b9e"/><path d="M117.1 221.3c-.9-3.7-3.6-6.3-9-6.3h-.1c-4.6 0-8.4 3.3-9.3 7.6-.2.1-.3.2-.5.4-3.2.3-5.8 3-5.8 6.3v.3a6.38 6.38 0 0 0 6.4 6.4l9.3-.1 8.5-.1a7.13 7.13 0 0 0 7.1-7.1v-.3c0-3.7-2.9-6.8-6.6-7.1z" fill="#fff"/><path d="M195.4 277.9h146.7c5.9 0 10.7 4.8 10.7 10.7v90.3c0 5.9-4.8 10.7-10.7 10.7H195.4c-5.9 0-10.7-4.8-10.7-10.7v-90.3c-.1-5.9 4.7-10.7 10.7-10.7z" class="B"/><g opacity=".2" class="B"><path d="M356.6 391.9c0-1.6-41.9-2.9-93.7-2.9-51.7 0-93.7 1.3-93.7 2.9s41.9 2.9 93.7 2.9 93.7-1.3 93.7-2.9z"/></g><use href="#H" fill="#13192e"/><g fill="#3a4050"><path d="M187.8 389.9h32.5v-98.7h-35.6v95.6c-.1 1.7 1.3 3.1 3.1 3.1zm160.6 0h-32.5v-98.7h35.6v95.6a3.12 3.12 0 0 1-3.1 3.1z" opacity=".3"/><path d="M352.8 288.6l-4.8 38.8c-26.2 14.3-125.7 14.6-152.2.8l-10.9-39.5s.5-9.2 9.1-10.2h146.3s10.9-1 12.5 10.1z"/></g><path d="M271.1 334.3c-43.3 0-66.3-7.1-66.5-7.2-.4-.1-.7-.6-.5-1 .1-.4.6-.6 1-.5.2.1 23 7.1 66 7.1 37.4 0 68.1-7.4 68.4-7.4a.89.89 0 0 1 1 .6.89.89 0 0 1-.6 1c-.3 0-31.2 7.4-68.8 7.4z" opacity=".6" class="B"/><path d="M279.4 333c0-2.4-2.4-4.4-5.3-4.4h-5.9c-2.9 0-5.3 2-5.3 4.4v4.8h16.5V333z" fill="#3a4050"/><use href="#H" y="-1.6" class="H"/><path d="M266.5 339.4v4.7h.1c0 1.5 1.2 2.6 2.7 2.6h4c1.5 0 2.7-1.2 2.7-2.6h0v-4.7h-9.5z" fill="#fed795"/><path d="M295 278h-2c-3.4 0-6.3-2.5-6.7-5.7l-.8-6.3c-.3-2.4-2.4-4.2-4.9-4.2h-24.1c-2.5 0-4.6 1.8-4.9 4.2l-.8 6.3c-.4 3.3-3.3 5.7-6.7 5.7h-2.4v-1.1c0-1.3 1.1-2.3 2.4-2.3h0c1.6 0 2.9-1.1 3.1-2.7l.8-6.3c.5-4.1 4.1-7.2 8.5-7.2h24.1c4.3 0 7.9 3.1 8.5 7.2l.8 6.3c.2 1.5 1.5 2.7 3.1 2.7h0c1.1 0 2 .9 2 1.9v1.5z" class="B"/><use href="#I" class="H"/><radialGradient id="A" cx="-2987.928" cy="-337.161" r="29.07" gradientTransform="matrix(0 0.6462 -1.0867 0 -149.9503 2323.7986)" gradientUnits="userSpaceOnUse"><stop offset="0" stop-color="#f96e1a"/><stop offset="1" stop-color="#ef610e"/></radialGradient><path d="M250.4 395.6l-1.3-2.4 1.3-2.7-.5-1.6h-77.6v8.2h77.6z" fill="url(#A)"/><path d="M250 388.9h-.1-77.6v1.6h78.1z" fill="#ff931e"/><path d="M250.4 390.5h-78.1v2.5h76.6z" fill="#ffb31e"/><path d="M248.9 393h-76.6v2.5h78.1z" fill="#ffa31e"/><path d="M172.3 395.5v1.6h77.6.1l.4-1.6z" fill="#ff931e"/><path d="M262.2 394.3v-2.6l-11.1-2.7.5 1.5-1.4 2.7 1.4 2.4-.4 1.3z" fill="#f8f0e5"/><path d="M267.6 393l-5.4-1.3v2.6z"/><g opacity=".2" class="B"><path d="M270.4 398.2c0-.4-22.4-.7-50-.7l-50 .7c0 .4 22.4.7 50 .7l50-.7z"/></g><g opacity=".2" class="B"><use href="#J"/></g><g fill="#916d4d"><path d="M316.2 375.1l88-.7V371l-88 .8v3.3z"/><path d="M326.2 374s-8.5 4.6-8.4 7.9c.1 4.3 2.1 2.9 2.1 2.9s7.7-7.8 10.5-9.8c.6-.4-1.9-1-1.9-1h-2.3 0zm68.7-.5s8.6 4.5 8.6 7.8c-.1 4.3-2.1 2.9-2.1 2.9s-7.9-7.7-10.7-9.6c-.6-.4 1.9-1 1.9-1l2.3-.1h0z"/></g><path d="M410.5 367.2v5.4c-4.6 1.5-4.8 11.7-4.8 11.7s-2.1 14.1-18.8 14.3c-19.4.2-22.3-17.9-23-20.9-.6-2.6-3-2.8-3.6-2.8s-2.9.3-3.5 2.9c-.7 3-3.2 21.1-22.6 21.3-16 .1-18-14.1-18-14.1s-1.4-10.2-6-11.6V368s4.4-2.2 17.1-2.3 20.1 1.7 20.1 1.7 9.4 1.8 12.9 1.9c3.5-.1 12.9-2.1 12.9-2.1s7.4-1.9 20.1-2c12.8-.1 17.2 2 17.2 2h0zm-68.6 1.4s-6.2-1.4-15.4.2-8.7 7.9-7.9 11.9 1.8 16.3 17.3 15.7c5.8-.4 15-4.4 17.7-16.4 2.2-9.7-11.7-11.4-11.7-11.4h0zm26 11.4c3 11.9 12.2 15.7 18 16.1 15.5.4 16.3-11.9 17-16s1.2-10.3-8.1-11.8-15.5 0-15.5 0-13.8 1.9-11.4 11.7h0z" class="B"/><g fill="#a1a7a7"><path d="M349.9 371.5l-29.8.2c-1 1-1.5 2.2-1.8 3.4l6.2-.1 1.7-1h2.4s2.4.5 1.9 1l22.7-.2c-.8-1.4-2-2.5-3.3-3.3h0z"/><path d="M328.5 374h-2.4l-1.7 1c-1.9 1.2-4.8 3.2-6.1 5.1 0 .2.1.4.1.6.2 1 .4 2.6.9 4.3.3-.1.5-.2.5-.2s7.7-7.8 10.5-9.8c.7-.4-1.8-1-1.8-1h0z"/></g><path d="M334.9 368c-2.4 0-5.2.2-8.5.8-6.9 1.2-8.3 5-8.3 8.5 0-.7.1-1.5.2-2.3.3-1.2.8-2.4 1.8-3.4 1.3-1.3 3.3-2.4 6.3-2.9a107.04 107.04 0 0 1 8.5-.7c4.4 0 7 .5 7 .5s4.6.6 8.1 2.9c1.3.9 2.4 1.9 3.1 3.3.5.9.8 1.9.8 3.1-.1-7.9-11.9-9.3-11.9-9.3s-2.7-.5-7.1-.5h0z" fill="#94736a"/><path d="M390.7 374.5l-22.4.2c-.5.9-.7 2-.7 3.1 0 .7.1 1.4.3 2.1 3 11.9 12.2 15.7 18 16.1h0 .9 0 0c10.9-.1 14.1-6.7 15.3-11.7-.4 0-.7-.2-.7-.2s-7.8-7.7-10.7-9.6h0zm12.4-.1l-6.4.1c2 1.2 5.2 3.3 6.4 5.3.2-1 .3-2.1.3-3.2-.1-.7-.1-1.5-.3-2.2h0zm-16.7-6.8c-4.4 0-7 .7-7 .7h0s-4.6.6-8 3l29.8-.2c-1.3-1.3-3.3-2.3-6.4-2.8h0-.1c-3.1-.5-5.9-.7-8.3-.7h0z" fill="#eff0f0"/><g fill="#c5c9c9"><path d="M401.3 371l-29.8.2c-1.3.9-2.4 2-3.1 3.4l22.4-.2c-.6-.4 1.9-1 1.9-1h2.3l1.7 1 6.4-.1c-.3-1.1-.9-2.3-1.8-3.3h0z"/><path d="M394.9 373.5h-2.3s-2.4.6-1.9 1c2.8 1.9 10.7 9.6 10.7 9.6s.3.2.7.2c.4-1.7.6-3.3.8-4.3 0-.1 0-.2.1-.3-1.2-2-4.4-4.1-6.4-5.3-.9-.6-1.7-.9-1.7-.9h0z"/></g><path d="M386.8 396h0 0 0 0zm-.8 0h.9-.9 0zm8.9-27.7h0c3.1.5 5.1 1.5 6.4 2.8 1 1 1.5 2.1 1.8 3.3a8.33 8.33 0 0 1 .3 2.2c-.1-3.5-1.6-7.2-8.5-8.3h0 0zm-15.5 0h0s-11.8 1.7-11.8 9.5c0-1.2.3-2.2.7-3.1.7-1.4 1.8-2.5 3.1-3.4 3.5-2.4 8-3 8-3h0 0zm7-.7c2.3 0 5.1.1 8.3.6-3.1-.4-5.9-.6-8.3-.6h0zm0 0h0 0z" fill="#94736a"/><path d="M369.3 384.1l21.4-9.6 11.4 9.9s-2.5 11-14.1 11.5-13.7-7-18.7-11.8z" fill="#e2e4e4"/><use href="#I" x="-88.9" y="-0.5" class="H"/><path d="M341.9 368.6s-2.6-.6-7-.5c-2.4 0-5.2.2-8.5.8-3.1.5-5.1 1.6-6.3 2.9l29.8-.2c-3.4-2.4-8-3-8-3zm-17.4 6.4l-6.2.1c-.2.7-.2 1.5-.2 2.3a12.65 12.65 0 0 0 .3 2.8c1.3-2 4.2-4 6.1-5.2z" fill="#c8cbcb"/><path d="M321.3 389.8c2.1 3.6 6 6.8 13.6 6.7h.9c3.8-.3 9-2.1 13-6.7h-27.5z" fill="#eff0f0"/><path d="M353.6 380.1c.2-.8.3-1.5.2-2.1 0-1.2-.3-2.2-.8-3.1l-22.7.2c-2.8 2-10.5 9.8-10.5 9.8s-.2.2-.5.2c.4 1.5 1 3.2 1.9 4.7h27.5c2.2-2.4 3.9-5.6 4.9-9.7z" fill="#c8cbcb"/><g opacity=".2" class="B"><use href="#J" x="-54.9"/></g><path d="M172.6 400h199.5v1.4H172.6z" opacity=".6" class="I"/><g opacity=".6" class="I"><path d="M349.3 412.9h2.6v1.1h-2.6zm-4.1 1.1H336v-1.1h9.2v1.1zm-23 0h-4.1v-1.1h4.1v1.1zm-13.3 0h-9.2v-1.1h9.2v1.1zm-11 0h-2.8v-1.1h2.8v1.1zm-6.8 0h-9.2v-1.1h9.2v1.1zm-23 0h-2.8v-1.1h2.8v1.1zm-6.8 0h-9.2v-1.1h9.2v1.1zm-20.1-1.1h2.6v1.1h-2.6z"/></g><g opacity=".6" class="I"><path d="M334.1 405.7h.9v1h-.9zm-9.9 1h-6.6v-1h6.6v1zm-8.3 0H306v-1h9.9v1zm-9.9 0h-3.3v-1h3.3v1zm-6.7 0h-1.7v-1h1.7v1zm-11.5 0h-6.6v-1h6.6v1zm-8.3 0h-1.7v-1h1.7v1zm-11.6 0h-6.6v-1h6.6v1zm-8.3 0h-1.7v-1h1.7v1zm-11.6 0h-6.6v-1h6.6v1zm-8.3 0H238v-1h1.7v1zm-14.2-1h.9v1h-.9z"/></g></g><defs ><path id="C" d="M1336.3 2684h43.4v69.1h-43.4z"/><path id="D" d="m1538.8 2732.8h-231.4v10.3c0 5.5 4.5 10 10 10h211.4c5.5 0 10-4.5 10-10v-10.3z"/><path id="E" d="M1336.3 2732.8h43.4v20.3h-43.4z"/><path id="F" d="M350.7 115.2c0 1-.8 1.9-1.9 1.9h-.1c-1 0-1.9-.8-1.9-1.9v-29c0-1 .8-1.9 1.9-1.9h.1c1 0 1.9.8 1.9 1.9v29z"/><path id="G" d="M310.8 258.1h24.5v24.5h-24.5z"/><path id="H" d="M273.2 349.3h-4c-2 0-3.6-1.6-3.6-3.6v-9.4c0-2 1.6-3.6 3.6-3.6h4c2 0 3.6 1.6 3.6 3.6v9.4c0 2-1.6 3.6-3.6 3.6z"/><path id="I" d="M407.5 368.7c0 .4-.6.6-1.3.6s-1.3-.3-1.3-.6c0-.4.6-.6 1.3-.6.7-.1 1.3.2 1.3.6z"/><path id="J" d="M401.8 399.8c0-.4-6.1-.7-13.7-.7-7.5 0-13.7.3-13.7.7s6.1.7 13.7.7c7.6.1 13.7-.3 13.7-.7z"/></defs></svg>