<svg xmlns="http://www.w3.org/2000/svg" viewBox="0 0 500 500" xmlns:v="https://vecta.io/nano"><style><![CDATA[.B{fill:#fbbb8c}.C{fill:#e88034}.D{fill-opacity:.451}.E{fill-opacity:.459}.F{fill:#4c8696}]]></style><path d="M163.989 194.392h154.167v-2.071H163.989v2.071z" class="F"/><g fill="#83a7dd"><path d="M281.079 158.878h14.228v-32.861h-14.228v32.861z"/><use href="#B"/><use href="#B" x="20.693"/><use href="#B" x="23.323" y="-111.559"/></g><g class="F"><path d="M163.127 118.516h156.24v-2.07h-156.24v2.07zm.215 109.038h154.167v-2.07H163.342v2.07zm.044 44.802h154.167v-2.071H163.386v2.071z"/><path d="M317.294 272.523h2.07v-155.56h-2.07v155.56z"/></g><g fill="#fabe76"><use href="#C"/><path d="M237.107 158.36h20.177v-19.146h-20.177v19.146z"/><use href="#C" x="42.422"/><use href="#C" x="42.938" y="33.637"/><path d="M234.003 192.515h20.177v-19.146h-20.177v19.146z"/><use href="#C" x="-6.727" y="33.637"/></g><path d="M163.127 160.432h156.24v-2.071h-156.24v2.071z" class="F"/><g fill="#80d3c3"><use href="#D"/><use href="#D" x="20.823"/><path d="M259.74 225.03h16.814v-11.644H259.74v11.644zm20.824 0h16.813v-11.644h-16.813v11.644z"/></g><g transform="matrix(.296842 0 0 .245983 407.142578 -158.3815)"><g class="B"><path d="M268.38 935.58l647.64.001q0 148 0 296.01-323.82.001-647.64.001 0-148 0-296.01" fill-opacity=".133" transform="matrix(1 0 0 2.015515 -1230.677734 -738.956055)"/><path d="M247.15 1183h66.297 66.297q0 42.581 0 85.162-66.297 0-132.59.001 0-42.581 0-85.163" transform="translate(-1361.159 486.693)"/></g><path d="M243.36 1178.8l70.084.001h70.084q0 11.275 0 22.55-70.084.001-140.17 0 0-11.275 0-22.55" transform="translate(-1361.159 486.693)" class="C"/><path d="M243.36 1178.8q0 1.469 0 2.939h140.17q.002-1.469.002-2.939h-70.084l-70.084-.001z" transform="translate(-1361.159 486.693)" class="D"/><path d="M300.82 1179.2h25.247v1.781H300.82v-1.781" transform="translate(-1361.159 486.693)" class="E"/><use href="#E" transform="translate(-1361.159 486.693)" class="B"/><path d="M244.1 1089.6h70.084 70.084q0 11.275 0 22.55-70.084 0-140.17 0 0-11.275 0-22.55" transform="translate(-1361.159 486.693)" class="C"/><path d="M244.1 1089.6q0 1.469 0 2.939h140.17q.002-1.469.002-2.939h-70.084-70.084z" transform="translate(-1361.159 486.693)" class="D"/><path d="M301.56 1090h25.247v1.781H301.56V1090" transform="translate(-1361.159 486.693)" class="E"/><use href="#E" x="0.75" y="-87.9" transform="translate(-1361.159 486.693)" class="B"/><path d="M244.85 1001.7h70.083 70.084q0 11.275 0 22.55-70.084 0-140.17 0 0-11.275 0-22.55" transform="translate(-1361.159 486.693)" class="C"/><path d="M244.85 1001.7q0 1.47 0 2.939l140.17-.001q.001-1.469.001-2.939h-70.084-70.083z" transform="translate(-1361.159 486.693)" class="D"/><path d="M302.31 1002.1h25.247v1.781H302.31v-1.781" transform="translate(-1361.159 486.693)" class="E"/><use href="#E" x="1.49" y="-177.09" transform="translate(-1361.159 486.693)" class="B"/><path d="M245.59 912.46h70.083 70.084q0 11.275 0 22.55-70.084 0-140.17.001 0-11.275 0-22.55" transform="translate(-1361.159 486.693)" class="C"/><path d="M245.59 912.46q0 1.47 0 2.939l140.17-.001q.001-1.469.001-2.938h-70.084-70.083z" transform="translate(-1361.159 486.693)" class="D"/><path d="M303.05 912.85h25.247v1.781H303.05v-1.781" transform="translate(-1361.159 486.693)" class="E"/><path d="M-885.769 1707.893q-3.193-.001-7.537 2.581-2.193 1.276-6.271 4.267l-28.633 18.245q-4.833 11.929-4.701 15.79-.098 4.082 4.397 4.997l8.93 1.243 11.948 2.547q3.211.634 5.966 1.002 6.642.892 15.486.874 9.442.044 11.502-1.59 1.962-1.091 3.408-5.165 3.403-.202 4.553-1.781 1.134-1.402 1.179-4.403-.664-11.409-8.572-28.028-5.663-10.978-11.604-10.58m-46.231-353.419q-4.591.007-9.661 2.966-5.566 3.33-9.102 7.968-2.037 2.786-2.105 5.282-.031.748.087 1.599.698 3.279 1.37 8.882l37.458-2.745-.976-12.634q-.355-2.365-1.763-4.214-2.353-3.006-6.871-5.157-4.277-1.962-8.411-1.946"/><path d="M-936.239 1346.263l-14.387 8.82q-2.341 9.515-2.344 16.855l5.307-5.323q18.826-3.487 23.971-3.772 5.859-.506 8.302 1.411 1.38-3.196 1.089-3.717-.089-.216-.241-.303-1.059-.483-1.452-.854-.498-.424-.982-1.183-1.009-1.492-3.115-6.622l-16.13-5.305m-12.978 51.753l-3.791 8.984q-14.18 1.452-23.677 10.492-6.565 6.247-8.939 15.083-1.88 6.757-.939 16.69.487 5.333 1.684 11.9 6.581 31.068 6.146 31.25 1.329 10.03.154 17.455l83.088-43.458q4.901-3.054 17.247-1.43-10.833-30.941-18.526-37.294-2.271-2.179-5.354-3.935l-9.593-4.327q-1.549-.745-2.863-1.869-3.184-2.565-5.333-9.736l-29.248-9.786" fill="#535d66"/><path d="M-879.179 1711.393q-4.172 6.181-.07.123m-57.802-267.11q-10.967 30.778-18.317 41.174-7.028 11.116-24.249 22.772-1.26 16.682-.889 25.683.581 16.049 5.525 26.969 2.374 5.424 6.149 11.446l16.68 24.348q3.714 5.68 6.462 11.116 6.842 13.05 14.077 38.367 1.027 55.654 2.004 91.499l3.078.815q3.147.56 7.171-.379 23.117-8.469 25.466-7.222l-3.655-14.212q12.128 4.514 16.168-2.168-.39-.034-.114-1.471 3.016-13.348 3.658-18.699.864-6.573.65-11.263-.189-4.746-1.372-8.269l-10.338-25.9q.537-56.602-1.741-80.43-.879-10.175-2.485-19.688-.41-3.688-6.845-34.018-1.353-7.287-1.82-12.952-1.784-17.853 4.406-50.961l-39.501-6.526"/><path d="M-953.319 1407.033q-3.383.369-6.497 1.173l.002.001q12.159 13.273 16.613 20.331 5.217 7.984 8.389 18.827l9.526 1.467q-2.838-6.796-4.524-10.238-3.898-8.126-8.963-14.732-4.376-5.888-14.543-16.83zm40.46 11.77q3.337 7.383 4.825 12.779 1.757 5.894 4.242 20.509l5.526-.251q-3.139-15.472-5.28-22.906-1.197-4.204-2.358-6.887l.003.001-5.801-2.619q-.594-.286-1.154-.627z"/><path d="M-946.619 1446.343q-1.134.092-.371 1.867.618 1.646 3.667 6.361-14.337 3.291-17.996 7.962-2.6 2.693-5.307 9.36l3.957 3.758q9.701 9.244 21.062 12.658 3.692 1.182 8.303 2.256l19.06 3.945 14.481 3.582q5.567 1.171 10.781 1.298 12.64.22 14.808-7.385 2.107-7.888-5.302-27.619-6.486-1.641-12.15-1.22-3.22.376-5.565 3.821-3.165-2.887-6.063-3.271-1.117-.197-2.74-.195-8.818.403-11.077.162-4.083-.254-8.466-1.399-4.448-1.229-6.315-2.643-.88-.672-1.354-1.461-1.669-3.768-2.054-4.113-.816-1.169-2.008-2.226-5.545-4.666-9.283-5.495m16.272-85.653q-5.985-.256-17.391 5.923l-.323 12.256-1.533.497q-1.823-3.012-3.168-2.232-2.144 1.066-2.001 4.29.756 5.995 5.904 9.707 1.204 4.703 1.159 6.327.073 1.511-1.238 2.905l22.114 20.668 1.401 5.812 2.083-9.801 2.14-6.699-.272-8.119q2.41-1.837 3.237-3.527 1.11-1.839 1.758-8.12 1.716-.364 2.458-2.534 1.629-5.073 1.56-9.682-.146-1.841-.999-2.153-.297-.114-.736.125l-1.605 1.148q-.289-9.684-1.317-14.147-8.679-2.793-13.206-2.646" fill="#ffb295"/><path d="M-942.889 1455.253q3.155 4.223 11.277 6.442 4.105 1.116 11.014 2.062 8.444 1.108 14.021 1.352l.001-.003q.019-.033-1.343-.203-7.784-.916-9.481-1.143-2.517-.323-4.325-.602-4.455-.682-7.675-1.564-1.109-.298-2.882-.85l-6.379-2.503-4.227-2.988zm46.873 12.089q1.333 3.085 1.586 5.016.209 1.622-.693 2.472-.71.715-2.341 1.393l-1.695.659q-2.484.5-3.735.994-1.447.541-2.757 1.4-1.199.79-2.316 1.836-5.305 5.443-6.073 5.969-1.958 1.68-3.878 2.657-2.997 1.569-7.237 1.6-.398.003-.808-.008-4.125-.004-13.179-2.063l-.002.001q9.003 2.535 13.394 2.658.683.036 1.342.032 4.161-.03 7.368-1.69 1.866-.935 4.083-2.706.674-.429 6.905-6.162 1.483-1.27 2.58-1.98 1.239-.807 2.605-1.412.734-.408 5.527-1.975.992-.393 1.471-.895 1.718-1.732-2.137-7.789l-.006-.008zm-16.394 103.41l16.366 40.616q4.405 14.948 5.563 21.035 1.291 6.184 1.511 14.548.221-9.833-.571-16.046-.829-6.988-3.114-14.406-3.736-12.864-19.73-45.695l-.026-.052zm-15.687 79.873l.003.006.001.002-.004-.007zm.004.01l13.932 29.38q.497-5.678-2.281-11.16-2.516-5.541-11.648-18.219zm13.935 29.389q-.556 5.077-.402 5.804.066 1.535.934 3.31.5 1.003 1.24 2.108 5.262 7.255 7.291 10.76 3.617 5.959 8.71 15.496l-17.749-37.432-.024-.048zm-32.431-281.541l12.492 14.729 12.216-10.488q-2.353 2.044-6.086 3.009-3.822 1.001-7.005.458-2.506-.408-5.117-2.162-2.324-1.498-6.493-5.54" fill="#ff0029" fill-opacity=".106"/><path d="M524.76 1108.6v.001h0v-.001.001-.001.001q0-.001 0-.001z" fill="#c2c2c2" transform="translate(-1361.159 486.693)"/></g><defs ><path id="B" d="M274.442 270.825h14.226v-32.861h-14.226v32.861z"/><path id="C" d="M215.896 158.878h20.176v-19.146h-20.176v19.146z"/><path id="D" d="M218.093 225.03h16.814v-11.644h-16.814v11.644z"/><path id="E" d="M247.89 1093.8h66.297 66.297q0 42.581 0 85.162-66.297 0-132.59 0 0-42.581 0-85.162"/></defs></svg>