<svg xmlns="http://www.w3.org/2000/svg" viewBox="118.421 127.88 223.997 188.959" xmlns:v="https://vecta.io/nano"><clipPath id="A"><use href="#H"/></clipPath><clipPath id="B"><use href="#H"/></clipPath><clipPath id="C"><use href="#H"/></clipPath><clipPath id="D"><use href="#H"/></clipPath><clipPath id="E"><use href="#H"/></clipPath><clipPath id="F"><use href="#H"/></clipPath><use href="#I" fill="#0076ae"/><path d="M273.196 304.424l-85.554 12.414V164.476l85.554-12.414z" fill="#066489"/><use href="#I" x="154.776" fill="#0a4c60"/><g transform="matrix(.36375 0 0 .380811 55.819412 46.957394)"><path d="M224 471.1c-2.5 1.1-5 2.4-6.7 4.6-3.3 4.5-1.3 11.4 3.1 15 4.3 3.6 10.2 4.7 15.7 5.4 4 .5 8.7 1.2 10.7 4.8 3.1 5.5-2.8 11.7-4 17.9-1.4 7.5 4.4 14.9 3 22.4-.8 4.4-4.2 8.4-3.9 12.9.4 5.5 5.7 9 10 12.4s8.2 9.5 5 14c-2 2.8-6.3 4.1-6.7 7.5-.2 1.8.9 3.5 2.1 4.9 13.6 16.2 38.7 12.9 59.5 16.7 5.3 1 10.7 2.6 14.4 6.5 8.9 9.4 2.7 25.7 8.6 37.2 2.2 4.4 6.1 7.8 8.5 12.1 8.8 15.6-4 35.6.8 52.8 1 3.6 3 7.3 6.4 8.8 6.3 2.8 13.4-3.3 15.3-10 1.9-6.6.6-13.7 1.5-20.6 1.6-12.1 10-22.3 19.5-29.9s20.4-13.4 30-21c18.7-14.7 31.7-36.4 36.1-59.8.8-4 1.3-8.3 3.5-11.7 4.1-6.5 12.7-8.5 18-14.1.8-.8 1.5-1.9 1.5-3 0-1-.7-1.9-1.4-2.7-11-13-29.6-19-46-14.8-7.7 2-15 6-23 6.4-15 .8-28-14.2-27.2-28.8.5-9.3 7.3-14.3 1.5-22.8-3.5-5.1-10.4-9.4-14.5-14.9-18.3-25.1-44.1-26.3-73.8-24.7-23.2 1.2-46.3 6.8-67.5 16.5z" clip-path="url(#A)" fill="#37aa37"/><path d="M809.6 542c-32.6-10.1-68.2-10-100.7.2-4.7 1.5-9.8 3.6-11.9 8.1s1.9 11.3 6.5 9.7c.2 6.2-7.8 8.8-14 9.5l-44.7 5c-5.3 3.9-3.1 13 2.4 16.5s12.6 3.2 19.1 2.8c17.3-1.2 34.7-2 52.1-2.6 10.5-.3 32.9-5.2 41.7-.5-2.4 7.1-12.7 7.2-14.3 14.2-.7 3.2 1.6 6.6 4.5 8.1 3 1.5 6.4 1.7 9.8 1.8l32.6 1.1c1.3 0 2.8.2 3.7 1.1 1.3 1.4.7 3.9-.8 5.1s-3.6 1.4-5.5 1.6c-12.1.9-24.4.1-36.2 3-4.6 1.1-9.9 3.8-10.3 8.6-.2 3.2 2.1 6.3 5 7.8s6.2 1.8 9.5 2.1c18.2 1.4 33.2.9 50.5-3.5 18-4.6 36.1.6 37.9-23.4 1.5-20.4-.9-41.1-7.1-60.6-1.9-6-6.4-13.1-12.4-11.4" clip-path="url(#B)" fill="#1f871f"/><path d="M424.5 322.4c8.1 2.3 16.8 9.9 13.4 17.6-1.4 3.2-4.6 5.3-7.2 7.7s-4.7 6.2-3.2 9.4c2.5 5.2 10.3 2.8 15.5.5 9-4 19-5.6 28.8-4.5 4.4.5 9.3 1.9 11.4 5.8 2.2 4.1.5 9.4 2.2 13.7 2 5.2 8.6 7.6 14.1 6.4s10-5 13.9-9c8.8-9.2 15.7-23.9 8.1-34.1-12.4-16.8-30.4-10.7-29.4-37.5.6-13.8 4.9-30.7-8.2-40.5-21.7-16.2-57.6 9.1-72.2 24.5-19.4 20.4-11 33.2 12.8 40z" clip-path="url(#C)" fill="#37aa37"/><path d="M428.5 539.4c-7.7 2-15 6-23 6.4-15 .8-28-14.2-27.2-28.8.5-9.3 7.3-14.3 1.5-22.8-3.5-5.1-10.4-9.4-14.5-14.9-.9-1.3-1.9-2.5-2.9-3.7V723c1.5-1.8 2.7-3.9 3.3-6 1.9-6.6.6-13.7 1.5-20.6 1.6-12.1 10-22.3 19.5-29.9s20.4-13.4 30-21c18.7-14.7 31.7-36.4 36.1-59.8.8-4 1.3-8.3 3.5-11.7 4.1-6.5 12.7-8.5 18-14.1.8-.8 1.5-1.9 1.5-3 0-1-.7-1.9-1.4-2.7-10.8-13-29.4-19-45.9-14.8z" clip-path="url(#D)" fill="#1f871f"/><g stroke="#f8df88" fill="none"><g clip-path="url(#E)" stroke-linecap="round" stroke-miterlimit="10" stroke-width="6.52"><path d="M635.2 433h8.2"/><path d="M659.7 433h26.4c22.8 0 41.3 18.5 41.3 41.3v.9c0 22.8-18.5 41.3-41.3 41.3H489.4c-22.8 0-41.3-18.5-41.3-41.3v-40.9c0-22.8-18.5-41.3-41.3-41.3H188.4" stroke-dasharray="16.3184px, 16.3184px"/><path d="M180.2 393h-8.1"/></g><path d="M407.7 656h152.1c20.9 0 37.8-16.9 37.8-37.8v-11.8c0-20.9-16.9-37.8-37.8-37.8h0c-20.9 0-37.8-16.9-37.8-37.8V418.2c0-20.9 16.9-37.8 37.8-37.8h241.9" clip-path="url(#F)" stroke-dasharray="16.3001px" stroke-linecap="round" stroke-miterlimit="10" stroke-width="6.52"/></g></g><path d="M280.762 127.88c-15.132 0-27.39 12.833-27.39 28.675v.343c.036 1.79.182 3.58.509 5.293.764 5.103 2.583 13.138 6.984 22.011 7.457 15.042 19.861 27.647 19.861 27.647s12.404-12.567 19.861-27.647c4.401-8.911 6.22-16.946 6.984-22.011.327-1.714.509-3.465.509-5.293v-.343c.036-15.842-12.222-28.675-27.318-28.675zm0 45.355c-8.803 0-15.932-7.464-15.932-16.68s7.13-16.68 15.932-16.68 15.932 7.464 15.932 16.68c-.036 9.216-7.166 16.68-15.932 16.68zm-112.29 16.261c-10.658 0-19.315 9.063-19.315 20.221v.228c0 1.257.145 2.513.364 3.732.546 3.58 1.819 9.254 4.911 15.537 5.274 10.625 14.004 19.498 14.004 19.498s8.766-8.873 14.004-19.498c3.128-6.283 4.401-11.957 4.911-15.537.218-1.219.364-2.437.364-3.732v-.228c.073-11.158-8.584-20.221-19.242-20.221zm0 31.988c-6.208 0-11.24-5.268-11.24-11.767s5.032-11.767 11.24-11.767 11.24 5.268 11.24 11.767-5.032 11.767-11.24 11.767z" fill="#cc333f"/><defs ><path id="H" d="M597.6 276l-235.2 32.6L172.1 276v400.1l190.3 32.6 235.2-32.6 190.3 32.6V308.6z"/><path id="I" d="M187.642 316.838l-69.222-12.414V152.061l69.222 12.414z"/></defs></svg>