<svg xmlns="http://www.w3.org/2000/svg" viewBox="0 0 500 500" xmlns:v="https://vecta.io/nano"><style><![CDATA[.B{fill-opacity:.996}.C{fill:#fff}.D{fill:#3c464f}.E{fill:#feba9b}]]></style><g shape-rendering="geometricprecision"><path d="M84.981 204.676s-23.188-40.536-13.505-88.185c8.69-42.765 47.983-70.444 68.862-49.263 10.099 10.246 18.26-30.937 51.781-46.012 24.788-11.149 61.444 13.853 52.133 90.422-7.078 58.214 28.032 29.19 20.366 93.501l-179.637-.463z" fill="#ebf3fa"/><path d="M307.796 48.411c-123.842 130.032 7.949 91.573 12.787 100.556 2.703 5.02 8.476 3.819 11.574-.793s2.902-17.285 2.902-17.285-10.579-15.817-6.277-28.021c9.594-27.208 5.09-43.07-20.986-54.457z" fill="#e8f0f7"/></g><g transform="matrix(.302456 0 0 .302456 -1.672885 -192.54758)"><path d="M726.45 789.7H354.11q0 121.06 0 242.12 186.17 0 372.34 0 0-121.06 0-242.12z"/><path d="M717 800.63l-176.72.001H363.56q0 109.48 0 218.95 176.72 0 353.44 0 0-109.48 0-218.95z" fill="#d2f0ff"/><path d="M794.68 1288.9l-2.455 2.567q-17.451 7.755-102.12 12.405-85.259 4.646-200.8 3.768-110.26-1.227-176.37-7.183-21.182-1.925-34.895-4.195l-11.525-2.334q-9.498-2.409-9.605-5.028 2.883-8.036 78.754-13.373 75.871-5.336 190.13-5.539 114.26.203 190.13 5.539 75.872 5.336 78.756 13.373" fill-opacity=".169"/><path d="M323.62 1013.3h0v.001-.001h0 0v.001q0-.001 0-.001" fill="#234b69" class="B"/><path d="M432.92 954.1h0 0" fill="#569a9d"/><g class="C"><path d="M423.45 823.52l-.039 170.82 134.6-.435.039-170.36-134.6-.031z"/><path d="M425.71 829.59l-1.004 151.54 132.09.03.999-150.7-132.08-.875z"/><path d="M518.83 834.29l-86.135-.571c-1.788-.012-3.263 1.441-3.275 3.23s1.443 3.263 3.231 3.275l86.136.572c1.79.011 3.264-1.442 3.276-3.232s-1.443-3.262-3.234-3.274z"/></g><g fill="#ecf0f1"><path d="M433.83 853.04l56.716.376-.444 66.924-56.716-.375.444-66.925zm63.71.43l-.018 2.625 48.776.323.017-2.625-48.775-.323zm-.07 10.87l-.018 2.625 48.776.323.017-2.625-48.775-.322zm-.07 10.86l-.017 2.626 39.127.259.018-2.625-39.127-.26zm-.07 10.87l-.018 2.626 48.775.323.018-2.625-48.775-.323zm-.07 10.87l-.017 2.626 48.775.323.018-2.626-48.775-.323zm-.08 10.87l-.009 1.312-.009 1.312q13.703.091 27.406.181l.017-2.624q-13.703-.091-27.406-.182zm-63.84 19.25l-.017 2.626 99.436.659.018-2.625-99.436-.659zm-.07 10.86l-.017 2.626 99.436.658.018-2.625-99.436-.659zm-.07 10.87l-.017 2.626 79.766.528.018-2.625-79.767-.529zm-.07 10.87l-.017 2.625 99.436.658.017-2.625-99.436-.659zm-.08 10.87l-.017 2.626 99.436.658.017-2.625-99.436-.659z"/><path d="M497.47 864.33h0 0 0q0-.001 0-.001z"/></g><path d="M427.67 829.52l109.22.025q-.001 4.048-.002 8.096-54.608-.012-109.22-.025.001-4.048.002-8.096z" class="C"/><path d="M497.38 876.66h0 0 0q0 0 0 0z"/><path d="M497.38 876.66h0 0 0q0 0 0 0zm12.12 6.9z"/><path d="M477.73 837.15v.001h0v-.001.001-.001.001q0-.001 0-.001z" fill="red"/><path d="M460.44 859.42l-1.166 21.211-19.108-8.685a14.01 14.01 0 0 1 14.011-14.004 13.91 13.91 0 0 1 6.263 1.478z" fill="#f7b239"/><path d="M468.18 871.96a13.89 13.89 0 0 1-1.022 5.254h-.004l-13.484 3.022.502-8.28 6.266-12.529a14 14 0 0 1 7.742 12.533z" fill="#f95428"/><path d="M467.16 877.21h.004c-2.079 5.13-7.11 8.751-12.989 8.749a14.01 14.01 0 0 1-14.004-14.01l14.007.003 12.982 5.257z" fill="#2ba5f7"/><path d="M474.45 888.73l9.646.002-.006 26.659-9.646-.002.006-26.659zm0 0l9.646.002-.006 26.659-9.646-.002.006-26.659zm0 0l9.646.002-.006 26.659-9.646-.002.006-26.659zm0 0l9.646.002-.006 26.659-9.646-.002.006-26.659zm-17.7 8.38l9.646.003-.004 18.274-9.646-.002.004-18.274zm0 0l9.646.003-.004 18.274-9.646-.002.004-18.274zm0 0l9.646.003-.004 18.274-9.646-.002.004-18.274zm0 0l9.646.003-.004 18.274-9.646-.002.004-18.274z" fill="#f7b239"/><path d="M439.05 904l9.646.002-.003 11.379-9.646-.002.003-11.379zm0 0l9.646.002-.003 11.379-9.646-.002.003-11.379zm0 0l9.646.002-.003 11.379-9.646-.002.003-11.379zm0 0l9.646.002-.003 11.379-9.646-.002.003-11.379z" fill="#2ba5f7"/><path d="M528.35 1106.8l1.08 12.745 17.39-1.07-18.462-11.67"/><path d="M534.98 1119.2l-3.58.219-10.554 144.55q.017 1.807 1.779 1.979 1.543-.157 1.76-1.64l10.595-145.11zm119.1-10.9l-.991.089 1.021 6.355q-.038-1.854-.077-3.734-.048-1.084.052-2.71z" fill="#716565"/><path d="M500.97 1050.8h20.893l20.893.001q0 26.389 0 52.779-20.893 0-41.786 0 0-26.39 0-52.78z"/><path d="M470.95 1097.8l101.83.001q0 4.051 0 8.102-50.916 0-101.83 0 0-4.051 0-8.103z"/><path d="M525.38 1061.3v.001-.001a.36.36 0 0 1-.359.359.36.36 0 0 1-.359-.359v.001-.001a.36.36 0 0 1 .359-.359.36.36 0 0 1 .359.359z" fill="#fce9ea"/><path d="M508.98 1270.6l3.994 18.627q-10.55 2.112-14.689 2.168-3.8.297-10.755-1.299l1.996-26.892 19.454 7.397m47.08-1.801l2.582 21.456q-7.681 2.271-11.346 2.188-3.849.105-10.74-2.035l3.33-19.024 16.174-2.585"/><path d="M512.44 1187l-.447 43.792-.447 43.792-23.97.349q-4.837-43.894-9.674-87.789l34.539-.144m21.989-.8l1.035 44.476 1.035 44.476q12.404-.072 24.809-.142 5.086-45.305 10.172-90.611l-37.05 1.802" fill="#1e292f"/><path d="M394.04 1106.4l262.32.001q0 4.986 0 9.973-131.16 0-262.32.001 0-4.987 0-9.975" class="C"/><path d="M462.24 1075.2v.001 35.916q12.056 7.108 24.113 14.217-4.86-21.793-9.72-43.586l-14.393-6.547m122.13-7.101v.001 35.916q-12.057 7.109-24.113 14.217 4.86-21.793 9.72-43.586l14.393-6.547" fill="#ffbfaf" class="B"/><path d="M423.04 1116.1l11.087.001q0 87.657 0 175.32-5.544 0-11.087 0 0-87.658 0-175.32m202.34-.001h5.544 5.544q0 87.657 0 175.31-5.544 0-11.088 0 0-87.658 0-175.32" class="C"/><path d="M573.2 1124.1h6.936l6.936.001q0 34.21 0 68.42-6.936.001-13.872.001 0-34.21 0-68.421m-113.74-.801l13.872.001q0 34.21 0 68.42-6.936 0-13.872 0 0-34.21 0-68.421" fill="#222b32"/><path d="M574.99 1294.5l-.465.995q-3.305 3.003-19.343 4.804-16.149 1.8-38.032 1.46-20.885-.475-33.407-2.782-4.012-.746-6.61-1.625l-2.183-.904q-1.799-.933-1.819-1.948.546-3.112 14.917-5.179 14.371-2.067 36.012-2.145 21.642.079 36.013 2.145 14.371 2.067 14.917 5.179"/><path d="M580.51 1184.8l-.521 3.205q-2.635 6.015-8.517 9.564-4.91 3.243-13.669 6.135-16.947 5.267-39.687 4.59-23.664-1.12-38.084-8.242-1.175-.336-4.64-2.604l-2.49-1.8q-2.29-1.808-3.775-3.647-2.971-3.678-2.727-7.48.795-9.852 16.745-16.359 16.543-6.841 40.308-6.979 22.293.093 39.239 6.409 17.13 6.811 17.818 17.209" class="B"/><path d="M535.04 1269.3l27.768.002q0 3.183 0 6.368-13.884 0-27.768 0 0-3.185 0-6.37m-48.58 1.2h13.278l13.278.001q0 3.145 0 6.29-13.278 0-26.556 0 0-3.146 0-6.291" fill="#1e292f"/><path d="M518.09 1197.5l11.945.001q0 49.357 0 98.715-5.973 0-11.945 0 0-49.358 0-98.716m-105.86-117.4h13.065l13.065.001q0 13.064 0 26.129-13.065 0-26.131.001 0-13.066 0-26.131"/><path d="M404.98 1086.6h0 12.05a1.27 1.27 0 0 1 1.269 1.269h0v12.049a1.27 1.27 0 0 1-1.269 1.269h0l-12.05.001a1.28 1.28 0 0 1-.897-.372 1.27 1.27 0 0 1-.372-.897h0v-12.051a1.27 1.27 0 0 1 1.269-1.269h0m0 2.538l1.269-1.269v12.051l-1.269-1.268 12.05-.001-1.269 1.269v-12.049l1.269 1.269h-12.05zm49.42 69.663l134.75.001q0 8.924 0 17.848-67.376.001-134.75.001 0-8.924 0-17.849"/><path d="M503.96 1004.5l.11 1.486q.865 9.849-.167 14.573-.802 4.349-5.609 8.929l43.702-6.312q-7.152-2.81-9.111-6.98-2.248-3.677-3.512-16.559l-25.412 4.862m-5.821-7.569l-.021.966q-.315 2.929-2.376 4.766-2.076 1.836-5.003 1.631-2.8-.342-4.563-2.505-.565-.699-.948-1.537l-.328-.864q-.278-.894-.323-1.876-.056-3.019 1.771-5.104 1.828-2.085 4.706-2.284 2.885-.047 4.884 1.874 1.999 1.921 2.201 4.934m44.64-4.511l-.021.966q-.315 2.93-2.376 4.766-2.076 1.836-5.003 1.631-2.801-.342-4.563-2.505-1.762-2.179-1.578-5.243.316-2.929 2.376-4.766 2.075-1.836 5.003-1.631 2.8.342 4.563 2.505.565.7.948 1.538l.328.863q.278.894.323 1.877" fill="#ffbfaf" class="B"/><path d="M542.41 1017.2v.001h0 0v.001l-44.344 4.352c-13.21 6.73-22.231 12.004-27.18 15.667-5.124 3.793-8.716 7.961-10.858 12.571-2.44 5.251-11.788 46.369-2.327 57.137s18.718 19.745 23.747 16.2c5.392-3.8-4.301-35.24-4.301-35.24l2.236 8.303c7.167 26.61 2.892 50.713-1.494 75.534l84.246.425c-2.6-6.306-3.663-27.026-4.17-36.12-.944-16.923 5.326-52.078 5.326-52.078l12.517 29.02c-.284-3.626 12.295-2.696 14.822-15.083 2.408-11.804-5.23-36.988-5.467-38.839-1.644-12.843-4.875-21.19-9.515-25.311-1.978-1.756-4.278-3.491-7.155-4.934l-16.198-6.352c-2.774-1.204-6.069-2.955-9.883-5.252l-.004-.003h0 0 0z" fill="#527486"/><path d="M504.16 978.2q-.886.005-1.521.615-.619.622-.64 1.51.007.888.613 1.518.623.62 1.507.641.886-.004 1.522-.614.62-.621.642-1.509-.006-.888-.612-1.519-.621-.62-1.506-.643z" class="C"/><path d="M503.84 978.19q-.416 0-.612.1l-1.277.85.719-.264q-.126.699-.061 1.157.063.515.342 1.109.696 1.4 1.447 1.407.357-.004.62-.303.253-.307.281-.764.083-.735-.667-2.824l.049-.335.753-.046q-1.17-.094-1.588-.087zm-.73-3.68q-1.168.331-2.39 1.961l6.356-1.097-.067-.032-.67-.279q-.357-.145-.635-.244-.546-.197-.999-.297-.911-.203-1.592-.012z"/><path d="M492.31 980.52q-.886.005-1.521.615-.619.622-.64 1.51.007.888.613 1.518.623.62 1.507.641.886-.004 1.522-.613.62-.622.641-1.51-.006-.888-.612-1.519-.621-.62-1.506-.643z" class="C"/><path d="M492 980.51q-.416.001-.612.101l-1.277.85.719-.264q-.126.699-.061 1.156.063.515.342 1.109.696 1.401 1.447 1.406.357-.004.62-.302.253-.307.281-.764.082-.736-.668-2.824l.049-.334.752-.047q-1.17-.094-1.588-.088zm-.74-3.68q-1.168.33-2.39 1.96l6.356-1.097-.067-.033-.67-.279q-.357-.144-.635-.244-.546-.197-.999-.297-.911-.203-1.592-.012zm-23.21 86.07h56.012l56.012.001q0 63.421 0 126.84-56.012 0-112.02 0 0-63.422 0-126.84"/><path d="M491.55 1026.4l7.142-3.466 1.247-5.526 37.057-5.576 5.305 9.481-50.751 5.087" fill="#527486"/><path d="M529.54 959.24l1.353.355q4.179.881 7.283 3.404.995.902 1.751 2.168l.682 1.38q.614 1.483.9 3.466 1.297 10.442-4.832 29.108-1.79 4.907-3.801 8.093-1.01 1.605-2.105 2.861-.479.803-3.529 3.125-9.343 5.348-17.873 3.185-10.79-2.578-19.525-20.342-3.197-6.764-4.496-13.822-1.293-7.055.327-12.907.84-2.881 2.313-5.344l1.59-2.353q1.728-2.247 3.84-4.047 2.112-1.8 4.442-3.135 1.153-.973 7.066-2.909 5.462-1.432 10.747.011 5.916 1.63 13.865 7.702" fill="#6b2725"/><path d="M561.45 930.45q-.698.189-.705 1.288-.009.606.133 1.516.955 4.81.846 4.871.095 1.361-.434 2.282-1.692.758-3.155.275-.934-.26-2.516-1.138l-4.787-2.925q-.87-.384-1.356.426-.284.611.397 1.431.345.418.896.9 3.316 2.682 3.355 2.836.771.767 1.077 1.776-6.462-3.839-10.999-7.247-1.5-.775-2.287.261-.521.976 1.004 2.505.583.614 1.715 1.574l6.193 5.127q1.481 1.298 1.314 1.431-1.184-.26-4.644-2.697-1.463-.98-3.784-3.506-.375-.332-.734-.505-1.034-.459-2.027-.154-.828.352-.599 1.117.237 1.498 6.653 6.006-2.542-1.572-2.909-1.292-.331.152.117 1.164-.019.331.823 1.069 3.899 3.561 8.428 5.973 2.879 1.5 5.375 1.727 2.357.291 6.568-.508l3.181.32.957-8.971q-.235-1.049-.707-2.804-.617-2.271-1.258-3.673-.274-.719-2.135-3.796-.316-.575-.599-1.283-.311-.789-.531-1.606-.199-.683-.48-2.256-.053-.243-.173-.482-.799-1.104-2.18-1.04z" fill="#ffc0a5"/><path d="M568.64 945.72l-3.327 15.552 3.5.75.057-.007 3.326-15.533-3.55-.76z" class="C"/><path d="M616.59 824.08q-4.355.238-6.971 3.004-2.865 2.836-5.507 9.451-2.402 5.799-2.308 5.773-.484 1.458-.5 2.669-.174 2.534 2.231 10.844l36.012 11.874q3.446-12.055 3.304-18.009-.022-6.644-3.376-13.096-3.452-6.443-7.939-8.757-8.466-3.983-14.879-3.756z" fill="#0e0400"/><path d="M643.34 881.75l-36.72 25.412-14.147 43.396-23.379-4.729-3.82 19.704 22.329 6.892-5.779 47.704 96.202.023-4.487-16.315 17.55-22.792q-4.076-39.81-8.831-59.298-1.585-6.496-3.246-10.734-3.162-7.598-6.992-11.708-4.394-6.468-21.152-8.643l-7.528-8.91z"/><path d="M641.42 881.01l-19.7 15.39-4.142-.856-1.198 6.752q-10.73 21.551-13.468 29.46-5.756 14.984-7.985 34.635-1.634 12.861-3.141 40.555.155.358 1.71 2.159 3.442 4.054 9.737 4.2 5.691.384 23.109-3.015-8.397-21.07-10.679-33.522-2.837-14.162-1.308-27.514 1.475-13.102 7.776-26.902 5.578-12.831 21.584-38.633l.035-.129-2.326-2.577z" class="C"/><path d="M620.4 898.57l-4.322 4.136-1.372 4.9q-3.16 3.926-5.581 9.236-4.616 10.185-9.209 25.87-3.96 13.726-5.707 25.514-1.91 12.202-3.094 31.624l3.158 6.783 7.76-7.968 16.058-89.266 4.913-4.694-2.589-6.097z" fill="red"/><path d="M623.07 838.82q-1.353-.006-3.213.268-6.105 1.239-10.739 1.818-2.058.376-3.022 1.058-2.995 1.987-3.209 10.205-.106 3.903.852 8.461.126 6.61.472 9.481.385 3.567 1.328 5.669.427.978.96 1.841l2.697 3.96q3.533 6.536 3.765 6.443 1.298 1.739 4.04 1.345l.904 6.597 4.09.744 19.422-13.755-.314-15.486q2.939-2.351 3.493-10.652.11-6.261-4.602-4.165-1.369.811-2.062 2.351-.918 1.846-1.205 6.746l-1.033.245q-2.079-14.216-4.616-18.494-2.312-4.72-8.007-4.68zm13.21 177.58l-2.037 1.849-2.037 1.849 7.778.003-3.704-3.701z" fill="#ffc0a5"/><path d="M639.23 1013.9l-4.187 2.941 3.33 3.316 8.335.004-7.478-6.26z" class="C"/><path d="M631.33 880.16q-4.378 5.396-6.848 6.871-2.448 1.674-7.527 2.309l.849 6.531 4.084.9 11.572-8.484-2.13-8.126z" fill="#ff4d00" fill-opacity=".114"/></g><path d="M360.027 109.289h0 0a.63.63 0 0 1-1.042.477h0l-50.451-43.544.496.147-12.228 1.648.414-.238-42.727 55.053a.63.63 0 1 1-.996-.773h0l42.727-55.053a.63.63 0 0 1 .414-.238h0l12.228-1.648a.63.63 0 0 1 .496.147h0l50.451 43.544-1.042.477h0a.63.63 0 1 1 1.26 0z" fill="#929fa8"/><path d="M256.327 110.564l5.396-1.572 2.343 1.393-7.562 2.237-3.724-1.042 3.548-1.016z" class="E"/><path d="M235.207 121.121l4.683-.841 16.264-11.896 2.989 4.776c-8.301 7.52-13.615 12.114-15.928 13.802-1.972 1.439-3.072 2.153-3.262 2.254-1.223.65-2.159 1.057-2.868 1.162-.937.139-1.824-.136-2.671-.887l.792-8.371z" class="D"/><path d="M259.64 182.255h2.962 2.962q0 6.89 0 13.779-2.962 0-5.924 0 0-6.89 0-13.78m15.301-18.092h2.962 2.962q0 15.936 0 31.872-2.962 0-5.924 0 0-15.936 0-31.873m15.302-20.969h2.962 2.962q0 26.421 0 52.842-2.962 0-5.924 0 0-26.421 0-52.843m30.603-21.785h2.962 2.962q0 37.599 0 75.198-2.962 0-5.924 0 0-37.599 0-75.198m15.301 15.153h2.962 2.962q0 31.136 0 62.273-2.962 0-5.924 0 0-31.136 0-62.273m15.302-8.93h2.962 2.962q0 34.203 0 68.405-2.962 0-5.924 0 0-34.203 0-68.405"/><path d="M409.543 201.753l-.925.179q-6.577.542-38.489.867-32.133.325-75.678.263-41.558-.086-66.474-.502-7.983-.135-13.152-.293l-4.344-.163q-3.58-.168-3.62-.351 1.087-.562 29.682-.935 28.595-.373 71.659-.387 43.063.014 71.659.387 28.595.373 29.682.935" fill-opacity=".306"/><path d="M247.899 192.838c-.018 4.383 2.994 7.925 6.752 7.94l125.69.515c3.758.011 6.799-3.506 6.817-7.889l-139.26-.562zm12.768-21.095h0l18.713-21.312-.263.392 6.99-13.98a1.84 1.84 0 0 1 1.065-.924h0l20.97-6.99-.95.726 13.98-20.97a1.84 1.84 0 0 1 2.835-.281h0l20.97 20.97-2.776.197 20.97-27.96a1.842 1.842 0 1 1 2.947 2.21h0l-20.97 27.96a1.84 1.84 0 0 1-2.776.197h0l-20.97-20.97 2.835-.281-13.98 20.97a1.84 1.84 0 0 1-.95.726h0l-20.97 6.99 1.065-.924-6.99 13.98a1.84 1.84 0 0 1-.263.392h0l-18.713 21.312a1.842 1.842 0 1 1-2.768-2.43z"/><path d="M357.925 97.887h0l13.985 9.93q-1.014-5.979-2.027-11.958l-11.958 2.027"/><path d="M277.322 60.693h0 0 0 0 0 0q0 0 0 0" fill="#ff1c00" class="B"/><path d="M305.544 136.933h2.962 2.962q0 29.835 0 59.67-2.962 0-5.924 0 0-29.835 0-59.671m61.206-22.603h2.962 2.962q0 40.927 0 81.854-2.962 0-5.924 0 0-40.927 0-81.854"/><path d="M314.198 73.205l-.102 1.523q-.729 4.604-4.264 7.364-3.56 2.758-8.384 2.237-4.604-.729-7.364-4.264-.884-1.143-1.457-2.49l-.481-1.385q-.397-1.43-.401-2.985.12-4.771 3.288-7.939 3.168-3.168 7.939-3.288 4.771.12 7.939 3.288 3.168 3.168 3.288 7.939" class="B"/><path d="M251.022 185.665h0 0 0z" class="E"/><path d="M242.805 196.619l-.052-.526c-.246-2.458-.619-4.515-1.076-6.181l-.738-2.546-2.078-6.539-.796-3.095c-.053-.257-.143-.831-.233-1.73l-.096-3.453c.008-.146-.055-.761-.195-1.845-.218-1.691-.667-3.855-1.457-6.46-.637-2.101-1.365-3.668-2.068-4.738l-.631-1.023c-1.363-1.188-2.288-2.187-2.827-2.962-.533-.765-1.215-2.075-1.996-3.967 1.249-9.133 4.639-10.577 4.639-10.577 3.256-1.387 8.659 4.911 8.659 4.911l2.319 6.949.748 2.402c1.043 5.536 1.739 9.726 2.035 12.576.347 3.347.249 6.176-.239 8.483l1.867 10.027c.261 1.251.685 2.748 1.255 4.503.128.395.164.702.152.9-.022.354-.159.572-.349.723-.2.157-.695.399-1.538.664l-2.477-6.985 2.687 7.438c-.597 1.339-1.244 2.111-1.86 2.469-.533.309-1.719.553-3.653.584z" class="B"/><path d="M240.495 163.393h0 0 0z" class="B"/><path d="M228.425 133.997h0 0 0z" fill="#7d8b96" class="B"/><path d="M227.023 116.071l-.01-.024q-.816-2.748-1.013-3.167-.189-.483-.391-.85-.786-1.298-.988-1.78-.432-1.002-.594-1.625-.352-1.354-.348-1.953-.021-.391.015-.758l.053-.358q.07-.348.205-.657.273-.618.748-1.073.323-.388 1.381-.878.735-.294 1.662-.373 1.046-.09 2.784.056.59-.062.86-.138.723-.053.93-1.241.762.85.919 1.347.343.765.05 2.855l-2.048 5.76-4.215 4.856z"/><path d="M226.814 117.314h0l-.103-2.114-.192-.773q.852-.207 1.256-.681.36-.459.441-1.218.039-.649-.036-.925-.035-.182-.088-.357-.381-1.105-.361-1.174-.076-.288.033-.727.409-.956.998-.818.159.011.449.285.112.075.768.995.172.214.226.13.058-.181.04-.387-.096-1.498-.097-2.038.02-.991.072-1.157.098-.996.962-1.773 1.406-.972 2.302-.481 1.017 1.666 1.161 2.234.209.615-.103 1.314 1.683 1.664 1.763 2.107.216.512-.874.755.345.755.322.98.012.252-.357.453.295-.009.3.355-.01.322-.206 1.105.246.818.195 1.223-.085.385-.251.478-.224.246-1.323.496l-1.334-.168-.577 1.072-5.386.81z" fill="#ffba9b" class="B"/><path d="M236.286 114.822h0 0 0z" class="B"/><path d="M235.56 146.762l-.185.581q-1.462 4.709-2.676 5.493-1.318 1.038-3.744.841-.244-.548-.484-1.102-1.337-3.024-1.722-5.49-.101-.457-.232-2.137-.211-6.085-.269-6.276-.025-.568-.241-2.264-.295-2.177-1.836-8.129-.403-1.957-.412-2.294-.177-1.049-.027-2.662-.009-.386.466-1.961.523-1.542 2.083-3.897l.345-2.128 6.239.5.199 1.771q4.226 4.479 5.156 6.984 1.186 2.683 1.831 5.702.097.052 1.813 9.641.598 3 .913 4.177.683 2.598 1.424 3.621-1.954 1.292-3.44 1.05-1.395-.083-5.202-2.023z" class="D"/><path d="M252.861 121.321l3.3-4.549 2.705-.336-4.604 6.403-3.581 1.459 2.18-2.978z" class="E"/><path d="M231.266 127.47l4.216-2.206 20.143-.57-.566-5.606c-11.168-.854-18.183-1.227-21.045-1.143-2.44.072-3.747.182-3.959.218-1.364.236-2.354.488-2.978.839-.826.465-1.358 1.226-1.566 2.338l5.757 6.129z" class="D"/><path d="M232.595 107.488l.056-.038q.365-.259.616-.32.056-.013.111-.018.028-.006.166-.002.138.007.386.064-.385.048-.61.103-.22.05-.724.212zm.376 1.041h0 0 0z" class="B"/><path d="M232.919 107.911h0l.677-.421q.1.12.119.205.025.08.011.29l-.807-.074z" class="B C"/><path d="M233.591 107.486l-.145.282.262.208q.029-.113.034-.171.004-.058.002-.068-.001-.022-.006-.042-.005-.02-.013-.039-.002-.01-.031-.054-.03-.044-.102-.115zm15.502 83.648h0l3.582.079q.318-.011.619-.005.149.004.288.018.725.041.907.601.099.199.12 1.061l-6.842.729 1.326-2.485z" class="B"/><path d="M251.55 191.565h0 0 0zm-3.055-.295l.189.114q1.328.792 2.09.876.432.075.875.063.253-.006.517-.028 1.717-.182 1.785-.156.601-.009.887.14.386.128.46.839-.005.681-.535 1.341-.574.758-2.421 1.248-.161.049-1.036.246l-5.967 1.307q-.716.243-1.084.314-.815.146-1.149-.103-.445-.252-.658-1.22-.173-.542-.28-3.079l2.392.986 3.935-2.887z" class="B"/><path d="M261.989 109.094h0l1.968 1.778q-2.41 1.116-4.82 2.233-.542-.806-1.084-1.612l3.936-2.398m-3.151 7.336l-.08 1.693-.08 1.693q-1.643 1.785-3.286 3.57-.063-1.055-.126-2.111l3.571-4.845m1.793 2.04h0" class="E B"/><path d="M307.826 72.518l-.017.659q-.232 2-1.708 3.255-1.487 1.254-3.579 1.116-2-.232-3.255-1.708-.402-.477-.674-1.049l-.233-.589q-.197-.61-.227-1.281-.034-2.062 1.277-3.486 1.311-1.424 3.368-1.562 2.062-.034 3.486 1.277 1.424 1.311 1.562 3.368" class="B D"/><path d="M359.062 106.401l2.163 1.559 2.163 1.559q-1.295 1.796-2.59 3.593-2.163-1.559-4.325-3.118l2.59-3.593" fill="#929fa8"/><g class="D B"><path d="M339.525 77.013h0 0 0 0 0 0q0 0 0 0"/><path d="M339.525 77.013h0 0 0 0 0 0q0 0 0 0"/></g><path d="M253.347 157.801h0 0 0" fill="#215f89" class="B"/><path d="M303.943 63.756l-.009.128q-.061.388-.359.62-.3.232-.706.188-.388-.061-.62-.359-.074-.096-.123-.21l-.041-.117q-.033-.12-.034-.251.01-.402.277-.669.267-.267.669-.277.402.01.669.277.267.267.277.669m-8.435 9.406l-.009.128q-.027.172-.101.314-.037.071-.086.134-.017.036-.172.172-.133.103-.288.152-.035.021-.243.042-.085.004-.175-.006-.048 0-.241-.067-.075-.031-.142-.074-.134-.086-.237-.218-.231-.32-.192-.665.017-.172.085-.317.034-.073.081-.139.016-.038.167-.181.25-.212.608-.221.179.005.33.06.042.006.213.111.066.047.125.106.038.025.149.193.04.069.068.145.055.152.06.33m8.437 8.854l-.009.128q-.057.38-.359.62-.29.226-.666.192-.386-.049-.613-.306-.047-.049-.095-.128-.1-.18-.104-.218-.049-.147-.045-.299.013-.394.277-.655.274-.274.668-.279.203.008.356.067.209.094.333.228.253.281.257.65m9.077-8.854l-.009.128q-.025.169-.099.31-.103.171-.138.196-.055.06-.122.114-.129.101-.275.15-.186.05-.228.045-.079.005-.163-.002-.048.001-.239-.056-.074-.026-.14-.063-.127-.068-.244-.199-.247-.305-.234-.634.003-.088.018-.169.049-.197.074-.228.068-.142.185-.258.061-.061.128-.108.172-.107.214-.113.151-.055.326-.058.381.002.66.266.099.106.129.159.044.067.075.138.032.071.051.147.037.193.03.236" fill="#3b454e" class="B"/></svg>