<svg xmlns="http://www.w3.org/2000/svg" viewBox="0 0 500 500" xmlns:v="https://vecta.io/nano"><style><![CDATA[.B{fill:#1b70a0}.C{fill:#5fc5f2}.D{fill:#2d52b8}.E{fill:#ffc42a}.F{stroke-linecap:round}.G{stroke-linejoin:round}.H{stroke-miterlimit:10}]]></style><g transform="matrix(.465779 0 0 .465779 108.027077 65.773544)"><clipPath id="A"><path d="M1.4 0h500v500H1.4z"/></clipPath><path d="M-11.8-10.3S186.8-59.7 235.8 90.3s250.3 265.4 252.4 419.8l-488.6.8c-6.3 0-11.4-6.7-11.4-15V-10.3z" clip-path="url(#A)" fill="#00cec8"/><g fill="#a3c0ff"><use href="#H"/><use href="#H" x="18.8"/><use href="#H" x="37.6"/><circle cx="420.3" cy="159.6" r="1.8"/><use href="#H" x="75.2"/><use href="#I"/><use href="#I" x="18.8"/><use href="#I" x="37.6"/><use href="#H" x="56.4" y="19.2"/><use href="#I" x="75.2"/><use href="#I" y="19.2"/><use href="#I" x="18.8" y="19.2"/><use href="#I" x="37.6" y="19.2"/><use href="#H" x="56.4" y="38.4"/><use href="#I" x="75.2" y="19.2"/><use href="#H" y="57.5"/><use href="#H" x="18.8" y="57.5"/><use href="#H" x="37.6" y="57.5"/><circle cx="420.3" cy="217.1" r="1.8"/><use href="#H" x="75.2" y="57.5"/><use href="#H" y="76.7"/><use href="#H" x="18.8" y="76.7"/><use href="#H" x="37.6" y="76.7"/><use href="#H" x="56.4" y="76.7"/><use href="#H" x="75.2" y="76.7"/></g><path d="M403.9 305.1H222.5c-7.1 0-12.9-5.8-12.9-12.9v-87.9c0-7.1 5.8-12.9 12.9-12.9h181.4c7.1 0 12.9 5.8 12.9 12.9v87.9c-.1 7.1-5.9 12.9-12.9 12.9z" fill="#d8e3ff"/><path d="M219.6 489.5c0-24.4-.7-81.5-1.8-94.2-2.9-33.1-36.5-47.3-36.5-47.3l-30.5-11.9-.3-.6 1-.6-2-1.4c-3.5-6.4-9-11.4-18-12.9l.1.2-5.6-3.8c.3 2.3.2 4.4-.3 6.2-.8-4.6-1-9.7-.9-15.2 9.6-6.9 19.2-16.1 19.2-30.2V276c4.1.6 8.5-3.4 10.4-9.9 2.1-7.2.1-14.6-4.3-16.6-1.4-.6-2.8-.6-4.3-.1.6-6.7.9-14.8-.4-21.8 1-.3 1.8-1.1 1.9-2.3.7-10.1-.7-43.1-47.1-43.9-47.9-.8-45.5 35.2-44.1 44.2.2 1.1 1.2 1.9 2.3 1.8-1.4 7.3-1.1 15.8-.4 22.6-1.9-1.2-3.9-1.5-5.8-.6-4.4 2-6.4 9.4-4.3 16.6s7.3 11.5 11.8 9.5c.1 0 .1-.1.2-.1v.7c0 13.4 8.3 23 17.2 30.1 0 4.7-.2 9.2-.7 13.2-.2-1-.3-2.1-.2-3.2l-3.1 2.3s-6.4 2.7-8.4 6.3l-10 7.4h0l-2.4 1.7-24.3 11c-10.5 3.4-22.7 8.2-30.6 14.1v132c0 6.1 5 11.1 11.1 11.1l197.9-.2c3.9-3.1 8-6.8 13.2-12.4z" fill="#2e4787" opacity=".31"/><path d="M324.9 245l74.5-.6m-74.7-26.2l74.5-.6m-74.1 51.5l52.1-.4" fill="none" stroke="#0065ff" class="F G H"/><circle transform="matrix(.9196 -.3929 .3929 .9196 -75.8343 125.8221)" cx="269.4" cy="248.2" r="44.6" fill="#3570f0"/><path d="M280.5 210s18.2 13.2 5.7 45l-24 .5 18.3-45.5z" class="D"/><g fill="#ffacab"><path d="M253 263.8c-.2-.1-.2-.2.1-.4.9-.6 1.7-1.2 2.5-2 2.3-2.6 2.3-6 2.2-8.3 0-.5 19.3-1.9 19.3-1.9-.1.5-1 .3-1 2.5 0 .2 1 5.1 1.3 6.9 1.3 1.8 3.4 2.4 4.2 3.1.3.3 3.8 3.6 3.5 3.2-.4-.4 2.7 5.1-1 1.8.8 1 9.4 5.6 9.4 5.6l-26.7 2.9-20.4-7.8 6.6-5.6zm27.6-19c3.9.3 4.7-3.7 5.1-6.3.2-2 .4-7.9-3.3-6.7-3.8 1.2-2 12.3-2 12.3.3 0 .6.1.9.1h-.8c-.4 0-.4.6.1.6z"/><path d="M251.4 216.2c1.8-4.7 5.5-7.3 10-8 1.3-.1 2.6-.1 3.9-.1h.2c3.9 0 7.7.3 10.9 3.2 3 2.7 4.5 7 5.1 11.1.8 5 .5 10.1.1 15-.3 3.7-.1 7.8-1.4 11.3-1.7 4.6-5.2 6.7-9.2 8.3-4.1 1.7-8.1.5-12-1.4-4.4-2.1-7-6.7-7.6-11.7-.5-4.1-1.1-8.3-1.4-12.4-.3-5.1-.4-10.6 1.4-15.3z"/></g><g class="D"><path d="M266.8 218h0a240.94 240.94 0 0 1-12-.6c-1.4-.1-2.7-.2-4.1-.7-.6-.2-1.2-.6-1.5-1.2-.4-.9-.2-2 .2-2.9 1.9-5.3 6-8.8 10.4-10s9.1-.4 13.5 1.3c3.2 1.2 7.6 3.8 7.9 8.9.2 3.9-4.9 4.5-6.9 4.8-2.5.5-5 .5-7.5.4z"/><path d="M277.7 217.1h0c0-.2 0-.4.1-.6s.3-.3.4-.4c.5-.4 1.1-.7 1.6-1.1.3-.2.6-.4 1-.4.7 0 1.2.6 1.5 1.2 1 1.8 1.4 3.9 1.4 5.9s-.3 4.1-.7 6.1c-.3 1.4-.5 3.5-1.2 4.7-.8-.3-1.3-2.4-1.5-3.2-.5-1.3-.9-2.6-1.2-4-.7-2.7-1.2-5.4-1.4-8.2z"/></g><path d="M304.2 276.1c-1-1.9-2-3.3-2.9-4-1.9-1.5-4.3-2.3-6.3-3-2.1-.7-4.4-1.8-6.7-2.9l-6.8-2.9-.3-.1-.1.4c.9 8-9.5 10.4-15.8 10.2-5.9-.2-10.9-4.5-12.2-10l-.1-.4-.4.1c-2.1.7-4.8 1.8-7.5 2.9-2.6 1.1-5.3 2.2-7.4 2.9-2 .7-4.2 1.4-6 2.9 7.4 11.7 20.1 19.6 34.8 20.6 4.1 0 8.4-.4 13-1.1 9.9-2.4 18.6-8 24.7-15.6z" fill="#4d85ff"/><path d="M271.8 232.6h0c-.5.1-.9-.1-1-.5 0-.4.4-1 1.1-1.2 1.3-.3 1.7-.4 3.2-.5 1.3-.1 3 .5 3.7 1.1.1.1.2.2.3.2.4.3.3.8-.1 1-.2.1-2.9-2.4-7.2-.1zm0-.8h0 0zm-17.7.9c-.4-.3-.5-.7-.1-1 .1-.1.2-.2.3-.2.7-.6 2.4-1.1 3.7-1.1 1.5.1 1.9.2 3.2.5.7.2 1.1.7 1.1 1.2 0 .4-.4.6-1 .5h0c-4.3-2.3-7.1.2-7.2.1zm7.2-.9h0 0z" class="D"/><path d="M266.6 257.2s4.4.9 10.1-3.5v3.4c.1 0-4.7 2.2-10.1.1zm-11.8-13.9s2.2-20.5 7.3-25.4c0 0-7.9-6.3-4.8-7.9l-3.9 5.5-2 12.6c0 .2 3.4 15.2 3.4 15.2z" fill="#e37b7b"/><path d="M262.1 217.9s-14.1 7.8-4.1 39.6l-14.7 1.7s-6.5-36.6 8.8-51.5c13.9-13.4 10 10.2 10 10.2z" class="D"/><path d="M260.9 245.8h11.2s-.9 4.8-5.4 4.8c-4.6 0-5.8-4.8-5.8-4.8z" fill="#fff"/><g fill="#0f1b61"><ellipse cx="273.7" cy="235.8" rx=".9" ry="1.7"/><path d="M260.8 235.8c0 .9-.4 1.7-.9 1.7s-.9-.8-.9-1.7.4-1.7.9-1.7c.5-.1.9.7.9 1.7z"/></g><path d="M266.3 243.3c1.3 0 2.2-.9 2.3-.9.1-.1.2-.4 0-.5-.1-.1-.4-.2-.5 0 0 0-.9.8-2 .7s-1.6-.7-1.6-.7c-.1-.2-.4-.2-.5 0-.2.1-.2.4 0 .5 0 0 .7.8 2.1.9h.2z" fill="#d67474"/><path d="M247.5 223.3c.1 8.7-6.9 15.8-15.6 15.8-8.7.1-15.8-6.9-15.8-15.6-.1-8.7 6.9-15.8 15.6-15.8 8.6 0 15.7 6.9 15.8 15.6z" fill="#1adbcf"/><g fill="#fff"><path d="M231.9 232h0c-1.4 0-2.6-1.1-2.6-2.5l-.1-12.1c0-1.4 1.1-2.6 2.5-2.6h0c1.4 0 2.6 1.1 2.6 2.5l.1 12.1c0 1.5-1.1 2.6-2.5 2.6z"/><path d="M223.2 223.5h0c0-1.4 1.1-2.6 2.5-2.6l12.1-.1c1.4 0 2.6 1.1 2.6 2.5h0c0 1.4-1.1 2.6-2.5 2.6l-12.1.1c-1.4.1-2.6-1.1-2.6-2.5z"/></g><g opacity=".18"><path d="M31.4 314.5l-16.6-5.2c-1.1-.3-1.7-1.5-1.4-2.6l5.2-16.6c.3-1.1 1.5-1.7 2.6-1.4l16.6 5.2c1.1.3 1.7 1.5 1.4 2.6L34 313.2c-.4 1-1.5 1.7-2.6 1.3zM18 306l12.7 4 4-12.7-12.7-4-4 12.7z" fill="#fff"/></g><path d="M341.5 479.7h63.7M82.6 145.3h63.7" fill="none" stroke="#fff" stroke-width=".946" class="F G H"/><g fill="#fff"><use href="#J" opacity=".28"/><use href="#J" x="-248.8" y="-155" opacity=".28"/></g></g><g transform="matrix(.134887 0 0 .134887 342.637054 21.647274)"><path d="m-309.2 669.6l1164-128.8c25.6-2.8 48.8 16.8 51.8 43.9l87.8 793.5c3 27.1-15.3 51.3-40.9 54.2l-1164 128.8c-25.6 2.8-48.8-16.8-51.8-43.9l-87.8-793.5c-3-27.2 15.3-51.4 40.9-54.2z" fill="#d0d0d2"/><path d="M-215.5 1562.4c-10.9 0-21.4-3.9-30.1-11.2-10-8.5-16.3-20.5-17.8-33.8l-87.8-793.5c-3.1-27.6 15.7-52.4 41.8-55.3l1164-128.8c12.7-1.4 25.1 2.5 35.1 11s16.3 20.5 17.8 33.8l87.8 793.5c1.5 13.4-2 26.5-9.9 36.9-7.9 10.5-19.2 17-31.9 18.4l-1164 128.8c-1.6.1-3.3.2-5 .2zm-93.6-891.8c-25 2.8-43 26.6-40 53.1l87.8 793.5c1.4 12.8 7.5 24.4 17.1 32.5s21.5 11.8 33.6 10.5l1164-128.8c12.1-1.3 22.9-7.6 30.5-17.6s11-22.6 9.5-35.5l-87.8-793.5c-1.4-12.8-7.5-24.4-17.1-32.5s-21.5-11.8-33.6-10.5l-1164 128.8z" fill="#b3b7b7"/><path d="M-308.6 678L853.9 549.3c21.8-2.4 41.3 13.3 43.7 35l87.9 794.1c2.4 21.8-13.3 41.3-35 43.7L-212 1550.8c-21.8 2.4-41.3-13.3-43.7-35l-87.9-794.1c-2.4-21.7 13.3-41.3 35-43.7z"/><path d="M-216.4 1551.6c-9.1 0-17.8-3.1-25-8.8-8.4-6.7-13.6-16.3-14.8-26.9l-87.9-794.1c-2.4-22 13.5-41.9 35.5-44.3L853.8 548.8c10.7-1.2 21.1 1.9 29.5 8.6s13.6 16.3 14.8 26.9l87.9 794.1c1.2 10.7-1.9 21.1-8.6 29.5s-16.3 13.6-26.9 14.8L-212 1551.4c-1.4.1-2.9.2-4.4.2zm-92.1-873.1c-21.4 2.4-37 21.7-34.6 43.2l87.9 794.1c1.1 10.4 6.3 19.7 14.4 26.2 8.2 6.5 18.4 9.5 28.8 8.3l1162.5-128.7c10.4-1.1 19.7-6.3 26.2-14.4 6.5-8.2 9.5-18.4 8.3-28.8l-87.9-794.1c-1.1-10.4-6.3-19.7-14.4-26.2-8.2-6.5-18.4-9.5-28.8-8.3L-308.5 678.5z"/><linearGradient id="B" x1="-324.84" x2="795.92" y1="-811.55" y2="-811.55" gradientTransform="matrix(.9939 -.11 -.1093 -.9876 -6.9324 251.25)" gradientUnits="userSpaceOnUse"><stop stop-color="#6ac2ff" offset="0"/><stop stop-color="#0087bf" offset="1"/></linearGradient><path d="M-280.2 735l1114-123.3 78.2 706.9-1114 123.3z" fill="url(#B)" opacity=".871"/><radialGradient id="C" cx="294.07" cy="-347.14" r="8.085" gradientTransform="matrix(1.2487 -.1382 -.1313 -1.1862 -139.64 303.21)" gradientUnits="userSpaceOnUse"><stop stop-color="#fff" offset="0"/><stop stop-opacity="0" offset="1"/></radialGradient><path d="M283 671.3c.6 5.3-3.5 10.1-9 10.7-5.6.6-10.6-3.2-11.2-8.5s3.5-10.1 9-10.7c5.6-.6 10.6 3.2 11.2 8.5z" fill="url(#C)" opacity=".164"/><path d="M-36.8 1170.6l-.1-.2 7.4 66.1c.2 1.6.9 3.2 1.4 4.8 1.4 6.8 3.8 13.6 3.9 20.4.3 15.7 1.4 31.1 5.4 46.3 2.6 9.7 4 19.8 5.7 29.7.8 4.6 1.6 9.5.7 14.2-.8 4.4-3.2 8.4-1.1 12.9.4.8.9 1.5 1.3 2.4 2 4 1.5 9.2 2.5 13.5 1.1 4.9 8.8 2.4 12.4 2.1 2.4-.2 16.4-.1 17.1-3.2 1.4-6.6-7.6-11.8-11-16.4-4.4-6-6.1-13-4.6-20.3 1.8-8.4 3.3-16.9 4.8-25.4 1.8-10.7 4.6-21.5 4.9-32.3.4-14.4-3.6-28.3-9.2-41.6l-3.8-33.8c.2-.8.4-1.6.5-2.4l7.7-68.4c.8-9.6.4-19.6-1.1-29.2-2.1-13.4-5.7-26.6-8.8-39.9-2.1-9-4.6-17.9-6.9-26.9l-3-26.1c1.3-6 2.4-12 3.9-18 .4-1.5 2.1-2.6 3.2-3.9 1.2 1.1 3 2.1 3.5 3.5 2 6.2 3.6 12.4 5.3 18.7l5.3 47.5c.1 1.3.9 2.5 1.3 3.8 4.5 12.6 7 30.5 7.1 44 0 5.6.3 11.4 3.2 16.2s9.4 7.7 14.3 5c5-2.8 5.8-9.5 5.9-15.3 1-33.6-10.5-63.2-14-96L24 982.7c-.1-1-.8-1.9-1.2-2.8-1.4-7.9-2.6-15.9-4.4-23.8-2.3-10.3-7.4-19.3-13.5-27.9-3.9-5.4-8.8-8-15-8.9-5.3-.8-10.8-.8-15.9-2.2-6.8-1.9-13.5-4.5-20-7.4-2-.9-4.2-3.4-4.4-5.4-1.2-9.2-1.4-18.4 2.5-27.3 1.6-3.6 3.3-7.2 2.6-11.3-.2-.8-.4-1.6-.8-2.3-2.5-4.3-2.4-8.8-3.6-13.7-.8-3.1-1.3-6.6-3.2-8.9-7.5-8.8-17.3-11-28.2-8.2-13.6 3.6-18.5 11-17 24.9.3 2.7 1.2 6.2 0 8.1-4.1 6.4-1.4 11.2 2.7 15.8 6.5 7.4 8 16.5 9.7 25.5.7 3.5-.8 6-3.7 7.8-1.7 1-3.2 2.2-4.9 3.2-7.1 4.1-13.5 9.3-21.9 11.3-6.6 1.6-14.1 4-17.1 11.1-3.4 7.9-5.7 16.2-7.8 24.5-1 3.8-.4 8.1-.4 12.1l.2 22.2c-.2 1.3-.6 2.7-.5 4l4.3 38.7.1 19.2-.1 8.6c-.1 1.5-.5 3-.4 4.5.7 7.4 1.5 14.8 2.5 22.2.2 1.8.9 3.5 1.4 5.3.5 1 1.1 2 1.3 3.1 2.1 10.7-.7 26.8 5 36.5 3.3 5.6 10.9 11.3 16.8 6.5 4.9-4-1.5-19.6-1.4-24.8l.8-40.5c.2-1.3.6-2.7.5-4l-5.2-47.5 2-24.1c.6 0 1.2-.1 1.8-.1 6.5 5.3 9.2 12.9 11.6 20.6l3 27v31.6c-.1 8.3-.5 16.5-.7 24.8l1.3 19.9c.3 3.1 1.2 6.1 1.9 9.1l15 46.8 10.5 31.3 3.7 33.9c1.4 13-.6 26.4.2 39.5.4 6.6 4.7 13.8 7.1 19.9l15.5 37.4c4 9 2.6 16.7-2.6 24.4-1.6 2.3-5.4 5.3-6 7.8-.2.7-.2 1.4-.2 2 .1 1.7.4 3.4 1.4 4.7 2.3 3 7.6 1 10.7.6 5.1-.7 10.2-1.5 15.3-2.5 1.7-.3 3.9-2.4 4.2-4 .6-3-.8-6.6.3-9.3 2.4-6-.9-10.3-3.1-15.1-1.4-3.1-3.2-6.3-3.5-9.6-1-9.7-1.5-19.5-1.9-29.2-.5-12.8-.1-25.7-1.1-38.5-1-12.6-3.2-25.1-4.9-37.6.2-1.3.6-2.7.5-4l-7-63c-.1-1.4-.2-2.8-.4-4.1.2-1 .7-2 .6-3l-3.1-27.1c.6-.7 1.1-1.3 2.4-2.7l1.3 7.3 2.1 18.9c.1 1.9 1 4 1.5 6.1z" fill="#d4eef8"/><linearGradient id="D" x1="370.03" x2="676.12" y1="-499.63" y2="-1257.8" gradientTransform="matrix(1.0031 -.111 -.1107 -.9997 -17.832 257.41)" gradientUnits="userSpaceOnUse"><stop stop-color="#fff" offset="0"/><stop stop-opacity="0" offset="1"/></linearGradient><path d="M636.5 578.2l-367.2 894.5 704.1-75.5-87.3-801c-5-35.7-21-42.3-52.4-39.2l-197.2 21.2z" fill="url(#D)" opacity=".264"/><path d="M807.2 1111l-263.1 29.1c-2.2.2-4.2-1.4-4.5-3.6l-25.3-228.2c-.2-2.2 1.4-4.2 3.6-4.5L781 874.7c2.2-.2 4.2 1.4 4.5 3.6l25.3 228.2c.2 2.2-1.4 4.2-3.6 4.5z" class="B"/><use href="#K" fill="#4f78ba"/><g fill="#4fa4b7"><use href="#K" x="41.426" y="-4.569"/><use href="#K" x="82.852" y="-9.127"/><use href="#K" x="124.267" y="-13.785"/><use href="#K" x="165.593" y="-18.344"/><use href="#K" x="206.919" y="-22.891"/><use href="#L"/><use href="#L" x="5.02" y="45.386"/><use href="#L" x="10.041" y="90.772"/><use href="#L" x="15.072" y="136.247"/></g><linearGradient id="E" x1="529.95" x2="783.6" y1="1026.1" y2="998" gradientUnits="userSpaceOnUse"><stop stop-color="#002caa" stop-opacity="0" offset="0"/><stop stop-color="#0932a5" stop-opacity=".007" offset=".006"/><stop stop-color="#374d8e" stop-opacity=".048" offset=".035"/><stop stop-color="#626779" stop-opacity=".093" offset=".069"/><stop stop-color="#887d66" stop-opacity=".142" offset=".106"/><stop stop-color="#a89055" stop-opacity=".195" offset=".145"/><stop stop-color="#c4a148" stop-opacity=".254" offset=".189"/><stop stop-color="#daae3d" stop-opacity=".32" offset=".238"/><stop stop-color="#ebb834" stop-opacity=".397" offset=".296"/><stop stop-color="#f6bf2e" stop-opacity=".493" offset=".367"/><stop stop-color="#fdc32b" stop-opacity=".627" offset=".466"/><stop stop-color="#ffc42a" offset=".744"/></linearGradient><path d="M651.3 1107.2l-20.2-146c1.1 32.8 1.5 65.9-.4 98.6-.1 1.2-.7 2.2-1.8 2.8-3.8 1.9-13.7-2.4-14.7-3.1-4.4-2.9-7.4-7.9-10-12.2l-.6-1.1c-2.2-3.6-5.4-6.7-8.2-6.5-1.5 7.4-3.6 14.7-9 18.6-3.3 2.4-7.2 2.9-10.7 3.4l-41 5.6-.5-4 41-5.6c3.1-.4 6.4-.9 8.9-2.7 4.6-3.2 6.3-10.3 7.7-17.3l.2-1.1 1-.4c5.5-2.3 10.9 2.6 14.1 7.9l.7 1.1c2.5 4.2 5.1 8.5 8.8 11 1.5.9 8.3 3.2 10.4 2.9 2.6-45.9.7-92.8-1.2-138.1l4-.4 21.7 156.6c4.5-22.3 12.4-28.6 19-31.4 4.7-2 9.6-2.1 14.4-2.2 4.2-.1 8.1-.2 11.8-1.4 11.1-3.7 17.1-16.6 22.9-29 2-4.3 4.1-8.8 6.4-12.8.7-1.3 1.6-2.7 2.9-3.7 1.6-1.2 3.4-1.5 5.2-1.1 5 1.3 8.8 8.7 10.2 11.8 7.1 15.6 23.1 30.7 38.8 27.8l.7 3.9c-8.2 1.5-16.9-1-25.1-7.2-7.5-5.6-13.9-13.7-18.1-22.9-2.4-5.2-5.3-9-7.5-9.5-.6-.2-1.2 0-1.8.4-.7.5-1.2 1.5-1.8 2.4-2.2 3.9-4.3 8.3-6.3 12.5-6.2 13.2-12.6 26.9-25.3 31.1-4.3 1.4-8.7 1.5-13 1.6-4.6.1-8.9.2-12.9 1.8-13 5.5-16.8 25.2-18.7 41.8l-2 16.1z" fill="url(#E)"/><circle cx="782.9" cy="1037.3" r="4.1" fill="#fff"/><linearGradient id="F" x1="534.24" x2="787.89" y1="1064.9" y2="1036.8" gradientUnits="userSpaceOnUse"><stop stop-color="#002caa" stop-opacity="0" offset="0"/><stop stop-color="#0932a5" stop-opacity=".007" offset=".006"/><stop stop-color="#374d8e" stop-opacity=".048" offset=".035"/><stop stop-color="#626779" stop-opacity=".093" offset=".069"/><stop stop-color="#887d66" stop-opacity=".142" offset=".106"/><stop stop-color="#a89055" stop-opacity=".195" offset=".145"/><stop stop-color="#c4a148" stop-opacity=".254" offset=".189"/><stop stop-color="#daae3d" stop-opacity=".32" offset=".238"/><stop stop-color="#ebb834" stop-opacity=".397" offset=".296"/><stop stop-color="#f6bf2e" stop-opacity=".493" offset=".367"/><stop stop-color="#fdc32b" stop-opacity=".627" offset=".466"/><stop stop-color="#ffc42a" offset=".744"/></linearGradient><path d="m784.1 1041.8c-2.4 0.7-5-0.8-5.6-3.2s0.8-5 3.2-5.6c2.4-0.7 5 0.8 5.6 3.2s-0.8 4.9-3.2 5.6 2.4-0.7 0 0zm-2.1-7.9c-1.9 0.5-3 2.4-2.5 4.3s2.4 3 4.3 2.5 3-2.4 2.5-4.3-2.5-3-4.3-2.5c-1.9 0.5 1.8-0.5 0 0z" fill="url(#F)"/><use href="#L" x="20.092" y="181.643" fill="#4fa4b7"/><use href="#L" x="25.524" y="219.646" fill="#4f78ba"/><path d="M125.897 788.044l641.662-71.016 8.899 80.407-641.662 71.016z" fill="#65b8de"/><path d="M142.981 942.51l323.216-35.772 26.752 241.716-323.216 35.772z" class="B"/><circle cx="193.3" cy="1301.1" r="50" fill="#00447f"/><path d="M224.1 1291.1l-25 2.7-2.7-24.9-13.1 1.5 2.7 24.9-24.9 2.7 1.5 13.2 24.9-2.8 2.7 24.9 13.2-1.4-2.8-25 24.9-2.7z" class="E"/><path d="M449.8 1272.7l-196.2 21.7c-1.7.2-3.2-1-3.4-2.7l-4.9-44.3c-.2-1.7 1-3.2 2.7-3.4l196.2-21.7c1.7-.2 3.2 1 3.4 2.7l4.9 44.3c.2 1.7-1 3.2-2.7 3.4z" class="B"/><path d="M435.7 1255l-6.9-5.5 5.5-6.8-3.6-2.9-5.5 6.9-6.8-5.5-2.9 3.6 6.8 5.5-5.5 6.8 3.7 2.9 5.4-6.9 6.9 5.5z" class="C"/><path d="M570.8 1259.3l-108.5 12c-1.7.2-3.2-1-3.4-2.7l-4.9-44.3c-.2-1.7 1-3.2 2.7-3.4l108.5-12c1.7-.2 3.2 1 3.4 2.7l4.9 44.3c.2 1.7-1 3.2-2.7 3.4z" class="B"/><path d="M556.7 1241.6l-6.9-5.5 5.5-6.8-3.6-2.9-5.5 6.9-6.8-5.5-2.9 3.6 6.8 5.5-5.4 6.8 3.6 2.9 5.5-6.9 6.8 5.5z" class="C"/><path d="M748.7 1239.6l-165.4 18.3c-1.7.2-3.2-1-3.4-2.7L575 1211c-.2-1.7 1-3.2 2.7-3.4l165.4-18.3c1.7-.2 3.2 1 3.4 2.7l4.9 44.3c.2 1.6-1 3.1-2.7 3.3z" class="B"/><path d="M734.6 1221.9l-6.9-5.4 5.5-6.9-3.6-2.9-5.5 6.9-6.8-5.5-2.9 3.6 6.8 5.5-5.4 6.8 3.6 2.9 5.4-6.8 6.9 5.4z" class="C"/><path d="M605.5 1312.8l-165.4 18.3c-1.7.2-3.2-1-3.4-2.7l-4.9-44.3c-.2-1.7 1-3.2 2.7-3.4l165.4-18.3c1.7-.2 3.2 1 3.4 2.7l4.9 44.3c.3 1.7-1 3.3-2.7 3.4z" class="B"/><path d="M591.4 1295.1l-6.8-5.4 5.4-6.9-3.6-2.9-5.4 6.9-6.9-5.5-2.9 3.6 6.9 5.5-5.5 6.8 3.6 2.9 5.5-6.8 6.8 5.5z" class="C"/><path d="M425.3 1332.8l-165.4 18.3c-1.7.2-3.2-1-3.4-2.7l-4.9-44.3c-.2-1.7 1-3.2 2.7-3.4l165.4-18.3c1.7-.2 3.2 1 3.4 2.7l4.9 44.3c.2 1.7-1 3.2-2.7 3.4z" class="B"/><g class="C"><path d="M411.2 1315.1l-6.9-5.5 5.5-6.8-3.6-2.9-5.5 6.8-6.8-5.5-2.9 3.7 6.8 5.4-5.5 6.9 3.6 2.9 5.5-6.9 6.9 5.5zm-153.168-53.766l135.966-15.048 1.485 13.418-135.966 15.048zm213.032-23.579l47.707-5.28 1.485 13.418-47.707 5.28zm116.588-12.841l108.335-11.99 1.485 13.418-108.335 11.99z"/><use href="#M"/><use href="#M" x="-180.102" y="19.895"/></g><g fill="#65b8de"><path d="M261.01 954.66l171.3-19c5.8-.6 11 3.5 11.6 9.3l.5 4.7c.6 5.8-3.5 11-9.3 11.6l-171.3 19c-5.8.6-11-3.5-11.6-9.3l-.5-4.7c-.6-5.8 3.5-11 9.3-11.6"/><use href="#N"/><path d="M272.31 1056.39l171.3-18.9c5.8-.6 11 3.5 11.6 9.3l.5 4.7c.6 5.8-3.5 11-9.3 11.6l-171.3 19c-5.8.6-11-3.5-11.6-9.3l-.5-4.7c-.6-5.8 3.5-11 9.3-11.7m-55.1 6.1l-21.8 2.4c-5.8.6-9.9 5.8-9.3 11.6l.5 4.7c.6 5.8 5.8 9.9 11.6 9.3l21.8-2.4c5.8-.6 9.9-5.8 9.3-11.6l-.5-4.7c-.6-5.7-5.8-9.9-11.6-9.3m60.7 44.87l171.3-19c5.8-.6 11 3.5 11.6 9.3l.5 4.7c.6 5.8-3.5 11-9.3 11.6l-171.3 19c-5.8.6-11-3.5-11.6-9.3l-.5-4.7c-.6-5.8 3.6-11 9.3-11.6"/><use href="#N" x="16.9" y="152.7"/><path d="M266.71 1005.53l171.3-19c5.8-.6 11 3.5 11.6 9.3l.5 4.7c.6 5.8-3.5 11-9.3 11.6l-171.3 19c-5.8.6-11-3.5-11.6-9.3l-.5-4.7c-.7-5.8 3.5-11 9.3-11.6m-55.1 6.1l-21.8 2.4c-5.8.6-9.9 5.8-9.3 11.6l.5 4.7c.6 5.8 5.8 9.9 11.6 9.3l21.8-2.4c5.8-.6 9.9-5.8 9.3-11.6l-.5-4.7c-.7-5.8-5.9-9.9-11.6-9.3"/></g><circle cx="-80.4" cy="993.3" r="15.7" class="E"/><path d="M-80.4 1013.4c-4.6 0-9-1.5-12.6-4.4-4.2-3.4-6.9-8.1-7.5-13.5-1.2-11 6.8-21 17.9-22.2 5.4-.6 10.7.9 14.9 4.3s6.9 8.1 7.5 13.5c1.2 11-6.8 21-17.9 22.2-.8 0-1.6.1-2.3.1zm.1-39.3c-.7 0-1.4 0-2.2.1-10.5 1.2-18.2 10.6-17 21.1.6 5.1 3.1 9.6 7.1 12.8s9 4.6 14.1 4.1c10.5-1.2 18.2-10.6 17-21.1-.6-5.1-3.1-9.6-7.1-12.8-3.4-2.7-7.6-4.2-11.9-4.2z" fill="#f48914"/><path d="m-80.4 1017.4c-5.4 0-10.7-1.8-15-5.3-5-4-8.2-9.8-8.9-16.2s1.1-12.7 5.1-17.7 9.8-8.2 16.2-8.9 12.7 1.1 17.7 5.1 8.2 9.8 8.9 16.2-1.1 12.7-5.1 17.7-9.8 8.2-16.2 8.9c-0.9 0.1-1.8 0.2-2.7 0.2zm0.1-47.2c-0.9 0-1.7 0-2.6 0.1-6.1 0.7-11.6 3.7-15.5 8.5s-5.6 10.8-4.9 17c1.4 12.7 12.8 21.8 25.5 20.4 6.1-0.7 11.6-3.7 15.5-8.5s5.6-10.8 4.9-17c-0.7-6.1-3.7-11.6-8.5-15.5-4.2-3.3-9.2-5-14.4-5z" class="E"/><path d="M-217.4 956.3c-20.2-3.5-33 8.8-45.6 21.7-17.8 18.2-37.3 40.5-58.8 54.3l-5.8-98.3c-.2-3.2-.5-6.6-2.5-9.1-5.4-6.7-25.7 8.9-31.1 11.8-35.3 19.7-69.5 41.1-104.8 60.8-12.9 7.2-27.5 11.6-41.4 17-23 9-36.2 25-38.9 50.1-3.6 33.2-12.8 65-24.2 96.4-7.3 19.9-11.5 40.9-16.7 61.4-36.6 144-82.1 285.6-133.6 425-43.8 118.6-119.6 249.5-115.9 378.8 4.2 3.2 8.4 6.2 12.5 8.9h402.1c-32-140.6-69.5-317.2-11.4-449.2.8-1.8 1.6-3.6 2.5-5.3 17.7-35.1 52.2-60 65.6-101.4 6.7-20.8 11.3-42.2 17-63.3 1-3.7 2.2-7.6 4.3-10.7 16.6-24.4 26-51.7 33.8-79.8 4.6-16.4 3.4-32.3 1.8-48.8-2.2-21.7 3-42.9 10.1-63.3 7.4-21.4 18.2-40.8 33.6-57.8 16.3-17.9 32-36.3 46.9-55.2 7.7-9.8 14.3-20.8 19.4-32.2 7.6-16.9 14.9-34.2 19.9-52 7.4-27-11.4-55-38.8-59.8zm1135.8 495.1c-10-22.7-21.8-47.3-44.3-57.7-28.2-13-46.5 4.5-72.8 8.7-27.5 4.4-25.4-6.6-52-20.5-4.8-2.5-10.7-2.7-16-4.3-15.3-4.5-30.2-2.9-44.9 2.5-12.3 4.4-19.1 13.9-23.4 25.9l-21.3-13.6c-20-12.1-40.8-8.8-61.7-3-8 2.2-14.9 3.6-20.7 10.3-1.3 1.5-2.7 3.3-4.7 3.2-1.7-5.6-6-8.7-6.6-15.3-2.4-24.6-9.6-47.7-20-69.9-24.9-52.9-23.2-115.7-59.6-164.3-17.2-23-45.7-39.8-73.9-34.9-6.1 1.1-12.2 3.2-16.7 7.4-10.9 10.2-8.7 27.8-5.6 42.4 21.7 103 50 201.2 77.5 302.5.7 2.7 1 5.5 1.8 10.5-3.4-2.8-5.2-3.9-6.4-5.4-17.6-23.5-44.1-29.6-70.5-35.3-7.4-1.6-15.6-1.7-22.9-.1-19.2 4.3-26 24.3-14 39.6 4 5.2 8.3 10.4 13.4 14.4 17.4 13.8 27 32.6 35 52.4 2.9 7.2 4 15 6.1 22.5 4.8 16.5 12.8 31.1 24 44.4 6.4 7.6 10.5 17.3 15.3 26.2 13.9 26 22.7 54.6 38.3 78.9 20.5 32 46.7 59.8 66.1 93.1 38.4 65.8 65.3 138.4 78.3 213.5.6 3.2 1.2 6.5 2 9.7h428.7c-26-71.1-75.6-135.1-78.6-213.5-1.7-43.7 11.3-86.7 13.6-130.4 4.4-83.5-29.9-163.4-63.5-239.9z" fill="#e5bc9c"/></g><defs ><path id="H" d="M365.7 159.6a1.79 1.79 0 1 1-3.6 0 1.79 1.79 0 1 1 3.6 0z"/><path id="I" d="M365.7 178.8a1.79 1.79 0 1 1-3.6 0 1.79 1.79 0 0 1 1.8-1.8c1-.1 1.8.8 1.8 1.8z"/><path id="J" d="M272.8 336.5c0 2.2-1.8 4-4 4s-4-1.8-4-4 1.8-4 4-4 4 1.8 4 4z"/><path id="K" d="M556.462 899.537l26.147 236.25-.497.055-26.147-236.25z"/><path id="L" d="M784.773 883.485l.055.497-269.871 29.756-.055-.497z"/><path id="M" d="M444.464 1298.091l113.503-12.562 1.485 13.418-113.503 12.562z"/><path id="N" d="M205.91 960.76l-21.8 2.4c-5.8.6-9.9 5.8-9.3 11.6l.5 4.7c.6 5.8 5.8 9.9 11.6 9.3l21.8-2.4c5.8-.6 9.9-5.8 9.3-11.6l-.5-4.7c-.6-5.8-5.8-10-11.6-9.3"/></defs></svg>