<?xml version="1.0" encoding="utf-8"?>
<svg viewBox="51.4124 73.1552 243.5255 149.3877" xmlns="http://www.w3.org/2000/svg">
  <defs>
    <style>.B{stroke-linejoin:round}.C{fill:none}.D{stroke:#fff}.E{fill-rule:evenodd}.F{fill-opacity:1}.G{stroke-width:.265}.H{stroke-linejoin:miter}.I{stroke-opacity:1}.J{fill:#fbb479}.K{stroke-linecap:round}.L{stroke-width:1.5}.M{stroke:#169947}.N{stroke-width:.865}.O{clip-path:url(#V)}.P{stroke:#a00a0a}.Q{stroke:#958d8d}.R{stroke-width:.7}.S{clip-path:url(#U)}.T{color-interpolation-filters:sRGB}.U{stroke-width:2.465}.V{stroke-width:5.122}.W{stroke-opacity:.417}</style>
  </defs>
  <g transform="matrix(0.21522800624370575, 0, 0, 0.23708000779151917, 52.51447296142581, -115.733154296875)" style="">
    <defs/>
    <g id="layer1">
      <g style="fill:rgb(255,205,239); fill-opacity:1.0; stroke-linejoin: miter"/>
      <g style="fill:rgb(111,69,98); fill-opacity:1.0; stroke-linejoin: miter">
        <path d="M1126.3564,1409.0809L1121.1921,1411.4951Q1084.4751,1418.7921,906.3239,1423.167Q726.94,1427.5385,483.85065,1426.7122Q251.8533,1425.5573,112.75818,1419.9537Q68.19069,1418.1427,39.33818,1416.007L15.088402,1413.8105Q-4.8956985,1411.5444,-5.1203995,1409.0806Q0.94618225,1401.5193,160.58047,1396.4989Q320.2147,1391.4774,560.6181,1391.2877Q801.0208,1391.4781,960.65546,1396.499Q1120.2898,1401.5193,1126.3564,1409.0809 Z"/>
      </g>
      <g style="fill:rgb(36,39,91); fill-opacity:1.0; stroke-linejoin: miter">
        <path d="M457.61713,796.9204L466.7973,796.9153L475.9768,796.90906Q475.9936,823.3137,476.0108,849.71924Q466.83105,849.7256,457.6507,849.7317Q457.63397,823.32556,457.61713,796.9204"/>
      </g>
      <g style="fill:rgb(36,39,91); fill-opacity:1.0; stroke-linejoin: miter">
        <path d="M513.3131,796.88525L531.6734,796.87354L531.70746,849.6835L513.3477,849.6963L513.3131,796.88525"/>
      </g>
      <g style="fill:rgb(36,39,91); fill-opacity:1.0; stroke-linejoin: miter">
        <path d="M569.0101,796.8495L578.1895,796.8439L587.3697,796.8375Q587.38654,823.24207,587.40393,849.6483Q578.2242,849.65454,569.044,849.66003Q569.02704,823.25464,569.0101,796.8495"/>
      </g>
      <g style="fill:rgb(36,39,91); fill-opacity:1.0; stroke-linejoin: miter">
        <path d="M680.4028,796.77673L698.7621,796.76624L698.7961,849.57666L680.4366,849.5886L680.4028,796.77673"/>
      </g>
      <g style="fill:rgb(36,39,91); fill-opacity:1.0; stroke-linejoin: miter">
        <path d="M624.7063,796.81213L633.886,796.8076L643.06616,796.802Q643.0829,823.20764,643.1,849.6118Q633.91986,849.6183,624.7398,849.62476Q624.7227,823.2185,624.7063,796.81213"/>
      </g>
      <g style="fill:rgb(36,39,91); fill-opacity:1.0; stroke-linejoin: miter">
        <path d="M736.0985,796.7407L745.27893,796.73535L754.4587,796.7307Q754.4759,823.13513,754.49316,849.54016Q745.31287,849.54675,736.13275,849.553Q736.1159,823.14685,736.0985,796.7407"/>
      </g>
      <g style="fill:rgb(245,245,245); fill-opacity:1.0; stroke-linejoin: miter">
        <path d="M785.9378,1398.8333C802.78375,1398.8153,816.4367,1385.1359,816.42017,1368.2821L815.9432,879.9735C815.9266,863.1196,802.2464,849.4741,785.4009,849.49097L434.41992,849.8313C417.56656,849.85095,403.9208,863.5231,403.9378,880.37646L404.30685,1257.8745L551.5509,1399.0625L785.93823,1398.8304 Z"/>
      </g>
      <g style="fill:rgb(245,245,245); fill-opacity:1.0; stroke-linejoin: miter">
        <path d="M434.94666,1399.1382C418.10046,1399.1493,404.42532,1385.4902,404.41446,1368.6368L404.10074,880.32666C404.0902,863.4739,417.74756,849.8052,434.5931,849.79346L785.5746,849.5675C802.4277,849.558,816.0957,863.20874,816.1064,880.0619L816.3491,1257.559L669.33435,1398.986L434.94666,1399.1356 Z"/>
      </g>
      <g style="fill:rgb(225,225,225); fill-opacity:1.0; stroke-linejoin: miter">
        <path d="M816.35455,1257.5585L699.76166,1257.6313C682.9083,1257.6444,669.2578,1271.3135,669.2688,1288.1656L669.33997,1398.9867L816.35455,1257.5585 Z"/>
      </g>
      <g style="fill:rgb(243,168,219); fill-opacity:1.0; stroke-linejoin: miter">
        <path d="M438.0818,985.4857L459.62238,985.46936L481.16248,985.4525Q481.1803,1006.9917,481.19757,1028.5331Q459.6573,1028.5508,438.11652,1028.5685L438.0818,985.4857"/>
      </g>
      <g style="fill:rgb(243,168,219); fill-opacity:1.0; stroke-linejoin: miter">
        <path d="M498.18945,985.44836L541.27,985.4137L541.3052,1028.4939L498.22443,1028.5302L498.18945,985.44836"/>
      </g>
      <g style="fill:rgb(243,168,219); fill-opacity:1.0; stroke-linejoin: miter">
        <path d="M558.29694,985.4088L579.83734,985.3922L601.37744,985.37463Q601.39496,1006.91516,601.41223,1028.455Q579.87213,1028.473,558.3317,1028.4911Q558.31445,1006.9496,558.29694,985.4088"/>
      </g>
      <g style="fill:rgb(243,168,219); fill-opacity:1.0; stroke-linejoin: miter">
        <path d="M618.40424,985.3695L661.485,985.3368L661.5198,1028.4165L618.4396,1028.4514L618.40424,985.3695"/>
      </g>
      <g style="fill:rgb(243,168,219); fill-opacity:1.0; stroke-linejoin: miter">
        <path d="M678.5119,985.3324L700.05164,985.31396L721.5926,985.2987Q721.61,1006.8374,721.6275,1028.3771Q700.0872,1028.396,678.5468,1028.4135Q678.52875,1006.8721,678.5119,985.3324"/>
      </g>
      <g style="fill:rgb(243,168,219); fill-opacity:1.0; stroke-linejoin: miter">
        <path d="M738.61914,985.29297L781.6998,985.26013L781.7343,1028.3397L738.65405,1028.3745L738.61914,985.29297"/>
      </g>
      <g style="fill:rgb(248,213,138); fill-opacity:1.0; stroke-linejoin: miter">
        <path d="M438.11798,1041.7308L459.65826,1041.7145L481.19843,1041.6982Q481.21643,1063.2365,481.23352,1084.7782Q459.69318,1084.795,438.15295,1084.8126L438.11798,1041.7308"/>
      </g>
      <g style="fill:rgb(243,168,219); fill-opacity:1.0; stroke-linejoin: miter">
        <path d="M498.22534,1041.6921L541.306,1041.6584L541.34106,1084.7375L498.26013,1084.7738L498.22534,1041.6921"/>
      </g>
      <g style="fill:rgb(243,168,219); fill-opacity:1.0; stroke-linejoin: miter">
        <path d="M558.3331,1041.6544L579.8732,1041.6373L601.4136,1041.6198Q601.43085,1063.1594,601.44836,1084.6995Q579.908,1084.7178,558.36804,1084.7352Q558.35065,1063.1943,558.3331,1041.6544"/>
      </g>
      <g style="fill:rgb(243,168,219); fill-opacity:1.0; stroke-linejoin: miter">
        <path d="M618.4409,1041.6151L661.521,1041.5806L661.55646,1084.6609L618.4756,1084.6964L618.4409,1041.6151"/>
      </g>
      <g style="fill:rgb(243,168,219); fill-opacity:1.0; stroke-linejoin: miter">
        <path d="M678.54803,1041.5762L700.0882,1041.5597L721.6287,1041.5432Q721.6461,1063.082,721.66296,1084.6228Q700.12286,1084.6396,678.5828,1084.657Q678.5653,1063.1162,678.54803,1041.5762"/>
      </g>
      <g style="fill:rgb(243,168,219); fill-opacity:1.0; stroke-linejoin: miter">
        <path d="M738.65515,1041.5376L781.73553,1041.5039L781.771,1084.5842L738.6903,1084.6194L738.65515,1041.5376"/>
      </g>
      <g style="fill:rgb(248,213,138); fill-opacity:1.0; stroke-linejoin: miter">
        <path d="M438.15417,1097.9755L459.69458,1097.9589L481.23468,1097.942Q481.252,1119.4816,481.26978,1141.0226Q459.72925,1141.0404,438.18945,1141.0577L438.15417,1097.9755"/>
      </g>
      <g style="fill:rgb(243,168,219); fill-opacity:1.0; stroke-linejoin: miter">
        <path d="M498.2613,1097.9374L541.3426,1097.903L541.3776,1140.9832L498.29663,1141.0197L498.2613,1097.9374"/>
      </g>
      <g style="fill:rgb(243,168,219); fill-opacity:1.0; stroke-linejoin: miter">
        <path d="M558.36926,1097.8987L579.9091,1097.8804L601.4493,1097.8636Q601.46686,1119.4039,601.48505,1140.9453Q579.9446,1140.9619,558.40454,1140.9802Q558.3868,1119.4392,558.36926,1097.8987"/>
      </g>
      <g style="fill:rgb(243,168,219); fill-opacity:1.0; stroke-linejoin: miter">
        <path d="M618.4767,1097.8593L661.55743,1097.8259L661.59235,1140.9067L618.51196,1140.9421L618.4767,1097.8593"/>
      </g>
      <g style="fill:rgb(243,168,219); fill-opacity:1.0; stroke-linejoin: miter">
        <path d="M678.5839,1097.8196L700.12445,1097.804L721.66473,1097.7871Q721.68225,1119.3276,721.6995,1140.8682Q700.15967,1140.8855,678.61926,1140.9027Q678.60144,1119.3627,678.5839,1097.8196"/>
      </g>
      <g style="fill:rgb(243,168,219); fill-opacity:1.0; stroke-linejoin: miter">
        <path d="M738.6915,1097.783L781.7722,1097.7499L781.80756,1140.8301L738.7266,1140.8649L738.6915,1097.783"/>
      </g>
      <g style="fill:rgb(248,213,138); fill-opacity:1.0; stroke-linejoin: miter">
        <path d="M438.19006,1154.2211L459.7307,1154.2046L481.271,1154.1869Q481.28882,1175.7266,481.30627,1197.2671Q459.76593,1197.2848,438.2251,1197.3019L438.19006,1154.2211"/>
      </g>
      <g style="fill:rgb(243,168,219); fill-opacity:1.0; stroke-linejoin: miter">
        <path d="M498.29816,1154.1827L541.3787,1154.1483L541.41376,1197.2288L498.33325,1197.2627L498.29816,1154.1827"/>
      </g>
      <g style="fill:rgb(243,168,219); fill-opacity:1.0; stroke-linejoin: miter">
        <path d="M558.4053,1154.1431L579.9457,1154.1265L601.486,1154.1101Q601.50366,1175.6498,601.5205,1197.188Q579.9806,1197.2068,558.44073,1197.225Q558.42334,1175.6847,558.4053,1154.1431"/>
      </g>
      <g style="fill:rgb(243,168,219); fill-opacity:1.0; stroke-linejoin: miter">
        <path d="M618.51306,1154.1056L661.59357,1154.0709L661.6282,1197.1509L618.548,1197.1854L618.51306,1154.1056"/>
      </g>
      <g style="fill:rgb(243,168,219); fill-opacity:1.0; stroke-linejoin: miter">
        <path d="M678.6205,1154.066L700.16077,1154.0496L721.70074,1154.0338Q721.7187,1175.5732,721.73596,1197.112Q700.1954,1197.13,678.6554,1197.1475Q678.6379,1175.6075,678.6205,1154.066"/>
      </g>
      <g style="fill:rgb(243,168,219); fill-opacity:1.0; stroke-linejoin: miter">
        <path d="M738.72754,1154.0273L781.80853,1153.995L781.8427,1197.0729L738.76276,1197.1094L738.72754,1154.0273"/>
      </g>
      <g style="fill:rgb(248,213,138); fill-opacity:1.0; stroke-linejoin: miter">
        <path d="M438.22626,1210.466L459.76685,1210.4491L481.3075,1210.4316Q481.32513,1231.9716,481.34265,1253.5123Q459.802,1253.5299,438.26147,1253.5476L438.22626,1210.466"/>
      </g>
      <g style="fill:rgb(243,168,219); fill-opacity:1.0; stroke-linejoin: miter">
        <path d="M498.33423,1210.4279L541.4144,1210.3937L541.4495,1253.4739L498.36926,1253.5084L498.33423,1210.4279"/>
      </g>
      <g style="fill:rgb(243,168,219); fill-opacity:1.0; stroke-linejoin: miter">
        <path d="M558.44165,1210.389L579.98114,1210.3711L601.52216,1210.3541Q601.53955,1231.8939,601.5576,1253.4341Q580.0164,1253.4521,558.4762,1253.471Q558.4589,1231.9296,558.44165,1210.389"/>
      </g>
      <g style="fill:rgb(243,168,219); fill-opacity:1.0; stroke-linejoin: miter">
        <path d="M618.5488,1210.3495L661.6294,1210.3152L661.66486,1253.3956L618.584,1253.4315L618.5488,1210.3495"/>
      </g>
      <g style="fill:rgb(243,168,219); fill-opacity:1.0; stroke-linejoin: miter">
        <path d="M678.65607,1210.3103L700.1968,1210.2946L721.73706,1210.2771Q721.7546,1231.8174,721.77264,1253.3575Q700.2314,1253.3746,678.6914,1253.3926Q678.6739,1231.8519,678.65607,1210.3103"/>
      </g>
      <g style="fill:rgb(243,168,219); fill-opacity:1.0; stroke-linejoin: miter">
        <path d="M738.76385,1210.2725L781.8441,1210.2383L781.8796,1253.319L738.79877,1253.3531L738.76385,1210.2725"/>
      </g>
      <g style="fill:rgb(211,87,172); fill-opacity:1.0; stroke-linejoin: miter">
        <path d="M398.9506,815.10706L609.301,814.9728L819.6515,814.8385Q819.67664,853.59204,819.7014,892.3434Q609.3507,892.48035,399.00027,892.61694Q398.97595,853.8624,398.9506,815.10706"/>
      </g>
      <g style="fill:rgb(36,39,91); fill-opacity:1.0; stroke-linejoin: miter">
        <path d="M461.32758,796.9182L470.50757,796.912L479.6869,796.90625Q479.70416,823.3124,479.7213,849.71716Q470.54114,849.7234,461.36115,849.7289Q461.34442,823.32324,461.32758,796.9182"/>
      </g>
      <g style="fill:rgb(36,39,91); fill-opacity:1.0; stroke-linejoin: miter">
        <path d="M517.0236,796.8822L535.3839,796.87134L535.4177,849.68115L517.058,849.69434L517.0236,796.8822"/>
      </g>
      <g style="fill:rgb(36,39,91); fill-opacity:1.0; stroke-linejoin: miter">
        <path d="M572.72046,796.84717L581.90015,796.84045L591.0802,796.8364Q591.09717,823.23975,591.11426,849.64624Q581.93427,849.6521,572.7541,849.65845Q572.7373,823.2527,572.72046,796.84717"/>
      </g>
      <g style="fill:rgb(36,39,91); fill-opacity:1.0; stroke-linejoin: miter">
        <path d="M684.1124,796.7748L702.4729,796.76514L702.50684,849.5747L684.1468,849.58545L684.1124,796.7748"/>
      </g>
      <g style="fill:rgb(36,39,91); fill-opacity:1.0; stroke-linejoin: miter">
        <path d="M628.4161,796.81116L637.5967,796.80566L646.77673,796.8004Q646.7936,823.2052,646.81055,849.6106Q637.6302,849.6161,628.45087,849.6228Q628.4332,823.2157,628.4161,796.81116"/>
      </g>
      <g style="fill:rgb(36,39,91); fill-opacity:1.0; stroke-linejoin: miter">
        <path d="M739.8094,796.73926L748.9889,796.73376L758.1691,796.7284Q758.18616,823.1344,758.2035,849.5387Q749.0235,849.54443,739.8435,849.5502Q739.8264,823.14575,739.8094,796.73926"/>
      </g>
      <g style="fill:rgb(243,168,219); fill-opacity:1.0; stroke-linejoin: miter">
        <path d="M460.36115,915.39465L760.89703,915.20337L760.9187,949.06714L460.3827,949.26086L460.36115,915.39465"/>
      </g>
      <g style="fill:rgb(0,0,0); fill-opacity:1.0; stroke-linejoin: miter">
        <path d="M848.47107,1112.5575L848.47107,1112.5596L848.47107,1112.5577C848.465,1113.018,848.0866,1113.3861,847.62634,1113.3795C847.1663,1113.3739,846.7979,1112.9956,846.80334,1112.5354L846.80334,1112.5374L846.80334,1112.5352C846.80963,1112.0743,847.1875,1111.7062,847.6478,1111.7114C848.1082,1111.7181,848.4768,1112.0964,848.47107,1112.5575 Z"/>
      </g>
      <g style="fill:rgb(36,39,91); fill-opacity:1.0; stroke-linejoin: miter">
        <path d="M733.9312,987.7339L745.9993,1004.1365L758.06824,1020.5386Q789.7012,981.1339,821.3338,941.7272Q790.56,973.8237,759.7859,1005.9177L733.9312,987.7339"/>
      </g>
      <g style="fill:rgb(211,87,172); fill-opacity:1.0; stroke-linejoin: miter">
        <path d="M305.30075,955.9479C179.36589,956.4602,77.68289,1058.9746,78.19539,1184.912C78.70824,1310.8468,181.22275,1412.5308,307.1571,1412.0184C433.092,1411.5063,534.77563,1308.9912,534.2632,1183.0563C533.7503,1057.1196,431.23593,955.4348,305.30075,955.9479 Z"/>
      </g>
      <g style="fill:rgb(255,255,255); fill-opacity:1.0; stroke-linejoin: miter">
        <path d="M292.1137,1198.2147C295.75702,1201.8285,300.77747,1204.053,306.31064,1204.0304C316.93555,1203.9869,325.62195,1195.6423,326.23096,1185.1755L424.55038,1086.0411L403.2041,1064.8677L306.14243,1162.7137L240.3122,1097.4259L219.13895,1118.7721L286.23743,1185.338C286.55862,1190.3683,288.75204,1194.8807,292.1137,1198.2147 Z M305.42325,986.0178C414.57892,985.57336,503.7481,1074.021,504.1928,1183.1779C504.63635,1292.3335,416.19016,1381.5042,307.03452,1381.9473C197.87964,1382.3917,108.71036,1293.945,108.26579,1184.7888C107.821655,1075.6322,196.26773,986.4617,305.42325,986.0178 Z"/>
      </g>
      <g style="fill:rgb(211,87,172); fill-opacity:1.0; stroke-linejoin: miter">
        <path d="M307.42047,1163.9811L306.14243,1162.7137L240.3122,1097.4259L219.13895,1118.7721L286.23743,1185.338C286.19562,1184.9164,286.18384,1184.496,286.1823,1184.0652L306.14746,1163.9362C306.57846,1163.9347,306.99973,1163.9435,307.42047,1163.9811 Z"/>
      </g>
      <g style="fill:rgb(165,68,134); fill-opacity:1.0; stroke-linejoin: miter">
        <path d="M424.55038,1086.0411L403.2041,1064.8677L306.14243,1162.7137L307.42047,1163.9811L326.27597,1183.9017C326.27756,1184.3325,326.26944,1184.7537,326.23096,1185.1755L424.55038,1086.0411 Z"/>
      </g>
      <g style="fill:rgb(165,68,134); fill-opacity:1.0; stroke-linejoin: miter">
        <path d="M299.6242,1179.9681L203.87866,1276.4971C200.95477,1279.4443,200.97403,1284.2051,203.92184,1287.1274C205.39511,1288.5892,207.32297,1289.3152,209.2461,1289.308C211.1698,1289.3003,213.09116,1288.5583,214.55298,1287.0841L310.2984,1190.5554L299.6242,1179.9681 Z"/>
      </g>
      <g style="fill:rgb(36,39,91); fill-opacity:1.0; stroke-linejoin: miter">
        <path d="M306.31064,1204.0304C317.36438,1203.9851,326.321,1194.9558,326.27597,1183.9017C326.23083,1172.8477,317.20145,1163.8909,306.14746,1163.9362C295.09332,1163.9811,286.13702,1173.0105,286.1823,1184.0652C286.2272,1195.1185,295.25677,1204.0753,306.31064,1204.0304 Z"/>
      </g>
      <g style="fill:rgb(36,39,91); fill-opacity:1.0; stroke-linejoin: miter">
        <path d="M305.69885,1053.677C301.54694,1053.6932,298.16754,1050.3411,298.15033,1046.1893L298.02814,1016.1189C298.0112,1011.96655,301.36325,1008.58813,305.5152,1008.57043C309.66653,1008.55383,313.04645,1011.9065,313.0632,1016.058L313.18576,1046.1282C313.2026,1050.2797,309.8502,1053.6602,305.69885,1053.677 Z"/>
      </g>
      <g style="fill:rgb(36,39,91); fill-opacity:1.0; stroke-linejoin: miter">
        <path d="M474.15283,1190.8184L444.0824,1190.9415C439.93066,1190.9573,436.55096,1187.6055,436.534,1183.4529C436.51718,1179.3014,439.86932,1175.9226,444.02106,1175.9048L474.09143,1175.7837C478.2434,1175.7664,481.62286,1179.1184,481.63995,1183.2699C481.6568,1187.4215,478.30475,1190.8015,474.15283,1190.8184 Z"/>
      </g>
      <g style="fill:rgb(36,39,91); fill-opacity:1.0; stroke-linejoin: miter">
        <path d="M306.94315,1359.3942C302.79126,1359.4113,299.41187,1356.0592,299.39465,1351.9087L299.2723,1321.8375C299.25537,1317.6849,302.60754,1314.3062,306.7596,1314.2891C310.9113,1314.2722,314.2909,1317.6243,314.3074,1321.7762L314.42993,1351.8464C314.44675,1355.9983,311.09454,1359.3783,306.94315,1359.3942 Z"/>
      </g>
      <g style="fill:rgb(36,39,91); fill-opacity:1.0; stroke-linejoin: miter">
        <path d="M168.43715,1192.0618L138.3669,1192.1857C134.21507,1192.2009,130.83546,1188.8495,130.81871,1184.6969C130.80171,1180.5455,134.15381,1177.1664,138.30571,1177.1492L168.37595,1177.0273C172.52788,1177.01,175.90723,1180.362,175.92415,1184.5144C175.94092,1188.6659,172.58902,1192.0457,168.43715,1192.0618 Z"/>
      </g>
      <g style="fill:rgb(255,255,255); fill-opacity:0.99607843; stroke-linejoin: miter">
        <path d="M295.1158,1001.9148L295.1158,1001.9148L295.1158,1001.91504L295.1158,1001.9148"/>
      </g>
      <g style="fill:rgb(34,6,1); fill-opacity:1.0; stroke-linejoin: miter">
        <path d="M967.3754,1364.1158L959.2004,1389.5144Q957.29596,1393.5154,955.1171,1396.1954Q954.5208,1397.2327,947.6553,1403.9479Q946.3372,1405.3745,945.71826,1406.3813Q943.9909,1409.0254,946.5151,1410.0947Q950.10675,1411.3661,955.69403,1409.7344Q960.8543,1408.1428,964.98883,1404.4501Q972.0141,1398.6417,983.0317,1377.6211Q976.9406,1370.5791,974.0002,1368.0768Q971.1595,1365.575,967.3775,1364.1165"/>
      </g>
      <g style="fill:rgb(34,6,1); fill-opacity:1.0; stroke-linejoin: miter">
        <path d="M911.23193,1398.1234L895.0878,1402.6243L887.64105,1403.551Q881.6243,1402.4426,879.15533,1402.2749Q876.0245,1402.0237,874.18976,1402.4528Q869.6781,1403.761,870.91205,1407.2161Q872.4078,1410.9901,884.96136,1413.093Q892.6671,1414.381,901.0583,1414.7744Q907.06744,1415.0571,911.90485,1414.1921Q914.47095,1409.877,914.26953,1406.9268Q914.25464,1404.1748,911.2332,1398.1261"/>
      </g>
      <g style="fill:rgb(255,155,119); fill-opacity:1.0; stroke-linejoin: miter">
        <path d="M894.6208,1384.8159Q892.4782,1393.9448,889.761,1397.2577Q888.5883,1398.8103,886.8682,1400.0092Q885.9367,1400.6648,884.7976,1401.2904L880.57806,1403.4725Q879.6572,1404.0314,879.5984,1404.4283Q879.4473,1405.2843,882.17224,1406.0973Q884.9355,1406.8827,888.9664,1407.1238Q896.7153,1407.5222,904.27655,1405.5043Q911.0054,1403.6031,911.58875,1400.7649Q911.8478,1399.6943,911.4852,1398.3745Q911.4525,1397.8235,909.4234,1393.354Q909.0829,1392.49,908.7869,1391.5198Q907.9816,1388.8977,907.5748,1385.5482L894.6289,1384.8162"/>
      </g>
      <g style="fill:rgb(255,155,119); fill-opacity:1.0; stroke-linejoin: miter">
        <path d="M954.40936,1354.5007L941.40497,1365.55Q953.88556,1376.325,955.8094,1382.1152Q956.91425,1384.9304,956.6219,1388.1569Q956.4858,1389.8037,956.00104,1391.7095L954.21783,1397.616Q953.99603,1398.6571,954.388,1398.9443Q955.6197,1399.5634,958.7319,1396.5514Q961.60443,1393.668,964.1036,1389.2546Q967.04156,1384.0647,969.4141,1377.7153Q971.73846,1371.3716,971.7674,1368.5354Q971.7873,1366.6176,970.5893,1365.7251L969.6652,1365.1271Q967.0246,1363.8263,966.4693,1363.4674Q965.2867,1362.7722,963.9163,1361.8206Q960.981,1359.8136,954.4412,1354.5259"/>
      </g>
      <g style="fill:rgb(0,0,0); fill-opacity:1.0; stroke-linejoin: miter">
        <path d="M880.7689,1004.697Q873.6286,1004.6504,859.38666,1013.8517L870.64276,1070.2915Q877.8756,1077.357,879.8611,1083.1881Q880.83655,1085.7163,881.4205,1089.2771Q883.3781,1108.269,884.35706,1110.4734Q885.867,1116.5131,890.44073,1123.6068L906.1954,1147.1425Q909.2253,1151.4767,911.2299,1153.3278Q914.5772,1157.7052,926.0593,1156.9718Q937.613,1157.0092,936.92474,1145.7474Q936.68024,1143.4924,935.65875,1141.4075L930.4014,1134.3077Q929.2315,1132.3162,928.3226,1128.4148Q927.45294,1124.4172,927.44824,1121.5403Q927.46893,1120.4617,927.61774,1120.0948Q928.31915,1118.9441,928.35156,1118.2838Q928.4617,1117.7017,928.36884,1115.9824Q928.1417,1112.6631,927.0065,1106.1567Q917.52167,1055.9067,912.2433,1035.3486Q909.91064,1026.2642,902.7532,1019.73486Q888.389,1006.49243,888.85187,1007.4568Q884.93835,1004.6963,880.77386,1004.697"/>
      </g>
      <g style="fill:rgb(255,255,255); fill-opacity:1.0; stroke-linejoin: miter">
        <path d="M925.5729,1178.5276L896.85504,1186.155L884.14056,1181.5054L871.5573,1185.2476L869.50104,1181.5159L865.59424,1191.5751Q864.71515,1181.7827,863.2747,1188.5754Q862.22314,1193.351,862.3688,1196.5537Q862.58484,1199.0374,865.6001,1191.6858Q865.87036,1198.0259,864.94366,1200.4666Q864.3726,1201.682,863.52625,1201.5958L860.29,1200.5985L863.06085,1221.4398Q867.07434,1260.1005,868.0804,1267.4988Q869.7858,1281.3937,871.63837,1293.5085Q876.07764,1323.3481,888.97003,1388.667L911.0136,1386.6766L906.86017,1326.1184L941.20166,1371.8811L959.79987,1355.0784Q912.34204,1295.2323,905.95374,1289.7915Q910.0842,1285.0525,913.1138,1275.9117Q914.7999,1272.062,925.5903,1234.4802L927.6613,1228.5951L931.8127,1218.8354Q933.1855,1214.8783,933.727,1211.6792Q936.79565,1198.7985,925.6982,1178.7627"/>
      </g>
      <g style="fill:rgb(211,87,172); fill-opacity:1.0; stroke-linejoin: miter">
        <path d="M922.9396,1156.1373L898.0207,1156.5519Q903.55286,1164.4769,904.5697,1167.8188Q906.0052,1171.9233,904.15857,1174.4426Q902.4112,1176.9237,896.51166,1178.8477Q891.6637,1180.5055,878.94543,1182.646Q885.45575,1186.9353,889.6873,1188.3516Q894.2995,1189.974,899.11597,1189.7065Q907.50885,1189.5912,928.927,1179.8267L922.94476,1156.1586"/>
      </g>
      <g style="fill:rgb(255,155,119); fill-opacity:1.0; stroke-linejoin: miter">
        <path d="M799.36066,985.23987Q796.9797,985.3672,798.1383,987.6172Q798.6197,988.42505,799.5315,989.4153L805.11914,995.29346Q806.5535,997.00146,806.7722,998.20435Q806.9467,999.1106,806.1503,1000.0254L802.1091,1002.9686Q801.42084,1003.53064,801.1606,1004.43066Q800.6977,1006.3594,804.1397,1010.35254Q805.5656,1012.0377,808.831,1015.33704Q813.4512,1015.074,814.9714,1014.81116Q815.4663,1014.7958,815.8561,1015.1698L834.7273,1036.2476Q841.353,1043.3147,846.40564,1047.7678Q850.5774,1051.449,854.14276,1053.5908Q856.11835,1054.9888,865.05347,1058.9205Q866.7214,1059.7913,868.1295,1061.0685Q869.9574,1062.7212,871.94116,1066.1672L877.8006,1077.9565Q878.65643,1079.416,879.557,1079.4954Q880.89734,1079.6434,882.3751,1074.4054L877.2746,1065.5565Q874.1276,1062.5526,872.196,1059.3127Q870.24036,1056.105,868.81885,1052.3362Q867.6661,1049.3698,866.47003,1044.479Q862.2216,1025.0768,859.4247,1013.8478Q856.21545,1019.48804,855.43286,1022.32166Q854.96326,1023.912,854.7538,1025.55L854.3346,1030.675Q831.4429,1014.92175,820.86365,1009.00696Q820.0359,1008.3612,819.5232,1007.40027L817.9368,1002.7765Q817.4519,1001.66724,816.4563,1000.5698L810.8025,995.1157Q804.5632,987.6218,804.05237,987.45776Q801.8616,985.40393,799.395,985.23987"/>
      </g>
      <g style="fill:rgb(211,87,172); fill-opacity:1.0; stroke-linejoin: miter">
        <path d="M880.50946,1078.4984Q876.4955,1078.1692,871.28143,1088.9093Q864.0691,1104.6335,862.8373,1114.6373Q862.3767,1119.0306,863.90955,1121.8282Q864.3975,1122.7382,865.4427,1123.6744Q871.4746,1127.7054,872.2406,1129.0747Q874.1556,1131.4161,874.6736,1135.0889Q875.18787,1138.4321,874.261,1144.3489Q874.15955,1146.0703,870.1755,1164.4303Q869.4277,1168.3524,869.2498,1170.5558Q868.6899,1176.3337,871.19763,1176.3328Q872.9516,1176.3745,876.4032,1174.1676L888.81573,1165.301L893.4638,1162.2898Q897.3771,1159.993,900.105,1159.4209Q903.4004,1158.6622,906.7111,1159.7842Q908.62866,1160.0876,915.92944,1165.5575Q917.45215,1166.3629,918.56903,1165.8905Q922.32074,1163.9655,923.469,1155.469Q923.9758,1150.4113,922.00543,1147.3116Q921.1683,1145.2853,914.6555,1140.816Q913.868,1140.0481,913.49243,1139.1486Q913.23724,1138.5953,913.072,1137.5714Q912.7955,1132.5576,912.1138,1130.3048Q911.1523,1126.6188,909.53253,1124.0613Q908.3247,1122.2,906.9195,1121.651Q906.4521,1121.2593,902.51746,1120.9598Q901.9038,1120.8502,901.32086,1120.5249Q900.3114,1119.9377,899.51917,1118.3049Q898.69055,1116.6367,897.85596,1113.2059L893.7725,1094.9716Q891.96533,1091.4525,890.8813,1089.5065Q884.59595,1078.2542,880.6265,1078.5"/>
      </g>
      <g style="fill:rgb(255,155,119); fill-opacity:1.0; stroke-linejoin: miter">
        <path d="M901.51843,1157.1478Q873.3441,1169.6345,863.7416,1179.6296Q854.41315,1189.4706,859.36914,1200.954Q863.3243,1208.4084,867.69165,1206.6151Q869.61676,1205.5339,870.2635,1203.0074Q870.5398,1201.8495,870.37823,1200.6796Q870.4679,1200.4655,869.19464,1196.1248Q868.98737,1195.1105,869.0787,1194.2832Q869.2735,1192.2667,871.49664,1190.5986Q873.71924,1188.8866,878.9279,1186.7218Q878.729,1186.6036,898.6988,1179.4204Q903.48566,1177.5681,909.85016,1174.6583L901.5447,1157.2018"/>
      </g>
      <g style="fill:rgb(99,112,121); fill-opacity:0.21960784; stroke-linejoin: miter">
        <path d="M885.1734,1100.2108L893.0824,1142.5333L892.87726,1161.003L903.55493,1156.2356Q900.7546,1150.629,899.239,1145.9133Q898.64264,1144.1086,897.95044,1141.6193L894.42285,1128.3177Q893.3874,1124.526,892.38306,1121.2816Q890.2285,1114.1971,885.1989,1100.2812"/>
      </g>
      <g style="fill:rgb(211,87,172); fill-opacity:1.0; stroke-linejoin: miter">
        <path d="M923.48395,1160.0708Q916.945,1169.476,911.2592,1173.665Q908.452,1175.742,904.83105,1177.3749Q902.0441,1178.6854,895.3682,1180.8506Q897.7523,1184.5046,899.733,1185.6221Q901.9971,1186.9768,904.9847,1186.6357Q910.2283,1186.3248,926.7262,1177.5864L923.4853,1160.0786"/>
      </g>
      <g style="fill:rgb(225,225,225); fill-opacity:1.0; stroke-linejoin: miter">
        <path d="M909.1885,1220.991L898.82007,1290.7673Q900.0813,1357.1677,902.554,1374.1013Q904.2366,1387.697,907.7376,1388.1189Q907.85333,1388.1539,907.97473,1388.1693Q907.8651,1387.5826,907.7704,1386.9694L907.76965,1386.9694L910.77057,1386.6979L910.7711,1386.6984Q910.8838,1386.588,910.9988,1386.4703L910.9993,1386.4714L906.86017,1326.1184L906.86017,1326.1184L906.68384,1348.7433Q906.67834,1328.2732,906.5302,1323.0713Q907.4875,1302.7926,906.6595,1290.4381L906.6603,1290.4385Q906.6597,1290.4381,906.6595,1290.4376L906.6595,1290.4379Q906.6127,1289.7358,906.5706,1289.0527Q906.51984,1288.2355,906.47644,1287.4465Q905.68304,1273.1176,906.8084,1262.0455Q907.6593,1252.3204,911.38477,1237.808L909.19696,1221.0573L909.1885,1220.991L909.1885,1220.9916 Z"/>
      </g>
      <g style="fill:rgb(255,173,143); fill-opacity:1.0; stroke-linejoin: miter">
        <path d="M859.4955,1013.7811Q859.441,1013.81616,859.38666,1013.8517L859.3961,1013.8987L859.39594,1013.8989Q856.21204,1019.50085,855.43286,1022.32166Q855.4235,1022.3541,855.41394,1022.3862L855.41394,1022.3867Q855.33673,1022.8562,855.29114,1023.3308Q855.11096,1024.1985,854.88,1024.7032L854.88,1024.704Q854.8083,1025.125,854.7538,1025.55L854.35455,1030.4313L854.35455,1030.4313Q854.4396,1030.5511,854.52765,1030.6747L854.52765,1030.675Q854.5009,1032.184,854.3162,1033.6409Q854.18756,1034.9163,853.43933,1038.0496Q853.32324,1038.6714,853.40906,1039.0135Q853.45044,1039.2985,853.83307,1039.6287Q855.6834,1040.6781,855.81744,1040.9285Q856.2811,1041.3853,856.4976,1042.031Q856.68036,1042.5425,856.7113,1043.4886Q856.51337,1048.7178,856.70654,1049.4009Q856.92285,1051.3585,857.7896,1052.671Q858.56586,1053.8525,860.13226,1054.9774L866.34296,1058.7994Q867.3583,1059.6598,867.5958,1060.6075L867.59595,1060.6075Q867.8672,1060.8306,868.1295,1061.0685Q868.54706,1061.4459,868.97284,1061.9177L868.9727,1061.9177L870.64276,1070.2915Q875.53094,1075.066,878.022,1079.2776L878.02185,1079.2778Q876.56744,1080.2606,874.9803,1082.4703L874.9803,1082.4703Q879.71857,1082.0221,883.16235,1079.5337Q886.597,1076.8998,885.5354,1073.0056Q884.9258,1070.5642,882.77985,1067.3522Q881.1699,1064.8293,875.95123,1058.581L859.4956,1013.7811 Z"/>
      </g>
    </g>
  </g>
</svg>