<svg xmlns="http://www.w3.org/2000/svg" viewBox="0 0 500 500" xmlns:v="https://vecta.io/nano"><style><![CDATA[.B{stroke-linejoin:round}.C{fill:none}.D{stroke:#fff}.E{fill-rule:evenodd}.F{fill-opacity:1}.G{stroke-width:.265}.H{stroke-linejoin:miter}.I{stroke-opacity:1}.J{fill:#fbb479}.K{stroke-linecap:round}.L{stroke-width:1.5}.M{stroke:#169947}.N{stroke-width:.865}.O{clip-path:url(#V)}.P{stroke:#a00a0a}.Q{stroke:#958d8d}.R{stroke-width:.7}.S{clip-path:url(#U)}.T{color-interpolation-filters:sRGB}.U{stroke-width:2.465}.V{stroke-width:5.122}.W{stroke-opacity:.417}]]></style><defs><linearGradient id="A" href="#AK"><stop offset="0" stop-color="#0bbf4f"/><stop offset="1" stop-color="#98ecb7"/></linearGradient><linearGradient id="B" href="#AK"><stop offset="0" stop-color="#c8ecf7"/><stop offset="1" stop-color="#4b4b4b"/></linearGradient><linearGradient id="C" x1="-363.478" y1="149.267" x2="-311.045" y2="149.267" href="#B"/><linearGradient id="D" x1="-363.478" y1="149.267" x2="-311.045" y2="149.267" href="#B"/><linearGradient id="E" x1="-436.132" y1="320.521" x2="-409.82" y2="433.74" href="#A"/><linearGradient id="F" x1="-458.923" y1="492.734" x2="-95.844" y2="94.221" href="#AK"><stop offset="0" stop-color="#2ebd64"/><stop offset="1" stop-color="#6dc890"/></linearGradient><linearGradient id="G" x1="-225.515" y1="57.506" x2="-226.642" y2="377.737" href="#AK"><stop offset="0" stop-color="#bf400f"/><stop offset="1" stop-color="#f3d2c5"/></linearGradient><linearGradient id="H" x1="-585.211" y1="489.367" x2="-391.268" y2="593.104" href="#AK"><stop offset="0" stop-color="#edfbff"/><stop offset="1" stop-color="#5cafca"/></linearGradient><linearGradient id="I" x1="-603.238" y1="-24.49" x2="32.224" y2="430.516" href="#AK"><stop offset="0" stop-color="#9bd7e9"/><stop offset="1" stop-color="#c8ecf7"/></linearGradient><linearGradient id="J" x1="-144.365" y1="516.877" x2="-145.654" y2="679.287" href="#AK"><stop offset="0" stop-color="#cf80ff"/><stop offset="1" stop-color="#f2b8fa" stop-opacity=".988"/></linearGradient><linearGradient id="K" x1="-368.162" y1="199.146" x2="-322.081" y2="200.757" href="#AK"><stop offset="0" stop-color="#bf400f"/><stop offset="1" stop-color="#2a2a2a"/></linearGradient><linearGradient id="L" x1="-366.93" y1="197.857" x2="-318.271" y2="197.535" href="#AK"><stop offset="0" stop-color="#bf400f"/><stop offset="1" stop-color="#433a36"/></linearGradient><linearGradient id="M" x1="-377.358" y1="198.802" x2="-311.279" y2="200.169" href="#AK"><stop offset="0" stop-color="#bf400f"/><stop offset="1" stop-color="#242120"/></linearGradient><linearGradient id="N" x1="-378.577" y1="196.415" x2="-317.966" y2="197.782" href="#AK"><stop offset="0" stop-color="#f76b36"/><stop offset="1" stop-color="#272525"/></linearGradient><filter id="O" x="-.341" y="-.087" width="1.683" height="1.174" class="T"><feGaussianBlur stdDeviation="3.656"/></filter><clipPath id="P"><path d="M51.236 516.877c33.22 14.714 62.604 11.45 90.793.403 1.163-.456 1.476.679 1.047 1.852-9.523 25.995-13.531 96.071-13.574 96.069-23.833 9.169-47.277 13.298-69.404.283 0 0-1.306-70.178-10.03-97.882-.375-1.192.025-1.23 1.168-.724z" opacity="1" paint-order="fill markers stroke" class="B J K U"/></clipPath><clipPath id="Q"><path d="M51.236 516.877c33.22 14.714 62.604 11.45 90.793.403 1.163-.456 1.476.679 1.047 1.852-9.523 25.995-13.531 96.071-13.574 96.069-23.833 9.169-47.277 13.298-69.404.283 0 0-1.306-70.178-10.03-97.882-.375-1.192.025-1.23 1.168-.724z" opacity="1" paint-order="fill markers stroke" class="B J K U"/></clipPath><clipPath id="R"><path d="M85.072 516.877c-8.164 1.718-15.467-62.73-23.201-94.095s4.297-46.403 6.445-69.604 13.749-18.905 20.624-28.357-14.608-26.638-21.912-39.958 12.89-21.483 19.335-32.224 5.156-36.95 7.734-55.426 6.015-21.483 9.023-32.224 23.202 8.593 34.802 12.89 15.468 55.856 23.201 83.783-12.889 36.951-19.335 55.426 19.764 39.529 29.646 59.293-25.779 28.358-38.669 42.536 3.438 36.951 5.156 55.426-18.905 24.92-28.357 37.38c-2.865 3.776-14.808 10.558-15.718 13.03-4.4 11.953-.641 1.706-2.523-4.24-.683-2.156-3.926-4.123-6.25-3.634z" fill="url(#S)" class="D F G H I"/></clipPath><linearGradient id="S" x1="32.224" y1="338.999" x2="195.923" y2="344.155" href="#AK"><stop offset="0" stop-color="#9bd7e9"/><stop offset="1" stop-color="#a2b1b6"/></linearGradient><linearGradient id="T" x1="-436.132" y1="320.521" x2="-409.82" y2="433.74" href="#A"/><clipPath id="U"><path d="M85.072 516.877c-8.164 1.718-15.467-62.73-23.201-94.095s4.297-46.403 6.445-69.604 13.749-18.905 20.624-28.357-14.608-26.638-21.912-39.958 12.89-21.483 19.335-32.224 5.156-36.95 7.734-55.426 6.015-21.483 9.023-32.224 23.202 8.593 34.802 12.89 15.468 55.856 23.201 83.783-12.889 36.951-19.335 55.426 19.764 39.529 29.646 59.293-25.779 28.358-38.669 42.536 3.438 36.951 5.156 55.426-18.905 24.92-28.357 37.38c-2.865 3.776-14.808 10.558-15.718 13.03-4.4 11.953-.641 1.706-2.523-4.24-.683-2.156-3.926-4.123-6.25-3.634z" clip-path="url(#R)" fill="url(#S)" class="D F G H I"/></clipPath><clipPath id="V"><path d="M85.072 516.877c-8.164 1.718-15.467-62.73-23.201-94.095s4.297-46.403 6.445-69.604 13.749-18.905 20.624-28.357-14.608-26.638-21.912-39.958 12.89-21.483 19.335-32.224 5.156-36.95 7.734-55.426 6.015-21.483 9.023-32.224 23.202 8.593 34.802 12.89 15.468 55.856 23.201 83.783-12.889 36.951-19.335 55.426 19.764 39.529 29.646 59.293-25.779 28.358-38.669 42.536 3.438 36.951 5.156 55.426-18.905 24.92-28.357 37.38c-2.865 3.776-14.808 10.558-15.718 13.03-4.4 11.953-.641 1.706-2.523-4.24-.683-2.156-3.926-4.123-6.25-3.634z" fill="url(#S)" class="D F G H I S"/></clipPath><clipPath id="W"><path d="M85.072 516.877c-7.987-3.305-14.39-9.845-18.49-17.454s-6.03-16.24-6.671-24.86c-1.281-17.24 2.413-34.499 1.96-51.78-.314-11.943-2.607-23.773-2.832-35.719-.113-5.973.299-11.985 1.715-17.789s3.865-11.405 7.561-16.097c3.706-4.704 8.548-8.371 12.697-12.69 2.075-2.159 3.988-4.5 5.43-7.124s2.403-5.55 2.497-8.543c.122-3.886-1.22-7.709-3.202-11.055s-4.587-6.272-7.211-9.142-5.298-5.722-7.449-8.961-3.775-6.922-4.051-10.801c-.229-3.207.476-6.439 1.735-9.398s3.061-5.661 5.066-8.175c4.01-5.028 8.866-9.369 12.534-14.652 5.437-7.832 7.983-17.379 8.76-26.881s-.119-19.054-1.026-28.544c-.561-5.872-1.124-11.836-.047-17.636.539-2.9 1.492-5.739 2.992-8.279s3.559-4.774 6.077-6.309c2.881-1.756 6.3-2.552 9.674-2.481s6.701.985 9.747 2.436c6.093 2.902 10.963 7.834 15.381 12.935 9.951 11.49 18.378 24.527 23.024 38.999s5.32 30.481.177 44.784c-3.375 9.386-9.083 17.726-13.557 26.64-2.237 4.457-4.178 9.092-5.317 13.948s-1.457 9.951-.461 14.838c1.138 5.579 3.941 10.697 7.286 15.305s7.247 8.778 10.908 13.138 7.122 8.971 9.407 14.186 3.335 11.118 2.045 16.663c-1.109 4.764-3.878 9.017-7.262 12.549s-7.382 6.41-11.394 9.208-8.083 5.551-11.666 8.88-6.693 7.295-8.346 11.899c-1.594 4.439-1.767 9.29-1.172 13.968s1.933 9.227 3.301 13.74 2.778 9.034 3.523 13.691.808 9.494-.497 14.026c-2.186 7.592-7.921 13.574-13.61 19.056s-11.704 11.034-14.748 18.325c-.799 1.913-1.375 3.91-2.086 5.858s-1.57 3.869-2.86 5.492-3.055 2.936-5.083 3.366c-1.014.215-2.081.205-3.079-.075s-1.924-.834-2.61-1.611c-1.091-1.237-1.514-2.936-2.523-4.24-.747-.965-1.783-1.671-2.875-2.218s-2.248-.949-3.376-1.416z" fill="url(#S)" class="D F G H I S"/></clipPath><clipPath id="X"><path d="M85.072 516.877c-7.987-3.305-14.39-9.845-18.49-17.454s-6.03-16.24-6.671-24.86c-1.281-17.24 2.413-34.499 1.96-51.78-.314-11.943-2.607-23.773-2.832-35.719-.113-5.973.299-11.985 1.715-17.789s3.865-11.405 7.561-16.097c3.706-4.704 8.548-8.371 12.697-12.69 2.075-2.159 3.988-4.5 5.43-7.124s2.403-5.55 2.497-8.543c.122-3.886-1.22-7.709-3.202-11.055s-4.587-6.272-7.211-9.142-5.298-5.722-7.449-8.961-3.775-6.922-4.051-10.801c-.229-3.207.476-6.439 1.735-9.398s3.061-5.661 5.066-8.175c4.01-5.028 8.866-9.369 12.534-14.652 5.437-7.832 7.983-17.379 8.76-26.881s-.119-19.054-1.026-28.544c-.561-5.872-1.124-11.836-.047-17.636.539-2.9 1.492-5.739 2.992-8.279s3.559-4.774 6.077-6.309c2.881-1.756 6.3-2.552 9.674-2.481s6.701.985 9.747 2.436c6.093 2.902 10.963 7.834 15.381 12.935 9.951 11.49 18.378 24.527 23.024 38.999s5.32 30.481.177 44.784c-3.375 9.386-9.083 17.726-13.557 26.64-2.237 4.457-4.178 9.092-5.317 13.948s-1.457 9.951-.461 14.838c1.138 5.579 3.941 10.697 7.286 15.305s7.247 8.778 10.908 13.138 7.122 8.971 9.407 14.186 3.335 11.118 2.045 16.663c-1.109 4.764-3.878 9.017-7.262 12.549s-7.382 6.41-11.394 9.208-8.083 5.551-11.666 8.88-6.693 7.295-8.346 11.899c-1.594 4.439-1.767 9.29-1.172 13.968s1.933 9.227 3.301 13.74 2.778 9.034 3.523 13.691.808 9.494-.497 14.026c-2.186 7.592-7.921 13.574-13.61 19.056s-11.704 11.034-14.748 18.325c-.799 1.913-1.375 3.91-2.086 5.858s-1.57 3.869-2.86 5.492-3.055 2.936-5.083 3.366c-1.014.215-2.081.205-3.079-.075s-1.924-.834-2.61-1.611c-1.091-1.237-1.514-2.936-2.523-4.24-.747-.965-1.783-1.671-2.875-2.218s-2.248-.949-3.376-1.416z" fill="url(#S)" class="D F G H I S"/></clipPath><clipPath id="Y"><path d="M85.072 516.877c-7.987-3.305-14.39-9.845-18.49-17.454s-6.03-16.24-6.671-24.86c-1.281-17.24 2.413-34.499 1.96-51.78-.314-11.943-2.607-23.773-2.832-35.719-.113-5.973.299-11.985 1.715-17.789s3.865-11.405 7.561-16.097c3.706-4.704 8.548-8.371 12.697-12.69 2.075-2.159 3.988-4.5 5.43-7.124s2.403-5.55 2.497-8.543c.122-3.886-1.22-7.709-3.202-11.055s-4.587-6.272-7.211-9.142-5.298-5.722-7.449-8.961-3.775-6.922-4.051-10.801c-.229-3.207.476-6.439 1.735-9.398s3.061-5.661 5.066-8.175c4.01-5.028 8.866-9.369 12.534-14.652 5.437-7.832 7.983-17.379 8.76-26.881s-.119-19.054-1.026-28.544c-.561-5.872-1.124-11.836-.047-17.636.539-2.9 1.492-5.739 2.992-8.279s3.559-4.774 6.077-6.309c2.881-1.756 6.3-2.552 9.674-2.481s6.701.985 9.747 2.436c6.093 2.902 10.963 7.834 15.381 12.935 9.951 11.49 18.378 24.527 23.024 38.999s5.32 30.481.177 44.784c-3.375 9.386-9.083 17.726-13.557 26.64-2.237 4.457-4.178 9.092-5.317 13.948s-1.457 9.951-.461 14.838c1.138 5.579 3.941 10.697 7.286 15.305s7.247 8.778 10.908 13.138 7.122 8.971 9.407 14.186 3.335 11.118 2.045 16.663c-1.109 4.764-3.878 9.017-7.262 12.549s-7.382 6.41-11.394 9.208-8.083 5.551-11.666 8.88-6.693 7.295-8.346 11.899c-1.594 4.439-1.767 9.29-1.172 13.968s1.933 9.227 3.301 13.74 2.778 9.034 3.523 13.691.808 9.494-.497 14.026c-2.186 7.592-7.921 13.574-13.61 19.056s-11.704 11.034-14.748 18.325c-.799 1.913-1.375 3.91-2.086 5.858s-1.57 3.869-2.86 5.492-3.055 2.936-5.083 3.366c-1.014.215-2.081.205-3.079-.075s-1.924-.834-2.61-1.611c-1.091-1.237-1.514-2.936-2.523-4.24-.747-.965-1.783-1.671-2.875-2.218s-2.248-.949-3.376-1.416z" transform="matrix(7.421573 -2.637374 2.637374 7.421573 -815.89685 -308.69416)" fill="url(#S)" class="D F G H I O"/></clipPath><clipPath id="Z"><path d="M85.072 516.877c-7.987-3.305-14.39-9.845-18.49-17.454s-6.03-16.24-6.671-24.86c-1.281-17.24 2.413-34.499 1.96-51.78-.314-11.943-2.607-23.773-2.832-35.719-.113-5.973.299-11.985 1.715-17.789s3.865-11.405 7.561-16.097c3.706-4.704 8.548-8.371 12.697-12.69 2.075-2.159 3.988-4.5 5.43-7.124s2.403-5.55 2.497-8.543c.122-3.886-1.22-7.709-3.202-11.055s-4.587-6.272-7.211-9.142-5.298-5.722-7.449-8.961-3.775-6.922-4.051-10.801c-.229-3.207.476-6.439 1.735-9.398s3.061-5.661 5.066-8.175c4.01-5.028 8.866-9.369 12.534-14.652 5.437-7.832 7.983-17.379 8.76-26.881s-.119-19.054-1.026-28.544c-.561-5.872-1.124-11.836-.047-17.636.539-2.9 1.492-5.739 2.992-8.279s3.559-4.774 6.077-6.309c2.881-1.756 6.3-2.552 9.674-2.481s6.701.985 9.747 2.436c6.093 2.902 10.963 7.834 15.381 12.935 9.951 11.49 18.378 24.527 23.024 38.999s5.32 30.481.177 44.784c-3.375 9.386-9.083 17.726-13.557 26.64-2.237 4.457-4.178 9.092-5.317 13.948s-1.457 9.951-.461 14.838c1.138 5.579 3.941 10.697 7.286 15.305s7.247 8.778 10.908 13.138 7.122 8.971 9.407 14.186 3.335 11.118 2.045 16.663c-1.109 4.764-3.878 9.017-7.262 12.549s-7.382 6.41-11.394 9.208-8.083 5.551-11.666 8.88-6.693 7.295-8.346 11.899c-1.594 4.439-1.767 9.29-1.172 13.968s1.933 9.227 3.301 13.74 2.778 9.034 3.523 13.691.808 9.494-.497 14.026c-2.186 7.592-7.921 13.574-13.61 19.056s-11.704 11.034-14.748 18.325c-.799 1.913-1.375 3.91-2.086 5.858s-1.57 3.869-2.86 5.492-3.055 2.936-5.083 3.366c-1.014.215-2.081.205-3.079-.075s-1.924-.834-2.61-1.611c-1.091-1.237-1.514-2.936-2.523-4.24-.747-.965-1.783-1.671-2.875-2.218s-2.248-.949-3.376-1.416z" transform="matrix(-5.488129 5.649418 -5.649418 -5.488129 118.06111 830.95074)" fill="url(#S)" class="D F G H I O"/></clipPath><clipPath id="a"><path d="M85.072 516.877c-7.987-3.305-14.39-9.845-18.49-17.454s-6.03-16.24-6.671-24.86c-1.281-17.24 2.413-34.499 1.96-51.78-.314-11.943-2.607-23.773-2.832-35.719-.113-5.973.299-11.985 1.715-17.789s3.865-11.405 7.561-16.097c3.706-4.704 8.548-8.371 12.697-12.69 2.075-2.159 3.988-4.5 5.43-7.124s2.403-5.55 2.497-8.543c.122-3.886-1.22-7.709-3.202-11.055s-4.587-6.272-7.211-9.142-5.298-5.722-7.449-8.961-3.775-6.922-4.051-10.801c-.229-3.207.476-6.439 1.735-9.398s3.061-5.661 5.066-8.175c4.01-5.028 8.866-9.369 12.534-14.652 5.437-7.832 7.983-17.379 8.76-26.881s-.119-19.054-1.026-28.544c-.561-5.872-1.124-11.836-.047-17.636.539-2.9 1.492-5.739 2.992-8.279s3.559-4.774 6.077-6.309c2.881-1.756 6.3-2.552 9.674-2.481s6.701.985 9.747 2.436c6.093 2.902 10.963 7.834 15.381 12.935 9.951 11.49 18.378 24.527 23.024 38.999s5.32 30.481.177 44.784c-3.375 9.386-9.083 17.726-13.557 26.64-2.237 4.457-4.178 9.092-5.317 13.948s-1.457 9.951-.461 14.838c1.138 5.579 3.941 10.697 7.286 15.305s7.247 8.778 10.908 13.138 7.122 8.971 9.407 14.186 3.335 11.118 2.045 16.663c-1.109 4.764-3.878 9.017-7.262 12.549s-7.382 6.41-11.394 9.208-8.083 5.551-11.666 8.88-6.693 7.295-8.346 11.899c-1.594 4.439-1.767 9.29-1.172 13.968s1.933 9.227 3.301 13.74 2.778 9.034 3.523 13.691.808 9.494-.497 14.026c-2.186 7.592-7.921 13.574-13.61 19.056s-11.704 11.034-14.748 18.325c-.799 1.913-1.375 3.91-2.086 5.858s-1.57 3.869-2.86 5.492-3.055 2.936-5.083 3.366c-1.014.215-2.081.205-3.079-.075s-1.924-.834-2.61-1.611c-1.091-1.237-1.514-2.936-2.523-4.24-.747-.965-1.783-1.671-2.875-2.218s-2.248-.949-3.376-1.416z" transform="matrix(1.424572 -4.030806 4.030806 1.424572 -957.97588 151.56251)" fill="url(#S)" class="D F G H I O"/></clipPath><clipPath id="b"><path d="M85.072 516.877c-7.987-3.305-14.39-9.845-18.49-17.454s-6.03-16.24-6.671-24.86c-1.281-17.24 2.413-34.499 1.96-51.78-.314-11.943-2.607-23.773-2.832-35.719-.113-5.973.299-11.985 1.715-17.789s3.865-11.405 7.561-16.097c3.706-4.704 8.548-8.371 12.697-12.69 2.075-2.159 3.988-4.5 5.43-7.124s2.403-5.55 2.497-8.543c.122-3.886-1.22-7.709-3.202-11.055s-4.587-6.272-7.211-9.142-5.298-5.722-7.449-8.961-3.775-6.922-4.051-10.801c-.229-3.207.476-6.439 1.735-9.398s3.061-5.661 5.066-8.175c4.01-5.028 8.866-9.369 12.534-14.652 5.437-7.832 7.983-17.379 8.76-26.881s-.119-19.054-1.026-28.544c-.561-5.872-1.124-11.836-.047-17.636.539-2.9 1.492-5.739 2.992-8.279s3.559-4.774 6.077-6.309c2.881-1.756 6.3-2.552 9.674-2.481s6.701.985 9.747 2.436c6.093 2.902 10.963 7.834 15.381 12.935 9.951 11.49 18.378 24.527 23.024 38.999s5.32 30.481.177 44.784c-3.375 9.386-9.083 17.726-13.557 26.64-2.237 4.457-4.178 9.092-5.317 13.948s-1.457 9.951-.461 14.838c1.138 5.579 3.941 10.697 7.286 15.305s7.247 8.778 10.908 13.138 7.122 8.971 9.407 14.186 3.335 11.118 2.045 16.663c-1.109 4.764-3.878 9.017-7.262 12.549s-7.382 6.41-11.394 9.208-8.083 5.551-11.666 8.88-6.693 7.295-8.346 11.899c-1.594 4.439-1.767 9.29-1.172 13.968s1.933 9.227 3.301 13.74 2.778 9.034 3.523 13.691.808 9.494-.497 14.026c-2.186 7.592-7.921 13.574-13.61 19.056s-11.704 11.034-14.748 18.325c-.799 1.913-1.375 3.91-2.086 5.858s-1.57 3.869-2.86 5.492-3.055 2.936-5.083 3.366c-1.014.215-2.081.205-3.079-.075s-1.924-.834-2.61-1.611c-1.091-1.237-1.514-2.936-2.523-4.24-.747-.965-1.783-1.671-2.875-2.218s-2.248-.949-3.376-1.416z" fill="url(#S)" class="D F G H I O"/></clipPath><linearGradient id="c" x1="86.384" y1="342.81" x2="148.215" y2="344.099" href="#AK"><stop offset="0" stop-color="#b8dae2"/><stop offset="1" stop-color="#91b7c1"/></linearGradient><linearGradient id="d" href="#AK"><stop stop-color="#519eeb" offset="0"/><stop stop-color="#87c8f7" offset="1"/></linearGradient><linearGradient id="e" href="#AK"><stop stop-color="#fff" stop-opacity=".8" offset="0"/><stop stop-color="#fff" stop-opacity="0" offset="1"/></linearGradient><linearGradient id="f" href="#AK"><stop stop-color="#698db2" offset="0"/><stop stop-color="#698db2" stop-opacity="0" offset="1"/></linearGradient><linearGradient id="g" href="#AK"><stop stop-color="#fff" offset="0"/><stop stop-color="#fff" stop-opacity="0" offset="1"/></linearGradient><linearGradient id="h" x1="124.68" x2="158.95" y1="18.023" y2="126.66" href="#g"/><linearGradient id="i" x1="147.259" x2="94.148" y1="161.156" y2="141.145" href="#AK"><stop stop-color="#d3824d" offset="0"/><stop stop-color="#eeb585" offset=".441"/><stop stop-color="#e29964" offset=".757"/><stop stop-color="#ab7042" offset="1"/></linearGradient><radialGradient id="j" cx="354.21" cy="123.41" r="74.279" gradientTransform="matrix(1.4089 .15554 -.19842 1.7974 -318.85 -151.76)" href="#AK"><stop stop-color="#f4c093" offset="0"/><stop stop-color="#c67b4c" stop-opacity=".984" offset="1"/></radialGradient><linearGradient id="k" x1="200.98" x2="169.88" y1="265.16" y2="182.49" href="#g"/><linearGradient id="l" x1="286.056" x2="211.156" y1="132.746" y2="137.006" href="#g"/><linearGradient id="m" x1="92.656" x2="96.699" y1="229.36" y2="311.24" href="#f"/><linearGradient id="n" x1="232.82" x2="227.089" y1="275.188" y2="364.138" href="#f"/><radialGradient id="o" cx="254.98" cy="269.76" r="19.628" gradientTransform="matrix(1 0 0 2.0409 0 -281.58)" href="#e"/><linearGradient id="p" x1="234.3" x2="324.43" y1="261.18" y2="267.85" href="#g"/><linearGradient id="q" x1="263.89" x2="317.64" y1="230.09" y2="152.9" href="#AK"><stop stop-opacity=".675" offset="0"/><stop stop-opacity="0" offset="1"/></linearGradient><filter id="r" x="-.037" y="-.067" width="1.075" height="1.134" class="T"><feGaussianBlur stdDeviation="2.23"/></filter><linearGradient id="s" x1="242.3" x2="167.86" y1="115.99" y2="12.212" href="#AK"><stop stop-color="#3a1500" offset="0"/><stop stop-color="#6c2700" offset="1"/></linearGradient><linearGradient id="t" x1="168.56" x2="198.68" y1="-97.231" y2="84.007" href="#g"/><linearGradient id="u" x1="138.65" x2="165.44" y1="6.545" y2="109.96" href="#e"/><linearGradient id="v" x1="139.9" x2="137.92" y1="252.86" y2="215.18" href="#d"/><linearGradient id="w" x1="185.668" x2="169.408" y1="239.725" y2="216.705" href="#d"/><linearGradient id="x" x1="163.34" x2="148.56" y1="268.45" y2="267.91" href="#AK"><stop stop-color="#5893ce" offset="0"/><stop stop-color="#5599dc" offset="1"/></linearGradient><linearGradient id="y" x1="108.87" x2="142.65" y1="226.36" y2="303.36" href="#e"/><linearGradient id="z" x1="185.69" x2="215.98" y1="337.77" y2="318.66" href="#e"/><linearGradient id="AA" x1="162.922" x2="196.702" y1="259.505" y2="336.505" href="#e"/><linearGradient id="AB" x1="247.74" x2="234.44" y1="231.55" y2="211.99" href="#e"/><linearGradient id="AC" x1="211.475" x2="196.015" y1="339.937" y2="319.417" href="#AK"><stop stop-color="#010101" offset="0"/><stop stop-color="#434343" offset="1"/></linearGradient><linearGradient id="AD" x1="210.065" x2="200.464" y1="336.323" y2="324.79" href="#AK"><stop stop-color="#909090" offset="0"/><stop stop-color="#bababa" stop-opacity="0" offset="1"/></linearGradient><radialGradient id="AE" cx="168.57" cy="301.94" r="14.964" gradientTransform="matrix(2.0784 -1.8813 1.131 1.2495 -496.96 260.94)" href="#AK"><stop stop-color="#bfbfbf" offset="0"/><stop offset="1"/></radialGradient><linearGradient id="AF" x1="181.264" x2="188.216" y1="278.569" y2="288.518" href="#e"/><linearGradient id="AG" x1="107.782" x2="109.833" y1="292.612" y2="304.376" href="#e"/><linearGradient id="AH" x1="95.086" x2="131.93" y1="202.67" y2="271.36" href="#e"/><path id="AI" d="M-343.316 375.389c-18.224-25.011-43.523-35.686-77.217-29.342l-60.441 24.544c-3.305 10.168 52.285 32.69 67.014 32.672 22.361-.027 81.29-15.824 70.645-27.874z"/><path id="AJ" d="M-465.318 372.512c37.38-5.948 74.76-5.96 112.14 3.867"/><linearGradient id="AK" gradientUnits="userSpaceOnUse"/></defs><g transform="matrix(.381292 0 0 .427897 235.917831 -13.576537)"><path d="M143.552 518.381c.399 11.381-92.963 12.584-93.423 0-.124-3.396 20.913-6.152 46.711-6.152s46.592 2.757 46.711 6.152z" fill="#9f5913" paint-order="fill markers stroke"/><ellipse cx="-212.422" cy="616.509" rx="395.644" ry="64.946" fill="url(#J)" paint-order="fill markers stroke"/><path d="M-554.706 338.144v-6.192c-.4-21.268-4.213-42.302-6.865-63.408s-4.13-42.68.1-63.528c5.441-26.815 20.321-51.311 40.277-70.031s44.803-31.828 70.994-39.743c52.383-15.831 108.663-11.163 162.73-2.714 87.659 13.699 176.647 36.977 263.852 20.64 37.326-6.993 74.248-21.225 112.044-17.541 18.898 1.842 37.746 8.495 51.788 21.276 7.021 6.39 12.752 14.253 16.333 23.045s4.975 18.518 3.629 27.916c-1.46 10.201-6.067 19.752-11.996 28.181s-13.17 15.839-20.468 23.114-14.712 14.485-21.06 22.602S95.008 259 92.522 269.001c-2.447 9.844-2.088 20.236-.111 30.185s5.532 19.515 9.447 28.873c7.829 18.716 17.298 37.329 18.853 57.557 1.586 20.633-5.475 41.449-17.656 58.179s-29.22 29.549-47.82 38.62c-37.2 18.143-79.553 21.542-120.575 27.04-121.425 16.274-243.007 53.467-364.206 35.588-30.079-4.437-60.212-12.499-85.715-29.053-12.752-8.277-24.224-18.643-33.139-30.958s-15.227-26.606-17.582-41.625c-2.745-17.507-.112-35.39 3.292-52.78s7.595-34.767 7.984-52.483z" fill="url(#I)" stroke="#74b4c8" stroke-width=".253"/><path d="M8.237 28.213c5.261 8.728 9.054 19.776 9.738 32.154.582 10.527-1.099 22.068-6.091 32.959-4.482 9.778-11.586 18.862-20.897 26.046-8.568 6.61-18.973 11.56-30.342 13.554-10.143 1.773-20.54 1.29-31.299-.57-10.316-1.784-20.533-4.747-31.06-7.945-9.935-3.017-20.63-6.3-31.337-8.417-10.468-2.07-21.401-3.13-32.498-1.733-12.371 1.578-24.105 6.15-34.881 12.784-10.576 6.511-20.164 14.972-28.442 24.399-8.16 9.291-15.164 19.43-21.642 29.953-6.419 10.427-12.299 21.193-18.237 31.775-12.047 21.481-24.475 42.384-40.013 60.751-7.774 9.189-16.319 17.666-25.601 24.954-9.365 7.354-19.408 13.439-30.099 17.853-9.898 4.071-20.363 6.736-31.095 9.018l-33.248 6.872c-11.672 2.587-23.033 5.914-33.708 11.007-11.577 5.524-21.87 12.961-29.735 22.401-6.064 7.365-10.384 15.666-13.086 24.074-2.942 9.153-3.988 18.481-3.388 27.313.672 9.892 3.375 18.958 7.089 26.69 3.615 7.525 8.207 13.853 13.104 18.96.324.338 2.805-.763 5.207-1.974s4.723-2.527 5.02-2.255c-.297-.272.843-2.687 2.093-5.024s2.605-4.592 2.372-4.835a55.57 55.57 0 0 1-9.626-13.727c-2.802-5.641-4.885-12.222-5.53-19.361-.575-6.367-.001-13.241 2.003-20.131 1.84-6.324 4.873-12.587 9.178-18.167 5.554-7.312 13.323-13.701 22.925-18.904 8.892-4.817 18.773-8.356 29.739-11.428 10.453-2.769 21.499-4.992 32.731-7.713 10.979-2.659 22.28-5.848 33.157-10.691 11.814-5.244 22.673-12.261 32.576-20.469 9.812-8.133 18.678-17.43 26.603-27.319 15.741-19.644 28.006-41.665 39.48-63.466 5.71-10.855 11.183-21.549 17.207-31.949 6.05-10.446 12.536-20.376 20.086-29.447 7.628-9.166 16.497-17.4 26.283-23.784 9.959-6.497 20.794-11.033 32.229-12.791 10.304-1.603 20.677-.936 30.934.794 10.511 1.773 21.072 4.699 31.145 7.463 10.629 2.917 21.07 5.658 31.627 7.208 11.029 1.619 21.706 1.852 32.101-.218 11.658-2.314 22.169-7.604 30.761-14.508 9.3-7.472 16.346-16.831 20.711-26.774 4.861-11.073 6.385-22.657 5.69-33.24-.819-12.459-4.678-23.421-9.935-32.142z" fill="url(#F)"/><g class="B P"><rect width="420.585" height="295.473" x="-419.458" y="165.705" ry="52.478" fill="url(#G)" stroke-width="8.515" paint-order="fill markers stroke"/><path d="M-3.357 251.777l1.665 157.326c.298 28.141-22.748 50.798-51.005 50.798h-312.131c-28.257 0-51.204-22.657-51.005-50.798l1.11-156.773z" fill="#d9d9d9" stroke-width="2.977" paint-order="fill markers stroke"/></g><g fill="#ffe99d" class="Q R B"><rect width="42.458" height="28.306" x="-323.335" y="266.843" ry="1.49" paint-order="fill markers stroke"/><rect width="42.458" height="28.306" x="-263.856" y="266.843" ry="1.49" paint-order="fill markers stroke"/><rect width="42.458" height="28.306" x="-204.376" y="266.843" ry="1.49" paint-order="fill markers stroke"/><rect width="42.458" height="28.306" x="-144.896" y="266.843" ry="1.49" paint-order="fill markers stroke"/><rect width="42.458" height="28.306" x="-85.416" y="266.843" ry="1.49" paint-order="fill markers stroke"/><rect width="42.458" height="28.306" x="-323.335" y="314.948" ry="1.49" paint-order="fill markers stroke"/><rect width="42.458" height="28.306" x="-263.856" y="314.948" ry="1.49" paint-order="fill markers stroke"/><rect width="42.458" height="28.306" x="-204.376" y="314.948" ry="1.49" paint-order="fill markers stroke"/><rect width="42.458" height="28.306" x="-144.896" y="314.948" ry="1.49" paint-order="fill markers stroke"/><rect width="42.458" height="28.306" x="-85.416" y="314.948" ry="1.49" paint-order="fill markers stroke"/><rect width="42.458" height="28.306" x="-382.815" y="314.948" ry="1.49" paint-order="fill markers stroke"/><rect width="42.458" height="28.306" x="-323.335" y="363.052" ry="1.49" paint-order="fill markers stroke"/><rect width="42.458" height="28.306" x="-263.856" y="363.052" ry="1.49" paint-order="fill markers stroke"/><rect width="42.458" height="28.306" x="-204.376" y="363.052" ry="1.49" paint-order="fill markers stroke"/><rect width="42.458" height="28.306" x="-144.896" y="363.052" ry="1.49" paint-order="fill markers stroke"/><rect width="42.458" height="28.306" x="-85.416" y="363.052" ry="1.49" paint-order="fill markers stroke"/><rect width="42.458" height="28.306" x="-382.815" y="363.052" ry="1.49" paint-order="fill markers stroke"/><rect width="42.458" height="28.306" x="-323.335" y="411.157" ry="1.49" paint-order="fill markers stroke"/><rect width="42.458" height="28.306" x="-263.856" y="411.157" ry="1.49" paint-order="fill markers stroke"/><rect width="42.458" height="28.306" x="-204.376" y="411.157" ry="1.49" paint-order="fill markers stroke"/><rect width="42.458" height="28.306" x="-144.896" y="411.157" ry="1.49" paint-order="fill markers stroke"/><rect width="42.458" height="28.306" x="-382.815" y="411.157" ry="1.49" paint-order="fill markers stroke"/></g><path d="M-69.245 365.432h28.305l11.96 21.527-29.102 8.372-16.345-13.156zM-85.603 510.17l3.98 18.838 9.927 104.924s10.297 3.538 9.188-.312c-.81-2.811 1.581-111.245 1.581-111.245l1.986 111.751c.264 1.322 10.18-.328 9.766-.083-4.627 2.729 13.454-124.403 13.454-124.403z" class="J"/><path d="M-90.114 460.289l58.372.796 2.113 14.062c3.446 13.109.063 27.698 2.074 37.643-4.342 6.106-33.228 10.286-43.134 5.417-9.862 1.586-17.212-1.133-21.812-8.567l2.919-26.002-2.627-9.487c-.354-1.279 2.096-13.861 2.096-13.861z" fill="#0e89d5"/><g class="J"><path d="M-22.83 478.901l-2.013 11.104c1.061.022 1.605 1.468 3.98-2.123l1.061 2.919-5.174 4.643c-1.305 1.305-1.453 7.158-.133 6.235.448-.313 7.827-8.092 7.827-8.092 1.887-2.045 3.425-4.352 2.521-8.49l-.998-6.055z" clip-path="url(#X)"/><path d="M-29.61 424.816l15.384.75-1.534 53.475-7.071-.14z" clip-path="url(#W)"/><g transform="rotate(330.149 -96.742 366.689)"><path d="M-107.094 315.421h6.898l5.307 25.737 10.082 13.001 4.412 7.129-13.757 8.834-6.044-7.472-6.102-11.94z"/><path d="M-107.094 315.421l-2.814-7.676-.75-5.628 1.126-.938 1.97-.469 1.126-.844 2.533-1.313-.563-9.193.844-2.814 1.032.938 1.97 10.506 1.689 3.283.657 11.257-1.92 2.892z"/></g></g><circle cx="-346.832" cy="196.14" r="13.554" fill="url(#K)" paint-order="fill markers stroke"/><rect width="21.528" height="73.353" x="-357.687" y="130.533" ry="10.764" fill="url(#C)" paint-order="fill markers stroke"/><g transform="translate(97.535)"><circle cx="-346.832" cy="196.14" r="13.554" fill="url(#L)" paint-order="fill markers stroke"/><rect width="21.528" height="73.353" x="-357.687" y="130.533" ry="10.764" fill="url(#D)" paint-order="fill markers stroke"/></g><g transform="translate(195.07 -.564)"><circle cx="-346.832" cy="196.14" r="13.554" fill="url(#M)" paint-order="fill markers stroke"/><rect width="21.528" height="73.353" x="-357.687" y="130.533" ry="10.764" fill="url(#D)" paint-order="fill markers stroke"/></g><g transform="translate(275.128)"><circle cx="-346.832" cy="196.14" r="13.554" fill="url(#N)" paint-order="fill markers stroke"/><rect width="21.528" height="73.353" x="-357.687" y="130.533" ry="10.764" fill="url(#D)" paint-order="fill markers stroke"/></g><path d="M-403.887 533.572a82.976 81.107 0 0 1-82.976 81.107 82.976 81.107 0 0 1-82.976-81.107 82.976 81.107 0 0 1 82.976-81.107 82.976 81.107 0 0 1 82.976 81.107z" fill="url(#H)" stroke-width="9.147" paint-order="fill markers stroke" class="P"/><path d="M-502.227 464.999c2.871 12.59 7.154 51.349 10.025 63.939l4.331-.988 4.331-.988c-2.871-12.59-15.816-49.373-18.687-61.964zm57.518 58.585c-7.601 1.344-31.176 1-38.777 2.344l.773 4.375.773 4.375c7.601-1.344 29.63-9.749 37.23-11.093z" fill="#a00a0a"/><g class="P"><path d="M-501.266 525.278l72.799 30.114" stroke-width="1.341" class="C"/><path d="M-479.863 530.424a7.119 7.119 0 1 1-14.237 0 7.119 7.119 0 1 1 14.237 0z" fill="#99bfcc" stroke-width="1.586" paint-order="fill markers stroke"/><path d="M-487.421 460.089l-.317 20.066m-.081 108.301l-.317 20.066m-53.594-77.646l-20.066-.317m150.826.317l-20.066-.317" class="C V"/></g><path d="M-196.146 273.677l10.203 16.227 19.525-28.26" stroke="#3580b9" stroke-width="3.465" class="C"/><path d="M-524.648 493.602l-14.544-13.828m107.055 106.567l-14.544-13.828m-2.924-79.553l14.011-14.368M-541.66 585.243l14.011-14.368" class="P V C"/><path d="M-93.882 370.038l4.773-9.545 4.302-7.131 14.858 4.776 10.59 17.764c1.914 4.534 3.158 8.636 6.259 8.649 5.751.024 14.483-8.181 21.708-12.635l8.405.285c6.233 5.355 8.894 11.36 9.286 17.777l-.319 35.927-16.281-.514-.646-19.759-3.449 11.409L-37.049 438l8.391 26.63c-19.646.161-44.742 7.671-63.712-4.341l11.807-54.128.265-25.471z" fill="#ea7fc9"/><path d="M-52.438 321.524c-2.91 1.108-5.415 3.175-7.216 5.715s-2.912 5.537-3.397 8.612c-.423 2.686-.402 5.515-1.592 7.96-.846 1.738-2.237 3.135-3.512 4.587s-2.491 3.067-2.855 4.964c-.215 1.122-.117 2.286.14 3.398s.669 2.183 1.088 3.245l1.136 3.23c.29 1.105.439 2.26.29 3.392-.169 1.284-.709 2.485-1.2 3.683s-.944 2.451-.922 3.746c.029 1.685.894 3.302 2.174 4.399s2.94 1.696 4.618 1.852 3.375-.111 4.988-.599 3.152-1.191 4.67-1.924c2.54-1.227 5.141-2.57 7.96-2.667 2.011-.069 3.99.51 5.865 1.239l5.617 2.206c1.923.592 3.999.879 5.948.379.975-.25 1.904-.698 2.671-1.35s1.365-1.511 1.656-2.475c.442-1.465.154-3.065-.432-4.479s-1.452-2.689-2.221-4.012c-3.805-6.546-5.192-14.213-5.837-21.757-.445-5.211-.598-10.58-2.653-15.389-1.307-3.057-3.441-5.853-6.368-7.429-3.216-1.732-7.199-1.831-10.613-.531z" fill="#64614d"/><path d="M-59.071 634.077l-.635 15.361 5.406.069 1.451-.912 7.043.605 8.167.047c.975-.63 1.715-3.661-.924-4.279-3.875-.908-12.66-9.688-11.114-10.962zm-3.2-.161l.474 15.764-6.6.34-.402-1.436-6.738.455-8.167.047c-.975-.63-1.715-3.661.924-4.279 3.875-.908 12.66-9.688 11.114-10.962z" fill="#fa4faa"/><path d="M51.236 516.877c34.501 14.071 63.901 12.763 90.793.403 1.135-.522 1.476.679 1.047 1.852-9.523 25.995-13.531 96.071-13.574 96.069-23.833 9.169-47.277 13.298-69.404.283 0 0-1.306-70.178-10.03-97.882-.375-1.192.011-1.196 1.168-.724z" clip-path="url(#Q)" paint-order="fill markers stroke" class="J"/><path d="M-232.372 409.364l3.343-8.206c-1.302-1.648-2.649-2.968-.912-7.294.899 2.039 1.826 4.05 2.432 6.383 2.753-3.129 2.494-6.816 3.351-11.209 1.59 2.809 4.127 5.077 2.728 9.081l-3.647 14.893z" fill="#f5b683"/><path d="M-324.635 471.908l6.013 9.55c-.976.417-.941 1.961-4.485-.483l.105 3.104 6.533 2.376c1.698.724 4.02 6.098 2.451 5.735-.533-.123-10.282-4.585-10.282-4.585-2.514-1.192-4.802-2.758-5.508-6.936l-1.334-5.99z" class="J"/><path d="M53.863 534.607l.935 6.021c28.021 8.972 54.381 11.654 82.74.924l1.196-6.205c-26.935 10.191-57.598 7.992-84.871-.74z" clip-path="url(#b)" fill="#bd7676"/><use href="#AI" fill="url(#E)" transform="rotate(4.249 -504.559 446.8)"/><path d="M-459.922 375.624c37.718-3.163 74.996-.405 111.546 12.165" class="C M N"/><path d="M142.834 518.327c-8.267 32.291-12.353 64.583-13.332 96.874l-12.382 4.122 5.013-95.245z" clip-path="url(#P)" fill="#9f6534" opacity=".458" filter="url(#O)"/><use href="#AI" fill="url(#T)" transform="rotate(239.621 -486.828 368.593)"/><path d="M-494.325 348.054c-24.036-29.24-42.95-61.481-53.375-98.699" class="C M N"/><g transform="matrix(.077944 .220542 -.220542 .077944 108.09465 199.46068)" clip-path="url(#a)"><use href="#AI" fill="url(#T)"/><use href="#AJ" class="C M N"/></g><g transform="matrix(-.088468 -.091068 .091068 -.088468 -65.228051 84.263735)" clip-path="url(#Z)"><use href="#AI" fill="url(#T)"/><use href="#AJ" class="C M N"/></g><g transform="matrix(.119634 .042514 -.042514 .119634 84.485454 71.617422)" clip-path="url(#Y)"><use href="#AI" fill="url(#T)"/><use href="#AJ" class="C M N"/></g><path d="M-29.007 425.453c-1.542 6.529-4.851 9.525-8.173 12.493 1.731 4.641 2.593 7.905 3.91 12.753l13.399-14.154 4.351-10.984z" class="J"/><path d="M88.19 191.835c-5.641 17.347-11 40.194-9.449 63.606s10.013 47.386 7.192 64.874-16.924 28.488-21.014 45.412 1.833 39.771 0 58.951-11.424 34.694-7.051 51.618 22.706 35.258 32.578 43.578 11.283 6.629 16.783-3.949 15.09-30.04 18.475-52.605.564-48.233 5.641-71.362 18.052-43.72 16.783-65.439-16.783-44.566-18.757-67.695 9.59-46.54 7.898-64.592-16.641-30.745-27.078-31.168-16.36 11.423-22.001 28.77z" fill="url(#c)"/><g stroke-width="2.065" class="C D"><path d="M96.673 522.033c11.097-112.886 18.218-226.566 12.245-342.866M99.895 481.43c-9.705-19.962-19.315-40.075-20.624-73.471"/><path d="M105.696 372.512c-9.666-8.38-21.201-14.891-19.335-34.802m22.557-45.758c-9.726-15.624-20.812-29.887-20.624-55.426m22.557-23.846c8.852-6.911 18.297-13.483 15.468-27.068m-18.69 161.765c13.861-5.966 24.369-15.958 29.646-32.224m-35.446 136.631c8.479-7.825 18.998-14.018 19.335-28.357"/></g></g><g transform="matrix(.480828 0 0 .454508 60.505272 143.977798)"><g class="E"><path d="M135.17 102.95c9.724 6.506 2.796 20.918 18.863 31.975 14.874 10.236-15.822 38.352-31.285 46.237-66.975 28.41-11.635-86.019 12.422-78.213z" fill="url(#i)" stroke="#cd7c4b" stroke-width="1.024"/><path transform="matrix(.68274 0 0 .68274 -.090289 81.139)" d="M280.65 233.6c20.264-5.637 40.756-13.544 57.179-26.684 6.896-5.517 18.168-12.356 16.201-20.966-4.588-20.082-34.701-26.585-55.273-27.637-109.73-5.609-116.99 102.79-18.107 75.286z" fill="url(#q)" filter="url(#r)"/></g><g transform="matrix(.68274 0 0 .68274 -.090289 -.10756)"><g class="E"><path d="M130.71 212.92l8.473 2.885 6.851 29.567 12.8 1.623 28.846-18.029 12.259 14.964-30.649 77.523-46.333-6.31z" fill="url(#x)"/><path d="M74.125 307.28c-.281 6.526 37.355 31.932 69.071 42.79 36.983 12.662 85.744 16.428 127.36 3.706 8.599-2.629 39.137-16.49 40.095-19.879 4.964-17.558.204-82.39-18.194-98.384-9.851-8.564-20.539-17.765-39.519-27.649-6.745-3.513-2.628-4.769-29.316-18.818-16.396 20.234-37.893 52.653-45.515 63.792-17.124 25.027-19.375 37.481-33.374 61.9-23.587-40.307-15.298-107.7-5.527-115.42-18.235 6.918-49.947 31.267-53.933 37.949-10.124 16.972-10.305 50.399-11.148 70.011z" fill="#9ed1ff" stroke="#81acd6" stroke-opacity=".949" class="B L"/><path d="M147.37 347.72c-10.23 16.245 17.215-34.264 29.576-48.953 16.441-19.537 33.163-33.214 59.151-50.228-2.879-3.263-12.424-9.204-16.23-12.988 5.714-2.382 16.886-4.474 28.723-3.84-.062-10.892-1.541-19.09-.997-28.429.827.271 1.748 1.113 2.527 2.168.871 8.711 1.727 16.909.976 27.884-8.328.03-24.798.195-30.33 2.516 4.934 3.479 12.366 7.258 17.489 12.612-29.731 21.29-40.156 33.474-57.995 52.345-13.221 13.986-19.814 26.149-32.89 46.913z" fill="#7fa2ba"/></g><path d="M150.94 302.85c1.512-20.877 2.259-37.988 4.972-55.582" stroke="#487eb3" class="C"/><path d="M156.21 246.94l10.432 23.456c10.663-19.05 30.277-49.713 60.226-82.163l-12.702-10.593c-1.453 7.528-.966 27.622-57.956 69.3z" fill="url(#w)" stroke="#4a86c2" class="B E"/><g class="C"><path d="m131.94 345.04c11.363-25.912 22.932-51.808 37.529-77.48 15.08-26.522 33.392-52.804 58.048-78.616" stroke="#7fa2ba" class="L"/><path d="M142.78 308.2c-.018-22.024 1.876-44.362 4.972-61.956" stroke="#487eb3"/><path d="m145.67 314.78c-23.743-44.303-15.335-79.048-10.817-106.73" stroke="#7fa2ba" class="B K L"/></g><path d="M131.61 263.76c5.86-6.697 11.628-13.311 18.209-17.848-7.674-13.077-8.09-23.332-7.211-33.082l-8.113-2.434c-5.539 42.866-2.618 41.035-2.885 53.365z" fill="url(#v)" stroke="#4a86c2" class="B E"/><g fill="#487db2"><circle cx="150.72" cy="254.21" r="2.254" opacity=".8"/><circle cx="148.56" cy="275.48" r="2.254" opacity=".8"/><circle cx="147.11" cy="298.47" r="2.254" opacity=".8"/></g><g class="E"><path d="M131.56 214.37c3.182-14.88-4.926 30.355-3.57 45.511 1.626 18.16 8.067 35.628 13.895 52.905 5.084 15.07-16.693-33.792-18.23-52.14-1.307-15.594 3.083-23.73 7.904-46.276z" fill="url(#y)"/><path d="M168.57 323.98c6.637 4.358 17.088 7.217 23.257 7.392 7.816.221 18.611-.245 24.158-5.589 3.946-3.802-51.34-4.38-47.415-1.803z" fill="url(#z)"/></g><path d="M167.85 324.97c4.806 2.841 11.868 6.036 18.479 7.031 6.005.904 15.017.295 21.003-.721 4.379-.744 10.133-3.971 10.096-5.228" stroke="#84c3ff" class="B C K"/><g class="E"><path d="M228.52 251.49c-16.252 11.745-28.02 20.877-40.167 33.071-9.293 9.329-34.906 46.231-25.046 30.549 7.128-11.338 13.506-23.46 22.875-33.03 12.087-12.347 57.83-41.786 42.338-30.591z" fill="url(#AA)"/><path d="M224.95 232.71c4.875-.969 15.093-4.135 19.426-4.282 1.744-.059 1.985-10.038 1.713-15.685-.281-5.825 1.588 17.536.541 17.488-6.061-.279-28.321 3.799-21.679 2.479z" fill="url(#AB)"/><path d="M93.162 235.68c1.024 17.262.145 35.988-1.179 66.881l8.76 1.348c-1.564-31.88-4.496-51.145-7.581-68.229z" fill="url(#m)"/><path d="M282.52 227.93c-18.899 10.242-34.996 30.906-44.432 53.038-11.574 27.148-15.074 56.173-15.711 74.49l8.76 1.348c1.605-20.48 4.792-46.934 14.81-73.055 7.555-19.698 20.343-44.597 36.572-55.821z" fill="url(#n)"/><path d="M246.3 308.79c.698-12.13 5.985-29.056 11.119-40.937 5.517-12.768 9.409-19.467 19.71-34.03 5.182-7.326-2.444.334-10.694 11.643-4.755 6.519-9.718 14.812-12.555 20.702-6.692 13.895-12.093 30.456-13.309 42.285-.196 1.903 5.618 2.246 5.728.337z" fill="url(#o)"/><path d="M249.92 220.62c18.01 12.035 21.723 21.5 27.398 35.26 10.219 24.778 10.216 45.931 9.768 79.813 4.85 2.604 12.254-2.49 14.771-7.386 4.214-30.673-4.209-63.612-10.959-77.43-7.717-15.797-55.596-40.026-40.978-30.257z" fill="url(#p)"/><path d="M136.48 336.6c-3.29-4.85-14.066-20.501-19.011-31.826-7.141-16.353-11.037-32.611-15.591-49.864-1.12-4.242-2.125-9.865-1.785-14.234 2.004-1.49 3.616-1.426 7.541-4.496-3.316-2.208-5.825-3.3-8.473-4.687 4.296-4.774 6.603-8.088 12.385-15.525-.905.347-1.185.568-2.207 1.095-2.697 4.066-9.138 11.482-11.95 14.739 3.195 1.222 6.262 2.327 9.165 4.356-3.87 2.282-6.238 3.734-7.67 4.318-.838 4.352.75 10 1.803 14.839 3.759 17.274 5.566 34.091 13.077 50.094 4.086 8.706 13.455 22.012 21.495 33.878.359-.669.823-1.793 1.221-2.689z" fill="#7fa2ba"/></g><g class="C"><path d="m105.66 322.4c-32.452-14.829-25.976-36.87-23.329-56.472" stroke="#5d5d5d" stroke-width="4"/><path d="m102.62 319.8c-23.765-12.492-25.292-29.356-21.672-49.335" class="B D K W"/><path d="M76.081 314.24c27.403.585 36.724-13.464 43.088-37.86" stroke="#5d5d5d" stroke-width="4"/></g><circle cx="206.43" cy="329.75" r="16.586" fill="#090c0e"/><circle cx="204.44" cy="330.47" r="16.226" fill="url(#AE)"/><circle cx="204.64" cy="329.74" r="9.88" fill="#f6f6f6" stroke="url(#AC)" class="B L"/><circle cx="204.99" cy="330.89" r="8.031" fill="url(#AD)"/><path d="M209.67 312.26s8.631-30.103 11.178-47.776c3.479-24.139 9.118-58.796 1.262-82.03-2.75-8.132-10.457-9.735-10.457-9.735M129.78 198.82s-4.841 3.04-6.884 6.374c-5.708 9.318-10.453 33.145-10.453 33.145m6.117 39.771s7.138-15.268 6.119-23.202c-.683-5.322-3.004-9.993-7.363-13.122-4.076-2.925-10.412-4.704-15.329-3.706-4.505.914-8.57 4.086-11.473 7.649-4.576 5.615-8.159 20.142-8.159 20.142" stroke="#000" stroke-width="8" class="B C K"/><g fill="#090c0e"><ellipse transform="matrix(.99382 .11097 -.11097 .99382 0 0)" cx="103.99" cy="304.22" rx="9.735" ry="4.147"/><ellipse cx="188.87" cy="286.2" rx="9.735" ry="4.147" transform="matrix(.96901 .24702 -.24702 .96901 0 0)"/></g><ellipse transform="matrix(.96901 .24702 -.24702 .96901 0 0)" cx="187.12" cy="285.9" rx="6.221" ry="2.65" fill="url(#AF)"/><ellipse transform="matrix(.99105 .13348 -.13348 .99105 0 0)" cx="108.73" cy="301.76" rx="6.221" ry="2.65" fill="url(#AG)"/><path d="M92.126 240.69c5.373-4.84 10.623-5.475 18.209-4.687.586-3.215 2.536-12.974 5.259-21.084 3.004-8.948 9.688-17.476 6.279-11.187-2.422 4.469-3.415 6.11-5.116 11.066-2.206 6.427-3.337 16.637-4.439 21.926 2.659 1.058 8.617 6.37 10.127 10.531 2.584 7.122 1.168 19.267-2.85 24.158-3.803 4.63 11.101-15.025-3.438-28.973-6.93-6.649-17.126-5.403-24.053.849-1.408 1.271-3.343 3.595-5.084 6.951-3.883 7.483-7.312 17.056-5.394 9.983 2.671-9.849 5.848-15.342 10.5-19.532z" fill="url(#AH)" class="E"/><path d="M79.548 313.43c20.458-.833 30.008-8.952 36.97-30.723" class="B C D K W"/><g class="E"><path d="M104.24 64.737c-9.194 28.749-10.093 70.691-2.572 89.852 8.48 21.605 19.516 49.769 35.657 63.581 10.997 9.411 30.766.44 43.604-6.245 18.876-9.83 26.778-23.178 37.062-37.399 11.45-15.832 24.782-32.772 26.618-52.224 2.077-22.009-5.043-46.165-18.531-63.68-11.035-14.329-28.434-27.032-46.497-27.965-25.64-1.325-68.044 11.264-75.341 34.081z" fill="url(#j)" stroke="#cd7c4b" class="B L"/><path d="M100.54 123.41c-2.492-26.057.155-60.255 17.06-76.18 61.9-57.876 99.978 24.142 54.26 54.157-16.412 10.337-69.963 36.214-71.32 22.023z" fill="url(#h)"/><path d="M140.57 213.23c-5.217-4.355-3.787 4.188 3.833 4.956 8.329.84 22.199-1.845 35.477-9.483 16.149-9.29 22.665-23.212 37.405-42.646 9.927-13.09-20.922 30.805-42.17 40.978-12.379 5.927-30.95 9.196-34.546 6.194z" fill="url(#k)"/><path d="M215.53 124.95c4.125-3.71 8.602-4.173 10.166-3.179 15.724 9.992-10.185 46.028-3.532 38.723 11.062-12.146 21.896-45.609.789-42.749-4.559.618-8.768 8.415-7.423 7.205z" fill="url(#l)"/><path d="M185.44 64.944c29.485 16.547 19.051 28.567 21.11 63.696.08 1.363 1.136 3.056 2.154 1.681 26.562-35.848 44.169 7.794 11.436 35.26-1.857 1.558 2.234 8.035 3.812 6.194 14.516-16.938 24.978-33.915 27.627-56.523 2.987-25.502-1.251-62.823-19.399-80.987-17.862-17.878-43.94-20.045-68.981-16.635-20.731 2.823-38.921 10.258-54.627 20.395-7.375 4.76-15.654 15.051-19.519 18.083-4.539 3.561 12.813 11.698 15.978 11.974 14.713 1.285 32.2.723 48.282-1.559 12.335-1.751 23.969-6.158 32.127-1.58z" fill="url(#s)" stroke="#6c2700" class="L"/><path d="M195.85 68.071c12.518.216 29.218-22.977 31.336-20.704 18.492 19.837 16.35 58.065 15.948 86.455-.018 1.244 3.454.391 3.637-.839 4.91-33.054 6.55-67.923-11.471-93.729-11.529-16.51-34.905-23.261-57.077-21.824-30.649 1.987-66.537 14.697-85.056 36.513-5.376 6.333 21.156 6.913 33.855 7.554 16.779.848 38.18-8.578 54.279-3.777 5.704 1.701 8.598 10.249 14.549 10.352z" fill="url(#t)"/><path d="M92.61 56.46c7.879 1.613 23.875 4.35 36.932 4.197 11.545-.136 24.421-3.782 35.953-4.337 5.651-.272 17.979 1.274 16.927 1.259-5.504-.077-11.023-.886-16.508-.42-11.509.978-24.269 4.801-35.813 5.176-13.302.433-29.351-1.362-37.772-3.637-.726-.196-.457-2.389.28-2.238z" fill="url(#u)"/></g></g></g></svg>