<svg xmlns="http://www.w3.org/2000/svg" viewBox="0 0 500 500" xmlns:v="https://vecta.io/nano"><style><![CDATA[.B{fill-rule:evenodd}.C{fill:#a83838}.D{fill:#282828}.E{fill:#ffba9f}.F{fill:#e8957c}]]></style><defs><filter x="0%" y="0%" width="100%" height="100%" id="A"><feColorMatrix values="0 0 0 0 1 0 0 0 0 1 0 0 0 0 1 0 0 0 1 0" color-interpolation-filters="sRGB"/></filter><clipPath id="B"><path d="M98 195h627v432H98zm0 0"/></clipPath><clipPath id="C"><path d="M96.84 205.363l619.371-18.383 12.734 429.012-619.371 18.383zm0 0"/></clipPath><clipPath id="D"><path d="M96.84 205.363l619.371-18.383 12.734 429.012-619.371 18.383zm0 0"/></clipPath><clipPath ><path d="M227 513h494v109H227zm0 0"/></clipPath><clipPath ><path d="M96.84 205.363l619.371-18.383 12.734 429.012-619.371 18.383zm0 0"/></clipPath><clipPath id="G"><path d="M133 216h355v265H133zm0 0"/></clipPath><clipPath id="H"><path d="M96.84 205.363l619.371-18.383 12.734 429.012-619.371 18.383zm0 0"/></clipPath><clipPath id="I"><path d="M96.84 205.363l619.371-18.383 12.734 429.012-619.371 18.383zm0 0"/></clipPath><clipPath id="J"><path d="M195 357h530v248H195zm0 0"/></clipPath><clipPath id="K"><path d="M96.84 205.363l619.371-18.383 12.734 429.012-619.371 18.383zm0 0"/></clipPath><clipPath id="L"><path d="M96.84 205.363l619.371-18.383 12.734 429.012-619.371 18.383zm0 0"/></clipPath><clipPath id="M"><path d="M137 223h464v324H137zm0 0"/></clipPath><clipPath id="N"><path d="M96.84 205.363l619.371-18.383 12.734 429.012-619.371 18.383zm0 0"/></clipPath><clipPath id="O"><path d="M96.84 205.363l619.371-18.383 12.734 429.012-619.371 18.383zm0 0"/></clipPath><clipPath id="P"><path d="M531.664 509.434h54.063v20.328h-54.062zm0 0"/></clipPath><clipPath id="Q"><path d="M437 163.75h33V205h-33zm0 0"/></clipPath><clipPath id="R"><path d="M.344.559H70.02V54H.344zm0 0"/></clipPath><clipPath id="S"><path d="M.344.559H70.02V12H.344zm0 0"/></clipPath><clipPath id="T"><path d="M29 37h26v33.234H29zm0 0"/></clipPath><clipPath id="U"><path d="M0 0H71V71H0z"/></clipPath><clipPath id="V"><path d="M162 239h71v53h-71zm0 0"/></clipPath><clipPath id="W"><path d="M146.91 250.113l81.934-18.52 26.285 116.316-81.934 18.52zm0 0"/></clipPath><clipPath id="X"><path d="M146.91 250.113l81.934-18.52 26.285 116.316-81.934 18.52zm0 0"/></clipPath><clipPath id="Y"><path d="M160 287h95v80h-95zm0 0"/></clipPath><clipPath id="Z"><path d="M146.91 250.113l81.934-18.52 26.285 116.316-81.934 18.52zm0 0"/></clipPath><clipPath id="a"><path d="M146.91 250.113l81.934-18.52 26.285 116.316-81.934 18.52zm0 0"/></clipPath><clipPath id="b"><path d="M197 311h19v31h-19zm0 0"/></clipPath><clipPath id="c"><path d="M146.91 250.113l81.934-18.52 26.285 116.316-81.934 18.52zm0 0"/></clipPath><clipPath id="d"><path d="M146.91 250.113l81.934-18.52 26.285 116.316-81.934 18.52zm0 0"/></clipPath><clipPath id="e"><path d="M163 241h68v49h-68zm0 0"/></clipPath><clipPath id="f"><path d="M146.91 250.113l81.934-18.52 26.285 116.316-81.934 18.52zm0 0"/></clipPath><clipPath id="g"><path d="M146.91 250.113l81.934-18.52 26.285 116.316-81.934 18.52zm0 0"/></clipPath><clipPath id="h"><path d="M162 289h91v76h-91zm0 0"/></clipPath><clipPath id="i"><path d="M146.91 250.113l81.934-18.52 26.285 116.316-81.934 18.52zm0 0"/></clipPath><clipPath id="j"><path d="M146.91 250.113l81.934-18.52 26.285 116.316-81.934 18.52zm0 0"/></clipPath><clipPath id="k"><path d="M199 313h15v27h-15zm0 0"/></clipPath><clipPath id="l"><path d="M146.91 250.113l81.934-18.52 26.285 116.316-81.934 18.52zm0 0"/></clipPath><clipPath id="m"><path d="M146.91 250.113l81.934-18.52 26.285 116.316-81.934 18.52zm0 0"/></clipPath><mask id="n"><g filter="url(#A)"><path fill-opacity=".71" d="M-81-81h972v972H-81z"/></g></mask><path id="o" d="M294.492 330.199a57.27 57.27 0 0 1-4.141-4.437c-5.262-6.27-8.535-13.562-9.977-21.398a28.81 28.81 0 0 0 12.727 2.992c-3.918 7.828-3.918 8.797-3.918 8.797l6.141 1.992s-1.633 6.469-.832 12.055"/><path id="p" d="M3.828 4.043h2.32v2.32h-2.32zm0 0"/></defs><g transform="matrix(.780236 0 0 .986828 -61.498253 -129.608078)"><g clip-path="url(#B)" transform="translate(-16.986 1.343)"><g clip-path="url(#C)" transform="translate(6.795 2.686)"><g clip-path="url(#D)"><path fill="#d9d9d9" d="M724.68 503.426s-5.23 38.414-7.312 38.969l-334.559 83.898-200.234-111.98L98.832 241.41l11.699-31.25.02-.039 334.164-15.078 64.141 247.695 109.023 42.277 106.801 18.41"/></g></g></g><g clip-path="url(#G)" transform="translate(-18.685 17.459)"><g clip-path="url(#H)"><g clip-path="url(#I)"><path fill="#8fd8c6" d="M487.035 426.707l-289.969 53.801L133.84 227.18l302.168-10.582 51.027 210.109"/></g></g></g><g clip-path="url(#J)" transform="translate(-17.66 2.871)"><g clip-path="url(#K)"><g clip-path="url(#L)"><path fill="#f78d89" d="M350.48 381.824c.086.133.153.278.157.453.015.52-.149.969-.371.996s-.664-.343-.989-.824c-.035-.058-.047-.105-.066-.16-.301-.016-.504-.152-.512-.434-.015-.5.59-.992 1.336-1.082s1.371 0 1.375.207c.004.165-.394.512-.93.844zm-58.617-6.711a20.09 20.09 0 0 0-2.715.77c-.66.265-2.429.449-3.937.414-4.336-.106-5.027-1.555-.926-1.93 3.879-.355 10.074.258 7.578.746zm-63.043 24.985c-4.215-.27-3.574-.41 4.192-.942 9.261-.633 14.426-1.871 13.5-3.242-.278-.418-1.559-.203-2.844.469s-2.508 1.082-2.711.902.961-1.019 2.582-1.859c6.524-3.375 6.633-3.543 1.863-2.797-2.578.406-4.484 1.027-4.242 1.391s.047.703-.43.761c-.468.055-1.097-.457-1.382-1.144-.403-.961.55-1.383 4.183-1.832 2.59-.325 5.453-.469 6.367-.332 1.618.246 1.618.304.055 1.757-1.547 1.45-1.539 1.5.16 1.325 1.379-.149 1.539.093.719 1.078-1.863 2.234-1.172 2.34 6.188.957 3.972-.75 6.902-.981 6.519-.52-.84 1.004-28.453 5.594-29.219 4.86-.293-.282-2.769-.657-5.5-.832zm26.465-9.625c.633.183.129.465-1.121.617s-1.769 0-1.152-.34 1.644-.461 2.273-.277zm11.192-15.028c-1.442-.324-.086-.578 3.628-.695 3.262-.102 6.102-.047 6.321.117.758.594-7.699 1.086-9.949.578zm-22.77-4.277c-.273-.238 5.293-1.141 12.363-2.008 11.832-1.445 12.809-1.699 12.293-3.164-.402-1.133-.308-1.277.309-.488 1.062 1.344 5.355 1.469 8.965.25l2.672-.899-2.746-.304-2.747-.309 2.895-.469c1.594-.254 3.137-.113 3.43.317s8.613-.196 18.492-1.406c11.574-1.415 16.984-2.364 15.211-2.68-2.067-.356-1.539-.508 2.117-.594 3.644-.082 4.687-.379 4.156-1.164-.496-.742-.32-.844.598-.355.711.382 4.578.543 8.59.359l7.293-.34-8.176 1.254c-13.891 2.133-13.859 3.191.082 2.797 16.309-.457 17.223-.344 7.711.953-4.293.586-7.985.91-8.199.711-.688-.609-21.868.758-31.344 2.027-22.496 3.008-28.973 3.778-40.828 4.828-6.957.618-12.871.922-13.137.684zm-8.516 10.996c1.793-1.039 1.793-1.039-.027-.961-1.367.055-1.172-.215.781-1.07 1.828-.797 3.61-.832 5.934-.102 2.652.832 6.047.617 16.945-1.078 8.364-1.301 10.996-1.535 6.824-.605-3.738.832-7.406 1.789-8.152 2.125-.742.343-4.726.894-8.859 1.23s-7.524.199-7.539-.305c-.035-1.199-3.407-.757-4.086.543-.301.559-1.231 1.071-2.078 1.137-1.254.098-1.204-.07.257-.914zm132.579-8.148c-12 .359 17.132-3.262 19.824-3.332s5.371-.61 5.949-1.192c.57-.582 2.055-.906 3.293-.715l2.238.344-2.25.945c-1.625.688-.863.809 2.75.442 2.75-.278 6.649-.414 8.66-.305l3.657.199-7.211 3.09 6.636-.097c4.567-.075 7.016-.489 7.856-1.34.828-.84 1.336-.934 1.57-.285.196.527 2.199 1.07 4.461 1.21l4.11.258-3.614 1.196c-3.652 1.203-16.777 3.574-13.832 2.496 3.094-1.133.442-2.2-4.222-1.696-4.153.454-9.907-.254-7.504-.914.5-.14-.539-.652-2.313-1.14-3.18-.875-14.734-.117-15.691 1.027-.391.469-.399 1.156-.168 1.832 5.047-.543 8.457-.812 8.066-.621-.613.309-3.734.875-7.629 1.473.524.797 1.336 1.453 2.207 1.523 1.2.094.731.359-1.211.676-2.281.375-3.367.078-5.015-1.606-7.43 1.047-15.535 1.954-14.934 1.477s6.91-1.563 14.074-2.41c-2.293-2.594-2.972-2.742-9.757-2.535zm-79.446 14.937c-1.535-.488-1.344-.66 1.164-1.023 1.785-.262 2.789-.02 2.473.578-.621 1.187-1.137 1.25-3.637.445zm-21.535-1.16a.86.86 0 0 1 .988.832c.016.516-.148.965-.371.988-.218.032-.668-.34-.988-.824-.328-.484-.16-.934.371-.996zm7.258.578c1.016-.465 2.668-.496 3.668-.066s2.769.679 3.93.554c2.125-.226 7.507 1.743 5.828 2.133-.5.117-.078.481.937.805 4.656 1.492-2.156.883-9.008-.805-5.504-1.363-6.769-1.976-5.355-2.621zm64.762-29.984c.644-.352 1.437-.414 1.742-.141.312.281-.215.567-1.176.645-1.062.086-1.285-.114-.566-.504zm9.175 3.59a28.42 28.42 0 0 1 5.911-.727c1.632.008.304.344-2.942.742s-4.586.391-2.969-.015zm-1.039 18.855c-.015-.519 1.098-1.051 2.477-1.184 2.219-.214 2.297-.121.707.793-2.449 1.418-3.152 1.5-3.184.391zm4.352-5.32c-1.973-1.004-.289-2.246 2-1.473 1.609.547 1.742.832.648 1.406-.754.399-1.945.426-2.648.067zm-6.399 13.168c-.753-1.117 1.356-1.371 3.18-.387 1.133.613 1.02.797-.598 1.008-1.097.14-2.257-.137-2.582-.621zm16.309-5.793c-1.223.144-2.484-.125-2.809-.61-.343-.511.567-1.015 2.188-1.218 1.531-.184 2.797.086 2.812.609s-.968 1.07-2.191 1.219zm-4.031-19.176c1.125-.359 2.762-.555 3.637-.426s-.043.43-2.047.664-2.719.129-1.59-.238zm-41.137 13.523c-1.129-.054-2.078-.738-2.101-1.519-.036-1.18.851-1.414 5.21-1.371 2.887.027 5.747-.008 6.348-.074s.879.281.621.777c-.265.5-1.691.781-3.176.621-1.48-.152-3.179.152-3.773.687-.586.54-2 .934-3.129.879zm11.059-9.781c-1.219-1.09-.684-2.152 1.203-2.383 1.058-.132 1.754.282 1.57.934-.402 1.437-1.906 2.219-2.773 1.449zm9.82-1.719c-1.504.161-2.016.008-1.137-.339s2.106-.485 2.731-.297-.094.468-1.594.636zm.418 7.153c.312.277-.215.566-1.18.64-1.058.086-1.281-.109-.562-.504.644-.351 1.429-.414 1.742-.136zm-14.711 18.793c-.023-.84.387-1.188 1.324-1.172.34-.512 1.11-.985 1.813-1.067.75-.089 1.125.289.828.848-.078.152-.207.297-.352.438.696.046 1.36.054 1.762.011 2.359-.265.109 1.313-2.633 1.848-1.887.371-2.711.098-2.742-.906zm-30.711.968c.492-.585 18.328.508 18.91 1.161.262.289 1.918.812 3.688 1.168 4.5.894 1.617 1.121-5.465.437-8.692-.844-17.543-2.269-17.133-2.766zm3.949-5.265c.649-.352 1.434-.414 1.746-.137s-.222.567-1.179.641c-1.059.086-1.285-.11-.567-.504zm.055 1.89c.648-.351 1.434-.414 1.746-.132.313.277-.219.566-1.18.64-1.058.082-1.281-.113-.566-.508zm-3.023-7.144c.308.273-.223.566-1.18.641-1.059.085-1.285-.118-.567-.504.645-.356 1.434-.418 1.747-.137zm9.152 7.996c-1.211-.387-1.379-.664-.481-.809.75-.121 1.989.118 2.754.532 1.696.914.262 1.09-2.273.277zm55.656-27.402c-.375-.559 1.414-.938 5.285-1.125-.211-.145-.461-.387-.66-.692-.324-.484-.16-.929.371-.992a.85.85 0 0 1 .989.824c.011.352-.063.657-.176.836.082-.004.152-.011.238-.011 8.68-.34 9.168.265 1.02 1.261-3.555.434-6.735.391-7.067-.101zm-5.14 26.304c-.016-.511.992-1.273 2.234-1.699l4.379-1.484c3.851-1.297 3.488.39-.449 2.117-4.668 2.039-6.129 2.297-6.164 1.066zm2.648-9.214c4.039.304 4.406.738.969 1.16-1.559.187-3.086-.043-3.41-.52-.364-.543.554-.781 2.441-.64zm87.406 159.351l103.371-26.691 71.399 17.511L502.891 563l-60.274-23.836zm66.238-96.426l-313.339 63.953 209.515 97.747C414 608.574 724.68 503.426 724.68 503.426l-215.825-60.688"/></g></g></g><g clip-path="url(#M)" transform="translate(-12.839 3.857)"><g clip-path="url(#N)"><g clip-path="url(#O)"><path fill="#666363" d="M340.883 539.234c.066-.011 18.609 6.938 18.609 6.938l13.387-3.067-17.227-7.207-14.769 3.336zm55.691-1.632c-.219-1.004-30.144-4.137-35.957-2.825-.758.172 1.985 1.278 2.168 1.364 2.176 1.007 4.383 1.902 6.574 2.851 2.649 1.153 5.746 3.094 8.45 3.11 1.828.011 18.886-3.93 18.765-4.5zm188.367-53.52c-4.621-.086-9.644 2.184-14 3.168.395-.09 5.301 2.07 6.403 2.445 3.019 1.024 6.207 2.465 9.254 3.137 2.465.543 4.48-.277 6.746-.809 1.035-.238 6.972-.644 7.344-1.832.449-1.449-13.629-6.066-15.747-6.109zm-7.332 7.641c-2.961-1.008-6.046-2.36-9.039-3.071-4.351-1.043-9.043 1.176-13.019 2.075.351-.082 5.301 2.117 6.39 2.492 2.997 1.035 6.211 2.519 9.239 3.187 1.949.43 12.82-2.617 12.98-2.371-.738-1.121-5.433-1.933-6.551-2.312zm-15.402 3.539c-3.004-1.039-6.207-2.528-9.242-3.196-4.324-.961-9.074 1.293-13.031 2.188.304-.066 5.304 2.164 6.371 2.539 2.992 1.051 6.203 2.562 9.238 3.238 1.937.438 13.109-2.582 13.211-2.418-.645-1.039-5.613-2.027-6.547-2.351zm-15.66 3.597c-2.996-1.054-6.199-2.566-9.234-3.254-4.383-.984-9.247 1.333-13.266 2.239.266-.059 5.305 2.207 6.355 2.582 2.985 1.066 6.2 2.601 9.223 3.293 1.934.445 13.41-2.539 13.457-2.465-.59-1.016-5.648-2.078-6.535-2.395zm-13.828 4.442l-7.946-2.848c-2.222-.797-4.019-1.633-6.14-1.383-5.469.645-10.801 2.442-16.082 3.629l-26.43 5.977-36.449 8.238c-.383.082 3.223 1.633 3.699 1.82l7.867 3.11c2.297.906 4.223 1.914 6.457 1.699 5.438-.531 10.801-2.512 16.008-3.719l27.11-6.301c2.328-.543 35.917-9.226 36.281-8.554-.395-.727-3.805-1.461-4.375-1.668zm-87.969 18.39c-2.699-1.07-5.891-2.89-8.641-3.421-4.656-.899-8.679 5.371-7.742 5.753 2.805 1.129 6.192 3.086 9.071 3.657 1.828.359 14.792-2.539 14.648-2.969-.332-.977-6.496-2.688-7.336-3.02zm-18.062 4.149c-2.688-1.09 7.464 3.621 7.304 3.07-.277-.933-6.508-2.746-7.304-3.07zm-74.313 8.324l-15.008 3.512 15.008-3.512zm182.402-50.394c.434.773 3.969 1.449 4.649 1.687l8.472 2.918c3.262 1.125 4.809.918 7.821.238l25.578-5.746c.008-.008-3.535-1.449-4.149-1.656l-8.515-2.836c-3.426-1.141-4.992-1.035-8.156-.34-2.149.469-25.375 6.305-25.7 5.735zm12.723 6.691c-.309.066-5.164-2.078-6.207-2.438-2.898-1.007-6.051-2.496-8.98-3.109-1.797-.375-13.161 2.211-13.137 2.27.539 1.031 5.742 2.097 6.722 2.445 2.797.98 5.875 2.48 8.707 3.055 4.27.867 8.973-1.344 12.895-2.223zm-15.664 3.516c-.234.054-5.152-2.118-6.117-2.454-2.942-1.039-6.176-2.617-9.156-3.23-1.797-.363-13.297 2.25-13.247 2.359.481 1 5.774 2.149 6.707 2.485 2.793 1 5.868 2.523 8.696 3.113 4.328.895 9.148-1.379 13.117-2.273zm-15.961 3.586c-.293.07-5.461-2.266-6.555-2.657-2.812-1.011-6-2.625-8.855-3.179-1.735-.336-13.383 2.324-13.32 2.461.398.906 5.953 2.261 6.691 2.531 2.801 1.019 6.008 2.699 8.844 3.222 4.343.801 9.199-1.476 13.195-2.378zm-16.289 3.664c-.242.054-5.453-2.317-6.527-2.711-2.809-1.028-5.985-2.664-8.84-3.231-1.735-.347-13.664 2.27-13.567 2.512.348.867 5.977 2.316 6.672 2.574 2.801 1.039 5.981 2.723 8.824 3.281 4.399.86 9.403-1.519 13.438-2.425zm-16.617 3.73c-.192.047-5.449-2.363-6.5-2.75-2.801-1.047-5.969-2.703-8.824-3.293-1.747-.363-13.946 2.219-13.821 2.563.301.832 6 2.371 6.656 2.621 2.79 1.058 5.969 2.765 8.805 3.332 4.465.898 9.586-1.551 13.684-2.473zm-16.953 3.813c-.2.043-5.387-2.391-6.477-2.801-2.781-1.063-6.066-2.883-8.902-3.391-1.762-.32-14.121 2.219-13.981 2.652.434 1.36 13.782 5.782 15.516 6.102 4.512.832 9.707-1.633 13.844-2.562zm-17.305 3.886c-.145.035-5.375-2.441-6.441-2.855-2.778-1.074-6.055-2.926-8.879-3.449-1.786-.329-.469 8.609 1.211 8.925 4.578.864 9.906-1.679 14.109-2.621zm73.633-37.406c.804 1.492 9.074 3.184 10.562 3.688 2.668.91 4.805 1.894 7.344 1.535 6.953-.985 13.699-2.981 20.488-4.457-1.183.257-8.031-2.942-10.027-3.606-2.781-.93-5.102-2.004-7.746-1.64-1.977.277-20.352 4.98-20.621 4.48zm12.344 6.43c-.176.039-4.676-1.887-5.516-2.172-2.992-1.028-6.18-2.5-9.195-3.156-1.805-.395-13.047 2.082-13.012 2.156.492.972 5.609 2.035 6.531 2.355 2.727.946 5.715 2.387 8.465 2.946 4.211.847 8.855-1.286 12.727-2.129zm-15.477 3.367c-.227.051-4.996-2.035-5.941-2.363-2.864-1-6.004-2.524-8.907-3.11-1.754-.355-13.129 2.129-13.07 2.25.434.946 5.633 2.082 6.516 2.395 2.714.965 5.703 2.429 8.449 2.996 4.269.879 9.023-1.313 12.953-2.168zm-15.785 3.433c-.176.04-4.988-2.078-5.918-2.406-2.856-1.015-5.992-2.562-8.887-3.16-1.758-.363-13.402 2.074-13.308 2.297.386.91 5.66 2.129 6.503 2.434 2.704.976 5.692 2.468 8.43 3.043 4.336.914 9.199-1.34 13.18-2.208zm-16.086 3.5c-.231.051-5.281-2.222-6.336-2.609-2.734-.988-5.816-2.562-8.594-3.113-1.695-.336-13.488 2.137-13.387 2.402.313.817 5.836 2.238 6.485 2.477 2.715 1 5.82 2.636 8.578 3.152 4.352.824 9.242-1.441 13.254-2.309zm-16.41 3.567c-.18.039-5.278-2.266-6.313-2.652-2.719-1.004-5.801-2.602-8.57-3.168-1.707-.344-13.758 2.078-13.633 2.453.473 1.375 13.328 5.402 15.02 5.73 4.414.852 9.429-1.48 13.496-2.363zm-16.739 3.641c-.128.027-5.261-2.317-6.277-2.696-2.711-1.027-5.793-2.648-8.551-3.222-1.726-.36-14.031 2.019-13.886 2.496.378 1.265 13.414 5.566 15.07 5.871 4.445.816 9.558-1.559 13.644-2.449zm-17.074 3.71c-.14.032-5.199-2.339-6.246-2.742-2.703-1.043 2.098 3.645 6.246 2.742zm69.863-35.164c.625 1.211 8 2.801 9.051 3.161 2.43.824 5.086 2.128 7.504 2.089 5.774-.086 11.731-2.468 17.215-3.625-.816.172-6.914-2.566-8.48-3.089-2.54-.848-5.411-2.231-7.942-2.204-1.812.024-17.094 4.149-17.348 3.668zm-2.492 1.02c-1.715-.328-12.812 2.031-12.773 2.113.43.899 5.469 1.977 6.297 2.262 2.652.918 5.562 2.324 8.25 2.859 4.203.832 8.769-1.211 12.648-2.031-.273.055-4.68-1.875-5.711-2.227-2.804-.953-5.879-2.421-8.711-2.976zm-13.64 10.57c1.683.297 12.851-2.277 12.851-2.277-.48-.977-5.883-2.125-6.754-2.43-2.511-.871-5.418-2.324-7.968-2.765-4.184-.735-8.774 1.269-12.649 2.066.156-.031 4.793 1.977 5.66 2.285 2.813.988 6.012 2.621 8.86 3.121zm-30.368-2.156c.106-.023 4.79 2.016 5.637 2.324 2.805 1.004 6.004 2.66 8.84 3.172 1.691.305 13.133-2.226 13.086-2.32-.43-.946-5.91-2.176-6.738-2.473-2.504-.887-5.41-2.359-7.95-2.808-4.246-.762-8.941 1.296-12.875 2.105zm-16.148 3.312c.066-.011 4.785 2.055 5.613 2.364 2.797 1.023 5.981 2.683 8.817 3.226 1.695.321 13.402-2.179 13.324-2.367-.379-.906-5.938-2.226-6.723-2.508-2.496-.902-5.398-2.398-7.933-2.863-4.309-.785-9.11 1.332-13.098 2.148zm-16.461 3.383c.102-.023 5.098 2.215 6.035 2.563 2.641.988 5.762 2.683 8.449 3.152 1.688.297 13.563-2.187 13.465-2.445-.332-.891-5.879-2.254-6.703-2.559-2.527-.929-5.453-2.476-8.019-2.945-4.321-.797-9.235 1.41-13.227 2.234zm-16.785 3.438c.055-.008 5.086 2.262 6.004 2.613 2.633 1.004 5.75 2.727 8.422 3.207 1.699.305 13.84-2.137 13.718-2.5-.445-1.328-13-5.277-14.675-5.594-4.387-.824-9.418 1.446-13.469 2.274zm-17.113 3.512c.093-.02 5.371 2.429 6.414 2.832 2.472.96 8.773-4.93 7.191-5.192-4.445-.738-9.488 1.516-13.605 2.36zM286.227 501.32l-20.559 4.086 16.793 6.211 3.766-10.297zm58.296-11.218c-4.535-.844-9.914 1.589-14.109 2.429-.004 0 15.524-2.168 14.109-2.429zm3.813-1.141c-.047.012 5.195 2.437 6.113 2.809 2.434.972 22.145 1.199 22.02.55-.184-.961-12.774-5.449-14.246-5.722-4.465-.836-9.754 1.539-13.887 2.363zm17.566-3.496c.012 0 5.215 2.39 6.157 2.762 2.449.961 5.375 2.628 7.875 3.093 1.664.309 14.035-2.011 13.914-2.543-.246-1.05-12.793-5.351-14.309-5.629-4.402-.8-9.559 1.512-13.637 2.317zm17.231-3.422c-.02 0 4.902 2.215 5.738 2.531 2.613 1.004 5.668 2.699 8.324 3.203 1.649.313 13.813-2.035 13.692-2.472-.313-1.137-12.739-5.231-14.324-5.52-4.344-.805-9.415 1.457-13.43 2.258zm16.902-3.367c.028-.004 4.914 2.172 5.77 2.496 2.621.988 5.679 2.66 8.351 3.152 1.633.297 13.543-2.097 13.438-2.429-.383-1.223-12.735-5.133-14.371-5.43-4.282-.77-9.231 1.426-13.188 2.211zm16.574-3.297c.079-.016 4.93 2.129 5.805 2.457 2.633.973 5.699 2.617 8.371 3.098 1.629.289 13.278-2.153 13.199-2.383-.464-1.309-12.726-5.043-14.418-5.34-4.218-.742-9.05 1.391-12.957 2.168zm16.262-3.234c.168-.032 4.797 2.035 5.832 2.41 2.613.945 5.645 2.535 8.289 3.008 1.676.3 13.141-2.122 13.071-2.293-.536-1.356-12.711-4.95-14.344-5.215-4.25-.692-8.895 1.3-12.848 2.09zm15.969-3.176c.211-.043 4.801 2 5.855 2.375 2.618.929 5.653 2.496 8.309 2.957 1.672.289 12.871-2.176 12.84-2.254-.387-.887-5.696-2.078-6.52-2.367-2.469-.871-5.359-2.364-7.863-2.762-4.191-.664-8.734 1.277-12.621 2.051zm15.668-3.117c.258-.051 4.847 1.976 5.883 2.336 2.589.91 5.578 2.402 8.211 2.871 1.699.3 12.742-2.137 12.73-2.168-.41-.86-5.328-1.914-6.074-2.176-2.625-.902-5.574-2.348-8.231-2.836-4.14-.762-8.683 1.207-12.519 1.973zm35.879-2.223c-2.59-.879-5.426-2.215-8.047-2.727-4.133-.804-8.621 1.125-12.453 1.891.301-.063 4.851 1.937 5.902 2.297 2.606.898 5.594 2.367 8.234 2.832 1.7.293 12.473-2.195 12.512-2.133-.469-.906-5.301-1.871-6.148-2.16zm.586-1.559c2.593.875 5.425 2.211 8.043 2.715 4.089.793 8.511-1.133 12.293-1.902-.297.055-4.547-1.778-5.571-2.121-2.738-.907-5.734-2.301-8.496-2.828-1.676-.321-12.418 1.972-12.414 1.988.438.879 5.324 1.875 6.145 2.148zm-232.086 37.106l-12.032 2.355 5.7 2.504 13.547-2.793-7.215-2.066zm16.933-3.324c-1.152.226-10.683 1.191-10.722 2.214-.012.305 4.199 2.036 4.636 2.125 1.426.293 2.539-.058 3.856-.32 3.496-.691 7.031-4.105 6.172-4.289-1.473-.324-2.578.008-3.942.27zm18.063-3.536c-1.063.207 4.519-.07 3.722-.238-1.417-.301-2.41-.023-3.722.238zm17.558-3.441c-1.003.195-10.507 1.352-10.468 2.16.093 1.969 7.16 2.004 8.281 1.778l10.246-2.024c.234-.051-3.574-1.98-4.391-2.148-1.406-.286-2.371-.02-3.668.234zm17.368-3.402c-.907.148-10.469 1.429-10.411 2.144.172 1.965 7.102 1.985 8.258 1.754l10.047-1.988c.254-.051-3.387-1.817-4.16-2.008-1.5-.363-2.34-.137-3.734.098zm20.589-3.407c-1.488-.351-2.312-.132-3.691.094-.859.141-10.289 1.481-10.207 2.106.242 1.922 6.93 1.925 8.086 1.754 3.383-.5 6.68-1.321 10.004-1.977.207-.043-3.402-1.789-4.192-1.977zm2.879-1.089c.313 1.918 6.871 1.906 8.071 1.73 3.308-.496 6.55-1.301 9.816-1.941.16-.036-3.426-1.758-4.226-1.95-1.469-.339-2.278-.132-3.641.094-.82.137-10.106 1.524-10.02 2.067zm24.348-1.493c3.301-.507 6.543-1.293 9.801-1.941.219-.043-3.278-1.641-3.988-1.813-1.52-.375-2.282-.253-3.696-.042-.836.125-10.094 1.601-9.996 2.062.379 1.828 6.606 1.93 7.879 1.734zm16.145-3.195c3.246-.496 6.425-1.273 9.625-1.902.175-.035-3.29-1.614-4.016-1.789-1.496-.364-2.262-.25-3.656-.043-.805.121-9.903 1.648-9.809 2.027.445 1.824 6.551 1.906 7.856 1.707zm15.855-3.137c3.188-.484 6.309-1.25 9.453-1.867.133-.031-3.305-1.59-4.039-1.762-1.48-.351-2.246-.25-3.621-.046-.777.121-9.715 1.691-9.629 1.992.516 1.82 6.5 1.886 7.836 1.683zm15.418-3.05c3.187-.422 6.305-1.25 9.43-1.868.093-.019-3.309-1.558-4.055-1.73-1.395-.32-2.145-.246-3.438-.074-.781.105-9.675 1.758-9.601 1.984.559 1.734 6.441 1.852 7.664 1.688zm15.289-3.028c3.137-.414 6.188-1.226 9.266-1.832.058-.012-3.317-1.531-4.078-1.699-1.375-.316-2.122-.246-3.403-.078-.769.098-9.488 1.793-9.429 1.949.621 1.723 6.394 1.828 7.644 1.66zm15.02-2.969c3.078-.41 6.082-1.207 9.101-1.8-.988.191-5.258-2.043-7.461-1.754-.758.097-9.301 1.824-9.265 1.91.683 1.719 6.343 1.812 7.625 1.644zm14.586-2.886c3.085-.406 6.089-1.203 9.117-1.805-.996.195-5.117-2.043-7.278-1.762-.726.094-9.281 1.891-9.273 1.914.695 1.579 6.16 1.821 7.434 1.653zm7.089-4.5c-.011-.016 6.723-1.446 7.282-1.524 1.761-.25 3.457-.289 5.351.071.426.082 3.856 1.285 3.738 1.308-2.972.59-5.925 1.371-8.96 1.77-1.297.176-6.665-.059-7.411-1.625"/></g></g></g><g clip-path="url(#P)" class="D"><path d="M536.73 514.594l-3.918 3.914s-2.328 6.875 0 7.934 50.906 4.23 52.813 3.07-24.449-11.32-38.629-18.301c-14.816-5.289-10.266 3.383-10.266 3.383"/></g><path d="M546.996 511.211l-.59.426c-5.777 4.102-13.59 6.871-13.59 6.871l-8.258-20.945 16.723-9.098s.418.156 2.352 8.02c.82 3.332 1.91 8.051 3.363 14.727" class="E"/><path d="M546.406 511.637c-5.777 4.102-13.59 6.871-13.59 6.871l-8.258-20.945 16.723-9.098s.418.156 2.352 8.02c-4.047 5.27-10.766 16.039 2.773 15.152" class="F"/><path d="M295.828 376.699s-6.512-5.078-9.051-10.473c-1.031-1.984-10.793 7.934-22.539 19.121s-22.941 21.422-3.496 13.41 23.895-11.187 23.895-11.187l9.285-4.207c.633-.234 1.906-6.664 1.906-6.664" class="D"/><path d="M311.148 383.84l-9.605 16.582-1.004-.715-16.379-11.664c5.953-5.871 11.031-13.246 11.031-13.246h.008l15.949 9.043" class="E"/><path d="M300.539 399.707l-16.379-11.664c5.953-5.871 11.031-13.246 11.031-13.246h.008c.309.246 13.199 10.453 5.34 24.91" class="F"/><path d="M441.32 403.516c-3.441 6.133-47.09 23.41-69.102 36.137-2.449 1.41-5.445 1.488-7.953.184-20.504-10.66-67.352-40.129-67.352-40.129l14.391-18.934s25.043 14.879 46.293 24.414a8.29 8.29 0 0 0 10.051-2.605c4.172-5.613 8.457-11.062 12.379-15.914 8.762-10.824 15.734-18.66 15.734-18.66s49.211 29 45.559 35.508" class="C"/><g fill="#892424"><path d="M372.219 439.652c-2.449 1.41-5.445 1.488-7.953.184-20.504-10.66-67.352-40.129-67.352-40.129s54.277 14.332 75.305 39.945"/><path d="M441.32 403.516c-3.441 6.133-47.09 23.41-69.102 36.137 25.711-24.449 19.336-41.965 7.809-52.984 8.762-10.824 15.734-18.66 15.734-18.66s49.211 29 45.559 35.508"/></g><path fill="#bf4e49" d="M544.031 492.375c-3.969 1.113-19.527 8.73-19.527 8.73l-23.008-53.367c-.832-1.922-2.234-3.543-4.02-4.637-13.68-8.383-75.113-46.352-105.625-70.703-4.699-3.75-6.344-10.141-4.051-15.699 3.063-7.434 7.008-14.383 7.008-14.383l6.453-9.148 49.602 16.449 30.938 10.262 6.59 14.449 10.559 23.156 24.461 20.941c1.34 1.145 2.309 2.66 2.793 4.359 2.762 9.727 12.547 44.688 17.828 69.59"/><g class="C"><path d="M516.875 425.949l.652-.66-.652.66"/><path d="M544.031 492.375c-3.969 1.113-19.527 8.73-19.527 8.73l-23.008-53.367c-.832-1.922-2.234-3.543-4.02-4.637-13.68-8.383-75.113-46.352-105.625-70.703-4.699-3.75-6.344-10.141-4.051-15.699 3.063-7.434 7.008-14.383 7.008-14.383l6.453-9.148 49.602 16.449 29.516 21.402 8.012 3.309 10.559 23.156s-47.777-22.973-76.988-32.176c-28.91-9.109 73.105 80.633 94.914 60.641-12.652 13.051-2.266 24.449 4.063 45.676 6.434 21.582 8.961 24.688 23.094 20.75"/></g><path fill="#bf4e49" d="M565.941 256.258l-11.75 5.395s-73.66-21.895-94.613-55.219c9.566-21.687 29.418-25.555 50.23-21.168a81.94 81.94 0 0 1 6.598 1.676c13.434 4.02 25.645 11.445 35.125 21.867 6.207 6.82 10.078 13.516 12.43 19.629l.004.008c6.105 15.875 1.977 27.813 1.977 27.813"/><path d="M565.941 256.258l-11.75 5.395s-73.66-21.895-94.613-55.219c9.566-21.687 29.418-25.555 50.23-21.168a81.94 81.94 0 0 1 6.598 1.676v.008s-12.758-.809-24.23 5.836 30.523 30.766 51.855 41.98 22.547 8.918 19.934-6.32c6.105 15.875 1.977 27.813 1.977 27.813" class="C"/><path d="M569.117 284.188c-4.082 5.203-12.691 11.063-18.051 3.426l-.832 1.762-.629 1.316-.805-.465L536.293 283c-4.766-2.766-9.473-5.703-13.715-9.234-4.098-3.41-7.449-7.371-10.48-11.742-2.902-4.184-5.609-8.52-8.844-12.465-3.164-3.871-7.059-7.066-10.648-10.523l-10.437-9.914c-6.379-5.746-18.723-.266-28.41.004-2.051.059-3.984-.121-5.715-.687l1.063-2.012 10.473-19.992 58.027 27.113 48.336 22.715-8.574 18.07-.004.016c-.125.293-1.887 4.648 1.488 4.34 3.492-.316 14.496.105 10.266 5.5" class="E"/><g clip-path="url(#Q)" class="C"><path d="M456.879 163.75s4.445 30.625 10.477 37.449-2.859 0-2.859 0-10.477-10.789-26.508-17.535c7.461-12.141 18.891-19.914 18.891-19.914"/></g><path d="M440.051 192.785s-8.414 6.824-9.84 13.648c15.238.637 33.969-2.203 33.969-2.203v-4.574s-15.078-1.789-24.129-6.871" class="C"/><path d="M557.063 274.969l-5.996 12.645-.832 1.762-1.434.852-9.691 5.781-14.762-3.09-32.066-43.004-26.875-14.125c-.441-.187-6.609-3.742-11.648-6.664l-4.652-2.699 10.473-19.992 58.027 27.113c-.035.055-.074.105-.109.16-7.371 11.148-3.219 26.316 8.863 32.035 16.559 7.832 30.703 9.227 30.703 9.227" class="D"/><path fill="#637a31" d="M548.02 294.039l-39.594 83.469-9.477 19.977s-49.848-39.035-104.141-55.168c12.23-33.691 36.785-82.566 51.898-111.594 2.676 1.902 5.391 3.746 8.137 5.543 17.129 11.23 35.406 20.691 52.656 31.734 2.387 1.523 4.473 3.191 6.324 5.34 1.719 1.992 3.477 3.375 6.047 2.984 8.215 6.852 17.848 11.426 26.926 16.98l1.223.734"/><path d="M535.27 359.086s9.949-2.426 9.664.953c5.871-7.512 5.543-9.148 4.02-11.32s-3.703-2.539-3.703-2.539-2.305 2.152-2.633 2.77-3.613 5.27-3.613 5.27l-3.734 4.867m31.608-14.403s.531 1.27-.082 2.574-5.062 2.07-5.488.113 1.379-3.676 1.379-3.676l2.117-.266 2.074 1.254" fill="#542b0f"/><path fill="#af8864" d="M572.188 342.316c-1.469.754-3.504 1.613-5.309 2.367-3.137 1.316-5.582 2.324-3.16 1.918 3.598-.598 6.816 1.16-6.656 9.648l-2.551 1.566c-16.406 9.84-12.383 6.879-8.152-2.539 1.625-3.617 1.91-5.297 1.051-5.461-1.379-.254-5.699 3.402-12.141 9.27-2.309-11.531.824-34.91.824-34.91s4.055-3.09 8.887-4.988c1.383-.539 2.828-.984 4.258-1.234 2.34-.406 4.645-.281 6.578.809.129.074.258.148.387.23 7.199 4.652 14.078 13.965 14.078 13.965s5.922 7.301 1.906 9.359"/><path d="M572.188 342.316c-1.469.754-3.504 1.613-5.309 2.367l-11.309-24.738.246-1.184.387.23c7.199 4.652 14.078 13.965 14.078 13.965s5.922 7.301 1.906 9.359m-15.124 13.935l-2.551 1.566c-16.406 9.84-12.383 6.879-8.152-2.539 1.625-3.617 1.91-5.297 1.051-5.461.523-6.723-2.953-29.133-2.953-29.133l.523-1.496c1.383-.539 2.828-.984 4.258-1.234.168 13.176 7.824 38.297 7.824 38.297" fill="#84552f"/><path d="M559.965 315.313c-.293 2.387-1.633 4.574-3.742 5.902-4.535 2.855-12.199 6.66-21.488 7.246 0 0-21.719 14.523-48.918 15.402-3.578.117-6.926-1.816-8.57-4.992-5.746-11.105-7.508-26.598-7.508-26.598s22.383-.633 34.129-5.871c.32 5.711.797 9.043.797 9.043s9.844 0 19.363-3.648c-.699-3.504-1.648-6.113-2.492-7.934-.18-.391-.32-.797-.418-1.207a6.5 6.5 0 0 1 1.582-5.969c3.191-3.398 8.766-8.043 16.363-9.512 1.863-.359 3.844-.531 5.941-.445 2.008.082 3.91 1 5.168 2.57 5.75 7.172 8.496 17.336 9.699 23.441a8.38 8.38 0 0 1 .094 2.57" class="E"/><path d="M539.035 259.594c1.277-.895 2.84-1.301 4.43-1.348 1.594-.035 3.266.379 4.684 1.258.359.219.688.473 1.016.73l.883.875c.543.617.992 1.305 1.324 2.031.676 1.449.98 3 .836 4.543l-2.527-3.484c-.203-.266-.445-.492-.656-.742l-.699-.664c-.473-.43-.973-.809-1.508-1.125-1.059-.656-2.242-1.129-3.547-1.441-1.312-.316-2.707-.504-4.234-.633" class="D"/><path d="M539.965 289.988c-.848 2.539-3.504 12.434-18.848 12.668a6.5 6.5 0 0 1 1.582-5.969c3.191-3.398 8.766-8.043 16.363-9.512 0 0 1.746.273.902 2.813" class="F"/><path fill="#af8864" d="M528.738 300.992c1.496-.418 2.988-1.699 4.391-2.398a20.57 20.57 0 0 1 1.988-.867c-.602-2.926-2.832-5.922-2.832-5.922s-17.32-26.762-47.785-50.355c-35.332-27.363-88.344-50.461-152.527-22.602-23.281 12.461-39.762 31.488-47.492 51.117-4.598 11.672-6.102 23.559-4.105 34.398 1.441 7.836 4.715 15.129 9.977 21.398a57.27 57.27 0 0 0 4.141 4.438c25.91 24.977 72.73 23.559 103.293 4.23l38.09-81.98.141-.301c.648-1.391 1.648-2.508 2.844-3.293a7.99 7.99 0 0 1 2.656-1.113c1.594-.355 3.309-.219 4.91.488l2.742 1.227c19.977 8.996 64.418 30.742 78.789 51.969.199-.187.457-.34.781-.434"/><path fill="#b88a78" d="M530.07 301.074c2.125-.832 3.789-1.922 5.098-3.102l.012.063c-1.789 1.73-3.586 2.609-5.109 3.039"/><path fill="#a97160" d="M527.965 301.438c-.82-1.211-1.738-2.426-2.742-3.637l2.734 3.625c.199-.187.457-.34.781-.434 1.496-.418 2.988-1.699 4.391-2.398a20.57 20.57 0 0 1 1.988-.867c-.598-2.895-2.789-5.859-2.832-5.922.047.063 2.363 3.199 2.883 6.168-1.309 1.18-2.973 2.27-5.098 3.102a10.18 10.18 0 0 1-2.105.363m4.32-9.633h0"/><path fill="#836850" d="M527.957 301.426c-.816-1.207-1.73-2.414-2.734-3.625-.012-.016-.016-.02-.016-.023-16.625-20.027-57.203-39.84-76.039-48.32 11.402 2.746 32.973 8.711 46.77 17.254 3.879 2.402 6.512 3.441 8.094 3.441 6.371 0-4.277-16.746-19.531-28.703 30.465 23.594 47.785 50.355 47.785 50.355.043.063 2.234 3.027 2.832 5.922a20.57 20.57 0 0 0-1.988.867c-1.402.699-2.895 1.98-4.391 2.398-.324.094-.582.246-.781.434"/><path fill="#bc533b" d="M537.762 294.82c-.254 1.246-.809 2.383-1.551 3.406-.754 1.012-1.695 1.914-2.809 2.586-1.102.676-2.367 1.121-3.664 1.242-1.281.121-2.629-.051-3.727-.73a18.6 18.6 0 0 0 3.344-.973c1.023-.398 1.973-.879 2.895-1.437s1.805-1.199 2.703-1.891l2.809-2.203"/><path fill="#cd7571" d="M545.957 226.527c-3.598 0-10.043-5.449-18.367-11.066-10.434-7.043-19.871-11.687-17.246-15.574 1.555-2.301 7.105-4.559 13.539-4.559 4.438 0 9.293 1.07 13.551 3.945 10.434 7.047 13.32 22.234 10.699 26.121-.531.785-1.262 1.133-2.176 1.133"/><path d="M452.602 172.984s-8.176 6.191-7.465 8.969 16.113 15.469 15.797 12.215-6.371-18.172-6.508-23.324c-.875 6.109 1.902 13.145 1.902 13.145s-6.27-5.367-3.727-11.004m-11.472 23.206s-6.824 5.832-7.262 7.301 22.938-.754 22.938-.754l-13.371-.355s16.996 0 17.504-.676-13.219-2.141-16.754-2.816 8.832.359 8.832.359l-11.887-3.059" fill="#c95555"/><path d="M559.965 315.313c-.293 2.387-1.633 4.574-3.742 5.902-4.535 2.855-12.199 6.66-21.488 7.246 0 0-22.121 14.793-49.668 15.422a8.27 8.27 0 0 1-7.449-4.309c-6.043-11.137-7.879-27.301-7.879-27.301s22.383-.633 34.129-5.871c0 0-10.469 15.645-8.352 25.32s39.516-4.211 36.371-13.773c6.172 6.734 25 7.234 28.074-2.641l.004.004" class="F"/><path fill="#4c5e1b" d="M461.77 279.465s10.344 32.539 45.75 24.918c-7.93 5.387-34.773 9.445-41.434 7.098-4.281-15.355-4.316-32.016-4.316-32.016"/><path fill="#34420d" d="M461.484 275.461l1.09 9.023 1.238 8.984 1.434 8.949 1.715 8.883-.516-.637c.219.086.516.188.785.262l.844.207c.563.125 1.137.195 1.707.223h-.082l8.629-.648 8.598-.977 8.496-1.465 4.156-1.051 2.023-.652 1.945-.805.063-.023.891-.395.902-.461 1.766-1.031-.285.617-.602-4.707-.687-4.711-1.406-9.43 2.156 9.293.965 4.676.848 4.711.059.379-.34.238-1.801 1.152-.941.523-1.004.484.063-.027c-2.687 1.383-5.539 2.176-8.387 2.871l-8.617 1.637-8.684 1.043-8.727.594-.043.004-.043-.004a12.35 12.35 0 0 1-2.008-.273c-.328-.07-.652-.16-.973-.262l-.98-.355-.434-.184-.086-.453-1.523-8.996-1.094-9.047-.746-9.07-.363-9.09"/><use href="#o" fill="#542b0f"/><path fill="#a2a2a2" d="M346.191 348.945h.004-.004m-.004 0c-19.324.004-38.187-5.816-51.547-18.605 13.359 12.789 32.223 18.605 51.547 18.605"/><use href="#o" fill="#412a1a"/><path fill="#c9af97" d="M316.672 273.813c-7.113 0-11.707-1.699-12.75-6.051-2.82-11.781 19.027-42.105 53.375-50.32 6.289-1.508 12.563-2.164 18.633-2.164 27.07 0 50.074 13.109 52.379 22.734 2.82 11.785-23.965 17.438-58.312 25.652-21.668 5.184-41.172 10.148-53.324 10.148"/><g mask="url(#n)"><g transform="translate(-23.781 6.715)"><g clip-path="url(#U)" transform="translate(346 214)"><g clip-path="url(#R)"><path fill="#e6e9ed" d="M29.945 53.977H.344V.559H70.02v53.418zm0 0"/></g><g clip-path="url(#S)"><path fill="#ff826e" d="M70.02 9.848H.344V.559H70.02v10.449zm0 0"/></g><g fill="#656d78"><use href="#p"/><path d="M8.473 4.043h2.32v2.32h-2.32zm4.644 0h2.32v2.32h-2.32zm0 0"/></g><path fill="#ccd1d9" d="M50.277 37.719v-2.324H34.02v2.324a4.65 4.65 0 0 1-4.645 4.645h-2.324v6.352c0 1.789.184 3.547.523 5.262h29.145a26.74 26.74 0 0 0 .523-5.262v-6.352h-2.32a4.65 4.65 0 0 1-4.645-4.645zm0 0"/><g clip-path="url(#T)"><path fill="#5cd6b3" d="M47.953 37.719H36.34a6.97 6.97 0 0 1-6.965 6.969v4.027c0 8.969 4.898 17.223 12.773 21.52 7.875-4.297 12.773-12.551 12.773-21.52v-4.027a6.97 6.97 0 0 1-6.969-6.969zm0 0"/></g><path fill="#e6e9ed" d="M39.824 52.816h-2.32v-6.969a4.65 4.65 0 0 1 4.645-4.645 4.65 4.65 0 0 1 4.645 4.645v2.32h-2.324v-2.32c0-1.281-1.039-2.324-2.32-2.324a2.33 2.33 0 0 0-2.324 2.324zm0 0"/><path fill="#ccd1d9" d="M37.504 49.332h2.32v3.484h-2.32zm0 0"/><path fill="#fcd770" d="M45.633 60.945h-6.969c-1.285 0-2.324-1.043-2.324-2.324v-4.645c0-1.285 1.039-2.324 2.324-2.324h6.969a2.32 2.32 0 0 1 2.32 2.324v4.645c0 1.281-1.039 2.324-2.32 2.324zm0 0"/><path fill="#ffc729" d="M32.859 14.492h32.512v18.582H32.859zm0 0"/><g fill="#ffeaa7"><path d="M59.566 27.266h2.324v2.324h-2.324zm-23.226 0h20.902v2.324H36.34zm4.648-9.289H61.89v2.324H40.988zm-4.648 0h2.324v2.324H36.34zm0 0"/></g></g></g></g><g clip-path="url(#V)" class="B"><g clip-path="url(#W)"><g clip-path="url(#X)"><path d="M231.324 289.949c-.496.113-.992-.195-1.102-.691l-5.66-25.035c-1.98-8.77-6.855-15.395-14.105-19.16-6.449-3.355-14.328-4.227-22.18-2.453-14.395 3.254-27.883 15.633-23.48 35.121.336 1.48 1.82 2.41 3.309 2.074a2.77 2.77 0 0 0 2.098-3.297c-1.609-7.117-.297-13.703 3.793-19.055 3.609-4.719 9.121-8.113 15.516-9.559 6.383-1.445 12.797-.75 18.063 1.957 5.969 3.07 9.973 8.461 11.586 15.59l5.66 25.039c.109.492-.203.984-.699 1.098s-.992-.195-1.102-.691l-5.66-25.039c-1.488-6.586-5.164-11.551-10.637-14.363-4.879-2.508-10.848-3.148-16.805-1.801-10.945 2.473-21.219 11.793-17.914 26.418.555 2.465-1.012 4.93-3.492 5.492s-4.957-.992-5.512-3.457c-2.105-9.309-.437-17.91 4.824-24.871 4.652-6.152 11.773-10.574 20.051-12.445s16.602-.941 23.441 2.613c7.742 4.023 12.941 11.07 15.047 20.383l5.66 25.035c.109.496-.199.988-.699 1.098zm0 0"/></g></g></g><g clip-path="url(#Y)" class="B"><g clip-path="url(#Z)"><g clip-path="url(#a)"><path d="M174.738 364.148l78.012-17.629-11.996-53.094c-.668-2.941-3.613-4.789-6.574-4.121l-67.277 15.203c-2.957.672-4.824 3.609-4.16 6.551zm79.316-16.043l-79.809 18.035a.92.92 0 0 1-1.105-.691l-12.199-53.984c-.887-3.93 1.605-7.852 5.559-8.746l67.273-15.203c3.953-.891 7.891 1.578 8.777 5.504l12.203 53.988c.109.492-.203.984-.699 1.098zm0 0"/></g></g></g><g clip-path="url(#b)" class="B"><g clip-path="url(#c)"><g clip-path="url(#d)"><path d="M206.773 339.016l6.254-1.41-3.793-11.934c-.117-.363.008-.758.309-.996 1.844-1.453 2.699-3.863 2.188-6.141-.746-3.289-4.035-5.352-7.344-4.605s-5.387 4.027-4.645 7.313c.516 2.277 2.324 4.086 4.613 4.605a.91.91 0 0 1 .707.766zm7.637.156l-8.215 1.855c-.254.059-.516.008-.727-.141a.9.9 0 0 1-.391-.625l-1.758-12.797c-2.68-.84-4.758-3.066-5.379-5.816-.965-4.273 1.742-8.535 6.043-9.508s8.578 1.715 9.543 5.984c.625 2.75-.297 5.652-2.352 7.566L215.09 338c.078.242.047.508-.082.734s-.344.379-.598.438zm0 0"/></g></g></g><g clip-path="url(#e)" class="B"><g clip-path="url(#f)"><g clip-path="url(#g)"><path fill="#eceff1" d="M189.512 247.895c6.383-1.445 12.797-.75 18.063 1.957 5.965 3.07 9.973 8.461 11.586 15.59l5.457 24.145 5.402-1.223-5.457-24.141c-1.98-8.77-6.855-15.395-14.105-19.16-6.449-3.355-14.328-4.227-22.18-2.453-14.395 3.254-27.883 15.633-23.48 35.121.336 1.48 1.82 2.41 3.309 2.074a2.77 2.77 0 0 0 2.098-3.297c-1.609-7.117-.297-13.703 3.793-19.051 3.609-4.723 9.121-8.117 15.516-9.562zm0 0"/></g></g></g><g clip-path="url(#h)" class="B"><g clip-path="url(#i)"><g clip-path="url(#j)"><path fill="#eceff1" d="M224.113 291.582l-57.211 12.926c-2.957.672-4.824 3.609-4.16 6.551l11.996 53.09 78.012-17.629-11.996-53.094c-.668-2.941-3.613-4.789-6.574-4.121l-2.855.645-7.195 1.629zm-9.703 47.59zm-3.234-13.48L215.09 338c.078.242.047.508-.082.734s-.344.379-.598.438l-8.215 1.855c-.254.059-.516.008-.727-.141a.9.9 0 0 1-.391-.625l-1.758-12.797c-2.68-.84-4.758-3.066-5.379-5.816-.965-4.273 1.742-8.535 6.043-9.508s8.578 1.715 9.543 5.984c.625 2.75-.297 5.652-2.352 7.566zm0 0"/></g></g></g><g clip-path="url(#k)" class="B"><g clip-path="url(#l)"><g clip-path="url(#m)"><path fill="#3f7163" d="M211.727 318.531c-.742-3.285-4.031-5.348-7.34-4.602s-5.387 4.027-4.645 7.313c.516 2.277 2.324 4.086 4.613 4.605a.91.91 0 0 1 .707.766l1.711 12.402 6.254-1.41-3.793-11.934c-.117-.363.008-.758.309-.996a6.14 6.14 0 0 0 2.184-6.145zm0 0"/></g></g></g></g></svg>