<svg xmlns="http://www.w3.org/2000/svg" viewBox="46.261 66.957 409.333 305.309" xmlns:v="https://vecta.io/nano"><style><![CDATA[.B{fill-rule:evenodd}.C{fill:#a83838}.D{fill:#282828}.E{fill:#ffba9f}.F{fill:#e8957c}.G{fill:#f1bc19}]]></style><defs><clipPath id="A"><path d="M98 195h627v432H98zm0 0"/></clipPath><clipPath id="B"><path d="M96.84 205.363l619.371-18.383 12.734 429.012-619.371 18.383zm0 0"/></clipPath><clipPath id="C"><path d="M96.84 205.363l619.371-18.383 12.734 429.012-619.371 18.383zm0 0"/></clipPath><clipPath ><path d="M227 513h494v109H227zm0 0"/></clipPath><clipPath ><path d="M96.84 205.363l619.371-18.383 12.734 429.012-619.371 18.383zm0 0"/></clipPath><clipPath id="F"><path d="M133 216h355v265H133zm0 0"/></clipPath><clipPath id="G"><path d="M96.84 205.363l619.371-18.383 12.734 429.012-619.371 18.383zm0 0"/></clipPath><clipPath id="H"><path d="M96.84 205.363l619.371-18.383 12.734 429.012-619.371 18.383zm0 0"/></clipPath><clipPath id="I"><path d="M195 357h530v248H195zm0 0"/></clipPath><clipPath id="J"><path d="M96.84 205.363l619.371-18.383 12.734 429.012-619.371 18.383zm0 0"/></clipPath><clipPath id="K"><path d="M96.84 205.363l619.371-18.383 12.734 429.012-619.371 18.383zm0 0"/></clipPath><clipPath id="L"><path d="M137 223h464v324H137zm0 0"/></clipPath><clipPath id="M"><path d="M109.173 200.809l619.371-18.383 12.734 429.012-619.371 18.383-12.734-429.012zm0 0"/></clipPath><clipPath id="N"><path d="M531.664 509.434h54.063v20.328h-54.062zm0 0"/></clipPath><clipPath id="O"><path d="M437 163.75h33V205h-33zm0 0"/></clipPath><clipPath id="P"><path d="M283 311.832h4V316h-4zm0 0"/></clipPath><clipPath id="Q"><path d="M285 316h2.707v3H285zm0 0"/></clipPath><mask id="R"><g filter="url(#S)"><path fill-opacity=".71" d="M-81-81h972v972H-81z"/></g></mask><filter x="0%" y="0%" width="100%" height="100%" id="S"><feColorMatrix values="0 0 0 0 1 0 0 0 0 1 0 0 0 0 1 0 0 0 1 0" color-interpolation-filters="sRGB"/></filter><clipPath id="T"><path d="M0 0H71V71H0z"/></clipPath><clipPath id="U"><path d="M.344.559H70.02V54H.344zm0 0"/></clipPath><clipPath id="V"><path d="M.344.559H70.02V12H.344zm0 0"/></clipPath><clipPath id="W"><path d="M29 37h26v33.234H29zm0 0"/></clipPath><clipPath id="X"><path d="M162 239h71v53h-71zm0 0"/></clipPath><clipPath id="Y"><path d="M146.91 250.113l81.934-18.52 26.285 116.316-81.934 18.52zm0 0"/></clipPath><clipPath id="Z"><path d="M146.91 250.113l81.934-18.52 26.285 116.316-81.934 18.52zm0 0"/></clipPath><clipPath id="a"><path d="M160 287h95v80h-95zm0 0"/></clipPath><clipPath id="b"><path d="M146.91 250.113l81.934-18.52 26.285 116.316-81.934 18.52zm0 0"/></clipPath><clipPath id="c"><path d="M146.91 250.113l81.934-18.52 26.285 116.316-81.934 18.52zm0 0"/></clipPath><clipPath id="d"><path d="M197 311h19v31h-19zm0 0"/></clipPath><clipPath id="e"><path d="M146.91 250.113l81.934-18.52 26.285 116.316-81.934 18.52zm0 0"/></clipPath><clipPath id="f"><path d="M146.91 250.113l81.934-18.52 26.285 116.316-81.934 18.52zm0 0"/></clipPath><clipPath id="g"><path d="M163 241h68v49h-68zm0 0"/></clipPath><clipPath id="h"><path d="M146.91 250.113l81.934-18.52 26.285 116.316-81.934 18.52zm0 0"/></clipPath><clipPath id="i"><path d="M146.91 250.113l81.934-18.52 26.285 116.316-81.934 18.52zm0 0"/></clipPath><clipPath id="j"><path d="M162 289h91v76h-91zm0 0"/></clipPath><clipPath id="k"><path d="M146.91 250.113l81.934-18.52 26.285 116.316-81.934 18.52zm0 0"/></clipPath><clipPath id="l"><path d="M146.91 250.113l81.934-18.52 26.285 116.316-81.934 18.52zm0 0"/></clipPath><clipPath id="m"><path d="M199 313h15v27h-15zm0 0"/></clipPath><clipPath id="n"><path d="M146.91 250.113l81.934-18.52 26.285 116.316-81.934 18.52zm0 0"/></clipPath><clipPath id="o"><path d="M146.91 250.113l81.934-18.52 26.285 116.316-81.934 18.52zm0 0"/></clipPath><path id="p" d="M294.492 330.199a57.27 57.27 0 0 1-4.141-4.437c-5.262-6.27-8.535-13.562-9.977-21.398a28.81 28.81 0 0 0 12.727 2.992c-3.918 7.828-3.918 8.797-3.918 8.797l6.141 1.992s-1.633 6.469-.832 12.055"/><path id="q" d="M3.828 4.043h2.32v2.32h-2.32zm0 0"/></defs><g transform="matrix(.654045 0 0 .660065 -18.379858 -41.12851)"><g clip-path="url(#A)"><g clip-path="url(#B)"><g clip-path="url(#C)"><path fill="#d9d9d9" d="M724.68 503.426s-5.23 38.414-7.312 38.969l-334.559 83.898-200.234-111.98L98.832 241.41l11.699-31.25.02-.039 334.164-15.078 64.141 247.695 109.023 42.277 106.801 18.41"/></g></g></g><g clip-path="url(#F)"><g clip-path="url(#G)"><g clip-path="url(#H)"><path fill="#8fd8c6" d="M487.035 426.707l-289.969 53.801L133.84 227.18l302.168-10.582 51.027 210.109"/></g></g></g><g clip-path="url(#I)"><g clip-path="url(#J)"><g clip-path="url(#K)"><path fill="#f78d89" d="M256.07 369.16c11.832-1.445 12.809-1.699 12.293-3.164-.402-1.133 5.664.981 9.274-.238l2.672-.899-24.239 4.301zm127.332 9.93c-2.281.375 28.907-4.36 24.243-3.856-4.153.454-9.907-.254-7.504-.914.5-.14-.539-.652-2.313-1.14-3.18-.875-14.734-.117-15.691 1.027-.391.469-.399 1.156-.168 1.832 5.047-.543 8.457-.812 8.066-.621-.613.309-3.734.875-7.629 1.473.524.797 1.336 1.453 2.207 1.523 1.2.094.731.359-1.211.676zm-116.613 8.703a.86.86 0 0 1 .988.832c.016.516-.148.965-.371.988-.218.032-.668-.34-.988-.824-.328-.484-.16-.934.371-.996zm72.586-28.902c-1.062.086.871-.918 1.176-.645.312.281-.215.567-1.176.645zm-30.328 36.523c-8.692-.844 1.195-2.258 1.777-1.605.262.289 1.918.812 3.688 1.168 4.5.894 1.617 1.121-5.465.437zm-17.899-13.148c.645-.356 1.524.429.567.504-1.059.085-1.285-.118-.567-.504zm151.469 156.898l103.371-26.691 71.399 17.511L502.891 563l-60.274-23.836zm66.238-96.426l-313.339 63.953 209.515 97.747C414 608.574 724.68 503.426 724.68 503.426l-215.825-60.688"/></g></g></g><g clip-path="url(#L)" transform="translate(6.39 1.036)"><path fill="#666363" d="M333.467 541.337c.066-.012 18.609 6.937 18.609 6.937l13.387-3.066-17.227-7.207-14.769 3.336zm46.199-5.773c-2.578-1.094-5.504-2.879-8.117-2.829-6.137.118-12.535 2.832-18.348 4.145-.758.172 1.984 1.277 2.168 1.363 2.176 1.008 4.383 1.903 6.574 2.852 2.649 1.152 5.746 3.094 8.45 3.109 1.828.012 18.886-3.93 18.765-4.5-.219-1.004-8.547-3.738-9.492-4.14zm197.859-49.379c-4.621-.086-9.644 2.183-14 3.168.395-.09 5.301 2.07 6.403 2.445 3.019 1.023 6.207 2.465 9.254 3.137 2.464.543 4.48-.278 6.746-.809 1.035-.238 6.972-.644 7.343-1.832.45-1.449-13.628-6.066-15.746-6.109zm-7.332 7.64c-2.961-1.008-6.047-2.359-9.039-3.07-4.351-1.043-9.043 1.176-13.019 2.074.351-.082 5.3 2.117 6.39 2.492 2.996 1.036 6.211 2.52 9.239 3.188 1.949.43 12.82-2.617 12.98-2.371-.738-1.121-5.434-1.934-6.551-2.313zm-15.402 3.539c-3.004-1.039-6.207-2.527-9.242-3.195-4.324-.961-9.074 1.293-13.031 2.188.304-.067 5.304 2.164 6.371 2.539 2.992 1.05 6.203 2.562 9.238 3.238 1.937.437 13.109-2.582 13.211-2.418-.645-1.039-5.613-2.027-6.547-2.352zm-15.66 3.598c-2.996-1.055-6.199-2.566-9.235-3.254-4.382-.984-9.246 1.332-13.265 2.238.265-.058 5.304 2.207 6.355 2.582 2.985 1.067 6.199 2.602 9.223 3.293 1.934.446 13.41-2.539 13.457-2.464-.59-1.016-5.648-2.079-6.535-2.395zm-13.828 4.441l-7.946-2.847c-2.222-.797-4.019-1.633-6.14-1.383-5.469.644-10.801 2.441-16.082 3.629l-26.43 5.976-36.449 8.239c-.383.082 3.222 1.632 3.699 1.82l7.867 3.109c2.297.907 4.223 1.914 6.457 1.7 5.438-.532 10.801-2.512 16.008-3.719l27.109-6.301c2.329-.543 35.918-9.227 36.282-8.555-.395-.726-3.805-1.461-4.375-1.668zm-87.969 18.391c-2.699-1.07-5.891-2.891-8.641-3.422-4.656-.898-10.117 1.735-14.383 2.695-.007.004 5.704 2.676 6.641 3.059 2.805 1.129 6.192 3.086 9.07 3.656 1.829.36 14.793-2.539 14.649-2.968-.332-.977-6.496-2.688-7.336-3.02zm-18.063 4.148c-2.687-1.089-5.871-2.945-8.617-3.492-4.726-.933-10.332 1.782-14.664 2.758-.066.016 5.688 2.734 6.602 3.113 2.789 1.153 6.172 3.141 9.039 3.723 1.844.379 15.105-2.48 14.945-3.031-.277-.934-6.508-2.746-7.305-3.071zm-27.136.637c-4.746-.957-10.52 1.883-14.86 2.86-.011.003 5.946 2.914 7.004 3.359 2.668 1.125 5.922 3.117 8.656 3.648 1.883.368 15.317-2.519 15.161-3.136-.34-1.305-14.215-6.379-15.961-6.731zm-63.192.789l-15.355 3.137a9074.29 9074.29 0 0 0 16.363 7.273l15.008-3.511-16.016-6.899zm4.024-.972c.136 1.328 15.164 6.925 17.133 6.851 6.14-.219 12.371-2.781 18.207-4.09.714-.16-2.075-1.285-2.274-1.371-2.082-.922-4.187-1.769-6.273-2.66-2.641-1.113-5.621-2.937-8.305-2.902-1.652.019-18.582 3.25-18.488 4.172zm194.394-42.524c.434.774 3.969 1.449 4.649 1.688l8.472 2.918c3.262 1.125 4.809.918 7.821.238l25.578-5.746c.008-.008-3.535-1.449-4.149-1.656l-8.515-2.836c-3.426-1.141-4.992-1.036-8.157-.34-2.148.469-25.375 6.304-25.699 5.734zm12.723 6.692c-.309.066-5.164-2.079-6.207-2.438-2.899-1.008-6.051-2.496-8.981-3.109-1.796-.375-13.16 2.211-13.136 2.269.539 1.031 5.742 2.098 6.722 2.446 2.797.98 5.875 2.48 8.707 3.054 4.27.867 8.973-1.344 12.895-2.222zm-15.664 3.515c-.235.055-5.152-2.117-6.117-2.453-2.942-1.039-6.176-2.617-9.157-3.23-1.796-.364-13.296 2.25-13.246 2.359.481 1 5.774 2.148 6.707 2.484 2.793 1 5.868 2.524 8.696 3.114 4.328.894 9.148-1.379 13.117-2.274zm-15.961 3.586c-.293.07-5.461-2.266-6.555-2.656-2.812-1.012-6-2.625-8.855-3.18-1.735-.336-13.383 2.324-13.321 2.461.399.906 5.954 2.262 6.692 2.531 2.801 1.02 6.008 2.7 8.844 3.223 4.343.801 9.199-1.477 13.195-2.379zm-16.289 3.664c-.242.055-5.453-2.316-6.527-2.711-2.809-1.027-5.985-2.664-8.84-3.23-1.735-.348-13.664 2.269-13.567 2.511.348.868 5.977 2.317 6.672 2.575 2.801 1.039 5.981 2.722 8.824 3.281 4.399.859 9.403-1.52 13.438-2.426zm-16.617 3.731c-.192.047-5.45-2.364-6.5-2.75-2.801-1.047-5.969-2.703-8.825-3.293-1.746-.364-13.945 2.218-13.82 2.562.301.832 6 2.371 6.656 2.621 2.789 1.059 5.969 2.766 8.805 3.332 4.465.899 9.586-1.55 13.684-2.472zm-16.953 3.812c-.2.043-5.387-2.39-6.477-2.801-2.781-1.062-6.066-2.882-8.902-3.39-1.762-.321-14.121 2.218-13.981 2.652.434 1.359 13.781 5.781 15.516 6.102 4.512.832 9.707-1.633 13.844-2.563zm-17.305 3.887c-.145.035-5.375-2.442-6.442-2.856-2.777-1.074-6.054-2.925-8.878-3.449-1.786-.328-14.407 2.16-14.258 2.711.351 1.266 13.789 5.899 15.468 6.215 4.579.863 9.907-1.68 14.11-2.621zm-17.66 3.969c-.02.004-5.5-2.543-6.414-2.907-2.782-1.105-6.114-3.019-8.957-3.554-1.778-.332-14.575 2.207-14.426 2.816.277 1.168 13.89 6.066 15.512 6.359 4.625.848 10.039-1.765 14.285-2.714zm-18.043 4.054a230.7 230.7 0 0 0-6.367-2.965c-2.77-1.121-6.094-3.066-8.926-3.613-1.813-.351-14.864 2.141-14.719 2.871.211 1.071 13.871 6.184 15.449 6.481 4.699.883 10.258-1.805 14.563-2.774zm-18.418 4.133a238.85 238.85 0 0 0-6.781-3.199c-2.567-1.063-5.833-3.031-8.473-3.508-1.813-.328-15.117 2.09-14.985 2.945.149.965 13.825 6.321 15.418 6.618 4.762.882 10.457-1.872 14.821-2.856zm-60.684-7.883s-23.449 3.075-31.519 4.782c-.645.14 14.035 6.972 14.035 6.972l30.121-6.219-12.637-5.535zm188.438-41.679c.804 1.492 9.074 3.183 10.562 3.687 2.668.91 4.805 1.895 7.344 1.535 6.953-.984 13.699-2.98 20.488-4.457-1.183.258-8.031-2.941-10.027-3.605-2.781-.93-5.102-2.004-7.746-1.641-1.977.277-20.352 4.981-20.621 4.481zm12.343 6.429c-.175.039-4.675-1.886-5.515-2.172-2.992-1.027-6.18-2.5-9.196-3.156-1.804-.394-13.046 2.082-13.011 2.156.492.973 5.609 2.036 6.531 2.356 2.727.945 5.715 2.387 8.465 2.945 4.211.848 8.855-1.285 12.726-2.129zm-15.476 3.367c-.227.051-4.996-2.035-5.942-2.363-2.863-1-6.003-2.523-8.906-3.109-1.754-.356-13.129 2.129-13.07 2.25.433.945 5.633 2.082 6.516 2.394 2.714.965 5.703 2.43 8.449 2.996 4.269.879 9.023-1.312 12.953-2.168zm-15.785 3.434c-.176.039-4.989-2.078-5.918-2.406-2.856-1.016-5.992-2.563-8.887-3.16-1.758-.364-13.402 2.074-13.309 2.297.387.91 5.661 2.128 6.504 2.433 2.703.977 5.692 2.469 8.43 3.043 4.336.914 9.199-1.34 13.18-2.207zm-16.086 3.5c-.231.051-5.281-2.223-6.336-2.609-2.735-.989-5.817-2.563-8.594-3.114-1.695-.336-13.488 2.137-13.387 2.403.313.816 5.836 2.238 6.485 2.476 2.715 1 5.82 2.637 8.578 3.153 4.351.824 9.242-1.442 13.254-2.309zm-16.41 3.566c-.18.04-5.278-2.265-6.313-2.652-2.719-1.004-5.801-2.601-8.57-3.168-1.707-.344-13.758 2.078-13.633 2.453.473 1.375 13.328 5.403 15.02 5.731 4.414.851 9.429-1.481 13.496-2.364zm-16.739 3.641c-.129.027-5.261-2.316-6.277-2.695-2.711-1.028-5.793-2.649-8.551-3.223-1.726-.359-14.031 2.02-13.887 2.496.379 1.266 13.415 5.567 15.071 5.871 4.445.817 9.558-1.558 13.644-2.449zm-17.074 3.711c-.141.031-5.199-2.34-6.246-2.742-2.703-1.043-5.883-2.809-8.629-3.317-1.75-.324-14.199 2.024-14.051 2.59.305 1.168 13.418 5.664 15.028 5.969 4.507.852 9.75-1.598 13.898-2.5zm-17.422 3.789c-.086.02-5.187-2.391-6.219-2.789-2.687-1.059-5.859-2.859-8.597-3.379-1.781-.336-14.469 1.961-14.317 2.645.235 1.082 13.407 5.769 14.965 6.078 4.582.887 9.957-1.641 14.168-2.555zm-17.785 3.867c.043-.011-5.301-2.492-6.176-2.843-2.695-1.079-5.918-2.95-8.672-3.473-1.781-.34-14.628 1.996-14.496 2.734.176.981 13.496 5.949 15.004 6.231 4.637.851 10.078-1.719 14.34-2.649zm-32.742 6.66c4.629.946 10.34-1.789 14.594-2.71-.047.003-5.481-2.625-6.543-3.063-2.571-1.051-5.641-2.863-8.266-3.383-1.801-.359-14.871 1.969-14.754 2.809.125.902 13.457 6.039 14.969 6.347zm-18.793 4.106c1.832.371 15.211-2.184 15.086-2.969-.156-.969-13.496-6.101-15-6.398-4.703-.93-10.442 1.793-14.77 2.707-.132.027 5.559 2.765 6.45 3.148 2.539 1.078 5.632 2.985 8.234 3.512zm156.605-53.586c.625 1.211 8 2.801 9.051 3.16 2.43.824 5.086 2.129 7.504 2.09 5.774-.086 11.731-2.469 17.215-3.625-.816.172-6.914-2.566-8.481-3.09-2.539-.848-5.41-2.23-7.941-2.203-1.812.023-17.094 4.148-17.348 3.668zm-2.492 1.02c-1.715-.329-12.812 2.031-12.773 2.113.429.898 5.469 1.976 6.297 2.262 2.652.917 5.562 2.324 8.25 2.859 4.203.832 8.769-1.211 12.648-2.031-.273.054-4.68-1.875-5.711-2.227-2.805-.953-5.879-2.422-8.711-2.976zm-13.64 10.57c1.683.297 12.851-2.278 12.851-2.278-.48-.976-5.883-2.125-6.754-2.429-2.511-.871-5.418-2.324-7.969-2.766-4.183-.734-8.773 1.27-12.648 2.067.156-.032 4.793 1.976 5.66 2.285 2.813.988 6.012 2.621 8.86 3.121zm-30.368-2.156c.106-.024 4.789 2.015 5.637 2.324 2.805 1.004 6.004 2.66 8.84 3.172 1.691.304 13.133-2.227 13.086-2.321-.43-.945-5.91-2.175-6.738-2.472-2.504-.887-5.411-2.36-7.95-2.809-4.246-.762-8.941 1.297-12.875 2.106zm-16.148 3.312c.066-.012 4.785 2.055 5.613 2.363 2.797 1.024 5.981 2.684 8.817 3.227 1.695.32 13.402-2.18 13.324-2.367-.379-.907-5.938-2.227-6.723-2.508-2.496-.902-5.398-2.399-7.933-2.863-4.309-.786-9.11 1.332-13.098 2.148zm-16.461 3.383c.102-.024 5.098 2.215 6.035 2.562 2.641.989 5.762 2.684 8.449 3.153 1.688.297 13.563-2.188 13.465-2.446-.332-.89-5.879-2.253-6.703-2.558-2.527-.93-5.453-2.477-8.019-2.945-4.321-.797-9.235 1.41-13.227 2.234zm-16.785 3.437c.055-.007 5.086 2.262 6.004 2.614 2.633 1.004 5.75 2.726 8.422 3.207 1.699.304 13.839-2.137 13.718-2.5-.445-1.328-13-5.278-14.675-5.594-4.387-.824-9.418 1.445-13.469 2.273zm-17.113 3.512c.093-.019 5.371 2.43 6.414 2.832 2.472.961 5.531 2.699 8.058 3.129 1.711.289 13.992-2.16 13.867-2.594-.359-1.211-13.152-5.465-14.734-5.726-4.445-.739-9.488 1.515-13.605 2.359zm-17.457 3.582c.043-.004 5.355 2.473 6.378 2.879 2.457.981 5.504 2.738 8.028 3.184 1.734.312 14.273-2.106 14.137-2.641-.29-1.125-13.149-5.566-14.684-5.832-4.512-.77-9.68 1.555-13.859 2.41zm-18.036 3.82c.129.875 13.129 5.747 14.594 6.024 4.551.84 9.965-1.668 14.16-2.551-.027.004-5.375-2.5-6.383-2.902-2.457-.977-5.503-2.746-8.023-3.196-1.75-.312-14.469 1.817-14.348 2.625zm-3.656 9.856c1.789.324 14.789-2.012 14.66-2.766-.156-.937-13.105-5.777-14.59-6.05-4.609-.86-10.101 1.652-14.355 2.523-.016.004 5.262 2.555 6.293 2.98 2.445 1.016 5.492 2.868 7.992 3.313zm-3.676 1.094c-.109-.852-13.07-5.883-14.523-6.16-4.676-.895-10.313 1.695-14.629 2.578-.148.031 5.371 2.668 6.246 3.035 2.465 1.047 5.465 2.875 7.996 3.39 1.801.368 15.02-2.015 14.91-2.843zm-48.343.476c.019.629 13.039 6.082 14.41 6.367 4.722.993 10.617-1.816 14.969-2.73.164-.035-5.387-2.688-6.25-3.059-2.461-1.047-5.458-2.879-7.985-3.398-1.867-.379-15.172 1.734-15.144 2.82zm-3.887 1.09l-15.18 2.699 14.051 6.668 15.527-2.968-14.398-6.399zm-12.692-9.41l-20.558 4.086 16.793 6.211 20.914-4.387-17.149-5.91zm8.918-.336c1.504.832 3.2 1.371 4.754 2.039 2.465 1.059 5.418 2.871 7.953 3.211 1.622.223 14.418-1.996 14.36-2.844-.051-.699-12.723-5.773-14.078-6.043-4.668-.922-10.336 1.668-14.657 2.528-.808.164 1.571 1.054 1.668 1.109zm16.739-4.656c.039.855 12.629 5.406 14.082 6.015 1.699.715 14.761-2.14 14.699-2.718-.098-.883-13.191-5.825-14.766-6.004s-14.054 1.812-14.015 2.707zm32.64-6.227c-4.535-.844-9.914 1.59-14.109 2.43-.004 0 5.48 2.605 6.523 3.035 2.262.926 5.063 2.586 7.395 3.035 1.738.328 14.527-1.918 14.41-2.664-.129-.871-12.805-5.574-14.219-5.836zm3.813-1.14a196.75 196.75 0 0 0 6.113 2.808c2.434.973 5.356 2.668 7.844 3.145 1.687.328 14.301-1.946 14.176-2.594-.184-.961-12.774-5.449-14.246-5.723-4.465-.836-9.754 1.539-13.887 2.364zm17.566-3.497c.012 0 5.215 2.391 6.157 2.762 2.449.961 5.375 2.629 7.875 3.094 1.664.309 14.035-2.012 13.914-2.543-.247-1.051-12.793-5.352-14.309-5.629-4.402-.801-9.559 1.512-13.637 2.316zm17.231-3.421c-.02 0 4.902 2.214 5.738 2.531 2.613 1.004 5.668 2.699 8.324 3.203 1.649.312 13.813-2.035 13.692-2.473-.313-1.136-12.739-5.23-14.325-5.519-4.343-.805-9.414 1.457-13.429 2.258zm16.902-3.368c.027-.004 4.914 2.172 5.77 2.496 2.621.989 5.679 2.661 8.351 3.153 1.633.297 13.543-2.098 13.438-2.43-.383-1.223-12.735-5.133-14.371-5.43-4.282-.769-9.231 1.426-13.188 2.211zm16.574-3.296c.078-.016 4.93 2.128 5.805 2.457 2.633.972 5.699 2.617 8.371 3.097 1.629.289 13.277-2.152 13.199-2.383-.465-1.308-12.726-5.043-14.418-5.339-4.218-.743-9.05 1.39-12.957 2.168zm16.262-3.235c.168-.031 4.797 2.035 5.832 2.41 2.613.946 5.645 2.535 8.289 3.008 1.676.301 13.141-2.121 13.07-2.293-.535-1.355-12.711-4.949-14.343-5.215-4.25-.691-8.895 1.301-12.848 2.09zm15.969-3.176c.211-.043 4.801 2 5.855 2.375 2.617.93 5.653 2.496 8.309 2.957 1.672.289 12.871-2.175 12.84-2.254-.387-.886-5.696-2.078-6.52-2.367-2.469-.871-5.359-2.363-7.863-2.761-4.192-.664-8.735 1.277-12.621 2.05zm15.668-3.117c.258-.051 4.847 1.977 5.883 2.336 2.589.91 5.578 2.402 8.21 2.871 1.7.301 12.743-2.137 12.731-2.168-.41-.859-5.328-1.914-6.074-2.176-2.625-.902-5.574-2.347-8.231-2.835-4.14-.762-8.683 1.207-12.519 1.972zm35.879-2.222c-2.59-.879-5.426-2.215-8.047-2.727-4.133-.805-8.621 1.125-12.453 1.891.3-.063 4.851 1.937 5.902 2.296 2.605.899 5.594 2.368 8.234 2.832 1.7.293 12.473-2.195 12.512-2.132-.469-.907-5.301-1.871-6.148-2.16zm.586-1.559c2.593.875 5.425 2.211 8.043 2.715 4.089.793 8.511-1.133 12.293-1.903-.297.055-4.547-1.777-5.571-2.121-2.738-.906-5.734-2.3-8.496-2.828-1.676-.32-12.418 1.973-12.414 1.988.438.879 5.324 1.875 6.145 2.149zm-232.086 37.105l-12.032 2.356 5.7 2.504 13.546-2.793-7.214-2.067zm16.933-3.324c-1.152.227-10.683 1.192-10.722 2.215-.012.305 4.199 2.035 4.636 2.125 1.426.293 2.539-.059 3.856-.32l10.484-2.078c.352-.067-3.453-2.028-4.312-2.211-1.473-.325-2.578.007-3.942.269zm7.391-1.336c.012 1.973 7.215 2.024 8.305 1.809l10.441-2.063c.285-.058-3.555-2.015-4.352-2.183-1.418-.301-2.41-.024-3.722.238-1.063.207-10.676 1.297-10.672 2.199zm28.23-5.64c-1.004.195-10.507 1.351-10.468 2.16.093 1.969 7.16 2.004 8.281 1.777l10.246-2.023c.234-.051-3.574-1.981-4.391-2.149-1.406-.285-2.371-.019-3.668.235zm17.368-3.403c-.907.149-10.469 1.43-10.411 2.145.172 1.965 7.102 1.984 8.258 1.754l10.047-1.989c.254-.05-3.387-1.816-4.16-2.007-1.5-.364-2.34-.137-3.734.097zm20.589-3.406c-1.488-.352-2.312-.133-3.691.094-.859.14-10.289 1.48-10.207 2.105.242 1.922 6.93 1.926 8.086 1.754 3.383-.5 6.68-1.32 10.004-1.976.207-.043-3.403-1.789-4.192-1.977zm2.879-1.09c.313 1.918 6.871 1.906 8.071 1.731 3.308-.496 6.55-1.301 9.816-1.942.16-.035-3.426-1.758-4.227-1.949-1.468-.34-2.277-.133-3.64.094-.821.136-10.106 1.523-10.02 2.066zm24.348-1.492c3.301-.508 6.543-1.293 9.801-1.941.218-.043-3.278-1.641-3.989-1.813-1.519-.375-2.281-.254-3.695-.043-.836.125-10.094 1.602-9.996 2.063.379 1.828 6.605 1.929 7.879 1.734zm16.144-3.195c3.247-.496 6.426-1.274 9.625-1.903.176-.035-3.289-1.613-4.015-1.789-1.496-.363-2.262-.25-3.656-.043-.805.121-9.903 1.649-9.809 2.028.445 1.824 6.551 1.906 7.855 1.707zm15.856-3.137c3.187-.484 6.309-1.25 9.453-1.867.133-.031-3.305-1.59-4.039-1.762-1.48-.352-2.246-.25-3.621-.047-.777.121-9.715 1.692-9.629 1.992.516 1.821 6.5 1.887 7.836 1.684zm15.418-3.051c3.187-.422 6.305-1.25 9.43-1.867.093-.02-3.309-1.559-4.055-1.73-1.395-.321-2.145-.247-3.438-.075-.781.106-9.675 1.758-9.601 1.985.558 1.734 6.441 1.851 7.664 1.687zm15.289-3.027c3.137-.414 6.187-1.227 9.266-1.832.058-.012-3.317-1.531-4.079-1.699-1.375-.317-2.121-.247-3.402-.079-.769.098-9.488 1.793-9.43 1.95.622 1.722 6.395 1.828 7.645 1.66zm15.019-2.969c3.079-.41 6.083-1.207 9.102-1.801-.988.192-5.258-2.043-7.461-1.754-.758.098-9.301 1.825-9.266 1.911.684 1.718 6.344 1.812 7.625 1.644zm14.586-2.887c3.086-.406 6.09-1.203 9.118-1.804-.996.195-5.118-2.043-7.278-1.762-.726.094-9.281 1.891-9.273 1.914.695 1.578 6.16 1.82 7.433 1.652zm7.09-4.5c-.011-.015 6.723-1.445 7.282-1.523 1.761-.25 3.457-.289 5.351.07.426.082 3.856 1.285 3.738 1.309-2.972.59-5.925 1.371-8.961 1.769-1.296.176-6.664-.058-7.41-1.625" clip-path="url(#M)"/></g><g clip-path="url(#N)" class="D"><path d="M536.73 514.594l-3.918 3.914s-2.328 6.875 0 7.934 50.906 4.23 52.813 3.07-24.449-11.32-38.629-18.301c-14.816-5.289-10.266 3.383-10.266 3.383"/></g><path d="M546.996 511.211l-.59.426c-5.777 4.102-13.59 6.871-13.59 6.871l-8.258-20.945 16.723-9.098s.418.156 2.352 8.02c.82 3.332 1.91 8.051 3.363 14.727" class="E"/><path d="M546.406 511.637c-5.777 4.102-13.59 6.871-13.59 6.871l-8.258-20.945 16.723-9.098s.418.156 2.352 8.02c-4.047 5.27-10.766 16.039 2.773 15.152" class="F"/><path d="M295.828 376.699s-6.512-5.078-9.051-10.473c-1.031-1.984-10.793 7.934-22.539 19.121s-22.941 21.422-3.496 13.41 23.895-11.187 23.895-11.187l9.285-4.207c.633-.234 1.906-6.664 1.906-6.664" class="D"/><path d="M311.148 383.84l-9.605 16.582-1.004-.715-16.379-11.664c5.953-5.871 11.031-13.246 11.031-13.246h.008l15.949 9.043" class="E"/><path d="M300.539 399.707l-16.379-11.664c5.953-5.871 11.031-13.246 11.031-13.246h.008c.309.246 13.199 10.453 5.34 24.91" class="F"/><path d="M441.32 403.516c-3.441 6.133-47.09 23.41-69.102 36.137-2.449 1.41-5.445 1.488-7.953.184-20.504-10.66-67.352-40.129-67.352-40.129l14.391-18.934s25.043 14.879 46.293 24.414a8.29 8.29 0 0 0 10.051-2.605c4.172-5.613 8.457-11.062 12.379-15.914 8.762-10.824 15.734-18.66 15.734-18.66s49.211 29 45.559 35.508" class="C"/><g fill="#892424"><path d="M372.219 439.652c-2.449 1.41-5.445 1.488-7.953.184-20.504-10.66-67.352-40.129-67.352-40.129s54.277 14.332 75.305 39.945"/><path d="M441.32 403.516c-3.441 6.133-47.09 23.41-69.102 36.137 25.711-24.449 19.336-41.965 7.809-52.984 8.762-10.824 15.734-18.66 15.734-18.66s49.211 29 45.559 35.508"/></g><path fill="#bf4e49" d="M544.031 492.375c-3.969 1.113-19.527 8.73-19.527 8.73l-23.008-53.367c-.832-1.922-2.234-3.543-4.02-4.637-13.68-8.383-75.113-46.352-105.625-70.703-4.699-3.75-6.344-10.141-4.051-15.699 3.063-7.434 7.008-14.383 7.008-14.383l6.453-9.148 49.602 16.449 30.938 10.262 6.59 14.449 10.559 23.156 24.461 20.941c1.34 1.145 2.309 2.66 2.793 4.359 2.762 9.727 12.547 44.688 17.828 69.59"/><g class="C"><path d="M516.875 425.949l.652-.66-.652.66"/><path d="M544.031 492.375c-3.969 1.113-19.527 8.73-19.527 8.73l-23.008-53.367c-.832-1.922-2.234-3.543-4.02-4.637-13.68-8.383-75.113-46.352-105.625-70.703-4.699-3.75-6.344-10.141-4.051-15.699 3.063-7.434 7.008-14.383 7.008-14.383l6.453-9.148 49.602 16.449 29.516 21.402 8.012 3.309 10.559 23.156s-47.777-22.973-76.988-32.176c-28.91-9.109 73.105 80.633 94.914 60.641-12.652 13.051-2.266 24.449 4.063 45.676 6.434 21.582 8.961 24.688 23.094 20.75"/></g><path fill="#bf4e49" d="M565.941 256.258l-11.75 5.395s-73.66-21.895-94.613-55.219c9.566-21.687 29.418-25.555 50.23-21.168a81.94 81.94 0 0 1 6.598 1.676c13.434 4.02 25.645 11.445 35.125 21.867 6.207 6.82 10.078 13.516 12.43 19.629l.004.008c6.105 15.875 1.977 27.813 1.977 27.813"/><path d="M565.941 256.258l-11.75 5.395s-73.66-21.895-94.613-55.219c9.566-21.687 29.418-25.555 50.23-21.168a81.94 81.94 0 0 1 6.598 1.676v.008s-12.758-.809-24.23 5.836 30.523 30.766 51.855 41.98 22.547 8.918 19.934-6.32c6.105 15.875 1.977 27.813 1.977 27.813" class="C"/><path d="M569.117 284.188c-4.082 5.203-12.691 11.063-18.051 3.426l-.832 1.762-.629 1.316-.805-.465L536.293 283c-4.766-2.766-9.473-5.703-13.715-9.234-4.098-3.41-7.449-7.371-10.48-11.742-2.902-4.184-5.609-8.52-8.844-12.465-3.164-3.871-7.059-7.066-10.648-10.523l-10.437-9.914c-6.379-5.746-18.723-.266-28.41.004-2.051.059-3.984-.121-5.715-.687l1.063-2.012 10.473-19.992 58.027 27.113 48.336 22.715-8.574 18.07-.004.016c-.125.293-1.887 4.648 1.488 4.34 3.492-.316 14.496.105 10.266 5.5" class="E"/><g clip-path="url(#O)" class="C"><path d="M456.879 163.75s4.445 30.625 10.477 37.449-2.859 0-2.859 0-10.477-10.789-26.508-17.535c7.461-12.141 18.891-19.914 18.891-19.914"/></g><path d="M440.051 192.785s-8.414 6.824-9.84 13.648c15.238.637 33.969-2.203 33.969-2.203v-4.574s-15.078-1.789-24.129-6.871" class="C"/><path d="M557.063 274.969l-5.996 12.645-.832 1.762-1.434.852-9.691 5.781-14.762-3.09-32.066-43.004-26.875-14.125c-.441-.187-6.609-3.742-11.648-6.664l-4.652-2.699 10.473-19.992 58.027 27.113c-.035.055-.074.105-.109.16-7.371 11.148-3.219 26.316 8.863 32.035 16.559 7.832 30.703 9.227 30.703 9.227" class="D"/><path fill="#637a31" d="M548.02 294.039l-39.594 83.469-9.477 19.977s-49.848-39.035-104.141-55.168c12.23-33.691 36.785-82.566 51.898-111.594 2.676 1.902 5.391 3.746 8.137 5.543 17.129 11.23 35.406 20.691 52.656 31.734 2.387 1.523 4.473 3.191 6.324 5.34 1.719 1.992 3.477 3.375 6.047 2.984 8.215 6.852 17.848 11.426 26.926 16.98l1.223.734"/><path d="M535.27 359.086s9.949-2.426 9.664.953c5.871-7.512 5.543-9.148 4.02-11.32s-3.703-2.539-3.703-2.539-2.305 2.152-2.633 2.77-3.613 5.27-3.613 5.27l-3.734 4.867m31.608-14.403s.531 1.27-.082 2.574-5.062 2.07-5.488.113 1.379-3.676 1.379-3.676l2.117-.266 2.074 1.254" fill="#542b0f"/><path fill="#4c5e1b" d="M508.426 377.508l-9.477 19.977s-49.848-39.035-104.141-55.168c12.23-33.691 36.785-82.566 51.898-111.594 2.676 1.902 5.391 3.746 8.137 5.543l-1.121 8.281s-30.699 110.625 54.703 132.961"/><path fill="#af8864" d="M572.188 342.316c-1.469.754-3.504 1.613-5.309 2.367-3.137 1.316-5.582 2.324-3.16 1.918 3.598-.598 6.816 1.16-6.656 9.648l-2.551 1.566c-16.406 9.84-12.383 6.879-8.152-2.539 1.625-3.617 1.91-5.297 1.051-5.461-1.379-.254-5.699 3.402-12.141 9.27-2.309-11.531.824-34.91.824-34.91s4.055-3.09 8.887-4.988c1.383-.539 2.828-.984 4.258-1.234 2.34-.406 4.645-.281 6.578.809.129.074.258.148.387.23 7.199 4.652 14.078 13.965 14.078 13.965s5.922 7.301 1.906 9.359"/><path d="M572.188 342.316c-1.469.754-3.504 1.613-5.309 2.367l-11.309-24.738.246-1.184.387.23c7.199 4.652 14.078 13.965 14.078 13.965s5.922 7.301 1.906 9.359m-15.124 13.935l-2.551 1.566c-16.406 9.84-12.383 6.879-8.152-2.539 1.625-3.617 1.91-5.297 1.051-5.461.523-6.723-2.953-29.133-2.953-29.133l.523-1.496c1.383-.539 2.828-.984 4.258-1.234.168 13.176 7.824 38.297 7.824 38.297" fill="#84552f"/><path d="M559.965 315.313c-.293 2.387-1.633 4.574-3.742 5.902-4.535 2.855-12.199 6.66-21.488 7.246 0 0-21.719 14.523-48.918 15.402-3.578.117-6.926-1.816-8.57-4.992-5.746-11.105-7.508-26.598-7.508-26.598s22.383-.633 34.129-5.871c.32 5.711.797 9.043.797 9.043s9.844 0 19.363-3.648c-.699-3.504-1.648-6.113-2.492-7.934-.18-.391-.32-.797-.418-1.207a6.5 6.5 0 0 1 1.582-5.969c3.191-3.398 8.766-8.043 16.363-9.512 1.863-.359 3.844-.531 5.941-.445 2.008.082 3.91 1 5.168 2.57 5.75 7.172 8.496 17.336 9.699 23.441a8.38 8.38 0 0 1 .094 2.57" class="E"/><path fill="#af7b12" d="M249.707 369.512a6.17 6.17 0 0 1-2.066-.359l.438.016c.48 0 .949-.055 1.406-.148l.508.484c-.094.008-.191.008-.285.008"/><path fill="#cf9538" d="M250.047 362.234c-.059-.121-.102-.234-.125-.336-.02-.082-.027-.156-.023-.23.039.129.105.277.195.438l.023.039-.07.09"/><path d="M539.035 259.594c1.277-.895 2.84-1.301 4.43-1.348 1.594-.035 3.266.379 4.684 1.258.359.219.688.473 1.016.73l.883.875c.543.617.992 1.305 1.324 2.031.676 1.449.98 3 .836 4.543l-2.527-3.484c-.203-.266-.445-.492-.656-.742l-.699-.664c-.473-.43-.973-.809-1.508-1.125-1.059-.656-2.242-1.129-3.547-1.441-1.312-.316-2.707-.504-4.234-.633" class="D"/><path d="M539.965 289.988c-.848 2.539-3.504 12.434-18.848 12.668a6.5 6.5 0 0 1 1.582-5.969c3.191-3.398 8.766-8.043 16.363-9.512 0 0 1.746.273.902 2.813" class="F"/><path fill="#af8864" d="M528.738 300.992c1.496-.418 2.988-1.699 4.391-2.398a20.57 20.57 0 0 1 1.988-.867c-.602-2.926-2.832-5.922-2.832-5.922s-17.32-26.762-47.785-50.355c-35.332-27.363-88.344-50.461-152.527-22.602-23.281 12.461-39.762 31.488-47.492 51.117-4.598 11.672-6.102 23.559-4.105 34.398 1.441 7.836 4.715 15.129 9.977 21.398a57.27 57.27 0 0 0 4.141 4.438c25.91 24.977 72.73 23.559 103.293 4.23l38.09-81.98.141-.301c.648-1.391 1.648-2.508 2.844-3.293a7.99 7.99 0 0 1 2.656-1.113c1.594-.355 3.309-.219 4.91.488l2.742 1.227c19.977 8.996 64.418 30.742 78.789 51.969.199-.187.457-.34.781-.434"/><path fill="#b88a78" d="M530.07 301.074c2.125-.832 3.789-1.922 5.098-3.102l.012.063c-1.789 1.73-3.586 2.609-5.109 3.039"/><path fill="#a97160" d="M527.965 301.438c-.82-1.211-1.738-2.426-2.742-3.637l2.734 3.625c.199-.187.457-.34.781-.434 1.496-.418 2.988-1.699 4.391-2.398a20.57 20.57 0 0 1 1.988-.867c-.598-2.895-2.789-5.859-2.832-5.922.047.063 2.363 3.199 2.883 6.168-1.309 1.18-2.973 2.27-5.098 3.102a10.18 10.18 0 0 1-2.105.363m4.32-9.633h0"/><path fill="#836850" d="M527.957 301.426c-.816-1.207-1.73-2.414-2.734-3.625-.012-.016-.016-.02-.016-.023-16.625-20.027-57.203-39.84-76.039-48.32 11.402 2.746 32.973 8.711 46.77 17.254 3.879 2.402 6.512 3.441 8.094 3.441 6.371 0-4.277-16.746-19.531-28.703 30.465 23.594 47.785 50.355 47.785 50.355.043.063 2.234 3.027 2.832 5.922a20.57 20.57 0 0 0-1.988.867c-1.402.699-2.895 1.98-4.391 2.398-.324.094-.582.246-.781.434"/><path fill="#bc533b" d="M537.762 294.82c-.254 1.246-.809 2.383-1.551 3.406-.754 1.012-1.695 1.914-2.809 2.586-1.102.676-2.367 1.121-3.664 1.242-1.281.121-2.629-.051-3.727-.73a18.6 18.6 0 0 0 3.344-.973c1.023-.398 1.973-.879 2.895-1.437s1.805-1.199 2.703-1.891l2.809-2.203"/><path fill="#cd7571" d="M545.957 226.527c-3.598 0-10.043-5.449-18.367-11.066-10.434-7.043-19.871-11.687-17.246-15.574 1.555-2.301 7.105-4.559 13.539-4.559 4.438 0 9.293 1.07 13.551 3.945 10.434 7.047 13.32 22.234 10.699 26.121-.531.785-1.262 1.133-2.176 1.133"/><path d="M452.602 172.984s-8.176 6.191-7.465 8.969 16.113 15.469 15.797 12.215-6.371-18.172-6.508-23.324c-.875 6.109 1.902 13.145 1.902 13.145s-6.27-5.367-3.727-11.004m-11.472 23.206s-6.824 5.832-7.262 7.301 22.938-.754 22.938-.754l-13.371-.355s16.996 0 17.504-.676-13.219-2.141-16.754-2.816 8.832.359 8.832.359l-11.887-3.059" fill="#c95555"/><path d="M559.965 315.313c-.293 2.387-1.633 4.574-3.742 5.902-4.535 2.855-12.199 6.66-21.488 7.246 0 0-22.121 14.793-49.668 15.422a8.27 8.27 0 0 1-7.449-4.309c-6.043-11.137-7.879-27.301-7.879-27.301s22.383-.633 34.129-5.871c0 0-10.469 15.645-8.352 25.32s39.516-4.211 36.371-13.773c6.172 6.734 25 7.234 28.074-2.641l.004.004" class="F"/><path fill="#4c5e1b" d="M461.77 279.465s10.344 32.539 45.75 24.918c-7.93 5.387-34.773 9.445-41.434 7.098-4.281-15.355-4.316-32.016-4.316-32.016"/><path fill="#34420d" d="M461.484 275.461l1.09 9.023 1.238 8.984 1.434 8.949 1.715 8.883-.516-.637c.219.086.516.188.785.262l.844.207c.563.125 1.137.195 1.707.223h-.082l8.629-.648 8.598-.977 8.496-1.465 4.156-1.051 2.023-.652 1.945-.805.063-.023.891-.395.902-.461 1.766-1.031-.285.617-.602-4.707-.687-4.711-1.406-9.43 2.156 9.293.965 4.676.848 4.711.059.379-.34.238-1.801 1.152-.941.523-1.004.484.063-.027c-2.687 1.383-5.539 2.176-8.387 2.871l-8.617 1.637-8.684 1.043-8.727.594-.043.004-.043-.004a12.35 12.35 0 0 1-2.008-.273c-.328-.07-.652-.16-.973-.262l-.98-.355-.434-.184-.086-.453-1.523-8.996-1.094-9.047-.746-9.07-.363-9.09"/><use href="#p" fill="#542b0f"/><path fill="#a2a2a2" d="M346.191 348.945h.004-.004m-.004 0c-19.324.004-38.187-5.816-51.547-18.605 13.359 12.789 32.223 18.605 51.547 18.605"/><path fill="#755f4a" d="M346.191 348.945h-.004c-19.324 0-38.187-5.816-51.547-18.605l-.148-.141c-.801-5.586.832-12.055.832-12.055l-6.141-1.992s0-.969 3.918-8.797a28.81 28.81 0 0 1-12.727-2.992c-.582-3.156-.867-6.398-.863-9.699.004-8.039 1.707-16.422 4.969-24.699 18.566 12.816 43.418 25.016 70.703 25.02 25.801 0 53.777-10.91 80.691-42.535l-38.09 81.98c-14.793 9.359-33.395 14.516-51.59 14.516h-.004"/><use href="#p" fill="#412a1a"/><path fill="#c9af97" d="M316.672 273.813c-7.113 0-11.707-1.699-12.75-6.051-2.82-11.781 19.027-42.105 53.375-50.32 6.289-1.508 12.563-2.164 18.633-2.164 27.07 0 50.074 13.109 52.379 22.734 2.82 11.785-23.965 17.438-58.312 25.652-21.668 5.184-41.172 10.148-53.324 10.148"/><path d="M282.324 312.344a.43.43 0 0 0-.316.129c-.086.09-.129.195-.129.316s.043.227.129.316a.43.43 0 0 0 .316.129c.121 0 .227-.043.313-.129s.133-.195.133-.316-.047-.227-.133-.316-.191-.129-.312-.129zm0 0" class="G"/><g clip-path="url(#P)" class="G"><path d="M284.992 311.898c-.234 0-.461.047-.68.137a1.75 1.75 0 0 0-.578.387 1.73 1.73 0 0 0-.387.574 1.78 1.78 0 0 0-.137.684c0 .234.047.461.137.68a1.75 1.75 0 0 0 .965.965 1.77 1.77 0 0 0 .68.133c.234 0 .465-.043.68-.133a1.75 1.75 0 0 0 .965-.965c.09-.219.137-.445.137-.68a1.78 1.78 0 0 0-.137-.684 1.73 1.73 0 0 0-.387-.574 1.75 1.75 0 0 0-.578-.387 1.76 1.76 0 0 0-.68-.137zm0 0"/></g><g clip-path="url(#Q)"><path fill="#ee3e54" d="M286.773 316.793c-.246 0-.457.086-.629.262s-.262.383-.262.629.086.457.262.629.383.262.629.262a.85.85 0 0 0 .629-.262c.172-.172.258-.383.258-.629s-.086-.457-.258-.629a.85.85 0 0 0-.629-.262zm0 0"/></g><path d="M257.406 336.371c-.121 0-.227.043-.312.129a.42.42 0 0 0-.133.316c0 .121.043.227.133.313a.43.43 0 0 0 .313.133.44.44 0 0 0 .316-.133c.086-.086.129-.191.129-.312a.43.43 0 0 0-.129-.316c-.09-.086-.191-.129-.316-.129zm0 0" class="G"/><path fill="#fff" d="M283.656 321.688c-.121 0-.227.043-.312.129s-.133.195-.133.316a.43.43 0 0 0 .133.313c.086.09.191.133.313.133a.42.42 0 0 0 .316-.133c.086-.086.129-.191.129-.312s-.043-.227-.129-.316a.43.43 0 0 0-.316-.129zm0 0"/><path d="M265.688 347.25a.37.37 0 0 0-.273.113c-.078.074-.113.164-.113.273s.035.195.113.27.164.113.273.113.195-.035.27-.113.113-.164.113-.27-.035-.199-.113-.273a.37.37 0 0 0-.27-.113zm0 0" class="G"/><g mask="url(#R)"><g clip-path="url(#T)" transform="translate(346 214)"><g clip-path="url(#U)"><path fill="#e6e9ed" d="M29.945 53.977H.344V.559H70.02v53.418zm0 0"/></g><g clip-path="url(#V)"><path fill="#ff826e" d="M70.02 9.848H.344V.559H70.02v10.449zm0 0"/></g><g fill="#656d78"><use href="#q"/><path d="M8.473 4.043h2.32v2.32h-2.32zm4.644 0h2.32v2.32h-2.32zm0 0"/></g><path fill="#ccd1d9" d="M50.277 37.719v-2.324H34.02v2.324a4.65 4.65 0 0 1-4.645 4.645h-2.324v6.352c0 1.789.184 3.547.523 5.262h29.145a26.74 26.74 0 0 0 .523-5.262v-6.352h-2.32a4.65 4.65 0 0 1-4.645-4.645zm0 0"/><g clip-path="url(#W)"><path fill="#5cd6b3" d="M47.953 37.719H36.34a6.97 6.97 0 0 1-6.965 6.969v4.027c0 8.969 4.898 17.223 12.773 21.52 7.875-4.297 12.773-12.551 12.773-21.52v-4.027a6.97 6.97 0 0 1-6.969-6.969zm0 0"/></g><path fill="#e6e9ed" d="M39.824 52.816h-2.32v-6.969a4.65 4.65 0 0 1 4.645-4.645 4.65 4.65 0 0 1 4.645 4.645v2.32h-2.324v-2.32c0-1.281-1.039-2.324-2.32-2.324a2.33 2.33 0 0 0-2.324 2.324zm0 0"/><path fill="#ccd1d9" d="M37.504 49.332h2.32v3.484h-2.32zm0 0"/><path fill="#fcd770" d="M45.633 60.945h-6.969c-1.285 0-2.324-1.043-2.324-2.324v-4.645c0-1.285 1.039-2.324 2.324-2.324h6.969a2.32 2.32 0 0 1 2.32 2.324v4.645c0 1.281-1.039 2.324-2.32 2.324zm0 0"/><path fill="#48cfad" d="M13.117 29.82v2.094l-4.762 1.359c-1.992.57-3.367 2.391-3.367 4.465v2.301h23.223v-2.301c0-2.074-1.375-3.895-3.367-4.465l-4.762-1.359-.004-2.094zm0 0"/><path fill="#ffc729" d="M32.859 14.492h32.512v18.582H32.859zm0 0"/><g fill="#ffeaa7"><path d="M59.566 27.266h2.324v2.324h-2.324zm-23.226 0h20.902v2.324H36.34zm0-4.645h25.551v2.324H36.34zm4.648-4.644H61.89v2.324H40.988zm-4.648 0h2.324v2.324H36.34zm0 0"/></g><path fill="#f0d0b4" d="M16.602 14.492a6.97 6.97 0 0 0-6.969 6.969v2.324c0 2.574 1.402 4.82 3.484 6.027v2.102l3.484 4.645 3.48-4.645v-2.102c2.082-1.207 3.484-3.453 3.484-6.027v-2.324a6.97 6.97 0 0 0-6.965-6.969zm0 0"/></g></g><g clip-path="url(#X)" class="B"><g clip-path="url(#Y)"><g clip-path="url(#Z)"><path d="M231.324 289.949c-.496.113-.992-.195-1.102-.691l-5.66-25.035c-1.98-8.77-6.855-15.395-14.105-19.16-6.449-3.355-14.328-4.227-22.18-2.453-14.395 3.254-27.883 15.633-23.48 35.121.336 1.48 1.82 2.41 3.309 2.074a2.77 2.77 0 0 0 2.098-3.297c-1.609-7.117-.297-13.703 3.793-19.055 3.609-4.719 9.121-8.113 15.516-9.559 6.383-1.445 12.797-.75 18.063 1.957 5.969 3.07 9.973 8.461 11.586 15.59l5.66 25.039c.109.492-.203.984-.699 1.098s-.992-.195-1.102-.691l-5.66-25.039c-1.488-6.586-5.164-11.551-10.637-14.363-4.879-2.508-10.848-3.148-16.805-1.801-10.945 2.473-21.219 11.793-17.914 26.418.555 2.465-1.012 4.93-3.492 5.492s-4.957-.992-5.512-3.457c-2.105-9.309-.437-17.91 4.824-24.871 4.652-6.152 11.773-10.574 20.051-12.445s16.602-.941 23.441 2.613c7.742 4.023 12.941 11.07 15.047 20.383l5.66 25.035c.109.496-.199.988-.699 1.098zm0 0"/></g></g></g><g clip-path="url(#a)" class="B"><g clip-path="url(#b)"><g clip-path="url(#c)"><path d="M174.738 364.148l78.012-17.629-11.996-53.094c-.668-2.941-3.613-4.789-6.574-4.121l-67.277 15.203c-2.957.672-4.824 3.609-4.16 6.551zm79.316-16.043l-79.809 18.035a.92.92 0 0 1-1.105-.691l-12.199-53.984c-.887-3.93 1.605-7.852 5.559-8.746l67.273-15.203c3.953-.891 7.891 1.578 8.777 5.504l12.203 53.988c.109.492-.203.984-.699 1.098zm0 0"/></g></g></g><g clip-path="url(#d)" class="B"><g clip-path="url(#e)"><g clip-path="url(#f)"><path d="M206.773 339.016l6.254-1.41-3.793-11.934c-.117-.363.008-.758.309-.996 1.844-1.453 2.699-3.863 2.188-6.141-.746-3.289-4.035-5.352-7.344-4.605s-5.387 4.027-4.645 7.313c.516 2.277 2.324 4.086 4.613 4.605a.91.91 0 0 1 .707.766zm7.637.156l-8.215 1.855c-.254.059-.516.008-.727-.141a.9.9 0 0 1-.391-.625l-1.758-12.797c-2.68-.84-4.758-3.066-5.379-5.816-.965-4.273 1.742-8.535 6.043-9.508s8.578 1.715 9.543 5.984c.625 2.75-.297 5.652-2.352 7.566L215.09 338c.078.242.047.508-.082.734s-.344.379-.598.438zm0 0"/></g></g></g><g clip-path="url(#g)" class="B"><g clip-path="url(#h)"><g clip-path="url(#i)"><path fill="#eceff1" d="M189.512 247.895c6.383-1.445 12.797-.75 18.063 1.957 5.965 3.07 9.973 8.461 11.586 15.59l5.457 24.145 5.402-1.223-5.457-24.141c-1.98-8.77-6.855-15.395-14.105-19.16-6.449-3.355-14.328-4.227-22.18-2.453-14.395 3.254-27.883 15.633-23.48 35.121.336 1.48 1.82 2.41 3.309 2.074a2.77 2.77 0 0 0 2.098-3.297c-1.609-7.117-.297-13.703 3.793-19.051 3.609-4.723 9.121-8.117 15.516-9.562zm0 0"/></g></g></g><g clip-path="url(#j)" class="B"><g clip-path="url(#k)"><g clip-path="url(#l)"><path fill="#eceff1" d="M224.113 291.582l-57.211 12.926c-2.957.672-4.824 3.609-4.16 6.551l11.996 53.09 78.012-17.629-11.996-53.094c-.668-2.941-3.613-4.789-6.574-4.121l-2.855.645-7.195 1.629zm-9.703 47.59zm-3.234-13.48L215.09 338c.078.242.047.508-.082.734s-.344.379-.598.438l-8.215 1.855c-.254.059-.516.008-.727-.141a.9.9 0 0 1-.391-.625l-1.758-12.797c-2.68-.84-4.758-3.066-5.379-5.816-.965-4.273 1.742-8.535 6.043-9.508s8.578 1.715 9.543 5.984c.625 2.75-.297 5.652-2.352 7.566zm0 0"/></g></g></g><g clip-path="url(#m)" class="B"><g clip-path="url(#n)"><g clip-path="url(#o)"><path fill="#3f7163" d="M211.727 318.531c-.742-3.285-4.031-5.348-7.34-4.602s-5.387 4.027-4.645 7.313c.516 2.277 2.324 4.086 4.613 4.605a.91.91 0 0 1 .707.766l1.711 12.402 6.254-1.41-3.793-11.934c-.117-.363.008-.758.309-.996a6.14 6.14 0 0 0 2.184-6.145zm0 0"/></g></g></g></g></svg>