<svg xmlns="http://www.w3.org/2000/svg" viewBox="39.273 40.906 431.136 368.334" xmlns:v="https://vecta.io/nano"><style><![CDATA[.B{stroke-miterlimit:10}.C{fill:#fffeff}.D{fill:#37c2d1}.E{fill:none}.F{stroke-linecap:round}.G{stroke-linejoin:round}.H{opacity:.07}.I{stroke-width:2}.J{fill:#ffe8f8}.K{fill:#222937}.L{fill:#f6b684}.M{fill:#030303}.N{stroke:#ff7276}.O{stroke-width:3}.P{stroke:#fffeff}.Q{fill:#ff7276}.R{stroke-width:1.964}]]></style><g transform="matrix(-.946913 0 0 .902897 491.569092 -1.591552)"><path d="M391.882 239.544c-44.543-22.04-81.927-42.754-150.437-136.371-38.013-51.944-160.793-61.172-199.95 38.458-18.067 45.971-1.537 72.885 19.8 112.356s-44.123 65.325-24.838 124.496c36.156 110.935 210.844 16.635 279.899 34.29 139.513 35.67 172.467-125.263 75.526-173.229z" class="J"/><path d="M339.996 450.635H60.283c-6.513 0-11.792-5.28-11.792-11.792V219.734c0-6.513 5.279-11.792 11.792-11.792h278.704c6.513 0 11.792 5.28 11.792 11.792v220.118c0 5.956-4.827 10.783-10.783 10.783z" fill="#a5b4d6"/><path d="M348.64 449.228H72.17c-6.437 0-11.655-5.218-11.655-11.655V221.005c0-6.437 5.218-11.655 11.655-11.655h275.472c6.437 0 11.655 5.218 11.655 11.655v217.566a10.66 10.66 0 0 1-10.657 10.657z" fill="#273242" stroke="#b7c3e5" stroke-width="2.789" class="B"/><path d="M75.045 222.141h271.112v203.068H75.045z" class="D"/><path d="M385.406 450.635H68.805l-12.847-4.033c0-8.765-5.868-15.87 2.739-15.87h311.125c8.607 0 15.584 7.105 15.584 15.87v4.033z" fill="#a5b4d6"/><path d="M460.514 450.635H179.938v-4.177a15.73 15.73 0 0 1 15.726-15.726h249.124a15.73 15.73 0 0 1 15.726 15.726v4.177z" fill="#b7c3e5"/><clipPath id="A"><path d="M68.189 167.147h166.097v258.062H68.189z"/></clipPath><g clip-path="url(#A)"><circle transform="matrix(.1609 -.987 .987 .1609 -122.2789 348.39)" cx="143.751" cy="246.108" r="28.229" class="K"/><path d="M119.619 324.207l-7.132 47.732c-2.125 12.86-7.5 60.667-7.5 60.667s27.203 5.831 48.185 6.404 36.438-1.856 37.161-3.109c-6.077-28.898-16.065-86.844-16.065-86.844l-.196-19.342 6.035 35.689 7.014-.497s1.826-16.587.494-35.385c-1.033-14.563-6.127-24.732-10.463-35.155-1.191-2.863-2.785-5.528-5.665-6.679l-15.805-6.316-23.66.803-15.753 4.481" class="C"/><g fill="#8c4b5a"><use href="#C"/><path d="M131.19 252.8c0 1.925-1.56 3.485-3.485 3.485s-3.485-1.56-3.485-3.485 1.561-3.485 3.485-3.485 3.485 1.56 3.485 3.485z"/><path d="M125.997 240.846l3.229 19.656c.439 2.379 1.879 6.765 3.928 8.854 0 0 8.641 5.132 11.6 5.213 2.993.082 4.159.262 6.315-2.227l5.428-4.572c1.487-1.717 2.781-6.262 3.106-8.721l1.998-13.777-7.564-13.378-18.646 2.564-9.394 6.388z"/></g><g fill="#733e4c"><path d="M145.311 257.744h-3.026c-.554 0-1.003-.449-1.003-1.003s.449-1.003 1.003-1.003h3.026c.554 0 1.003.449 1.003 1.003s-.449 1.003-1.003 1.003z"/><path d="M142.322 248.91l-.053 8.124c0 .815.661 1.476 1.476 1.476s1.476-.661 1.476-1.476l.053-8.124h-2.952z"/></g><g class="K"><use href="#D"/><path d="M154.057 247.381h-4.406c-.351 0-.635-.284-.635-.635v-.003c0-.351.284-.635.635-.635h4.406c.351 0 .635.284.635.635v.003c0 .351-.284.635-.635.635zm-4.515-7.897s-14.822.619-16.704 2.431c-.63.607-1.426 1.519-2.207 2.463-1.964 2.377-3.138 5.308-3.345 8.384h0s-2.331-4.371-2.181-6.018-.865-10.148 4.588-16.718c7.447-8.971 29.773-7.969 33.953 9.263.723 2.982-1.243 2.812-1.314 7.695-.072 4.969-2.643 4.607-2.643 4.607s-.749-2.121-2.392-5.836c-1.304-2.948-2.652-5.741-7.755-6.271z"/><use href="#E"/><path d="M152.64 250.512c0 .434-.352.786-.786.786s-.786-.352-.786-.786.352-.786.786-.786.786.351.786.786z"/></g><path d="M129.746 283.277l24.027 28.948c6.704-24.962 4.835-27.198 4.835-27.198l-28.862-1.75z" fill="#ef626d"/><path d="M126.826 236.608s6.514 6.373 14.393 9.249c4.459 1.627 18.47 5.735 18.47 5.735l-3.202-17.22-29.661 2.236z" class="K"/><g class="L"><path d="M133.717 275.858c-.316 3.795-1.477 5.272-3.971 7.42 0 0 14.184 7.382 28.863 1.75 0 0-1.324-1.932-1.373-5.584-.001-.001-23.2-7.381-23.519-3.586z"/><path d="M138.687 196.152s-7.905 1.489-16.327 5.881c-8.636 4.506-17.816 12.065-19.579 24.209-1.017 6.992-.736 13.811.831 20.121 3.805 15.334 15.206 27.658 34.05 32.137 13.3 3.161 27.918 2.004 39.101-5.423s18.452-23.96 16.434-38.117-8.113-21.91-17.768-28.874-22.392-10.295-36.742-9.934z"/></g><path d="M157.738 247.922c-.466-.024-.846-.399-.865-.874a.91.91 0 0 1 .874-.945c.3-.013 1.184-.069 1.669-.183.791-.187 1.302-.502 1.442-.883.15-.408-.072-1.057-.609-1.785-1.658-2.246-1.405-6.172-1.394-6.338.035-.501.468-.871.971-.844a.91.91 0 0 1 .846.97c-.065.948-.004 3.715 1.042 5.131 1.177 1.596 1.113 2.78.853 3.493-.252.688-.931 1.599-2.731 2.026-.743.175-1.889.227-2.017.231-.029.004-.054.002-.081.001z" fill="#d78a49"/><path d="M196.451 217.782s3.313-5.307.515-10.814c-3.366-3.703-8.446-2.078-7.429-3.686 1.628-2.573 1.118-7.743-.159-9.452-2.922-3.909-7.804-3.344-11.159-3.504.135-2.834.463-5.94-3.738-7.752-3.958-1.707-8.188.75-10.749 3.08.219-4.605-8.157-13.126-16.187-2.237-1.561-3.099-15.02-11.384-22.135 3.647-2.754-1.535-13.18-3.949-20.06 4.089-2.445 2.856-2.858 5.232-3.264 8.971-6.678-.319-14.737 11.343-9.734 18.697 2.183 3.208 1.562.45-2.039 6.309-2.354 3.832-.161 10.695 2.999 13.279-2.112 6.059 1.662 13.5 7.798 15.374-1.185 1.93-.471 4.618 1.191 6.158s4.027 2.099 6.293 2.119c1.569.013 3.229-.239 4.446-1.229 2.435-1.979 2.027-5.774 1.138-8.782 1.819-.626 3.048-2.439 3.4-4.331s-.05-3.844-.668-5.665c-.339-.991-3.012-2.281 1.288-4.561 2.102-1.112 2.622-4.177 1.925-6.45-.301-.977-.877-1.845-1.614-2.552a9.89 9.89 0 0 0 .513-.209c.817-.38 1.767-.234 2.667-.261 3.245-.092 6.199-2.857 6.507-6.089.083-.868.029-1.837.601-2.493.627-.718 1.737-.963 2.664-.745 7.787 1.827 12.938.981 16.521-5.88.721 3.308 7.058 5.866 10.433 5.6s7.397-4.759 7.589-8.138c1.572 3.173 4.596 11.898 13.88 5.632 7.279 10.787 14.421 23.399 7.704 45.269 5.343-4.309 12.092-15.64 10.998-22.702 7.962-13.347-2.135-20.692-2.135-20.692z" fill="#1f2935"/><g fill="#e59a53"><path d="M121.27 251.316c-.251 5.282 3.826 9.765 9.105 10.018s9.765-3.827 10.016-9.108-3.827-9.764-9.107-10.016-9.763 3.828-10.014 9.106zm67.033 7.384c-.149.502-.762.343-1.304.319-5.281-.251-9.357-4.736-9.105-10.016a9.57 9.57 0 0 1 10.014-9.106 8.69 8.69 0 0 1 2.135.377s1.178 8.54-1.74 18.426z" opacity=".32"/></g><g fill="#352a30"><path d="M140.697 239.525c.067 1.935-.989 3.543-2.357 3.59s-2.533-1.483-2.601-3.417.987-3.542 2.357-3.589 2.532 1.48 2.601 3.416zm37.551-1.872c.068 1.936-.987 3.542-2.356 3.589s-2.533-1.482-2.6-3.415.988-3.545 2.357-3.592 2.532 1.483 2.599 3.418z"/></g><path d="M157.22 279.912s-9.669 1.681-20.273-1.772c1.168.825 5.953 4.433 20.482 3.482l-.209-1.71z" opacity=".32" fill="#e59a53"/><path d="M152.797 251.398c.218.617 3.961 2.298 5.407 2.539 2.827.47 5.533-.124 6.484-1.622 0 0 .743 6.044-3.384 7.589-3.23 1.207-6.067-.343-7.394-2.131-1.974-2.653-1.113-6.375-1.113-6.375z" fill="#f8f4e9"/><path d="M108.842 182.277s-.699-9.192-11.125-8.672c-8.6.429-10.06 8.141-7.651 11.872 0 0-11.797-4.229-15.593 7.532-3.026 9.378 7.22 11.464 7.22 11.464s-11.555 2.511-8.759 12.448c4.095 14.555 17.798 5.305 17.798 5.305s-3.28 12.478 9.797 9.924 25.743-32.234 25.743-32.234l-.863-12.852c.001.001-7.567-15.429-16.567-4.787z" fill="#1f2935"/><path d="M89.662 224.593c.643.027 1.205-.453 1.27-1.103.124-1.213 3.388-29.795 34.689-35.216.667-.116 1.114-.75.998-1.417s-.749-1.116-1.419-1.001c-33.168 5.745-36.678 37.074-36.71 37.39a1.23 1.23 0 0 0 1.098 1.343 1.74 1.74 0 0 0 .074.004z" class="J"/><g class="M"><path d="M151.669 438.971l2.74-115.01-.636-11.736h0l2.138-1.79-2.739 128.575z" class="H"/><use href="#F" opacity=".13"/><path d="M151.165 370.536a1.64 1.64 0 0 1-1.638 1.638 1.64 1.64 0 0 1-1.638-1.638 1.64 1.64 0 0 1 1.638-1.638 1.64 1.64 0 0 1 1.638 1.638zm0 20.576a1.64 1.64 0 0 1-1.638 1.638 1.64 1.64 0 0 1-1.638-1.638 1.64 1.64 0 0 1 1.638-1.638 1.64 1.64 0 0 1 1.638 1.638zm-1.638 26.1a1.64 1.64 0 0 1-1.638 1.638 1.64 1.64 0 0 1-1.638-1.638 1.64 1.64 0 0 1 1.638-1.638 1.64 1.64 0 0 1 1.638 1.638zm3.276-72.154a1.64 1.64 0 0 1-1.638 1.638 1.64 1.64 0 0 1-1.638-1.638 1.64 1.64 0 0 1 1.638-1.638 1.64 1.64 0 0 1 1.638 1.638z" opacity=".13"/><path d="M124.266 284.381l5.652 12.924h6.909l-2.838 4.915 19.956 10.346-22.583-8.261 2.627-5.334-6.113.875-7.354-14.4z" class="H"/><path d="M163.671 284.564l1.874 7.97-3.438 1.812 3.688 3.746-12.037 14.474 14.099-13.949-3.125-3.896 2.598-1.5-1.91-7.958z" class="H"/></g><path d="M160.831 327.422c0 4.908 3.229 8.884 7.214 8.884s7.211-3.977 7.211-8.884-3.228-8.887-7.211-8.887-7.214 3.979-7.214 8.887z" fill="#d3d7ef"/><path d="M164.298 327.422c0 4.315 2.841 7.814 6.344 7.814s6.344-3.499 6.344-7.814-2.839-7.815-6.344-7.815-6.344 3.498-6.344 7.815z" fill="#002b2e"/><path d="M168.045 320.392s-1.761-20.834-5.03-30.548c-1.224-3.643-3.356-7.18-6.436-8.885" stroke="#002b2e" class="B E F G R"/><path d="M144.194 351.6l52.834-44.273 31.735 37.871-52.834 44.273z" fill="#f7f2f2"/><path d="M192.63 375.758l-1.83-1.5c-1.508-1.028-1.898-3.085-.869-4.593l2.917-4.28c1.547-2.269 4.641-2.855 6.91-1.308l3.354 2.539c2.269 1.547 1.792 5.09-.362 7.874s-6.248 3.908-10.12 1.268z" class="L"/><path d="M117.101 341.302c5.464 1.315 14.563 2.995 14.563 2.995l1.5 19.083-19.644-2.096c.001.001 3.432-17.605 3.581-19.982z" class="H M"/><path d="M122.304 359.047c4.896-2.604 8.745-1.099 10.063-.918 4.409.604 8.743 4.131 9.565 4.244 1.054.145 1.664-.914.257-1.926-1.669-1.199-4.622-3.437-4.622-3.437l8.489 2.205c1.094.149 2.346-1.094.018-2.19-2.648-1.247-7.197-2.997-7.197-2.997l7.909 1.03c1.527.211 2.024-1.24.678-2.233-.855-.629-7.779-2.537-7.779-2.537s6.216.335 7.131.1c2.56-.657 1.411-1.811.483-2.201-.639-.27-6.467-1.179-10.362-1.064-1.094.031-.773-.968-3.19-.615-1.616.237-2.889 1.582-3.43 1.759-1.671.548-6.48.025-10.823 1.854" class="L"/><path d="M131.067 345.87l.929 16.011s-37.473-3.9-43.749-10.176c-4.095-4.095-9.074-12.591-3.749-27.074 4.951-13.468 18.478-32.871 31.772-37.976 5.705 4.936 7.05 12.432 7.05 22.618-1.203 6.96-16.459 29.283-16.459 29.283l24.206 7.314z" class="C"/><path d="M124.061 312.225s-4.101 9.258-4.441 12.104l-.547-3.486 4.988-8.618z" class="H M"/><g stroke="#002b2e" class="B E F G R"><path d="M129.587 300.285c-2.073-6.32-4.29-14.169-.67-17.39m17.177 49.934s-1.467-37.123-17.896-31.885c-10.383 3.311-10.258 31.885-10.258 31.885"/></g><g fill="#d3d7ef"><path d="M143.422 333.901c0 1.688 1.197 3.057 2.672 3.057s2.674-1.368 2.674-3.057-1.197-3.056-2.674-3.056-2.672 1.369-2.672 3.056zm-28.155.983c0 1.686 1.197 3.056 2.672 3.056s2.674-1.369 2.674-3.056-1.197-3.056-2.674-3.056-2.672 1.368-2.672 3.056z"/></g></g><path d="M474.993 455.015H25.006a2.66 2.66 0 1 1 0-5.32h449.987a2.66 2.66 0 1 1 0 5.32z" fill="#f4d7ec"/><g transform="matrix(-.963524 0 0 1 560.700012 .860489)"><use href="#G" class="C"/><g class="B E F G"><use href="#H" class="N O"/><g class="I P"><use href="#I"/><use href="#I" y="6.25"/><path d="M273.866 255.516h19.417"/></g></g><use href="#G" y="30.671" class="C"/><g class="B E F G"><use href="#H" y="30.671" class="N O"/><g class="I P"><use href="#I" y="30.671"/><use href="#I" y="36.921"/><path d="M273.866 286.187h30.75"/></g></g><use href="#G" y="61.341" class="C"/><g class="B E F G"><path d="M249.779 310.607l4.272 3.609 8.17-7.217" class="N O"/><g class="I P"><use href="#I" y="61.341"/><use href="#I" y="67.591"/><path d="M273.866 316.857h42.917"/></g></g></g><circle cx="283.574" cy="375.939" r="30.9" fill="#fff"/><path d="M301.444 374.479c.105-.86.116-2.419.083-2.625-.525-5.781-4.617-9.975-9.738-9.975-3.412 0-6.535 1.836-8.293 4.778-1.742-2.981-4.737-4.779-8.095-4.779-5.12 0-9.213 4.194-9.737 9.975-.042.255-.212 1.599.306 3.791.746 3.161 2.469 6.036 4.982 8.313l11.055 10.033a2.22 2.22 0 0 0 2.972.013l11.259-10.044c2.216-2.008 3.815-4.481 4.674-7.205a12.58 12.58 0 0 0 .532-2.275z" fill="#ed646f"/><path d="M269.241 371.17s.456-5.118 6.208-6.167" stroke="#fff" class="B E F G I"/><g class="C"><path d="M204.378 156.737h-45.913a13.23 13.23 0 0 1-13.227-13.227v-31.677a13.23 13.23 0 0 1 13.227-13.227h45.913a13.23 13.23 0 0 1 13.227 13.227v31.677a13.23 13.23 0 0 1-13.227 13.227z"/><path d="M145.237 135.731v28.891c0 2.097 2.476 3.212 4.046 1.821l13.863-12.278-17.909-18.434z"/></g><path d="M200.094 119.993h-10.996v-10.995h-15.355v10.995h-10.995v15.356h10.995v10.995h15.355v-10.995h10.996zm131.326 17.696h-61.916a5 5 0 0 0-4.996 4.996v28.673a5 5 0 0 0 4.996 4.996h0c.084 0 .152.068.152.152v6.035a.83.83 0 0 0 1.29.684l10.137-6.871h50.337a5 5 0 0 0 4.996-4.996v-28.673a5 5 0 0 0-4.996-4.996z" class="D"/><g fill="#fefefe"><use href="#J"/><path d="M322.662 156.09h-44.399a1.06 1.06 0 0 1-1.057-1.057 1.06 1.06 0 0 1 1.057-1.057h44.399a1.06 1.06 0 0 1 1.057 1.057c0 .584-.473 1.057-1.057 1.057z"/><use href="#J" y="12.854"/><path d="M304.339 169.027h-26.076a1.06 1.06 0 0 1-1.057-1.057 1.06 1.06 0 0 1 1.057-1.057h26.076a1.06 1.06 0 0 1 1.057 1.057 1.06 1.06 0 0 1-1.057 1.057z"/></g><path d="M252.491 144.743a1.06 1.06 0 0 1-1.046-.918c-.077-.579.329-1.11.908-1.187l5.947-.793c.586-.076 1.11.33 1.187.908a1.06 1.06 0 0 1-.908 1.187l-5.947.793c-.048.007-.095.01-.141.01zm7.136-6.74a1.06 1.06 0 0 1-.619-.201l-4.894-3.541c-.473-.342-.579-1.003-.237-1.476s1.003-.58 1.476-.237l4.894 3.542c.473.342.578 1.003.236 1.476-.206.285-.529.437-.856.437zm5.023-2.642c-.584 0-1.057-.473-1.057-1.057v-6.608c0-.584.473-1.057 1.057-1.057s1.057.473 1.057 1.057v6.608a1.06 1.06 0 0 1-1.057 1.057zm6.739.66a1.05 1.05 0 0 1-.721-.285c-.426-.398-.45-1.068-.051-1.494l3.7-3.964c.398-.427 1.065-.451 1.494-.051s.45 1.067.051 1.494l-3.7 3.964c-.209.223-.491.336-.773.336zm92.62-12.086h44.33a4.03 4.03 0 0 1 4.03 4.03v24.205a4.03 4.03 0 0 1-4.03 4.03h-33.197a4.51 4.51 0 0 0-2.53.777l-8.351 5.667V156.2h-.253a4.03 4.03 0 0 1-4.03-4.03v-24.205c.001-2.226 1.806-4.03 4.031-4.03z" class="Q"/><g fill="#fff"><use href="#K"/><use href="#K" x="9.915"/><use href="#K" x="19.83"/></g><path d="M115.747 84.317H59.151c-2.842 0-5.145 2.304-5.145 5.145v30.903c0 2.842 2.303 5.145 5.145 5.145h42.382a5.75 5.75 0 0 1 3.23.993l10.661 7.235v-8.227h.322c2.842 0 5.146-2.304 5.146-5.145V89.463c0-2.842-2.304-5.146-5.145-5.146z" class="Q"/><g fill="#fff"><use href="#L"/><use href="#L" x="-12.659"/><use href="#L" x="-25.317"/></g><path d="M385.298 105.172h-93.821c-6.523 0-11.811-5.288-11.811-11.811V58.879c0-6.523 5.288-11.811 11.811-11.811h93.821c6.523 0 11.811 5.288 11.811 11.811v34.482c0 6.523-5.288 11.811-11.811 11.811z" class="D"/><g fill="#fff"><path d="M334.643 76.624h3.163l3.376-11.908a1.25 1.25 0 0 1 1.289-.918c.591.033 1.081.473 1.176 1.059l2.66 16.276 3.55-26.007c.085-.62.611-1.085 1.237-1.094.61-.044 1.164.443 1.265 1.061l3.56 21.817h20.846c.698 0 1.265.567 1.265 1.265s-.567 1.265-1.265 1.265h-21.921c-.62 0-1.148-.449-1.248-1.061l-2.374-14.545-3.549 26c-.085.62-.611 1.086-1.237 1.094-.636 0-1.165-.448-1.265-1.061l-3.105-18.996-2.088 7.363c-.154.544-.651.92-1.217.92h-4.443"/><path d="M321.721 79.038a1.15 1.15 0 0 1-1.149-1.149 1.15 1.15 0 0 1 1.149-1.149h12.922a1.1 1.1 0 0 1 .216.022c.264-1.645.142-2.661.106-2.883-.553-6.088-4.862-10.505-10.255-10.505-3.593 0-6.882 1.934-8.733 5.032-1.834-3.139-4.989-5.033-8.524-5.033-5.392 0-9.702 4.417-10.254 10.505-.044.269-.223 1.684.322 3.992.786 3.329 2.6 6.357 5.246 8.755l13.202 11.98 13.428-11.979c2.333-2.115 4.017-4.719 4.922-7.588h-12.598z"/></g><path d="M288.447 96.532v15.935c0 1.157 1.366 1.771 2.232 1.005l10.647-9.773-12.879-7.167z" class="D"/><path d="M438.058 183.354H405.96l-1.512-4.092c-.413-1.117-1.477-1.858-2.668-1.858h-16.189c-1.571 0-2.844 1.273-2.844 2.844v7.04 2.269 29.36c0 2.173 1.761 3.934 3.934 3.934h51.377c2.173 0 3.934-1.761 3.934-3.934v-31.628c0-2.174-1.762-3.935-3.934-3.935z" fill="#23b0b7"/><path d="M442.425 183.354h-32.098l-1.512-4.092c-.413-1.117-1.477-1.858-2.668-1.858h-16.189c-1.571 0-2.844 1.273-2.844 2.844v7.04 2.269 29.36c0 2.173 1.761 3.934 3.934 3.934h51.377c2.173 0 3.934-1.761 3.934-3.934v-31.628c0-2.174-1.761-3.935-3.934-3.935z" class="D"/><path d="M425.531 199.243h-5.178v-5.178h-7.232v5.178h-5.179v7.233h5.179v5.178h7.232v-5.178h5.178z" fill="#fff"/><path d="M461.454 311.086h-6.789-57.555v-50.099h64.344z" fill="#f4d3ec"/><path d="M465.829 311.086h-6.789-54.555v-50.099h61.344z" class="C"/><path d="M404.485 260.987h61.344v12.668h-61.344z" class="D"/><text transform="matrix(-1.07689 .013849 .048401 .998711 905.206805 296.692623)" style="white-space:pre" font-family="ChunkFive" font-size="23.687" class="Q">13</text><path d="M465.829 301.04v10.046h-10.046" class="J"/><path d="M455.783 311.086V301.04h10.046" fill="#f4d3ec"/><path d="M397.11 260.987h7.375v12.668h-7.375z" fill="#27b1b7"/></g><defs ><path id="C" d="M163.174 252.8c0 1.925-1.56 3.485-3.485 3.485s-3.485-1.56-3.485-3.485 1.561-3.485 3.485-3.485 3.485 1.56 3.485 3.485z"/><path id="D" d="M136.02 247.381h-4.406c-.351 0-.635-.284-.635-.635v-.003c0-.351.284-.635.635-.635h4.406c.351 0 .635.284.635.635v.003c0 .351-.284.635-.635.635z"/><path id="E" d="M135.39 250.512c0 .434-.352.786-.786.786s-.786-.352-.786-.786.352-.786.786-.786.786.351.786.786z"/><path id="F" d="M152.803 323.049a1.64 1.64 0 0 1-1.638 1.638 1.64 1.64 0 0 1-1.638-1.638 1.64 1.64 0 0 1 1.638-1.638 1.64 1.64 0 0 1 1.638 1.638z"/><path id="G" d="M262.47 259.266h-12.94a3.53 3.53 0 0 1-3.53-3.53v-12.94a3.53 3.53 0 0 1 3.53-3.53h12.94a3.53 3.53 0 0 1 3.53 3.53v12.94a3.53 3.53 0 0 1-3.53 3.53z"/><path id="H" d="M249.779 249.266l4.272 3.609 8.17-7.218"/><path id="I" d="M273.866 243.016h51.25"/><path id="J" d="M322.662 149.664h-44.399a1.06 1.06 0 0 1-1.057-1.057 1.06 1.06 0 0 1 1.057-1.057h44.399a1.06 1.06 0 0 1 1.057 1.057 1.06 1.06 0 0 1-1.057 1.057z"/><path id="K" d="M379.3 140.068a2.9 2.9 0 1 1-5.802 0 2.9 2.9 0 1 1 5.802 0z"/><path id="L" d="M96.225 104.914c0 2.045 1.658 3.703 3.703 3.703s3.703-1.658 3.703-3.703-1.658-3.703-3.703-3.703-3.703 1.658-3.703 3.703z"/></defs></svg>