<svg xmlns="http://www.w3.org/2000/svg" viewBox="242.489 76.293 416.485 282.084" xmlns:v="https://vecta.io/nano"><path d="M264.371 81.629h373.703v233.812H264.371V81.629z" fill="#fff"/><g fill="#8e1a74"><path d="M437.218 168.322l-1.494 2.08-.997 1.041-1.994 1.144-.3.936s-.797.832-.697 1.353.1 1.456.1 1.456l-1.994 1.768c-.597.417-1.396 1.353-1.396 1.353s-.498.624-.797.832-.797.832-1.196 1.456-.797 1.041-.997 1.352-.797 1.041-1.097 2.185-1.097 2.497-1.097 2.497l-.2.52c.1 1.77.1 2.082.3 2.706s.399.415.2 1.768-.2 1.873-.398 2.497-.797 1.768-.997 2.29.398 1.456.398 1.456.3 1.353.1 1.665.1.936.1.936 1.196.729 1.594 1.144 1.097 1.041 1.196 1.353.897 1.77.997 2.082.897 1.456 1.097 1.768 1.196 1.458 1.196 1.458 1.295 1.039 1.594 1.456 1.196.624 1.494.936.997.208 1.395.521 1.196-.209 1.594 0 1.494-.208 1.794-.417.997-.936 1.494-.624.797 0 1.196.105.997-.415 1.395-.415 1.395-.417 1.694-.417 1.296-.624 1.696-.624.897-.415 1.395-.208.3-.415 1.196-.105 1.196 0 1.494.312.699.002.997.417.797.727.897 1.144.697.834.697.834l.597.103s.797-.624.997-.208 1.097.312 1.097.312l.897 1.041.3.417s.597 1.665.498 2.29-.1 1.977-.398 2.29-.498 1.665-.498 1.665-.399.417.498 1.249 1.494 1.561 1.794 1.976 1.097 1.562 1.195 2.29.3 1.144.699 2.08.897 1.041.997 2.082.3 1.041.2 1.768-.398.832-.1 1.353.697 1.458.597 1.77-.3 1.665-.3 1.665l-.2.624-.897 1.77-.597.936c-.2.729-.597 1.456-.498 2.497s-.498 1.041.3 2.08 1.195 2.185 1.694 3.123.797 1.873.897 2.497.499.834.697 1.665.3 1.249.3 1.768-.1 1.873.1 2.185.3 1.249.398 1.665-.3.521.3 1.249l1.395 1.665c.398.521.3.312.597 1.041s.697 1.146.797 1.768.198 2.185.498 2.914l.697 1.458s1.097.729 1.494.624 1.196-1.039 1.794-.729 1.097 0 1.594 0 .997-.624 1.494-.624 1.195-.832 1.594-.624.895-.209 1.395-.729.797-.936 1.694-1.768l1.395-1.353c.597-.52 1.196-1.665 1.894-1.873s.897-.936 1.095-1.456.3-.832.597-1.249.1.105.597-1.249 1.097-1.873 1.596-2.185.797-.936 1.095-1.041.797.312.597-.624 0-2.29-.198-2.602-.499.727-.399-.834 1.196-3.121 1.196-3.121 1.494-1.977 1.994-2.29.597-.624 1.296-1.041 2.192-1.456 2.192-1.977.597-1.873.597-2.185 0-.624-.198-2.394.198-1.353-.399-3.017-.699-3.746-1.097-4.265-.2-1.875-.2-2.29.699-1.456.997-1.873l1.594-2.082 2.691-3.537c.697-1.146 1.395-2.185 1.894-2.602s1.694-1.353 2.391-2.394l2.193-3.331c.1-.312.895-1.352.895-1.352s1.097-1.353 1.296-2.082 1.195-4.787.995-4.579-1.395.417-1.794.52.599.52-2.291.312-4.385.312-4.385.312c-.897-.209-1.594.832-1.894-.624s-.499-2.29-1.095-3.329-.997-1.456-1.894-2.809-.797-.729-1.596-1.768-.997-.729-1.494-2.082-.897-.832-1.494-2.705-.997-2.082-1.295-3.121-.697-1.353-.897-2.29-2.491-5.723-2.791-6.035-.797-1.977-.697-1.665 1.494 1.353 1.494 1.353.797-.312 1.097-.312 1.494 1.146 1.494 1.561 2.093 2.394 2.591 3.85 1.097 2.497 1.196 2.914 1.097 2.082 1.494 2.706 1.694 1.873 1.892 2.497 2.093 2.705 2.093 4.058.895 3.121.997 3.538 1.894.936 1.894.936l2.393-.624 3.986-2.394c.399 0 3.588-1.561 3.588-1.561l2.192-1.976c.897-.729 1.894-2.08 2.093-2.706s.597-.729 1.395-1.665 1.894-1.873 1.196-2.497-1.097-.417-2.093-1.456-.897-.832-1.594-2.185.1-2.914-1.396-1.352-.897 1.977-2.391 2.29-2.093 1.352-2.791.312-1.395-.417-1.794-1.977-.697-1.665-.797-2.29 0-.624-.797-2.185-.2-3.955.3-2.602 1.295 1.561 2.591 2.497 1.894 1.665 3.089 1.77 2.193 0 2.391.208.398-.103.897.105.697-.312.897.52 1.295.936 1.794 1.456.499.312 1.794.52 3.09.209 3.09.209l1.892-.105 2.193.208s1.596.936 1.994.936.498 1.146 1.494 1.77 1.196.729 1.794 1.456.499 1.041 1.295 1.768 2.093-.103 2.293-.415 1.195-.832.997 0 .995.52.697 2.497-.499 1.456 0 2.809 2.691 5.516 2.791 6.764.697.832.797 1.977.697 1.561.697 2.393.699 1.041.797 1.665 1.196.103 1.494 0 1.694-1.458 1.694-1.458.599-.208.499-1.249 0-.832 0-2.393-.597-1.561-.3-3.121 1.095-2.497 1.295-3.226.997-1.977 1.395-2.082 2.591-1.249 3.09-1.977 1.295-1.561 2.093-2.393 2.192-1.873 2.491-1.561.2.208.697.208 1.395.417 2.092.521 2.093 1.873 2.393 2.809.1.729 1.196 2.082 2.093.52 2.093 2.185 0 1.561.499 2.185 1.095-1.144 1.694-.936.697-.208 1.195 1.456.797 1.665.897 3.331-.1.105-.1 1.456-.1 1.458.1 2.705.895 1.665.797 1.875c0 0 .597-1.768.398-3.019s0-3.017.499-3.537.997-1.041 1.395.312.597.312 1.494 1.873 1.694 1.249 1.794 1.977.599.834 1.295 1.456 1.295-.103 2.093-.729 2.989-2.914 3.09-3.85.997-.729-.599-3.121-1.594-3.226-3.288-4.682-2.691-1.561-1.395-3.434 1.894-3.121 2.691-2.602 2.192.415 2.192 2.497-.398 4.37.997 1.873 2.093-3.955 1.694-3.537.897-.832.897-.832.1-.936 1.794-1.353 2.192-.624 2.791-.936 2.291-2.394 2.591-3.331 1.097-2.602.897-3.329-1.196-4.265-1.396-4.163-.1.105-1.395-1.352-2.193-2.497-2.393-3.121-.697-.729-.1-1.561.897-.729.997-1.456.895-1.353-.599-.832-.398.209-1.694.105-4.683.729-2.989-1.456 2.192-3.538 2.491-3.538 1.794-1.77 1.894-.105.697 1.249.797 2.29 2.093-1.144 2.093-1.144c.341.333.75.582 1.195.729.498.52.499 2.185.499 2.185s-.398-.521.697.312 2.291.417 2.291 2.185 0 1.873.697 2.29 1.395.209 1.994-.312 1.594-2.394 1.594-2.394.1-.729-1.494-1.77l-3.188-2.29c-.597-.521-.399-2.08.198-2.706s.897-.936.697-1.768.3-1.458 1.794-1.353 1.794-.103 1.794-.103.3.208.3-.417 1.892-3.538 1.395-3.538.101-.729-.2-1.873.997-2.914-.1-3.746-1.396-1.249-2.093-2.497-.599-1.456-3.188-1.77-3.787.624-4.385-.208-.897 1.249-1.295-1.249.597-4.163.597-4.163 1.594-1.041 1.992-1.768 1.994-1.041 3.29-.52 3.188.417 4.784.729 1.494 1.352 2.291 0 0-1.977.597-2.706 1.295-1.873 1.794-1.146 1.496 1.456 2.293.52 1.095-1.041 1.095-1.041l.398.417s.897-.521.897.415.897 1.977.399 2.706-1.195.624-1.195 2.394 0 1.458 1.095 2.914 1.794.208 1.994 1.768.398 1.249 1.494 2.29.895 1.041 1.694 1.665 1.196 1.249 1.196.209.1-1.561 0-2.497.797-1.665.198-3.226-.1-1.456-1.295-2.602-1.994.209-2.391-1.456 1.892-2.394 2.491-2.602 1.494-1.456 1.692-.624-1.494 3.85 1.396.624l1.594-1.873s1.494-.208 1.794 0 1.097-.936.797-.832-3.188-1.665-3.188-1.665l-2.093-1.249s.699-.521 1.196-.417.599-1.041 1.097-1.146 3.886.729 4.585 1.146 3.188.52 2.889.312-1.892-1.456-1.994-1.873-3.588-1.249-4.683-1.144-2.092.415-2.989.103-2.193-1.144-2.891-1.144-9.467-1.768-9.865-1.665-.997 2.08-1.296 1.768-.797-.312-2.193-.729-3.288-.729-5.779-.936-4.185.208-4.883-.624-2.192-.52-3.886-.624-3.688 0-4.585 0-2.989-.103-3.488-.208-1.097-.832-1.694-.936-.499-.312-1.694-.52-1.097-1.561-1.494-.417-.2.832-.797 1.249-1.196 1.249-1.594 1.249-1.992.105-2.291-.105-.797-.417-1.794-.417-.997.103-2.291-.105-2.291-.105-3.488-.729-1.196-1.041-2.193-.936-.995-.208-2.391-.208-3.089.832-3.986.936-2.889-.105-3.588-.417-.897-1.041-3.488-.729-4.085.312-3.588-.52 1.097-1.665 1.395-1.768.997-.624.498-.832-.997-.52-2.192-.624-1.097.417-2.891.208.997-.729-2.691-.624-4.585.417-4.982.417-.897-.832-1.894.417-2.393 1.977-4.385 2.08-2.093-.208-3.986.52-3.09-.208-2.691 1.456.897 2.29.897 2.602-.897 2.394-1.994 1.144-3.09-6.14-2.193-2.809 2.889 4.475.997 4.994-1.696-.208-1.994-.417 0-1.665-.1-2.497-.3-1.353-.697-1.768-.3-1.041-1.097-1.249-.1-.624-1.395-.624-2.391-.832-2.092 1.041.597.624 1.395 2.394 2.291.52 1.196 1.768-3.986.832-4.684.312-.498.208-1.794-.729-.895-1.665-2.391-.936-1.994 2.082-2.591 1.561-1.994.729-2.491.105-2.491-.624-2.891 0-1.594.52-3.288 1.353-1.196.103-3.288 1.873-3.29 3.226-3.986 2.08-4.485-3.121-2.99-3.434 2.193-.936 2.99-.208 2.093.521 2.291 0 1.097-1.041-.1-1.665-1.295-.209-3.188-.936 0-.52-2.591-.936l-4.385-.832c-.697-.208-1.694 0-2.691-.105s-1.694-.312-2.591-.208-1.395-.105-2.591.832l-2.891 2.08c-.797.729-2.889 2.185-3.488 2.706s-2.691 2.185-2.891 2.809.2 1.144-.597 1.561-1.594.417-2.193.52 0-.936-.597.105-.398 4.787.1 4.265.2-2.185 2.391-.624 3.588 1.352 3.488 2.809 1.494 1.353 1.694 1.665 1.196-.417 1.196-.417 2.193-1.456 2.193-2.185 1.395-2.394 1.395-2.394-.997-.52-.997-1.561.3-1.353.499-2.394-1.097 0 1.894-1.977 3.188-.624 3.188-.624.398.417-.1 1.041-1.395 2.29-1.594 2.497.897 1.873 1.395 1.873 1.494-.417 2.093-.312 1.594-.312 1.894-.103.997.832.498 1.353-1.594 1.144-2.391.936-1.994-1.665-1.296.417-.1 2.602-.697 2.497-1.894-1.144-1.694.417-1.295 2.602-1.594 2.602-.897-.105-.897-.105l-1.395-.105c-.499 0-1.494.52-1.794.936s-.697.105-1.196.105 0-.624-.997-.832-1.594-.417-2.192 0-1.494.624-1.894.312.2-1.041-.597-.624-1.395 1.561-1.694 1.665.897 0-.3.103-1.694.417-2.291.624.2 1.456-.897 1.873-.298-.52-1.395.417-1.296 1.77-1.694 1.873-.3.312-1.196.417-.797.208-1.296.312.1.312-.997.105-1.894.209-1.694.624 3.886 1.561 1.097 1.456-1.894.417-1.295.832.897.832 1.196.936.797 1.353.797 1.353.797-.105.3.624.2.936-.3 1.873-.498.312-.897.52-.997.936-2.093.312-1.892-.936-3.188-1.041-.399-.312-1.295.415-1.097 1.561-.997 2.497.2 2.185-.1 2.809-.3 1.249-.1 2.185c.102.537.385 1.017.797 1.353l1.694.312c.3.105.897-.208 1.694.312s1.594.729 2.093.105 2.491-1.353 3.09-1.977.997-.832.697-1.456.597-2.185 1.097-2.497 1.594-.624 1.594-.624l1.196-1.873s.997-1.146 1.494-1.041 3.288 1.146 3.09-.208.2-1.77.498-1.249 1.097.312 1.097.312.398-.208.697.105.697 1.665 1.295 1.977l1.494.832c.399.208.797 0 1.594.729s1.594 1.146 1.694 1.456.797 1.041.797 1.041.697.208.498.624-1.195 1.665-1.694 1.873-1.794-.209-1.295.208 1.196.936 1.494.624l2.192-2.394s-.1.105 0-.521 0-1.352.499-1.041.797.729.997.312.398-.208-.1-.52-1.694-2.082-2.291-2.185-2.093-1.146-2.093-1.146l-.997-1.144c-.697-.832-.897-.624-1.097-1.353s-.797-1.665.3-1.456 1.794.936 2.791 1.561.797.832 1.694 1.456.997 1.249 1.694 1.146 1.494.417 1.494 1.353.198 1.977.398 2.185.797.624.997 1.041.597 1.456.897 1.873.597.729.897 1.249.398-.105.697.105.697.103.697-.312.1-1.144.1-1.144 1.396-.417.997-.624-1.596-1.456-1.494-1.873 0-1.249.498-1.144.997 1.041 2.093.208 2.391-1.249 1.994 0 .1 1.456 0 2.809.399.936 1.097 1.665 1.195.834 1.694 1.041 1.295.105 2.093.209 1.295-.312 1.994-.105 2.291-.105 2.591.105 1.494-.417 1.594.312.499-.105.2 1.561-.697 2.809-.697 2.809c-1.097 2.185-1.494 2.706-1.994 2.809s-.797.417-1.694.312-1.994 0-3.288-.312-3.688.312-4.684-.312-2.391-.105-2.99-.832-1.594-.624-1.994-1.041-.597-1.561-.597.105-.897 1.768-1.097 2.602.298.417-.797.312-1.395.52-2.989-.729-2.391-1.249-3.188-1.77-1.594.936-2.391-.729-1.894-.312-1.994-1.665 0-1.249.1-2.08 1.196-1.561.697-1.873-.1-.832-.797-.52-1.694.417-2.491.729 1.794 0-2.093.312-4.984.729-4.984.729-.3-.208-.797.208-1.196 1.041-1.894.729-1.097-.209-1.694-.105-.997-.52-1.694 0-1.494.729-1.794.52-.799-1.043-.799-1.043zm66.669 68.47c-.3 1.146-1.395 2.809-1.395 2.809l-1.994 1.041s-.696.624-1.095.729-1.395.624-1.395.624-.897-.209-.597.727.399 2.082.3 2.394-.1.936-.1 1.77-.3 1.873-.797 2.08-.997.417-.897 1.146.1 2.914.1 2.914l1.296 2.082s.398-.312 1.196-.312 1.594-.727 1.594-.727.897.208.797-.936.399-2.497.3-2.809.897-1.665.897-1.977.997-1.768.997-2.29.697-1.353.797-1.976.2-2.082.398-2.497.3-.832.3-1.249v-1.249l-.699-2.291zm78.032 14.048c-.3.415-.498 4.891-.697 5.411s-.597 3.226-.398 3.85.498 2.914.3 3.643.1 3.017-.399 2.914-.696.105-.696.417.696.936.696.936 1.196 0 1.696-.105 1.494-.624 2.291-.624 1.296-.624 1.994-.624 2.193-.52 2.591-.312.997-1.249 1.694-.936 2.193-.729 2.891-.729.997-1.146 1.794-.936 2.291-.417 2.99-.105 1.794-1.041 2.291 0 1.994 1.458 1.994 1.977-.101 1.665-.101 1.665l1.196-.105s1.892-1.249 2.193-1.249.997-1.041.997-.52-.599 1.665-.797 2.185.198 1.146.198 1.146.997.52.599 1.456.1.729 0 1.456 0 .417.398.832 1.098 1.146 1.696 1.041.797-.729 1.295-.417 1.494.105 1.794.521-1.892 1.456 1.894-.312 4.185-2.185 4.683-2.811 1.098-1.249 1.494-1.665.1-.312 1.295-1.249 1.196-.52 2.293-2.29 1.892-2.393 2.093-2.705.597-.417.697-1.665.897-2.393.897-2.809.3-1.039.2-1.768.399-1.768-.2-2.809.3-1.456-.597-1.875-1.494-.208-1.694-.936-.997-.624-1.296-2.602-1.494-2.185-1.494-2.185-1.196-.52-.897-.727.399-1.665.3-2.082-.1-1.353-.398-1.976-.499-1.456-.797-2.185-.797-.936-.997-1.768-.499-1.146-.597-1.353-.3-1.249-.499-.105l-.599 3.329-1.097 2.29c-.3.52-.597 1.873-1.095 1.768s-.799.521-1.196.417-.997.105-1.295-.208-1.097-1.144-1.494-1.249-.697-.936-.997-.936-.797-.729-.697-1.146.198-1.352.3-1.768.697-1.353.697-1.353 0-.624-.499-.624-.597 0-1.694-.105l-1.794-.208c-.399 0 .399-.208-.697.105s-1.594 1.146-2.291 1.875-.1.52-.696.729-.499-.521-.897.624.2 1.456-.1 1.665-2.391-.729-2.391-.729.498-.105.1-.624-.797-1.249-1.395-.936-1.098.521-1.494 1.041-.399.936-.697 1.352-1.095.417-1.196.832-.1 1.456-.398 1.561-.398-.415-.697-.52-.2-.936-.398-.417-.398.415-.697 1.249-.399 1.561-.697 1.665 0 .208-.897.729-1.095.52-2.391 1.144-.997.624-1.894.729-1.097.417-1.694.521-.997.208-1.594.832-1.095.832-1.494.936-.799.521-.799.521zm5.879-41.104c-.398.624-1.694 2.497-2.192 2.602s-.997.624-1.396.52-1.295 0-1.594 1.353-.797 2.082-1.097 1.977.498 1.977-1.195 1.146-1.095.729-1.295 1.146.3 1.561.398 1.977.398 1.144.797 1.768.697 1.353 1.395 1.146 2.889 0 2.889 0 .799.312 1.296.312.597-.208.897-.208.897-1.041.797-1.144-.398-.417.2-1.041 1.295-.832 1.396-1.561-.2-.729.1-1.146.997-.31.797-.729.198-.312-.2-1.146-.897-1.144-.499-2.185.799-1.249.699-1.873.498-.832-.2-1.561-.997-.936-1.494-1.146l-.498-.208zm19.533 10.407c.399-.105 1.794-1.144 1.894.729s.198 1.352.797 2.393.995 1.353 1.692.834 1.494-.521 1.694-1.456.2-.936.797-.936.797-.105 1.098.312.496-.002 1.794.727 2.391.52 3.19 1.249 1.196.624 2.291 1.041.597-.208 1.594.936.599 1.456 1.097 1.977.897-.417.697.832-1.594 0 .499 1.768l3.089 2.602c.699.521 1.196 1.146.599 1.146s-2.491 0-2.691-.312-1.097-.521-1.696-1.249-1.892-1.249-2.192-1.873-.699-.832-1.196-.832-.997.624-1.694 1.353-.398-.415-1.295-.105-1.892-.105-2.391-.521-.398-1.041-1.195-.729-1.295.105-.997-.52.1-1.458.1-1.458.3-1.041-.398-1.249-.697-.936-1.396-1.146-1.794-.729-1.794-.729-.1 0-.399-.105-.3-.105-1.097-.312-1.396-.002-1.794-.521-.2-1.249-.2-1.249 1.594.208 0-1.041l-1.594-1.249s.198-.105.1-.312.995 0 .995 0zm-44.848-8.639s.498.521 1.295.417 1.395 1.665 1.894 2.29.797.936 1.894 1.665.997-.624 2.491 1.561.797.832 1.494 2.185 1.097 2.082 1.494 2.394.697 1.144.797 1.456.797 1.249.797 1.561.2 1.144-.398 1.873-1.097.832-1.097.832-1.196-.624-1.594-1.249-.897-1.144-1.594-2.393l-1.894-3.226c-.398-.624-.997-1.25-1.295-1.873s-1.097-2.497-1.494-2.706-.499-.832-1.196-1.561-.597-1.353-.897-1.768l-.997-1.353.3-.103zm-193.83 81.168l-2.691-1.561c-.498-.417-1.994-2.706-1.994-2.706l-1.097-2.185s-1.295-1.665-.997-2.29.897-1.041.897-1.353.597-1.146.1-1.456-.498-.417-.797-1.353-.3-1.77-.697-1.977-.697-1.561-1.097-1.665-.797-.832-.797-.832l-.597-8.43-.398-4.682c-.198-.834.3-2.602-.2-4.163s.1-3.434-.2-4.058.2-2.393-.1-4.058 1.196-3.746 0-4.37-.3-1.561-1.295-1.561-1.694-.521-2.591-1.249l-3.09-2.602c-.498-.52-2.093-1.873-2.591-2.29s-.997-2.185-1.395-2.706-.597-2.08-1.196-3.017-1.395-2.497-1.594-2.809-2.391-3.017-2.391-3.017l.2-1.665s1.494-.936 1.295-1.249.1-.624-.597-1.249-.597-1.77 0-2.29 1.494-2.185 1.494-2.185l1.494-2.602s1.196-1.353 1.196-2.29 1.694-1.561.697-2.393-.498-1.561-.797-2.185-.1-1.041.797-1.665 2.491-2.914 2.491-2.914l1.494-.312c.3 0 .797-3.331 1.694-1.146s1.196 1.041.897 2.602.398 1.249.797.834-.2.312.597-1.562.499-2.497.997-1.976.697.624 1.594.936 1.196.208 1.494.832.2-.208 1.894.105 4.085-.624 3.787.415-.897-.105.498 1.041 1.594 1.353 2.391 1.561 1.494.105 2.691 1.353 1.494 1.353 1.794 1.976.797.209 1.295.832 1.196.624 1.894.624 0-.624 1.097.208 1.894.936 2.391 2.602 1.494 1.561.697 3.226-2.391 2.394-1.694 2.29 1.994-.729 2.391-.624.597-.312 1.196 0 .697-.417.597.312-.1 0-.1.729-.2-.729.997-.417.498-.624 1.894.729 1.396.936 1.894 1.665.997-.415 1.296-.105 1.196.103 2.093.312.3-.624 1.694.312 2.791.624 3.089 1.456 1.097.52 1.494 1.041.597-.209.997.521 1.594.52 1.395 1.249.298.312.1 1.353-.897 2.706-1.494 3.121-.597.936-.997 1.456-.3-.52-.797.936-.398 1.665-.797 3.017-.1 0-.398 1.353-.1 2.185-.398 3.747l-.398 2.705c-.2 1.144.498-.52-.399 1.873l-1.295 3.331c-.3 1.041.1.208-.997.832s-.498.417-1.794.832l-3.388.936c-.498.103-2.491.729-1.894 1.976s.597 1.458 0 3.019-1.494 2.082-1.494 2.809-.399 1.456-.498 1.977.897-.521-.3 1.041-1.295 1.144-1.694 2.082 0 .208-.398.936-1.395 1.041-1.395 1.041.1.521-.3.312-.3.105-1.794-.312-1.694-1.456-1.894-.729.1 1.146.997 1.873 2.391.936 1.994 1.665l-.697 1.144c-.3.417.398.105-.3.417s-1.097 1.665-1.395 1.665-.499.52-.897.312-1.395-.936-1.594-.521-.597-.521-.499.936.3 2.29-.2 2.602-1.694 0-1.694 0l-.2-.521-.697.208s-.3 1.249.2 1.456.398.415.897 1.041.2 1.77.2 1.77 0 .312-.498.832-.697.936-.797 1.249-.697 1.665.2 1.561 1.594-.624 1.594 1.041.398 1.249-.1 2.394-.897 1.249-.997 2.29.1 1.144.3 1.77.697.312.2.624-1.992 0-1.992 0z"/><path d="M342.942 207.968l-.697-1.041s-.3-.624-.797-.729-1.594-1.456-1.594-1.456-.498-.417-.498-1.144-.399-1.873-.1-3.121.399-2.809.3-3.226.498-.52-.2-.936-2.093-.52-2.99-.52-1.994.312-2.193.417 1.097-3.121 1.295-3.641l1.097-3.121c0-.312.3-.417-.3-.832s-1.594-.624-2.193-.312-.498-.417-.997.832-.997 2.602-1.594 2.809-1.794.832-1.794.832l-1.994-.208c-.499-.105-2.591-1.249-2.989-1.977s-.597-2.29-.597-3.017 1.095-2.914.997-3.434 1.097-2.602.997-2.914.2-1.353.498-1.768 1.794-.936 2.193-1.353 1.097-.936 1.794-1.144 1.296-.417 1.794-.417 1.794-1.144 1.994 0 1.097.729 1.594.832.597.624 1.395-.729 1.594-1.77 1.594-1.458 1.295-.103 1.494.209.597-.209 1.295.417 1.694.729 1.594 1.041.398.312.398.624.399-.729.399 1.144.498 3.019.498 3.019.697 1.561.997 1.249.897-1.144.897-1.144.997-.624.3-2.809-.2-2.809-.398-3.538-.2-1.146.997-2.082l4.784-3.434c.697-.417 2.291-1.561 2.291-1.561s.597-.312.697-1.144 1.994-2.29 2.093-2.705 1.396-1.456 1.396-1.456 1.395-.834 1.295-1.353 1.794-1.456 2.093-1.456 1.894.52 1.894-.417 0-1.144.997-1.977 2.291-2.082 2.791-2.082 2.193-.936 2.891-1.144 2.891-1.249.897 0-.697.52-1.097 1.561-.697 2.394 1.196.832 1.794-1.873 2.491-1.977.2.312 1.694-.209 1.594-.729 1.594-.729.697-.624.3-.936.399-.729-1.097-.105-1.395.729-2.391.417-2.491-.209-1.395-1.249 2.491-1.353 1.594-1.768-3.188.105-3.488.208-.997-.105-1.594 0-.398-.832 0-1.041c1.053-.532 2.155-.95 3.288-1.249 1.594-.417 5.482-.52 6.379-.52s2.092.209 2.791-.312 2.093-1.352 2.291-1.77.997-1.041.997-1.041.897-.936.398-1.353-.997-1.353-1.395-1.144-.1 1.458-.897.105-.697-1.561-1.097-1.873-.797-.105-.498-1.561.2-2.082.2-2.082.3-1.249 0-1.352-.498-.417-.997-.105-3.288 1.77-3.886 2.082-1.396-1.249-1.097-1.977.1-.312-.3-1.353-1.994-1.249-2.591-1.249-1.994-.936-2.391-.312-2.491 2.602-2.891 2.809-.997-1.768-1.295 1.456 1.097 4.163-.498 4.37-2.99 1.144-2.99 1.144-1.295.105-1.295.936-.498 2.809-1.097 3.017-2.093-.103-2.591-.729.1-2.914.1-2.914l.897-.936s-6.379-1.041-6.279-1.456-1.894-1.144-2.092-1.768-.3-1.977-.1-2.497 2.891-3.017 4.285-3.538l4.485-1.873c.697-.209 1.894-.105 2.291-.624s.498-1.456.498-1.456-.2-1.458.2-1.249 1.097.521 1.196.832.1 1.041.797.208 1.594-1.144 2.391-1.561 1.994-.312 2.691-.729 1.894-.832 1.994-1.873-.3-.729-.797-.832.2.105-1.494.936-1.196.208-2.391.832-1.296.729-1.395.209.2-1.353.2-1.353.1-.105-.597-.312-.697.105-.797-.832.498-2.29-.498-1.873-1.894-.312-2.591 1.768-3.09 4.267-3.688 3.746-.697-.624-1.196-.624-1.196-.624-2.093-.729-3.588-.105-4.285 0-1.494-.417-2.093.209-1.494 1.456-1.494 1.77-.897-1.146-1.196-1.041-1.097-.417-1.994-.417-1.494-.521-1.794-.521.298-.832 0-.936-6.778-.312-6.778-.312-2.092-.832-2.889-.729l-4.684.52c-1.696.312-4.185 1.353-4.982 1.456s-2.591.105-2.891-.417.1-.417-.3-.52-.1-.312-.997-1.041.399-1.353-1.395-1.353-2.891-.105-4.485 0-4.883.936-5.282.832-3.588.521-4.085.209-2.99 1.144-3.488 1.041-2.391.105-2.891.417-2.891.936-2.093 1.456.697 1.041.797 1.353-.797 1.041-.797 1.041-.2 0-1.295-.417-2.291-.624-2.791-.312-1.395.936-1.196 1.353 1.594 1.353 1.794 1.041.697-.936 1.295-.832 1.494-.417.697.624-1.494 1.561-1.994 1.665-1.694.208-2.791.312-.997-.417-1.994.624-1.395.417-1.594 1.561-.398 1.144 0 1.456-.797.417.1.729 1.994.624 1.894.936.997-.415.398.417-.997 1.561.2.729 1.894-.209 2.891-.729 1.994-.624 2.591-1.041.897-1.041 1.794-1.353.3.105.398.624 0 .624.597.208.597-.103 1.395-.624 1.694-1.041 2.291-.729.797.312 1.196.312-.498-.105.398 0-.398-.312 2.591.417 3.787.208 3.986 1.353.597-.105 1.097.624.797.105 1.097 1.353 0 4.682-.2 5.099-.3.417-.2 1.353 1.295 5.411.897 5.723-1.295.417-1.295.417l-.498 1.873s-.797 1.561-1.494 2.394l-2.093 2.602c-.498.729-.897 1.977-1.594 2.706s-1.295.417-1.097 1.977 0 3.226.2 4.37.697 2.705 1.097 3.331.697.624 1.395 1.144 1.594 1.146 1.494 1.665.1 3.747.1 3.747.597 1.041.697 2.185.797 2.29.797 2.29l.597 1.353s.3.105.697.936.398.832.498 1.249.1.312.1.417-.1-1.77-.3-2.29-.2-1.144-.398-1.768.1-1.353-.498-2.29-.597-1.041-.897-1.977-.697-1.977-.3-2.185.697-1.561 1.494 0 .897 1.146.997 2.394.398 1.665.697 2.185.997 2.29 1.395 3.017 0-.417.897 1.041.997 1.768 1.494 2.914.797 1.144 1.097 1.977.1.624-.1 1.561.2 1.977.2 1.977 1.395.52 1.494.832 1.494.832 1.694 1.249 1.494.936 1.494.936l1.494.936c.398.208 1.596.417 1.596.417l1.095.312c.3.105 1.196.105 1.196.105s.797-.624 1.097-.417.997-.417 1.295.103.897.521 1.196.936.597.417 1.097.936.997.417 1.494.832.897.417 1.494.417.597 0 .997.105.597-.312.997.209.697.832.997 1.352.997.52 1.097 1.353.3.729.3 1.456.398 1.041.697 1.249 1.395 1.249 1.395 1.249l1.494.312 1.196.936 1.296.415zm31.941-96.671l5.979-.781s2.092 0 3.139-.781 0-.781 3.139-1.404 2.243-.936 3.887-.624l3.886.624c1.794.312 2.242-.155 3.886.312s2.391.312 3.738.312h4.185c2.093 0 4.035-1.249 4.784-.469s1.196.469 3.738.781 3.588-.312 4.635 0 2.841-.155 4.932 0 3.139-.155 3.886-.155 1.494-1.093 2.541-.157 2.391-.312 2.541.936 2.093.312.15 1.249-1.644.781-2.99 2.03.897 2.342-1.944 3.434-3.288-.624-4.035 1.249 0 2.342-.15 3.278-.449 1.092-1.346 1.873-.897 0-2.989.469l-4.485.936c-.897 0-2.841.781-3.438 1.092s1.047.781-2.093 1.718-3.887.781-4.784 2.03-.597 1.406-1.196 2.185-2.391 3.903-3.288 3.121-1.346-.624-2.093-1.406-1.196-1.873-1.644-2.497-.597-2.185-.747-3.121-1.494-3.121 0-2.809 2.391.157 2.841-.155.897-1.406.897-1.406-.15-1.718-.597-2.654-.15-1.718-.897-2.652-.747-.781-1.794-1.718-.747-1.406-2.391-1.561-2.093-.624-2.691-.469-2.541-1.093-.449-1.249a19.68 19.68 0 0 1 4.035.155s2.691-1.249 1.794-1.404 1.345-1.561-.747-1.093l-5.082 1.249c-.597.155-2.093.312-3.588.781s-3.288.312-4.185 1.406 0 1.249-.897 1.092.747-1.092-1.345 0-1.494.936-2.541.624-1.794-.781-1.794-.781 1.346-.157-.597-.312-1.944-.155-2.691-1.093-.3-.936.15-1.249.747-.936.747-.936zm-3.289 7.023c-.747.781-2.541 1.873-2.092 2.342s.747 2.185 1.644 1.718-.15-2.03 3.288-.781 3.139-.155 3.886 1.718 1.345 3.277.897 3.746-.597.936-2.093 1.406-2.093 1.093-1.047 1.873 2.99 1.561 3.886 2.03 3.588.624 2.242-.936.3-2.03.3-2.03 2.541 2.03 1.644-.312-1.494-2.342-.897-2.342 1.794.781 1.794.781l.597-1.249-.597-2.03-1.944-2.03s1.644-1.561-.597-1.873-2.093-.312-3.288-1.093-1.345-1.092-3.588-.624l-2.989.781-1.045-1.093zm-33.335 1.875c.897-.936 3.288-3.121 4.185-2.497s2.242-.469 3.288.469 2.242 2.03 3.139 2.342 1.944-.781 2.841-.312 4.035-2.342 3.438-.155.747 2.809-.897 2.966-3.438 1.406-4.185.936-1.346-.936-2.541-.312-.597.624-1.944.312-1.644.312-1.942-.157-1.196-.312-1.047-1.718.597-1.249-.3-1.249-1.644.157-2.242-.312-1.794-.312-1.794-.312z"/></g><path d="M248.286 76.421c-3.314.082-3.644.163-4.392.968-.937 1.034-1.041 1.871-.381 3.137.433.805 1.058 1.314 1.857 1.495.363.098 3.487.131 7.185.114l6.525-.049.105 117.882.104 117.882-14.837-.098-.643.459c-1.163.837-1.596 2.135-1.145 3.417.261.705.92 1.559 1.424 1.822.294.149 9.649.198 39.949.23l142.723.214c.174.017.208.393.121 2.02l-.295 7.16-.191 5.125.468.919.469.903-.712 1.363-.729 1.347.225 1.921.208 1.922-.59.576c-.312.312-.642.524-.711.475-.087-.048-.123.017-.07.132.105.246-1.526 1.822-1.961 1.888-.156.017-.781-.066-1.388-.212-1.995-.459-4.008.097-4.894 1.38-.642.936-.66 1.215-.018 1.724 1.371 1.083 8.087 2.759 13.033 3.235 2.082.214 5.797.312 5.952.163.051-.049.191-.756.294-1.56.4-2.973 1.527-7.095 2.395-8.771.381-.756.468-1.183.555-2.808.07-1.641.139-1.953.487-2.365.33-.393.381-.673.381-1.807 0-2.561.73-11.43 1.094-13.483l.207-1.149 9.459.049 9.563.032c.156 0 .243.821.763 6.322.52 5.683 1.024 9.132 1.406 9.69.207.295.243.592.174 1.1-.192 1.183-.121 2.102.243 2.842.191.393.348 1.002.348 1.363 0 .739.624 2.546 1.318 3.81.451.821.505 1.1.59 3.185.087 1.888.156 2.3.399 2.481.59.41 2.464.624 5.242.607 3.175 0 4.773-.229 8.763-1.2 3.68-.902 4.443-1.198 4.999-2.002l.451-.642-.331-.607c-.537-.92-1.595-1.33-3.956-1.527-3.106-.246-3.037-.197-4.461-2.546-.573-.952-.624-1.38-.277-2.595.348-1.249.192-1.807-.781-2.742-.468-.461-.85-.952-.85-1.134 0-.163.208-.805.451-1.412l.433-1.117-.277-3.613c-.153-2.323-.257-4.651-.312-6.98l-.036-3.366 35.057-.132 134.044.198h12.912c.589-.098 1.041-.28 1.388-.592.573-.525 1.162-1.527 1.162-1.988 0-.92-1.926-3.268-2.724-3.351-.174 0-3.194-.032-6.733-.032l-6.422-.017-.121-6.405-.312-29.561.174-200.28c.087-.148 1.822-.132 6.576 0 5.086.164 6.561.148 6.976 0 .573-.229 1.839-1.659 2.013-2.251.156-.624-.225-1.576-.971-2.365l-.676-.723-32.072-.114c-35.733-.132-371.493-.098-376.401.032l.005.012zm357.465 7.505l29.659.229c.192.115.208 21.201.174 114.48l-.225 114.511c-.105.098-15.498.197-41.772.263l-80.855.23c-21.605.049-39.274.049-39.274-.017 0-.395-.763-6.947-1.042-8.934-.295-2.12-.346-3.959-.451-16.424l-.104-14.042.468-1.807c.694-2.644.746-4.5.208-7.637l-.643-3.777c-.104-.674-.26-1.446-.347-1.691-.174-.559-.036-1.1.191-.739.121.164.156.164.156 0 0-.149.331-.198 1.215-.164.66.017 1.283-.032 1.37-.115.277-.278-.139-3.416-1.024-7.8-1.042-5.156-1.076-5.305-2.673-11.659l-1.596-6.865c-.382-2.054-.382-2.003 1.526-6.93l2.569-6.815c1.944-5.436 2.535-6.717 3.419-7.505.607-.542.798-.607 4.061-1.429 4.755-1.183 9.857-2.939 15.377-5.256 7.08-2.988 21.554-9.607 21.97-10.066s.364-.888-.226-1.873l-.504-.871.556-.312c.399-.23 1.006-.344 2.117-.41 1.493-.083 3.923-.756 5.45-1.495.26-.132 1.198-.444 2.099-.673 1.683-.444 2.707-.888 4.392-1.856 1.006-.576 1.145-.805.781-1.149-.382-.361-1.424-.215-2.673.361-.659.295-1.424.59-1.719.641-.417.083-.363.032.226-.214.85-.378 4.72-2.825 5.155-3.285.381-.395.191-.952-.347-1.084-.417-.098-1.215.215-2.082.837-1.145.805-4.65 2.217-4.929 1.971-.052-.066 1.319-.705 2.76-1.281.139-.065 1.232-.837 2.43-1.724 1.701-1.264 2.187-1.708 2.221-2.054.051-.344-.036-.475-.4-.607-.504-.18-.816-.066-1.823.641-1.595 1.117-5.813 3.269-6.038 3.054-.036-.032.294-.278.729-.525a15.5 15.5 0 0 0 1.631-1.051c.451-.329 1.493-1.019 2.326-1.544s1.562-1.1 1.631-1.28c.156-.444-.52-.986-1.042-.837-.208.049-1.58.771-3.055 1.61-3.539 2.002-3.922 2.185-4.998 2.38-1.77.345-1.805.23-.399-1.199 1.058-1.084 1.405-1.757 1.457-2.891.018-.509-.052-.739-.277-.887-.261-.149-.382-.115-.66.229-.815.954-2.361 2.578-2.83 2.956-1.961 1.61-3.488 3.4-3.818 4.468a4.68 4.68 0 0 1-.955 1.61l-.676.722-.538-1.017c-.295-.576-.607-1.003-.676-.969-2.47 1.38-4.995 2.651-7.567 3.81-5.918 2.693-6.735 3.005-12.947 4.844-2.933.854-11.593 2.956-12.252 2.956-.191 0-.937-.197-1.649-.443l-1.283-.461h-6.335-6.335l-1.076-.526c-.607-.296-2.22-1.33-3.61-2.3l-2.533-1.773.105-1.396c.069-.771.312-1.937.537-2.595.242-.712.45-1.436.625-2.168.121-.575.295-.985.417-.985.348 0 1.111-1.068 1.388-1.905.277-.903.331-3.071.052-3.532-.139-.263-.105-.493.19-1.051.312-.624.364-1.002.364-2.924-.018-2.71-.208-3.613-1.042-4.829-1.787-2.627-4.789-3.859-8.781-3.613-2.673.164-5.9 1.347-7.288 2.644-1.596 1.511-2.292 4.156-1.77 6.734.243 1.232.225 1.347-.087 2.02-.261.542-.348 1.1-.348 2.151 0 1.544.19 2.185.799 2.825.348.344.417.656.52 2.053.156 2.398.486 3.351 1.718 5.059.174.263.121.361-.399.771-.33.263-1.371.936-2.308 1.512l-5.467 3.415-.573.41h-6.387c-6.161-.002-6.42.015-6.786.327-.589.51-3.124.444-5.813-.148-7.237-1.576-14.197-3.713-19.437-5.93l-3.644-1.527c-.66-.263-2.499-1.068-4.079-1.756l-3.037-1.331c-.105-.049-.451.443-.763 1.068l-.59 1.134-.417-.461c-.225-.263-.555-.871-.729-1.363-.364-1.084-1.857-2.808-3.767-4.386-.468-.378-2.013-2.002-2.829-2.956-.781-.919-1.25.344-.694 1.922.105.329.66 1.068 1.214 1.627 1.406 1.429 1.371 1.544-.399 1.199-1.076-.197-1.458-.378-4.999-2.38-1.475-.837-2.845-1.561-3.054-1.61-.521-.149-1.199.395-1.042.837.069.18.798.756 1.631 1.28a53.96 53.96 0 0 1 2.325 1.544c.433.329 1.181.805 1.631 1.051.434.247.764.493.73.525-.225.214-4.443-1.938-6.039-3.054-1.006-.705-1.319-.821-1.823-.639-.364.131-.451.263-.399.607.035.344.52.788 2.221 2.054 1.198.887 2.291 1.658 2.43 1.724 1.439.575 2.811 1.215 2.76 1.281-.277.246-3.783-1.166-4.93-1.971-.867-.624-1.666-.937-2.082-.837-.538.132-.729.69-.347 1.083.433.461 4.304 2.907 5.154 3.285.59.247.643.296.226.215-.277-.049-1.058-.345-1.719-.642-1.249-.575-2.289-.722-2.673-.361-.364.345-.225.576.799 1.149 1.667.969 2.689 1.413 4.374 1.856.901.23 1.839.542 2.099.674.277.131 1.25.492 2.187.821 1.066.4 2.184.628 3.314.674.886.049 1.736.18 1.893.295.26.18.26.246 0 .887-.505 1.166-.434 1.281.972 1.888 1.562.691 2.863 1.298 6.82 3.169a110.84 110.84 0 0 0 4.86 2.234l2.932 1.264c11.957 5.239 17.389 7.144 23.706 8.376.989.18 1.979.41 2.187.492.451.181.885.937 1.493 2.627l1.249 3.366c3.47 9.083 5.293 14.337 5.293 15.259-.038.507-.13 1.009-.277 1.494l-4.494 16.752c-.694 2.873-1.301 6.422-1.301 7.636 0 .739.104.788 1.856.937.694.049 1.319.147 1.355.212s-.156 1.544-.451 3.301c-.73 4.5-1.058 7.292-.92 7.997.103.437.248.861.434 1.266.173.361.399 1.002.486 1.429.312 1.265.676 5.534.607 6.783l-.676 12.973c-.556 10.774-.659 12.203-1.232 16.178l-.694 4.746-.087.393-21.815-.114-80.386-.198-58.866-.163a.73.73 0 0 1-.417-.361c-.174-.361-.312-198.59-.156-215.434l.243-12.825c.277-.427 62.215-.641 206.47-.673l133.58.082.001.011zM451.128 275.074c.364.92 1.441 4.746 2.186 7.866.295 1.166 1.268 6.11 2.187 10.971l2.274 11.578c.33 1.51.712 3.778.85 5.042l.348 2.807c.087.476.052.525-.451.625-.712.131-10.309.131-13.675-.017l-2.637-.098.087-.427c.051-.23.173-1.395.277-2.561a98.83 98.83 0 0 1 2.082-13.713l1.214-5.995c.676-3.465 2.256-10.461 2.604-11.495.832-2.644 1.631-4.976 1.77-5.222.243-.461.537-.247.885.639h-.001zm-29.294 72.482c-.225.098-.261.149-.087.149.182-.01.359-.061.52-.149.313-.197.036-.197-.433 0zm1.258.103c.121.049.277.032.33-.017.069-.049-.036-.098-.226-.082-.191 0-.243.049-.104.098v.001zm187.434 1.671c.121.049.277.032.33-.017.069-.049-.035-.098-.225-.083-.192 0-.244.049-.105.098v.002z"/><path d="M614.684 349.434c.121.049.277.032.33-.017.069-.049-.036-.099-.226-.082-.191 0-.243.049-.104.098v.001zm-177.321 8.663c0 .098.069.212.173.263s.121-.017.07-.149c-.121-.295-.243-.344-.243-.114zm208.83-3.862l-1.742.308c-8.261.623-32.432 1.122-72.515 1.495l-142.58.454-125.243-.865c-31.27-.481-43.949-1.05-38.039-1.703 8.26-.623 32.432-1.122 72.514-1.497l142.58-.453 125.244.865 24.778.506 8.183.282c4.496.194 6.77.395 6.82.606"/></svg>