<svg xmlns="http://www.w3.org/2000/svg" viewBox="386.139 264.296 300.001 187" xmlns:v="https://vecta.io/nano"><style><![CDATA[.B{fill-opacity:.996}]]></style><defs><linearGradient id="A" x1=".457" x2=".5" y1=".117" y2="1.386" gradientTransform="matrix(0.998295, 0.086247, -0.035964, 0.761796, 0.004986, -0.011545)"><stop stop-color="#93c3ea" offset="0"/><stop offset="1" stop-opacity=".62" stop-color="#52d9e1"/></linearGradient></defs><path d="M-1501.089-836.57H-260.5v674.414h-1240.589V-836.57z" fill="url(#A)" transform="matrix(.241821 0 0 .277278 749.133911 496.258118)"/><path d="M537.329 280.725l-12.827.792c-16.777 1.675-32.253 5.819-46.428 12.433a131.91 131.91 0 0 0-20.287 11.774c-3.698 1.573-12.548 9.703-26.55 24.389-25.922 32.844-36.215 69.14-30.879 108.889l273.91-.002c5.368-39.749-4.915-76.045-30.848-108.888-27.084-31.753-62.448-48.215-106.091-49.387z" fill-opacity=".192" fill="#1895d4"/><path d="M456.388 347.768l-.009-.028-.899-3.592a7.86 7.86 0 0 0-.374-.973l-.971-2.049c-.272-.762-.454-1.378-.544-1.848-.195-1.02-.277-1.751-.246-2.195a5.72 5.72 0 0 1 .072-.841l.085-.394c.069-.254.161-.493.275-.715.233-.444.536-.824.91-1.138.258-.272.792-.564 1.601-.877.56-.182 1.185-.28 1.876-.294.781-.016 1.813.071 3.095.263.441-.018.763-.048.967-.091.54-.004.914-.442 1.124-1.312.525.666.833 1.187.925 1.563.218.584.167 1.642-.151 3.176l-2.695 6.253-5.041 5.092" class="B"/><path d="M456.065 349.134l.038-2.356-.158-.873c.642-.113 1.131-.328 1.447-.666.296-.316.494-.761.579-1.322.072-.477.063-.821.027-1.03l-.073-.403-.317-1.33a1.33 1.33 0 0 1 .089-.806c.315-.705.735-.954 1.17-.837.115.031.268.141.479.349.072.071.333.454.783 1.162.11.172.209.227.242.161.063-.126.073-.274.073-.427l.04-2.272.163-1.28c.143-.729.482-1.419 1.199-1.9 1.055-.708 1.956-.775 2.596-.368.675 1.283 1.034 2.142 1.131 2.566.108.47.056.95-.209 1.452 1.168 1.314 1.732 2.143 1.81 2.468.097.401-.207.648-1.027.776.22.576.302.944.287 1.112-.017.187-.147.347-.43.477.219.007.327.146.308.416-.017.239-.126.642-.309 1.213.143.618.2 1.079.129 1.373-.068.285-.186.452-.314.513-.178.171-.681.323-1.508.455l-1.472-.283-1.362 3.24-5.41-1.578-.001-.002z" fill="#ffba9b" class="B"/><g fill="#ffe500" class="B"><path d="M556.03 335.953h-.037 0 0 .037z"/><path d="M555.991 335.953h0 .001 0-.001z"/><path d="M556.023 327.941l-.032 8.012h.039-.039l.032-8.012z"/></g><g fill="#11445f"><path d="M468.112 426.231h79.493 79.493q0 6.804 0 13.607-79.493 0-158.986 0 0-6.804 0-13.608" class="B"/><path d="M568.057 369.869H580.3h12.243q0 32.36 0 64.72-12.243 0-24.486 0 0-32.36 0-64.721m-27.824 16.162h24.486v48.559h-24.486v-48.56m-27.823 12.979h12.243 12.243q0 17.791 0 35.581-12.243 0-24.486 0 0-17.791 0-35.582m83.47-48.11h12.243 12.243q0 41.846 0 83.692-12.243 0-24.486 0 0-41.846 0-83.693" class="B"/><path d="M511.725 388.243h0 0l-2.226-1.39 38.449-25.012a1.45 1.45 0 0 1 .992-.22h0l18.07 2.545-1.053.262 41.888-30.389a1.45 1.45 0 0 1 2.022.32c.47.646.327 1.549-.32 2.018h0l-41.888 30.389a1.45 1.45 0 0 1-1.053.262h0l-18.07-2.545.992-.22-38.449 25.012a1.45 1.45 0 0 1-1.557.014c-.478-.298-.739-.846-.669-1.404h0 0c.099-.792.822-1.354 1.616-1.255s1.356.821 1.257 1.613z"/><path d="M604.137 331.383h0l6.523 9.45q.735-3.991 1.471-7.981l-7.994-1.468" class="B"/></g><path d="M455.394 348.048l.316-1.165 6.156 3.289-.375 1.524c1.215 1.865 1.98 3.403 2.296 4.615.368 1.162.629 3.185.782 6.068l-9.174-14.331" fill="#fff" class="B"/><path d="M441.758 433.674l.143.308c.517 1.156.999 1.916 1.447 2.281.23.211.537.339.92.385l2.34-.035c.474.215.855.789 1.143 1.723-1.54.954-2.835 1.431-3.883 1.433-1.159.379-3.725-1.206-7.699-4.754l-.767 1.427-3.765-2.26 1.517-3.001-.394-.525 4.845-10.556 10.419-26.83c-2.065-.895-3.435-1.877-4.11-2.947l2.97-12.118.704-3.643s.312-2.535.354-3.84l.016-8.656c.076-1.217.263-2.367.563-3.451.663-2.178 1.502-4.011 2.517-5.499 1.232-1.918 2.615-3.537 4.147-4.857l.336-.763 2.323 1.389c2.448 2.474 3.954 4.387 4.52 5.737l3.031 7.906c.568 1.699.928 3.089 1.08 4.17.583 3.767.726 9.672.428 17.716l12.178 9.184-1.298 26.366-4.073.208 1.682 2.445 3.455 2.197a.69.69 0 0 1 .25.83c-.094.303-.352.742-.776 1.316l-3.147-.015c-2.043-.084-3.903-.74-5.579-1.968l-.677.993-4.287-1.216c-.075-2.426.585-4.391 1.981-5.895l2.073-10.588 1.323-10.489-9.933-4.331c-.359.362-1.491 3.208-3.397 8.536l-14.92 31.687" class="B"/><path d="M461.509 351.167l-.752 1.088.716.916.452 2.284c.125.469.362 1.092.711 1.87l1.816 2.565-.491-2.945c-.149-.789-.319-1.462-.509-2.018-.289-.806-.689-1.522-1.201-2.148l-.742-1.613" class="B"/><path d="M455.941 391.241l1.697 2.162-.727 1.529-.573-.446.34-1.005-.522-.173.183 2.684-1.339.272-.172-.781c.041.144-.113.205-.461.185-.63-.035-1.192-.117-1.686-.247a4.43 4.43 0 0 1-1.015-.377 1.96 1.96 0 0 1-.394-.273l-.151-.16a1.44 1.44 0 0 1-.214-.364c-.044-.056-.091-.267-.142-.633a7.35 7.35 0 0 1 .089-1.449l5.087-.922" fill="#feba9b"/><path d="M462.86 339.389l.045-.072c.192-.321.374-.548.545-.68.038-.028.078-.054.118-.077.02-.014.083-.043.19-.087s.268-.082.476-.122l-.649.428a12.34 12.34 0 0 0-.725.611m.961 1.002" class="B"/><path d="M463.448 339.709l.564-.826c.118.058.198.116.241.174s.1.163.16.327l-.965.324" fill="#fff" class="B"/><path d="M464.004 338.881l-.023.397.407.106c-.016-.096-.031-.167-.047-.214s-.027-.071-.033-.079c-.008-.016-.018-.031-.029-.045s-.022-.027-.035-.039c-.005-.006-.026-.022-.063-.047s-.096-.05-.176-.08m16.564 43.751" class="B"/><path d="M484.586 409.662h12.243 12.243v26.132h-24.486v-26.133" fill="#11445f" class="B"/><g fill="#0f3b52" class="B"><path d="M468.074 439.266H547.6h79.526q0 .531 0 1.063-79.526 0-159.051 0 0-.531 0-1.063m.022-12.978h159.051v1.063H468.097v-1.063"/><path d="M595.851 350.892h1.056 1.056q0 37.889 0 75.778-1.056 0-2.112 0 0-37.889 0-75.778m-28.052 18.981h1.056 1.056q0 28.508 0 57.015-1.056 0-2.112 0 0-28.508 0-57.015m-27.651 16.137h1.056 1.056q0 20.369 0 40.738-1.056 0-2.112 0 0-20.369 0-40.738m-36.242-76.535h0 0 0 0 0 0q0 0 0 0m7.976 89.499h1.056 1.056q0 13.767 0 27.534-1.056 0-2.112 0 0-13.767 0-27.534m-20.227-41.158h0 0 0 0 0 0q0 0 0 0m-7.084 51.821h1.056 1.056q0 8.887 0 17.774-1.056 0-2.112 0 0-8.887 0-17.774"/></g><path d="M590.567 317.739l-.051 14.143-11.479 15.527-15.681 5.636-4.304-3.33 27.313-35.205 4.202 3.229z" fill="#fbca47"/><path d="M589.798 317.124l.308.256c2.767 2.203 3.74 5.278 3.484 9.019 0 .256-.051.512-.051.768-1.076 10.505-11.069 23.214-20.908 26.545-4.15 1.383-7.942 1.229-11.427-2.511 12.504 2.049 27.057-14.297 28.235-27.159.257-2.921.205-5.689-1.127-8.046l1.486 1.128zm-4.663-3.895c5.381 4.151 3.587 15.527-4.048 25.366s-18.141 14.45-23.521 10.248c-5.381-4.15-3.587-15.526 4.048-25.365s18.14-14.4 23.521-10.249z" fill="#f4aa10"/><path d="M578.525 336.596c-3.075 3.946-6.713 7.072-10.249 8.865-3.639 1.794-6.764 1.948-8.814.359s-2.716-4.663-1.845-8.609c.82-3.843 2.921-8.148 5.996-12.093s6.713-7.072 10.248-8.866c3.639-1.793 6.765-1.947 8.814-.358s2.716 4.663 1.845 8.609c-.82 3.843-2.921 8.147-5.995 12.093zm-14.144-10.966c-2.972 3.843-5.022 7.994-5.842 11.735-.768 3.587-.204 6.303 1.538 7.686 1.742 1.333 4.509 1.179 7.789-.461 3.382-1.691 6.918-4.714 9.89-8.557s5.022-7.994 5.842-11.735c.768-3.587.205-6.303-1.538-7.687-1.742-1.332-4.509-1.178-7.789.461-3.382 1.691-6.918 4.715-9.89 8.558zm12.043-1.947c1.383.717 2.664 1.742 3.74 3.177l-2.818 3.638c-.513-.973-1.127-1.845-1.794-2.664-.666-.769-1.281-1.333-1.844-1.691-.462-.257-.872-.41-1.179-.41s-.564.153-.769.461c-.153.205-.205.41-.153.666s.153.564.358.974.513.973.974 1.691c.512.871.82 1.691 1.025 2.459.154.82.205 1.589 0 2.306-.154.718-.564 1.486-1.179 2.306-.922 1.23-1.998 1.794-3.126 1.794-1.076 0-2.152-.615-3.228-1.64l-1.64 2.152-1.178-1.742 1.537-1.999c-.666-.973-1.179-2.152-1.435-3.433l2.46-1.691c.358 1.332.922 2.408 1.64 3.126.358.359.666.564.922.615s.461-.051.666-.308c.154-.205.256-.461.256-.717s-.102-.564-.256-1.025l-.666-1.588c-.564-1.23-.82-2.204-.769-3.024.052-.769.359-1.588 1.025-2.408.718-.923 1.486-1.538 2.409-1.845.973-.359 1.998-.359 3.228 0l1.896-2.409 1.947.718-2.049 2.511z" fill="#fff"/><path d="M589.798 317.124l.308.256c2.767 2.203 3.74 5.278 3.484 9.019 0 .256-.051.512-.051.768l-4.1-3.177c.564-5.842-1.127-8.045-1.127-8.045l1.486 1.179z" fill="#e7930f"/><path d="M478.595 328.891l1.742 14.092 13.221 13.99 16.244 3.792 3.843-3.843-31.259-31.72-3.791 3.689z" fill="#fbca47"/><path d="M479.313 328.225l-.256.256c-2.46 2.511-3.075 5.688-2.408 9.378l.154.769c2.357 10.249 13.785 21.727 23.931 23.828 4.253.871 8.045.256 11.017-3.895-12.196 3.536-28.594-10.966-31.259-23.572-.615-2.87-.871-5.637.154-8.097-.564.564-.871.82-1.332 1.332l-.001.001zm4.099-4.407c-4.868 4.766-1.691 15.834 7.02 24.699s19.729 12.145 24.597 7.379 1.691-15.834-7.02-24.699-19.729-12.196-24.597-7.379z" fill="#f4aa10"/><path d="M485.359 334.886c-1.281-3.843-1.025-6.969.82-8.763s4.971-2.05 8.763-.717c3.741 1.332 7.687 3.997 11.222 7.584 3.536 3.536 6.149 7.584 7.43 11.325 1.281 3.843 1.025 6.969-.82 8.763s-4.971 2.05-8.763.717c-3.741-1.332-7.687-3.997-11.222-7.584s-6.149-7.584-7.43-11.325zm9.326-8.609c-3.485-1.23-6.252-1.076-7.789.512-1.589 1.537-1.794 4.304-.615 7.789 1.23 3.587 3.792 7.482 7.174 10.966 3.433 3.433 7.277 6.047 10.864 7.328 3.485 1.23 6.252 1.076 7.789-.512 1.589-1.537 1.794-4.304.615-7.789-1.23-3.587-3.792-7.482-7.174-10.966-3.433-3.433-7.277-6.047-10.864-7.328zm-1.383 6.867c-1.281.871-2.408 2.05-3.331 3.587l3.228 3.28c.41-1.025.871-1.999 1.486-2.87.564-.871 1.076-1.486 1.64-1.896.41-.307.82-.512 1.127-.564s.564.102.82.359a.85.85 0 0 1 .256.615c0 .256-.102.564-.256 1.025s-.41 1.025-.717 1.794c-.41.922-.615 1.742-.717 2.562s0 1.589.256 2.306.769 1.435 1.435 2.152c1.076 1.076 2.203 1.537 3.28 1.435 1.076-.154 2.05-.82 2.972-1.999l1.896 1.947.974-1.845-1.794-1.794c.564-1.076.871-2.255 1.025-3.587l-2.613-1.384c-.205 1.384-.615 2.46-1.281 3.331-.307.41-.615.666-.82.717-.256.051-.461 0-.717-.256-.205-.205-.307-.41-.307-.666s0-.615.102-1.025l.461-1.64c.41-1.281.512-2.306.41-3.075-.154-.769-.564-1.537-1.281-2.255-.82-.82-1.691-1.332-2.613-1.537-.974-.205-2.05-.102-3.228.41l-2.152-2.203-1.794.769 2.255 2.306-.002.001z" fill="#fff"/><path d="M479.313 328.225l-.256.256c-2.46 2.511-3.075 5.688-2.408 9.378l.154.769 3.69-3.638c-1.281-5.739.154-8.097.154-8.097l-1.332 1.332h-.002z" fill="#e7930f"/></svg>