<svg xmlns="http://www.w3.org/2000/svg" viewBox="171.854 100.143 227.209 137.484" xmlns:v="https://vecta.io/nano"><style><![CDATA[.B{fill:#f90}.C{fill:#ffde38}.D{opacity:.3}.E{fill:#fff}.F{fill:#50298a}.G{fill:#ffb700}.H{fill:#ffc400}.I{fill:#693ab0}.J{fill:#ac44ee}.K{fill:#f1f1f1}.L{fill:#1f0159}.M{fill:#e5e3e8}]]></style><g transform="matrix(.303499 0 0 .303499 263.424377 88.105255)"><g class="D"><path d="M313.2 219l69.6-40.6-21-12.2-44.9-23.9-18.3-10.5-19.7-11.4-22.7-13.1-34.9 20.3-30.4 17.7-9.1 5.2 12.4 7.2 43.4 25 62.8 36.3z" fill="#11091c"/></g><path d="M249.7 103.6l-74.4 40.7v2.5l125 72.2v-87.2z" class="L"/><path d="M300.3 131.8V219l74.4-43.2v-2.5z" fill="#592b9e"/><path d="M374.7 173.3l-74.4 43.2-69.2-40-43.4-25-12.4-7.2 9-5.2 30.5-17.7 34.9-20.3 22.7 13 19.7 11.4 18.2 10.6 43.5 25z" class="I"/><g class="E"><use href="#G"/><use href="#G" x="6.6" y="3.8"/><use href="#H"/><use href="#I"/><path d="M241.2 147.2c1.3-.7 2.7-.7 3.9 0l1.7 1c1.4.8 1 1.6 0 2.2l-4 2.3c-1.3.7-2.6.7-3.7 0l-1.7-1c-1.2-.7-1.3-1.5 0-2.2l3.8-2.3zM239 151l1 .6c.5.3.9.3 1.5 0l3.5-2c.5-.3.5-.6 0-.8l-1.1-.6c-.6-.4-1.2-.2-1.5 0l-3.5 2c-.6.3-.3.6.1.8z"/><use href="#G" x="35.5" y="20.5"/><use href="#G" x="42.1" y="24.3"/><use href="#H" x="35.5" y="20.5"/><use href="#I" x="38.1" y="22"/><path d="M276.7 167.7c1.3-.7 2.7-.7 3.9 0l1.7 1c1.4.8 1 1.6 0 2.2l-4 2.3c-1.3.7-2.6.7-3.7 0l-1.7-1c-1.2-.7-1.3-1.5 0-2.2l3.8-2.3zm-2.2 3.8l1 .6c.5.3.9.3 1.5 0l3.5-2c.5-.3.5-.6 0-.8l-1.1-.6c-.6-.4-1.2-.2-1.5 0l-3.5 2c-.6.3-.3.6.1.8z"/><use href="#G" x="71" y="41"/><use href="#G" x="77.6" y="44.8"/><use href="#H" x="73.6" y="42.5"/><use href="#I" x="73.6" y="42.5"/><path d="M312.2 188.2c1.3-.7 2.7-.7 3.9 0l1.7 1c1.4.8 1 1.6 0 2.2l-4 2.3c-1.3.7-2.6.7-3.7 0l-1.7-1c-1.2-.7-1.3-1.5 0-2.2l3.8-2.3zM310 192l1 .6c.5.3.9.3 1.5 0l3.5-2c.5-.3.5-.6 0-.8l-1.1-.6c-.6-.4-1.2-.2-1.5 0l-3.5 2c-.6.3-.3.6.1.8z"/><use href="#G" x="106.5" y="61.5"/></g><path d="M225.9 122.6l5.4-3.1c2-1.2 5.3-1.2 7.3 0l6 3.5c2 1.2 2 3.1 0 4.2l-5.4 3.1c-2 1.2-5.3 1.2-7.3 0l-6-3.5c-2-1.1-2-3 0-4.2z" class="J"/><path d="M231.5 123.8c.5.1 1.1 0 1.6-.2.4-.2.6-.6.4-.9a.78.78 0 0 0-.4-.4c-.6-.4-1.7-.4-2.3 0s-.6 1 0 1.3c.1.1.4.2.7.2zm11.5-.7h-1.1c0 1.4-1 2.9-2.8 4-1.9 1.1-4.4 1.6-6.9 1.6v.7c2.8 0 5.5-.6 7.7-1.8 2-1.3 3.1-2.9 3.1-4.5zm-3.4 0h-1.1c0 .9-.6 1.9-1.8 2.6s-2.8 1.1-4.4 1.1v.7c1.9 0 3.8-.4 5.2-1.3s2.1-2 2.1-3.1zm-3.4 0h-1.1c0 .4-.3.8-.8 1.2-.6.3-1.3.5-2 .5v.7c1 0 2-.2 2.8-.7.7-.5 1.1-1.1 1.1-1.7zm25.2 17.3l-2 1.1c-2 1.2-5.3 1.2-7.4 0l-8.8-5.1c-2-1.2-2-3.1 0-4.3l5.4-3.1c2-1.2 5.3-1.2 7.4 0l8.8 5.1c2 1.2 2 3.1 0 4.3l-2 1.1-1.4.9z" class="E"/><path d="M259.8 131.3l-2.9.2-4 2.3-6.2-3.6 1-.5 5.2 3 3.4-1.9 2.4-.2zm-12.7 7.4l-1.2-.7.3-1.4 3.4-1.9-5.3-3.1 1-.5 6.2 3.6-4 2.3zm14.3 1.7l-.9.5-5.3-3-3.4 1.9-2.3.2-1.2-.6 2.9-.3 4-2.3zm2.4-1.4l-.9.6-6.3-3.6 4-2.3.5-1.7 1.1.7-.3 1.3-3.4 2z" class="F"/><g class="E"><path d="M241.4 113.6l34.4 19.9 8.8-5.1-34.3-19.9z"/><use href="#J"/></g><use href="#J" x="10" y="5.8" class="I"/><g class="E"><use href="#K"/><use href="#L"/><path d="M333.9 156.6c1.2.7 1.6 1.1.2 1.9-.7.4-1.5.4-2.2-.1l-1.3-.8c-.8.4-.5.6.1 1s.9.5 1.6.8l-.7.4c-.8-.2-1.7-.7-2.4-1.1-1.1-.6-.8-1.2.8-2 1.8-1 2.6-.9 3.9-.1zm-1.4 1.2c.2.1.5.1.7 0 .5-.3.6-.4 0-.7s-.8-.4-1.7.1l1 .6zm5.1.9c.4.2.8.6 1 .9l2.2-1.3 1.1.6-6.2 3.6-.9-.5.2-.4c-.5 0-1.2-.2-1.7-.5-1-.6-.5-1.3.8-2s2.4-1.1 3.5-.4zm-3.1 2.1c.4.2.8.4 1.2.4l2.1-1.2c-.2-.2-.4-.4-.8-.7-.3-.2-.7-.2-1.8.4-.9.6-1 .9-.7 1.1zm6.1-.3l1.1.6-4.2 2.4-1.1-.6 4.2-2.4zm1.3-.8c.1-.1.3-.1.4 0l.8.5c.1.1.1.2 0 .2l-.7.4c-.1.1-.2.1-.4 0l-.8-.5c-.1-.1-.1-.1 0-.2l.7-.4zm0 1.8l.9.3 1.4-.6.9.5-1.2.7.9.5-.8.5-.9-.5-1.7 1c-.6.4-.6.5-.5.7 0 0 .3.4.4.4l-.7.4-1-.6c-.6-.4-.6-.8.5-1.5l1.9-1.1-.7-.4.6-.3z"/><use href="#K" x="22.8" y="13.2"/><path d="M349 168.5c.6-.4 1.5-.5 2.4 0l1.2.7s.3-.1.3-.2c.4-.3.3-.4 0-.6l-1.8-1 .7-.4c.8.2 1.4.5 2.2.9.9.5 1.2 1 .2 1.7l-2.9 1.7-.9-.5.2-.4c-.1 0-1.2-.1-1.8-.4-.8-.5-.6-1-.1-1.3l.3-.2zm.8 1.2c.5.3 1.3.4 1.3.4l.8-.4-1.1-.5c-.3-.2-.6-.1-.8.1l-.2.1c-.3.1-.2.2 0 .3z"/><use href="#L" x="26.9" y="15.5"/><path d="M360.4 171.9c.4.2.8.6 1 .9l2.2-1.3 1.1.6-6.2 3.6-.9-.5.2-.4c-.5 0-1.2-.2-1.7-.5-1-.6-.5-1.3.8-2s2.3-1.1 3.5-.4zm-3.1 2.1c.4.2.8.4 1.2.4l2.1-1.2a6.53 6.53 0 0 0-.8-.7c-.3-.2-.7-.2-1.8.4-.9.6-1 .9-.7 1.1zm-165.6-34.6l1.1.6-4.4 2.5c-.4.2-.2.4.1.5l2 1.1-1 .6-2.4-1.4c-.6-.4-1-.8-.1-1.3l4.7-2.6zm4.4 4.4c1.4.8 1.4 1.4-.3 2.4-1.6.9-2.5.9-4 .1-1.4-.8-1.3-1.4.2-2.3 1.8-1.1 2.7-1.1 4.1-.2zm-3.4 1.9c.6.4.9.4 2-.2 1.2-.7 1.2-.8.5-1.2s-.9-.4-2.1.3c-1.1.6-.9.8-.4 1.1z"/><use href="#L" x="-130.3" y="-8.5"/><path d="M203.6 148.1c1.2.7 1.6 1.1.2 1.9-.7.4-1.5.4-2.2-.1l-1.3-.8c-.8.4-.5.6.1 1s.9.5 1.6.8l-.7.4c-.8-.2-1.7-.7-2.4-1.1-1.1-.6-.8-1.2.8-2 1.7-1 2.5-.9 3.9-.1zm-1.5 1.2c.2.1.5.1.7 0 .5-.3.6-.4 0-.7s-.8-.4-1.7.1l1 .6z"/><use href="#M"/><path d="M216.4 153.7l1.1.6-5.8 3.3-1.1-.6 5.8-3.3zm.2 1.9l.9.5-.2.4c.5 0 1.2.2 1.7.5 1 .6.5 1.3-.8 2-1.2.7-2.4 1.1-3.5.5-.4-.2-.8-.6-1-.9l-2.3 1.4-1.1-.6 6.3-3.8zm-1.3 3.2c.3.2.7.2 1.8-.4.9-.5 1-.8.7-1-.4-.2-.8-.4-1.2-.4l-2.1 1.2a2.76 2.76 0 0 0 .8.6zm4.5-.1c.6-.4 1.4-.5 2.2 0s1.9 1.1 2 1.4l-.7.4-1.9-1.1c-.3-.2-.4-.1-.6 0l-.2.1c-.3.2-.1.2 0 .3l1 .6c.8.5.6.9 0 1.3l-.4.2c-.9.5-1.6.3-2.1 0-.8-.5-2-1.2-2.1-1.5l.7-.4 2 1.1c.1 0 .3.2.5 0l.2-.1c.2-.1.2-.2 0-.3l-1-.6c-.7-.4-.9-.9 0-1.3l.4-.1zm5.1 1.7l1.1.6-2.8 1.6c-.4.2-.4.4-.1.6.4.3.8.3 1.4.4l3-1.7 1.1.6-4.2 2.4-.9-.5.2-.4c-.7-.1-1.2-.1-1.8-.5-1-.6-.6-1.1.2-1.6l2.8-1.5z"/><use href="#M" x="23.4" y="13.6"/></g><g class="J"><path d="M292.1 125.5l-107.8 13.6 30.5-17.7 57.6-7.3zm61.7 35.6l-122.7 15.4-43.4-25 122.6-15.4z" class="D"/></g><g class="D"><path d="M239.3 192.3l-33.7-14.8-34.2-19.9-22.2 12.8-19.3 11.2-17.8 10.3-42.5 24.5-20.5 11.8 65.2 41.4h9.2l66.1-38.2 42.5-24.5 16.1-9.4z" fill="#140b23"/></g><path d="M166.2 151l76.5 41.8v2.6l-128.5 74.2v-89.7z" class="L"/><path d="M114.2 179.9v89.7l-76.5-44.5v-2.5z" class="I"/><path d="M37.7 222.6l76.5 44.4 71.1-41.1 44.7-25.7 12.7-7.4-9.3-5.4-31.3-18.2-35.9-20.8-23.3 13.4-20.3 11.7-18.7 10.9-44.6 25.7z" class="F"/><g class="E"><use href="#N"/><use href="#O"/><use href="#P"/><use href="#Q"/><use href="#P" x="16.1" y="-9.3"/><path d="M125.3 223.1c-1.3-.7-1.2-1.6 0-2.3l1.8-1c1.4-.8 2.8-.6 3.8 0l4 2.3c1.3.7 1.2 1.5 0 2.2l-1.8 1c-1.2.7-2.6.8-3.9 0l-3.9-2.2zm6.8 1.2l1-.6c.5-.3.6-.6 0-.9l-3.6-2.1a1.36 1.36 0 0 0-1.5 0l-1.1.6c-.6.4-.3.7 0 .9l3.6 2.1c.6.4 1.2.3 1.6 0z"/><use href="#O" x="36.3" y="-20.9"/><path d="M138.7 215.3c-1.3-.7-1.2-1.6 0-2.3l1.8-1c1.4-.8 2.8-.6 3.8 0l4 2.3c1.3.7 1.2 1.5 0 2.2l-1.8 1c-1.2.7-2.6.8-3.9 0l-3.9-2.2zm6.8 1.3l1-.6c.5-.3.6-.6 0-.9L143 213a1.36 1.36 0 0 0-1.5 0l-1.1.6c-.6.4-.3.7 0 .9l3.6 2.1c.6.4 1.2.2 1.5 0zm2.6-6.7c-1.3-.7-1.2-1.6 0-2.3l1.8-1c1.4-.8 2.8-.6 3.8 0l4 2.3c1.3.7 1.2 1.5 0 2.2l-1.8 1c-1.2.7-2.6.8-3.9 0l-3.9-2.2zm6.8 1.3l1-.6c.5-.3.6-.6 0-.9l-3.6-2.1a1.36 1.36 0 0 0-1.5 0l-1.1.6c-.6.4-.3.7 0 .9l3.6 2.1c.7.3 1.3.2 1.6 0z"/><use href="#N" x="65.9" y="-38"/><use href="#O" x="65.9" y="-38"/><use href="#O" x="72.6" y="-41.9"/><use href="#O" x="82" y="-47.3"/><use href="#Q" x="75.3" y="-43.5"/><use href="#N" x="102.2" y="-59"/><use href="#O" x="102.2" y="-59"/></g><path d="M74.9 235.9l-5.5-3.2c-2.1-1.2-2.1-3.1 0-4.3l6.1-3.5c2.1-1.2 5.4-1.2 7.5 0l5.5 3.2c2.1 1.2 2.1 3.1 0 4.3l-6.1 3.5c-2 1.2-5.4 1.2-7.5 0z" class="J"/><path d="M77.1 232.7c.1-.3 0-.7-.4-.9-.4-.3-1-.3-1.6-.2-.3 0-.5.1-.7.2-.6.4-.6 1 0 1.4s1.7.4 2.3 0c.2-.2.3-.4.4-.5zm-1.3-6.8v.7c2.5 0 5.1.6 7 1.7s2.9 2.6 2.9 4h1.2c0-1.6-1.1-3.3-3.2-4.5s-5.1-1.9-7.9-1.9zm0 2v.7c1.6 0 3.3.4 4.5 1.1 1.3.7 1.9 1.7 1.9 2.6h1.2c0-1.1-.7-2.2-2.2-3.1s-3.4-1.3-5.4-1.3zm0 2v.7a4.99 4.99 0 0 1 2.1.5c.6.3.9.8.9 1.2H80c0-.6-.4-1.2-1.2-1.7s-1.9-.7-3-.7zm30.7-14.9l2 1.2c2.1 1.2 2.1 3.2 0 4.3l-9 5.2c-2.1 1.2-5.5 1.2-7.5 0l-5.5-3.2c-2.1-1.2-2.1-3.2 0-4.3l9-5.2c2.1-1.2 5.5-1.2 7.5 0l2 1.2 1.5.8z" class="E"/><path d="M90.3 215.9l.5 1.7 4.1 2.4-6.4 3.7-1-.6 5.4-3.1-3.4-2-.4-1.4zm13.1 7.6l-1.2.7-2.4-.2-3.5-2-5.4 3.1-.9-.6 6.3-3.6 4.1 2.3zm3.1-8.5l.9.5-5.4 3.2 3.5 2 .3 1.3-1.2.7-.4-1.7-4.1-2.3zm-2.5-1.4l1 .5-6.4 3.7-4.1-2.4-2.9-.2 1.2-.7 2.4.2 3.4 2z" class="F"/><g class="E"><path d="M59.1 226.8l35.1-20.3-9-5.2L50 221.6z"/><use href="#R"/></g><use href="#R" x="10.2" y="-5.9" class="I"/><g class="E"><path d="M125.9 175.6c.8-.5 1.5-.8 2.3-1l.9.5s-1.1.5-1.9 1-.9.8.8 1.8c1.3.8 2.2 1 3.1.5l1.7-1.1.9.5c-.4.4-1 .8-1.8 1.3-1.5.8-3.1.5-5-.6s-2.6-1.9-1-2.9z"/><use href="#S"/><path d="M135.2 172.2c1.2-.7 1.9-1 3.4-.1.8.4.7.9-.1 1.3l-1.4.8c.8.4 1.1.3 1.7 0 .7-.4 1-.6 1.5-1l.8.4c-.4.5-1.3 1-2 1.4-1.1.6-2 .4-3.6-.5-1.9-1-1.7-1.5-.3-2.3zm2.2.9c.2-.1.2-.3 0-.4-.5-.3-.7-.3-1.3 0s-.8.5.2 1l1.1-.6zm1.5-3.1c.4-.2 1-.5 1.6-.6l-2.3-1.3 1.1-.6 6.4 3.7-.9.5-.6-.1c0 .3-.3.7-.8 1-1 .6-2.2.3-3.6-.5s-2.1-1.4-.9-2.1zm3.7 1.9a1.54 1.54 0 0 0 .7-.7l-2.1-1.2c-.4.1-.8.3-1.2.5s-.4.4.7 1.1c1.1.4 1.6.5 1.9.3zm-1.9-4.4c-.1-.1-.1-.2 0-.2l.8-.5c.1-.1.3-.1.4 0l.7.4c.1.1.1.1 0 .2l-.8.5c-.1.1-.3.1-.4 0l-.7-.4zm1.4.8l1.1-.6 4.3 2.5-1.1.6-4.3-2.5zm1.8-.8l.5-.5-1-.8.9-.5 1.2.7 1-.6.9.5-1 .6 1.7 1c.6.4.9.4 1.2.3l.7-.2.7.4-1 .6c-.6.4-1.4.4-2.6-.3l-1.9-1.1-.7.4-.6-.5zm5.4-5.3c.8-.5 1.5-.8 2.3-1l.9.5s-1.1.5-1.9 1-.9.8.8 1.8c1.3.8 2.2 1 3.1.5l1.7-1.1.9.5c-.4.4-1 .8-1.8 1.3-1.5.8-3.1.5-5-.6s-2.6-2-1-2.9zm7 1.1c-.6-.4-.8-.9.1-1.4l1.3-.7-.3-.2c-.5-.3-.7-.2-1.1 0s-1.4.9-1.7 1.1l-.7-.4c.3-.5.9-.8 1.7-1.3.9-.5 1.9-.7 2.9-.1l3 1.7-.9.5-.7-.1c0 .1-.1.7-.8 1.1-.8.5-1.8.4-2.4 0l-.4-.2zm2.1-.5c.5-.3.6-.8.6-.8l-.8-.5-1 .6c-.3.2-.1.3.1.5l.2.1c.5.3.7.2.9.1z"/><use href="#S" x="27.5" y="-15.9"/><path d="M162.2 156.6c.4-.2 1-.5 1.6-.6l-2.3-1.3 1.1-.6 6.4 3.7-.9.5-.6-.1c0 .3-.3.7-.8 1-1 .6-2.2.3-3.6-.5s-2.1-1.4-.9-2.1zm3.7 1.8a1.54 1.54 0 0 0 .7-.7l-2.1-1.2c-.4.1-.8.3-1.2.5s-.4.4.7 1.1c1.1.5 1.6.5 1.9.3zm-61.1 97.8l1.1-.6 4.5 2.6c.4.2.7.1.9 0l2-1.2 1 .6-2.4 1.4c-.6.4-1.5.6-2.4 0l-4.7-2.8zm7.6-2.6c1.5-.8 2.5-.8 4.2.2 1.6.9 1.7 1.5.2 2.4s-2.5.8-4.1-.1c-1.7-1.1-1.7-1.7-.3-2.5zm3.5 2c.6-.4.7-.5-.4-1.2-1.2-.7-1.5-.7-2.2-.3s-.7.6.5 1.2c1.2.7 1.5.6 2.1.3z"/><use href="#S" x="-15.1" y="77"/><path d="M120 249.2c1.2-.7 1.9-1 3.4-.1.8.4.7.9-.1 1.3l-1.4.8c.8.4 1.1.3 1.7 0l1.5-1 .8.4c-.4.5-1.3 1-2 1.4-1.1.6-2 .4-3.6-.5-1.8-1-1.6-1.5-.3-2.3zm2.2.9c.2-.1.2-.3 0-.4-.5-.3-.7-.3-1.3 0s-.8.5.2 1l1.1-.6z"/><use href="#T"/><path d="M130 241.6l1.1-.6 5.9 3.4-1.1.6-5.9-3.4zm3.5-.1l.9-.5.6.1c0-.3.3-.7.8-1 1-.6 2.3-.3 3.6.5 1.2.7 2 1.4.8 2.1-.4.2-1 .5-1.6.6l2.4 1.4-1.1.6-6.4-3.8zm5.6.8c.4-.2.4-.4-.7-1.1-1-.6-1.5-.6-1.8-.4a1.54 1.54 0 0 0-.7.7l2.1 1.2c.3-.1.7-.2 1.1-.4zm-.2-2.7c-.7-.4-.9-.8-.1-1.3s2-1.1 2.5-1.2l.7.4-1.9 1.1c-.3.2-.2.2 0 .4l.2.1c.3.2.4.1.6 0l1-.6c.8-.5 1.6-.4 2.2 0l.4.3c.9.5.6 1 .1 1.3-.8.5-2.1 1.2-2.6 1.2l-.7-.4 2-1.2c.1 0 .3-.2 0-.3l-.2-.1c-.2-.1-.3-.1-.6 0l-1 .6c-.8.4-1.5.5-2.4 0l-.2-.3zm3.1-3l1.1-.6 2.9 1.7c.4.2.8.2 1.1.1.5-.3.6-.5.7-.8l-3.1-1.8 1.1-.6 4.3 2.5-.9.5-.7-.1c-.2.4-.2.7-.8 1.1-1 .6-2 .3-2.8-.1l-2.9-1.9z"/><use href="#T" x="23.9" y="-13.8"/></g><g class="J"><path d="M122.6 173.5l110.8 13.9-31.3-18.2-59.2-7.4zm-63.3 36.6l126 15.8 44.7-25.7-126.1-15.8z" class="D"/></g><path d="M387.1 232.3c-12.4 7.2-12.4 18.8 0 26s32.6 7.2 45 0 12.4-18.8 0-26c-12.5-7.2-32.6-7.2-45 0z" fill="#0e0819" class="D"/><path d="M398.5 246.8c13.2 7.6 13.2 19.9 0 27.5s-34.5 7.6-47.6 0c-13.2-7.6-13.2-19.9 0-27.5 13.1-7.6 34.5-7.6 47.6 0z" fill="#11091c" class="D"/><use href="#U" class="G"/><use href="#V" class="C"/><use href="#W" class="B"/><use href="#X" class="H"/><use href="#Y" class="C"/><use href="#U" x="1.922" y="-13.913" class="G"/><use href="#V" x="1.822" y="-13.913" class="C"/><use href="#Z" class="B"/><use href="#a" class="H"/><use href="#b" class="C"/><use href="#U" x="38.881" y="-17.264" class="G"/><use href="#V" x="38.881" y="-17.264" class="C"/><use href="#W" x="38.881" y="-17.264" class="B"/><use href="#X" x="38.881" y="-17.264" class="H"/><use href="#Y" x="38.881" y="-17.264" class="C"/><use href="#U" x="40.803" y="-31.177" class="G"/><use href="#V" x="40.703" y="-31.177" class="C"/><use href="#Z" x="38.881" y="-17.264" class="B"/><use href="#a" x="38.881" y="-17.264" class="H"/><use href="#b" x="38.881" y="-17.264" class="C"/><g transform="translate(38.478 -16.956)"><use href="#U" x="2.287" y="-24.161" class="G"/><use href="#V" x="2.287" y="-24.161" class="C"/><path d="M403.1 229.2c-.6 3.5-3.2 6.9-7.8 9.6-10.5 6.1-27.5 6.1-37.9 0-4.6-2.6-7.1-6-7.7-9.5-.7-4.5 1.9-9.1 7.8-12.5 10.5-6.1 27.5-6.1 37.9 0 5.8 3.4 8.4 8 7.7 12.4z" class="B"/><path d="M403.1 229.2c-.6 3.5-3.2 6.9-7.8 9.6-10.5 6.1-27.5 6.1-37.9 0-4.6-2.6-7.1-6-7.7-9.5.6-3.5 3.2-6.9 7.8-9.6 10.5-6.1 27.5-6.1 37.9 0 4.5 2.7 7.1 6.1 7.7 9.5z" class="H"/><g class="B"><path d="M393.3 220.1v2.1l-3.6 2.1v-2.2zm.4 5.7v2.2l-5.2 1.8v-2.2z"/><use href="#c"/></g><clipPath id="A"><use href="#c"/></clipPath><g clip-path="url(#A)" class="B"><path d="M388.5 227.6v2.2c-.4-.6-1-1.3-1.8-2s-1.7-1.4-2.8-2-2.1-1-2.9-1.1a3.79 3.79 0 0 0-2.2.4c-.4.2-.6.4-.7.7-.1.1-.1.2-.1.4V224c0-.1 0-.3.1-.4.1-.2.4-.5.7-.7a3.79 3.79 0 0 1 2.2-.4c.9.1 1.8.4 2.9 1.1 1.1.6 2 1.3 2.8 2 .7.7 1.3 1.4 1.8 2h0z"/></g><use href="#d" class="B"/><clipPath id="B"><use href="#d"/></clipPath><g clip-path="url(#B)" class="B"><path d="M374.9 231v2.2c0-.2 0-.4-.1-.6-.1-.4-.4-.8-.7-1.3l-1.3-1.7c-.5-.6-.9-1.2-1.3-1.8s-.6-1.2-.8-1.8v-.5-2.2.5c.1.6.4 1.2.8 1.8l1.3 1.8 1.3 1.7c.4.5.6.9.7 1.3.1.2.1.4.1.6h0z"/></g><use href="#e" class="B"/><clipPath id="C"><use href="#e"/></clipPath><g clip-path="url(#C)" class="B"><path d="M362.6 232.9v2.2c-1.5-1.1-2.7-2-3.3-2.8-.7-.8-1.1-1.5-1.4-1.9v-2.2c.3.4.7 1.1 1.4 1.9s1.8 1.7 3.3 2.8h0z"/></g><use href="#f" class="B"/><clipPath id="D"><use href="#f"/></clipPath><g clip-path="url(#D)" class="B"><path d="M382.1 231.7v2.2c0 .6-.2 1.1-.5 1.7-.4.6-1.1 1.3-2.1 1.8-.7.4-1.5.7-2.4 1s-1.9.4-2.9.5c-1.1.1-2.2 0-3.4-.2s-2.4-.6-3.7-1.1v-2.2c1.3.5 2.6.9 3.7 1.1 1.2.2 2.3.3 3.4.2s2-.2 2.9-.5 1.7-.6 2.4-1c1-.6 1.7-1.2 2.1-1.8.3-.6.5-1.2.5-1.7h0z"/></g><path d="M367.1 235.3v2.2l-4.2 2.4v-2.1z" class="B"/><path d="M393.3 220.1l-3.6 2.1c1.1.8 1.9 1.5 2.6 2.1.6.6 1.1 1.2 1.4 1.6l-5.2 1.8c-.4-.6-1-1.3-1.8-2s-1.7-1.4-2.8-2-2.1-1-2.9-1.1a3.79 3.79 0 0 0-2.2.4c-.4.2-.6.4-.7.7-.1.2-.1.5 0 .8s.3.7.6 1l1.1 1.4 1.6 2.3c.4.8.7 1.5.8 2.2s-.1 1.4-.5 2-1.1 1.3-2.1 1.8c-.7.4-1.5.7-2.4 1s-1.9.4-2.9.5c-1.1.1-2.2 0-3.4-.2s-2.4-.6-3.7-1.1l-4.2 2.4-4.4-2.5 4.1-2.4c-1.5-1.1-2.7-2-3.3-2.8-.7-.8-1.1-1.5-1.4-1.9l5.4-1.4c.4.7 1 1.5 1.8 2.3s1.8 1.6 3.1 2.3c1.4.8 2.6 1.3 3.5 1.3.9.1 1.7-.1 2.4-.5.4-.3.7-.5.8-.8s.1-.6-.1-1c-.1-.4-.4-.8-.7-1.3l-1.3-1.7c-.5-.6-.9-1.2-1.3-1.8s-.6-1.2-.8-1.8c-.1-.6 0-1.2.4-1.8.3-.6 1-1.2 2-1.8l2.5-1.1c.9-.3 1.9-.5 2.9-.5 1-.1 2.1 0 3.3.2 1.1.2 2.3.5 3.5 1l3.7-2.2 4.2 2.5z" class="C"/><path d="M362.9 237.8v2.1l-4.4-2.5v-2.2z" class="B"/><path d="M408.3 234.4c-1 3.9-4.2 7.5-9.1 10.4-12.7 7.3-33.2 7.3-45.8 0-4.8-2.8-7.9-6.3-8.9-10.1v1.6.3c1.4 3.3 4.4 6.3 8.6 8.8 6.4 3.7 14.8 5.6 23.2 5.6s16.8-1.9 23.3-5.6c4.4-2.5 7.4-5.6 8.8-9v-.2l-.1-1.8zm-55.2 8.3c6.4 3.7 14.8 5.6 23.2 5.6s16.8-1.9 23.3-5.6c4.4-2.5 7.4-5.6 8.8-9v-1.9c-1 3.9-4.2 7.5-9.1 10.3-12.7 7.3-33.2 7.3-45.8 0-4.8-2.8-7.9-6.3-8.9-10.1v1.8c1.3 3.4 4.2 6.4 8.5 8.9zm46.1 4.8c-12.7 7.3-33.2 7.3-45.8 0-4.7-2.7-7.7-6.1-8.8-9.8.2 1.4.6 2.8 1.4 4.1 1.6 2.3 4 4.4 7.1 6.2 6.4 3.7 14.8 5.6 23.2 5.6s16.8-1.9 23.3-5.6c3.3-1.9 5.9-4.2 7.5-6.6.7-1.3 1.1-2.7 1.2-4-1.1 3.7-4.2 7.3-9.1 10.1z" class="C"/></g></g><g transform="matrix(.438973 0 0 .413329 144.155014 64.018066)"><path d="M338 415.2l109.2-63c2.3-1.3 2.3-4.7 0-6L330.9 279l-28.6 140.8h18.3c6.1 0 12.1-1.6 17.4-4.6z" fill="#1d0e35" class="D"/><path d="M413.1 345.5v14.1l-96.4 56 .1-14.1zm7.6-10.5v14.1c0 3.8-2.5 7.6-7.5 10.6v-14.1c4.9-3 7.4-6.8 7.5-10.6z" class="M"/><g fill="#d4ced8"><path d="M280.1 401.5l-.1 14.1L70.7 294.8l.1-14.1z"/><path d="M63.1 284.1V270c0 3.9 2.5 7.8 7.7 10.7v14.1c-5.2-3-7.7-6.9-7.7-10.7z"/></g><path d="M316.8 401.5v14.1c-10.1 5.9-26.5 5.9-36.7 0v-14.1c10.1 5.9 26.6 5.9 36.7 0z" fill="#e0dde1"/><path d="M413 324.3c10.2 5.9 10.2 15.4.1 21.3l-96.3 56c-10.1 5.9-26.5 5.9-36.7 0L70.8 280.7c-10.2-5.9-10.2-15.4-.1-21.3l96.3-56c10.1-5.9 26.5-5.9 36.7 0L413 324.3z" class="M"/><path d="M413 324.3l-18.4-10.6-133.4 77 18.8 10.9c10.2 5.9 26.6 5.9 36.7 0l96.3-56c10.2-5.9 10.2-15.5 0-21.3zM203.7 203.4c-10.2-5.9-26.6-5.9-36.7 0l-96.3 56c-10.1 5.9-10 15.4.1 21.3l6.4 3.7 133.4-77-6.9-4z" class="K"/><linearGradient id="E" gradientUnits="userSpaceOnUse" x1="107.511" y1="231.091" x2="380.103" y2="375.301"><stop offset=".076" stop-color="#ac44ee"/><stop offset=".078" stop-color="#ac44ee"/><stop offset=".258" stop-color="#8937cb"/><stop offset=".44" stop-color="#6e2caf"/><stop offset=".624" stop-color="#5b259c"/><stop offset=".809" stop-color="#502090"/><stop offset="1" stop-color="#4c1f8c"/></linearGradient><path d="M394.6 313.6l-133.4 77-142-82-18.4-10.6-9.2-5.3-14.4-8.3 33.7-19.5 26.1-15 73.6-42.5 14.4 8.3z" fill="url(#E)"/><path d="M225 215.7l-133.4 77-14.4-8.3 33.7-19.5 26.1-15 73.6-42.5z" class="L"/><g class="K"><path d="M121.9 268.1l-1.7.3c-.1-.1-.2-.2-.4-.2-.2-.1-.3-.2-.5-.3l.5-1c.1-.1-.1-.3-.3-.3l-2.3-.4c-.2 0-.5 0-.5.2l-.5 1c-.4 0-.7.1-1.1.2l-1.3-.8c-.2-.1-.5-.1-.6 0l-1.7 1c-.2.1-.2.3 0 .4l1.3.8c-.2.2-.3.4-.3.6l-1.8.3c-.2 0-.4.2-.3.3l.6 1.3c.1.1.3.2.5.2l1.7-.3c.1.1.3.2.4.3s.3.1.4.2l-.5 1c-.1.1.1.3.3.3l2.3.4c.2 0 .5 0 .5-.2l.4-1c.4 0 .9-.1 1.3-.2l1.2.7c.2.1.5.1.6 0l1.7-1c.2-.1.2-.3 0-.4l-1.2-.7a1.08 1.08 0 0 0 .3-.7l1.7-.3c.2 0 .4-.2.3-.3l-.6-1.3c.1 0-.2-.1-.4-.1zm-3.7 2.7c-.8.5-2.1.5-2.9 0s-.8-1.2 0-1.7 2.1-.5 2.9 0 .8 1.2 0 1.7zm34.6-27.8c-3.3 1.9-4.4 4.6-3.3 7.1l1.3-.2c-1-2.2 0-4.6 2.9-6.3 3-1.7 7.2-2.3 11-1.7l.3-.7c-4.1-.7-8.8-.1-12.2 1.8zm2.9 1.6c-2.3 1.3-3 3.2-2.2 4.8l1.3-.2c-.7-1.4 0-3 1.9-4.1s4.6-1.5 7.1-1.1l.3-.7c-2.9-.4-6.2 0-8.4 1.3zm2.8 1.7c-1.2.7-1.6 1.7-1.2 2.6l1.3-.2c-.3-.6 0-1.4.9-1.9s2.1-.7 3.2-.5l.3-.7c-1.5-.3-3.3 0-4.5.7zm4.8 2.7c-.7.4-1.8.4-2.5 0-.2-.1-.4-.3-.4-.4-.2-.3 0-.7.4-1 .5-.3 1.1-.3 1.7-.3.3 0 .6.1.8.3.6.4.6 1 0 1.4zm-76.5 34.9c-.1.3-.4.6-.8.9l-.8-.4c.9-.5.7-1 .3-1.5l.6-.4 8.3 4.8-.9.5-6.7-3.9z"/><use href="#g"/><path d="M95.7 280.1l1.1.7-.9.5-1.1-.7.9-.5zm4.5 2.6l1.1.7-.9.5-1.1-.7.9-.5z"/><use href="#g" x="7.8" y="-3.8"/><path d="M102.4 276.2c-1.3-.7-1.5-1.6-.2-2.3s2.7-.6 4 .1l4.3 2.5c1.3.7 1.5 1.6.2 2.3s-2.7.6-4-.1l-4.3-2.5zm5.3 1.9c.7.4 1.5.5 2.2.1s.5-.8-.2-1.3l-4.4-2.5c-.8-.4-1.5-.5-2.2-.1s-.5.8.2 1.3l4.4 2.5zm82-47.7l1.7 1-.9.5-1.7-1-2.7 1.5-.8-.5-3.2-4.8 1-.6 5.8 3.3.7-.4.8.5-.7.5zm-3.5 1l1.8-1.1-4-2.3 2.2 3.4zm1.9-6.8l-2.8 1.6-.8-.5 3.7-2.2.8.5 5.3 5.5-.9.5-5.3-5.4zm4.6-2.1l2.6 1.5c.8.5 1 1 .2 1.5s-1.7.4-2.5-.1l-2.6-1.5c-.8-.5-1-1-.2-1.5.8-.4 1.7-.3 2.5.1zm-1.8 1l2.7 1.6c.4.3.9.3 1.3.1s.3-.5-.2-.8l-2.7-1.6c-.4-.3-.9-.3-1.3-.1-.4.3-.3.6.2.8zm3.2-3.3l5 6.7-.6.3-5-6.7.6-.3zm5.7 1.7l2.6 1.5c.8.5 1 1 .2 1.5s-1.7.4-2.5-.1l-2.6-1.5c-.8-.5-.9-1-.1-1.4.8-.5 1.7-.4 2.4 0zM198 223l2.7 1.5c.4.3.9.3 1.3.1s.3-.5-.2-.8l-2.7-1.5c-.4-.3-.9-.3-1.3-.1-.3.2-.2.5.2.8zm12.4.2l-11.2-6.5 6.4-3.7 11.2 6.5-6.4 3.7zm-9.5-6.5l9.5 5.5 4.6-2.7-9.5-5.5-4.6 2.7z"/><path d="M215.9 219.5l-5.5 3.2-4.6-2.7 5.5-3.1zm-11.6-5.2l-2.8 1.7-1.8-1 2.9-1.7zm-27 27.2l-3 1.6-5.6-3.2 3-1.7zm4.2-2.5l-2.9 1.7-7.7-4.4 2.9-1.7zm4.2-2.4l-2.9 1.7-11.4-6.6 2.9-1.7z"/></g><path d="M150.7 229.9l-23.8 13.7c-1.7 1-4.3 1-6 0h0c-1.7-1-1.7-2.5 0-3.5l23.8-13.7c1.7-1 4.3-1 6 0h0c1.7 1 1.7 2.6 0 3.5zm11.8-10.2c-2.3-1.4-6.1-1.4-8.5 0-2.3 1.4-2.3 3.5 0 4.9s6.1 1.4 8.5 0c2.3-1.4 2.3-3.6 0-4.9zm-46.3 26.7c-1.2-.7-3.2-.7-4.4 0s-1.2 1.8 0 2.5 3.2.7 4.4 0 1.2-1.8 0-2.5zm-7.5 4.3c-1.2-.7-3.2-.7-4.4 0s-1.2 1.8 0 2.5 3.2.7 4.4 0c1.2-.6 1.2-1.8 0-2.5z" fill="#3d2f43"/><path d="M337.7 377.1c-1 0-1.9-.2-2.7-.7l-12.5-7.2c-.9-.5-1.4-1.2-1.4-2s.5-1.5 1.4-2l28.4-16.4c1.5-.9 3.9-.9 5.4 0l12.5 7.2c.9.5 1.4 1.2 1.4 2s-.5 1.5-1.4 2h0l-28.4 16.4c-.8.5-1.8.7-2.7.7zm15.9-27.3c-.7 0-1.3.1-1.8.4l-28.4 16.4c-.4.2-.5.4-.5.5s.1.3.5.5l12.5 7.2c1 .6 2.7.6 3.6 0l28.4-16.4c.4-.2.5-.4.5-.5s-.1-.3-.5-.5l-12.5-7.2c-.5-.2-1.2-.4-1.8-.4zm18.6 22.4l-6.6 3.8 8 3.8v-8.5z" class="M"/><path d="M361.2 378.5v8.5l12.4-7.2-8-3.8z" class="K"/><path d="M372.2 372.2v6.9l-11 6.4v-7z" fill="#10191b"/><path d="M164.2 234.2l-26 85.4 31.2 18 39.1-129zm-45 74.4l17.8-58.7-26.1 15-10.1 33.1z" fill="#242a31"/><g class="D F"><path d="M344.7 338.2l-35.2-20.3-31.1 13.9h8.9l4.3 31.5h10.1z"/></g><g class="D F"><path d="M303.4 314.4l-35.1-20.3-31.2 13.9h9l4.2 31.5h10.1z"/></g><g class="D F"><path d="M262 290.6l-35.1-20.3-31.2 13.9h9l4.2 31.5h10.2z"/></g><g class="D F"><path d="M221 266.8l-35.2-20.3-31.1 13.9h9l4.2 31.5H178z"/></g><path d="M200.7 106.1l-.5 167-32.3 18.8.4-167z" class="F"/><path d="M168.3 124.9l-.4 167-32.6-18.8.5-167z" class="I"/><path d="M200.7 106.1l-32.4 18.8-32.5-18.8 32.3-18.7z" fill="#7350ba"/><path d="M241.9 209.7l-.5 87.2-32.3 18.8.4-87.2z" fill="#8125bb"/><path d="M209.5 228.5l-.4 87.2-32.6-18.8.5-87.2z" class="J"/><path d="M241.9 209.7l-32.4 18.8-32.5-18.8 32.3-18.8z" fill="#c574f7"/><path d="M283.1 190.9l-.5 129.8-32.3 18.8.4-129.8z" class="G"/><path d="M250.7 209.7l-.4 129.8-32.6-18.8.5-129.8z" class="H"/><path d="M283.1 190.9l-32.4 18.8-32.5-18.8 32.3-18.7z" class="C"/><path d="M324.3 291.8l-.5 52.7-32.3 18.8.4-52.7z" fill="#d4ced8"/><path d="M291.9 310.6l-.4 52.7-32.6-18.8.5-52.7z" fill="#e0dde1"/><path d="M324.3 291.8l-32.4 18.8-32.5-18.8 32.3-18.8z" class="K"/></g><defs ><path id="G" d="M212.2 130.5c1.3-.7 2.7-.7 3.9 0l1.7 1c1.4.8 1 1.6 0 2.2l-4 2.3c-1.3.7-2.6.7-3.7 0l-1.7-1c-1.2-.7-1.3-1.5 0-2.2l3.8-2.3zm-2.1 3.8l1 .6c.5.3.9.3 1.5 0l3.5-2c.5-.3.5-.6 0-.8l-1.1-.6c-.6-.4-1.2-.2-1.5 0l-3.5 2c-.6.3-.3.6.1.8z"/><path id="H" d="M225.4 138.1c1.3-.7 2.7-.7 3.9 0l1.7 1c1.4.8 1 1.6 0 2.2l-4 2.3c-1.3.7-2.6.7-3.7 0l-1.7-1c-1.2-.7-1.3-1.5 0-2.2l3.8-2.3zm-2.2 3.8l1 .6c.5.3.9.3 1.5 0l3.5-2c.5-.3.5-.6 0-.8l-1.1-.6c-.6-.4-1.2-.2-1.5 0l-3.5 2c-.5.3-.2.6.1.8z"/><path id="I" d="M232 141.9c1.3-.7 2.7-.7 3.9 0l1.7 1c1.4.8 1 1.6 0 2.2l-4 2.3c-1.3.7-2.6.7-3.7 0l-1.7-1c-1.2-.7-1.3-1.5 0-2.2l3.8-2.3zm-2.2 3.8l1 .6c.5.3.9.3 1.5 0l3.5-2c.5-.3.5-.6 0-.8l-1.1-.6c-.6-.4-1.2-.2-1.5 0l-3.5 2c-.6.3-.2.6.1.8z"/><path id="J" d="M295.2 200.5c-3.7 2.2-9.8 2.2-13.5 0-3.7-2.1-3.7-5.6.1-7.8 3.7-2.2 9.8-2.2 13.5 0s3.7 5.7-.1 7.8z"/><path id="K" d="M328.1 151.4c.8.5 1.3.8 1.7 1.3l-.9.5-1.6-1.1c-.8-.5-1.3-.5-3.1.5-1.3.8-1.7 1.2-.8 1.8.8.5 1.8 1 1.8 1l-.9.5c-.7-.2-1.4-.5-2.2-1-1.4-.8-.8-1.8 1-2.8 2-1.2 3.5-1.6 5-.7z"/><path id="L" d="M329 153.8l.9.5-.4.4c.6 0 1.3.1 1.8.4a1.38 1.38 0 0 1 .4.3l-1.1.6c-.1-.1-.3-.2-.6-.4-.5-.3-.9-.4-1.5-.3l-2.7 1.5-1.1-.6 4.3-2.4z"/><path id="M" d="M205.9 149.4l.9.5-.2.4c.6.1 1.2.1 1.8.5.5.3.7.6.5.9.6.1 1.4.2 2 .6.9.5.6 1.1-.2 1.6l-2.8 1.6-1.1-.6 2.8-1.6c.4-.2.4-.4.1-.6-.4-.2-.8-.4-1.4-.4l-.2.1-2.8 1.6-1.1-.6 2.8-1.6c.4-.2.4-.4.1-.6-.4-.2-.8-.3-1.3-.4l-3 1.7-1.1-.6 4.2-2.5z"/><path id="N" d="M88.9 244c-1.3-.7-1.2-1.6 0-2.3l1.8-1c1.4-.8 2.8-.6 3.8 0l4 2.3c1.3.7 1.2 1.5 0 2.2l-1.8 1c-1.2.7-2.6.8-3.9 0l-3.9-2.2zm6.9 1.3l1-.6c.5-.3.6-.6 0-.9l-3.6-2.1a1.36 1.36 0 0 0-1.5 0l-1.1.6c-.6.4-.3.7 0 .9l3.6 2.1c.6.4 1.2.2 1.6 0z"/><path id="O" d="M95.7 240.1c-1.3-.7-1.2-1.6 0-2.3l1.8-1c1.4-.8 2.8-.6 3.8 0l4 2.3c1.3.7 1.2 1.5 0 2.2l-1.8 1c-1.2.7-2.6.8-3.9 0l-3.9-2.2zm6.8 1.3l1-.6c.5-.3.6-.6 0-.9l-3.6-2.1a1.36 1.36 0 0 0-1.5 0l-1.1.6c-.6.4-.3.7 0 .9l3.6 2.1c.7.4 1.2.2 1.6 0z"/><path id="P" d="M102.4 236.3c-1.3-.7-1.2-1.6 0-2.3l1.8-1c1.4-.8 2.8-.6 3.8 0l4 2.3c1.3.7 1.2 1.5 0 2.2l-1.8 1c-1.2.7-2.6.8-3.9 0l-3.9-2.2zm6.8 1.2l1-.6c.5-.3.6-.6 0-.9l-3.6-2.1a1.36 1.36 0 0 0-1.5 0l-1.1.6c-.6.4-.3.7 0 .9l3.6 2.1c.7.4 1.3.2 1.6 0z"/><path id="Q" d="M109.1 232.4c-1.3-.7-1.2-1.6 0-2.3l1.8-1c1.4-.8 2.8-.6 3.8 0l4 2.3c1.3.7 1.2 1.5 0 2.2l-1.8 1c-1.2.7-2.6.8-3.9 0l-3.9-2.2zm6.8 1.3l1-.6c.5-.3.6-.6 0-.9l-3.6-2.1a1.36 1.36 0 0 0-1.5 0l-1.1.6c-.6.4-.3.7 0 .9l3.6 2.1c.7.4 1.3.2 1.6 0z"/><path id="R" d="M213 195c3.8 2.2 3.9 5.8.1 8s-10 2.2-13.8 0-3.9-5.8-.1-8 10-2.2 13.8 0z"/><path id="S" d="M130.2 175.1l.9-.5.7.2c0-.3.1-.7.6-1 .2-.1.4-.2.5-.2l1.1.6c-.1.1-.4.2-.6.3-.5.3-.7.5-.6.9l2.7 1.6-1.1.6-4.2-2.5z"/><path id="T" d="M122.5 247.8l.9-.5.7.1c.1-.4.2-.7.8-1.1.5-.3 1.1-.4 1.7-.3.1-.4.3-.8 1-1.2.9-.5 1.9-.4 2.8.1l2.9 1.6-1.1.6-2.9-1.7c-.4-.2-.8-.2-1.1-.1-.4.2-.7.5-.7.8 0 0 .2.1.3.1l2.9 1.6-1.1.6-2.9-1.7c-.4-.2-.8-.2-1.1-.1-.4.3-.6.5-.6.8l3.1 1.8-1.1.6-4.5-2z"/><path id="U" d="M406.013 260.261v.2c0 .3 0 .6-.1 1-.1 1.4-.6 2.7-1.2 4-1.5 2.9-4.2 5.6-8.1 7.9-12.5 7.2-32.7 7.2-45.2 0-3.7-2.2-6.3-4.7-7.8-7.5-.7-1.3-1.2-2.7-1.4-4.1-.1-.4-.1-.7-.1-1.1v-.3-1.6-.8-1.8-4.1c0 4.7 3.1 9.4 9.3 13 12.4 7.2 32.6 7.2 45.2 0 6.3-3.6 9.4-8.4 9.4-13.1v4.1 1.9.7 1.6z"/><path id="V" d="M351.613 238.861c-12.5 7.2-12.6 18.9-.1 26.2 12.4 7.2 32.6 7.2 45.2 0 12.5-7.2 12.6-18.9.1-26.2-12.5-7.2-32.7-7.2-45.2 0z"/><path id="W" d="M400.813 253.461c-.6 3.5-3.2 6.9-7.8 9.6-10.5 6.1-27.5 6.1-37.9 0-4.6-2.6-7.1-6-7.7-9.5-.7-4.5 1.9-9.1 7.8-12.5 10.5-6.1 27.5-6.1 37.9 0 5.9 3.3 8.4 7.9 7.7 12.4z"/><path id="X" d="M400.813 253.461c-.6 3.5-3.2 6.9-7.8 9.6-10.5 6.1-27.5 6.1-37.9 0-4.6-2.6-7.1-6-7.7-9.5.6-3.5 3.2-6.9 7.8-9.6 10.5-6.1 27.5-6.1 37.9 0 4.6 2.6 7.1 6 7.7 9.5z"/><path id="Y" d="M406.013 258.561c-1 3.9-4.2 7.5-9.1 10.4-12.7 7.3-33.2 7.3-45.8 0-4.8-2.8-7.9-6.3-8.9-10.1v1.6.3c1.4 3.3 4.4 6.3 8.6 8.8 6.4 3.7 14.8 5.6 23.2 5.6s16.8-1.9 23.3-5.6c4.4-2.5 7.4-5.6 8.8-9v-.3l-.1-1.7zm-55.2 8.3c6.4 3.7 14.8 5.6 23.2 5.6s16.8-1.9 23.3-5.6c4.4-2.5 7.4-5.6 8.8-9v-1.9c-1 3.9-4.2 7.5-9.1 10.3-12.7 7.3-33.2 7.3-45.8 0-4.8-2.8-7.9-6.3-8.9-10.1v1.8c1.3 3.4 4.2 6.4 8.5 8.9zm46.1 4.8c-12.7 7.3-33.2 7.3-45.8 0-4.7-2.7-7.7-6.1-8.8-9.8.2 1.4.6 2.8 1.4 4.1 1.6 2.3 4 4.4 7.1 6.2 6.4 3.7 14.8 5.6 23.2 5.6s16.8-1.9 23.3-5.6c3.3-1.9 5.9-4.2 7.5-6.6.7-1.3 1.1-2.7 1.2-4-1.1 3.7-4.2 7.3-9.1 10.1z"/><path id="Z" d="M402.635 239.448c-.6 3.5-3.2 6.9-7.8 9.6-10.5 6.1-27.5 6.1-37.9 0-4.6-2.6-7.1-6-7.7-9.5-.7-4.5 1.9-9.1 7.8-12.5 10.5-6.1 27.5-6.1 37.9 0 5.9 3.4 8.4 8 7.7 12.4z"/><path id="a" d="M402.635 239.448c-.6 3.5-3.2 6.9-7.8 9.6-10.5 6.1-27.5 6.1-37.9 0-4.6-2.6-7.1-6-7.7-9.5.6-3.5 3.2-6.9 7.8-9.6 10.5-6.1 27.5-6.1 37.9 0 4.6 2.7 7.1 6 7.7 9.5z"/><path id="b" d="M407.935 244.648c-1 3.9-4.2 7.5-9.1 10.4-12.7 7.3-33.2 7.3-45.8 0-4.8-2.8-7.9-6.3-8.9-10.1v1.6.3c1.4 3.3 4.4 6.3 8.6 8.8 6.4 3.7 14.8 5.6 23.2 5.6s16.8-1.9 23.3-5.6c4.4-2.5 7.4-5.6 8.8-9v-.3l-.1-1.7zm-55.3 8.2c6.4 3.7 14.8 5.6 23.2 5.6s16.8-1.9 23.3-5.6c4.4-2.5 7.4-5.6 8.8-9v-1.9c-1 3.9-4.2 7.5-9.1 10.3-12.7 7.3-33.2 7.3-45.8 0-4.8-2.8-7.9-6.3-8.9-10.1v1.8c1.3 3.4 4.3 6.5 8.5 8.9zm46.1 4.8c-12.7 7.3-33.2 7.3-45.8 0-4.7-2.7-7.7-6.1-8.8-9.8.2 1.4.6 2.8 1.4 4.1 1.6 2.3 4 4.4 7.1 6.2 6.4 3.7 14.8 5.6 23.2 5.6s16.8-1.9 23.3-5.6c3.3-1.9 5.9-4.2 7.5-6.6.7-1.3 1.1-2.7 1.2-4-1.1 3.8-4.2 7.3-9.1 10.1z"/><path id="c" d="M377.9 226.1v-2.2c0-.1 0-.3.1-.4.1-.2.4-.5.7-.7a3.79 3.79 0 0 1 2.2-.4c.9.1 1.8.4 2.9 1.1 1.1.6 2 1.3 2.8 2s1.4 1.4 1.8 2v2.2c-.4-.6-1-1.3-1.8-2s-1.7-1.4-2.8-2-2.1-1-2.9-1.1a3.79 3.79 0 0 0-2.2.4c-.4.2-.6.4-.7.7-.1.2-.1.3-.1.4z"/><path id="d" d="M374.9 231v2.2c0-.2 0-.4-.1-.6-.1-.4-.4-.8-.7-1.3l-1.3-1.7c-.5-.6-.9-1.2-1.3-1.8s-.6-1.2-.8-1.8v-.5-2.2.5c.1.6.4 1.2.8 1.8l1.3 1.8 1.3 1.7c.4.5.6.9.7 1.3.1.2.1.4.1.6z"/><path id="e" d="M362.6 232.9v2.2c-1.5-1.1-2.7-2-3.3-2.8-.7-.8-1.1-1.5-1.4-1.9v-2.2c.3.4.7 1.1 1.4 1.9s1.8 1.7 3.3 2.8z"/><path id="f" d="M382.1 231.7v2.2c0 .6-.2 1.1-.5 1.7-.4.6-1.1 1.3-2.1 1.8-.7.4-1.5.7-2.4 1s-1.9.4-2.9.5c-1.1.1-2.2 0-3.4-.2s-2.4-.6-3.7-1.1v-2.2c1.3.5 2.6.9 3.7 1.1 1.2.2 2.3.3 3.4.2s2-.2 2.9-.5 1.7-.6 2.4-1c1-.6 1.7-1.2 2.1-1.8.3-.6.5-1.2.5-1.7z"/><path id="g" d="M89.5 282.9c-1.3-.7-1.5-1.6-.2-2.3s2.7-.6 4 .1l4.3 2.5c1.3.7 1.5 1.6.2 2.3s-2.7.6-4-.1l-4.3-2.5zm5.2 2c.7.4 1.5.5 2.2.1s.5-.8-.2-1.3l-4.4-2.5c-.8-.4-1.5-.5-2.2-.1s-.5.8.2 1.3l4.4 2.5z"/></defs></svg>