<svg xmlns="http://www.w3.org/2000/svg" viewBox="0 0 600 394" opacity=".7" xmlns:v="https://vecta.io/nano"><style><![CDATA[.O{stroke-miterlimit:10}.P{fill:#5cb5ec}.Q{fill:#0c2e54}.R{fill:#d5e8f8}.S{fill:#005fa7}.T{fill:#fff}.U{fill:none}.V{stroke:#5cb5ec}.W{stroke-width:1.205}.X{stroke-width:1.004}.Y{stroke:#0c2e54}.Z{stroke:#005fa7}.a{stroke-width:.712}.b{stroke-width:.733}]]></style><clipPath id="A"><path d="M0 0h1565.3v1009.6H0z"/></clipPath><g transform="matrix(.85905 .004531 0 .916649 -220.343826 -60.480534)" clip-path="url(#A)"><path transform="matrix(.999985 -.005436 0 1.000015 -192.970184 -254.72879)" d="M453.612 321.651h693.159v429.421H453.612z" fill="#07082c"/><path transform="matrix(.9998 -.020803 .020803 .9998 -5.8671 10.927)" d="M393.4 96.5h257.7v381.9H393.4z" class="S"/><use href="#F" class="Q"/><use href="#G" class="P"/><clipPath id="B"><path d="M389.462 99.224l257.648-5.361 7.945 381.824-257.648 5.361z"/></clipPath><g clip-path="url(#B)"><g class="R"><path d="M552.7 199.3s-7 27.9 1.7 46.8 55.3 36.1 55.3 36.1l-80 2.9-2.2.1-80 2.9s45.2-20.5 52.5-40-1.7-46.8-1.7-46.8l54.4-2z"/><path d="M554 172.6s8.1-7.7 13 .5-4.3 18.4-4.6 23c-.2 4.6-8 10.3-10.4 5.8s2-29.3 2-29.3zm-62.4 2.3s-8.7-7.1-13 1.5 5.7 18 6.2 22.6 8.8 9.7 10.8 5-4-29.1-4-29.1z"/><path d="M560.8 167.1c-1-26.6-18.5-47.5-39.1-46.7s-36.6 22.9-35.6 49.5c.1 2.1.3 4.1.5 6.1-.1 2.3-.1 4.7-.1 7.1 1.1 30.7 18.8 55 39.4 54.2s36.4-26.3 35.3-57a81.51 81.51 0 0 0-.6-7.1c.2-1.9.3-4 .2-6.1z" class="O V X"/></g><path d="M486.5 179.2c-1.7-2.1-2.9-4.9-4.5-7l-3.3-4.5c-2.7-4.3-4-9.3-4-14.3 0-4.9 1.2-9.8 1.7-14.6-1.9-1.3-3.9-3.5-4.5-5.8s.2-5 2.1-6.2c2.5.3 5.3-1.4 7.3-2.9s3.7-3.4 5.6-5 4.3-2.8 6.8-2.7c6.5.2 13.6-4.1 20.1-4 11.3.2 22.6-5 33.4-1.6 5.6 1.8 10.9 4.7 14.7 9.1 5.3 6.1 7.4 14.4 7.4 22.5s-2 16-3.9 23.9c-.8 3.2-2.1 6.9-5.2 7.6l-2-13.4c-.8-5-1.5-10-3.7-14.5s-5.9-8.6-10.7-9.9c-3.9-1-8.1-.2-12.1.6l-32.3 6.8c-2.2.5-4.5 1-6.4 2.3-3.2 2.3-4.5 22.6-5.3 26.5-1.3 7.5-.3 5.1-1.2 7.1z" class="Q"/><path d="M520.6 171.9l-3.8 19c-.2.8.5 1.5 1.3 1.5h0c.6 0 1.1-.5 1.2-1.1l1.3-19.4z" class="P"/><g class="S"><path d="M533.7 171.9c1.3-1.1 2.8-1.8 4.4-2.4s3.2-1 4.9-1.2 3.3-.3 5.1.1c.9.2 1.7.6 2.5 1.2.7.6 1.3 1.3 1.4 2.2-1.3-1.1-2.7-1.4-4.1-1.5-1.4 0-3 .2-4.6.4l-4.7.6-4.9.6z"/><ellipse transform="matrix(.9993 -.036623 .036623 .9993 -5.9204 20.0177)" cx="543.4" cy="171.6" rx="3.6" ry="2.8"/><path d="M531.3 161c1-1.8 2.4-3.3 4-4.7.8-.7 1.7-1.2 2.7-1.8a18.77 18.77 0 0 1 3-1.2l3.2-.9c1.1-.2 2.2-.2 3.3.1 2.2.6 4.2 1.8 5.4 3.9l-.2.4-5.8.5c-.9 0-1.7 0-2.5-.1-.9-.1-1.7-.2-2.6-.1l-2.6.4c-.9.2-1.8.5-2.6.8-1.7.7-3.4 1.7-4.9 2.9l-.4-.2zm-16.5 11.6c-1.7 0-3.3-.2-4.9-.3l-4.7-.3-4.6-.1c-1.4.1-2.9.5-4 1.8.1-.9.6-1.7 1.3-2.3s1.5-1.1 2.4-1.3c1.8-.5 3.4-.5 5.1-.5 1.7.1 3.3.4 4.9.8 1.6.6 3.1 1.2 4.5 2.2z"/><ellipse transform="matrix(.9993 -.036623 .036623 .9993 -5.9976 18.6141)" cx="505.1" cy="173" rx="3.6" ry="2.8"/><path d="M516.1 161.9c-1.6-1.1-3.3-2-5.1-2.6-.9-.3-1.8-.5-2.7-.6-.9-.2-1.8-.2-2.7-.3a10.9 10.9 0 0 0-2.6.3 10.68 10.68 0 0 1-2.5.3c-1.7 0-3.5.1-5.8-.1l-.2-.4c1-2.2 3-3.5 5.1-4.2 1.1-.4 2.2-.5 3.3-.4s2.2.4 3.3.6l3.1 1c1 .4 1.9 1 2.8 1.6 1.7 1.2 3.2 2.7 4.4 4.4l-.4.4z"/></g><path d="M521.4 218.9c2.4.7 5.1.3 7.2-1.1-.1-.8-1.1-.9-1.9-.8l-5.2.6a1.69 1.69 0 0 0-1 .3c-.3.3-.3 1 .1 1.2s1 .1 1.2-.3l-.4.1z" class="P"/><path d="M506.7 205.4l15.2.5c1.7.1 3.5 0 5.2-.2l15.1-1.6-11.3 7.3c-4.6 2.5-10.2 2.5-14.9.1l-9.3-6.1z" class="O T W Z"/><path d="M687.9 471.7c7.1-11.7-4.5-34.8-4.5-34.8l-43-136.8c-1.2-10.3-14.5-16.8-14.5-16.8l-56-26.3-10.6-3.7 7.8 6.9-45.8 124.5-37.5-117.9 7.9-6.9-4.9.2-53.8 30.2s-12.8 7.4-13.2 17.9c-.4 10.4-32.8 139.6-32.8 139.6s-9.8 23.9-1.9 35.1" class="R"/><g class="P"><path d="M554.4 246.2l-30 29.8 23.6 36.4 19.2-52.3z"/><path d="M483.9 266.7s10.1-8.9 11.8-11.1l28.8 20.4-15.7 39.6-12.4-9.7-12.5-39.2z"/></g><g class="Q"><path d="M512.9 305.1l12.9 6.9 14.5-11.5-15.9-24.5z"/><path d="M521.5 304.4l-10.9 46.4 10.8 33.8 18.3-48-11.7-34z"/></g><g class="V O W"><g class="U"><path d="M551.2 481.6l-67.3-214.9s9.2-7.5 11.8-11.1m25.7 129l45.8-124.5s-10.7-8.3-12.8-14"/></g><path d="M549.314 387.275l53.363-1.956 1.172 31.978-53.363 1.956z" class="T"/></g><path d="M570.687 376.873l9.793-.359.597 16.289-9.793.359z" fill="#004ee0"/><g class="R"><path d="M554.648 398.211l39.472-1.447.095 2.598-39.472 1.447zm.201 4.999l39.472-1.447.095 2.598-39.472 1.447zm17.292 4.326l18.987-.696.095 2.598-18.987.696z"/></g><g class="Q"><path d="M552.7 241.8c11.5 2.9 25.6 10.7 35.4 25.5 14.5 21.9 16.3 53 5.3 92.3l-5.8-1.6c10.5-37.6 9-67-4.5-87.4-7.5-11.3-17.8-18.1-26.9-21.5-.1.1-2.8-3.5-3.5-7.3zm-51.4 2.5c-19 8.1-31.3 20.2-36.6 35.8-10.5 30.7 9.6 63.8 10.4 65.2l5.1-3.2c-.2-.3-19.4-32.1-9.8-60.1 4.2-12.3 13.4-22.2 27.4-29.5 0 .1 3-4.4 3.5-8.2z"/></g><circle cx="588.5" cy="366.2" r="12.6" class="T W Y"/><g class="Q"><circle cx="588.5" cy="366.2" r="6.6"/><path d="M464.8 387.1c-1.3 0-2.5-.7-3-2-.2-.7-5.9-17.7.8-30.6 3.1-6 8.3-10 15.4-12.1 7.5-2.2 14.3-1.5 20.2 1.9 11.8 6.8 15.8 22.4 15.9 23 .4 1.6-.6 3.2-2.2 3.6s-3.2-.6-3.6-2.2h0c0-.1-3.5-13.7-13.1-19.2-4.4-2.6-9.7-3-15.5-1.3-5.6 1.6-9.4 4.6-11.8 9.1-5.5 10.6-.5 25.7-.4 25.9.5 1.6-.3 3.3-1.9 3.8-.2.1-.5.1-.8.1z"/></g><path d="M464.7 383.3s29.9 95.9 69.6 57" class="O U W Z"/><ellipse transform="matrix(.5147 -.8574 .8574 .5147 -113.3366 671.864)" cx="536.8" cy="436.1" rx="6" ry="4.3" class="P"/><path d="M512.9 369s39.9 92.2-15.6 88.6" class="O U W Z"/><ellipse transform="matrix(.314 -.9494 .9494 .314 -94.9466 780.5217)" cx="492.6" cy="456" rx="4.3" ry="6" class="P"/></g><clipPath id="C"><use href="#F"/></clipPath><g clip-path="url(#C)"><g class="T"><path d="M803.5 156.8s-4.2 16.5 1 27.7 32.7 21.3 32.7 21.3L792 224.6h-1.3l-49.3-15.4s26.7-12.1 31-23.6-1-27.7-1-27.7l32.1-1.1z"/><path d="M804.3 141s4.8-4.6 7.7.3-2.6 10.9-2.7 13.6-4.8 6.1-6.2 3.4c-1.4-2.6 1.2-17.3 1.2-17.3zm-36.9 1.4s-5.1-4.2-7.7.9c-2.5 5.1 3.4 10.7 3.7 13.4s5.2 5.7 6.4 3c1.2-2.9-2.4-17.3-2.4-17.3z"/><path d="M808.3 137.8c-.6-15.7-10.9-28.1-23.1-27.6-12.2.4-21.6 13.5-21 29.2 0 1.2.2 2.4.3 3.6-.1 1.4-.1 2.8 0 4.2.7 18.1 11.1 32.5 23.3 32s21.5-15.5 20.9-33.7l-.3-4.2c-.1-1.1-.1-2.3-.1-3.5z" stroke="#d5e8f8" class="O X"/></g><path d="M883.4 317.8c4.2-6.9-2.6-20.6-2.6-20.6l-25.4-80.9c-.7-6.1-8.6-9.9-8.6-9.9l-33.1-15.5-6.2-2.2 4.6 4.1-22.4 25.8-26.9-22 4.7-4.1-2.9.1-31.9 17.9s-7.6 4.4-7.8 10.5c-.2 6.2-19.4 82.5-19.4 82.5s-5.8 14.1-1.1 20.7" class="S"/><path d="M762.8 196.6l26.9 22 22.4-25.8-4.6-4.1s10.7 3.7 11.9 4.9L790 228l-34-29.5 6.6-6.4 4.9.5-1.9 2.1-2.8 1.9z" class="R"/><g class="Q"><path d="M803.5 181.9c6.8 1.7 15.1 6.3 20.9 15.1 8.6 13 9.6 31.3 3.1 54.6l-3.4-1c6.2-22.2 5.3-39.6-2.7-51.6-4.4-6.7-10.5-10.7-15.9-12.7 0 0-1.6-2.2-2-4.4zm-30.4 1.5c-11.2 4.8-18.5 11.9-21.6 21.2-6.2 18.1 5.6 37.7 6.2 38.5l3-1.9c-.1-.2-11.5-19-5.8-35.5 2.5-7.3 7.9-13.1 16.2-17.4 0 0 1.7-2.7 2-4.9z"/></g><circle cx="824.7" cy="255.4" r="7.4" class="T Y a"/><g class="Q"><circle cx="824.7" cy="255.4" r="3.9"/><path d="M751.6 267.8c-.8 0-1.5-.4-1.7-1.2-.1-.4-3.5-10.5.5-18.1 1.8-3.5 4.9-5.9 9.1-7.2 4.4-1.3 8.4-.9 11.9 1.1 7 4 9.3 13.2 9.4 13.6.2 1-.4 1.9-1.3 2.2-1 .2-1.9-.3-2.2-1.3h0c0-.1-2.1-8.1-7.7-11.4-2.6-1.5-5.7-1.8-9.1-.8-3.3 1-5.6 2.7-7 5.4-3.3 6.3-.3 15.2-.2 15.3.3.9-.2 1.9-1.1 2.3-.3 0-.4.1-.6.1z"/></g><path d="M751.5 265.5s17.7 56.7 41.1 33.7" class="O U V a"/><ellipse transform="matrix(.5147 -.8574 .8574 .5147 131.0051 824.8244)" cx="794.1" cy="296.7" rx="3.5" ry="2.6" class="R"/><path d="M780 257s23.6 54.5-9.2 52.3" class="O U V a"/><ellipse transform="matrix(.314 -.9494 .9494 .314 234.0052 940.7706)" cx="768" cy="308.5" rx="2.6" ry="3.5" class="R"/><g class="P"><path d="M768 124.8c.4-3.2 5.9-7.9 3.6-10-2.2-2-5.7-2.2-8.2-.7-2.6 1.5-4.2 4.2-4.7 7.1-.7 3.7.2 7.4 1.2 11 .4 1.6.8 3.2 1.3 4.8.3 1.2.5 3.6 1.3 4.7 1.8 2.3 4.6-1.1 5.2-2.7 1.2-3.9-.4-8.7.3-14.2z"/><path d="M769.7 106.3c-.5 1.1-3.2 1.7-3.6 2.7-.6 1.3 1 3.2 1 4.7.1 1.5 1.2 3 2.6 3 11.5.3 23.2 7.1 34.5 9.1 1.2.2 2.5.4 3.7.1 2.2-.5 3.9-2.6 4.3-4.9s-.4-4.6-1.7-6.5-3-3.4-4.8-4.9c-5.3-4.2-11.4-7.6-18.1-8.8s-14 .1-19.2 4.5c.5 0 1.1.7 1.3 1z"/><path d="M810.5 124.6c-.8-1.2-2.1-2.5-3.5-2.1-1 .2-1.6 1.2-1.9 2.1s-.1 2 .1 3l1 6.9c.3 1.7.4 6.7 1.9 7.8 1.9 1.3 3.3-2.8 3.7-4.1 1.7-4.4 1.3-9.6-1.3-13.6zm-38.7 20.3c.4-1.2 1.3-2.2 2.4-2.8 1.1-.7 2.4-1 3.7-1 1.3.1 2.6.6 3.6 1.4s1.8 1.9 2 3.1c-1.6-1.8-3.6-2.9-5.7-3s-4.3.7-6 2.3z"/><circle cx="777.6" cy="143.8" r="2"/></g><path d="M769.3 137.5c.9-1.4 2.2-2.4 3.7-3.2 1.4-.8 3-1.4 4.9-1.5.9 0 2 .1 3 .8a5.1 5.1 0 0 1 1.9 2.2c.4.9.6 1.8.6 2.6v2.4c-1.3-1.1-2-2.8-2.7-3.7-.4-.4-.8-.8-1.3-1.1-.3-.2-.9-.3-1.5-.4-1.2-.1-2.7.2-4.1.6-1.5.3-3 .7-4.5 1.3z" class="S"/><g class="P"><path d="M803 144.8c-1.6-1.8-3.6-2.8-5.7-2.9s-4.2.8-5.9 2.4c.4-1.2 1.2-2.2 2.3-2.9s2.4-1.1 3.7-1 2.6.5 3.6 1.3c.9.8 1.7 1.9 2 3.1z"/><circle cx="797.3" cy="143.1" r="2"/></g><path d="M806.1 137.6c-1.4-.6-2.7-1.1-4-1.4s-2.5-.4-3.5-.2c-.5.1-.8.3-1.7.7-.7.3-1.5.5-2.1.7s-1.2.3-1.7.6-1 .8-1.4 1.4c-.2-.8-.1-1.6.3-2.4s1.2-1.4 1.9-1.8l1.9-1c.4-.2 1.4-.8 2.3-.9 1.8-.3 3.5.2 4.9 1 1.3.8 2.5 1.9 3.1 3.3z" class="S"/><path d="M784 156.6l3.9 1.2 3.8-1.5-3.4 3.6z" class="P"/><path d="M777.5 165.6s12.3 5.5 21.2-.8l-21.2.8z" class="S"/><path d="M784.4 170.7s5 2.8 7.9-.3l-7.9.3z" class="P"/></g><clipPath id="D"><use href="#G"/></clipPath><g clip-path="url(#D)"><g class="Q"><path d="M820 307.3l2.5 6.1c.5 1.1.9 2.3 1.7 3.2 1.1 1.5 2.9 2.6 3.2 4.4.2 1 0 2 .1 2.9.3 3.3 4 5 6.5 7.2 2.8 2.4 4.5 6.7 2.4 9.8-.9 1.4-2.5 2.3-3.1 3.9-1 2.1.1 4.6.4 6.9.5 3.8-.9 7.5-2.4 11-1.2 2.8-2.4 5.8-4.8 7.8-1.9 1.5-4.2 2.2-6.5 2.9-2.4.7-4.8 1.4-7.3 1.8-2.5.3-5.1.2-7.7-.1-1.4-.2-2.9-.6-3.5-1.8-.9-1.9 1.2-3.7 2.2-5.4 1.3-2.1 1.2-4.8 1-7.3l-.8-13.8-.6-10c-.3-4.9-.6-9.8-.6-14.7 0-6.6.7-14.1 5.4-19.2 4.8-4.8 9.9-.3 11.9 4.4zm-63.1 3.6c-.7 2.1-.6 4.4-1.3 6.5-.4 1.2 0 2.8-.6 3.8-1 1.6-4.3 2.3-4.5 4.1-.1 1 2.4 2.1 2.4 3.1-.1 3.3-4.3 5.8-6.7 8.2-2.6 2.6-3.9 6-1.7 8.9 1 1.3 1.9 2.7 2.7 4.1 1.1 2.1 1.4 4.6 1.2 6.9-.2 3.8-.9 8 .8 11.4 1.4 2.8 4.8 4.1 7.3 5.8 2 1.4 3.5 3.9 5.8 4.4 2.4.5 5.1.7 7.6.8 2.6.1 5.2-.8 7.7-1.3 1.3-.3 3.9-.4 4.3-1.7.7-1.9-1.8-4.4-3-6.1-1.4-2-1.6-4.3-1.6-6.8l-.4-13.9c-.1-3.3-1.3-6.7-1.4-10-.1-4.9-.6-9.7-.9-14.6-.2-3.3 0-6.7-1-10s-2.4-6.1-5-8.4c-4.8-4.2-10.1-.1-11.7 4.8z"/></g><g class="S"><path d="M806.4 351.1s-4.3 17 1 28.5 33.6 21.9 33.6 21.9L794.6 421h-1.3l-50.8-15.9s27.5-12.5 32-24.3c4.5-11.9-1-28.5-1-28.5l32.9-1.2z"/><path d="M807.2 334.9s5-4.7 7.9.3c3 5-2.6 11.2-2.8 14-.1 2.8-4.9 6.3-6.3 3.5s1.2-17.8 1.2-17.8zm-37.9 1.3s-5.3-4.3-7.9.9 3.5 11 3.8 13.8 5.3 5.9 6.6 3.1c1.2-2.9-2.5-17.8-2.5-17.8z"/><path d="M811.4 331.5c-.6-16.2-11.3-28.9-23.8-28.4-12.6.5-22.3 13.9-21.7 30.1 0 1.3.2 2.5.3 3.7-.1 1.4-.1 2.9 0 4.3.7 18.7 11.4 33.5 24 33s22.2-16 21.5-34.7c-.1-1.5-.2-2.9-.4-4.3.1-1.2.1-2.4.1-3.7z" stroke="#004484" class="O X"/></g><path d="M763.1 404.3s32 16 55.3-2l30.8 20.3-7.9 95.9-91 3.3 12.8-117.5z" stroke="#fff" fill="#004ee0" class="O X"/><path d="M888.7 516.9c4.3-7.2-2.7-21.2-2.7-21.2l-26.1-83.3c-.7-6.3-8.8-10.2-8.8-10.2l-34.1-16-6.4-2.3 4.8 4.2L799 527l-34.4-134.9 4.8-4.2-3 .1-32.8 18.4s-7.8 4.5-8.1 10.9-20 85-20 85-6 14.5-1.2 21.3" class="T"/><g class="Q"><path d="M806.4 377c7 1.7 15.6 6.5 21.5 15.5 8.8 13.3 9.9 32.3 3.2 56.2l-3.5-1c6.4-22.9 5.5-40.8-2.8-53.2-4.5-6.9-10.9-11-16.4-13.1.1.1-1.5-2.2-2-4.4zm-31.2 1.4c-11.5 5-19 12.3-22.3 21.8-6.4 18.7 5.8 38.9 6.3 39.7l3.1-1.9c-.1-.2-11.8-19.5-6-36.6 2.6-7.5 8.2-13.5 16.7-17.9.1 0 1.8-2.7 2.2-5.1z"/></g><circle cx="828.3" cy="452.7" r="7.7" class="T Y b"/><g class="Q"><circle cx="828.3" cy="452.7" r="4"/><path d="M753 465.4c-.8 0-1.5-.5-1.8-1.2-.1-.4-3.6-10.8.5-18.6 1.9-3.6 5-6.1 9.4-7.4 4.5-1.3 8.7-.9 12.3 1.2 7.2 4.2 9.6 13.6 9.7 14 .2 1-.4 2-1.3 2.2-1 .2-2-.4-2.2-1.3h0c0-.1-2.1-8.3-8-11.7-2.7-1.6-5.9-1.8-9.4-.8-3.4 1-5.7 2.8-7.2 5.5-3.4 6.5-.3 15.7-.3 15.8.3 1-.2 2-1.1 2.3h-.6z"/></g><path d="M752.9 463.1s18.2 58.4 42.4 34.7" class="O U V b"/><ellipse transform="matrix(.5147 -.8574 .8574 .5147 -37.8716 923.4334)" cx="796.8" cy="495.2" rx="3.6" ry="2.6" class="R"/><path d="M782.2 454.3s24.3 56.1-9.5 53.9" class="O U V b"/><ellipse transform="matrix(.314 -.9494 .9494 .314 46.5177 1078.9637)" cx="769.9" cy="507.3" rx="2.6" ry="3.6" class="R"/><g class="Q"><path d="M771.5 334.2c0 .4.2.7.4.8.2.2.5.3.8.3.6 0 1.1-.3 1.7-.7 1.2-.9 2.8-1.5 4.3-1.8 1.6-.3 3.3-.1 4.7.7a4.62 4.62 0 0 1 1.7 1.7c.4.7.6 1.4.8 2.1h-.1c-.6-1.4-1.4-2.7-2.7-3.2s-2.8-.5-4.1-.2c-1.4.4-2.5 1.1-3.9 1.8-.7.4-1.6.7-2.6.4-1-.2-1.6-1.3-1.2-2.1l.2.2z"/><circle cx="779.6" cy="335.7" r="2.6"/><path d="M784.4 351.4c.1-.4.7-.6 1.1-.4s.7.6.9.9c-.3.1-.7-.1-1-.3s-.7-.4-1-.2m8.7-.2c.3-.3.6-.5.9-.4.2.1.3.4.3.6s-.2.4-.4.6c-.4.3-1.4.7-1.9.3.2-.4.8-.7 1.1-1.1zM771 325.6c1-.7 2.2-1.2 3.5-1.5s2.6-.4 3.9-.3 2.8.1 3.9.9 2.1 1.8 2.5 3.3l-.2.2c-1.4-.2-2.5-.5-3.6-.8s-2-.9-3-1.3c-1.1-.3-2.2-.5-3.4-.5-1.2-.1-2.4.1-3.5.4l-.1-.4zm37 8c.5.7-.1 1.9-1 2.2s-1.9.1-2.6-.3c-1.4-.6-2.6-1.2-4-1.5s-2.8-.2-4.1.5c-1.2.6-2 2-2.5 3.4h-.1c.2-.7.3-1.5.7-2.2.3-.7.8-1.4 1.5-1.8 1.4-.9 3-1.2 4.6-1 1.6.1 3.2.6 4.5 1.5.6.4 1.2.6 1.7.6.3 0 .5-.1.8-.3.2-.2.4-.5.4-.9l.1-.2z"/><circle cx="799.9" cy="335.7" r="2.6"/><path d="M807.6 325.3c-1.2-.2-2.4-.2-3.6-.1s-2.3.4-3.3.8c-1.1.4-1.9 1.1-2.9 1.5s-2.1.8-3.5 1.1l-.2-.2c.3-1.5 1.2-2.6 2.2-3.4 1.1-.9 2.5-1 3.8-1.2s2.7-.2 3.9 0c1.3.2 2.5.6 3.6 1.3v.2zm-36.2-6.7c3.8.1 7.4-1.7 11.1-2.7 3.5-.9 7.2-1.1 10.7-.5 4.2.7 8.4 2.5 12.6 1.8 1.9-.3 3.7-1.2 5.5-2s3.7-1.7 5.2-3.3c2.6-2.8 3.6-7.6 2.7-11.8s-3.5-7.7-6.7-9.4c-2.2-1.2-4.7-1.5-7-1.8l-10.1-1.4-12.4-1.7c-1.7-.2-3.6-.4-5.1.6-3.3 2.2-3.5 8.9-6.9 10.9-3 1.7-7-1.2-9.5 1.4-1.3 1.3-1.7 3.8-1.3 5.9 1.1 6.6 5.6 13.8 11.2 14z"/></g><path d="M778.5 358l10.4.7c1.2 0 2.4-.1 3.5-.3l10.2-2.2-7.5 7c-3.1 1.8-6.9 2-10.2.5l-6.4-5.7z" stroke-width="1.371" class="O T Y"/></g><circle cx="339.2" cy="140.4" r="33" class="P"/><path d="M324.1 114.7h30.2V166h-30.2z" class="R"/><g class="S"><path d="M328.3 117.7h21.8v39.4h-21.8z"/><circle cx="339.2" cy="160.7" r="1.1"/></g><circle cx="339.7" cy="217.7" r="33" class="P"/><g class="R"><circle cx="322.9" cy="205.2" r="2.5"/><use href="#H"/><circle cx="322.9" cy="213.7" r="2.5"/><path d="M327.4 210.6H359v5.6h-31.6z"/><circle cx="322.9" cy="222.2" r="2.5"/><path d="M327.4 219.1H359v5.6h-31.6z"/><circle cx="322.9" cy="230.7" r="2.5"/><path d="M327.4 227.6H359v5.6h-31.6z"/></g><circle cx="340" cy="295" r="33" class="P"/><path d="M340 306.1h0c-4.1 0-7.4-3.3-7.4-7.4v-18.2c0-4.1 3.3-7.4 7.4-7.4h.1c4.1 0 7.4 3.3 7.4 7.4v18.2c-.1 4.2-3.4 7.4-7.5 7.4z" class="R"/><g stroke="#d5e8f8" stroke-width="2.513" class="O U"><path d="M349.6,302.1c0,4.1-4.3,7.4-9.6,7.4h0c-5.3,0-9.6-3.3-9.6-7.4"/><path d="M340 309.5v7.2m8.4 0h-16.7"/></g><circle cx="341.6" cy="372.3" r="33" class="Q"/><g class="R"><path d="M345.2 383.6s-2.9.7-4.2-.8c-1.4-1.6-3.4-4.7-4.7-6.8l-3-6.7c-.6-1.9 1.5-4 1.5-4 .2-6.6-4.5-10.6-4.5-10.6-2.3 1.8-5 5.6-5 5.6 1.3 10.7 7.4 20.2 7.4 20.2h0c2.1 3.5 6.2 9.5 12 13.9 0 0 4.6-.4 7.3-1.4 0-.2-1-6.2-6.8-9.4zm-10.3-33.3s4.3 3.7 4.1 10.3l-3.4 3.7s.3-5.2-4.5-10.3l3.8-3.7zm23.1 40.9s-.8-5.6-6.6-8.9l-4.9 1s4.6 2.5 6.4 9.3l5.1-1.4z"/></g></g><defs ><path id="F" d="M911.3 271l-242.9 5.1-3.8-163.4 242.9-5.1z"/><path id="G" d="M915.3 460.3l-242.9 10.9-3.8-182.5 242.9-5.1z"/><path id="H" d="M327.4 202.1H359v5.6h-31.6z"/></defs></svg>