<svg xmlns="http://www.w3.org/2000/svg" viewBox="0 0 255 134" preserveAspectRatio="none" opacity=".7" xmlns:v="https://vecta.io/nano"><style><![CDATA[.A{isolation:isolate}.H{mix-blend-mode:multiply}.I{stroke-linejoin:round}.J{stroke-width:2}.K{stroke-linecap:round}.L{stroke:#717791}.M{stroke:#2be0fe}]]></style><g transform="matrix(.926062 0 0 .835201 -94.908091 -94.608087)" class="A" transform-origin="235.156px -5.39191px"><g fill="#e5eefd"><circle cx="87.42" cy="139.98" r="4.89"/><circle cx="295.35" cy="122.98" r="3.11"/></g><g class="I J L"><path d="M351.89,192.67a3,3,0,0,1,.85-1.38,2.91,2.91,0,1,1-.1,4.23,2.44,2.44,0,0,1-.71-1.51" fill="#fff" class="K"/><path d="M357.59 122.13v10.05H85.41v-10.05a6.85 6.85 0 0 1 6.85-6.85h258.48a6.85 6.85 0 0 1 6.85 6.85z" fill="#983368"/></g><g fill="#717791"><circle cx="94.45" cy="123.64" r="2.37"/><circle cx="103.46" cy="123.64" r="2.37"/><circle cx="112.47" cy="123.64" r="2.37"/></g><g class="L I J"><path d="M357.59 132.18v138.008c-.006 1.941-1.835 3.513-4.09 3.513h-264c-2.255 0-4.084-1.572-4.09-3.513V132.18h272.18z" fill="#405260"/><g fill="none"><path d="M221.5 132.18V265.9"/><path d="M357.59 199.04H85.41"/><path d="M313.4 238.71h26.97m-26.97-10.35h33.61m-14.94-10.34h14.94m-33.61 0h12.72m-12.72-10.34h33.61" class="K"/></g></g><g fill="none" class="I J"><g class="M"><g class="K"><path d="M263.28 230.52c-5.79-.88-9.85-3-9.85-5.36 0-3.21 7.22-5.82 16.12-5.82s16.12 2.61 16.12 5.82c0 2.33-3.78 4.33-9.24 5.27M263.2 238c-6.23-.91-10.62-3.11-10.62-5.69 0-1.44 1.38-2.77 3.7-3.82m26.54-.03c2.32 1 3.7 2.38 3.7 3.82 0 2.5-4.14 4.65-10.09 5.6"/><path d="M263.2 245.49c-6.82-.93-11.67-3.3-11.67-6.09 0-1.46 1.34-2.81 3.59-3.89m28.88 0c2.26 1.08 3.59 2.43 3.59 3.89 0 2.72-4.6 5-11.14 6m-8.93-30.56h4.06m-4.06 10.17h4.06m-4.06 5.08h4.06m-4.06 5.08h4.06m-4.06 5.09h4.06m-4.06 5.08h4.06m-4.06 5.08h4.06"/></g><rect x="242.83" y="207.54" width="53.45" height="50.18" rx="5"/></g><path d="M176.79 238.71h26.97m-26.97-10.35h33.62m-14.94-10.34h14.94m-33.62 0h12.73m-12.73-10.34h33.62" class="K L"/><g class="M"><g class="K"><path d="M133.58 233.59c1.65 13.61 10.78 24.73 20.72 25h.29a10 10 0 0 0 8.49-4.57c3.82-5.5 4.06-15 .63-24.18-4.94-13.18-13.88-23.13-20.8-23.13a6.6 6.6 0 0 0-4.89 2.37 12 12 0 0 0-1 1.28m8.32 28.41a17.59 17.59 0 0 0-26.71 0m8.07-28.43a12 12 0 0 0-1-1.28 6.58 6.58 0 0 0-4.88-2.37c-6.92 0-15.87 9.95-20.8 23.13-3.44 9.19-3.19 18.68.62 24.18a10 10 0 0 0 8.49 4.57h.29c9.94-.25 19.06-11.35 20.72-24.95"/><path d="M114.12 228.59a16.12 16.12 0 0 0 12.55-15.69v-3.47a3.54 3.54 0 0 1 3.54-3.52h3.3a3.52 3.52 0 0 1 3.53 3.52v3.47a16.11 16.11 0 0 0 12.54 15.69m104.22-58.53a16.89 16.89 0 0 1-5-11.43c0-11.48 10.1-19.63 20.77-19.63"/></g><ellipse cx="262.95" cy="165.49" rx="4.27" ry="3.55" transform="matrix(.550772 -.834656 .834656 .550772 -20 293.82)"/><g class="K"><path d="M285.3,170.06a16.89,16.89,0,0,0,5-11.43c0-11.48-10.1-19.63-20.77-19.63"/><path d="M285.3,162.37v8.92a6.38,6.38,0,0,1-2.59,5.16,11.82,11.82,0,0,1-6.77,2.44v2.51a2.17,2.17,0,0,1-2.17,2.17h-8.43a2.17,2.17,0,0,1-2.17-2.17v-2.51a11.77,11.77,0,0,1-6.77-2.44,6.36,6.36,0,0,1-2.6-5.16v-8.92"/><path d="M257.21 177.27v5.28l4.9 6.53a5.78 5.78 0 0 0 4.63 2.32h5.62a5.78 5.78 0 0 0 4.63-2.32l4.91-6.53v-5.28m-9.99-1.3l-2.36-4.34-2.36 4.34"/></g><ellipse cx="276.15" cy="165.49" rx="3.55" ry="4.27" transform="matrix(.834656 -.550772 .550772 .834656 -45.49 179.45)"/></g><path d="M313.4 173.52h26.97m-26.97-10.34h33.61m-14.94-10.34h14.94m-33.61 0h12.72m-12.72-10.35h33.61m-170.22 31.03h26.97m-26.97-10.34h33.62m-14.94-10.34h14.94m-33.62 0h12.73m-12.73-10.35h33.62" class="K L"/><g class="M"><path d="M118.39,179.7a7.38,7.38,0,0,1-3.74-1c-6.61-3.83-10.72-11.32-10.72-19.54a22.47,22.47,0,0,1,9.66-18.89,7.48,7.48,0,1,1,8.31,12.44,7.82,7.82,0,0,0-3,6.45c0,2.86,1.28,5.45,3.26,6.6a7.48,7.48,0,0,1-3.77,13.95Z"/><path d="M118.9,159.15h2.23a10.73,10.73,0,0,1,10.74,10.73v22.25" class="K"/><path d="M145.34,179.7a7.39,7.39,0,0,0,3.75-1c6.61-3.83,10.71-11.32,10.71-19.54a22.49,22.49,0,0,0-9.65-18.89,7.48,7.48,0,0,0-8.32,12.44,7.8,7.8,0,0,1,3,6.45c0,2.86-1.28,5.45-3.26,6.6a7.48,7.48,0,0,0,3.76,13.95Z"/><path d="M144.84,159.15H142.6a10.73,10.73,0,0,0-10.73,10.73v22.25" class="K"/></g></g><path class="H" d="M122.76 255.99l-15.86-6.3 10.36-40.91 52.04-6.06-46.54 53.27z" fill="#4d92f5" opacity=".3"/><g class="I J"><g><g><g><g><path transform="matrix(.993292 -.115631 .115631 .993292 -22.057163 18.43)" d="M119.83 205.59h52.39v47.53h-52.39z" fill="#a2a27f" class="L"/><path d="M124.54 215.24l39.16-4.56m.95 8.12l-39.17 4.56m40.87 10.09l-39.16 4.56m-.95-8.12l39.17-4.56" stroke="#fdd18c" fill="none" class="K"/><path d="M169.03 138.64h43.82v20.51h-43.82z" fill="#717791" class="L"/></g></g></g></g></g></g></svg>