<svg xmlns="http://www.w3.org/2000/svg" height="670.849" width="869.503" xmlns:v="https://vecta.io/nano"><style><![CDATA[.T{fill:#fca70c}.U{fill:#b1affd}.V{fill:#efefef}.W{opacity:.039}.X{fill:url(#A)}.Y{stroke-width:15}.Z{fill:#ffb9b0}.a{fill:#38287c}.b{fill-rule:evenodd}.c{stroke-linecap:round}.d{stroke-width:18}]]></style><linearGradient id="A" x1=".5" x2=".5" y2="1"><stop offset="0" stop-color="#f94f4f"/><stop offset="1" stop-color="#f66363"/></linearGradient><path d="M852.984 369.624c-14.94-39.857-38.469-51.984-60.848-77.55-27.332-31.222-45.768-53.92-38.671-94.077 11.596-65.623 16.56-229.286-165.018-207.893-65.081 7.669-116.511 55.385-153.926 103.017-31.835 40.531-89.102 44.107-135.2 53.556-56.635 11.612-114.328 29.149-166.728 54.843C24.675 254.442-7.557 330.521-3.156 427.861c1.328 29.409 5.68 75.732 57.602 129.936 70.082 73.16 171.92 82.954 294.488 49.358 28.057-7.691 54.577-19.753 82.178-28.833 28.707-9.442 58.473-15.626 88.687-18.425 70.397-6.512 143.371 5.265 210.903-14.844 35.878-10.733 68.329-29.988 94.325-55.968 32.256-32.328 43.727-77.395 27.957-119.461z" fill="#f5f5fc"/><g fill="#e5e5ff"><path d="M58.389 559.437c0 10.116 128.384 18.324 286.768 18.324 158.362 0 286.746-8.208 286.746-18.324s-128.384-18.33-286.746-18.33c-158.384 0-286.768 8.206-286.768 18.33z"/><path d="M233.376 582.062c0 6.333-32.592 11.466-72.8 11.466s-72.8-5.133-72.8-11.466 32.592-11.466 72.8-11.466 72.8 5.13 72.8 11.466z"/></g><path d="M99.45 439.344a2.01 2.01 0 0 1 2.147-1.822c.721-.122 1.446.195 1.847.806s.403 1.402.004 2.016a1.84 1.84 0 0 1-1.844.814 2.01 2.01 0 0 1-2.155-1.814zm2.149-1.132a1.16 1.16 0 0 0-1.247.461c-.278.4-.278.93 0 1.33s.776.583 1.247.461a1.16 1.16 0 0 0 1.247-.461c.278-.4.278-.93 0-1.33s-.776-.583-1.247-.461zm19.213 1.082h.348-.348c.005-.443.184-.866.5-1.177.442-.422 1.031-.653 1.642-.644h.008a2 2 0 0 1 2.147 1.812 1.67 1.67 0 0 1-.65 1.309 2.35 2.35 0 0 1-1.494.512 2.01 2.01 0 0 1-2.153-1.812zm2.144-1.129a1.63 1.63 0 0 0-1.149.444.97.97 0 0 0-.3.682 1.33 1.33 0 0 0 1.459 1.121 1.67 1.67 0 0 0 1.056-.355 1 1 0 0 0 .4-.771c-.105-.703-.747-1.198-1.454-1.121z" fill="#eae6ff"/><path d="M116.491 451.983l-7.488 48.839 68.03-.16-6.889-48.8z" fill="#bdc6f9"/><path d="M380.677 506.665h127.09v34.188h-127.09z" fill="#4a74c8"/><rect height="316.961" rx="9.387" width="440.57" x="224.607" y="200.866" fill="#5f8be3"/><rect height="274.992" rx="5.768" width="414.618" x="236.913" y="212.423" fill="#f2f2f2"/><path d="M333.372 537.881h221.7a7.32 7.32 0 0 1 7.322 7.322v14.231h0H326.05h0v-14.231c0-4.044 3.278-7.322 7.322-7.322z" fill="#5f8be3"/><g opacity=".25"><path d="M363.499 373.865h12.637v31.726h-12.637z" class="T"/><path d="M391.975 346.014h12.637v59.576h-12.637z" class="U"/><path d="M420.452 352.175h12.637v53.416h-12.637z" class="T"/><path d="M448.928 322.016h12.637v83.575h-12.637z" class="U"/><use href="#C" class="W"/><path d="M448.928 322.016h5.8v83.575h-5.8z" opacity=".161"/><path d="M420.452 352.175h5.8v53.416h-5.8z" class="W"/><g fill="#d5dbda"><path d="M468.252 414.324h-113.1v-120.43h1.725v118.7h111.375zm-101.483-55.316l-1.152-1.284 29.586-26.566 27.4 5.953 29.674-33.035 1.284 1.153-30.342 33.781-27.521-5.979z"/><path d="M455.89 310.109l-8.367-8.024 10.8-2.89z"/></g><path d="M478.962 371.615h8.678v8.678h-8.678z" class="U"/><path d="M478.962 386.821h8.678v8.679h-8.678z" class="T"/><g class="V"><use href="#D"/></g><path d="M530 371.615h8.679v8.678H530z" class="U"/><path d="M530 386.821h8.679v8.679H530z" class="T"/><g class="V"><use href="#D" x="51.038"/></g><path d="M575.958 371.615h8.678v8.678h-8.678z" class="U"/><path d="M575.958 386.821h8.678v8.679h-8.678z" class="T"/><g class="V"><path d="M587.027 390.568h18.103v4.932h-18.103zm0-15.206h18.103v4.932h-18.103zm-106.441-86.666h124.545v2.265H480.586zm-125.433-27.792h249.978v5.183H355.153zm125.059 34.834H605.13v2.264H480.212zm0-14.084H605.13v2.264H480.212z"/></g><path d="M613.325 231.416H348.639c-7.021 0-12.712 5.691-12.712 12.712v11.126h290.11v-11.126c0-7.021-5.691-12.712-12.712-12.712z" class="X"/><g fill="#cfcfff"><use href="#E"/><circle cx="599.998" cy="243.771" r="3.665"/><circle cx="614.937" cy="243.771" r="3.665"/></g></g><rect fill="#f75b5b" height="195.005" opacity=".55" rx="5.01" width="290.11" x="258.864" y="275.551"/><rect height="195.005" rx="5.01" width="290.11" x="264.75" y="266.957" fill="rgba(165, 84, 135, 0.992)"/><path d="M292.321 409.407h12.637v31.726h-12.637z" class="X"/><path d="M320.797 381.556h12.638v59.576h-12.638zm56.953-23.998h12.637v83.575H377.75z" class="U"/><use href="#C" x="-71.178" y="35.542" class="W"/><path d="M377.75 357.558h5.8v83.575h-5.8z" opacity=".161"/><path d="M349.274 387.717h5.8v53.416h-5.8z" fill="#241111" class="W"/><g fill="#d5dbda"><path d="M397.074 449.867h-113.1V340.194h1.725V448.14h111.375zm-101.482-55.318l-1.152-1.284 29.585-26.566 27.4 5.953 29.678-33.034 1.284 1.153-30.345 33.781-27.517-5.979z"/><path d="M384.711 345.651l-8.367-8.024 10.8-2.89z"/></g><path d="M407.784 407.157h8.679v8.678h-8.679z" class="U"/><path d="M407.784 422.363h8.679v8.679h-8.679z" class="X"/><use href="#D" x="-71.178" y="35.542" class="V"/><path d="M458.822 407.157h8.679v8.678h-8.679z" class="U"/><path d="M458.822 422.363h8.679v8.679h-8.679z" class="X"/><g class="V"><use href="#D" x="-20.14" y="35.542"/><use href="#F"/><use href="#F" y="21.125"/><use href="#F" y="28.167"/><use href="#F" y="42.251"/><use href="#F" y="49.293"/><path d="M424.328 380.572h109.625v2.264H424.328z"/></g><path d="M542.148 266.957H277.462c-7.021 0-12.712 5.691-12.712 12.712v11.125h290.11v-11.125c0-7.021-5.691-12.712-12.712-12.712z" fill="#a31f5e"/><g fill="#fff"><path d="M517.546 279.311c.001 2.024-1.64 3.665-3.664 3.666s-3.665-1.64-3.666-3.664 1.64-3.665 3.664-3.666a3.67 3.67 0 0 1 3.666 3.664zm14.941 0c.001 1.483-.892 2.82-2.261 3.388s-2.947.255-3.996-.793-1.363-2.625-.796-3.995 1.904-2.264 3.386-2.264a3.67 3.67 0 0 1 3.667 3.664z"/><use href="#E" x="-41.3" y="35.541"/></g><path d="M640.064 201.085h-67.937q.7 33.044 1.122 66.095c.043 3.37 0 6.846-1.228 9.959l-.1-.005c-.9-.048-.5.233-.812 1.845 0 .023-.015.051-.02.074-2.748 4.486-8.109 6.94-13.329 8.094-.041.246-.012.498.084.728a1.67 1.67 0 0 0-.525 2.053c.317.736 4.222 1.733 9.525 1.162 2.02-.304 3.996-.852 5.884-1.632a9.15 9.15 0 0 0 2.167-1.477c.681-.068 1.35-.23 1.987-.48l.216.2 6.079-2.646s-.665-3.836-1.19-5.833a3.46 3.46 0 0 0-.4-.939 278.58 278.58 0 0 0 11.928-42.4c-1.106 17.9-7.536 54.248-8.013 55.5a9.33 9.33 0 0 1-7.726 5.425c-1.439.119-8.515-.289-7.752 2.966.183.776 3.857 2.438 9.18 2.794 2.042.052 4.083-.145 6.077-.586 1.384-.437 2.67-1.138 3.788-2.063l.82 1.094 6.445-1.553-.051-3.7a8.22 8.22 0 0 0-1.38-3.93l.089-3.666 3.573-.421s7.176-23.209 10.583-31.1a69.48 69.48 0 0 0 3.857-9.888c1.048-4.027 1.147-8.226 1.479-12.372a109.39 109.39 0 0 1 4.151-22.336 3.3 3.3 0 0 1 .606-1.3 3.46 3.46 0 0 1 2.35-.82c9.132-.837 13.318.716 19.032-1.056 7.534-2.337 8.332-5.755 8.7-5.92a23.71 23.71 0 0 0-9.259-1.866z" opacity=".35" fill="#5851bc"/><path d="M536.618 118.908s-5.912-4.171-6.122-5.922-4.331-8.85-5.651-10.263-8.249-3.814-9.726-4.027-9.961.51-8.906 1.667 6.546.736 7.6 1.37l1.055.632s-1.055 1.434-.634 2.3-1.812 2.2-.967 3.679-.342 1.378.414 2.92c1.248 2.545 4.443 3.963 5.288 3.268.634 1.507 3.058 4.582 5.328 4.372s7.79 4.96 7.79 4.96m94.67-34.632c.2 3.971-.081 10.885 1.055 11.91s4.806.865 4.806.865-13.118 16.587-14.29 15.676-16.688-13.554-13.2-14.209 6.9-.513 6.8-2.317l-.3-5.415" class="Z"/><path d="M641.718 177.813s-25.594 2.905-31.486 3.027-5.6-2.956-5.6-2.956c-.3-6.485-1.4-21.768-2.619-26.946l-2.631-11.217c-2.2-10.213-2.106-12.164-4.438-24.769l15.288-12.288s1.583 4.7 7.99 4.783c8.566.109 11.23-5.889 11.23-5.889l20.852 13.844 1.956 33.675-2.494 27.733" class="T"/><path d="M627.048 85.635a44.51 44.51 0 0 1-1.8 5.884c-1.352 3.514-3.344 4.775-7.061 4.864l-7.838.185c-2 .048-4.5.117-6.12-1.292s-1.642-3.743-2-5.676q-.681-3.707-1.111-7.457c-.561-4.894-.791-9.819-.69-14.744-.007-.676.052-1.352.175-2.017a1.46 1.46 0 0 1 .335-.741 1.64 1.64 0 0 1 .941-.363 80.47 80.47 0 0 1 14.815-.949c3.5.1 7.206.507 9.974 2.649 2.788 2.154 4.11 5.656 5.3 8.972.19.533.332 1.243-.129 1.568" class="Z"/><path d="M569.64 269.111a55.98 55.98 0 0 0 1.524 6.83c.677 1.738 6.386.134 6.765-.99s-1.8-9.4-1.8-9.4" fill="#ed9c80"/><path d="M579.919 276.391c.495 1.875 1.119 5.478 1.119 5.478l-5.709 2.484-.936-.878a10.55 10.55 0 0 1-3.166 2.525 23.72 23.72 0 0 1-5.524 1.533c-4.983.535-8.65-.4-8.947-1.091-1.236-2.887 5.377-3.661 6.688-4.006a8.76 8.76 0 0 0 6.262-6.275c.292-1.512-.084-1.779.761-1.733a2.01 2.01 0 0 1 1.428.672 3.6 3.6 0 0 0 4.055.941 4.31 4.31 0 0 0 2.022-1.685 2.49 2.49 0 0 1 1.947 2.035z" class="a"/><path d="M594.867 202.572a96.72 96.72 0 0 1-29.139.69c1.261 3.616 4.351 8.246 5.529 13.336 3.887 16.8 5.237 39.382 6.224 53.347 0 0-1.865 3.585-7.848.855-8.937-22.072-24.541-66.805-24.4-76.511.185-12.354 31.021-15.338 53.622-18.383" fill="#453087"/><path d="M634.259 177.836c7.107 5.189-39.392 24.736-39.392 24.736a77.43 77.43 0 0 1-15.239 1.454c-.511-.903-.892-1.873-1.134-2.882-.274-1.35-.127-2.756-.363-4.111a9.56 9.56 0 0 0-4.646-6.262 20.91 20.91 0 0 0-7.6-2.461c-6.287-1.015-17.264-.3-17.264-.3 13.976-10.3 42.569-11.649 55.887-12.5 2.551 4.201 28.731 1.582 29.751 2.326z" class="a"/><path d="M584.38 280.856a55.75 55.75 0 0 0 .32 6.993c.365 1.832 6.267 1.241 6.833.2s-.14-9.571-.14-9.571" fill="#ed9c80"/><path d="M593.24 289.808c.162 1.936.152 5.59.152 5.59l-6.051 1.459-.771-1.03c-1.049.87-2.256 1.528-3.555 1.939-1.874.414-3.791.599-5.709.551-5-.335-8.447-1.893-8.619-2.624-.718-3.057 5.927-2.674 7.28-2.786a8.76 8.76 0 0 0 7.254-5.095c.551-1.439.228-1.766 1.053-1.573a2.01 2.01 0 0 1 1.289.908 3.6 3.6 0 0 0 3.831 1.629 4.31 4.31 0 0 0 2.284-1.307 2.49 2.49 0 0 1 1.562 2.339z" class="a"/><path d="M649.767 176.808a288 288 0 0 1-31.5 1c-4.024 0-34.454 5.709-37.365 10.865-4.788 8.482 3.123 58.054 2.39 93.544 0 0 3.649 3.045 10.1.183 1.6-17.434 11.905-58.561 4.8-77.761 16.777 2.225 30.311 4.438 45.56-.617 3.57-1.182 6.239-3.7 7.845-8.317 1.608-4.631.768-14.756-1.83-18.897z" fill="#453087"/><path d="M610.233 102.662l-4.369.259a33.6 33.6 0 0 0-9.038 1.71c-4.146 1.535-7.072 5.392-10.446 8.409-3.25 2.9-20.093 18.951-23.234 19.543s-30.719-18.307-30.719-18.307l-6.732 6.734s29.923 27.649 38.846 27.7c4.331.023 28.218-12.552 35.862-17.439z" class="T"/><path d="M564.609 143.397c-6.151.348-34.34-21.182-37.608-23.694l-1.307 1.307s29.923 27.649 38.846 27.7c3.611.018 20.791-8.708 30.841-14.448l2.6-1.51-1.56-9.3s-25.283 19.577-31.812 19.945zm75.755-21.436c-3.408 15.414-4.012 27.477-4.976 38.5-11.969 4.646-16.843 11.563-28.555 16.774 0 0-9.248-1.535-10.218 1.954-.561 2.012 10.827 3.613 10.827 3.613 10.854.051 39.481-7.881 41.417-8.414s7.579-36.921 7.8-56.669c.03-2.8-.069-5.849-1.822-8.036a10.53 10.53 0 0 0-3.532-2.613c-7.638-3.9-13.3-4.971-21.857-5.514" opacity=".25" fill="#ce4a30"/><path d="M608.448 179.622c-1.287-1.619-3.631-1.855-5.7-1.8a41.83 41.83 0 0 0-4.577.365c-.69.094-1.487.256-1.558 1s3.354 0 5.151.518c-3.522.303-7.058.4-10.591.289-.411-.042-.826 0-1.22.124-.399.137-.672.507-.685.929.052.321.226.61.485.807a7.19 7.19 0 0 0 3.644 1.467c5.4.946 11.078.781 16.1-1.421" class="Z"/><path d="M639.62 121.672c-.282 16.477-1.451 24.018-1.132 40.5-8.272 1.769-19.723 11.134-31.435 16.348-.388 1.429-.25 2.95.388 4.286.893.327 39.506-9.073 42.576-11.9 2.763-2.547 6.419-33.432 6.645-53.18.03-2.8-.069-5.849-1.822-8.036a10.53 10.53 0 0 0-3.532-2.613c-7.638-3.9-13.3-4.971-21.857-5.514" class="T"/><path d="M569.856 161.151c.244 3.512-3.9 6.356-9.269 6.356s-9.911-2.844-10.157-6.356 3.9-6.359 9.269-6.359 9.911 2.843 10.157 6.359z" fill="none" opacity=".45" stroke-miterlimit="10" stroke="#fff"/><g fill="#483a99"><path d="M614.98 75.099c-.13-.617-1.5-.738-2.872-.566s-5.037.634-5.788 1.22-.71 1.007-1.111 1.053-.421-.368-1.3-.751-2.989-.114-4.364.058-2.679.477-2.652 1.106a3.52 3.52 0 0 0 .551 1.9c.279.175.279.145 1.36 2.629.19.684.65 1.261 1.273 1.6s1.358.411 2.036.2c2.261-.492 2.4-3.068 2.578-4.143s.337-1.236.68-1.279.579.066 1.015 1.066.751 3.3 3.068 3.433c3.032.17 4.346-.868 4.767-2.811.568-2.636.439-2.646.667-2.885.759.004 1.517.069 2.266.193l-.051-.787a17.13 17.13 0 0 1-2.123-1.236zm-11.012 5.306a2.64 2.64 0 0 1-2.235 2.766c-1.39.175-2.027-.563-2.781-2.344-.534-.981-.694-2.122-.449-3.212.236-.426.987-.411 2.712-.52s2.3-.147 2.583.614c.188.886.246 1.794.173 2.696zm9.885-1.454c-.287 1.911-.987 2.829-2.892 3.057-2.7.325-3.22-.741-3.618-2.027a9.37 9.37 0 0 1-.5-2.657c.084-.8.65-.913 2.349-1.233s3.971-.718 4.306-.363a4.6 4.6 0 0 1 .358 3.223z"/><path d="M633.292 70.89a29.21 29.21 0 0 0-.755-4.063c-.852-3.53-3.148-6.54-6.328-8.295-4.437-2.213-9.532-2.721-14.318-1.426-2.621.733-3.593 2.114-4.943 2.076-1.27-.241-2.502-.647-3.667-1.208-10.243-3.682-8.525 6.346-7.434 9.1.485 1.218 2.806 2.106 3.116 2.611s.274 2.986.472 4.08c.158.679.633 1.239 1.276 1.507l.107-3.664c.042-1.18.595-2.284 1.515-3.024a9.4 9.4 0 0 1 3.684-1.035 28.04 28.04 0 0 1 7.539 1.248c1.913 1.642 2.405 5.387 2.943 7.589.249 1.028.51 1.718.929 1.7.317-3.032 1.37-3.108 3.184-2.073.967.553 1.51 2.474 1.543 4.1.038 1.926-1.038 4.047-3.057 4.476-.723.155 1.459 4.291 2.469 5.323a5.52 5.52 0 0 0 1.068.939 4.9 4.9 0 0 0 1.233.457l1.464.4a3.83 3.83 0 0 0 2.012.173c1.081-.3 1.652-1.451 2.139-2.464.8-1.659 1.72-3.268 2.375-4.993 1.521-4.339 2.012-8.973 1.434-13.534z"/></g><path d="M336.222 168.384h165.187l-19.783-14.635V63.371c.001-5.961-4.833-10.793-10.794-10.791h-134.61c-5.961-.002-10.795 4.83-10.794 10.791v94.219c0 5.961 4.833 10.794 10.794 10.794z" fill="#d2cefe"/><g fill="#fff" opacity=".45"><path d="M415.272 82.561H339.78v-7.224h75.492v7.224zm0 10.79H339.78v-7.224h75.492v7.224zm0 10.791H339.78v-7.224h75.492v7.224zm0 10.515H339.78v-7.224h75.492v7.224zm0 10.514H339.78h75.492zm0 19.106H339.78v-7.223h75.492v7.223zm53.35 11.378H339.78v-7.224h128.842v7.224z"/></g><path d="M269.81 361.072c-1.12-.765-2.382-1.135-3.632-1.135-1.986 0-3.944.933-5.258 2.689l-1.941 2.595c-1.422 1.901-3.588 3.01-5.881 3.01-5.603 0-10.915 2.632-14.496 7.184l-5.249 6.67.012.01-19.855 23.192c-.339.398-.805.628-1.311.651a1.75 1.75 0 0 1-1.359-.536l-25.148-24.986c-7.675-7.625-17.703-11.825-28.238-11.825h-3.934a1.76 1.76 0 0 0-.557.099c-.03.01-.059.027-.089.039-.1.039-.201.073-.294.129l-2.329 1.428a26.75 26.75 0 0 1-28.002.045l-2.426-1.475c-.042-.026-.094-.026-.139-.047a1.87 1.87 0 0 0-.524-.179c-.042-.007-.084-.014-.126-.017-.049-.004-.097-.021-.147-.021h-3.019c-9.62 0-19.104 3.431-26.705 9.66-11.782 9.655-18.023 24.788-16.691 40.476l6.404 76.456c.272 3.184 2.759 5.586 5.785 5.586h89.319c1.585 0 3.119-.697 4.211-1.911 1.107-1.232 1.671-2.846 1.588-4.538l-1.153-24.505c-.558-11.363.632-22.041 3.536-31.74.183-.61.342-1.229.499-1.848.002-.012.009-.021.012-.034s.002-.015.003-.022a46.64 46.64 0 0 0 1.272-7.709l16.121 12.956c3.443 2.768 7.724 4.293 12.051 4.293 6.581 0 12.727-3.429 16.441-9.171l25.706-39.773 17.352-25.643c2.222-3.28 1.398-7.856-1.809-10.048zM253.1 372.19c3.46 0 6.676-1.646 8.822-4.515l1.94-2.595c.563-.752 1.407-1.184 2.317-1.184a2.82 2.82 0 0 1 1.596.5c.683.467 1.142 1.188 1.294 2.032s-.025 1.693-.498 2.392l-16.037 23.703-13.758-11.132 2.71-3.443c2.878-3.657 7.112-5.756 11.614-5.756zM95.123 437.33c-2.022-7.876-2.854-18.178-2.475-30.621.035-1.092-.778-2.006-1.811-2.042-.02-.001-.041-.001-.062-.001-1.006 0-1.838.844-1.87 1.916-.393 12.836.483 23.53 2.603 31.784 2.459 9.583 3.48 19.045 3.034 28.121L93.1 496.808h-8.438c-1.074 0-1.955-.853-2.053-1.98l-6.404-76.454c-1.217-14.342 4.486-28.172 15.258-36.997 5.653-4.635 12.454-7.539 19.53-8.471-2.007 1.718-4.027 4.044-5.484 7.169-3.043 6.517-2.792 14.565.745 23.92.027.071.073.125.107.191-2.379 1.995-3.912 5.069-3.912 8.519 0 6.003 4.624 10.886 10.304 10.886s10.304-4.883 10.304-10.886-4.624-10.886-10.304-10.886c-1.076 0-2.115.177-3.091.502-3.044-8.157-3.322-15.041-.813-20.456 2.671-5.767 7.869-8.338 9.79-9.12l14.282 24.401c.383.654.895 1.145 1.472 1.473v98.187H96.85l1.432-30.121c.465-9.494-.598-19.372-3.161-29.361zm17.63-31.548c3.615 0 6.557 3.108 6.557 6.927s-2.942 6.927-6.557 6.927-6.557-3.108-6.557-6.927 2.942-6.927 6.557-6.927zm112.715 28.525c-3.013 4.662-8.003 7.445-13.345 7.445-3.513 0-6.987-1.238-9.783-3.485l-18.266-14.68c.582-11.205-1.041-17.182-1.133-17.508-.294-1.048-1.341-1.64-2.324-1.332-.991.308-1.557 1.408-1.268 2.456.027.097 2.633 9.895-.316 27.978-.144.567-.272 1.141-.439 1.699-3.043 10.153-4.289 21.302-3.709 33.136l1.153 24.505c.031.602-.17 1.174-.562 1.612s-.924.677-1.495.677l-35.842.001v-98.184c.578-.328 1.091-.82 1.474-1.475l14.133-24.148c3.415 2.315 13.418 10.823 8.008 28.303-.089.287-.1.576-.066.858-.696-.098-1.4-.167-2.12-.167-8.788 0-15.937 7.552-15.937 16.837v8.905c0 .201.055.384.109.567.352 2.92 2.688 5.186 5.548 5.186 3.104 0 5.621-2.659 5.621-5.938s-2.517-5.938-5.621-5.938c-.674 0-1.311.146-1.91.375v-3.158c0-7.102 5.468-12.878 12.19-12.878s12.19 5.777 12.19 12.878v3.142c-.585-.218-1.205-.36-1.862-.36-3.104 0-5.621 2.659-5.621 5.938s2.517 5.938 5.621 5.938c3.022 0 5.467-2.525 5.596-5.684.001-.025.013-.045.013-.069v-.069c.001-.04.011-.076.011-.115s-.01-.076-.011-.115v-8.605c0-7.242-4.358-13.411-10.442-15.784.103-.156.192-.324.251-.513 4.792-15.483-1.236-25.069-6.069-29.897 8.915.447 17.342 4.164 23.879 10.661l25.146 24.984c1.109 1.101 2.558 1.672 4.078 1.607s2.922-.758 3.941-1.95l20.07-23.443 14.015 11.271zM99.8 356.535h13.339c6.031 5.976 14.12 9.662 23.042 9.662s17.01-3.686 23.042-9.662h12.282c2.651 0 4.427-2.82 3.471-5.432-4.016-10.972-3.291-20.102-3.291-20.102 1.199-21.836-15.24-40.24-35.944-40.24s-37.143 18.403-35.944 40.24c0 0 .375 9.021-3.495 20.184-.901 2.594.884 5.35 3.499 5.35zm36.379 5.704c-6.361 0-12.254-2.119-17.112-5.704-6.227-4.594-10.738-11.609-12.278-19.753 24.007-1.252 33.136-25.9 33.136-25.9 9.076 12.361 22.576 14.307 25.806 14.6.256 1.661.424 3.352.424 5.088 0 10.742-5.1 20.236-12.864 25.964-4.858 3.584-10.751 5.704-17.112 5.704zm63.702-17.814h11.241V356.3c0 2.186 1.678 3.959 3.747 3.959h11.241c2.069 0 3.747-1.772 3.747-3.959v-11.876h11.241c2.069 0 3.747-1.772 3.747-3.959V328.59c0-2.186-1.678-3.959-3.747-3.959h-11.241v-11.876c0-2.186-1.678-3.959-3.747-3.959h-11.241c-2.069 0-3.747 1.772-3.747 3.959v11.876h-11.241c-2.069 0-3.747 1.772-3.747 3.959v11.876c0 2.186 1.678 3.959 3.747 3.959z" fill="#00449e"/><g transform="matrix(.07789 0 0 .092723 419.767365 70.374222)" fill="rgba(116, 85, 198, 0.23)"><g class="b"><path d="M53.859 45.205h621.978v621.978H53.859z" paint-order="fill"/><path d="M675.374 129.244c-65.307-32.376-104.069-23.78-170.805-17.788-35.256 2.406-51.384-37.175-54.673-66.2 0-.36-68.573.349-72.641-.865l.022 125.314c13.313 6.675 47.464-38.015 79.242-29.448 174.487 47.036 143.846 422.948 173.344 523.353l21.913.164c10.87-107.372-77.715-382.883 23.749-402.579zm-621.607 3.931c69.105-38.933 120.012-24.031 186.326-23.666 35.256 2.406 47.243-36.327 52.691-65.024 8.768-1.434 70.555 1.092 74.623-.571l-.021 123.845c-18.558-12.113-59.521-32.635-92.172-15.343C112.468 238.608 114.347 569.31 94.231 663.461l-17.695.063c-4.993-99.144 79.027-385.003-22.437-404.7z" paint-order="fill"/></g><g stroke="#fff"><path stroke-width="18.017" d="M98.567 663.719c6.413-76.384 11.673-129.286 33.59-215.681 0 0 20.309-152.486 35.74-184.873s62.836-97.377 119.673-125.302c23.475-.561 53.765 4.252 72.323 33.698l-12.467-86.607-1.561-39.85" paint-order="fill"/><path d="M366.545 189.491c-38.788-.741-98.355-14.229-137.143-28.26-27.597-13.528-53.504-30.68-79.792-31.584-29.774-1.024-50.424 6.887-79.792 22.442" paint-order="fill" class="c d"/></g><g class="b"><path d="M298.39 520.297c-8.934-28.7-5.759-58.693 3.325-86.1l23.273-70.217 4.987-76.904c17.835-33.159 49.197-43.096 81.454-36.78 11.199 14.786 14.286 30.664 5.818 47.647-4.539 12.539-10.301 25.078-4.156 37.616 17.808 52.288 37.604 87.579 59.844 101.982 42.434 45.54 54.046 78.535 46.545 93.623l-11.636 23.406c-27.958 6.883-164.461 3.589-209.453-34.273z" paint-order="fill"/><path d="M109.716 622.275c10.889-26.349 26.763-60.519 53.455-77.8 58.69-37.997 91.755-27.166 150.414-19.765 28.658 3.616 52.79 21.126 85.291 21.154 39.524.034 85.206.671 124.759 9.538 56.072 12.658 75.968 39.849 93.09 80.248l4.188 27.654-516.043.074c-3.224-21.734-.785-19.37 4.844-41.103z" paint-order="fill"/></g><g stroke="#fff"><path d="M112.76 541.658c46.651-66.358 175.831-78.941 241.175-55.371m-223.589-32c48.895-55.279 151.775-73.771 221.472-40.654m-208.301-32.887c53.202-48.522 150.856-58.788 210.165-41.654m-199.255-21.399c73.501-53.914 129.285-58.581 212.185-37.374" paint-order="fill" class="d"/><path stroke-width="17.752" d="M172.115 257.481c66.108-54.401 116.348-58.601 190.909-37.203" paint-order="fill"/><path stroke-width="18.009" d="M626.515 663.952c-6.413-76.311-2.821-120.613-20.038-211.631l-33.959-193.016c-14.307-81.316-82-103.481-110.544-118.971s-52.921 6.357-71.48 35.775l12.467-86.524 3.325-44.225" paint-order="fill"/><path stroke-width="17.654" d="M570.6 253.459c-65.306-54.463-112.247-57.045-185.904-35.622" paint-order="fill"/><g class="d"><path d="M364.672 186.907c38.788-.741 98.355-14.229 137.143-28.26 27.597-13.528 53.504-30.68 79.792-31.584 29.774-1.024 50.424 6.887 79.792 22.442" paint-order="fill" class="c"/><path d="M585.049 319.533c-73.501-53.914-118.019-54.808-200.918-33.601m209.62 104.138c-53.202-48.522-142.869-57.1-202.177-39.965m217.745 114.776c-48.895-55.279-150.112-75.433-219.809-42.316m230.005 127.242c-46.651-66.358-163.891-84.246-229.236-60.675" paint-order="fill"/></g><g class="b"><path d="M153.154 308.085l-35.74-86.442c11.804-10.652 13.859-39.417 5.355-57.243 21.178-12.547 88.896-8.643 110.177-27.536-103.124 32.144-103.073 92.489-79.792 171.221z" paint-order="fill" class="Y"/><path stroke-width="22.353" d="M359.567 56.397h26.735v595.785h-26.735z" paint-order="fill"/><g class="Y"><circle cx="89.794" cy="188.048" r="14.693" paint-order="fill"/><path d="M53.942 178.057H88.03v21.158H53.942z" paint-order="fill"/><path d="M319.594 84.021h108.141" paint-order="fill" class="c"/></g><g transform="scale(-1 1)" class="Y"><circle cx="-649.753" cy="186.993" r="14.693" paint-order="fill"/><path d="M-685.604 177.001h34.088v21.158h-34.088z" paint-order="fill"/></g><path d="M584.043 302.337l35.74-86.442c-11.804-10.652-13.859-39.417-5.355-57.243-21.178-12.547-88.896-8.643-110.177-27.536 103.124 32.144 103.073 92.489 79.792 171.221z" paint-order="fill" class="Y"/></g></g></g><defs ><path id="C" d="M391.975 346.014h5.8v59.576h-5.8zm-28.476 27.851h5.8v31.726h-5.8z"/><path id="D" d="M490.031 390.568h27.51v4.932h-27.51zm0-15.206h27.51v4.932h-27.51z"/><path id="E" d="M588.723 243.77c0 1.483-.892 2.819-2.262 3.387s-2.946.254-3.995-.794-1.362-2.625-.794-3.995 1.904-2.262 3.387-2.262c2.023.001 3.663 1.641 3.664 3.664z"/><path id="F" d="M409.035 317.196h124.918v2.264H409.035z"/></defs></svg>