<svg xmlns="http://www.w3.org/2000/svg" viewBox="92.048 55.011 315.971 228.447" xmlns:v="https://vecta.io/nano"><defs><linearGradient id="A" x1="4.878" y1="53.388" x2="42.384" y2="5.945" gradientTransform="matrix(8.270863, 0, 0, 5.224486, 51.671456, 54.579065)" spreadMethod="pad" gradientUnits="userSpaceOnUse"><stop offset="0" stop-color="#e3a3d5"/><stop offset="1" stop-color="rgba(188, 56, 106, 0.773)"/></linearGradient><linearGradient id="B" x2="1492.99" gradientUnits="userSpaceOnUse" x1="1214.6" y1="446.11" y2="720"><stop stop-color="#212121" stop-opacity=".616" offset="0"/><stop stop-color="#4d4d4d" stop-opacity="0" offset="1"/></linearGradient><path id="C" d="M629.27 911.11V287.09c0-41.778 33.867-75.646 75.645-75.646h416.3l311.9 311.9v451.04h-803.84v-63.27z"/><path id="D" d="M1433.1 974.379v211.007c0 33.908-33.86 61.388-75.64 61.388H704.9c-41.778 0-75.645-27.481-75.645-61.388V974.379h803.84z"/><path id="E" d="M1121.06 211.44h.14l311.94 311.94h-233.33a78.75 78.75 0 0 1-78.75-78.752v-233.19z"/><path id="F" d="M1140.4 1182.689v-154.89h94.9v33.958h-53.74v26.87h50.67v33.22h-50.67v60.84h-41.16z"/><path id="G" d="M24.1 35.373a.69.69 0 0 0-.693.693v3.435a.69.69 0 0 0 .693.693h16.647a.69.69 0 0 0 .693-.693v-3.435a.69.69 0 0 0-.693-.693H24.1z"/></defs><path d="M110.562 83.85c-10.266 0-18.514 7.654-18.514 17.15v165.316c0 9.496 8.248 17.141 18.514 17.141h122.474 33.676 122.793c10.266 0 18.514-7.645 18.514-17.141V101c0-9.496-8.248-17.15-18.514-17.15H110.562z" fill="url(#A)"/><g transform="matrix(.430806 0 0 .381157 302.601501 102.97641)"><path d="M-24.496-117.905l11.009 361.487a34.37 34.37 0 0 0 17.185 29.766c18.067 16.845 121.773 82.936 120.297 82.683l10.689 3.009c6.04-1.748 13.118-3.608 17.953-6.318 3.545-2.046 5.728-5.828 5.728-9.921h0V-14.387a34.37 34.37 0 0 0-17.184-29.765l-.001-.001h0-.001L3.698-123.528h0 0c-1.738-1.003-4.979-2.313-6.986-2.315-.968.059-13.825 4.972-21.208 7.938z" fill="#333"/><path d="M-13.423-117.597l137.482 79.375a34.37 34.37 60 0 1 17.185 29.766v357.188a11.457 11.457 150 0 1-17.185 9.922l-137.482-79.375a34.37 34.37 60 0 1-17.185-29.766v-357.187a11.457 11.457 150 0 1 17.185-9.922z" fill="#4d4d4d"/><path d="M-5.642-104.435L117.083-33.16a34.472 34.472 60.073 0 1 17.16 29.81v325.139a11.423 11.423 150.073 0 1-17.16 9.878L-5.642 260.391a34.472 34.472 60.073 0 1-17.16-29.81V-94.557a11.423 11.423 150.073 0 1 17.16-9.878z" fill="#f2f2f2"/><path d="M3.521-50.342l-4.894 9.253 11.457-6.614v26.458A34.37 34.37 0 0 0 27.269 8.521L96.01 48.208l5.728 9.922-5.728 3.307v13.23l11.457-6.615v-6.616l11.457-6.614h.001a11.46 11.46 0 0 0 5.728-9.921V18.443a34.37 34.37 0 0 0-17.185-29.766L27.269-57.625c-7.759-4.191-17.321 3.279-23.748 7.283z" fill="#9fd3b4"/><path d="M10.095-52.545A11.457 11.457 0 0 0-1.373-41.089v26.459a34.37 34.37 0 0 0 17.185 29.765l68.741 39.688L96.01 74.667v-13.23a11.457 11.457 0 0 0 17.185-9.921V25.057A34.37 34.37 0 0 0 96.01-4.708L15.812-51.011a11.457 11.457 0 0 0-5.717-1.534z" fill="#afe9c6"/><path d="M72.439-4.465L95.352 8.764a11.457 11.457 60 0 1 5.728 9.922 3.819 3.819 150 0 1-5.728 3.307L72.439 8.764a11.457 11.457 60 0 1-5.728-9.922 3.819 3.819 150 0 1 5.728-3.307zM10.392-40.184L56.22-13.726a11.457 11.457 60 0 1 5.728 9.922A3.819 3.819 150 0 1 56.22-.497L10.392-26.955a11.457 11.457 60 0 1-5.728-9.922 3.819 3.819 150 0 1 5.728-3.307zm.53 25.929l45.827 26.458a11.457 11.457 60 0 1 5.728 9.922 3.819 3.819 150 0 1-5.728 3.307L10.922-1.026a11.457 11.457 60 0 1-5.728-9.922 3.819 3.819 150 0 1 5.728-3.307zm72.974 56.092l11.457 6.615a3.819 3.819 150 0 0 5.728-3.307 11.457 11.457 60 0 0-5.728-9.922l-11.457-6.615a3.819 3.819 150 0 0-5.728 3.307 11.457 11.457 60 0 0 5.728 9.922z" fill="#666"/><path d="M62.108 86.66v13.229l22.914 13.229V99.889z" fill="#4d4d4d"/><path d="M4.514 28.716c-3.041-.003-5.958 1.203-8.109 3.352l-11.587 6.689-3.359 8.106 11.587-6.69v26.458A34.37 34.37 0 0 0 7.709 94.79L4.954 93.2h-.001 0l-11.586 6.688v13.229l11.586-6.689h.001l11.326-6.539 74.148 42.81c.948.547 1.969.955 3.032 1.213l-3.162 5.477 11.587-6.69h.001a11.46 11.46 0 0 0 5.728-9.921V106.32A34.37 34.37 0 0 0 90.43 76.555h-.001L10.231 30.252c-1.738-1.004-3.71-1.533-5.717-1.535z" fill="#87cdde"/><path d="M-7.073 35.405c-3.041-.003-5.958 1.203-8.109 3.352s-3.359 5.065-3.359 8.106v26.458a34.37 34.37 0 0 0 14.665 28.16l-2.757-1.592v13.229l11.327-6.539 74.148 42.81c3.545 2.046 7.912 2.046 11.457 0s5.728-5.829 5.728-9.922v-26.459a34.37 34.37 0 0 0-17.185-29.765L-1.356 36.941c-1.738-1.004-3.71-1.534-5.717-1.536z" fill="#afdde9"/><path d="M55.822-66.504a11.479 11.479 60.948 0 1 5.575 10.036 3.848 3.848 162.877 0 1-6.23 1.919 10.145 10.145 59.908 0 1-5.633-9.721 3.915 3.915 160.438 0 1 6.289-2.235z" fill="#4d4d4d"/><path d="M-4.321 136.061l-4.894 9.253L2.242 138.7v26.458a34.37 34.37 0 0 0 17.185 29.766l68.741 39.687 5.728 9.922-5.728 3.307v13.23l11.457-6.615v-6.616l11.457-6.614h.001a11.46 11.46 0 0 0 5.728-9.921v-26.458a34.37 34.37 0 0 0-17.185-29.766l-80.198-46.303c-7.759-4.191-17.321 3.279-23.748 7.283z" fill="#9fd3b4"/><path d="M2.253 133.858a11.46 11.46 0 0 0-8.108 3.351c-2.151 2.148-3.36 5.064-3.36 8.105v26.459A34.37 34.37 0 0 0 7.97 201.538l68.741 39.688 11.457 19.844v-13.23a11.46 11.46 0 0 0 17.185-9.921V211.46a34.37 34.37 0 0 0-17.185-29.765L7.97 135.392a11.46 11.46 0 0 0-5.717-1.534z" fill="#afe9c6"/><path d="M20.129 268.369l52.521 30.41a1.664 1.664 149.909 0 0 2.498-1.447l-.001-.166a5.04 5.04 59.821 0 0-2.528-4.347l-52.416-30.135a1.702 1.702 150.299 0 0-2.551 1.455 4.856 4.856 59.655 0 0 2.477 4.23zM-7.759 41.837l45.827 26.458a11.457 11.457 60 0 1 5.728 9.922 3.819 3.819 150 0 1-5.728 3.307L-7.759 55.066a11.457 11.457 60 0 1-5.728-9.922 3.819 3.819 150 0 1 5.728-3.307zm67.154 39.158l22.914 13.229a11.457 11.457 60 0 1 5.728 9.922 3.819 3.819 150 0 1-5.728 3.307L59.395 94.224a11.457 11.457 60 0 1-5.728-9.922 3.819 3.819 150 0 1 5.728-3.307zm-67.154.529l11.457 6.615a3.82 3.82 0 0 0 5.728-3.307c0-4.093-2.183-7.875-5.728-9.922l-11.457-6.615a3.82 3.82 0 0 0-5.728 3.307c0 4.093 2.183 7.875 5.728 9.922zm34.371 6.615l45.827 26.458a11.457 11.457 60 0 1 5.728 9.922 3.819 3.819 150 0 1-5.728 3.307l-45.827-26.458a11.457 11.457 60 0 1-5.728-9.922 3.819 3.819 150 0 1 5.728-3.307zM3.698 141.055l22.914 13.229a11.457 11.457 60 0 1 5.728 9.922 3.819 3.819 150 0 1-5.728 3.307L3.698 154.285a11.457 11.457 60 0 1-5.728-9.922 3.819 3.819 150 0 1 5.728-3.307zm42.652 24.871l45.827 26.458a11.457 11.457 60 0 1 5.728 9.922 3.819 3.819 150 0 1-5.728 3.307L46.35 179.155a11.457 11.457 60 0 1-5.728-9.922 3.819 3.819 150 0 1 5.728-3.307zm-42.652 1.588l22.914 13.229a11.457 11.457 60 0 1 5.728 9.922 3.819 3.819 150 0 1-5.728 3.307L3.698 180.743a11.457 11.457 60 0 1-5.728-9.922 3.819 3.819 150 0 1 5.728-3.307zm45.827 26.458l22.914 13.229a11.457 11.457 60 0 1 5.728 9.922 3.819 3.819 150 0 1-5.728 3.307l-22.914-13.229a11.457 11.457 60 0 1-5.728-9.922 3.819 3.819 150 0 1 5.728-3.307z" fill="#666"/></g><g transform="translate(51.937 -79.225)"><g transform="matrix(.117272 0 0 .117272 68.664918 211.394009)"><path d="M30.004 360.207V65.701C30.004 45.984 45.988 30 65.705 30h196.473l147.201 147.201V390.07H30.006v-29.86z" fill="#fa8d00"/><path d="M409.372 390.067v99.585c0 16.003-15.98 28.972-35.698 28.972H65.698c-19.717 0-35.701-12.97-35.701-28.972v-99.585h379.372z" fill="#ff7000"/><path d="M304.849 353.534H134.541l-1.208-.019-2.657-.173c-2.794-.277-5.555-.855-8.221-1.72-3.497-1.133-6.829-2.759-9.873-4.816a39.29 39.29 0 0 1-8.08-7.273 39.72 39.72 0 0 1-3.752-5.302 39.13 39.13 0 0 1-3.223-6.935c-.982-2.796-1.647-5.703-1.977-8.648a38.45 38.45 0 0 1-.203-2.656c-.022-.486-.035-.973-.038-1.46v-80.147a37.05 37.05 0 0 1 .028-1.448 38.54 38.54 0 0 1 .189-2.659c.274-2.63.821-5.232 1.619-7.752a39.23 39.23 0 0 1 2.676-6.397c1.303-2.484 2.879-4.828 4.682-6.976a39.36 39.36 0 0 1 7.287-6.725c2.992-2.132 6.286-3.839 9.755-5.058 2.723-.956 5.544-1.609 8.41-1.948a39 39 0 0 1 2.898-.234 42.96 42.96 0 0 1 1.458-.036h170.785l1.218.026c.889.033 1.777.096 2.662.189 2.789.294 5.545.889 8.207 1.769 3.412 1.129 6.669 2.729 9.647 4.742a39.42 39.42 0 0 1 7.443 6.539c1.487 1.687 2.832 3.501 4.012 5.418a39.25 39.25 0 0 1 3.596 7.553 38.98 38.98 0 0 1 1.949 8.409c.113.961.193 1.927.236 2.894l.033 1.461V314.3c0 .482-.005.965-.024 1.447a41.79 41.79 0 0 1-.189 2.661 39.4 39.4 0 0 1-1.699 7.979c-1.133 3.496-2.756 6.829-4.814 9.874-1.808 2.677-3.95 5.128-6.357 7.281a39.2 39.2 0 0 1-6.631 4.788c-2.078 1.192-4.262 2.192-6.522 2.986a39.32 39.32 0 0 1-7.735 1.862c-.717.225-1.288.225-2.383.356h-2.893zm6.631-16.599a22.53 22.53 0 0 0 .783-.244 23.6 23.6 0 0 0 6.277-3.181 23.56 23.56 0 0 0 4.837-4.607 23.71 23.71 0 0 0 4.941-12.138c.08-.774.123-1.551.127-2.329v-80.184c-.005-.778-.047-1.555-.127-2.329-.189-1.772-.576-3.523-1.156-5.207a23.72 23.72 0 0 0-3.785-6.931 23.56 23.56 0 0 0-4.837-4.607 23.6 23.6 0 0 0-11.209-4.245 24.34 24.34 0 0 0-2.331-.13H134.564l-.892.016c-.533.02-1.067.058-1.595.114-1.775.187-3.525.575-5.21 1.156-2.728.941-5.281 2.385-7.495 4.243a23.86 23.86 0 0 0-4.21 4.617c-1.284 1.855-2.303 3.895-3.011 6.038a23.85 23.85 0 0 0-1.067 4.935 24.02 24.02 0 0 0-.127 2.33v80.184c0 .293.009.585.019.878.028.582.076 1.163.142 1.742.203 1.722.595 3.417 1.17 5.053.864 2.45 2.128 4.755 3.738 6.794a23.68 23.68 0 0 0 4.837 4.607 23.66 23.66 0 0 0 6.277 3.181 23.62 23.62 0 0 0 4.79 1.048 24.33 24.33 0 0 0 2.473.145l5.659.017 42.206-56.681c.109-.135.212-.275.326-.407a7.84 7.84 0 0 1 .727-.744 7.85 7.85 0 0 1 3.676-1.845 7.74 7.74 0 0 1 1.029-.138c.175-.012.349-.012.519-.017l.519.017c.175.017.349.029.519.051a7.88 7.88 0 0 1 4.191 1.932 7.79 7.79 0 0 1 .722.744c.113.132.217.271.326.407l13.507 18.138 33.183-53.014c.363-.458.675-.959 1.09-1.374a7.88 7.88 0 0 1 1.369-1.096c.997-.627 2.123-1.022 3.294-1.154.58-.066 1.17 0 1.756 0l1.713.391c.524.254 1.085.451 1.576.763 1.336.84 1.501 1.259 2.464 2.47l56.705 90.591zm-151.892.95h57.918l-28.959-38.892-28.959 38.892zm58.772-25.058l18.661 25.058h56.592l-45.468-72.643-29.785 47.582zm-64.308-87.887c11.388 0 20.634 9.245 20.634 20.633s-9.246 20.632-20.634 20.632-20.634-9.245-20.634-20.632 9.246-20.633 20.634-20.633zm0 7.974a12.67 12.67 0 0 1 12.662 12.659 12.67 12.67 0 0 1-12.662 12.659 12.67 12.67 0 0 1-12.658-12.659 12.67 12.67 0 0 1 12.658-12.659z" fill="#fff"/><path d="M1117.8 211.44h.14l311.94 311.94v260.83c-2.19 1.131-4.06 1.055-5.56-.442-14.77-14.769-292.47-273.35-292.47-294.24 0-91.863-13.88-275.89-14.05-278.09z" transform="matrix(.47195 0 0 .47195 -265.441443 -69.791)" fill="url(#B)"/><path d="M262.104 29.998h.066l147.22 147.22H299.27c-9.857 0-19.311-3.916-26.281-10.886s-10.886-16.424-10.885-26.281V29.997z" fill="#ff7000"/><path d="M141.875 415.265h19.872V462.7c0 5.158-.333 9.118-.999 11.884s-1.764 5.206-3.296 7.339c-2.03 2.761-4.527 4.852-7.489 6.267s-6.291 2.119-9.986 2.119c-4.593 0-8.688-.982-12.282-2.945s-6.674-4.875-9.237-8.736l12.183-11.034c.3 2.162.999 3.828 2.097 4.989s2.48 1.751 4.144 1.751c1.897 0 3.204-1.052 3.92-3.148s1.074-7.339 1.074-15.725v-40.195zm53.274 73.114h-18.674v-73.1h20.821c8.155 0 13.88.4 17.174 1.198s6.093 2.164 8.391 4.094c2.695 2.23 4.753 5.019 6.164 8.365s2.124 7.065 2.124 11.157c0 4.361-.698 8.198-2.095 11.511s-3.464 6.032-6.192 8.165c-2.062 1.595-4.493 2.742-7.292 3.445s-7.273 1.048-13.43 1.048h-6.99v24.117zm0-40.196h3.794c4.794 0 8.14-.656 10.037-1.973s2.846-3.554 2.846-6.716c0-3.063-.934-5.243-2.799-6.541s-5.158-1.944-9.885-1.944h-3.995v17.174zm80.897 13.248v-15.329h39.144l.076 1.647.024 2.648c0 12.582-3.318 22.342-9.958 29.284s-15.985 10.411-28.039 10.411c-5.923 0-11.19-.892-15.801-2.671s-8.731-4.502-12.356-8.165c-3.464-3.497-6.15-7.631-8.066-12.408s-2.869-9.779-2.869-15.003c0-5.46.93-10.477 2.794-15.055s4.644-8.693 8.339-12.356a37.02 37.02 0 0 1 12.606-8.089c4.743-1.831 9.864-2.746 15.353-2.746 7.159 0 13.493 1.415 19.001 4.244s10.142 7.04 13.904 12.632l-17.273 8.287c-2.067-2.827-4.384-4.932-6.966-6.315s-5.47-2.072-8.665-2.072c-5.956 0-10.652 1.987-14.078 5.965s-5.144 9.411-5.144 16.301c0 6.957 1.718 12.436 5.144 16.429s8.122 5.989 14.078 5.989c5.059 0 9.279-1.237 12.658-3.719s5.352-5.781 5.918-9.911h-19.822z" fill="#fff"/><g transform="matrix(.47195 0 0 .47195 -260.447235 466.346313)"><use href="#C" fill="#eb0005"/><use href="#D" fill="#c20004"/><path d="M1187.19 907.895H875.112l-1.562-.072a16.98 16.98 0 0 1-4.551-1.07 16.99 16.99 0 0 1-6.392-4.38c-1.756-1.928-3.055-4.259-3.769-6.767-.286-1.004-.479-2.032-.574-3.07l-.072-1.562V496.623l.072-1.562a16.98 16.98 0 0 1 1.07-4.551 16.99 16.99 0 0 1 4.38-6.392 16.98 16.98 0 0 1 6.77-3.769 16.77 16.77 0 0 1 3.068-.574l1.562-.072h312.078l1.559.072 1.549.216a16.79 16.79 0 0 1 3.002.854 17 17 0 0 1 5.289 3.274 16.96 16.96 0 0 1 4.377 6.392 16.97 16.97 0 0 1 1.072 4.551l.072 1.562v394.351l-.072 1.562a16.97 16.97 0 0 1-1.072 4.551c-.941 2.432-2.449 4.634-4.377 6.392s-4.261 3.055-6.77 3.769a16.76 16.76 0 0 1-3.07.574l-1.559.072zm-16.923-394.351H892.026v360.514h278.241V513.544zm-31.038 291.928v23.62H914.445v-23.62h224.783zm-224.783-49.429h224.783v23.62H914.445v-23.62zm0-49.432h224.783v23.623H914.445v-23.623zm0-49.429h224.783v23.623H914.445v-23.623zm116.71-98.776h108.078v72.967h-108.078v-72.967zm-116.71 49.429h89.445v23.538h-89.445v-23.538zm0-49.429h89.445v23.623h-89.445v-23.623z" fill="#fff"/><path d="M1117.8 211.44h.14l311.94 311.94v260.83c-2.19 1.131-4.06 1.055-5.56-.442-14.77-14.769-292.47-273.35-292.47-294.24 0-91.863-13.88-275.89-14.05-278.09z" transform="translate(3.26)" fill="url(#B)"/><use href="#E" fill="#c20004"/><g fill="#fff"><path d="M876.68 1182.689h-39.567v-154.89h44.116c17.28 0 29.411.847 36.394 2.539s12.907 4.585 17.773 8.675c5.713 4.726 10.068 10.634 13.066 17.724 2.997 7.08 4.496 14.97 4.496 23.64 0 9.24-1.481 17.37-4.443 24.39-2.963 7.01-7.335 12.78-13.119 17.3-4.373 3.38-9.521 5.81-15.446 7.3-5.924 1.48-15.411 2.22-28.458 2.22H876.68v51.1zm0-85.17h8.041c10.156 0 17.244-1.39 21.264-4.18 4.021-2.78 6.031-7.53 6.031-14.23 0-6.49-1.975-11.11-5.925-13.86s-10.932-4.12-20.947-4.12h-8.464v36.39zm97.75 85.17v-154.89h32.269c24.05 0 41.06 1.129 51.04 3.386s18.75 6.03 26.29 11.32c9.81 6.842 17.25 15.602 22.33 26.292 5.07 10.68 7.61 22.87 7.61 36.55s-2.54 25.87-7.61 36.55c-5.08 10.69-12.52 19.45-22.33 26.29-7.47 5.22-16.01 8.94-25.6 11.16s-24.47 3.34-44.64 3.34H974.43zm41.789-34.71h7.09c16.57 0 28.67-3.4 36.29-10.21 7.61-6.8 11.42-17.61 11.42-32.42s-3.81-25.67-11.42-32.59c-7.62-6.91-19.72-10.36-36.29-10.36h-7.09v85.58z"/><use href="#F"/></g></g><g transform="matrix(.47195 0 0 .47195 155.992111 -73.45826)"><use href="#C" fill="#c60054"/><use href="#D" fill="#aa034a"/><path d="M1117.8 211.44h.14l311.94 311.94v260.83c-2.19 1.131-4.06 1.055-5.56-.442-14.77-14.769-292.47-273.35-292.47-294.24 0-91.863-13.88-275.89-14.05-278.09z" transform="translate(3.26)" fill="url(#B)"/><use href="#E" fill="#aa034a"/><g fill="#fff"><path d="M853.35 1182.689v-118.28h-34.701v-36.608h111.61v36.608h-34.7v118.28h-42.212zm98.6-154.92h42.635v154.88H951.95z"/><use href="#F" x="-111.8"/><path d="M1146.5 1182.689v-154.89h94.89v33.958h-53.74v26.87h50.68v33.22h-50.68v60.84h-41.15zm-47.586-453.611h183.827v183.819h-183.827V729.078zm-212.558 0c50.724 0 91.914 41.183 91.914 91.909s-41.189 91.909-91.914 91.909-91.914-41.183-91.914-91.909 41.189-91.909 91.914-91.909zm254.065-29.25H921.612l109.415-218.83 109.394 218.83z"/></g></g><path d="M868.754 360.207V65.701c0-19.717 15.984-35.701 35.701-35.701h196.473l147.201 147.201V390.07H868.756v-29.86z" fill="#40c022"/><path d="M1248.122 390.067v99.585c0 16.003-15.98 28.972-35.698 28.972H904.448c-19.717 0-35.701-12.97-35.701-28.972v-99.585h379.372z" fill="#1da525"/><path d="M1117.8 211.44h.14l311.94 311.94v260.83c-2.19 1.131-4.06 1.055-5.56-.442-14.77-14.769-292.47-273.35-292.47-294.24 0-91.863-13.88-275.89-14.05-278.09z" transform="matrix(.47195 0 0 .47195 573.308557 -69.791)" fill="url(#B)"/><path d="M1100.854 29.998h.066l147.22 147.22h-110.12c-9.857 0-19.311-3.916-26.281-10.886s-10.886-16.424-10.885-26.281V29.997z" fill="#1da525"/><path d="M1038.42 488.379h-18.624l-4.294-31.606-.824-7.443-.674-8.934c-.466 3.096-1.381 6.957-2.746 11.582l-.649 2.147-9.936 34.254h-13.281l-9.936-34.254-.599-2.147c-1.398-4.625-2.313-8.472-2.746-11.534l-.699 8.217c-.266 2.709-.582 5.413-.949 8.113l-4.294 31.606h-18.524l11.284-73.1h19.722l11.035 37.698c.067.264.2.698.399 1.298 1.032 3.36 1.681 6.239 1.947 8.637.133-1.298.383-2.737.749-4.318s.866-3.488 1.498-5.72l11.134-37.595h19.772l11.234 73.1zm29.417 0h-18.675v-73.1h20.822c8.155 0 13.88.4 17.174 1.198s6.093 2.164 8.391 4.094c2.695 2.23 4.748 5.019 6.164 8.365s2.124 7.065 2.124 11.157c0 4.361-.698 8.198-2.1 11.511s-3.459 6.032-6.187 8.165c-2.067 1.595-4.498 2.742-7.292 3.445s-7.273 1.048-13.432 1.048h-6.99v24.117zm0-40.196h3.794c4.795 0 8.136-.656 10.034-1.973s2.846-3.554 2.846-6.716c0-3.063-.93-5.243-2.794-6.541s-5.158-1.944-9.887-1.944h-3.993v17.174zm74.332 9.425v-21.271c0-1.963.038-3.606.123-4.918s.208-2.44.373-3.37c-.628 1.43-1.336 2.86-2.119 4.29s-1.741 3.03-2.869 4.795l-13.432 20.473h17.925zm0 30.757v-16.381h-33.254v-14.376l27.213-41.943h22.715v41.943h8.089v14.376h-8.089v16.381h-16.674zm-20.671-214.016l-126.159 76.736V197.604l126.159 76.745z" fill="#fff"/><path d="M462.44 908.168V613.662c0-19.717 15.984-35.701 35.701-35.701h196.473l147.201 147.201V938.03H462.442v-29.86z" fill="#00c783"/><path d="M841.807 938.028v99.585c0 16.003-15.98 28.972-35.698 28.972H498.133c-19.717 0-35.701-12.97-35.701-28.972v-99.585h379.372z" fill="#00af73"/><path d="M737.284 901.495H566.976l-1.208-.019-2.657-.173c-2.794-.277-5.555-.855-8.221-1.72-3.497-1.133-6.829-2.759-9.873-4.816a39.29 39.29 0 0 1-8.08-7.273 39.72 39.72 0 0 1-3.752-5.302 39.13 39.13 0 0 1-3.223-6.935c-.982-2.796-1.647-5.703-1.977-8.648a38.45 38.45 0 0 1-.203-2.656c-.022-.486-.035-.973-.038-1.46v-80.147a37.05 37.05 0 0 1 .028-1.448 38.54 38.54 0 0 1 .189-2.659c.274-2.63.821-5.232 1.619-7.752a39.23 39.23 0 0 1 2.676-6.397c1.303-2.484 2.879-4.828 4.682-6.976a39.36 39.36 0 0 1 7.287-6.725c2.992-2.132 6.286-3.839 9.755-5.058 2.723-.956 5.544-1.609 8.41-1.948a39 39 0 0 1 2.898-.234 42.96 42.96 0 0 1 1.458-.036H737.53l1.218.026c.889.033 1.777.096 2.662.189 2.789.294 5.545.889 8.207 1.769 3.412 1.129 6.669 2.729 9.647 4.742a39.42 39.42 0 0 1 7.443 6.539c1.487 1.687 2.832 3.501 4.012 5.418a39.25 39.25 0 0 1 3.596 7.553 38.98 38.98 0 0 1 1.949 8.409c.113.961.193 1.927.236 2.894l.033 1.461v80.147c0 .482-.005.965-.024 1.447a41.79 41.79 0 0 1-.189 2.661 39.4 39.4 0 0 1-1.699 7.979c-1.133 3.496-2.756 6.829-4.814 9.874-1.808 2.677-3.95 5.128-6.357 7.281a39.2 39.2 0 0 1-6.631 4.788c-2.078 1.192-4.262 2.192-6.522 2.986a39.32 39.32 0 0 1-7.735 1.862c-.717.225-1.288.225-2.383.356h-2.893zm6.631-16.599a22.53 22.53 0 0 0 .783-.244 23.6 23.6 0 0 0 6.277-3.181 23.56 23.56 0 0 0 4.837-4.607 23.71 23.71 0 0 0 4.941-12.138c.08-.774.123-1.551.127-2.329v-80.184c-.005-.778-.047-1.555-.127-2.329-.189-1.772-.576-3.523-1.156-5.207a23.72 23.72 0 0 0-3.785-6.931 23.56 23.56 0 0 0-4.837-4.607 23.6 23.6 0 0 0-11.209-4.245 24.34 24.34 0 0 0-2.331-.13H567l-.892.016c-.533.02-1.067.058-1.595.114-1.775.187-3.525.575-5.21 1.156-2.728.941-5.281 2.385-7.495 4.243a23.86 23.86 0 0 0-4.21 4.617c-1.284 1.855-2.303 3.895-3.011 6.038a23.85 23.85 0 0 0-1.067 4.935 24.02 24.02 0 0 0-.127 2.33v80.184c0 .293.009.585.019.878.028.582.076 1.163.142 1.742.203 1.722.595 3.417 1.17 5.053.864 2.45 2.128 4.755 3.738 6.794a23.68 23.68 0 0 0 4.837 4.607 23.66 23.66 0 0 0 6.277 3.181 23.62 23.62 0 0 0 4.79 1.048 24.33 24.33 0 0 0 2.473.145l5.659.017 42.206-56.681c.109-.135.212-.275.326-.407a7.84 7.84 0 0 1 .727-.744 7.85 7.85 0 0 1 3.676-1.845 7.74 7.74 0 0 1 1.029-.138c.175-.012.349-.012.519-.017l.519.017c.175.017.349.029.519.051a7.88 7.88 0 0 1 4.191 1.932 7.79 7.79 0 0 1 .722.744c.113.132.217.271.326.407l13.507 18.138 33.183-53.014c.363-.458.675-.959 1.09-1.374a7.88 7.88 0 0 1 1.369-1.096c.997-.627 2.123-1.022 3.294-1.154.58-.066 1.17 0 1.756 0l1.713.391c.524.254 1.085.451 1.576.763 1.336.84 1.501 1.259 2.464 2.47l56.705 90.591zm-151.892.95h57.918l-28.959-38.892-28.959 38.892zm58.772-25.058l18.661 25.058h56.592l-45.468-72.643-29.785 47.582zm-64.308-87.887c11.388 0 20.634 9.245 20.634 20.633s-9.246 20.632-20.634 20.632-20.634-9.245-20.634-20.632 9.246-20.633 20.634-20.633zm0 7.974a12.67 12.67 0 0 1 12.662 12.659 12.67 12.67 0 0 1-12.662 12.659 12.67 12.67 0 0 1-12.658-12.659 12.67 12.67 0 0 1 12.658-12.659z" fill="#fff"/><path d="M1117.8 211.44h.14l311.94 311.94v260.83c-2.19 1.131-4.06 1.055-5.56-.442-14.77-14.769-292.47-273.35-292.47-294.24 0-91.863-13.88-275.89-14.05-278.09z" transform="matrix(.47195 0 0 .47195 166.994108 478.169891)" fill="url(#B)"/><path d="M694.54 577.959h.066l147.22 147.22h-110.12c-9.857 0-19.311-3.916-26.281-10.886s-10.886-16.424-10.885-26.281V577.958z" fill="#00af73"/><path d="M559.529 1036.34h-18.674v-73.1h20.821c8.155 0 13.88.4 17.176 1.198s6.091 2.164 8.388 4.094c2.696 2.23 4.752 5.019 6.166 8.365s2.122 7.065 2.122 11.157c0 4.361-.699 8.198-2.097 11.511s-3.462 6.032-6.192 8.165c-2.064 1.595-4.493 2.742-7.29 3.445s-7.273 1.048-13.431 1.048h-6.991v24.117zm0-40.196h3.795c4.793 0 8.138-.656 10.036-1.973s2.846-3.554 2.846-6.716c0-3.063-.932-5.243-2.796-6.541s-5.159-1.944-9.886-1.944h-3.995v17.174zm46.138 40.196v-73.1h19.223l27.61 37.595c.533.769 1.406 2.308 2.624 4.62s2.553 5.069 4.016 8.264c-.396-3.03-.689-5.725-.873-8.089s-.274-4.46-.274-6.291V963.24h19.123v73.1h-19.123l-27.611-37.751c-.566-.765-1.456-2.303-2.671-4.616s-2.538-5.036-3.969-8.165c.399 3.063.69 5.777.874 8.141s.275 4.46.275 6.291v36.099h-19.223zm121.881-26.948v-15.329h39.144l.076 1.647.028 2.648c0 12.582-3.323 22.342-9.963 29.284s-15.985 10.411-28.034 10.411c-5.928 0-11.195-.892-15.806-2.671s-8.726-4.502-12.356-8.165c-3.464-3.497-6.15-7.631-8.066-12.408s-2.869-9.779-2.869-15.003c0-5.46.934-10.477 2.799-15.055s4.639-8.693 8.335-12.356a37.04 37.04 0 0 1 12.611-8.089c4.743-1.831 9.859-2.746 15.353-2.746 7.155 0 13.488 1.415 18.996 4.244s10.147 7.04 13.908 12.632l-17.278 8.287c-2.062-2.827-4.384-4.932-6.966-6.315s-5.465-2.072-8.66-2.072c-5.961 0-10.652 1.987-14.083 5.965s-5.14 9.411-5.14 16.301c0 6.957 1.713 12.436 5.14 16.429s8.122 5.989 14.083 5.989c5.059 0 9.279-1.237 12.658-3.719s5.347-5.781 5.914-9.911h-19.822z" fill="#fff"/></g><g transform="matrix(1.172014 0 0 1.170377 175.090042 282.485229)"><g fill="#eef6f9" stroke="#9acbcc"><path d="M.5.5V47h35.25V8.969L26 .5H.5z"/><path d="M26 .5l9.769 8.484H26V.5z" stroke-linejoin="round"/></g><g fill="#819e9e" fill-opacity=".579"><rect x="11.753" y="7.007" width="11.433" height="1.936" rx="1" ry=".968"/><rect x="3.753" y="7.007" width="6.03" height="1.936" rx="1" ry=".968"/><rect x="3.753" y="11.007" width="5.773" height="1.936" rx="1" ry=".968"/><rect x="3.753" y="15.007" width="7.059" height="1.936" rx="1" ry=".968"/><rect x="17.753" y="19.007" width="14.52" height="1.936" rx="1" ry=".968"/><rect x="3.753" y="23.007" width="9.632" height="1.936" rx="1" ry=".968"/><rect x="3.753" y="27.007" width="14.52" height="1.936" rx="1" ry=".968"/><rect x="24.501" y="15.007" width="7.574" height="1.936" rx="1" ry=".968"/><rect x="3.753" y="19.007" width="4.486" height="1.936" rx="1" ry=".968"/><rect x="12.957" y="15.007" width="9.117" height="1.936" rx="1" ry=".968"/><rect x="11.753" y="19.007" width="4.486" height="1.936" rx="1" ry=".968"/><rect x="11.753" y="11.007" width="5.773" height="1.936" rx="1" ry=".968"/><rect x="19.753" y="11.007" width="5.773" height="1.936" rx="1" ry=".968"/><rect x="23.297" y="23.007" width="8.088" height="1.936" rx="1" ry=".968"/><rect x="15.297" y="23.007" width="6.03" height="1.936" rx="1" ry=".968"/><rect x="3.753" y="31.007" width="8.088" height="1.936" rx="1" ry=".968"/><rect x="3.753" y="35.007" width="14.52" height="1.936" rx="1" ry=".968"/><rect x="3.753" y="39.007" width="6.802" height="1.936" rx="1" ry=".968"/><rect x="13.753" y="31.007" width="8.088" height="1.936" rx="1" ry=".968"/><rect x="13.753" y="39.007" width="6.802" height="1.936" rx="1" ry=".968"/></g><g stroke-linejoin="round"><use href="#G" fill="none" stroke="#fff" stroke-width="4.21"/><use href="#G" fill="red" stroke="#6b1a11" stroke-width="1.25"/></g></g></g></svg>