<svg xmlns="http://www.w3.org/2000/svg" viewBox="207.848 176.761 332.855 253.067" xmlns:v="https://vecta.io/nano"><style><![CDATA[.B{fill-opacity:0}.C{stroke:#000}.D{fill:#fff}.E{fill-rule:evenodd}.F{fill:#b33a28}]]></style><defs><linearGradient id="A" x1="4.878" y1="53.388" x2="42.384" y2="5.945" gradientTransform="matrix(8.712835, 0, 0, 6.623706, 165.313782, 139.651658)" spreadMethod="pad" gradientUnits="userSpaceOnUse"><stop offset="0" stop-color="#e3a3d5"/><stop offset="1" stop-color="rgba(188, 56, 106, 0.773)"/></linearGradient><radialGradient id="B" cx="1207.8" cy="104.56" r="190.91" gradientTransform="matrix(.963 .27 -.27 .963 0 0)" gradientUnits="userSpaceOnUse"><stop stop-color="#ffddbf" offset="0"/><stop stop-color="#5166e3" offset="1"/></radialGradient><radialGradient id="C" cx="532.44" cy="140.91" r="190.91" gradientTransform="matrix(1 .025 -.025 1 0 0)" gradientUnits="userSpaceOnUse"><stop stop-color="#ffddbf" offset="0"/><stop stop-color="#5166e3" offset="1"/></radialGradient><path id="D" d="M264.636 224.788l2.706-4.684h18.939l2.593 4.966-24.238-.282z"/><path id="E" d="M538.42 562.27c-150.55 38.508-238.38 110.02-264.05 161.37-54.179 108.36-49.51 223.96-33.006 392.41s62.346 388.74 135.69 484.1c183.81 238.95 960.86 319.06 1081.9 293.39 111.75-23.704 227.38-51.093 282.39-223.71s22.451-405.74-40.341-594.12c-40.342-121.02-116.56-122.3-154.03-234.72-55.011-165.03-201.71-308.06-253.05-337.4-140.93-80.532-253.05-47.677-377.74-22.005-337.4 66.014-302.92 61.545-377.74 80.683z"/><path id="F" d="m292.63 682.74c8.552-57.297 17.154-531.17 22.076-538.55 37.685-56.528 267.24-42.256 282.39 18.337 6.347 25.384-33.031 73.545-36.674 102.69-11.321 90.572-25.672 183.26-25.672 275.06z"/><path id="G" d="m362.49 1606.9c-5.504 56.399 4.011 110.58 10.887 165.59 5.764 46.112-14.571 117.46 22.005 154.03 73.919 73.918 377.47 94.27 322.73-124.69z"/><path id="H" d="M928.99 382.94c-7.61 29.489-96.85 174.34-64.18 223.34 8.105 12.158 67.481 46.21 124.69 60.512 52.743 13.186 100.12 8.802 135.69-9.168 32.392-16.363 69.544-212.31 45.843-238.38-22.005-24.205-58.312-37.407-116.62-55.011s-121.02 1.651-125.42 18.704z"/><path id="I" d="M1045.5 449.21c-67.814-18.987-117.23-54.24-110.37-78.741s67.395-28.971 135.21-9.984 117.23 54.24 110.37 78.741-67.395 28.971-135.21 9.984z"/><path id="J" d="M1049.5 437.8c-60.268-16.873-104.99-45.32-99.889-63.536s58.091-19.303 118.36-2.43 104.99 45.321 99.889 63.537-58.091 19.303-118.36 2.429z"/><path id="K" d="M447.86 198.16c-70.4-1.74-126.96-23.77-126.33-49.206s58.209-44.644 128.61-42.903 126.96 23.77 126.33 49.206-58.209 44.644-128.61 42.903z"/><path id="L" d="M448.88 186.13c-62.566-1.547-112.91-18.131-112.44-37.041s51.566-32.987 114.13-31.441 112.91 18.131 112.44 37.042-51.566 32.987-114.13 31.44z"/><path id="M" d="M1163.2 593.28c29.094 24.937 129.64 126.05 150.59 275.33 17.604 125.43-232.58 251.82-205.74 394.98 6.601 35.207 23.292-163.74 135.33-171.63 34.726-2.446 5.329 196.38 21.368 192.81 0 0 8.338-215.91 22.641-239.02 10.88-17.576 55.156-121.44 77.015-99.02 42.909 44.009 59.657 81.645 62.713 148.53 9.902 216.74-161.73 235.45-153.79 273.14 3.936 18.682 92.374-58.869 107.58-47.596s-27.126 138.22-.36 150.53c26.765 12.304 39.968-340.87 99.38-355.17 0 0 109.92 87.736 121.02 135.33 7.702 33.007 53.911 180.44 56.112 224.44 1.314 26.293 11.002 150.73 28.605 149.63 15.612-.976-35.776-243.12-17.603-269.56 12.102-17.604 53.566 70.199 57.212 95.719 3.3 23.105.683 154.84 8.801 195.84s20.152-194.15 8.802-233.25c-29.706-102.32-267.34-344.65-271.76-365.27-4.411-20.625 115.52 60.512 157.33 97.92 16.655 14.901-6.602 40.708 9.902 64.913 23.755 34.841 72.615 102.32 85.817 103.42 50.823 4.235-89.754-138.71-69.314-179.34 7.69-15.283-80.684-29.974-85.817-63.812s150.86 61.804 133.13 38.507-78.615-49.927-81.417-57.211c-11.609-30.185-90.591-21.427-141.56-43.17s-128.8-153.57-117.94-182.28 394.31 215.42 231.6 64.333c-73.479-68.231-250.04-117.61-261.45-138.15-14.11-25.397-151.26-217.71-154.03-193.64-1.788 15.541-21.867 26.13-14.166 32.732z"/></defs><path d="M227.351 176.761c-10.815 0-19.503 9.705-19.503 21.743v209.591c0 12.039 8.688 21.733 19.503 21.733H356.37h35.473H521.2c10.814 0 19.503-9.694 19.503-21.733V198.504c0-12.038-8.689-21.743-19.503-21.743H227.351z" fill="url(#A)"/><path d="M346.166 369.278l57.813 1.308 4.753 45.299h-67.556l4.99-46.607z" fill="#f2f2f2"/><path d="M346.166 369.278l-1.511 14.103h60.666l-1.343-12.794-57.812-1.31v.001z" fill="#ccc"/><g class="E"><rect transform="matrix(1 0 0 -1 0 -2.362)" x="244.205" y="-382.499" width="261.499" height="171.906" ry="18.86" class="D"/><path d="M255.192 217.925h240.419v138.697H255.192z" fill="#f1e5e5"/></g><rect x="321.684" y="409.023" width="106.545" height="6.862" ry="3.138" class="D"/><circle cx="298.57" cy="343.21" r="10.648" fill="#333" transform="matrix(.631304 0 0 .632076 186.464844 151.520935)"/><g class="E"><path fill="#ececec" d="M255.192 352.014h240.419v4.604H255.192z"/><path d="M255.192 217.925h240.419v27.504H255.192z" fill="#515151"/></g><path d="M256.353 219.088h3.326v3.386h-3.326zm.392 3.911h2.931v2.984h-2.931zm3.516-2.505h1.945v1.98h-1.945zm0 2.505h2.522v2.568h-2.522z" class="D"/><g fill="#b3e5fc"><rect x="256.423" y="229.265" width="27.262" height="13.089" ry="3.788"/><rect x="285.595" y="229.265" width="57.235" height="13.089" ry="3.788"/><rect x="345.544" y="229.265" width="53.177" height="13.089" ry="3.788"/><rect x="481.495" y="229.265" width="12.593" height="13.089" ry="3.788"/><rect x="400.808" y="229.265" width="78.881" height="13.089" ry="3.788"/></g><g class="D"><rect x="403.283" y="231.168" width="11.95" height="9.594" ry="1.263"/><rect x="418.592" y="231.168" width="11.95" height="9.594" ry="1.263"/><rect x="433.895" y="231.168" width="11.95" height="9.594" ry="1.263"/><rect x="449.198" y="231.168" width="11.95" height="9.594" ry="1.263"/><rect x="464.507" y="231.168" width="11.95" height="9.594" ry="1.263"/><rect x="287.578" y="231.73" width="44.867" height="3.95" ry="1.263"/><rect x="333.972" y="231.844" width="6.2" height="4.063" ry="1.263"/></g><rect x="258.336" y="231.016" width="8.29" height="8.54" ry="1.263" fill="#ffd54f"/><rect x="262.161" y="233.892" width="5.739" height="7.024" ry="1.263" class="D"/><rect x="336.283" y="237.431" width="3.664" height="3.668" ry=".848" fill="#ba68c8"/><rect x="331.882" y="237.431" width="3.664" height="3.668" ry=".848" fill="#ef5350"/><g fill="#64b5f6"><rect x="270.292" y="231.977" width="11.2" height="2.115" ry=".694"/><rect x="270.292" y="235.086" width="11.2" height="2.115" ry=".694"/><rect x="270.292" y="238.24" width="11.2" height="2.115" ry=".694"/><rect x="347.753" y="231.395" width="3.468" height="3.711" ry="1.219"/><rect x="352.217" y="231.395" width="7.852" height="3.711" ry="1.219"/><rect x="361.383" y="231.395" width="34.795" height="3.711" ry="1.219"/><rect x="347.753" y="236.584" width="3.468" height="3.711" ry="1.219"/><rect x="352.217" y="236.584" width="7.852" height="3.711" ry="1.219"/><rect x="361.383" y="236.584" width="34.795" height="3.711" ry="1.219"/><rect x="289.901" y="237.842" width="11.678" height="2.833" ry=".93"/><rect x="303.215" y="237.842" width="11.678" height="2.833" ry=".93"/><rect x="316.921" y="237.842" width="11.678" height="2.833" ry=".93"/><rect x="483.023" y="231.06" width="9.487" height="2.695" ry=".885"/><rect x="483.023" y="234.783" width="9.487" height="2.695" ry=".885"/><rect x="483.023" y="238.399" width="9.487" height="2.695" ry=".885"/></g><g class="E"><g fill="#03a9f4"><use href="#D"/><path d="M286.17 224.788l2.705-4.684h18.939l2.593 4.966-24.237-.282z"/><use href="#D" x="42.613"/></g><g fill="#99d0e8"><path d="M328.221 224.788l2.844-4.684h29.87l3.473 4.966-36.187-.282z"/><path d="M361.263 224.788l1.489-4.684h28.675l3.871 4.966-34.035-.282z"/></g></g><path d="M267.42 220.004h60.105v3.352H267.42z" class="D"/><path d="M256.978 352.969h16.182v2.873h-16.182zm233.949 0h2.88v2.873h-2.88zm-3.605 0h2.88v2.873h-2.88z" fill="#b3b3b3"/><g transform="matrix(.047125 0 0 .039236 329.459167 258.68103)"><use href="#E" fill="#c86144"/><use href="#E" class="B C"/><use href="#F" fill="#c5402c"/><use href="#F" class="B C"/><use href="#G" fill="#d0442f"/><use href="#G" class="B C"/><use href="#H" class="F"/><use href="#H" class="B C"/><use href="#I" class="F"/><use href="#I" class="B C"/><use href="#J" fill="url(#B)"/><use href="#J" class="B C"/><use href="#K" class="F"/><use href="#K" class="B C"/><use href="#L" fill="url(#C)"/><use href="#L" class="B C"/><path d="M896 725.37c-48.566 70.161-91.835 111.57-137.84 183.86-40.729 64.002-244.8 385.22-233.29 430.58 41.782 164.67 265.35 96.922 366.21 103.23 147.44 9.215 326.88 154.84 496.47-46.698 71.116-84.515-137.64-388.33-250.32-478.22-33.933-27.068-4.705-111.76-35.594-140.6-42.417-39.589-90.887-74.28-146.66-74.28zm-245.78-51.61c-52.044-3.913-131.51-35.196-167.13 12.289-17.568 23.424-67.897 67.629-78.648 95.853-35.903 94.245-2.938 222.34 20.917 317.75 4.271 17.087 20.112 147.56 39.153 131.7 37.491-31.243 92.943-150.73 109.52-196.3 24.942-68.592 73.584-89.332 90.937-162.21 16.22-68.126-102.51-115.68-34.409-147.47z" fill="#eeb59c"/><path d="m410.1 1922c-8.337-36.299-9.271-74.832-13.208-112.24-2.08-19.758-17.459-138.01 0-147.71 8.604-4.78 129.31 57.057 138.82 69.408 45.681 59.385 35.186 190.45 10.678 218.9s-136.28-28.357-136.28-28.357z" fill="#ffd6d6"/><path d="m342.39 633.53c-5.605-66.467-24.636-471.89 10.441-434.12 10.067 10.84 84.856 22.736 96.658 18.446 20.472-7.44 10.702 78.261 11.304 111.96 1.209 67.61 10.706 149.88-6.958 207.46-13.331 43.461-78.08 56.634-105 94.323z" fill="#f1c2af"/><path d="M660.66 600.24c-36.596-8.885-152.52-7.611-138.51-64.937 28.251-115.57 43.314-589.83 193.64-512.12 62.405 32.26 159.32 52.123 196.18 118.48 22.492 40.485-47.135 230.58-25.149 325.26 9.172 39.501-81.378 56.257-90.778 93.857-16.426 65.706 11.158 152.37-3.822 217.84-34.396 150.32-180.53 361.5-214.02 419.12-36.289 62.436-101.17 119.12-58.156 218.25 23.853 54.965 76.929 62.979 133.73 72.944 38.343 0 388.1-50.5 447.95-57.981 36.368-4.546 81.476-67.176 96.324-69.204 27.261-3.724-59.534 109.98-130.14 105.96-59.461-3.379-143.73 9.217-162.57 23.092-11.586 8.532 229.49 53.905 245.07 52.53 17.98-1.586 89.83-59.122 89.83-59.122s-22 62.33-70.581 83.871c-30.434 13.495-168.98-16.362-186.08-23.832-126.95-55.456-298.92-15.295-298.38-15.295 83.414 0 341.76 97.9 407.17 118.02 49.458 15.218 169.83-.947 212.49 6.808 12.239 2.226 90.157-98.548 138.87-91.663 25.207 3.563-111.46 97.288-85.705 102.66 35.096 7.325 105.32-13.332 145.04 14.803 46.896 33.219 170-32.241 183.68-18.563 5.396 5.396-94.216 48.773-126.22 48.773-35.173 0-121.85-33.134-150.73-19.804-42.908 19.804-226.65-9.902-228.16 20.859-1.142 23.131 251.04 28.389 269.97 27.55 18.937-.838 41.394-16.62 50.487-17.78 45.919-5.862 85.977 38.103 85.977 38.103 14.093 9.247-65.656-18.878-79.253-15.922s-49.372 10.032-48.736 22.761c1.954 39.081 98.188 80.833 85 82.07-31.264 2.931-91.143-66.378-145.58-71.322-2.182-.199-199.31-9.771-232.53-19.541-15.234-4.48-31.782-44.451-44.943-51.782s-102.54-27.279-108.45-26.379c-20.499 3.125 89.885 97.702 127.01 98.678 24.403.643 103.68 10.222 109.42 16.61 8.793 9.77 83.046 56.667 85 74.253-42.988-29.311-112.36-50.805-237.41-58.621-64.15-4.009-42.448-53.93-104.43-88.364-37.703-20.946-31.176-34.894-113.05-82.656-24.719-14.419-112.42-64.615-126.12-39.492-15.287 28.027 15.1 97.261 35.67 91.723 99.366-26.752 220.39 109.56 205.1 132.49-11.173 16.76-66.244-133.76-244.59-99.366-29.69 5.726-48.409-159.24-140.13-178.35-16.278-3.391-125.03-97.932-122.3-81.531 5.096 30.574 99.359 274.22 86.627 248.42-48.409-98.093-62.697-129.46-131.32-214.94-38.116-47.485-2.446-214.37 48.511-295.9 17.357-27.773 80.349-148.48 98.186-177.2 29.206-47.015 66.761-97.257 91.629-171.86 6.369-19.109 31.75-116.52 33.122-155.42s-17.257-87.967-53.853-96.851z" fill="#c40000"/><path d="M660.66 600.24c-36.596-8.885-152.52-7.611-138.51-64.937 28.251-115.57 43.314-589.83 193.64-512.12 62.405 32.26 159.32 52.123 196.18 118.48 22.492 40.485-47.135 230.58-25.149 325.26 9.172 39.501-81.378 56.257-90.778 93.857-16.426 65.706 11.158 152.37-3.822 217.84-34.396 150.32-180.53 361.5-214.02 419.12-36.289 62.436-101.17 119.12-58.156 218.25 23.853 54.965 76.929 62.979 133.73 72.944h0c38.343 0 388.1-50.5 447.95-57.981 36.368-4.546 81.476-67.176 96.324-69.204 27.261-3.724-59.534 109.98-130.14 105.96-59.461-3.379-143.73 9.217-162.57 23.092-11.586 8.532 229.49 53.905 245.07 52.53 17.98-1.586 89.83-59.122 89.83-59.122s-22 62.33-70.581 83.871c-30.434 13.495-168.98-16.362-186.08-23.832-126.95-55.456-298.92-15.295-298.38-15.295 83.414 0 341.76 97.9 407.17 118.02 49.458 15.218 169.83-.947 212.49 6.808 12.239 2.226 90.157-98.548 138.87-91.663 25.207 3.563-111.46 97.288-85.705 102.66 35.096 7.325 105.32-13.332 145.04 14.803 46.896 33.219 170-32.241 183.68-18.563 5.396 5.396-94.216 48.773-126.22 48.773-35.173 0-121.85-33.134-150.73-19.804-42.908 19.804-226.65-9.902-228.16 20.859-1.142 23.131 251.04 28.389 269.97 27.55 18.937-.838 41.394-16.62 50.487-17.78 45.919-5.862 85.977 38.103 85.977 38.103 14.093 9.247-65.656-18.878-79.253-15.922s-49.372 10.032-48.736 22.761c1.954 39.081 98.188 80.833 85 82.07-31.264 2.931-91.143-66.378-145.58-71.322-2.182-.199-199.31-9.771-232.53-19.541-15.234-4.48-31.782-44.451-44.943-51.782s-102.54-27.279-108.45-26.379c-20.499 3.125 89.885 97.702 127.01 98.678 24.403.643 103.68 10.222 109.42 16.61 8.793 9.77 83.046 56.667 85 74.253-42.988-29.311-112.36-50.805-237.41-58.621-64.15-4.009-42.448-53.93-104.43-88.364-37.703-20.946-31.176-34.894-113.05-82.656-24.719-14.419-112.42-64.615-126.12-39.492-15.287 28.027 15.1 97.261 35.67 91.723 99.366-26.752 220.39 109.56 205.1 132.49-11.173 16.76-66.244-133.76-244.59-99.366-29.69 5.726-48.409-159.24-140.13-178.35-16.278-3.391-125.03-97.932-122.3-81.531 5.096 30.574 99.359 274.22 86.627 248.42-48.409-98.093-62.697-129.46-131.32-214.94-38.116-47.485-2.446-214.37 48.511-295.9 17.357-27.773 80.349-148.48 98.186-177.2 29.206-47.015 66.761-97.257 91.629-171.86 6.369-19.109 31.75-116.52 33.122-155.42s-17.257-87.967-53.853-96.851z" class="B C"/><path d="m575.43 562.74c-5.029-74.14-6.116-146.61 6.778-219.67 7.698-43.624 23.196-83.277 31.381-126.93 8.997-47.986 73.733-196.62 94.976-179.18 7.808 6.411 25.466-7.115 30.255 1.78 4.392 8.156-86.925 242.83-93.28 283.08-7.44 47.118-7.608 226.34-25.959 256.16-9.91 16.105-27.1 3.509-40.933 1.78z" fill="#e77f64"/><path d="m691.29 513.25c33.816 127.63 101.69 183.16-6.262 381.07-25.272 46.332-61.296 134.38-94.301 180.35-22.517 31.363-55.175 107.53-68.369 143.81-6.459 17.763-28.492 69.95-20.039 53.044 93.697-187.39 262.85-371.68 278.19-594.1 3.955-57.346-23.575-170.92-82.514-163.85z" fill="#e98064"/><use href="#M" fill="#c40000"/><use href="#M" class="B C"/></g></svg>