<svg xmlns="http://www.w3.org/2000/svg" viewBox="240.52 143.487 229.015 151.712" xmlns:v="https://vecta.io/nano"><style><![CDATA[.G{fill:#eedad1}.H{fill:rgba(80, 186, 186, 0.518)}.I{fill:#d0e1e7}]]></style><defs><clipPath id="A"><path d="M789.58 2000h8420.84c256.67 0 466.67 210 466.67 466.67v5066.67c0 256.67-210 466.67-466.67 466.67H789.58c-256.67 0-466.67-210-466.67-466.67V2466.67c0-256.67 210-466.67 466.67-466.67z"/></clipPath><clipPath id="B"><path d="M789.58 2000h8420.84c256.67 0 466.67 210 466.67 466.67v5066.67c0 256.67-210 466.67-466.67 466.67H789.58c-256.67 0-466.67-210-466.67-466.67V2466.67c0-256.67 210-466.67 466.67-466.67z"/></clipPath><path id="C" d="M3826.48 7633.36h122.93c55 0 100 45 100 100v92.71h-322.92v-92.71c0-55 45-100 100-100z"/><path id="D" d="M761.188 2945.514h2762.02v1835.52H761.188z"/><path id="E" d="M3680.538 4938.364h2762.02v1835.52h-2762.02z"/><path id="F" d="M1936.428 3889.434h411.53c184.15 0 334.81 150.67 334.81 334.81v310.39h-1081.15v-310.39c0-184.14 150.66-334.81 334.81-334.81z"/></defs><path d="M255.562 143.487h200.147c6.101 0 11.092 4.991 11.092 11.092v120.425c0 6.101-4.991 11.092-11.092 11.092H255.562c-6.101 0-11.092-4.991-11.092-11.092V154.579c0-6.101 4.991-11.092 11.092-11.092z" fill="#fff"/><g transform="matrix(.023768 0 0 .023768 236.795761 93.950699)"><g clip-path="url(#A)"><path d="M283.382 2571.35h9422.242v5895.84H283.382V2571.35z" fill="#efefef"/><g clip-path="url(#B)"><path d="M156.71 7232.32h9635.42v828.489H156.71V7232.32z" stroke="#000" stroke-miterlimit="2.61313" stroke-width="6.94" fill="#0f879a"/></g></g><circle cx="766.15" cy="2299.47" r="114.58" fill="#383e56"/><circle cx="1094.28" cy="2299.47" r="114.58" fill="#f69e7b"/><circle cx="1419.8" cy="2299.47" r="114.58" fill="#d4b5b0"/></g><path d="M350.577 275.764h3.459v1.61.259h3.199v-1.869h3.459v5.366h-10.118v-5.366zm3.977 0h2.163v1.351h-2.163v-1.351zm-.259 1.61v-2.681h-1.341l2.681-2.681 2.681 2.681h-1.341v2.681h-2.682zm1.341 0" fill="#f69e7b"/><path d="M377.453 281.211l.474-1.322.233-.648c-.4-.615-.633-1.349-.633-2.137 0-2.167 1.757-3.924 3.924-3.924s3.924 1.757 3.924 3.924-1.757 3.924-3.924 3.924a3.91 3.91 0 0 1-1.451-.277l-1.165.211-1.382.25z" class="G"/><g transform="matrix(.023768 0 0 .023768 236.795761 95.950699)"><g class="G"><rect x="1330.73" y="7504.1" width="332.55" height="238.66" rx="39.49" ry="42.96"/><path d="M1584 7630.43l99-62.17 98.99-62.17v124.34 124.33l-98.99-62.17z"/></g><g fill="#d4b5b0"><use href="#C"/><circle cx="3887.95" cy="7536.46" r="111.43"/></g><g class="G"><rect x="958.02" y="7398.39" width="148.03" height="299.85" rx="26.53" ry="34.01"/><path d="M1011.16 7662.18h34.16v100.58h-34.16z"/><rect x="967.99" y="7760.63" width="120.51" height="22.77" rx="19.43"/><use href="#C" x="-95.6"/><circle cx="3792.35" cy="7536.46" r="111.43"/></g><g fill="#383e56"><circle cx="6005.07" cy="7617.31" r="22.78"/><circle cx="6088.4" cy="7617.31" r="22.78"/><circle cx="6165.87" cy="7617.31" r="22.78"/></g><g class="G"><circle cx="6985.03" cy="7636.84" r="111.98"/><path d="M6985.03 7482.67c42.57 0 81.11 17.26 109.01 45.16s45.16 66.44 45.16 109.01-17.26 81.11-45.16 109.01-66.44 45.16-109.01 45.16-81.11-17.26-109.01-45.16-45.16-66.44-45.16-109.01 17.26-81.11 45.16-109.01 66.44-45.16 109.01-45.16zm97.23 56.94c-24.87-24.87-59.26-40.27-97.23-40.27s-72.35 15.39-97.23 40.27c-24.87 24.88-40.27 59.26-40.27 97.23s15.39 72.36 40.27 97.23 59.26 40.27 97.23 40.27 72.36-15.39 97.23-40.27c24.87-24.87 40.27-59.26 40.27-97.23s-15.39-72.35-40.27-97.23z"/></g><use href="#D" class="H"/><path d="M3490.397 2396.218h3247.936v2384.816H3490.397V2396.218z" fill="#50baba"/><g class="H"><use href="#D" y="1992.85"/><use href="#E"/><use href="#E" x="2881.13" y="-1992.85"/></g><g class="I"><use href="#F"/><circle cx="2142.198" cy="3565.004" r="373.08"/></g><g fill="#fff"><use href="#F" x="2919.35"/><circle cx="5061.548" cy="3565.004" r="373.08"/></g><g class="I"><use href="#F" x="5800.49"/><circle cx="7942.688" cy="3565.004" r="373.08"/><use href="#F" y="1992.85"/><circle cx="2142.198" cy="5557.854" r="373.08"/><use href="#F" x="2919.35" y="1992.85"/><circle cx="5061.548" cy="5557.854" r="373.08"/></g><use href="#E" x="2899.228" class="H"/><g class="I"><use href="#F" x="5800.49" y="1992.85"/><circle cx="7942.688" cy="5557.854" r="373.08"/></g></g></svg>