<svg xmlns="http://www.w3.org/2000/svg" viewBox="416.176 317.598 39.417 20" fill-rule="evenodd" xmlns:v="https://vecta.io/nano"><path d="M426.176 322.248c-2.694 0-4.378 2.916-3.031 5.25a3.5 3.5 0 0 0 3.031 1.75c2.694 0 4.378-2.917 3.031-5.25a3.5 3.5 0 0 0-3.031-1.75zm-1.5 8a4 4 0 0 0-4 4 2 2 0 0 0 2 2h7a2 2 0 0 0 2-2 4 4 0 0 0-4-4h-3zm6.82-3.096a5.51 5.51 0 0 0-2.797-6.293c2.225-1.52 5.26-.062 5.465 2.624a3.5 3.5 0 0 1-2.669 3.668l.001.001zm2.18 7.096h.5a2 2 0 0 0 2-2 4 4 0 0 0-4-4h-1.1a5.58 5.58 0 0 1-.471.762c1.897 1.06 3.072 3.064 3.071 5.238zm-15.5-10.5c-.001-2.695 2.916-4.379 5.249-3.033l.228.144a5.5 5.5 0 0 0-2.796 6.293 3.5 3.5 0 0 1-2.681-3.404zm3.1 4.5h-1.1a4 4 0 0 0-4 4 2 2 0 0 0 2 2h.5c-.001-2.174 1.174-4.178 3.071-5.238a5.58 5.58 0 0 1-.471-.762zm26.216-10.649c4.623-.057 8.332 3.804 8.09 8.421-.075 1.41-.523 2.776-1.297 3.957a1.02 1.02 0 0 1-.133.204l-.108.129c-.178.243-.37.477-.573.699l-5.112 6.224a1 1 0 0 1-1.545 0l-5.246-6.368-.002-.002c-.105-.125-.208-.252-.309-.38l-.133-.163c-.051-.062-.095-.13-.13-.202-3.482-5.075-.165-12.016 5.971-12.494a7.71 7.71 0 0 1 .527-.024v-.001zm3.094 8.003c.042 2.309-2.431 3.798-4.452 2.68a3 3 0 0 1-1.547-2.68c.042-2.309 2.568-3.706 4.547-2.515a3 3 0 0 1 1.452 2.515z"/></svg>