<svg xmlns="http://www.w3.org/2000/svg" height="613.577" width="747.534" xmlns:v="https://vecta.io/nano"><style><![CDATA[.P{fill:#333}.Q{fill:#323657}.R{fill:#eea886}.S{fill:#e2d2ca}.T{fill:#424773}.U{fill:#292c47}.V{fill:#00a99d}.W{fill:#f8c09d}.X{fill:#e6e6e6}.Y{stroke-miterlimit:10}.Z{fill:url(#B)}.a{fill:#706865}.b{fill:#ffe5e5}.c{fill:#0b8274}]]></style><linearGradient id="A" x2="1" y1=".5" y2=".5"><stop offset="0" stop-color="#f94f4f"/><stop offset="1" stop-color="#f66363"/></linearGradient><linearGradient id="B" x1=".5" x2=".5" y1="0" y2="1" href="#A"/><path d="M677.488 50.067a54.69 54.69 0 0 0-5.857-14.118l5.963-8.967-8.271-8.271-8.268-8.27-8.965 5.961c-4.41-2.602-9.164-4.572-14.122-5.853L635.844.002h-23.389l-2.126 10.547a54.69 54.69 0 0 0-14.118 5.855l-8.967-5.961-8.272 8.271-8.271 8.271 5.964 8.964a54.68 54.68 0 0 0-5.855 14.118l-10.549 2.122v23.394l10.549 2.122a54.72 54.72 0 0 0 5.855 14.119l-5.963 8.965 8.271 8.271 8.272 8.271 8.967-5.961a54.75 54.75 0 0 0 14.118 5.857l2.122 10.546h23.392l2.124-10.546a54.8 54.8 0 0 0 14.118-5.857l8.965 5.961 8.272-8.271 8.271-8.271-5.963-8.965c2.603-4.409 4.575-9.162 5.857-14.119l10.546-2.122V52.189zm-53.339 54.805c-22.635.001-40.985-18.349-40.986-40.984s18.349-40.985 40.984-40.986 40.985 18.349 40.986 40.984-18.349 40.985-40.984 40.986z" fill="url(#A)"/><rect fill="#ececec" height="350.507" rx="15.253" transform="matrix(-1 0 0 -1 630.774 431.595)" width="496.856"/><path d="M610.314 376.669H152.375V43.783h457.939v332.886z" fill="rgba(255, 255, 255, 0.486)"/><g transform="matrix(.303818 0 0 .303818 115.579109 28.100395)"><g><path d="M733.8 717.5h-507c-5.7 0-10.4-4.7-10.4-10.4v-31.3c0-5.7 4.7-10.4 10.4-10.4h507c5.7 0 10.4 4.7 10.4 10.4v31.3c0 5.8-4.6 10.4-10.4 10.4z" class="X"/><path d="M786.3 681H173.7c-13.5 0-24.5-10.9-24.5-24.5V266.9c0-13.5 10.9-24.5 24.5-24.5h612.6c13.5 0 24.5 10.9 24.5 24.5v389.6c-.1 13.5-11 24.5-24.5 24.5z" fill="#fff"/><path fill="#4b535c" d="M203 289.3h554v304H203z"/><path d="M223.4 309.7H757v-20.4H203v304h20.4zm-17 311h83.9V644h-83.9zm106.9 0h83.9V644h-83.9z" class="P"/><path fill="none" stroke="#fff" stroke-width="4.868" d="M305 309.7v283.6m112.7-283.6v283.6m112.8-283.6v283.6m112.7-283.6v283.6M223.4 392.4H757m-533.6 92.7H757" opacity=".12" class="Y"/><circle cx="744.2" cy="632.3" r="11.7" fill="#c1272d"/><circle cx="704.7" cy="632.3" r="11.7" fill="#8cc63f"/><circle cx="665.1" cy="632.3" r="11.7" fill="#c1272d"/><path fill="none" stroke="#12a88b" stroke-width="9.737" d="M201.8 465.9h106.5l51.6-85.3 37.8 139.6 52.2-110.6 33.8 68.5 46.8-126.5 46.9 142.5 45.4-88.7 28.2 62.2h104.9" class="Y"><animateTransform type="translate" additive="sum" attributeName="transform" values="0 0;29 0" begin="0.12s" dur="2.78s" fill="freeze" keyTimes="0; 1" repeatCount="indefinite"/></path></g></g><path d="M0 0h457.939v40.207H0z" fill="url(#A)" transform="matrix(-1 0 0 -1 611.314 83.99)"/><rect fill="#f5f7ff" height="15.193" rx="3.296" width="65.314" x="172.503" y="56.29"/><circle cx="37.26" cy="37.26" r="37.26" transform="matrix(.999913 -.013159 .013159 .999913 484.805922 280.246932)" fill="#eef0f7"/><g fill="#949494"><path d="M522.553 334.871a1.88 1.88 0 0 1-1.877-1.877v-25.959c0-1.036.84-1.876 1.877-1.876s1.876.84 1.876 1.876v25.959c0 .498-.197.975-.549 1.327s-.829.55-1.327.55z"/><path d="M535.533 321.891h-25.959c-1.037 0-1.877-.84-1.877-1.877s.84-1.877 1.877-1.877h25.959c1.037 0 1.877.84 1.877 1.877s-.84 1.877-1.877 1.877z"/></g><path d="M419.746 198.536h26.119c2.437 0 4.413 1.976 4.413 4.413v26.121c0 1.17-.465 2.293-1.293 3.12s-1.95 1.293-3.12 1.293h-26.119c-1.171 0-2.293-.465-3.121-1.293s-1.293-1.951-1.293-3.121V202.95c0-2.438 1.976-4.414 4.414-4.414z" class="Z"/><path d="M431.699 223.707l-8.834-7.7a1.74 1.74 0 1 1 2.288-2.623l6.246 5.446 8.909-9.937a1.74 1.74 0 0 1 2.989.599 1.74 1.74 0 0 1-.398 1.725z" fill="#f3f3f3"/><path d="M419.746 243.319h26.12c1.17 0 2.293.465 3.12 1.293s1.293 1.95 1.293 3.12v26.12c0 1.171-.465 2.293-1.293 3.121s-1.951 1.293-3.121 1.293h-26.119c-1.171 0-2.293-.465-3.121-1.293s-1.293-1.951-1.293-3.121v-26.119c0-2.438 1.976-4.414 4.414-4.414z" class="Z"/><path d="M431.699 268.49l-8.834-7.7a1.74 1.74 0 0 1 .58-2.958 1.74 1.74 0 0 1 1.708.335l6.246 5.446 8.909-9.937a1.74 1.74 0 0 1 2.989.599 1.74 1.74 0 0 1-.398 1.725z" fill="#f3f3f3"/><path d="M419.746 288.103h26.119c2.437 0 4.413 1.976 4.413 4.413v26.12c0 1.171-.465 2.293-1.293 3.121s-1.951 1.293-3.121 1.293h-26.118c-1.171 0-2.294-.465-3.122-1.293s-1.293-1.951-1.292-3.122v-26.118c0-2.438 1.976-4.414 4.414-4.414z" class="Z"/><path d="m201.152 340.661h5.312v241.47h-5.312z" class="a"/><path d="M64.701 239.781h155.552c5.315 0 9.624 4.309 9.624 9.624v283.246c0 2.552-1.014 5-2.819 6.805s-4.253 2.819-6.805 2.819H64.702c-5.316 0-9.625-4.309-9.625-9.625V249.405c0-5.315 4.309-9.624 9.624-9.624z" fill="#bdafaa"/><rect height="285.803" rx="9.509" width="165.207" x="59.874" y="244.653" fill="#fff"/><path d="m116.433 237.488h52.088v11.763h-52.088z" class="a"/><path d="M193.277 519.032H87.532c-8.577-.008-15.528-6.957-15.538-15.534v-60.2c.009-8.576 6.96-15.527 15.536-15.536h105.747c8.576.009 15.527 6.96 15.536 15.536v60.2c-.01 8.576-6.96 15.525-15.536 15.534zM87.532 429.765c-7.473.007-13.529 6.062-13.538 13.535v60.2a13.55 13.55 0 0 0 13.538 13.526h105.745a13.55 13.55 0 0 0 13.534-13.533v-60.2c-.009-7.471-6.063-13.525-13.534-13.534z" class="b"/><path d="M98.399 373.426c-.008-.003-.017-.003-.025 0 .103.043.118.048.025 0z" class="Q"/><g class="b"><path d="M190.234 366.922c-9.518.001-17.233-7.714-17.234-17.232s7.714-17.233 17.232-17.234 17.233 7.714 17.234 17.232c-.01 9.513-7.719 17.222-17.232 17.234zm0-32.465a15.23 15.23 0 1 0 15.229 15.231 15.25 15.25 0 0 0-15.229-15.231zm0 72.174c-6.97 0-13.254-4.198-15.922-10.638s-1.193-13.852 3.735-18.781a17.23 17.23 0 0 1 18.781-3.735c6.44 2.668 10.638 8.952 10.638 15.922-.012 9.512-7.72 17.22-17.232 17.232zm0-32.463c-8.411-.001-15.23 6.818-15.231 15.229s6.818 15.23 15.229 15.231 15.23-6.818 15.231-15.229a15.25 15.25 0 0 0-15.229-15.231zm-77.671-23.712a47.06 47.06 0 0 1-4.279-.2 44.62 44.62 0 0 1-27.4-12.986l-.815-.843-2.831-3.312a44.21 44.21 0 0 1-9.315-27.294c.028-24.643 19.998-44.613 44.641-44.641v2c-23.538.026-42.613 19.1-42.639 42.638a42.21 42.21 0 0 0 8.9 26.066c.849 1.1 1.752 2.157 2.707 3.166.24.26.5.53.775.807 7.001 7.071 16.263 11.46 26.169 12.4a43.69 43.69 0 0 0 4.091.194 44.03 44.03 0 0 0 1.4-.022 41.54 41.54 0 0 0 3.837-.3c6.984-.859 13.646-3.436 19.391-7.5a48.92 48.92 0 0 0 1.755-1.317c.487-.383.991-.8 1.5-1.236a43.29 43.29 0 0 0 4.765-4.83 42.69 42.69 0 0 0 9.99-27.43 43.25 43.25 0 0 0-.456-6.256l1.982-.292a45.41 45.41 0 0 1 .477 6.548c-.003 10.504-3.707 20.672-10.461 28.717-1.528 1.814-3.196 3.505-4.989 5.058a43.81 43.81 0 0 1-1.569 1.292c-.585.461-1.2.925-1.834 1.375a44.61 44.61 0 0 1-20.306 7.862c-1.311.164-2.663.267-4.016.311-.473.017-.954.025-1.47.025z"/><path d="M143.705 329.452a3.74 3.74 0 0 0-.436-.485c-.063-.077-.141-.14-.229-.186l-.04-.025c-8.322-4.6-23.338-8.354-23.338-8.354-.436-1-.4-4.475-.338-6.551 1.557-1.808 2.969-4.636 3.759-9.048.254.187.446-.242.446-.242-.139-.247 2.106-5.731 1.7-6.967a.65.65 0 0 0-1.059-.418q.082-.472.166-1s.89-8.4-3.365-13.089a4.71 4.71 0 0 0-2.006-.527c-6.833-2.093-10.932-1.16-13.5-.06-3.8 3.116-4.094 8.421-3.92 11.344l.234 2.064v.022l.094.789a.65.65 0 0 0-1.079.369c-.456 1.219 1.206 6.693 1.413 7.031 0 0 .358.562.639.307.785 4.81 2.2 7.77 3.69 9.6-.151 2.7-.633 6.074-.765 6.967-3.489 1.1-20.985 5.756-26.278 9.233-.685.607-1.192 1.389-1.465 2.263.868 1.127 1.792 2.209 2.77 3.242a36.08 36.08 0 0 0 .794.823 43.5 43.5 0 0 0 26.784 12.694 44.16 44.16 0 0 0 4.185.2c.48 0 .958-.007 1.432-.025q1.988-.062 3.927-.3a43.4 43.4 0 0 0 19.848-7.683 48.47 48.47 0 0 0 1.8-1.349 41.17 41.17 0 0 0 1.531-1.262 44.05 44.05 0 0 0 4.878-4.944 21.33 21.33 0 0 0-2.272-4.433z"/></g><path d="M663.549 429.874h-51.707v-3.068h51.707z" class="S"/><path d="m652.089 437.862h4.53v139.593h-4.53z" class="a"/><path d="M619.933 430.319h-35.941v-4.385h35.941z" fill="#ccbdb7"/><path d="M608.767 429.874h-13.61v-41.337h13.61z" fill="#4667a8"/><path d="M682.099 437.862H482.958v-7.936h199.141z" fill="#b59074"/><path d="M720.319 381.887s2.177 30.543-3.791 34.2c-3.739 2.288-18.646 10.012-18.2 11.462s8.417 12.887 8.417 12.887 28.633-18.854 29.556-24.8c.9-5.805-1.408-44.722-5.343-46.515-2.949-1.344-4.5-.234-8.219 2.527-5.218 3.87-2.42 10.239-2.42 10.239z" class="Q"/><path d="M668.135 390.608l-2.525-.934s3.148-7.388 4.521-7.209a34.18 34.18 0 0 1 3.557.729z" fill="#ead8cf"/><path d="M667.558 391.881c.321-.239 5.363-9.911 5.363-9.911l10.769 1.463-5.82 11.457z" fill="#da9b5b"/><path d="M685.089 558.395l1 7.109c.109.928 9.9-.547 9.9-.547l.794-7.359s-10.47-.074-11.694.797z" class="T"/><path d="M685.986 564.718c-1.746 2.086-3.804 3.89-6.1 5.348-3 1.624-7.717 2.265-9.492 3.947-1.281 1.211-4.666 6.435 7.8 6.327s18.473.737 19.809-1.264-1.932-14.775-1.932-14.775-2.956 1.061-10.085.417z" class="U"/><path d="M622.344 558.455l1 7.108c.11.928 9.9-.547 9.9-.547l.794-7.356s-10.472-.077-11.694.795z" class="T"/><g class="U"><path d="M623.242 564.775a26.42 26.42 0 0 1-6.105 5.345c-3 1.625-14.045 2.957-15.819 4.637-1.281 1.213-3.411 6.1 14.126 5.638 12.461-.323 18.473.739 19.81-1.263s-1.934-14.779-1.934-14.779-2.78 1.14-10.078.422zm93.437-113.135l-43.648 7.29c-8.04 1.264-51.646 12.111-57.1 15.417-4.341 2.633 2.276 65.839 3.822 89.954h17.174l1.246-72.337c20.609.517 35.315-4.821 50.324-2.542s27.519 5.519 37.056-7.272c.001 0 .356-27.715-8.874-30.51z"/><path d="M681.583 564.358l16.737-1.034 1.632-71.362c8.87.222 11.912-.341 19.093-1.211l13.515-31.41c-11.844 2.368-49.789 11.937-54.848 15-4.341 2.639 2.33 65.903 3.871 90.017z"/></g><g class="R"><path d="M700.287 318.178s-13.052-3.607-18.031 6.524-2.722 29.342 3.855 31.149 16.038-.273 18.768-6.581 4.909-15.266 4.256-21.068-5.381-8.635-8.848-10.024z"/><path d="M689.523 353.829s.144 7.707-.706 9.349 18.175 1.231 18.175 1.231-3-9.253-1.3-17.138c1.684-7.803-16.169 6.558-16.169 6.558z"/></g><path d="M706.718 344.356s-1.016 2.068-5.941 1.733-11.42-6.276-13.509-6.806-2.215-1.72-2.215-1.72l-1.105 1.968-2.142.325s1.455-5.955-1.716-8.052 1.428-18.982 17.484-14.909c0 0 12.255 2.245 12.419 9.089s-.898 14.747-3.275 18.372z" fill="#3a3f47"/><path d="M687.821 362.981s.053-3.14 1.475-3.44 14.956-2.162 16.7-1.476l.749 4.144s-3.368 2.071-18.924.772z" class="S"/><path d="M683.901 336.159c.366-2.571 3.292-5.529 4.965-1.521s-1.13 9.843-3.009 9.53-2.456-4.518-1.956-8.009z" class="R"/><path d="M631.139 400.067c.007-.004.015-.004.022 0-.097.04-.112.043-.022 0z" class="Q"/><path d="M704.094 320.01s15.914-.747 2.778 24.095z" fill="#3a3f47"/><g fill="#918783"><path d="M739.553 572.823l-1.185 3.332-50.021-15.5 2.4-6.744z"/><path d="M692.318 558.282h-5.686v-54.383h5.686z"/></g><path d="M706.24 504.215h-33.532v-3.204h33.532z" fill="#5e5854"/><g fill="#918783"><path d="M638.958 572.823l1.184 3.331 50.021-15.5-2.2-7.168z"/><path d="M674.2 575.797v3.869l15.963-19.01-2.2-7.168z"/></g><path d="M634.283 577.456c0 1.891 1.138 3.596 2.885 4.32s3.758.324 5.095-1.013 1.737-3.348 1.013-5.095-2.429-2.886-4.32-2.885c-2.581.001-4.673 2.093-4.674 4.674zm39.521 0c0 1.89 1.139 3.595 2.885 4.318s3.757.324 5.094-1.013 1.737-3.347 1.013-5.094-2.428-2.885-4.318-2.885c-2.581 0-4.674 2.093-4.674 4.674zm61.073 0c0 1.891 1.138 3.596 2.885 4.32s3.758.324 5.095-1.013 1.737-3.348 1.014-5.095-2.428-2.886-4.319-2.886a4.68 4.68 0 0 0-4.675 4.674z" fill="#bfb2ac"/><path d="M725.359 501.012h-72.208c-.959 0-1.879-.381-2.558-1.059s-1.059-1.598-1.059-2.558v-4.906c0-1.997 1.619-3.616 3.616-3.616h72.209c.959 0 1.879.381 2.558 1.059s1.059 1.598 1.059 2.558v4.905a3.62 3.62 0 0 1-3.617 3.617z" class="S"/><path d="M657.119 408.449H546.808a3.61 3.61 0 0 1-3.607-3.607v-75.693a3.61 3.61 0 0 1 3.607-3.607h110.31a3.61 3.61 0 0 1 3.608 3.607v75.693a3.61 3.61 0 0 1-3.607 3.607z" fill="#5f8be3"/><path d="M656.124 395.457H547.803v-65.434h108.321z" fill="#f5f7ff"/><g fill="#cecfd6"><path d="M656.124 335.229H547.803v-5.206h108.321z"/><rect height="52.281" rx="2.233" transform="matrix(-1 0 0 -1 564.867 391.428)" width="13.06"/><path d="M651.855 343.99h-21.413c-.666 0-1.205-.539-1.205-1.205v-2.432c0-.666.54-1.206 1.206-1.206h21.411c.666 0 1.206.54 1.206 1.206v2.432c0 .666-.539 1.205-1.205 1.205zm-1.286 48.773h-18.842a2.49 2.49 0 0 1-2.49-2.49v-40.547a2.49 2.49 0 0 1 2.491-2.491h18.842a2.49 2.49 0 0 1 2.49 2.49v40.547a2.49 2.49 0 0 1-2.491 2.491z"/></g><path d="M598.171 401.733a3.791 3.791 0 1 0 3.791-3.792c-2.094.001-3.791 1.698-3.791 3.792z" fill="#fff"/><path d="M577.634 430.033v-1.476s2.074-9.177 16.745-9.177 14.374 10.653 14.374 10.653z" fill="#314875"/><path d="M608.93 420.744s-3.186-.247-4.356-.953-8.151-5.4-9.795-4.651-12.562 4.1-12.181 5.7 1.39 1.443 2.16 1.16 8.7-1.948 9.4-1.668c0 0-7.789 2.843-7.82 4.916s1.63 2.58 2.368 3.362 1.627 2.734 3.635 2.881 11.8-3.257 13.818-3.415 5.748.126 6-.2-3.229-7.132-3.229-7.132z" class="R"/><path d="M666.956 367.33c10.163-1.786 20.859-4.349 20.859-4.349l18.926-.772s17.372 3.824 24.212 6.914c.648.293.651 15.5 2.432 19.484l-5.671 11.964s-3.277 23.7-3.957 34.244c-.312 4.838.881 46.766.881 46.766s-1.7.84-14.616 2.263-45.191-.515-45.395-2.04 6.249-56.81 6.536-59.671c.439-4.394-1.269-24.7-1.269-24.7-2.434 3.269-8.638 18.031-15.1 25.057-3.806 4.13-22.642 6.664-26.192 6.781-7.729.26-21.827 1.8-22.239 1.045-.33-.451-1.229-12.514-.345-12.809.772-.257 26.954-1.766 33.661-5.323 2.454-1.3 9.79-17.3 9.79-17.3s11.88-25.036 17.487-27.554z" class="Q"/><g class="S"><path d="M740.589 480.371h-40.895c-1.842 0-3.608-.732-4.91-2.034s-2.034-3.068-2.034-4.91v-61.988c0-1.842.732-3.608 2.034-4.91s3.068-2.034 4.91-2.034h40.896c1.842 0 3.608.732 4.91 2.034s2.034 3.068 2.034 4.91v61.987c0 3.836-3.109 6.945-6.945 6.945z"/><path d="M702.459 497.988c8.075 0 14.626-2.714 19.471-8.062 10.953-12.091 8.983-33.346 8.9-34.246a3.05 3.05 0 0 0-3.33-2.699 3.05 3.05 0 0 0-2.736 3.299c.022.243 1.768 19.509-7.359 29.566-3.69 4.069-8.579 6.047-14.941 6.047a3.05 3.05 0 1 0 0 6.1z"/></g><g fill="#eddad3"><path d="M450.146 433.615l-28.73-8.15.084 35.383 28.593 17.138z"/><path d="M450.093 477.988l-3.6.663-27.81-17.294.347-35.728 2.388-.162z"/></g><path d="M123.083 380.543c-.008-.002-.015-.002-.023 0 .099.043.114.048.023 0z" class="Q"/><g class="b"><rect height="9.617" rx="2.225" transform="matrix(-1 0 0 -1 152.798 372.02)" width="80.473"/><rect height="9.616" rx="2.225" transform="matrix(-1 0 0 -1 152.798 389.365)" width="80.473"/><path d="M150.573 406.711H74.55c-1.229 0-2.225-.996-2.225-2.225v-5.169c0-.59.234-1.156.651-1.573s.983-.651 1.573-.651h76.024c1.229 0 2.225.996 2.225 2.225v5.168c0 1.229-.996 2.225-2.225 2.225zm28.209-149.096h22.9c1.099 0 2.153.437 2.93 1.214s1.214 1.831 1.214 2.93v59.418c0 1.099-.437 2.153-1.214 2.93s-1.831 1.214-2.93 1.214h-22.901c-2.289 0-4.144-1.855-4.144-4.144V261.76c0-2.289 1.856-4.145 4.145-4.145z"/></g><path d="M11.234 446.512a10.36 10.36 0 0 1 1.349 3.565 17.1 17.1 0 0 0 1.649 4.212 40.36 40.36 0 0 1 2 7.02c.022.5-1.1 3.683-.944 4.7s.741 3.03-.172 3.164-1.948-1.516-1.948-1.516a1.34 1.34 0 0 1-.686 1.292 2.26 2.26 0 0 1-2.3.083s-.555 1.031-1.249 1.17a2.83 2.83 0 0 1-2.285-.31c-.499.376-1.111.572-1.736.557a2.28 2.28 0 0 1-1.925-1.2s-1.716.348-2.213-.452a7.7 7.7 0 0 1-.618-2.381 27.73 27.73 0 0 1 2.175-12c2.227-4.717-.565-9.321-.565-9.321z" class="R"/><path d="M13.41 467.042s.152-5.88-1.4-7.131-1.723.87-1.723.87.21-2.1-1.481-2.381-1.763 2.209-1.763 2.209c-.081-.454-.351-.853-.742-1.098s-.867-.313-1.311-.188c-1.776.331-1.354 2.4-1.354 2.4s-1.7-2.025-2.8-.081c-1.857 3.282-.066 7.159-.066 7.159s.524.888 2.213.452c0 0 1.132 2.278 3.662.641 0 0 2.59 1.425 3.534-.86.007-.002 2.862 1.355 3.231-1.992z" fill="#db9c7c"/><path d="M31.182 361.81l-13.468 45.923c-1.065 3.88-3.648 40.943-4.1 42.436S.389 453.706.389 453.706l1.692-48.9c.145-2.533 14.088-54.308 18.142-56.156 3.039-1.383 4.642-.239 8.471 2.6 5.369 3.999 2.488 10.56 2.488 10.56z" class="Q"/><path d="M129.343 314.811l23.045-15.073 1.119 1.711-23.045 15.073z" fill="#4da8f2"/><path d="M155.963 308.405c-.099.637-.3 1.254-.595 1.827l-1.251 1.569a5.76 5.76 0 0 0-.361.535 11.06 11.06 0 0 1-1.9 2.959c-1.1 1.112-5.371 4.652-5.371 4.652l-3.661-3.108-3.8-1.7s2.131-9.253 3.032-10.408a3.43 3.43 0 0 1 .275-.315c.735-.628 1.533-1.177 2.382-1.639.186-.154 2.142-1.564 2.84-1.382a2.35 2.35 0 0 1 1.756 1.466 5.63 5.63 0 0 1 2.6 1.675 3.5 3.5 0 0 1 2.263 2.1s1.713.678 1.791 1.769z" fill="#efaa88"/><use href="#D" class="T"/><path d="M22.091 597.387a27.19 27.19 0 0 0 6.289 5.511c3.093 1.672 7.953 2.334 9.782 4.066 1.32 1.251 4.808 6.63-8.037 6.523s-19.037.761-20.413-1.3 1.991-15.228 1.991-15.228 3.041 1.092 10.388.428z" class="U"/><use href="#D" x="72.311" class="T"/><g class="U"><path d="M94.403 597.387a27.24 27.24 0 0 0 6.291 5.511c3.092 1.672 14.472 3.047 16.3 4.778 1.32 1.251 3.517 6.281-14.557 5.81-12.84-.335-19.038.761-20.413-1.3s1.99-15.228 1.99-15.228 2.867 1.168 10.389.429zM31.371 427.222s-9.484 15.067-8.776 28.686-3.438 28.489-4.863 42.715c-1.587 15.861-8.087 53.409-8.324 61.893s1.009 35.576 1.009 35.576l13.011.3s10.927-65.642 13.756-72.341 16.863-54.451 17.335-59.809-23.148-37.02-23.148-37.02z"/><path d="M81.297 429.265l8.089 45.661c.943 8.333 1.572 40.34 2.044 45.549s4.405 68.018 5.66 75.914H80.452s-12.767-45.771-12.767-67.43-9.863-47.081-16.23-61.371-20.942-14.626-24.858-41.138c0 0 49.4-5.595 54.7 2.815z"/></g><g class="R"><path d="M47.195 300.551s12.729-4.753 18.6 4.936 5.3 29.085-1.112 31.471-16.054 1.137-19.34-4.924-6.249-14.828-6.107-20.685 4.617-9.106 7.959-10.798z"/><path d="M63.299 337.402s-.53 3.436.345 5.129-16.49 1.736-16.49 1.736a114.55 114.55 0 0 0-4.082-16.989c-2.673-7.778 20.227 10.124 20.227 10.124z"/></g><path d="M43.072 327.279s1.2 1.978 6.092 1.211 10.86-7.275 12.9-7.992 2.063-1.914 2.063-1.914l1.279 1.869 2.169.137s-1.978-5.824 1.007-8.2-3.1-18.848-18.79-13.364c0 0-12.052 3.322-11.612 10.174s2.195 14.666 4.892 18.079z" fill="#d88a51"/><path d="M64.674 342.327s-.053-3.234-1.521-3.546-16.182-1.725-17.981-1.017v3.768s3.468 2.138 19.502.795z" class="S"/><path d="M63.805 316.092c-.275-1.15-3.2-4.435-4.318-.918s1.692 8.249 3.259 7.843 1.755-4.011 1.059-6.925z" class="R"/><path d="M89.018 347.225c-10.092-1.33-24.343-4.9-24.343-4.9l-19.5-.794s-17.9 3.94-24.95 7.124c-.669.3-.671 15.97-2.507 20.077l5.841 12.332s3.377 24.426 4.077 35.29c.321 4.985-6.964 46.76-6.964 46.76a134.68 134.68 0 0 0 21.118 3.766c13.311 1.466 46.569-.53 46.78-2.1s-6.442-58.543-6.735-61.494c-.452-4.528 1.561-28.59 1.561-28.59 3.073-2.384 30.058-14.91 37.419-21.437 1.972-1.748 10.285-9.845 12.651-12.64 8.37-9.9 15.231-18.389 16.066-20.218.948-1.042-9.094-6.5-10.005-6.806-.8-.267-12.113 14.394-16.467 19.111-1.942 2.1-10.015 7.977-10.015 7.977s-17.715 6.905-24.027 6.542z" class="Q"/><path d="M43.57 301.694s-16.23 1.271-.5 25.584z" fill="#d88a51"/><path d="M153.504 301.444l1.332-2.031-2.451.32z" fill="#dfe1e8"/><g transform="matrix(.12383 0 0 .132336 268.866081 -127.040564)" transform-origin="257.51px 255.072px"><path d="M366.688 30.027c-1.01-.01-2.022-.01-3.034.004h.002c-41.495.563-83.634 22.155-110.844 69.282-41.912-117.77-236.49-76.29-232 64.5.64 20.068 5.132 38.987 12.454 56.917h76.45l21.22-74.126 26.375 90.134 18.46-64.312 17.238 48.303H328.1l21.222-74.126 26.375 90.13 18.46-64.308 17.238 48.303h72.517c7.097-18.183 10.927-37.136 10.307-56.917-2.61-83.04-63.874-133.082-127.533-133.786zM131.125 211.34l-7.842 27.39h-81.58c54.51 103.006 197.737 172.59 216.172 241.395 16.782-62.62 165.07-139.482 217.855-241.396h-77.023l-2.69-7.542-20.154 70.208-26.353-90.054-7.84 27.387H180.32l-2.69-7.54-20.15 70.206-26.355-90.056z" fill="#cf332a"/><animateTransform type="scale" additive="sum" attributeName="transform" values="1 1;1.2 1.2" dur="2.95s" fill="freeze" repeatCount="indefinite" keyTimes="0; 1"/><animate attributeName="opacity" values="0.35;1" dur="2.95s" fill="freeze" keyTimes="0; 1" repeatCount="indefinite"/></g><g transform="matrix(.363177 0 0 .287501 -1.892733 219.454102)"><use href="#E" fill="#ccc"/><use href="#E" transform="translate(-64.4)" class="X"/><path d="M1018.1 496.4h0c7 7.4 18.7 7.7 26.1.7l75.3-71.4c7.4-7 7.7-18.7.7-26.1h0c-7-7.4-18.7-7.7-26.1-.7l-75.3 71.4c-7.4 7-7.7 18.7-.7 26.1z" class="V"/><path d="M914.2 658.9h-1.3c-41.6 0-75.4-34.2-75.4-75.8v-.2h152v.2c0 41.7-33.7 75.8-75.3 75.8z" class="c"/><path d="M953.8 348.6h0c-8.8 5.1-11.9 16.3-6.9 25.2l68.1 119.3c5.1 8.8 16.3 11.9 25.2 6.9h0c8.8-5.1 11.9-16.3 6.9-25.2L979 355.5c-5.1-8.9-16.3-11.9-25.2-6.9zM772.1 481h0c7.9 6.4 19.5 5.2 25.9-2.8l77.6-93.8c6.4-7.9 5.2-19.5-2.8-25.9h0c-7.9-6.4-19.5-5.2-25.9 2.8l-77.6 93.8c-6.4 7.9-5.1 19.5 2.8 25.9z" class="V"/><path d="M856.4 582.9H906v342h-49.6zm113.16 342.053h-49.6v-342h49.6z" class="c"/><path d="M884.7 342.3h57.7c26 0 47.2 21.1 47.2 47.2v218s-21 20.5-75.3 20.5-76.7-20.5-76.7-20.5v-218c-.1-26 21-47.2 47.1-47.2z" class="V"/><path d="M880 558v-42h-42v62.5c2 .7 3.7 1.5 6 1.5h14c11.9 0 22-10.1 22-22z" fill="#069385"/><path d="M913.3 402.3l40.5-58.3c-3.7-.9-7.5-1.1-11.4-1.1h-57.7c-4.4 0-8.6.3-12.6 1.4l41.2 58z" class="c"/><path d="M937.3 342.3L913 376.7l-24.7-34.4v-29.1h49z" class="W"/><path d="M888.3 329.1c9.5 4.1 19.4 6.3 28.9 6.3 6.6 0 13.4-1.1 20.1-3.1v-15.5h-49v12.3z" fill="#f6ae8d"/><path d="M990 516h-42v42c0 11.9 9.6 22 21.5 22h14c2.1 0 4.5-.8 6.5-1.3V516z" fill="#069385"/><path d="M912.2 324.4c-31.9 0-70.4-27.9-70.4-67.1v-47.2c0-39 31.6-70.6 70.6-70.6h0c39 0 70.6 31.6 70.6 70.6v47.2c0 39.2-22.3 67.1-70.8 67.1z" class="W"/><path d="M920,265.2c0,12.5,10.1,22.6,22.6,22.6h0c12.5,0,22.6-10.1,22.6-22.6" fill="#e26c60"/><path d="M942.5 236.3v14.5c0 .7.8 1.2 1.5 1.2h8.6c2.3 0 3.6-2.7 2.1-4.5l-9.9-11.9c-.8-.9-2.3-.4-2.3.7z" fill="#ef937e"/><g class="P"><ellipse cx="911.4" cy="228" rx="4.6" ry="8.1"/><ellipse cx="969.6" cy="228" rx="4.6" ry="8.1"/></g><path d="M961.4 428.5s9-2 12.2 3.4c3.1 5.4-4.2 8.5-4.2 8.5l-8-11.9z" fill="#f6ae8d"/><path d="M979.4 447.4s-8.7-9.1-14.9-12.4-10.5 5.3-4.5 8.5 18.7 5.5 18.7 5.5c1.1.4 1.7-.7.7-1.6z" class="P"/><path d="M893.8 402.7h0c.6-1.2.2-2.6-1-3.3l-6.9-3.7c-1.2-.6-2.6-.2-3.3 1h0c-.6 1.2-.2 2.6 1 3.3l6.9 3.7c1.2.7 2.7.2 3.3-1z" class="X"/><path d="M964.393 435.026l-4.565 8.559-73.592-39.248 4.565-8.559z" class="P"/><path d="M897.6 399.3l-6 11.2 29.6 15.8" fill="none" stroke="gray" stroke-linecap="round" stroke-width="2.408" class="Y"/><path d="M978.5 446.6l.9.9c1 .9.5 1.9-.8 1.6 0 0-.4-.1-1.2-.2l1.1-2.3z" class="P"/><g class="W"><path d="M928 422.3s12.7-4.8 20.7.5l12.1 8.2-1.5 5.3h0c1.6 1.5 1.8 4 .3 5.6l-.1.1c-1.5 1.6-4 1.7-5.6.3l-.1-.1h0c.7 2.2-.3 4.6-2.3 5.7l-.6.3c-1.9 1-4.2.5-5.5-1.2h0 0c1 1 1.7 5.3-3.2 6.1-2.3.4-5 .9-9.7.8h0l-11.1-1.8 6.6-29.8z"/><path d="M908.2 432.1c6.9-2.4 16-11.7 17.9-14.2s5.8-2.2 11-2.1c5.9.2 10.3 0 13.6 1.8 4.8 2.6 17.2 15.2 18.8 16.9 3.9 3.8-2 8.7-7.3 5.4-4.5-2.9-15.4-13.6-15.4-13.6l-10.6-.4s-8 9.3-5.6 12.9c2.5 3.5 3.5 3.2 3.5 3.2l3.1 9s-10.8 4.9-18 5.3c-8.5.4-22.8 5.2-22.8 5.2l.6-22.7c.2-.1 5.9-4.9 11.2-6.7z"/></g><path d="M787 484.9l129.5-23.7-6.7-36.3-129.4 23.7c-10 1.8-16.7 11.5-14.8 21.5h0c1.8 10 11.4 16.7 21.4 14.8z" class="V"/><path d="M852.5 208.4s17.4-.8 24.8-22.9c0 0 7.1 7.6 35.5 10.6 29.7 3.1 37.8-3.1 52.5.3 10.2 2.3 17.7 12 17.7 12s9.9-12.8 11.3-26.3c2.1-20.7-7.6-46.6-38.9-59.8-51.8-21.8-81 21.5-81 21.5s-30-7.7-48.6 22.8c-14.5 23.8 2.1 48.6 2.1 48.6l24.6-6.8z" fill="#995c29"/><path d="M1079.5 488.6l-89.7-2.1c-4.9.2-8-5.3-5.3-9.5l66.7-101.2c1.1-1.7 2.9-2.7 4.9-2.7l92.3 2c4.9-.2 8 5.3 5.3 9.5l-65.3 99c-1.9 3-5.2 4.9-8.9 5z" fill="#738891"/><g class="W"><path d="M1113.8 458.7l-8.1-1.2c-3.5-.5-5.9-3.8-5.4-7.3l14.4-26.1c.5-3.5 3.8-5.9 7.3-5.4l8.1 1.2c3.7.5 6.3 4 5.7 7.7l-14.3 25.3c-1.9 3.9-4 6.3-7.7 5.8z"/><path d="M1130 425h0c-.4 2.8-3 4.7-5.7 4.3l-23-3.4c-2.8-.4-4.7-3-4.3-5.7h0c.4-2.8 3-4.7 5.7-4.3l23 3.4c2.8.4 4.7 2.9 4.3 5.7z"/><use href="#F"/><use href="#F" x="1.1" y="10.4"/><path d="M1119.9 454.3h0c-.4 2.8-3 4.7-5.7 4.3l-15.7-2.4c-2.8-.4-4.7-3-4.3-5.7h0c.4-2.8 3-4.7 5.7-4.3l15.7 2.4c2.8.4 4.7 3 4.3 5.7z"/><circle cx="841.4" cy="225.6" r="20.1"/></g><path d="M837.4 228.4a7.13 7.13 0 0 1 7.1-7.1c1.1 0 2.1.2 3 .7-1.2-2.1-3.5-3.5-6.1-3.5a7.13 7.13 0 0 0-7.1 7.1c0 2.8 1.7 5.3 4.1 6.4-.6-1-1-2.3-1-3.6z" fill="#ef937e"/></g><g transform="matrix(.055134 0 0 .044526 555.045166 337.241791)"><path d="M682.1 770.7S625.3 846 482.8 846s-196.9-75.3-196.9-75.3v-2.6c0-57.9 46.9-104.8 104.8-104.8h186.5c57.9 0 104.8 46.9 104.8 104.8l.1 2.6h0z" fill="#12a88b"/><path d="M482.6 797.1l117.5-131.3c-7.4-1.6-15-2.5-22.8-2.5H390.7c-7.9 0-15.6.9-23 2.6l114.9 131.2z" fill="#137c54"/><path d="M543.5 663.2l-60.7 69.3-60.8-69.3v-80.1h121.5z" fill="#e2cba3"/><circle cx="477.4" cy="391" r="200.4" class="P"/><path d="M477.4 616.4h0c-94.1 0-170.3-76.2-170.3-170.3V304.6h340.6v141.5c0 94-76.3 170.3-170.3 170.3z" fill="#efd9ab"/><path d="M477.4 304.6H307.1v141.5c0 94.1 76.2 170.3 170.3 170.3h0V304.6h0z" fill="#e2cba3"/><g class="P"><path d="M303.1 446.1s67.7-20.7 108.9-55c41.3-34.3 65.4-90.5 65.4-90.5H303.1v145.5z"/><path d="M477.4 300.6s24.1 56.3 65.4 90.5c41.3 34.3 108.9 55 108.9 55V300.6H477.4z"/></g><path d="M364.9 266.9h215.8l28-85.8c1.6-4.9-.8-10.2-5.5-12.3l-114.4-51a36.73 36.73 0 0 0-30.1 0l-114.6 51c-4.6 2.1-7 7.3-5.5 12.2l26.3 85.9z" fill="#fff"/><path d="M513.2 192h-24.8v-24.9h-29.5V192H434v29.4h24.9v24.8h29.5v-24.8h24.8z" fill="#fc4349"/><path d="M628.2 786.9H559c-1.9 0-3.5-1.5-3.5-3.5v-17.6c0-1.9 1.5-3.5 3.5-3.5h69.2c1.9 0 3.5 1.5 3.5 3.5v17.6c-.1 2-1.6 3.5-3.5 3.5z" fill="#fff"/></g><defs ><path id="D" d="M23.015 590.872l-1.032 7.326c-.114.959-10.208-.565-10.208-.565l-.817-7.583s10.794-.076 12.057.822z"/><path id="E" d="M935.7 921.4s-6.9 5.7-6.7 21.6 2.3 21.8 2.3 21.8l75-.4c5 0 9-4 9.1-8.9.3-10-3.6-24.5-29-21.4-28.8 3.5-30.3-12.8-30.3-12.8l-20.4.1z"/><path id="F" d="M1124 434.3h0c-.4 2.8-3 4.7-5.7 4.3l-23-3.4c-2.8-.4-4.7-3-4.3-5.7h0c.4-2.8 3-4.7 5.7-4.3l23 3.4c2.8.4 4.7 3 4.3 5.7z"/></defs></svg>