<svg xmlns="http://www.w3.org/2000/svg" viewBox="63.039 157.279 333.282 111.925" xmlns:v="https://vecta.io/nano"><style><![CDATA[.B{fill:#fff}.C{fill:#eeeeec}.D{stroke:#3465a4}.E{fill:#d3d7cf}.F{fill:#555753}.G{fill:#55c8ff}.H{fill:#df584c}]]></style><defs><linearGradient id="A" x1=".477" x2=".5" y1=".088" y2="1"><stop stop-color="#99bdd8" offset="0"/><stop stop-color="#778a96" offset="1"/></linearGradient><linearGradient id="B" x1=".44" x2=".741" y1="-.383" y2="1.274" href="#C"/><linearGradient id="C"><stop stop-color="#fff" offset="0"/><stop stop-color="#d4e7f7" stop-opacity="0" offset="1"/></linearGradient><linearGradient id="D" x1=".212" x2=".741" y1=".091" y2="1.274" href="#C"/><linearGradient id="E" x1=".5" x2=".695" y1="-.41" y2="1.451" href="#C"/><linearGradient id="F" x1=".248" x2=".695" y1="0" y2="1.451" href="#C"/><linearGradient id="G" x1=".432" x2=".432" y1="1.637" y2="-.142"><stop stop-color="#555753" offset="0"/><stop stop-color="#a4cded" offset="1"/></linearGradient><linearGradient id="H" x1=".5" x2=".5" y1="-.66" y2="1"><stop offset="0"/><stop stop-color="#204a87" offset="1"/></linearGradient><linearGradient id="I" x1=".439" x2=".5" y1=".269" y2="2.539"><stop stop-color="#8a9da5" offset="0"/><stop offset="1"/></linearGradient><linearGradient id="J" x1=".344" x2=".5" y1=".5" y2="1.128"><stop stop-color="#8a9da5" offset="0"/><stop stop-color="#74848a" offset="1"/></linearGradient><linearGradient id="K" x1=".439" x2=".525" y1=".269" y2="2.013"><stop stop-color="#729fcf" offset="0"/><stop offset="1"/></linearGradient><linearGradient id="L" x1=".462" x2=".508" y1=".179" y2="1.015" href="#M"/><linearGradient id="M"><stop stop-color="#fff" offset="0"/><stop stop-color="#fff" stop-opacity="0" offset="1"/></linearGradient><linearGradient id="N" x1=".407" x2=".509" y1=".155" y2="1.015" href="#C"/><linearGradient id="O" x1=".086" x2="-.005" y1=".179" y2="1.015" href="#M"/><clipPath id="P"><path d="M2599.54 1600.22H-.46V.22h2600z"/></clipPath><linearGradient id="Q" x2="2059.155" x1="2005.126" y1="628.537" y2="628.537" href="#R"><stop offset="0" stop-color="#01064a"/><stop offset="1" stop-color="#55c8ff"/></linearGradient><linearGradient id="R" gradientUnits="userSpaceOnUse"/><linearGradient id="S" x2="1" gradientTransform="matrix(77.982,35.081,-46.328,102.983,1999.103,598.637)" href="#R"><stop offset="0" stop-color="#55c8ff"/><stop offset="1" stop-color="#01064a"/></linearGradient><linearGradient id="T" x2="1" gradientTransform="matrix(214.148,24.27,-45.024,397.269,1963.878,401.744)" href="#R"><stop offset="0" stop-color="#55c8ff"/><stop offset="1" stop-color="#01064a"/></linearGradient><linearGradient id="U" x2="2020.251" x1="1951.418" y1="607.71" y2="607.71" href="#R"><stop offset="0" stop-color="#01064a"/><stop offset="1" stop-color="#55c8ff"/></linearGradient><linearGradient id="V" x2="1" gradientTransform="matrix(55.222,25.348,-19.79,43.114,1954.177,580.362)" href="#R"><stop offset="0" stop-color="#55c8ff"/><stop offset="1" stop-color="#01064a"/></linearGradient><linearGradient id="W" x2="1" gradientTransform="matrix(175.167,34.302,-63.109,322.273,1968.439,366.33)" href="#R"><stop offset="0" stop-color="#55c8ff"/><stop offset="1" stop-color="#01064a"/></linearGradient><linearGradient id="X" x2="2137.17" x1="2109.575" y1="275.574" y2="275.574" href="#R"><stop offset="0" stop-color="#55c8ff"/><stop offset="1" stop-color="#01064a"/></linearGradient><linearGradient id="Y" x2="2107.814" x1="2094.622" y1="281.797" y2="281.797" href="#R"><stop offset="0" stop-color="#55c8ff"/><stop offset="1" stop-color="#01064a"/></linearGradient><linearGradient id="Z" x2="1" gradientTransform="matrix(86.022,7.642,-63.322,712.749,2044.637,215.161)" href="#R"><stop offset="0" stop-color="#01064a"/><stop offset="1" stop-color="#55c8ff"/></linearGradient><linearGradient id="a" x2="1" gradientTransform="matrix(30.091,3.096,-40.303,391.694,2084.47,205.673)" href="#R"><stop offset="0" stop-color="#01064a"/><stop offset="1" stop-color="#55c8ff"/></linearGradient><linearGradient id="b" x2="2171.461" x1="2096.437" y1="260.604" y2="260.604" href="#R"><stop offset="0" stop-color="#55c8ff"/><stop offset="1" stop-color="#01064a"/></linearGradient><linearGradient id="c" x2="1" gradientTransform="matrix(133.245,52.274,-570.708,1454.72,2103.455,170.94)" href="#R"><stop offset="0" stop-color="#55c8ff"/><stop offset="1" stop-color="#01064a"/></linearGradient><linearGradient id="d" x2="1" gradientTransform="matrix(-10.439,56.06,-38.746,-7.215,2073.097,369.068)" href="#R"><stop offset="0" stop-color="#01064a"/><stop offset="1" stop-color="#94f1ff"/></linearGradient><linearGradient id="e" x2="1" gradientTransform="matrix(74.835,-30.222,31.39,77.727,1967.334,240.802)" href="#R"><stop offset="0" stop-color="#55c8ff"/><stop offset="1" stop-color="#01064a"/></linearGradient><linearGradient id="f" x2="2131.885" x1="2102.891" y1="250.286" y2="250.286" href="#R"><stop offset="0" stop-color="#94f1ff"/><stop offset="1" stop-color="#01064a"/></linearGradient><linearGradient id="g" x2="1" gradientTransform="matrix(80.304,-52.261,49.341,75.817,2047.026,243.195)" href="#R"><stop offset="0" stop-color="#94f1ff"/><stop offset="1" stop-color="#01064a"/></linearGradient><linearGradient id="h" x2="1" gradientTransform="matrix(-76.895,69.393,-62.987,-69.796,2171.752,214.691)" href="#R"><stop offset="0" stop-color="#01064a"/><stop offset="1" stop-color="#55c8ff"/></linearGradient><linearGradient id="i" x2="1" gradientTransform="matrix(16.78,-36.237,57.12,26.451,2081.631,253.516)" href="#R"><stop offset="0" stop-color="#01064a"/><stop offset="1" stop-color="#55c8ff"/></linearGradient><linearGradient id="j" x2="1" gradientTransform="matrix(71.872,-12.404,6.68,38.708,2067.53,428.956)" href="#R"><stop offset="0" stop-color="#94f1ff"/><stop offset="1" stop-color="#01064a"/></linearGradient><linearGradient id="k" x2="1" gradientTransform="matrix(105.689,-28.07,40.935,154.13,2071.338,278.388)" href="#R"><stop offset="0" stop-color="#55c8ff"/><stop offset="1" stop-color="#01064a"/></linearGradient><path id="l" d="M-1226.3-805.51h4v292.94h-4z"/><path id="m" d="M-1834.7-1434.3h113.14v9.192h-113.14z"/><path id="n" d="M-2255.6-1465.7h20.577v38.11h-20.577z"/><path id="o" d="M-2242.3-1463.4h5.001v10.169l-5.001-10.169z"/><path id="p" d="M-2236.3-1433.8v5.002h-17.594l17.594-5.002z"/><path id="q" d="M-2235-1465.7h20.577v38.11H-2235z"/><path id="r" d="M-2221.7-1463.4h5.002v10.169l-5.002-10.169z"/><path id="s" d="M-2215.7-1433.8v5.002h-17.593l17.593-5.002z"/><path id="t" d="M-2089.43-3218.2h264.68v9.192h-264.68z"/><path id="u" d="M-2051.037-3232.1h5.615v346h-5.615z"/><path id="v" d="M-1842.293-2880.5h16.97v28.991h-16.97z"/><path id="w" d="M-250.189 615.922c-3.7-20.8-20.2-37.4-40.9-42-2.3-.5-2.4-.7-5.8-1-3.5-.3-5.5-.2-8-.1-2.5.2-3 .4-4.5.6-17.6 3.2-30.7 12.7-38.6 28.8-5.8 11.7-7.1 23.9-2.3 36.5 3.5 9.2 8.3 17.8 13.6 26.1 8.9 14 19 27.1 29.6 39.8l5.8 6.7c.5-.6 1-1 1.4-1.5 9.2-10.5 17.8-21.4 25.9-32.8 7.5-10.5 14.4-21.3 19.7-33.2 3.8-8.9 5.8-18 4.1-27.9zm-51.3 33.1c-15.5 0-28.2-12.2-29-27.5v-1.5-1.5c.8-15.3 13.4-27.5 29-27.5s28.2 12.2 29 27.5v1.5 1.5c-.8 15.3-13.5 27.5-29 27.5z"/></defs><g transform="matrix(.248667 0 0 .248667 62.499996 144.074005)"><path d="M169.08 277.459v17.152h-11.516v207.54h114.12v-207.54h-13.61v-17.152h-88.99-.004z" fill="url(#A)"/><path d="M621.86 144.61c-20.795 2.355-36.641 17.85-39.677 34.377-7.073 5.426-14.804 10.351-23.829 4.571-14.032-2.187-29.226 4.398-35.074 15.046-17.066-4.558-37.123 10.88-29.342 25.023 5.184 10.589 22.758 14.797 34.504 9.041 11.194 12.236 36.212 13.543 48.651 1.909 11.446 4.432 26.163 9.898 37.531 2.326 10.741-5.639 24.361-.773 35.018-6.174 8.921-6.288 18.236-8.972 29.416-5.96 12.696-.222 25.013-6.934 29.694-16.67 10.695 9.556 32.199 6.26 38.423-5.549 7.934 1.785 16.12 9.023 25.843 4.383 18.202-6.171 19.36-29.698 2.485-37.599-9.893-5.56-24.939-2.743-30.004 6.431-5.666 3.079-10.14-7.394-18.278-5.191-10.556-1.618-1.15-14.043-10.165-18.814-7.11-8.436-22.776-10.743-32.297-3.69-7.444 4.507-5.977 24.368-18.104 13.199-7.389-8.769-18.28-15.126-31.321-16.588-4.45-.596-9.016-.637-13.474-.073h0z" fill="url(#B)"/><path d="M630.29 173.3c-13.813 1.564-24.339 11.857-26.356 22.835-4.698 3.604-9.834 6.876-15.828 3.036-9.321-1.453-19.414 2.922-23.298 9.994-11.336-3.028-24.659 7.227-19.49 16.622 3.443 7.034 15.117 9.829 22.92 6.006 7.436 8.128 24.054 8.996 32.316 1.268 7.603 2.944 17.379 6.575 24.93 1.545 7.135-3.745 16.182-.514 23.261-4.101 5.926-4.177 12.113-5.96 19.54-3.959 8.433-.148 16.615-4.606 19.724-11.073 7.104 6.348 21.389 4.158 25.523-3.686 5.27 1.186 10.708 5.994 17.166 2.911 12.09-4.099 12.86-19.727 1.651-24.975-6.571-3.693-16.566-1.822-19.93 4.272-3.764 2.045-6.736-4.911-12.141-3.448-7.011-1.075-.764-9.328-6.752-12.497-4.723-5.604-15.129-7.136-21.454-2.451-4.944 2.994-3.97 16.187-12.026 8.768-4.908-5.825-12.143-10.048-20.805-11.019-2.956-.396-5.989-.424-8.95-.049h0z" fill="url(#D)"/><path d="M987.94 97.456c-24.143-.24-45.406 15.16-52.316 33.532-9.179 5.178-19.002 9.695-28.057 1.856-15.502-4.457-34.16.901-43.038 12.191-18.457-7.579-44.497 7.165-38.605 24.343 3.682 12.77 22.79 20.023 37.353 15.124 10.173 15.487 38.354 20.485 54.934 8.997 12.091 6.647 27.686 14.929 42.2 7.912 13.396-4.906 27.869 2.539 41.119-2.108 11.461-5.9 22.617-7.646 34.702-2.65 14.486 1.529 29.899-4.376 37.259-14.792 10.165 12.369 35.313 11.638 44.861-.92 8.65 3.143 16.448 12.525 28.476 8.611 21.992-4.464 28.229-31.06 10.689-42.414-10.088-7.712-27.791-6.619-35.47 3.104-7.089 2.707-9.987-9.832-19.704-8.468-11.667-3.321 1.628-16.134-7.627-22.824-6.322-10.593-23.657-15.414-35.961-8.729-9.408 4.081-11.894 26.877-23.35 12.472-6.57-11.01-17.628-19.769-32.154-23.262-4.937-1.302-10.121-1.99-15.31-1.973z" fill="url(#E)"/><path d="M991.53 131.27c-16.037-.159-30.161 10.07-34.751 22.274-6.097 3.44-12.622 6.44-18.637 1.232-10.297-2.96-22.691.599-28.588 8.098-12.26-5.034-29.557 4.76-25.643 16.17 2.445 8.483 15.138 13.3 24.812 10.047 6.757 10.288 25.477 13.607 36.49 5.977 8.032 4.415 18.39 9.917 28.031 5.256 8.898-3.259 18.512 1.686 27.313-1.4 7.613-3.919 15.023-5.079 23.051-1.761 9.623 1.016 19.86-2.907 24.749-9.826 6.752 8.216 23.457 7.731 29.799-.611 5.746 2.088 10.925 8.32 18.915 5.72 14.608-2.965 18.751-20.632 7.101-28.174-6.701-5.122-18.46-4.397-23.561 2.062-4.708 1.798-6.634-6.531-13.088-5.625-7.75-2.206 1.082-10.717-5.066-15.161-4.2-7.036-15.714-10.239-23.888-5.798-6.25 2.711-7.9 17.853-15.511 8.285-4.364-7.314-11.709-13.132-21.359-15.452-3.279-.865-6.723-1.322-10.17-1.311z" fill="url(#F)"/><path d="M742.71 97.456v39.778h-24.28v290.38h-29.136v-171.04h-116.54v91.489h-16.996v-212.81h-106.83v149.17h-31.564v63.645h-2.428v79.556H361.52v-157.12h-2.428v71.6l2.428 161.1v-1.989h978.49v-3.978h2.428v-232.7h-63.129v-153.14h-41.276v153.14h-19.424v159.11h-19.424v-161.1h-70.412v-70.668l-121.4-32.755v59.667h-101.98v135.24h-55.844v-216.79h-19.424V97.463h-87.409z" fill="url(#G)"/><path d="M543.684 304.056h176.604V496.81H543.684V304.056z" fill="#349ba4"/><path d="M488.582 703.766v13.494h4.12v-13.494h-4.12zm5.365 0v13.494h4.12v-13.494h-4.12zm5.357 0v13.494h4.128v-13.494h-4.128zm5.365 0v13.494h4.12v-13.494h-4.12zm5.365 0v13.494h4.12v-13.494h-4.12zm5.357 0v13.494h4.128v-13.494h-4.128zm5.365 0v13.494h4.12v-13.494h-4.12zm5.365 0v13.494h4.12v-13.494h-4.12zm5.357 0v13.494h4.128v-13.494h-4.128zm5.365 0v13.494h4.12v-13.494h-4.12zm5.365 0v13.494h4.12v-13.494h-4.12zm5.357 0v13.494h4.128v-13.494h-4.128zm5.365 0v13.494h4.12v-13.494h-4.12zm5.365 0v13.494h4.12v-13.494h-4.12z" fill="#72cccf"/><path d="m-1426.9-2792v29h16.969v-29h-16.969zm22.094 0v29h16.969v-29h-16.969zm22.062 0v29h17v-29h-17zm22.094 0v29h16.969v-29h-16.969zm22.094 0v29h16.969v-29h-16.969zm22.062 0v29h17v-29h-17zm22.094 0v29h16.969v-29h-16.969zm22.094 0v29h16.969v-29h-16.969zm22.062 0v29h17v-29h-17zm22.094 0v29h16.969v-29h-16.969zm22.094 0v29h16.969v-29h-16.969zm22.062 0v29h17v-29h-17zm22.094 0v29h16.969v-29h-16.969zm22.094 0v29h16.969v-29h-16.969zm-287.09 36.25v29h16.969v-29h-16.969zm22.094 0v29h16.969v-29h-16.969zm22.062 0v29h17v-29h-17zm22.094 0v29h16.969v-29h-16.969zm22.094 0v29h16.969v-29h-16.969zm22.062 0v29h17v-29h-17zm22.094 0v29h16.969v-29h-16.969zm22.094 0v29h16.969v-29h-16.969zm22.062 0v29h17v-29h-17zm22.094 0v29h16.969v-29h-16.969zm22.094 0v29h16.969v-29h-16.969zm22.062 0v29h17v-29h-17zm22.094 0v29h16.969v-29h-16.969zm22.094 0v29h16.969v-29h-16.969zm-287.09 36.25v29h16.969v-29h-16.969zm22.094 0v29h16.969v-29h-16.969zm22.062 0v29h17v-29h-17zm22.094 0v29h16.969v-29h-16.969zm22.094 0v29h16.969v-29h-16.969zm22.062 0v29h17v-29h-17zm22.094 0v29h16.969v-29h-16.969zm22.094 0v29h16.969v-29h-16.969zm22.062 0v29h17v-29h-17zm22.094 0v29h16.969v-29h-16.969zm22.094 0v29h16.969v-29h-16.969zm22.062 0v29h17v-29h-17zm22.094 0v29h16.969v-29h-16.969zm22.094 0v29h16.969v-29h-16.969zm-287.09 36.25v29h16.969v-29h-16.969zm22.094 0v29h16.969v-29h-16.969zm22.062 0v29h17v-29h-17zm22.094 0v29h16.969v-29h-16.969zm22.094 0v29h16.969v-29h-16.969zm22.062 0v29h17v-29h-17zm22.094 0v29h16.969v-29h-16.969zm22.094 0v29h16.969v-29h-16.969zm22.062 0v29h17v-29h-17zm22.094 0v29h16.969v-29h-16.969zm22.094 0v29h16.969v-29h-16.969zm22.062 0v29h17v-29h-17zm22.094 0v29h16.969v-29h-16.969zm22.094 0v29h16.969v-29h-16.969zm-287.09 36.25v29h16.969v-29h-16.969zm22.094 0v29h16.969v-29h-16.969zm22.062 0v29h17v-29h-17zm22.094 0v29h16.969v-29h-16.969zm22.094 0v29h16.969v-29h-16.969zm22.062 0v29h17v-29h-17zm22.094 0v29h16.969v-29h-16.969zm22.094 0v29h16.969v-29h-16.969zm22.062 0v29h17v-29h-17zm22.094 0v29h16.969v-29h-16.969zm22.094 0v29h16.969v-29h-16.969zm22.062 0v29h17v-29h-17zm22.094 0v29h16.969v-29h-16.969zm22.094 0v29h16.969v-29h-16.969zm-287.09 36.25v29h16.969v-29h-16.969zm22.094 0v29h16.969v-29h-16.969zm22.062 0v29h17v-29h-17zm22.094 0v29h16.969v-29h-16.969zm22.094 0v29h16.969v-29h-16.969zm22.062 0v29h17v-29h-17zm22.094 0v29h16.969v-29h-16.969zm22.094 0v29h16.969v-29h-16.969zm22.062 0v29h17v-29h-17zm22.094 0v29h16.969v-29h-16.969zm22.094 0v29h16.969v-29h-16.969zm22.062 0v29h17v-29h-17zm22.094 0v29h16.969v-29h-16.969zm22.094 0v29h16.969v-29h-16.969zm-287.09 36.25v29h16.969v-29h-16.969zm22.094 0v29h16.969v-29h-16.969zm22.062 0v29h17v-29h-17zm22.094 0v29h16.969v-29h-16.969zm22.094 0v29h16.969v-29h-16.969zm22.062 0v29h17v-29h-17zm22.094 0v29h16.969v-29h-16.969zm22.094 0v29h16.969v-29h-16.969zm22.062 0v29h17v-29h-17zm22.094 0v29h16.969v-29h-16.969zm22.094 0v29h16.969v-29h-16.969zm22.062 0v29h17v-29h-17zm22.094 0v29h16.969v-29h-16.969zm22.094 0v29h16.969v-29h-16.969zm-287.09 36.25v29h16.969v-29h-16.969zm22.094 0v29h16.969v-29h-16.969zm22.062 0v29h17v-29h-17zm22.094 0v29h16.969v-29h-16.969zm22.094 0v29h16.969v-29h-16.969zm22.062 0v29h17v-29h-17zm22.094 0v29h16.969v-29h-16.969zm22.094 0v29h16.969v-29h-16.969zm22.062 0v29h17v-29h-17zm22.094 0v29h16.969v-29h-16.969zm22.094 0v29h16.969v-29h-16.969zm22.062 0v29h17v-29h-17zm22.094 0v29h16.969v-29h-16.969zm22.094 0v29h16.969v-29h-16.969zm-287.09 36.25v29h16.969v-29h-16.969zm22.094 0v29h16.969v-29h-16.969zm22.062 0v29h17v-29h-17zm22.094 0v29h16.969v-29h-16.969zm22.094 0v29h16.969v-29h-16.969zm22.062 0v29h17v-29h-17zm22.094 0v29h16.969v-29h-16.969zm22.094 0v29h16.969v-29h-16.969zm22.062 0v29h17v-29h-17zm22.094 0v29h16.969v-29h-16.969zm22.094 0v29h16.969v-29h-16.969zm22.062 0v29h17v-29h-17zm22.094 0v29h16.969v-29h-16.969zm22.094 0v29h16.969v-29h-16.969zm-287.09 36.25v71.437h16.969v-71.437h-16.969zm22.094 0v71.437h16.969v-71.437h-16.969zm22.062 0v71.437h17v-71.437h-17zm22.094 0v71.437h16.969v-71.437h-16.969zm22.094 0v71.437h16.969v-71.437h-16.969zm22.062 0v71.437h17v-71.437h-17zm22.094 0v71.437h16.969v-71.437h-16.969zm22.094 0v71.437h16.969v-71.437h-16.969zm22.062 0v71.437h17v-71.437h-17zm22.094 0v71.437h16.969v-71.437h-16.969zm22.094 0v71.437h16.969v-71.437h-16.969zm22.062 0v71.437h17v-71.437h-17zm22.094 0v71.437h16.969v-71.437h-16.969zm22.094 0v71.437h16.969v-71.437h-16.969z" fill="url(#H)" transform="matrix(.56806 0 0 .46532 1356.17981 1611)"/><g transform="matrix(1.002 0 0 .8208 3028 1401.7)"><g transform="matrix(1.2295 0 0 1.2295 -380.83 -473.02)"><path fill="url(#I)" d="M-1274.2-885.17h65.66v30.305h-65.66z"/><path fill="#8a9da5" d="M-1285.9-857.36h88.893v345.47h-88.893z"/><g class="F"><use href="#l"/><use href="#l" x="11.4"/><use href="#l" x="-11.4"/><use href="#l" x="-22.8"/><use href="#l" x="-34.2"/><use href="#l" x="-45.6"/></g><path d="M-1248.1-907.36h2.828v23.335h-2.828zm12.5-40.3h2.828v62.933h-2.828z"/></g><path fill="url(#I)" d="M-1831.2-1473.7h109.16v30.305h-109.16z"/><path fill="url(#J)" d="M-1842.7-1448.8h132.89v345.47h-132.89z"/><g class="F"><use href="#m"/><use href="#m" y="21.1"/><use href="#m" y="147.8"/><use href="#m" y="168.9"/><use href="#m" y="190.1"/><use href="#m" y="211.2"/><use href="#m" y="232.3"/><use href="#m" y="253.4"/><use href="#m" y="274.5"/><use href="#m" y="295.6"/><use href="#m" x="1.4" y="316.8"/><use href="#m" y="42.2"/><use href="#m" y="63.3"/><use href="#m" y="84.5"/><use href="#m" y="105.6"/><use href="#m" y="126.7"/></g></g><g transform="matrix(.77876 0 0 .63792 2104.5 1188.5)"><path fill="url(#K)" d="M-2237.7-1538.8h104.31v39.305h-104.31z"/><use href="#n" stroke-width="1.559" class="C D"/><use href="#o" class="B"/><use href="#p" class="E"/><use href="#n" class="C D"/><use href="#o" class="B"/><use href="#p" class="E"/><use href="#n" y="38.1" class="C D"/><use href="#o" y="38.1" class="B"/><use href="#p" y="38.1" class="E"/><use href="#n" y="76.2" class="C D"/><use href="#o" y="76.2" class="B"/><use href="#p" y="76.2" class="E"/><use href="#n" y="114.3" class="C D"/><use href="#o" y="114.3" class="B"/><use href="#p" y="114.3" class="E"/><use href="#n" y="152.4" class="C D"/><path d="M-2242.3-1311h5.001v10.169L-2242.3-1311z" class="B"/><use href="#p" y="152.4" class="E"/><use href="#n" y="190.6" class="C D"/><use href="#o" y="190.5" class="B"/><use href="#p" y="190.5" class="E"/><use href="#n" y="228.7" class="C D"/><use href="#o" y="228.6" class="B"/><use href="#p" y="228.6" class="E"/><use href="#n" y="266.8" class="C D"/><use href="#o" y="266.7" class="B"/><use href="#p" y="266.8" class="E"/><use href="#n" y="304.9" class="C D"/><use href="#o" y="304.8" class="B"/><use href="#p" y="304.9" class="E"/><use href="#n" y="343" class="C D"/><use href="#o" y="342.9" class="B"/><use href="#p" y="343" class="E"/><use href="#q" class="C D"/><use href="#r" class="B"/><use href="#s" class="E"/><use href="#q" y="38.1" class="C D"/><use href="#r" y="38.1" class="B"/><use href="#s" y="38.1" class="E"/><use href="#q" y="76.2" class="C D"/><use href="#r" y="76.2" class="B"/><use href="#s" y="76.2" class="E"/><use href="#q" y="114.3" class="C D"/><use href="#r" y="114.3" class="B"/><use href="#s" y="114.3" class="E"/><use href="#q" y="152.4" class="C D"/><path d="M-2221.7-1311h5.002v10.169L-2221.7-1311z" class="B"/><use href="#s" y="152.4" class="E"/><use href="#q" y="190.6" class="C D"/><use href="#r" y="190.5" class="B"/><use href="#s" y="190.5" class="E"/><use href="#q" y="228.7" class="C D"/><use href="#r" y="228.6" class="B"/><use href="#s" y="228.6" class="E"/><use href="#q" y="266.8" class="C D"/><use href="#r" y="266.7" class="B"/><use href="#s" y="266.8" class="E"/><use href="#q" y="304.9" class="C D"/><use href="#r" y="304.8" class="B"/><use href="#s" y="304.9" class="E"/><use href="#q" y="343" class="C D"/><use href="#r" y="342.9" class="B"/><use href="#s" y="343" class="E"/><use href="#n" x="41.1" class="C D"/><use href="#r" x="20.6" class="B"/><use href="#p" x="41.2" class="E"/><use href="#n" x="41.1" y="38.1" class="C D"/><use href="#r" x="20.6" y="38.1" class="B"/><use href="#p" x="41.2" y="38.1" class="E"/><use href="#n" x="41.1" y="76.2" class="C D"/><use href="#r" x="20.6" y="76.2" class="B"/><use href="#p" x="41.2" y="76.2" class="E"/><use href="#n" x="41.1" y="114.3" class="C D"/><use href="#r" x="20.6" y="114.3" class="B"/><use href="#p" x="41.2" y="114.3" class="E"/><use href="#n" x="41.1" y="152.4" class="C D"/><path d="M-2201.1-1311h5.002v10.169L-2201.1-1311z" class="B"/><use href="#p" x="41.2" y="152.4" class="E"/><use href="#n" x="41.1" y="190.6" class="C D"/><use href="#r" x="20.6" y="190.5" class="B"/><use href="#p" x="41.2" y="190.5" class="E"/><use href="#n" x="41.1" y="228.7" class="C D"/><use href="#r" x="20.6" y="228.6" class="B"/><use href="#p" x="41.2" y="228.6" class="E"/><use href="#n" x="41.1" y="266.8" class="C D"/><use href="#r" x="20.6" y="266.7" class="B"/><use href="#p" x="41.2" y="266.8" class="E"/><use href="#n" x="41.1" y="304.9" class="C D"/><use href="#r" x="20.6" y="304.8" class="B"/><use href="#p" x="41.2" y="304.9" class="E"/><use href="#n" x="41.1" y="343" class="C D"/><use href="#r" x="20.6" y="342.9" class="B"/><use href="#p" x="41.2" y="343" class="E"/><use href="#n" x="61.7" class="C D"/><use href="#r" x="41.2" class="B"/><use href="#p" x="61.8" class="E"/><use href="#n" x="61.7" y="38.1" class="C D"/><use href="#r" x="41.2" y="38.1" class="B"/><use href="#p" x="61.8" y="38.1" class="E"/><use href="#n" x="61.7" y="76.2" class="C D"/><use href="#r" x="41.2" y="76.2" class="B"/><use href="#p" x="61.8" y="76.2" class="E"/><use href="#n" x="61.7" y="114.3" class="C D"/><use href="#r" x="41.2" y="114.3" class="B"/><use href="#p" x="61.8" y="114.3" class="E"/><use href="#n" x="61.7" y="152.4" class="C D"/><path d="M-2180.5-1311h5.002v10.169L-2180.5-1311z" class="B"/><use href="#p" x="61.8" y="152.4" class="E"/><use href="#n" x="61.7" y="190.6" class="C D"/><use href="#r" x="41.2" y="190.5" class="B"/><use href="#p" x="61.8" y="190.5" class="E"/><use href="#n" x="61.7" y="228.7" class="C D"/><use href="#r" x="41.2" y="228.6" class="B"/><use href="#p" x="61.8" y="228.6" class="E"/><use href="#n" x="61.7" y="266.8" class="C D"/><use href="#r" x="41.2" y="266.7" class="B"/><use href="#p" x="61.8" y="266.8" class="E"/><use href="#n" x="61.7" y="304.9" class="C D"/><use href="#r" x="41.2" y="304.8" class="B"/><use href="#p" x="61.8" y="304.9" class="E"/><use href="#n" x="61.7" y="343" class="C D"/><use href="#r" x="41.2" y="342.9" class="B"/><use href="#p" x="61.8" y="343" class="E"/><use href="#n" x="82.3" class="C D"/><path d="M-2160-1463.4h5.001v10.169L-2160-1463.4z" class="B"/><use href="#s" x="61.7" class="E"/><use href="#n" x="82.3" y="38.1" class="C D"/><path d="M-2160-1425.3h5.001v10.169L-2160-1425.3z" class="B"/><use href="#s" x="61.7" y="38.1" class="E"/><use href="#n" x="82.3" y="76.2" class="C D"/><path d="M-2160-1387.2h5.001v10.169L-2160-1387.2z" class="B"/><use href="#s" x="61.7" y="76.2" class="E"/><use href="#n" x="82.3" y="114.3" class="C D"/><path d="M-2160-1349.1h5.001v10.169L-2160-1349.1z" class="B"/><use href="#s" x="61.7" y="114.3" class="E"/><use href="#n" x="82.3" y="152.4" class="C D"/><path d="M-2160-1311h5.001v10.169L-2160-1311z" class="B"/><use href="#s" x="61.7" y="152.4" class="E"/><use href="#n" x="82.3" y="190.6" class="C D"/><path d="M-2160-1272.9h5.001v10.169L-2160-1272.9z" class="B"/><use href="#s" x="61.7" y="190.5" class="E"/><use href="#n" x="82.3" y="228.7" class="C D"/><path d="M-2160-1234.8h5.001v10.169L-2160-1234.8z" class="B"/><use href="#s" x="61.7" y="228.6" class="E"/><use href="#n" x="82.3" y="266.8" class="C D"/><path d="M-2160-1196.7h5.001v10.169L-2160-1196.7z" class="B"/><path d="M-2154-1167v5.002h-17.593L-2154-1167z" class="E"/><use href="#n" x="82.3" y="304.9" class="C D"/><path d="M-2160-1158.6h5.001v10.169L-2160-1158.6z" class="B"/><use href="#s" x="61.7" y="304.9" class="E"/><use href="#n" x="82.3" y="343" class="C D"/><path d="M-2160-1120.5h5.001v10.169L-2160-1120.5z" class="B"/><use href="#s" x="61.7" y="343" class="E"/><use href="#n" x="102.9" class="C D"/><use href="#r" x="82.3" class="B"/><use href="#s" x="82.3" class="E"/><use href="#n" x="102.9" y="38.1" class="C D"/><use href="#r" x="82.3" y="38.1" class="B"/><use href="#s" x="82.3" y="38.1" class="E"/><use href="#n" x="102.9" y="76.2" class="C D"/><use href="#r" x="82.3" y="76.2" class="B"/><use href="#s" x="82.3" y="76.2" class="E"/><use href="#n" x="102.9" y="114.3" class="C D"/><use href="#r" x="82.3" y="114.3" class="B"/><use href="#s" x="82.3" y="114.3" class="E"/><use href="#n" x="102.9" y="152.4" class="C D"/><path d="M-2139.4-1311h5.002v10.169L-2139.4-1311z" class="B"/><use href="#s" x="82.3" y="152.4" class="E"/><use href="#n" x="102.9" y="190.6" class="C D"/><use href="#r" x="82.3" y="190.5" class="B"/><use href="#s" x="82.3" y="190.5" class="E"/><use href="#n" x="102.9" y="228.7" class="C D"/><use href="#r" x="82.3" y="228.6" class="B"/><use href="#s" x="82.3" y="228.6" class="E"/><use href="#n" x="102.9" y="266.8" class="C D"/><use href="#r" x="82.3" y="266.7" class="B"/><use href="#s" x="82.3" y="266.8" class="E"/><use href="#n" x="102.9" y="304.9" class="C D"/><use href="#r" x="82.3" y="304.8" class="B"/><use href="#s" x="82.3" y="304.9" class="E"/><use href="#n" x="102.9" y="343" class="C D"/><use href="#r" x="82.3" y="342.9" class="B"/><use href="#s" x="82.3" y="343" class="E"/><use href="#n" x="123.5" class="C D"/><use href="#r" x="102.9" class="B"/><use href="#s" x="102.9" class="E"/><use href="#n" x="123.5" y="38.1" class="C D"/><use href="#r" x="102.9" y="38.1" class="B"/><use href="#s" x="102.9" y="38.1" class="E"/><use href="#n" x="123.5" y="76.2" class="C D"/><use href="#r" x="102.9" y="76.2" class="B"/><use href="#s" x="102.9" y="76.2" class="E"/><use href="#n" x="123.5" y="114.3" class="C D"/><use href="#r" x="102.9" y="114.3" class="B"/><use href="#s" x="102.9" y="114.3" class="E"/><use href="#n" x="123.5" y="152.4" class="C D"/><path d="M-2118.8-1311h5.002v10.169L-2118.8-1311z" class="B"/><use href="#s" x="102.9" y="152.4" class="E"/><use href="#n" x="123.5" y="190.6" class="C D"/><use href="#r" x="102.9" y="190.5" class="B"/><use href="#s" x="102.9" y="190.5" class="E"/><use href="#n" x="123.5" y="228.7" class="C D"/><use href="#r" x="102.9" y="228.6" class="B"/><use href="#s" x="102.9" y="228.6" class="E"/><use href="#n" x="123.5" y="266.8" class="C D"/><use href="#r" x="102.9" y="266.7" class="B"/><use href="#s" x="102.9" y="266.8" class="E"/><use href="#n" x="123.5" y="304.9" class="C D"/><use href="#r" x="102.9" y="304.8" class="B"/><use href="#s" x="102.9" y="304.9" class="E"/><use href="#n" x="123.5" y="343" class="C D"/><use href="#r" x="102.9" y="342.9" class="B"/><use href="#s" x="102.9" y="343" class="E"/><path fill="url(#K)" d="M-2255.7-1504.8h144.31v39.305h-144.31z"/></g><g transform="matrix(.46427 0 0 .3803 1211.5 1584.921509)"><path fill="url(#J)" d="M-2112.4-3232.6h310.89v382.24h-310.89z"/><g class="F"><use href="#t"/><use href="#t" y="21.2"/><use href="#t" y="147.9"/><use href="#t" y="169"/><use href="#t" y="190.1"/><use href="#t" y="211.2"/><use href="#t" y="232.3"/><use href="#t" y="253.5"/><use href="#t" y="274.6"/><use href="#t" y="295.7"/><use href="#t" y="316.8"/><use href="#t" y="42.3"/><use href="#t" y="63.4"/><use href="#t" y="84.5"/><use href="#t" y="105.6"/><use href="#t" y="126.8"/></g><g fill="#8a9da5"><use href="#u"/><use href="#u" x="182.473" y="4.6"/><use href="#u" x="60.824" y="2.2"/><use href="#u" x="121.649" y="0.8"/></g><g class="F"><use href="#v"/><use href="#v" x="-123.053"/><use href="#v" x="-143.639"/><use href="#v" x="-164.226"/><use href="#v" x="-184.579"/><use href="#v" x="-205.165"/><use href="#v" x="-225.752"/><use href="#v" x="-246.105"/><use href="#v" x="-266.692"/><use href="#v" x="20.353"/><use href="#v" x="-20.587"/><use href="#v" x="-41.174"/><use href="#v" x="-61.526"/><use href="#v" x="-82.113"/><use href="#v" x="-102.7"/></g></g><path d="M165.74 67.172c-23.948 1.386-31.99 30.034-14.674 42.048 5.539 10.302-13.673 21.483-23.67 12.714-16.998-5.016-37.716 2.071-45.466 15.411-18.96-8.289-41.864 6.263-42.892 22.624-3.336 16.579 11.769 36.735 34.019 35.578 13.936.87 21.523-17.346 36.274-6.85 15.595 4.465 30.186-13.23 42.477-2.372 13.316 5.583 30.923 4.231 41.961-4.289 15.389 7.589 35.972-6.939 48.888 6.39 23.39 12.697 59.767 7.746 74.282-12.505 12.518-1.339 19.543 16.038 35.074 11.933 12.397 2.951 23.908-11.319 31.189-8.864 14.474 11.725 42.002 4.386 45.903-11.893 6.072-15.598-10.724-35.254-31.545-32.352-17.925 8.515-22.869-18.746-42.158-15.168-4.856-5.028 7.279-16.525-.522-24.296-4.919-12.084-23.389-19.147-37.154-12.444-6.56 5.789-13.169 18.929-23.222 7.948-14.561-8.623-34.804-1.157-47.852-3.474-14.976-11.451-38.085-15.804-57.296-9.455-4.78-6.635-14.045-11.359-23.618-10.684z" fill="url(#L)"/><path d="M198.82 102.52c-14.466.834-19.138 20.225-8.593 28.448 3.416 7.01-8.123 14.507-14.223 8.517-10.307-3.477-22.782 1.238-27.379 10.249-11.514-5.704-25.262 4.062-25.776 15.152-1.907 11.227 7.355 24.961 20.796 24.275 8.429.651 12.895-11.667 21.88-4.485 9.455 3.096 18.158-8.838 25.658-1.421 8.085 3.845 18.718 3.005 25.334-2.723 9.351 5.214 21.696-4.547 29.591 4.548 14.22 8.713 36.175 5.516 44.815-8.152 7.558-.853 11.918 10.961 21.278 8.246 7.512 2.056 14.376-7.57 18.793-5.873 8.826 8.014 25.416 3.159 27.666-7.862 3.568-10.55-6.713-23.952-19.279-22.077-10.778 5.695-13.946-12.812-25.58-10.471-2.968-3.431 4.291-11.173-.475-16.477-3.053-8.216-14.262-13.086-22.538-8.602-3.927 3.896-7.835 12.778-13.983 5.287-8.857-5.912-21.044-.938-28.946-2.567-9.127-7.831-23.123-10.884-34.692-6.664-2.933-4.52-8.564-7.764-14.345-7.349h0z" fill="url(#N)"/><path d="M1068.6 469.36l18.266 18.868 2.346-1.661-20.612-17.207z" fill="#8f5902"/><path d="M42.272 301.78c-5.186-.01-10.096 2.64-12.701 6.255-8.879-2.934-19.177-1.926-27.405 1.952v59.871c7.384-3.089 17.228 2.499 24.86-1.264 6.416 4.952 16.633 5.729 24.372 2.484 7.144-6.311 15.633 3.971 24.697 1.375 8.573-6.1 12.969 4.498 21.068 3.993 12.932.672 21.735-11.038 19.796-20.674-.598-9.51-13.921-17.972-24.941-13.154-4.505-7.753-16.551-11.877-26.43-8.962-5.81 5.097-16.976-1.399-13.757-7.387 10.064-6.983 5.389-23.64-8.53-24.445a14.93 14.93 0 0 0-1.029-.045h0z" fill="url(#O)"/></g><path d="M264.042 264.739v-17.112c0-4.622 3.726-8.368 8.321-8.368h4.366a.55.55 0 1 0 0-1.105h-4.366c-4.596 0-8.321-3.746-8.321-8.368v-17.112h31.426v17.112a8.39 8.39 0 0 1-2.437 5.918c-1.561 1.569-3.678 2.451-5.885 2.45h-4.364a.55.55 0 0 0-.55.552c0 .147.058.287.161.391a.55.55 0 0 0 .389.162h4.364c2.207-.001 4.324.881 5.885 2.45a8.39 8.39 0 0 1 2.437 5.918v17.112z" fill="#cee2f2"/><path d="M272.364 241.128c-3.569.001-6.462 2.91-6.462 6.499v15.243h27.707v-15.243c0-1.724-.681-3.377-1.892-4.596s-2.856-1.904-4.57-1.903h-4.364c-.861.001-1.656-.46-2.087-1.21s-.431-1.673 0-2.422 1.226-1.211 2.087-1.21h4.364c1.714 0 3.358-.685 4.57-1.903s1.893-2.872 1.892-4.596v-15.243h-27.707v15.243c0 3.589 2.893 6.499 6.462 6.499h4.366c.861-.001 1.656.46 2.087 1.21s.431 1.673 0 2.422-1.226 1.211-2.087 1.21z" class="B"/><path d="M297.73 266.642c-.003 1.049-.847 1.899-1.891 1.903h-32.168c-1.044-.003-1.889-.853-1.892-1.903h0c.003-1.05.849-1.9 1.892-1.903h32.168c1.043.003 1.888.854 1.891 1.903zm0-55.871c-.002 1.049-.847 1.9-1.891 1.903h-32.168c-1.044-.003-1.889-.853-1.892-1.903h0c.003-1.05.849-1.9 1.892-1.903h32.168c1.043.003 1.888.854 1.891 1.903z" fill="#50667e"/><g fill="#ffc640"><path d="M293.608 259.505c-4.272 0-12.742-.807-12.651-1.388-.012-.069.091-.253.297-.306 0 0 1.894-.493 2.704-1.291.798-.768 1.24-1.837 1.217-2.948.035-.95-.313-1.874-.965-2.561a3.88 3.88 0 0 1-.425-.399c-.462-.629-.381-3.388.051-3.625.064-.028.13-.051.197-.068a.52.52 0 0 0 .415-.248c.09-.146.102-.327.034-.485 0 0-.395-1.08-1.093-1.654s-2.132-.9-2.132-.9c-.369-.082-.674-.364-.674-.626-.026-.252-.186-.471-.418-.57-.266-.157-.597-.148-.854.023a.79.79 0 0 0-.339.547c0 .261-.302.544-.675.631 0 0-1.615.369-2.382 1.085-.746.679-1.164 1.649-1.146 2.661-.021.985.344 1.939 1.017 2.656.673.729 2.535 1.401 2.535 1.401a1.06 1.06 0 0 1 .652.931v2.648c0 .382-.271.542-.601.353a2.23 2.23 0 0 1-.485-.464 2.33 2.33 0 0 1-.435-.679c-.148-.375-.517-.613-.918-.591l-1.521.144a.53.53 0 0 0-.422.24c-.094.144-.113.324-.052.485 0 0 .483 1.468 1.228 2.197.191.761.2 1.556.029 2.322-.568.1-6.376.436-9.894.436v3.408h27.707zm-17.333-.613a3.8 3.8 0 0 1 .166-1.71c.826.446 1.97.751 2.013.889.024.331-1.223.722-2.18.821zm2.696-10.662a.4.4 0 0 1-.182.4c-.135.085-.307.081-.438-.011-.177-.102-.332-.24-.455-.404a1.48 1.48 0 0 1-.358-.948c.002-.377.142-.741.392-1.022.11-.152.249-.28.409-.377.137-.085.311-.083.446.006a.42.42 0 0 1 .186.408zm1.611-1.916c0-.384.257-.522.573-.309l.455.53c.194.361.58.575.988.548l.151-.017c.425.617.543 2.934.443 3.306-.633-.3-1.284-.557-1.95-.771-.381-.141-.642-.498-.661-.906zm0 8.845v-2.368c-.017-.166.056-.328.191-.425a.46.46 0 0 1 .462-.042 2.34 2.34 0 0 1 .783.486 1.59 1.59 0 0 1 .438 1.117 1.75 1.75 0 0 1-.523 1.256c-.192.205-.428.364-.69.464a.48.48 0 0 1-.466-.059c-.135-.1-.208-.262-.195-.43z"/><path d="M279.755 229.411a121.8 121.8 0 0 1-13.854-.75v1.126c0 3.589 2.893 6.499 6.462 6.499h4.365a2.4 2.4 0 0 1 1.703.709c.452.454.705 1.07.705 1.712v5.115h1.236v-5.115c-.001-.642.253-1.258.704-1.712a2.4 2.4 0 0 1 1.702-.709h4.366c1.714 0 3.358-.685 4.57-1.903s1.893-2.872 1.892-4.596v-1.126c-4.6.513-9.225.763-13.853.75z"/></g><path d="M293.608 214.957c0 .572-.461 1.036-1.03 1.036h-25.646c-.273 0-.536-.109-.729-.303a1.04 1.04 0 0 1-.302-.733v-.414h27.707z" fill="#50667e"/><g clip-path="url(#P)" transform="matrix(.128796 0 0 .120822 -47.238323 160.769531)"><path d="M2058.6 628.5l.6 9.2s-4.4 6.9-11.2 11v-2.3s-12.1 19.3-25.3 19.5c-10.6.1-17.7.1-17.6-12.4s53.5-25 53.5-25z" fill="url(#Q)"/><path d="M2025.4 626.7s-15.7 16.9-19 22.5-1.3 20.7 21.3 13.8c10.3-4.4 14.2-12.9 16.9-16.8 1.8-2.7 10.1-11.2 14.9-16.1l3.4-3.4s-8-11.5-37.5 0z" fill="url(#S)"/><path d="M2158 432.8s9 41.9-32.3 61.9c-45.4 21.9-44.8 26.3-44.8 26.3l-8.7 60.5c-3.9 27.1-7.9 46.3-7.9 46.3s-21.3 10-40.8 0c0 0 10.4-32.8 12.8-49.8 2.4-17.1 4-55.4 4-55.4s-2.3-32.3 25.2-49.3c27.9-17.2 30.1-38.2 30.1-38.2z" fill="url(#T)"/><path d="M2019.5 607.7s1.9 8.2-.4 10.2c-2.3 1.9-12.5 3.8-16.7 4.2-1.6-3.3-1.1-3.9-1.1-3.9s-6 1.6-11.2 3.3c-5.8 1.9-28.7 11.1-33.3 10-4.7-1-6.5-5.3-4.7-9.2 1.9-3.9 67.4-14.6 67.4-14.6z" fill="url(#U)"/><path d="M1984.1 598.2s-9.1 7.6-21.1 12c-11.9 4.5-11.2 13.9-10.6 14.6.5.7 4.3 4.9 13.4 2.2 9.1-2.8 15.6-5.3 22.4-7.7 4.5-1.6 6.4-1.4 13-4 6.1-2.3 19.4-5.1 19.1-6.9-.4-1.8-29.3-11.9-36.2-10.2z" fill="url(#V)"/><path d="M2077.7 411.6s-56.3 29.8-85.2 49.8c-10.6 9.2-14.3 25.3-11.5 42.9 2.7 17.6 6.4 84.2.6 95.5 0 0 22.5 11.2 39.2 9.7v-62.9c.3-32.3-3.3-53.5-3.3-53.5s35.2-10.7 73.5-37.4l14-21z" fill="url(#W)"/><path d="M2143.8 274.9H2085l-10.8 140.4s11.8 17.6 33.6 19.3l21.5-52.2z" class="G"/><g fill="#ff3131"><path d="m2098.3 293.3l5.1 7.1 7.5-5.2-3.1-13.4z"/><path d="M2102.4 297.9s-17.8 40.4-17.7 82l5.2 10.8 6.5-9s-3.1-40.4 8.6-83.8z"/></g><path d="m2109.6 285.3l2.3 16.8 25.3-19.6-3.9-6.9z" fill="url(#X)"/><path d="m2107.8 281.8l-10.3 16.1-2.9-10.6z" fill="url(#Y)"/><g class="G"><path d="m2107.8 282.6l1.8 17.8 27.6-18.9 1.2-20.1-11.5-9.1z"/><path d="m2107.8 282.6l-12.2 13.8-6.3-20.9-2.1-11.4 12.6-3.5z"/></g><path d="M2092.3 257.3c-.7 2.1-1.6 7.4-2.4 14-1.9 14.2-3.8 34.5-3.8 42.4 0 11.5-4.6 39.6-5.6 55.7-.1 2.8-.4 6.6-.7 11l-4.7 56.3c-9.6-2.3-19-17.9-19-17.9s15-30.9 15.2-66.4c-2.3-73.8 21-95.1 21-95.1z" fill="url(#Z)"/><path d="M2089.9 265v6.3c-1.9 14.2-3.8 34.5-3.8 42.4 0 11.5-4.6 39.6-5.6 55.7-.1 2.8-.4 6.6-.7 11v.1s-2-19.5-1.3-38.2 0-36 0-36l6-3.4-3.4-5.2z" fill="url(#a)"/><path d="M2152.8 373.1c3.8 38.4 9.7 68.5 9.7 68.5s-23.5 19.3-66.1 4.8l3.5-59.1c1-14.6 2.1-27.6 3-33.2 2.5-15.9 19.8-52.8 27.9-66.5 8-13.4 6.8-25.3 6.6-26.8q0-.2 0-.2 0 0 0 .1 0 0 .1 0c1.8 1.2 24 16.7 34 41.9 0 12.1-22.5 32.2-18.7 70.5z" fill="url(#b)"/><path d="M2127.1 314.5l-6.5 1.4 4.4 9.3-25.1 62.1c1-14.6 2.1-27.6 3-33.2 2.5-15.9 19.8-52.8 27.9-66.5 8-13.4 6.8-25.3 6.6-26.8v-.1l.1-.1q0 0 0 .1c.1 1.4 1.6 21-10.4 53.8z" fill="url(#c)"/><path d="M1986.6 432.5l50.5-29.9c2.2-1.3 4.8-1.3 7-.1l77.5 43.9.3-1.7h2.5v5.5q0 0 0 0v.1a3.56 3.56 0 0 1-1.8 3.1l-50.9 29.1c-2.7 1.5-6.1 1.5-8.8-.1l-76.3-44.3c-2.2-1.2-2.2-4.3 0-5.6z" fill="#195975"/><path d="M2122.5 441.9l-78.4-44.5c-2.2-1.2-4.8-1.2-7 .1l-50.5 29.9c-2.2 1.3-2.2 4.4 0 5.7l76.3 44.2c2.7 1.6 6.1 1.7 8.8.1l50.9-29c2.5-1.5 2.5-5.1-.1-6.5z" fill="#55acd8"/><g fill="#005289"><path d="M2085.6 448.4l-3.7 2.1 5.5 3.1 3.6-2.1zm-5.9-3.4l-3.6 2.1 4.8 2.8 3.7-2.1zm-5.8-3.4l-3.6 2.1 4.7 2.8 3.7-2.1zm-26.5-15.3l-3.6 2.1 25.4 14.8 3.7-2.2zm-5.8-3.4l-3.7 2.1 4.8 2.8 3.7-2.1zm-5.8-3.3l-3.7 2.1 4.8 2.8 3.6-2.2zm-10.9-2.1l6.2 3.6 3.6-2.1-6.1-3.6zm52.5 32.2l-3.6 2.1 8.3 4.9 3.7-2.2zm-5.7-3.3l-3.7 2.1 4.7 2.7 3.7-2.1zm-5.6-3.3l-3.7 2.1 4.6 2.7 3.6-2.1zm-5.6-3.2l-3.7 2.1 4.6 2.7 3.6-2.2zm-5.6-3.2l-3.7 2.1 4.6 2.6 3.7-2.1zm-5.7-3.3l-3.7 2.1 4.7 2.7 3.7-2.1zm-5.6-3.3l-3.7 2.2 4.6 2.6 3.7-2.1zm-5.5-3.1l-3.7 2.1 4.5 2.6 3.7-2.2zm-5.6-3.3l-3.7 2.2 4.6 2.6 3.7-2.1zm-12.8-3.1l8.1 4.7 3.7-2.2-8.1-4.7zm54.5 34.2l-2.9 1.7 5.5 3.2 3.7-2.1-5.6-3.2zm-5.8-3.3l-2.9 1.7 4.7 2.7 3-1.7.7-.4-4.7-2.7zm-5.6-3.2l-2.9 1.6 4.6 2.7 2.9-1.7.8-.4-4.6-2.7zm-5.6-3.3l-2.9 1.7 4.6 2.7 2.9-1.7.7-.5-4.5-2.6zm-5.6-3.2l-2.9 1.7 4.6 2.6 2.9-1.6.8-.5-4.6-2.6zm-5.6-3.3l-3 1.7 4.7 2.7 2.9-1.7.8-.4-4.7-2.7zm-5.7-3.2l-2.9 1.7 4.6 2.6 2.9-1.7.8-.4-4.6-2.7zm-5.5-3.2l-2.9 1.7 4.5 2.6 2.9-1.7.8-.5-4.5-2.5zm-5.6-3.2l-2.9 1.7 4.6 2.6 2.9-1.7.8-.4-4.6-2.7zm-14.9-5.3l11 6.4 2.9-1.7.8-.5-11-6.3zm55.8 35.3l-2.5 1.4 4.1 2.4 3.7-2.1-4.2-2.4-.4.2zm-5.8-3.4l-2.5 1.5 4.8 2.7 2.5-1.4.7-.5.4-.2-4.7-2.7-.4.2zm-5.6-3.2l-2.5 1.4 4.6 2.7 2.5-1.5.8-.4.4-.2-4.6-2.7-.4.3zm-5.6-3.2l-2.5 1.4 4.6 2.7 2.5-1.5.7-.4.4-.3-4.5-2.6-.4.2zm-5.6-3.3l-2.5 1.5 4.6 2.6 2.5-1.4.8-.5.4-.2-4.6-2.6-.4.2zm-5.6-3.3l-2.6 1.5 4.7 2.7 2.5-1.5.8-.4.4-.2-4.7-2.7-.4.2zm-5.7-3.2l-2.5 1.5 4.6 2.6 2.5-1.4.8-.5.4-.2-4.6-2.7-.4.3zm-5.4-3.2l-2.6 1.5 4.5 2.6 2.5-1.5.8-.4.4-.3-4.5-2.5-.4.2zm-5.7-3.2l-2.5 1.4 4.6 2.7 2.5-1.5.8-.4.4-.2-4.6-2.7-.4.2zm-15.8-6.3l12.3 7.2 2.5-1.5.8-.4.4-.3-12.4-7.1zm53.7 33.6l-3 1.8 6.5 3.8 3.7-2.1-6.6-3.8-.2.1zm-5.7-3.3l-3.1 1.8 4.7 2.7 3.1-1.8.4-.2.2-.1-4.7-2.8-.2.2zm-5.7-3.2l-3 1.7 4.6 2.7 3-1.8.4-.2.3-.1-4.6-2.7-.3.1zm-5.5-3.3l-3.1 1.8 4.6 2.6 3-1.7.4-.3.3-.1-4.6-2.6-.2.1-.4.2zm-5.6-3.2l-3.1 1.8 4.6 2.6 3-1.7.4-.3.3-.1-4.6-2.7-.2.2zm-5.7-3.3l-3.1 1.8 4.7 2.7 3-1.8.4-.2.3-.2-4.7-2.6-.2.1zm-5.6-3.2l-3.1 1.7 4.6 2.7 3.1-1.8.4-.2.2-.1-4.6-2.7-.2.1zm-5.5-3.2l-3.1 1.8 4.5 2.5 3-1.7.4-.2.3-.2-4.5-2.6-.2.2zm-5.6-3.2l-3.1 1.7 4.6 2.7 3.1-1.8.4-.2.2-.2-4.6-2.6-.2.1zm-14-4.6l9.9 5.7 3-1.7.4-.3.3-.1-10-5.8z"/></g><path d="M2046.8 385.4s-2.6 6.2-1.6 8.9c.9 2.7 1.5 7.5 1.3 11-.1 2.8-2.8 9-2.8 9s-2.2 1.7-3.5.5c-1.4-1.3-.9-3.3-.2-4.3.8-1 1.2-2.4.9-4.5s-.8-2.5-.8-2.5-1.2 1.4-2.3 5.1c-1.5 5.5-1.8 8.9-1.9 12.9-.1 3.3-3.2 3.3-4.1 2.3-.6-.7-1.4-2.9-.5-5.6.9-2.8 1.3-7.6 1.2-8.9-.1-1.2.3-3.5-.3-2.8-.7.7-1.8 4.8-1.7 6 .1 1.1-1.7 8-2.9 8.4-1.5.5-3.9-2-3.2-5.3.7-3.2 2.9-9.1 2.9-9.1s-.2-1.6-1.7-.1c-1.4 1.6-2.2 5.7-3 6.5-1.6 1.8-4 .3-3.5-3.1.6-3.4 3.6-6.8 4-7.7.3-1-2.1.9-2.3 1.3-.1.4-2.4 2.6-3 2.8-2.7.8-2.9-.9-1.1-3.7 1.8-2.7 4-4.3 6.3-7.2s10.4-13.9 10.9-15.4c0 0 7.3-.6 12.9 5.5z" fill="url(#d)"/><path d="M1950 373.2l1.4-1q.1-.1.1-.1a1.65 1.65 0 0 1 1.9 0l75.9 45c1.3.8 2.4 1.8 3.2 3.1l35.5 58.4-1.6 1.1-4.6-3.9 1.1-.2L1985 431l-34-56.5q-.3-.5-.3-1z" fill="#00416d"/><path d="M2066.4 479.7l-35.5-58.3c-.8-1.3-1.8-2.4-3.1-3.1l-76-45.1c-1.6-1-3.4.8-2.4 2.4l34.1 56.5z" fill="#2c6d91"/><path d="m2089.9 430.2l-15 8.7-23.7-14 14.8-8.5z" fill="#005289"/><path d="M2032.7 375.6l-4.4 7.7s11.8.5 18.1 8.6l4.8-6.9s-6.5-6.7-18.5-9.4z" class="G"/><path d="M2091.5 258.2c-4.2 4.6-21.8 28.3-20.2 92-7.8 17.1-20.1 37.1-20.1 37.1-3.8-9.3-20.7-10.9-20.7-10.9l31.6-60.8c2.9-6.7 2.5-18 5-26.8 6.7-25.6 24.4-30.6 24.4-30.6z" fill="url(#e)"/><path d="M2128.7 250.3s1.6 9.6 3 12.8-5 18.6-18.4 20.6c-4 0-9.6 1-10.4-8.1z" fill="url(#f)"/><path d="M2078.5 233.5s1.3 17.4 2.7 23.9 7.6 20.5 17.1 22.4c8.4 1.6 13.3-2.7 17.8-7.8 4.4-5.1 9.6-15.5 9.8-18.5 0 0 3.7.9 7.4-3.2 3.7-4.2 5.5-9.5 1.9-12-3.7-2.5-29.3-31.6-56.7-4.8z" fill="url(#g)"/><path d="M2078.5 215.4s23.6-37.4 51.8-16.7c0 0 12.7 4.8 12.6 16.7-.1 11.3-1.5 14.9-13.7 27.9l-3.1 6.3h-3.6l1.2-7.9s2.1-7.8-11.1-6.4-34.7-.5-34.7-.5l-2.8-7.6s0-6.9 3.4-11.8z" fill="url(#h)"/><path d="M2124.4 228.4s-2.8 7.4-4.6 8.2q0 0 0 0-.5.2-1.1.4c-4.7 2.2-35.5 18.1-43.1-5.5-.6-2.3-.7-5-.1-7.8.3.3 7.1 8 18.9 1.2 0 0-.6 4.9-3 6.3 0 0 10.9 1.8 16.4-5.6 0 0 0 3-2.2 7.2 0 0 13.8.1 18.8-4.4z" fill="url(#i)"/><path d="M2116.5 438s-6.8 6.5-13.7 9c-6.8 2.6-7.1 5.1-9.9 5.9s-6.7-.8-3.6-3.8c3-2.9 3.5-3.5 3.5-3.5s1.1-4.3-2.2-1.4c-3.2 2.8-6.2 5-8.2 3.6-2.1-1.4 1-4.8 2.4-6.1 1.3-1.3 4.7-3.4 4.7-3.4s0-.9-2.6-1.1c-1.8-.2-4.9 2.4-6 4-1.2 1.7-2.9 3.7-4.2 2.8s-1.5-1.8-1.1-4.2 2.9-4.1 3.8-5 .4-1.8-2.3-.6-7.3 2.6-7.3 2.6-6.2 2.8-3.7-1.5c1.7-3.1 8.2-5.9 10.5-6.3s9.1-3.1 17-2.9 17.2 0 17.2 0z" fill="url(#j)"/><path d="M2113.8 422l-6 3.5s1.1 14.5 9 18.2l6.8-3.6z" class="G"/><path d="M2178.7 317.1s-6.9-27.2-25.6-20.9c-18.6 6.2-19.3 34.8-10.8 40.3s17.1 39.2 16.8 49.3c-.2 10.2-6 12.2-10.6 14.3s-35.9 21.9-35.9 21.9 1.6 14.8 9.4 20.1l53.5-25.2s15-4.4 12.4-29.9c-2.5-25.6-9.2-69.9-9.2-69.9z" fill="url(#k)"/></g><g transform="matrix(.253459 0 0 .247419 451.391174 15.57698)"><use href="#w" class="H"/><circle cx="-301.489" cy="620.022" r="29" class="B"/></g><g transform="matrix(.253459 0 0 .247419 215.238311 54.581123)"><use href="#w" class="H"/><circle cx="-301.489" cy="620.022" r="29" class="B"/></g><g transform="matrix(.253459 0 0 .247419 238.963653 18.609298)"><use href="#w" class="H"/><circle cx="-301.489" cy="620.022" r="29" class="B"/></g></svg>