<svg xmlns="http://www.w3.org/2000/svg" viewBox="542.165 240 16.012 19.999" xmlns:v="https://vecta.io/nano"><path fill-rule="evenodd" d="M550.076 240.001c4.623-.057 8.332 3.804 8.09 8.421-.075 1.41-.523 2.776-1.297 3.957a1.02 1.02 0 0 1-.133.204l-.108.129c-.178.243-.37.477-.573.699l-5.112 6.224a1 1 0 0 1-1.545 0l-5.246-6.368-.002-.002c-.105-.125-.208-.252-.309-.38l-.133-.163c-.051-.062-.095-.13-.13-.202-3.482-5.075-.165-12.016 5.971-12.495a8.41 8.41 0 0 1 .527-.023v-.001zm3.094 8.003c.042 2.309-2.431 3.798-4.452 2.68a3 3 0 0 1-1.547-2.68c.042-2.309 2.568-3.707 4.547-2.516.884.533 1.433 1.483 1.452 2.516z"/></svg>